%TF.GenerationSoftware,KiCad,Pcbnew,7.0.9*%
%TF.CreationDate,2024-06-20T13:45:24+03:00*%
%TF.ProjectId,_____ _______ _______ __________,1f3b3042-3020-4323-9d35-483d38452048,rev?*%
%TF.SameCoordinates,Original*%
%TF.FileFunction,Soldermask,Bot*%
%TF.FilePolarity,Negative*%
%FSLAX46Y46*%
G04 Gerber Fmt 4.6, Leading zero omitted, Abs format (unit mm)*
G04 Created by KiCad (PCBNEW 7.0.9) date 2024-06-20 13:45:24*
%MOMM*%
%LPD*%
G01*
G04 APERTURE LIST*
G04 Aperture macros list*
%AMRoundRect*
0 Rectangle with rounded corners*
0 $1 Rounding radius*
0 $2 $3 $4 $5 $6 $7 $8 $9 X,Y pos of 4 corners*
0 Add a 4 corners polygon primitive as box body*
4,1,4,$2,$3,$4,$5,$6,$7,$8,$9,$2,$3,0*
0 Add four circle primitives for the rounded corners*
1,1,$1+$1,$2,$3*
1,1,$1+$1,$4,$5*
1,1,$1+$1,$6,$7*
1,1,$1+$1,$8,$9*
0 Add four rect primitives between the rounded corners*
20,1,$1+$1,$2,$3,$4,$5,0*
20,1,$1+$1,$4,$5,$6,$7,0*
20,1,$1+$1,$6,$7,$8,$9,0*
20,1,$1+$1,$8,$9,$2,$3,0*%
%AMFreePoly0*
4,1,9,3.862500,-0.866500,0.737500,-0.866500,0.737500,-0.450000,-0.737500,-0.450000,-0.737500,0.450000,0.737500,0.450000,0.737500,0.866500,3.862500,0.866500,3.862500,-0.866500,3.862500,-0.866500,$1*%
G04 Aperture macros list end*
%ADD10R,1.700000X1.700000*%
%ADD11O,1.700000X1.700000*%
%ADD12R,1.750000X2.250000*%
%ADD13O,1.750000X2.250000*%
%ADD14C,1.700000*%
%ADD15R,1.600000X1.600000*%
%ADD16C,1.600000*%
%ADD17C,3.200000*%
%ADD18C,1.524000*%
%ADD19R,1.524000X7.000000*%
%ADD20RoundRect,0.237500X-0.237500X0.300000X-0.237500X-0.300000X0.237500X-0.300000X0.237500X0.300000X0*%
%ADD21RoundRect,0.237500X-0.300000X-0.237500X0.300000X-0.237500X0.300000X0.237500X-0.300000X0.237500X0*%
%ADD22RoundRect,0.237500X0.287500X0.237500X-0.287500X0.237500X-0.287500X-0.237500X0.287500X-0.237500X0*%
%ADD23RoundRect,0.250001X-0.462499X-1.074999X0.462499X-1.074999X0.462499X1.074999X-0.462499X1.074999X0*%
%ADD24C,1.000000*%
%ADD25RoundRect,0.250001X0.462499X0.624999X-0.462499X0.624999X-0.462499X-0.624999X0.462499X-0.624999X0*%
%ADD26RoundRect,0.237500X0.237500X-0.300000X0.237500X0.300000X-0.237500X0.300000X-0.237500X-0.300000X0*%
%ADD27R,1.300000X0.900000*%
%ADD28FreePoly0,0.000000*%
%ADD29RoundRect,0.250000X0.337500X0.475000X-0.337500X0.475000X-0.337500X-0.475000X0.337500X-0.475000X0*%
%ADD30RoundRect,0.200000X0.200000X-0.250000X0.200000X0.250000X-0.200000X0.250000X-0.200000X-0.250000X0*%
%ADD31RoundRect,0.250001X0.624999X-0.462499X0.624999X0.462499X-0.624999X0.462499X-0.624999X-0.462499X0*%
%ADD32RoundRect,0.250001X0.462499X1.074999X-0.462499X1.074999X-0.462499X-1.074999X0.462499X-1.074999X0*%
%ADD33RoundRect,0.243750X0.243750X0.456250X-0.243750X0.456250X-0.243750X-0.456250X0.243750X-0.456250X0*%
%ADD34RoundRect,0.150000X0.512500X0.150000X-0.512500X0.150000X-0.512500X-0.150000X0.512500X-0.150000X0*%
%ADD35RoundRect,0.237500X-0.287500X-0.237500X0.287500X-0.237500X0.287500X0.237500X-0.287500X0.237500X0*%
%ADD36RoundRect,0.250000X0.500000X0.500000X-0.500000X0.500000X-0.500000X-0.500000X0.500000X-0.500000X0*%
%ADD37RoundRect,0.225000X0.225000X0.225000X-0.225000X0.225000X-0.225000X-0.225000X0.225000X-0.225000X0*%
%ADD38RoundRect,0.250000X-0.450000X0.350000X-0.450000X-0.350000X0.450000X-0.350000X0.450000X0.350000X0*%
%ADD39RoundRect,0.150000X-0.837500X-0.150000X0.837500X-0.150000X0.837500X0.150000X-0.837500X0.150000X0*%
%ADD40RoundRect,0.250001X-0.462499X-0.624999X0.462499X-0.624999X0.462499X0.624999X-0.462499X0.624999X0*%
%ADD41RoundRect,0.250000X-0.475000X0.337500X-0.475000X-0.337500X0.475000X-0.337500X0.475000X0.337500X0*%
%ADD42RoundRect,0.250000X-0.350000X-0.450000X0.350000X-0.450000X0.350000X0.450000X-0.350000X0.450000X0*%
%ADD43RoundRect,0.150000X-0.150000X0.600000X-0.150000X-0.600000X0.150000X-0.600000X0.150000X0.600000X0*%
%ADD44RoundRect,0.250001X-0.624999X0.462499X-0.624999X-0.462499X0.624999X-0.462499X0.624999X0.462499X0*%
%ADD45RoundRect,0.150000X0.825000X0.150000X-0.825000X0.150000X-0.825000X-0.150000X0.825000X-0.150000X0*%
G04 APERTURE END LIST*
D10*
%TO.C,J7*%
X91250000Y-79000000D03*
D11*
X91250000Y-81540000D03*
X91250000Y-84080000D03*
%TD*%
D12*
%TO.C,U5*%
X152120000Y-115000000D03*
D13*
X149580000Y-115000000D03*
X147040000Y-115000000D03*
X144500000Y-115000000D03*
%TD*%
D14*
%TO.C,J3*%
X105620000Y-75000000D03*
X105620000Y-80080000D03*
X103080000Y-75000000D03*
X103080000Y-80080000D03*
X100540000Y-75000000D03*
X100540000Y-80080000D03*
X98000000Y-75000000D03*
X98000000Y-80080000D03*
%TD*%
D15*
%TO.C,C14*%
X164750000Y-111000000D03*
D16*
X167250000Y-111000000D03*
%TD*%
D17*
%TO.C,H2*%
X93000000Y-115000000D03*
%TD*%
D14*
%TO.C,J5*%
X131620000Y-75000000D03*
X131620000Y-80080000D03*
X129080000Y-75000000D03*
X129080000Y-80080000D03*
X126540000Y-75000000D03*
X126540000Y-80080000D03*
X124000000Y-75000000D03*
X124000000Y-80080000D03*
%TD*%
%TO.C,J2*%
X172860000Y-74920000D03*
D18*
X172860000Y-80000000D03*
D14*
X170320000Y-74920000D03*
X170320000Y-80000000D03*
X167780000Y-74920000D03*
X167780000Y-80000000D03*
X165240000Y-74920000D03*
X165240000Y-80000000D03*
X162700000Y-74920000D03*
X162700000Y-80000000D03*
X160160000Y-74920000D03*
X160160000Y-80000000D03*
X157620000Y-74920000D03*
X157620000Y-80000000D03*
X155080000Y-74920000D03*
X155080000Y-80000000D03*
X152540000Y-74920000D03*
X152540000Y-80000000D03*
X150000000Y-74920000D03*
X150000000Y-80000000D03*
%TD*%
%TO.C,J4*%
X118620000Y-75000000D03*
X118620000Y-80080000D03*
X116080000Y-75000000D03*
X116080000Y-80080000D03*
X113540000Y-75000000D03*
X113540000Y-80080000D03*
X111000000Y-75000000D03*
X111000000Y-80080000D03*
%TD*%
D10*
%TO.C,J8*%
X91250000Y-72250000D03*
D11*
X91250000Y-74790000D03*
%TD*%
D17*
%TO.C,H1*%
X93000000Y-95000000D03*
%TD*%
D19*
%TO.C,RS1*%
X101460000Y-126500000D03*
X104000000Y-126500000D03*
X106540000Y-126500000D03*
X109080000Y-126500000D03*
X111620000Y-126500000D03*
X111620000Y-126500000D03*
X109080000Y-126500000D03*
X106540000Y-126500000D03*
X104000000Y-126500000D03*
X101460000Y-126500000D03*
%TD*%
%TO.C,RS2*%
X160840000Y-126500000D03*
X163380000Y-126500000D03*
X165920000Y-126500000D03*
X168460000Y-126500000D03*
X171000000Y-126500000D03*
X171000000Y-126500000D03*
X168460000Y-126500000D03*
X165920000Y-126500000D03*
X163380000Y-126500000D03*
X160840000Y-126500000D03*
%TD*%
D10*
%TO.C,J1*%
X133000000Y-101540000D03*
D11*
X130460000Y-101540000D03*
X133000000Y-99000000D03*
X130460000Y-99000000D03*
X133000000Y-96460000D03*
X130460000Y-96460000D03*
%TD*%
D14*
%TO.C,J6*%
X144620000Y-75000000D03*
X144620000Y-80080000D03*
X142080000Y-75000000D03*
X142080000Y-80080000D03*
X139540000Y-75000000D03*
X139540000Y-80080000D03*
X137000000Y-75000000D03*
X137000000Y-80080000D03*
%TD*%
D20*
%TO.C,C28*%
X115500000Y-98000000D03*
X115500000Y-99725000D03*
%TD*%
D21*
%TO.C,C30*%
X121500000Y-92500000D03*
X123225000Y-92500000D03*
%TD*%
D22*
%TO.C,R10*%
X147500000Y-93600000D03*
X145750000Y-93600000D03*
%TD*%
D21*
%TO.C,C26*%
X117137500Y-105500000D03*
X118862500Y-105500000D03*
%TD*%
D23*
%TO.C,C10*%
X144000000Y-118000000D03*
X146975000Y-118000000D03*
%TD*%
D24*
%TO.C,TP3*%
X139500000Y-98000000D03*
%TD*%
D25*
%TO.C,R32*%
X141987500Y-85500000D03*
X139012500Y-85500000D03*
%TD*%
D26*
%TO.C,C29*%
X116000000Y-73000000D03*
X116000000Y-71275000D03*
%TD*%
D24*
%TO.C,TP16*%
X126000000Y-79000000D03*
%TD*%
D26*
%TO.C,C33*%
X129000000Y-73000000D03*
X129000000Y-71275000D03*
%TD*%
D27*
%TO.C,U6*%
X140050000Y-96500000D03*
D28*
X140137500Y-95000000D03*
D27*
X140050000Y-93500000D03*
%TD*%
D24*
%TO.C,TP22*%
X134000000Y-115000000D03*
%TD*%
D29*
%TO.C,C1*%
X102612500Y-110500000D03*
X100537500Y-110500000D03*
%TD*%
D26*
%TO.C,C25*%
X103000000Y-73000000D03*
X103000000Y-71275000D03*
%TD*%
D30*
%TO.C,Q3*%
X157500000Y-90300000D03*
X155600000Y-90300000D03*
X156550000Y-88300000D03*
%TD*%
D25*
%TO.C,R30*%
X118175000Y-87200000D03*
X115200000Y-87200000D03*
%TD*%
D24*
%TO.C,TP7*%
X100500000Y-82500000D03*
%TD*%
D29*
%TO.C,C9*%
X122737500Y-117000000D03*
X120662500Y-117000000D03*
%TD*%
D25*
%TO.C,R24*%
X100300000Y-84500000D03*
X97325000Y-84500000D03*
%TD*%
D31*
%TO.C,R42*%
X170000000Y-84975000D03*
X170000000Y-82000000D03*
%TD*%
D24*
%TO.C,TP13*%
X112800000Y-79000000D03*
%TD*%
D26*
%TO.C,C36*%
X139250000Y-73000000D03*
X139250000Y-71275000D03*
%TD*%
D31*
%TO.C,R40*%
X167500000Y-85000000D03*
X167500000Y-82025000D03*
%TD*%
D32*
%TO.C,C13*%
X152500000Y-118800000D03*
X149525000Y-118800000D03*
%TD*%
D26*
%TO.C,C20*%
X165000000Y-73000000D03*
X165000000Y-71275000D03*
%TD*%
D30*
%TO.C,Q2*%
X152500000Y-90300000D03*
X150600000Y-90300000D03*
X151550000Y-88300000D03*
%TD*%
D26*
%TO.C,C16*%
X155000000Y-73000000D03*
X155000000Y-71275000D03*
%TD*%
D33*
%TO.C,R2*%
X108250000Y-110500000D03*
X106375000Y-110500000D03*
%TD*%
D34*
%TO.C,U8*%
X150500000Y-108050000D03*
X150500000Y-109000000D03*
X150500000Y-109950000D03*
X148225000Y-109950000D03*
X148225000Y-109000000D03*
X148225000Y-108050000D03*
%TD*%
D31*
%TO.C,R39*%
X165000000Y-84975000D03*
X165000000Y-82000000D03*
%TD*%
D25*
%TO.C,R33*%
X141975000Y-88500000D03*
X139000000Y-88500000D03*
%TD*%
D22*
%TO.C,R21*%
X157500000Y-93600000D03*
X155750000Y-93600000D03*
%TD*%
D25*
%TO.C,R23*%
X105475000Y-84500000D03*
X102500000Y-84500000D03*
%TD*%
D26*
%TO.C,C15*%
X150000000Y-73000000D03*
X150000000Y-71275000D03*
%TD*%
D35*
%TO.C,R22*%
X155750000Y-92000000D03*
X157500000Y-92000000D03*
%TD*%
D36*
%TO.C,D1*%
X135699293Y-84000000D03*
X132199293Y-84000000D03*
D37*
X133949293Y-84650000D03*
%TD*%
D26*
%TO.C,C40*%
X167750000Y-73000000D03*
X167750000Y-71275000D03*
%TD*%
D24*
%TO.C,TP8*%
X146500000Y-104500000D03*
%TD*%
D23*
%TO.C,C2*%
X115012500Y-119200000D03*
X117987500Y-119200000D03*
%TD*%
D38*
%TO.C,R44*%
X167000000Y-100500000D03*
X167000000Y-102500000D03*
%TD*%
D24*
%TO.C,TP1*%
X114900000Y-105500000D03*
%TD*%
D26*
%TO.C,C17*%
X160000000Y-73000000D03*
X160000000Y-71275000D03*
%TD*%
D39*
%TO.C,U7*%
X117497500Y-102847500D03*
X117497500Y-101577500D03*
X117497500Y-100307500D03*
X117497500Y-99037500D03*
X117497500Y-97767500D03*
X117497500Y-96497500D03*
X117497500Y-95227500D03*
X124422500Y-95227500D03*
X124422500Y-96497500D03*
X124422500Y-97767500D03*
X124422500Y-99037500D03*
X124422500Y-100307500D03*
X124422500Y-101577500D03*
X124422500Y-102847500D03*
%TD*%
D26*
%TO.C,C31*%
X113250000Y-73000000D03*
X113250000Y-71275000D03*
%TD*%
D40*
%TO.C,R26*%
X107712500Y-84600000D03*
X110687500Y-84600000D03*
%TD*%
D24*
%TO.C,TP11*%
X113000000Y-103500000D03*
%TD*%
D41*
%TO.C,C8*%
X110750000Y-117250000D03*
X110750000Y-119325000D03*
%TD*%
D40*
%TO.C,R29*%
X115200000Y-84600000D03*
X118175000Y-84600000D03*
%TD*%
D24*
%TO.C,TP20*%
X170250000Y-76500000D03*
%TD*%
D26*
%TO.C,C21*%
X170250000Y-73000000D03*
X170250000Y-71275000D03*
%TD*%
%TO.C,C41*%
X173000000Y-73000000D03*
X173000000Y-71275000D03*
%TD*%
%TO.C,C35*%
X142000000Y-73000000D03*
X142000000Y-71275000D03*
%TD*%
D35*
%TO.C,R11*%
X145750000Y-92000000D03*
X147500000Y-92000000D03*
%TD*%
D24*
%TO.C,TP10*%
X146100000Y-106000000D03*
%TD*%
D38*
%TO.C,R25*%
X102000000Y-101500000D03*
X102000000Y-103500000D03*
%TD*%
D22*
%TO.C,R13*%
X152500000Y-93600000D03*
X150750000Y-93600000D03*
%TD*%
D42*
%TO.C,R34*%
X110000000Y-101000000D03*
X112000000Y-101000000D03*
%TD*%
D30*
%TO.C,Q1*%
X147450000Y-90300000D03*
X145550000Y-90300000D03*
X146500000Y-88300000D03*
%TD*%
D35*
%TO.C,R14*%
X150750000Y-92000000D03*
X152500000Y-92000000D03*
%TD*%
D24*
%TO.C,TP5*%
X114500000Y-96900000D03*
%TD*%
D36*
%TO.C,D2*%
X129200000Y-84000000D03*
X125700000Y-84000000D03*
D37*
X127450000Y-84650000D03*
%TD*%
D20*
%TO.C,C32*%
X126500000Y-103137500D03*
X126500000Y-104862500D03*
%TD*%
D38*
%TO.C,R31*%
X107000000Y-101500000D03*
X107000000Y-103500000D03*
%TD*%
D26*
%TO.C,C27*%
X100250000Y-73000000D03*
X100250000Y-71275000D03*
%TD*%
D24*
%TO.C,TP21*%
X165250000Y-76500000D03*
%TD*%
D43*
%TO.C,OC1*%
X100805000Y-91450000D03*
X102075000Y-91450000D03*
X103345000Y-91450000D03*
X104615000Y-91450000D03*
X105885000Y-91450000D03*
X107155000Y-91450000D03*
X108425000Y-91450000D03*
X109695000Y-91450000D03*
X109695000Y-98550000D03*
X108425000Y-98550000D03*
X107155000Y-98550000D03*
X105885000Y-98550000D03*
X104615000Y-98550000D03*
X103345000Y-98550000D03*
X102075000Y-98550000D03*
X100805000Y-98550000D03*
%TD*%
D44*
%TO.C,R41*%
X172500000Y-82000000D03*
X172500000Y-84975000D03*
%TD*%
D38*
%TO.C,R45*%
X162000000Y-100500000D03*
X162000000Y-102500000D03*
%TD*%
D24*
%TO.C,TP9*%
X148000000Y-106000000D03*
%TD*%
D25*
%TO.C,R27*%
X110575000Y-87200000D03*
X107600000Y-87200000D03*
%TD*%
D33*
%TO.C,R4*%
X119375000Y-110000000D03*
X117500000Y-110000000D03*
%TD*%
D26*
%TO.C,C34*%
X126250000Y-73000000D03*
X126250000Y-71275000D03*
%TD*%
D24*
%TO.C,TP14*%
X126000000Y-101500000D03*
%TD*%
D45*
%TO.C,U1*%
X105475000Y-112460000D03*
X105475000Y-113730000D03*
X105475000Y-115000000D03*
X105475000Y-116270000D03*
X100525000Y-116270000D03*
X100525000Y-115000000D03*
X100525000Y-113730000D03*
X100525000Y-112460000D03*
%TD*%
D38*
%TO.C,R28*%
X104500000Y-101500000D03*
X104500000Y-103500000D03*
%TD*%
M02*
