%TF.GenerationSoftware,KiCad,Pcbnew,7.0.9*%
%TF.CreationDate,2024-06-20T13:45:24+03:00*%
%TF.ProjectId,_____ _______ _______ __________,1f3b3042-3020-4323-9d35-483d38452048,rev?*%
%TF.SameCoordinates,Original*%
%TF.FileFunction,Legend,Bot*%
%TF.FilePolarity,Positive*%
%FSLAX46Y46*%
G04 Gerber Fmt 4.6, Leading zero omitted, Abs format (unit mm)*
G04 Created by KiCad (PCBNEW 7.0.9) date 2024-06-20 13:45:24*
%MOMM*%
%LPD*%
G01*
G04 APERTURE LIST*
%ADD10C,0.100000*%
%ADD11C,0.150000*%
%ADD12C,0.120000*%
%ADD13C,0.300000*%
G04 APERTURE END LIST*
D10*
X102033333Y-77257419D02*
X102033333Y-77971704D01*
X102033333Y-77971704D02*
X102080952Y-78114561D01*
X102080952Y-78114561D02*
X102176190Y-78209800D01*
X102176190Y-78209800D02*
X102319047Y-78257419D01*
X102319047Y-78257419D02*
X102414285Y-78257419D01*
X101652380Y-77257419D02*
X101033333Y-77257419D01*
X101033333Y-77257419D02*
X101366666Y-77638371D01*
X101366666Y-77638371D02*
X101223809Y-77638371D01*
X101223809Y-77638371D02*
X101128571Y-77685990D01*
X101128571Y-77685990D02*
X101080952Y-77733609D01*
X101080952Y-77733609D02*
X101033333Y-77828847D01*
X101033333Y-77828847D02*
X101033333Y-78066942D01*
X101033333Y-78066942D02*
X101080952Y-78162180D01*
X101080952Y-78162180D02*
X101128571Y-78209800D01*
X101128571Y-78209800D02*
X101223809Y-78257419D01*
X101223809Y-78257419D02*
X101509523Y-78257419D01*
X101509523Y-78257419D02*
X101604761Y-78209800D01*
X101604761Y-78209800D02*
X101652380Y-78162180D01*
X130633333Y-77057419D02*
X130633333Y-77771704D01*
X130633333Y-77771704D02*
X130680952Y-77914561D01*
X130680952Y-77914561D02*
X130776190Y-78009800D01*
X130776190Y-78009800D02*
X130919047Y-78057419D01*
X130919047Y-78057419D02*
X131014285Y-78057419D01*
X129680952Y-77057419D02*
X130157142Y-77057419D01*
X130157142Y-77057419D02*
X130204761Y-77533609D01*
X130204761Y-77533609D02*
X130157142Y-77485990D01*
X130157142Y-77485990D02*
X130061904Y-77438371D01*
X130061904Y-77438371D02*
X129823809Y-77438371D01*
X129823809Y-77438371D02*
X129728571Y-77485990D01*
X129728571Y-77485990D02*
X129680952Y-77533609D01*
X129680952Y-77533609D02*
X129633333Y-77628847D01*
X129633333Y-77628847D02*
X129633333Y-77866942D01*
X129633333Y-77866942D02*
X129680952Y-77962180D01*
X129680952Y-77962180D02*
X129728571Y-78009800D01*
X129728571Y-78009800D02*
X129823809Y-78057419D01*
X129823809Y-78057419D02*
X130061904Y-78057419D01*
X130061904Y-78057419D02*
X130157142Y-78009800D01*
X130157142Y-78009800D02*
X130204761Y-77962180D01*
X154233333Y-77157419D02*
X154233333Y-77871704D01*
X154233333Y-77871704D02*
X154280952Y-78014561D01*
X154280952Y-78014561D02*
X154376190Y-78109800D01*
X154376190Y-78109800D02*
X154519047Y-78157419D01*
X154519047Y-78157419D02*
X154614285Y-78157419D01*
X153804761Y-77252657D02*
X153757142Y-77205038D01*
X153757142Y-77205038D02*
X153661904Y-77157419D01*
X153661904Y-77157419D02*
X153423809Y-77157419D01*
X153423809Y-77157419D02*
X153328571Y-77205038D01*
X153328571Y-77205038D02*
X153280952Y-77252657D01*
X153280952Y-77252657D02*
X153233333Y-77347895D01*
X153233333Y-77347895D02*
X153233333Y-77443133D01*
X153233333Y-77443133D02*
X153280952Y-77585990D01*
X153280952Y-77585990D02*
X153852380Y-78157419D01*
X153852380Y-78157419D02*
X153233333Y-78157419D01*
X117533333Y-77457419D02*
X117533333Y-78171704D01*
X117533333Y-78171704D02*
X117580952Y-78314561D01*
X117580952Y-78314561D02*
X117676190Y-78409800D01*
X117676190Y-78409800D02*
X117819047Y-78457419D01*
X117819047Y-78457419D02*
X117914285Y-78457419D01*
X116628571Y-77790752D02*
X116628571Y-78457419D01*
X116866666Y-77409800D02*
X117104761Y-78124085D01*
X117104761Y-78124085D02*
X116485714Y-78124085D01*
X140933333Y-77157419D02*
X140933333Y-77871704D01*
X140933333Y-77871704D02*
X140980952Y-78014561D01*
X140980952Y-78014561D02*
X141076190Y-78109800D01*
X141076190Y-78109800D02*
X141219047Y-78157419D01*
X141219047Y-78157419D02*
X141314285Y-78157419D01*
X140028571Y-77157419D02*
X140219047Y-77157419D01*
X140219047Y-77157419D02*
X140314285Y-77205038D01*
X140314285Y-77205038D02*
X140361904Y-77252657D01*
X140361904Y-77252657D02*
X140457142Y-77395514D01*
X140457142Y-77395514D02*
X140504761Y-77585990D01*
X140504761Y-77585990D02*
X140504761Y-77966942D01*
X140504761Y-77966942D02*
X140457142Y-78062180D01*
X140457142Y-78062180D02*
X140409523Y-78109800D01*
X140409523Y-78109800D02*
X140314285Y-78157419D01*
X140314285Y-78157419D02*
X140123809Y-78157419D01*
X140123809Y-78157419D02*
X140028571Y-78109800D01*
X140028571Y-78109800D02*
X139980952Y-78062180D01*
X139980952Y-78062180D02*
X139933333Y-77966942D01*
X139933333Y-77966942D02*
X139933333Y-77728847D01*
X139933333Y-77728847D02*
X139980952Y-77633609D01*
X139980952Y-77633609D02*
X140028571Y-77585990D01*
X140028571Y-77585990D02*
X140123809Y-77538371D01*
X140123809Y-77538371D02*
X140314285Y-77538371D01*
X140314285Y-77538371D02*
X140409523Y-77585990D01*
X140409523Y-77585990D02*
X140457142Y-77633609D01*
X140457142Y-77633609D02*
X140504761Y-77728847D01*
D11*
X114429580Y-98219642D02*
X114477200Y-98172023D01*
X114477200Y-98172023D02*
X114524819Y-98029166D01*
X114524819Y-98029166D02*
X114524819Y-97933928D01*
X114524819Y-97933928D02*
X114477200Y-97791071D01*
X114477200Y-97791071D02*
X114381961Y-97695833D01*
X114381961Y-97695833D02*
X114286723Y-97648214D01*
X114286723Y-97648214D02*
X114096247Y-97600595D01*
X114096247Y-97600595D02*
X113953390Y-97600595D01*
X113953390Y-97600595D02*
X113762914Y-97648214D01*
X113762914Y-97648214D02*
X113667676Y-97695833D01*
X113667676Y-97695833D02*
X113572438Y-97791071D01*
X113572438Y-97791071D02*
X113524819Y-97933928D01*
X113524819Y-97933928D02*
X113524819Y-98029166D01*
X113524819Y-98029166D02*
X113572438Y-98172023D01*
X113572438Y-98172023D02*
X113620057Y-98219642D01*
X113620057Y-98600595D02*
X113572438Y-98648214D01*
X113572438Y-98648214D02*
X113524819Y-98743452D01*
X113524819Y-98743452D02*
X113524819Y-98981547D01*
X113524819Y-98981547D02*
X113572438Y-99076785D01*
X113572438Y-99076785D02*
X113620057Y-99124404D01*
X113620057Y-99124404D02*
X113715295Y-99172023D01*
X113715295Y-99172023D02*
X113810533Y-99172023D01*
X113810533Y-99172023D02*
X113953390Y-99124404D01*
X113953390Y-99124404D02*
X114524819Y-98552976D01*
X114524819Y-98552976D02*
X114524819Y-99172023D01*
X113953390Y-99743452D02*
X113905771Y-99648214D01*
X113905771Y-99648214D02*
X113858152Y-99600595D01*
X113858152Y-99600595D02*
X113762914Y-99552976D01*
X113762914Y-99552976D02*
X113715295Y-99552976D01*
X113715295Y-99552976D02*
X113620057Y-99600595D01*
X113620057Y-99600595D02*
X113572438Y-99648214D01*
X113572438Y-99648214D02*
X113524819Y-99743452D01*
X113524819Y-99743452D02*
X113524819Y-99933928D01*
X113524819Y-99933928D02*
X113572438Y-100029166D01*
X113572438Y-100029166D02*
X113620057Y-100076785D01*
X113620057Y-100076785D02*
X113715295Y-100124404D01*
X113715295Y-100124404D02*
X113762914Y-100124404D01*
X113762914Y-100124404D02*
X113858152Y-100076785D01*
X113858152Y-100076785D02*
X113905771Y-100029166D01*
X113905771Y-100029166D02*
X113953390Y-99933928D01*
X113953390Y-99933928D02*
X113953390Y-99743452D01*
X113953390Y-99743452D02*
X114001009Y-99648214D01*
X114001009Y-99648214D02*
X114048628Y-99600595D01*
X114048628Y-99600595D02*
X114143866Y-99552976D01*
X114143866Y-99552976D02*
X114334342Y-99552976D01*
X114334342Y-99552976D02*
X114429580Y-99600595D01*
X114429580Y-99600595D02*
X114477200Y-99648214D01*
X114477200Y-99648214D02*
X114524819Y-99743452D01*
X114524819Y-99743452D02*
X114524819Y-99933928D01*
X114524819Y-99933928D02*
X114477200Y-100029166D01*
X114477200Y-100029166D02*
X114429580Y-100076785D01*
X114429580Y-100076785D02*
X114334342Y-100124404D01*
X114334342Y-100124404D02*
X114143866Y-100124404D01*
X114143866Y-100124404D02*
X114048628Y-100076785D01*
X114048628Y-100076785D02*
X114001009Y-100029166D01*
X114001009Y-100029166D02*
X113953390Y-99933928D01*
X123005357Y-91259580D02*
X123052976Y-91307200D01*
X123052976Y-91307200D02*
X123195833Y-91354819D01*
X123195833Y-91354819D02*
X123291071Y-91354819D01*
X123291071Y-91354819D02*
X123433928Y-91307200D01*
X123433928Y-91307200D02*
X123529166Y-91211961D01*
X123529166Y-91211961D02*
X123576785Y-91116723D01*
X123576785Y-91116723D02*
X123624404Y-90926247D01*
X123624404Y-90926247D02*
X123624404Y-90783390D01*
X123624404Y-90783390D02*
X123576785Y-90592914D01*
X123576785Y-90592914D02*
X123529166Y-90497676D01*
X123529166Y-90497676D02*
X123433928Y-90402438D01*
X123433928Y-90402438D02*
X123291071Y-90354819D01*
X123291071Y-90354819D02*
X123195833Y-90354819D01*
X123195833Y-90354819D02*
X123052976Y-90402438D01*
X123052976Y-90402438D02*
X123005357Y-90450057D01*
X122672023Y-90354819D02*
X122052976Y-90354819D01*
X122052976Y-90354819D02*
X122386309Y-90735771D01*
X122386309Y-90735771D02*
X122243452Y-90735771D01*
X122243452Y-90735771D02*
X122148214Y-90783390D01*
X122148214Y-90783390D02*
X122100595Y-90831009D01*
X122100595Y-90831009D02*
X122052976Y-90926247D01*
X122052976Y-90926247D02*
X122052976Y-91164342D01*
X122052976Y-91164342D02*
X122100595Y-91259580D01*
X122100595Y-91259580D02*
X122148214Y-91307200D01*
X122148214Y-91307200D02*
X122243452Y-91354819D01*
X122243452Y-91354819D02*
X122529166Y-91354819D01*
X122529166Y-91354819D02*
X122624404Y-91307200D01*
X122624404Y-91307200D02*
X122672023Y-91259580D01*
X121433928Y-90354819D02*
X121338690Y-90354819D01*
X121338690Y-90354819D02*
X121243452Y-90402438D01*
X121243452Y-90402438D02*
X121195833Y-90450057D01*
X121195833Y-90450057D02*
X121148214Y-90545295D01*
X121148214Y-90545295D02*
X121100595Y-90735771D01*
X121100595Y-90735771D02*
X121100595Y-90973866D01*
X121100595Y-90973866D02*
X121148214Y-91164342D01*
X121148214Y-91164342D02*
X121195833Y-91259580D01*
X121195833Y-91259580D02*
X121243452Y-91307200D01*
X121243452Y-91307200D02*
X121338690Y-91354819D01*
X121338690Y-91354819D02*
X121433928Y-91354819D01*
X121433928Y-91354819D02*
X121529166Y-91307200D01*
X121529166Y-91307200D02*
X121576785Y-91259580D01*
X121576785Y-91259580D02*
X121624404Y-91164342D01*
X121624404Y-91164342D02*
X121672023Y-90973866D01*
X121672023Y-90973866D02*
X121672023Y-90735771D01*
X121672023Y-90735771D02*
X121624404Y-90545295D01*
X121624404Y-90545295D02*
X121576785Y-90450057D01*
X121576785Y-90450057D02*
X121529166Y-90402438D01*
X121529166Y-90402438D02*
X121433928Y-90354819D01*
X147142857Y-95554819D02*
X147476190Y-95078628D01*
X147714285Y-95554819D02*
X147714285Y-94554819D01*
X147714285Y-94554819D02*
X147333333Y-94554819D01*
X147333333Y-94554819D02*
X147238095Y-94602438D01*
X147238095Y-94602438D02*
X147190476Y-94650057D01*
X147190476Y-94650057D02*
X147142857Y-94745295D01*
X147142857Y-94745295D02*
X147142857Y-94888152D01*
X147142857Y-94888152D02*
X147190476Y-94983390D01*
X147190476Y-94983390D02*
X147238095Y-95031009D01*
X147238095Y-95031009D02*
X147333333Y-95078628D01*
X147333333Y-95078628D02*
X147714285Y-95078628D01*
X146190476Y-95554819D02*
X146761904Y-95554819D01*
X146476190Y-95554819D02*
X146476190Y-94554819D01*
X146476190Y-94554819D02*
X146571428Y-94697676D01*
X146571428Y-94697676D02*
X146666666Y-94792914D01*
X146666666Y-94792914D02*
X146761904Y-94840533D01*
X145571428Y-94554819D02*
X145476190Y-94554819D01*
X145476190Y-94554819D02*
X145380952Y-94602438D01*
X145380952Y-94602438D02*
X145333333Y-94650057D01*
X145333333Y-94650057D02*
X145285714Y-94745295D01*
X145285714Y-94745295D02*
X145238095Y-94935771D01*
X145238095Y-94935771D02*
X145238095Y-95173866D01*
X145238095Y-95173866D02*
X145285714Y-95364342D01*
X145285714Y-95364342D02*
X145333333Y-95459580D01*
X145333333Y-95459580D02*
X145380952Y-95507200D01*
X145380952Y-95507200D02*
X145476190Y-95554819D01*
X145476190Y-95554819D02*
X145571428Y-95554819D01*
X145571428Y-95554819D02*
X145666666Y-95507200D01*
X145666666Y-95507200D02*
X145714285Y-95459580D01*
X145714285Y-95459580D02*
X145761904Y-95364342D01*
X145761904Y-95364342D02*
X145809523Y-95173866D01*
X145809523Y-95173866D02*
X145809523Y-94935771D01*
X145809523Y-94935771D02*
X145761904Y-94745295D01*
X145761904Y-94745295D02*
X145714285Y-94650057D01*
X145714285Y-94650057D02*
X145666666Y-94602438D01*
X145666666Y-94602438D02*
X145571428Y-94554819D01*
X118642857Y-107459580D02*
X118690476Y-107507200D01*
X118690476Y-107507200D02*
X118833333Y-107554819D01*
X118833333Y-107554819D02*
X118928571Y-107554819D01*
X118928571Y-107554819D02*
X119071428Y-107507200D01*
X119071428Y-107507200D02*
X119166666Y-107411961D01*
X119166666Y-107411961D02*
X119214285Y-107316723D01*
X119214285Y-107316723D02*
X119261904Y-107126247D01*
X119261904Y-107126247D02*
X119261904Y-106983390D01*
X119261904Y-106983390D02*
X119214285Y-106792914D01*
X119214285Y-106792914D02*
X119166666Y-106697676D01*
X119166666Y-106697676D02*
X119071428Y-106602438D01*
X119071428Y-106602438D02*
X118928571Y-106554819D01*
X118928571Y-106554819D02*
X118833333Y-106554819D01*
X118833333Y-106554819D02*
X118690476Y-106602438D01*
X118690476Y-106602438D02*
X118642857Y-106650057D01*
X118261904Y-106650057D02*
X118214285Y-106602438D01*
X118214285Y-106602438D02*
X118119047Y-106554819D01*
X118119047Y-106554819D02*
X117880952Y-106554819D01*
X117880952Y-106554819D02*
X117785714Y-106602438D01*
X117785714Y-106602438D02*
X117738095Y-106650057D01*
X117738095Y-106650057D02*
X117690476Y-106745295D01*
X117690476Y-106745295D02*
X117690476Y-106840533D01*
X117690476Y-106840533D02*
X117738095Y-106983390D01*
X117738095Y-106983390D02*
X118309523Y-107554819D01*
X118309523Y-107554819D02*
X117690476Y-107554819D01*
X116833333Y-106554819D02*
X117023809Y-106554819D01*
X117023809Y-106554819D02*
X117119047Y-106602438D01*
X117119047Y-106602438D02*
X117166666Y-106650057D01*
X117166666Y-106650057D02*
X117261904Y-106792914D01*
X117261904Y-106792914D02*
X117309523Y-106983390D01*
X117309523Y-106983390D02*
X117309523Y-107364342D01*
X117309523Y-107364342D02*
X117261904Y-107459580D01*
X117261904Y-107459580D02*
X117214285Y-107507200D01*
X117214285Y-107507200D02*
X117119047Y-107554819D01*
X117119047Y-107554819D02*
X116928571Y-107554819D01*
X116928571Y-107554819D02*
X116833333Y-107507200D01*
X116833333Y-107507200D02*
X116785714Y-107459580D01*
X116785714Y-107459580D02*
X116738095Y-107364342D01*
X116738095Y-107364342D02*
X116738095Y-107126247D01*
X116738095Y-107126247D02*
X116785714Y-107031009D01*
X116785714Y-107031009D02*
X116833333Y-106983390D01*
X116833333Y-106983390D02*
X116928571Y-106935771D01*
X116928571Y-106935771D02*
X117119047Y-106935771D01*
X117119047Y-106935771D02*
X117214285Y-106983390D01*
X117214285Y-106983390D02*
X117261904Y-107031009D01*
X117261904Y-107031009D02*
X117309523Y-107126247D01*
X146130357Y-120639580D02*
X146177976Y-120687200D01*
X146177976Y-120687200D02*
X146320833Y-120734819D01*
X146320833Y-120734819D02*
X146416071Y-120734819D01*
X146416071Y-120734819D02*
X146558928Y-120687200D01*
X146558928Y-120687200D02*
X146654166Y-120591961D01*
X146654166Y-120591961D02*
X146701785Y-120496723D01*
X146701785Y-120496723D02*
X146749404Y-120306247D01*
X146749404Y-120306247D02*
X146749404Y-120163390D01*
X146749404Y-120163390D02*
X146701785Y-119972914D01*
X146701785Y-119972914D02*
X146654166Y-119877676D01*
X146654166Y-119877676D02*
X146558928Y-119782438D01*
X146558928Y-119782438D02*
X146416071Y-119734819D01*
X146416071Y-119734819D02*
X146320833Y-119734819D01*
X146320833Y-119734819D02*
X146177976Y-119782438D01*
X146177976Y-119782438D02*
X146130357Y-119830057D01*
X145177976Y-120734819D02*
X145749404Y-120734819D01*
X145463690Y-120734819D02*
X145463690Y-119734819D01*
X145463690Y-119734819D02*
X145558928Y-119877676D01*
X145558928Y-119877676D02*
X145654166Y-119972914D01*
X145654166Y-119972914D02*
X145749404Y-120020533D01*
X144558928Y-119734819D02*
X144463690Y-119734819D01*
X144463690Y-119734819D02*
X144368452Y-119782438D01*
X144368452Y-119782438D02*
X144320833Y-119830057D01*
X144320833Y-119830057D02*
X144273214Y-119925295D01*
X144273214Y-119925295D02*
X144225595Y-120115771D01*
X144225595Y-120115771D02*
X144225595Y-120353866D01*
X144225595Y-120353866D02*
X144273214Y-120544342D01*
X144273214Y-120544342D02*
X144320833Y-120639580D01*
X144320833Y-120639580D02*
X144368452Y-120687200D01*
X144368452Y-120687200D02*
X144463690Y-120734819D01*
X144463690Y-120734819D02*
X144558928Y-120734819D01*
X144558928Y-120734819D02*
X144654166Y-120687200D01*
X144654166Y-120687200D02*
X144701785Y-120639580D01*
X144701785Y-120639580D02*
X144749404Y-120544342D01*
X144749404Y-120544342D02*
X144797023Y-120353866D01*
X144797023Y-120353866D02*
X144797023Y-120115771D01*
X144797023Y-120115771D02*
X144749404Y-119925295D01*
X144749404Y-119925295D02*
X144701785Y-119830057D01*
X144701785Y-119830057D02*
X144654166Y-119782438D01*
X144654166Y-119782438D02*
X144558928Y-119734819D01*
D10*
X140861904Y-98657419D02*
X140290476Y-98657419D01*
X140576190Y-99657419D02*
X140576190Y-98657419D01*
X139957142Y-99657419D02*
X139957142Y-98657419D01*
X139957142Y-98657419D02*
X139576190Y-98657419D01*
X139576190Y-98657419D02*
X139480952Y-98705038D01*
X139480952Y-98705038D02*
X139433333Y-98752657D01*
X139433333Y-98752657D02*
X139385714Y-98847895D01*
X139385714Y-98847895D02*
X139385714Y-98990752D01*
X139385714Y-98990752D02*
X139433333Y-99085990D01*
X139433333Y-99085990D02*
X139480952Y-99133609D01*
X139480952Y-99133609D02*
X139576190Y-99181228D01*
X139576190Y-99181228D02*
X139957142Y-99181228D01*
X139052380Y-98657419D02*
X138433333Y-98657419D01*
X138433333Y-98657419D02*
X138766666Y-99038371D01*
X138766666Y-99038371D02*
X138623809Y-99038371D01*
X138623809Y-99038371D02*
X138528571Y-99085990D01*
X138528571Y-99085990D02*
X138480952Y-99133609D01*
X138480952Y-99133609D02*
X138433333Y-99228847D01*
X138433333Y-99228847D02*
X138433333Y-99466942D01*
X138433333Y-99466942D02*
X138480952Y-99562180D01*
X138480952Y-99562180D02*
X138528571Y-99609800D01*
X138528571Y-99609800D02*
X138623809Y-99657419D01*
X138623809Y-99657419D02*
X138909523Y-99657419D01*
X138909523Y-99657419D02*
X139004761Y-99609800D01*
X139004761Y-99609800D02*
X139052380Y-99562180D01*
D11*
X141142857Y-84049819D02*
X141476190Y-83573628D01*
X141714285Y-84049819D02*
X141714285Y-83049819D01*
X141714285Y-83049819D02*
X141333333Y-83049819D01*
X141333333Y-83049819D02*
X141238095Y-83097438D01*
X141238095Y-83097438D02*
X141190476Y-83145057D01*
X141190476Y-83145057D02*
X141142857Y-83240295D01*
X141142857Y-83240295D02*
X141142857Y-83383152D01*
X141142857Y-83383152D02*
X141190476Y-83478390D01*
X141190476Y-83478390D02*
X141238095Y-83526009D01*
X141238095Y-83526009D02*
X141333333Y-83573628D01*
X141333333Y-83573628D02*
X141714285Y-83573628D01*
X140809523Y-83049819D02*
X140190476Y-83049819D01*
X140190476Y-83049819D02*
X140523809Y-83430771D01*
X140523809Y-83430771D02*
X140380952Y-83430771D01*
X140380952Y-83430771D02*
X140285714Y-83478390D01*
X140285714Y-83478390D02*
X140238095Y-83526009D01*
X140238095Y-83526009D02*
X140190476Y-83621247D01*
X140190476Y-83621247D02*
X140190476Y-83859342D01*
X140190476Y-83859342D02*
X140238095Y-83954580D01*
X140238095Y-83954580D02*
X140285714Y-84002200D01*
X140285714Y-84002200D02*
X140380952Y-84049819D01*
X140380952Y-84049819D02*
X140666666Y-84049819D01*
X140666666Y-84049819D02*
X140761904Y-84002200D01*
X140761904Y-84002200D02*
X140809523Y-83954580D01*
X139809523Y-83145057D02*
X139761904Y-83097438D01*
X139761904Y-83097438D02*
X139666666Y-83049819D01*
X139666666Y-83049819D02*
X139428571Y-83049819D01*
X139428571Y-83049819D02*
X139333333Y-83097438D01*
X139333333Y-83097438D02*
X139285714Y-83145057D01*
X139285714Y-83145057D02*
X139238095Y-83240295D01*
X139238095Y-83240295D02*
X139238095Y-83335533D01*
X139238095Y-83335533D02*
X139285714Y-83478390D01*
X139285714Y-83478390D02*
X139857142Y-84049819D01*
X139857142Y-84049819D02*
X139238095Y-84049819D01*
X117789580Y-71494642D02*
X117837200Y-71447023D01*
X117837200Y-71447023D02*
X117884819Y-71304166D01*
X117884819Y-71304166D02*
X117884819Y-71208928D01*
X117884819Y-71208928D02*
X117837200Y-71066071D01*
X117837200Y-71066071D02*
X117741961Y-70970833D01*
X117741961Y-70970833D02*
X117646723Y-70923214D01*
X117646723Y-70923214D02*
X117456247Y-70875595D01*
X117456247Y-70875595D02*
X117313390Y-70875595D01*
X117313390Y-70875595D02*
X117122914Y-70923214D01*
X117122914Y-70923214D02*
X117027676Y-70970833D01*
X117027676Y-70970833D02*
X116932438Y-71066071D01*
X116932438Y-71066071D02*
X116884819Y-71208928D01*
X116884819Y-71208928D02*
X116884819Y-71304166D01*
X116884819Y-71304166D02*
X116932438Y-71447023D01*
X116932438Y-71447023D02*
X116980057Y-71494642D01*
X116980057Y-71875595D02*
X116932438Y-71923214D01*
X116932438Y-71923214D02*
X116884819Y-72018452D01*
X116884819Y-72018452D02*
X116884819Y-72256547D01*
X116884819Y-72256547D02*
X116932438Y-72351785D01*
X116932438Y-72351785D02*
X116980057Y-72399404D01*
X116980057Y-72399404D02*
X117075295Y-72447023D01*
X117075295Y-72447023D02*
X117170533Y-72447023D01*
X117170533Y-72447023D02*
X117313390Y-72399404D01*
X117313390Y-72399404D02*
X117884819Y-71827976D01*
X117884819Y-71827976D02*
X117884819Y-72447023D01*
X117884819Y-72923214D02*
X117884819Y-73113690D01*
X117884819Y-73113690D02*
X117837200Y-73208928D01*
X117837200Y-73208928D02*
X117789580Y-73256547D01*
X117789580Y-73256547D02*
X117646723Y-73351785D01*
X117646723Y-73351785D02*
X117456247Y-73399404D01*
X117456247Y-73399404D02*
X117075295Y-73399404D01*
X117075295Y-73399404D02*
X116980057Y-73351785D01*
X116980057Y-73351785D02*
X116932438Y-73304166D01*
X116932438Y-73304166D02*
X116884819Y-73208928D01*
X116884819Y-73208928D02*
X116884819Y-73018452D01*
X116884819Y-73018452D02*
X116932438Y-72923214D01*
X116932438Y-72923214D02*
X116980057Y-72875595D01*
X116980057Y-72875595D02*
X117075295Y-72827976D01*
X117075295Y-72827976D02*
X117313390Y-72827976D01*
X117313390Y-72827976D02*
X117408628Y-72875595D01*
X117408628Y-72875595D02*
X117456247Y-72923214D01*
X117456247Y-72923214D02*
X117503866Y-73018452D01*
X117503866Y-73018452D02*
X117503866Y-73208928D01*
X117503866Y-73208928D02*
X117456247Y-73304166D01*
X117456247Y-73304166D02*
X117408628Y-73351785D01*
X117408628Y-73351785D02*
X117313390Y-73399404D01*
D10*
X127230094Y-76933419D02*
X126658666Y-76933419D01*
X126944380Y-77933419D02*
X126944380Y-76933419D01*
X126325332Y-77933419D02*
X126325332Y-76933419D01*
X126325332Y-76933419D02*
X125944380Y-76933419D01*
X125944380Y-76933419D02*
X125849142Y-76981038D01*
X125849142Y-76981038D02*
X125801523Y-77028657D01*
X125801523Y-77028657D02*
X125753904Y-77123895D01*
X125753904Y-77123895D02*
X125753904Y-77266752D01*
X125753904Y-77266752D02*
X125801523Y-77361990D01*
X125801523Y-77361990D02*
X125849142Y-77409609D01*
X125849142Y-77409609D02*
X125944380Y-77457228D01*
X125944380Y-77457228D02*
X126325332Y-77457228D01*
X124801523Y-77933419D02*
X125372951Y-77933419D01*
X125087237Y-77933419D02*
X125087237Y-76933419D01*
X125087237Y-76933419D02*
X125182475Y-77076276D01*
X125182475Y-77076276D02*
X125277713Y-77171514D01*
X125277713Y-77171514D02*
X125372951Y-77219133D01*
X123944380Y-76933419D02*
X124134856Y-76933419D01*
X124134856Y-76933419D02*
X124230094Y-76981038D01*
X124230094Y-76981038D02*
X124277713Y-77028657D01*
X124277713Y-77028657D02*
X124372951Y-77171514D01*
X124372951Y-77171514D02*
X124420570Y-77361990D01*
X124420570Y-77361990D02*
X124420570Y-77742942D01*
X124420570Y-77742942D02*
X124372951Y-77838180D01*
X124372951Y-77838180D02*
X124325332Y-77885800D01*
X124325332Y-77885800D02*
X124230094Y-77933419D01*
X124230094Y-77933419D02*
X124039618Y-77933419D01*
X124039618Y-77933419D02*
X123944380Y-77885800D01*
X123944380Y-77885800D02*
X123896761Y-77838180D01*
X123896761Y-77838180D02*
X123849142Y-77742942D01*
X123849142Y-77742942D02*
X123849142Y-77504847D01*
X123849142Y-77504847D02*
X123896761Y-77409609D01*
X123896761Y-77409609D02*
X123944380Y-77361990D01*
X123944380Y-77361990D02*
X124039618Y-77314371D01*
X124039618Y-77314371D02*
X124230094Y-77314371D01*
X124230094Y-77314371D02*
X124325332Y-77361990D01*
X124325332Y-77361990D02*
X124372951Y-77409609D01*
X124372951Y-77409609D02*
X124420570Y-77504847D01*
D11*
X130789580Y-71494642D02*
X130837200Y-71447023D01*
X130837200Y-71447023D02*
X130884819Y-71304166D01*
X130884819Y-71304166D02*
X130884819Y-71208928D01*
X130884819Y-71208928D02*
X130837200Y-71066071D01*
X130837200Y-71066071D02*
X130741961Y-70970833D01*
X130741961Y-70970833D02*
X130646723Y-70923214D01*
X130646723Y-70923214D02*
X130456247Y-70875595D01*
X130456247Y-70875595D02*
X130313390Y-70875595D01*
X130313390Y-70875595D02*
X130122914Y-70923214D01*
X130122914Y-70923214D02*
X130027676Y-70970833D01*
X130027676Y-70970833D02*
X129932438Y-71066071D01*
X129932438Y-71066071D02*
X129884819Y-71208928D01*
X129884819Y-71208928D02*
X129884819Y-71304166D01*
X129884819Y-71304166D02*
X129932438Y-71447023D01*
X129932438Y-71447023D02*
X129980057Y-71494642D01*
X129884819Y-71827976D02*
X129884819Y-72447023D01*
X129884819Y-72447023D02*
X130265771Y-72113690D01*
X130265771Y-72113690D02*
X130265771Y-72256547D01*
X130265771Y-72256547D02*
X130313390Y-72351785D01*
X130313390Y-72351785D02*
X130361009Y-72399404D01*
X130361009Y-72399404D02*
X130456247Y-72447023D01*
X130456247Y-72447023D02*
X130694342Y-72447023D01*
X130694342Y-72447023D02*
X130789580Y-72399404D01*
X130789580Y-72399404D02*
X130837200Y-72351785D01*
X130837200Y-72351785D02*
X130884819Y-72256547D01*
X130884819Y-72256547D02*
X130884819Y-71970833D01*
X130884819Y-71970833D02*
X130837200Y-71875595D01*
X130837200Y-71875595D02*
X130789580Y-71827976D01*
X129884819Y-72780357D02*
X129884819Y-73399404D01*
X129884819Y-73399404D02*
X130265771Y-73066071D01*
X130265771Y-73066071D02*
X130265771Y-73208928D01*
X130265771Y-73208928D02*
X130313390Y-73304166D01*
X130313390Y-73304166D02*
X130361009Y-73351785D01*
X130361009Y-73351785D02*
X130456247Y-73399404D01*
X130456247Y-73399404D02*
X130694342Y-73399404D01*
X130694342Y-73399404D02*
X130789580Y-73351785D01*
X130789580Y-73351785D02*
X130837200Y-73304166D01*
X130837200Y-73304166D02*
X130884819Y-73208928D01*
X130884819Y-73208928D02*
X130884819Y-72923214D01*
X130884819Y-72923214D02*
X130837200Y-72827976D01*
X130837200Y-72827976D02*
X130789580Y-72780357D01*
X137854819Y-94338095D02*
X138664342Y-94338095D01*
X138664342Y-94338095D02*
X138759580Y-94385714D01*
X138759580Y-94385714D02*
X138807200Y-94433333D01*
X138807200Y-94433333D02*
X138854819Y-94528571D01*
X138854819Y-94528571D02*
X138854819Y-94719047D01*
X138854819Y-94719047D02*
X138807200Y-94814285D01*
X138807200Y-94814285D02*
X138759580Y-94861904D01*
X138759580Y-94861904D02*
X138664342Y-94909523D01*
X138664342Y-94909523D02*
X137854819Y-94909523D01*
X137854819Y-95814285D02*
X137854819Y-95623809D01*
X137854819Y-95623809D02*
X137902438Y-95528571D01*
X137902438Y-95528571D02*
X137950057Y-95480952D01*
X137950057Y-95480952D02*
X138092914Y-95385714D01*
X138092914Y-95385714D02*
X138283390Y-95338095D01*
X138283390Y-95338095D02*
X138664342Y-95338095D01*
X138664342Y-95338095D02*
X138759580Y-95385714D01*
X138759580Y-95385714D02*
X138807200Y-95433333D01*
X138807200Y-95433333D02*
X138854819Y-95528571D01*
X138854819Y-95528571D02*
X138854819Y-95719047D01*
X138854819Y-95719047D02*
X138807200Y-95814285D01*
X138807200Y-95814285D02*
X138759580Y-95861904D01*
X138759580Y-95861904D02*
X138664342Y-95909523D01*
X138664342Y-95909523D02*
X138426247Y-95909523D01*
X138426247Y-95909523D02*
X138331009Y-95861904D01*
X138331009Y-95861904D02*
X138283390Y-95814285D01*
X138283390Y-95814285D02*
X138235771Y-95719047D01*
X138235771Y-95719047D02*
X138235771Y-95528571D01*
X138235771Y-95528571D02*
X138283390Y-95433333D01*
X138283390Y-95433333D02*
X138331009Y-95385714D01*
X138331009Y-95385714D02*
X138426247Y-95338095D01*
D10*
X138038094Y-114057419D02*
X137466666Y-114057419D01*
X137752380Y-115057419D02*
X137752380Y-114057419D01*
X137133332Y-115057419D02*
X137133332Y-114057419D01*
X137133332Y-114057419D02*
X136752380Y-114057419D01*
X136752380Y-114057419D02*
X136657142Y-114105038D01*
X136657142Y-114105038D02*
X136609523Y-114152657D01*
X136609523Y-114152657D02*
X136561904Y-114247895D01*
X136561904Y-114247895D02*
X136561904Y-114390752D01*
X136561904Y-114390752D02*
X136609523Y-114485990D01*
X136609523Y-114485990D02*
X136657142Y-114533609D01*
X136657142Y-114533609D02*
X136752380Y-114581228D01*
X136752380Y-114581228D02*
X137133332Y-114581228D01*
X136180951Y-114152657D02*
X136133332Y-114105038D01*
X136133332Y-114105038D02*
X136038094Y-114057419D01*
X136038094Y-114057419D02*
X135799999Y-114057419D01*
X135799999Y-114057419D02*
X135704761Y-114105038D01*
X135704761Y-114105038D02*
X135657142Y-114152657D01*
X135657142Y-114152657D02*
X135609523Y-114247895D01*
X135609523Y-114247895D02*
X135609523Y-114343133D01*
X135609523Y-114343133D02*
X135657142Y-114485990D01*
X135657142Y-114485990D02*
X136228570Y-115057419D01*
X136228570Y-115057419D02*
X135609523Y-115057419D01*
X135228570Y-114152657D02*
X135180951Y-114105038D01*
X135180951Y-114105038D02*
X135085713Y-114057419D01*
X135085713Y-114057419D02*
X134847618Y-114057419D01*
X134847618Y-114057419D02*
X134752380Y-114105038D01*
X134752380Y-114105038D02*
X134704761Y-114152657D01*
X134704761Y-114152657D02*
X134657142Y-114247895D01*
X134657142Y-114247895D02*
X134657142Y-114343133D01*
X134657142Y-114343133D02*
X134704761Y-114485990D01*
X134704761Y-114485990D02*
X135276189Y-115057419D01*
X135276189Y-115057419D02*
X134657142Y-115057419D01*
D11*
X102866666Y-109159580D02*
X102914285Y-109207200D01*
X102914285Y-109207200D02*
X103057142Y-109254819D01*
X103057142Y-109254819D02*
X103152380Y-109254819D01*
X103152380Y-109254819D02*
X103295237Y-109207200D01*
X103295237Y-109207200D02*
X103390475Y-109111961D01*
X103390475Y-109111961D02*
X103438094Y-109016723D01*
X103438094Y-109016723D02*
X103485713Y-108826247D01*
X103485713Y-108826247D02*
X103485713Y-108683390D01*
X103485713Y-108683390D02*
X103438094Y-108492914D01*
X103438094Y-108492914D02*
X103390475Y-108397676D01*
X103390475Y-108397676D02*
X103295237Y-108302438D01*
X103295237Y-108302438D02*
X103152380Y-108254819D01*
X103152380Y-108254819D02*
X103057142Y-108254819D01*
X103057142Y-108254819D02*
X102914285Y-108302438D01*
X102914285Y-108302438D02*
X102866666Y-108350057D01*
X101914285Y-109254819D02*
X102485713Y-109254819D01*
X102199999Y-109254819D02*
X102199999Y-108254819D01*
X102199999Y-108254819D02*
X102295237Y-108397676D01*
X102295237Y-108397676D02*
X102390475Y-108492914D01*
X102390475Y-108492914D02*
X102485713Y-108540533D01*
X104789580Y-71494642D02*
X104837200Y-71447023D01*
X104837200Y-71447023D02*
X104884819Y-71304166D01*
X104884819Y-71304166D02*
X104884819Y-71208928D01*
X104884819Y-71208928D02*
X104837200Y-71066071D01*
X104837200Y-71066071D02*
X104741961Y-70970833D01*
X104741961Y-70970833D02*
X104646723Y-70923214D01*
X104646723Y-70923214D02*
X104456247Y-70875595D01*
X104456247Y-70875595D02*
X104313390Y-70875595D01*
X104313390Y-70875595D02*
X104122914Y-70923214D01*
X104122914Y-70923214D02*
X104027676Y-70970833D01*
X104027676Y-70970833D02*
X103932438Y-71066071D01*
X103932438Y-71066071D02*
X103884819Y-71208928D01*
X103884819Y-71208928D02*
X103884819Y-71304166D01*
X103884819Y-71304166D02*
X103932438Y-71447023D01*
X103932438Y-71447023D02*
X103980057Y-71494642D01*
X103980057Y-71875595D02*
X103932438Y-71923214D01*
X103932438Y-71923214D02*
X103884819Y-72018452D01*
X103884819Y-72018452D02*
X103884819Y-72256547D01*
X103884819Y-72256547D02*
X103932438Y-72351785D01*
X103932438Y-72351785D02*
X103980057Y-72399404D01*
X103980057Y-72399404D02*
X104075295Y-72447023D01*
X104075295Y-72447023D02*
X104170533Y-72447023D01*
X104170533Y-72447023D02*
X104313390Y-72399404D01*
X104313390Y-72399404D02*
X104884819Y-71827976D01*
X104884819Y-71827976D02*
X104884819Y-72447023D01*
X103884819Y-73351785D02*
X103884819Y-72875595D01*
X103884819Y-72875595D02*
X104361009Y-72827976D01*
X104361009Y-72827976D02*
X104313390Y-72875595D01*
X104313390Y-72875595D02*
X104265771Y-72970833D01*
X104265771Y-72970833D02*
X104265771Y-73208928D01*
X104265771Y-73208928D02*
X104313390Y-73304166D01*
X104313390Y-73304166D02*
X104361009Y-73351785D01*
X104361009Y-73351785D02*
X104456247Y-73399404D01*
X104456247Y-73399404D02*
X104694342Y-73399404D01*
X104694342Y-73399404D02*
X104789580Y-73351785D01*
X104789580Y-73351785D02*
X104837200Y-73304166D01*
X104837200Y-73304166D02*
X104884819Y-73208928D01*
X104884819Y-73208928D02*
X104884819Y-72970833D01*
X104884819Y-72970833D02*
X104837200Y-72875595D01*
X104837200Y-72875595D02*
X104789580Y-72827976D01*
X159600057Y-89204761D02*
X159552438Y-89109523D01*
X159552438Y-89109523D02*
X159457200Y-89014285D01*
X159457200Y-89014285D02*
X159314342Y-88871428D01*
X159314342Y-88871428D02*
X159266723Y-88776190D01*
X159266723Y-88776190D02*
X159266723Y-88680952D01*
X159504819Y-88728571D02*
X159457200Y-88633333D01*
X159457200Y-88633333D02*
X159361961Y-88538095D01*
X159361961Y-88538095D02*
X159171485Y-88490476D01*
X159171485Y-88490476D02*
X158838152Y-88490476D01*
X158838152Y-88490476D02*
X158647676Y-88538095D01*
X158647676Y-88538095D02*
X158552438Y-88633333D01*
X158552438Y-88633333D02*
X158504819Y-88728571D01*
X158504819Y-88728571D02*
X158504819Y-88919047D01*
X158504819Y-88919047D02*
X158552438Y-89014285D01*
X158552438Y-89014285D02*
X158647676Y-89109523D01*
X158647676Y-89109523D02*
X158838152Y-89157142D01*
X158838152Y-89157142D02*
X159171485Y-89157142D01*
X159171485Y-89157142D02*
X159361961Y-89109523D01*
X159361961Y-89109523D02*
X159457200Y-89014285D01*
X159457200Y-89014285D02*
X159504819Y-88919047D01*
X159504819Y-88919047D02*
X159504819Y-88728571D01*
X158504819Y-89490476D02*
X158504819Y-90109523D01*
X158504819Y-90109523D02*
X158885771Y-89776190D01*
X158885771Y-89776190D02*
X158885771Y-89919047D01*
X158885771Y-89919047D02*
X158933390Y-90014285D01*
X158933390Y-90014285D02*
X158981009Y-90061904D01*
X158981009Y-90061904D02*
X159076247Y-90109523D01*
X159076247Y-90109523D02*
X159314342Y-90109523D01*
X159314342Y-90109523D02*
X159409580Y-90061904D01*
X159409580Y-90061904D02*
X159457200Y-90014285D01*
X159457200Y-90014285D02*
X159504819Y-89919047D01*
X159504819Y-89919047D02*
X159504819Y-89633333D01*
X159504819Y-89633333D02*
X159457200Y-89538095D01*
X159457200Y-89538095D02*
X159409580Y-89490476D01*
X117342857Y-89554819D02*
X117676190Y-89078628D01*
X117914285Y-89554819D02*
X117914285Y-88554819D01*
X117914285Y-88554819D02*
X117533333Y-88554819D01*
X117533333Y-88554819D02*
X117438095Y-88602438D01*
X117438095Y-88602438D02*
X117390476Y-88650057D01*
X117390476Y-88650057D02*
X117342857Y-88745295D01*
X117342857Y-88745295D02*
X117342857Y-88888152D01*
X117342857Y-88888152D02*
X117390476Y-88983390D01*
X117390476Y-88983390D02*
X117438095Y-89031009D01*
X117438095Y-89031009D02*
X117533333Y-89078628D01*
X117533333Y-89078628D02*
X117914285Y-89078628D01*
X117009523Y-88554819D02*
X116390476Y-88554819D01*
X116390476Y-88554819D02*
X116723809Y-88935771D01*
X116723809Y-88935771D02*
X116580952Y-88935771D01*
X116580952Y-88935771D02*
X116485714Y-88983390D01*
X116485714Y-88983390D02*
X116438095Y-89031009D01*
X116438095Y-89031009D02*
X116390476Y-89126247D01*
X116390476Y-89126247D02*
X116390476Y-89364342D01*
X116390476Y-89364342D02*
X116438095Y-89459580D01*
X116438095Y-89459580D02*
X116485714Y-89507200D01*
X116485714Y-89507200D02*
X116580952Y-89554819D01*
X116580952Y-89554819D02*
X116866666Y-89554819D01*
X116866666Y-89554819D02*
X116961904Y-89507200D01*
X116961904Y-89507200D02*
X117009523Y-89459580D01*
X115771428Y-88554819D02*
X115676190Y-88554819D01*
X115676190Y-88554819D02*
X115580952Y-88602438D01*
X115580952Y-88602438D02*
X115533333Y-88650057D01*
X115533333Y-88650057D02*
X115485714Y-88745295D01*
X115485714Y-88745295D02*
X115438095Y-88935771D01*
X115438095Y-88935771D02*
X115438095Y-89173866D01*
X115438095Y-89173866D02*
X115485714Y-89364342D01*
X115485714Y-89364342D02*
X115533333Y-89459580D01*
X115533333Y-89459580D02*
X115580952Y-89507200D01*
X115580952Y-89507200D02*
X115676190Y-89554819D01*
X115676190Y-89554819D02*
X115771428Y-89554819D01*
X115771428Y-89554819D02*
X115866666Y-89507200D01*
X115866666Y-89507200D02*
X115914285Y-89459580D01*
X115914285Y-89459580D02*
X115961904Y-89364342D01*
X115961904Y-89364342D02*
X116009523Y-89173866D01*
X116009523Y-89173866D02*
X116009523Y-88935771D01*
X116009523Y-88935771D02*
X115961904Y-88745295D01*
X115961904Y-88745295D02*
X115914285Y-88650057D01*
X115914285Y-88650057D02*
X115866666Y-88602438D01*
X115866666Y-88602438D02*
X115771428Y-88554819D01*
D10*
X99961904Y-81957419D02*
X99390476Y-81957419D01*
X99676190Y-82957419D02*
X99676190Y-81957419D01*
X99057142Y-82957419D02*
X99057142Y-81957419D01*
X99057142Y-81957419D02*
X98676190Y-81957419D01*
X98676190Y-81957419D02*
X98580952Y-82005038D01*
X98580952Y-82005038D02*
X98533333Y-82052657D01*
X98533333Y-82052657D02*
X98485714Y-82147895D01*
X98485714Y-82147895D02*
X98485714Y-82290752D01*
X98485714Y-82290752D02*
X98533333Y-82385990D01*
X98533333Y-82385990D02*
X98580952Y-82433609D01*
X98580952Y-82433609D02*
X98676190Y-82481228D01*
X98676190Y-82481228D02*
X99057142Y-82481228D01*
X98152380Y-81957419D02*
X97485714Y-81957419D01*
X97485714Y-81957419D02*
X97914285Y-82957419D01*
D11*
X122666666Y-115759580D02*
X122714285Y-115807200D01*
X122714285Y-115807200D02*
X122857142Y-115854819D01*
X122857142Y-115854819D02*
X122952380Y-115854819D01*
X122952380Y-115854819D02*
X123095237Y-115807200D01*
X123095237Y-115807200D02*
X123190475Y-115711961D01*
X123190475Y-115711961D02*
X123238094Y-115616723D01*
X123238094Y-115616723D02*
X123285713Y-115426247D01*
X123285713Y-115426247D02*
X123285713Y-115283390D01*
X123285713Y-115283390D02*
X123238094Y-115092914D01*
X123238094Y-115092914D02*
X123190475Y-114997676D01*
X123190475Y-114997676D02*
X123095237Y-114902438D01*
X123095237Y-114902438D02*
X122952380Y-114854819D01*
X122952380Y-114854819D02*
X122857142Y-114854819D01*
X122857142Y-114854819D02*
X122714285Y-114902438D01*
X122714285Y-114902438D02*
X122666666Y-114950057D01*
X122190475Y-115854819D02*
X121999999Y-115854819D01*
X121999999Y-115854819D02*
X121904761Y-115807200D01*
X121904761Y-115807200D02*
X121857142Y-115759580D01*
X121857142Y-115759580D02*
X121761904Y-115616723D01*
X121761904Y-115616723D02*
X121714285Y-115426247D01*
X121714285Y-115426247D02*
X121714285Y-115045295D01*
X121714285Y-115045295D02*
X121761904Y-114950057D01*
X121761904Y-114950057D02*
X121809523Y-114902438D01*
X121809523Y-114902438D02*
X121904761Y-114854819D01*
X121904761Y-114854819D02*
X122095237Y-114854819D01*
X122095237Y-114854819D02*
X122190475Y-114902438D01*
X122190475Y-114902438D02*
X122238094Y-114950057D01*
X122238094Y-114950057D02*
X122285713Y-115045295D01*
X122285713Y-115045295D02*
X122285713Y-115283390D01*
X122285713Y-115283390D02*
X122238094Y-115378628D01*
X122238094Y-115378628D02*
X122190475Y-115426247D01*
X122190475Y-115426247D02*
X122095237Y-115473866D01*
X122095237Y-115473866D02*
X121904761Y-115473866D01*
X121904761Y-115473866D02*
X121809523Y-115426247D01*
X121809523Y-115426247D02*
X121761904Y-115378628D01*
X121761904Y-115378628D02*
X121714285Y-115283390D01*
X99342857Y-86854819D02*
X99676190Y-86378628D01*
X99914285Y-86854819D02*
X99914285Y-85854819D01*
X99914285Y-85854819D02*
X99533333Y-85854819D01*
X99533333Y-85854819D02*
X99438095Y-85902438D01*
X99438095Y-85902438D02*
X99390476Y-85950057D01*
X99390476Y-85950057D02*
X99342857Y-86045295D01*
X99342857Y-86045295D02*
X99342857Y-86188152D01*
X99342857Y-86188152D02*
X99390476Y-86283390D01*
X99390476Y-86283390D02*
X99438095Y-86331009D01*
X99438095Y-86331009D02*
X99533333Y-86378628D01*
X99533333Y-86378628D02*
X99914285Y-86378628D01*
X98961904Y-85950057D02*
X98914285Y-85902438D01*
X98914285Y-85902438D02*
X98819047Y-85854819D01*
X98819047Y-85854819D02*
X98580952Y-85854819D01*
X98580952Y-85854819D02*
X98485714Y-85902438D01*
X98485714Y-85902438D02*
X98438095Y-85950057D01*
X98438095Y-85950057D02*
X98390476Y-86045295D01*
X98390476Y-86045295D02*
X98390476Y-86140533D01*
X98390476Y-86140533D02*
X98438095Y-86283390D01*
X98438095Y-86283390D02*
X99009523Y-86854819D01*
X99009523Y-86854819D02*
X98390476Y-86854819D01*
X97533333Y-86188152D02*
X97533333Y-86854819D01*
X97771428Y-85807200D02*
X98009523Y-86521485D01*
X98009523Y-86521485D02*
X97390476Y-86521485D01*
X170454819Y-86957142D02*
X169978628Y-86623809D01*
X170454819Y-86385714D02*
X169454819Y-86385714D01*
X169454819Y-86385714D02*
X169454819Y-86766666D01*
X169454819Y-86766666D02*
X169502438Y-86861904D01*
X169502438Y-86861904D02*
X169550057Y-86909523D01*
X169550057Y-86909523D02*
X169645295Y-86957142D01*
X169645295Y-86957142D02*
X169788152Y-86957142D01*
X169788152Y-86957142D02*
X169883390Y-86909523D01*
X169883390Y-86909523D02*
X169931009Y-86861904D01*
X169931009Y-86861904D02*
X169978628Y-86766666D01*
X169978628Y-86766666D02*
X169978628Y-86385714D01*
X169788152Y-87814285D02*
X170454819Y-87814285D01*
X169407200Y-87576190D02*
X170121485Y-87338095D01*
X170121485Y-87338095D02*
X170121485Y-87957142D01*
X169550057Y-88290476D02*
X169502438Y-88338095D01*
X169502438Y-88338095D02*
X169454819Y-88433333D01*
X169454819Y-88433333D02*
X169454819Y-88671428D01*
X169454819Y-88671428D02*
X169502438Y-88766666D01*
X169502438Y-88766666D02*
X169550057Y-88814285D01*
X169550057Y-88814285D02*
X169645295Y-88861904D01*
X169645295Y-88861904D02*
X169740533Y-88861904D01*
X169740533Y-88861904D02*
X169883390Y-88814285D01*
X169883390Y-88814285D02*
X170454819Y-88242857D01*
X170454819Y-88242857D02*
X170454819Y-88861904D01*
D10*
X114030094Y-76933419D02*
X113458666Y-76933419D01*
X113744380Y-77933419D02*
X113744380Y-76933419D01*
X113125332Y-77933419D02*
X113125332Y-76933419D01*
X113125332Y-76933419D02*
X112744380Y-76933419D01*
X112744380Y-76933419D02*
X112649142Y-76981038D01*
X112649142Y-76981038D02*
X112601523Y-77028657D01*
X112601523Y-77028657D02*
X112553904Y-77123895D01*
X112553904Y-77123895D02*
X112553904Y-77266752D01*
X112553904Y-77266752D02*
X112601523Y-77361990D01*
X112601523Y-77361990D02*
X112649142Y-77409609D01*
X112649142Y-77409609D02*
X112744380Y-77457228D01*
X112744380Y-77457228D02*
X113125332Y-77457228D01*
X111601523Y-77933419D02*
X112172951Y-77933419D01*
X111887237Y-77933419D02*
X111887237Y-76933419D01*
X111887237Y-76933419D02*
X111982475Y-77076276D01*
X111982475Y-77076276D02*
X112077713Y-77171514D01*
X112077713Y-77171514D02*
X112172951Y-77219133D01*
X111268189Y-76933419D02*
X110649142Y-76933419D01*
X110649142Y-76933419D02*
X110982475Y-77314371D01*
X110982475Y-77314371D02*
X110839618Y-77314371D01*
X110839618Y-77314371D02*
X110744380Y-77361990D01*
X110744380Y-77361990D02*
X110696761Y-77409609D01*
X110696761Y-77409609D02*
X110649142Y-77504847D01*
X110649142Y-77504847D02*
X110649142Y-77742942D01*
X110649142Y-77742942D02*
X110696761Y-77838180D01*
X110696761Y-77838180D02*
X110744380Y-77885800D01*
X110744380Y-77885800D02*
X110839618Y-77933419D01*
X110839618Y-77933419D02*
X111125332Y-77933419D01*
X111125332Y-77933419D02*
X111220570Y-77885800D01*
X111220570Y-77885800D02*
X111268189Y-77838180D01*
D11*
X141039580Y-71494642D02*
X141087200Y-71447023D01*
X141087200Y-71447023D02*
X141134819Y-71304166D01*
X141134819Y-71304166D02*
X141134819Y-71208928D01*
X141134819Y-71208928D02*
X141087200Y-71066071D01*
X141087200Y-71066071D02*
X140991961Y-70970833D01*
X140991961Y-70970833D02*
X140896723Y-70923214D01*
X140896723Y-70923214D02*
X140706247Y-70875595D01*
X140706247Y-70875595D02*
X140563390Y-70875595D01*
X140563390Y-70875595D02*
X140372914Y-70923214D01*
X140372914Y-70923214D02*
X140277676Y-70970833D01*
X140277676Y-70970833D02*
X140182438Y-71066071D01*
X140182438Y-71066071D02*
X140134819Y-71208928D01*
X140134819Y-71208928D02*
X140134819Y-71304166D01*
X140134819Y-71304166D02*
X140182438Y-71447023D01*
X140182438Y-71447023D02*
X140230057Y-71494642D01*
X140134819Y-71827976D02*
X140134819Y-72447023D01*
X140134819Y-72447023D02*
X140515771Y-72113690D01*
X140515771Y-72113690D02*
X140515771Y-72256547D01*
X140515771Y-72256547D02*
X140563390Y-72351785D01*
X140563390Y-72351785D02*
X140611009Y-72399404D01*
X140611009Y-72399404D02*
X140706247Y-72447023D01*
X140706247Y-72447023D02*
X140944342Y-72447023D01*
X140944342Y-72447023D02*
X141039580Y-72399404D01*
X141039580Y-72399404D02*
X141087200Y-72351785D01*
X141087200Y-72351785D02*
X141134819Y-72256547D01*
X141134819Y-72256547D02*
X141134819Y-71970833D01*
X141134819Y-71970833D02*
X141087200Y-71875595D01*
X141087200Y-71875595D02*
X141039580Y-71827976D01*
X140134819Y-73304166D02*
X140134819Y-73113690D01*
X140134819Y-73113690D02*
X140182438Y-73018452D01*
X140182438Y-73018452D02*
X140230057Y-72970833D01*
X140230057Y-72970833D02*
X140372914Y-72875595D01*
X140372914Y-72875595D02*
X140563390Y-72827976D01*
X140563390Y-72827976D02*
X140944342Y-72827976D01*
X140944342Y-72827976D02*
X141039580Y-72875595D01*
X141039580Y-72875595D02*
X141087200Y-72923214D01*
X141087200Y-72923214D02*
X141134819Y-73018452D01*
X141134819Y-73018452D02*
X141134819Y-73208928D01*
X141134819Y-73208928D02*
X141087200Y-73304166D01*
X141087200Y-73304166D02*
X141039580Y-73351785D01*
X141039580Y-73351785D02*
X140944342Y-73399404D01*
X140944342Y-73399404D02*
X140706247Y-73399404D01*
X140706247Y-73399404D02*
X140611009Y-73351785D01*
X140611009Y-73351785D02*
X140563390Y-73304166D01*
X140563390Y-73304166D02*
X140515771Y-73208928D01*
X140515771Y-73208928D02*
X140515771Y-73018452D01*
X140515771Y-73018452D02*
X140563390Y-72923214D01*
X140563390Y-72923214D02*
X140611009Y-72875595D01*
X140611009Y-72875595D02*
X140706247Y-72827976D01*
X167954819Y-86857142D02*
X167478628Y-86523809D01*
X167954819Y-86285714D02*
X166954819Y-86285714D01*
X166954819Y-86285714D02*
X166954819Y-86666666D01*
X166954819Y-86666666D02*
X167002438Y-86761904D01*
X167002438Y-86761904D02*
X167050057Y-86809523D01*
X167050057Y-86809523D02*
X167145295Y-86857142D01*
X167145295Y-86857142D02*
X167288152Y-86857142D01*
X167288152Y-86857142D02*
X167383390Y-86809523D01*
X167383390Y-86809523D02*
X167431009Y-86761904D01*
X167431009Y-86761904D02*
X167478628Y-86666666D01*
X167478628Y-86666666D02*
X167478628Y-86285714D01*
X167288152Y-87714285D02*
X167954819Y-87714285D01*
X166907200Y-87476190D02*
X167621485Y-87238095D01*
X167621485Y-87238095D02*
X167621485Y-87857142D01*
X166954819Y-88428571D02*
X166954819Y-88523809D01*
X166954819Y-88523809D02*
X167002438Y-88619047D01*
X167002438Y-88619047D02*
X167050057Y-88666666D01*
X167050057Y-88666666D02*
X167145295Y-88714285D01*
X167145295Y-88714285D02*
X167335771Y-88761904D01*
X167335771Y-88761904D02*
X167573866Y-88761904D01*
X167573866Y-88761904D02*
X167764342Y-88714285D01*
X167764342Y-88714285D02*
X167859580Y-88666666D01*
X167859580Y-88666666D02*
X167907200Y-88619047D01*
X167907200Y-88619047D02*
X167954819Y-88523809D01*
X167954819Y-88523809D02*
X167954819Y-88428571D01*
X167954819Y-88428571D02*
X167907200Y-88333333D01*
X167907200Y-88333333D02*
X167859580Y-88285714D01*
X167859580Y-88285714D02*
X167764342Y-88238095D01*
X167764342Y-88238095D02*
X167573866Y-88190476D01*
X167573866Y-88190476D02*
X167335771Y-88190476D01*
X167335771Y-88190476D02*
X167145295Y-88238095D01*
X167145295Y-88238095D02*
X167050057Y-88285714D01*
X167050057Y-88285714D02*
X167002438Y-88333333D01*
X167002438Y-88333333D02*
X166954819Y-88428571D01*
X156142857Y-118659580D02*
X156190476Y-118707200D01*
X156190476Y-118707200D02*
X156333333Y-118754819D01*
X156333333Y-118754819D02*
X156428571Y-118754819D01*
X156428571Y-118754819D02*
X156571428Y-118707200D01*
X156571428Y-118707200D02*
X156666666Y-118611961D01*
X156666666Y-118611961D02*
X156714285Y-118516723D01*
X156714285Y-118516723D02*
X156761904Y-118326247D01*
X156761904Y-118326247D02*
X156761904Y-118183390D01*
X156761904Y-118183390D02*
X156714285Y-117992914D01*
X156714285Y-117992914D02*
X156666666Y-117897676D01*
X156666666Y-117897676D02*
X156571428Y-117802438D01*
X156571428Y-117802438D02*
X156428571Y-117754819D01*
X156428571Y-117754819D02*
X156333333Y-117754819D01*
X156333333Y-117754819D02*
X156190476Y-117802438D01*
X156190476Y-117802438D02*
X156142857Y-117850057D01*
X155190476Y-118754819D02*
X155761904Y-118754819D01*
X155476190Y-118754819D02*
X155476190Y-117754819D01*
X155476190Y-117754819D02*
X155571428Y-117897676D01*
X155571428Y-117897676D02*
X155666666Y-117992914D01*
X155666666Y-117992914D02*
X155761904Y-118040533D01*
X154857142Y-117754819D02*
X154238095Y-117754819D01*
X154238095Y-117754819D02*
X154571428Y-118135771D01*
X154571428Y-118135771D02*
X154428571Y-118135771D01*
X154428571Y-118135771D02*
X154333333Y-118183390D01*
X154333333Y-118183390D02*
X154285714Y-118231009D01*
X154285714Y-118231009D02*
X154238095Y-118326247D01*
X154238095Y-118326247D02*
X154238095Y-118564342D01*
X154238095Y-118564342D02*
X154285714Y-118659580D01*
X154285714Y-118659580D02*
X154333333Y-118707200D01*
X154333333Y-118707200D02*
X154428571Y-118754819D01*
X154428571Y-118754819D02*
X154714285Y-118754819D01*
X154714285Y-118754819D02*
X154809523Y-118707200D01*
X154809523Y-118707200D02*
X154857142Y-118659580D01*
X164109580Y-71494642D02*
X164157200Y-71447023D01*
X164157200Y-71447023D02*
X164204819Y-71304166D01*
X164204819Y-71304166D02*
X164204819Y-71208928D01*
X164204819Y-71208928D02*
X164157200Y-71066071D01*
X164157200Y-71066071D02*
X164061961Y-70970833D01*
X164061961Y-70970833D02*
X163966723Y-70923214D01*
X163966723Y-70923214D02*
X163776247Y-70875595D01*
X163776247Y-70875595D02*
X163633390Y-70875595D01*
X163633390Y-70875595D02*
X163442914Y-70923214D01*
X163442914Y-70923214D02*
X163347676Y-70970833D01*
X163347676Y-70970833D02*
X163252438Y-71066071D01*
X163252438Y-71066071D02*
X163204819Y-71208928D01*
X163204819Y-71208928D02*
X163204819Y-71304166D01*
X163204819Y-71304166D02*
X163252438Y-71447023D01*
X163252438Y-71447023D02*
X163300057Y-71494642D01*
X163300057Y-71875595D02*
X163252438Y-71923214D01*
X163252438Y-71923214D02*
X163204819Y-72018452D01*
X163204819Y-72018452D02*
X163204819Y-72256547D01*
X163204819Y-72256547D02*
X163252438Y-72351785D01*
X163252438Y-72351785D02*
X163300057Y-72399404D01*
X163300057Y-72399404D02*
X163395295Y-72447023D01*
X163395295Y-72447023D02*
X163490533Y-72447023D01*
X163490533Y-72447023D02*
X163633390Y-72399404D01*
X163633390Y-72399404D02*
X164204819Y-71827976D01*
X164204819Y-71827976D02*
X164204819Y-72447023D01*
X163204819Y-73066071D02*
X163204819Y-73161309D01*
X163204819Y-73161309D02*
X163252438Y-73256547D01*
X163252438Y-73256547D02*
X163300057Y-73304166D01*
X163300057Y-73304166D02*
X163395295Y-73351785D01*
X163395295Y-73351785D02*
X163585771Y-73399404D01*
X163585771Y-73399404D02*
X163823866Y-73399404D01*
X163823866Y-73399404D02*
X164014342Y-73351785D01*
X164014342Y-73351785D02*
X164109580Y-73304166D01*
X164109580Y-73304166D02*
X164157200Y-73256547D01*
X164157200Y-73256547D02*
X164204819Y-73161309D01*
X164204819Y-73161309D02*
X164204819Y-73066071D01*
X164204819Y-73066071D02*
X164157200Y-72970833D01*
X164157200Y-72970833D02*
X164109580Y-72923214D01*
X164109580Y-72923214D02*
X164014342Y-72875595D01*
X164014342Y-72875595D02*
X163823866Y-72827976D01*
X163823866Y-72827976D02*
X163585771Y-72827976D01*
X163585771Y-72827976D02*
X163395295Y-72875595D01*
X163395295Y-72875595D02*
X163300057Y-72923214D01*
X163300057Y-72923214D02*
X163252438Y-72970833D01*
X163252438Y-72970833D02*
X163204819Y-73066071D01*
X154600057Y-89204761D02*
X154552438Y-89109523D01*
X154552438Y-89109523D02*
X154457200Y-89014285D01*
X154457200Y-89014285D02*
X154314342Y-88871428D01*
X154314342Y-88871428D02*
X154266723Y-88776190D01*
X154266723Y-88776190D02*
X154266723Y-88680952D01*
X154504819Y-88728571D02*
X154457200Y-88633333D01*
X154457200Y-88633333D02*
X154361961Y-88538095D01*
X154361961Y-88538095D02*
X154171485Y-88490476D01*
X154171485Y-88490476D02*
X153838152Y-88490476D01*
X153838152Y-88490476D02*
X153647676Y-88538095D01*
X153647676Y-88538095D02*
X153552438Y-88633333D01*
X153552438Y-88633333D02*
X153504819Y-88728571D01*
X153504819Y-88728571D02*
X153504819Y-88919047D01*
X153504819Y-88919047D02*
X153552438Y-89014285D01*
X153552438Y-89014285D02*
X153647676Y-89109523D01*
X153647676Y-89109523D02*
X153838152Y-89157142D01*
X153838152Y-89157142D02*
X154171485Y-89157142D01*
X154171485Y-89157142D02*
X154361961Y-89109523D01*
X154361961Y-89109523D02*
X154457200Y-89014285D01*
X154457200Y-89014285D02*
X154504819Y-88919047D01*
X154504819Y-88919047D02*
X154504819Y-88728571D01*
X153600057Y-89538095D02*
X153552438Y-89585714D01*
X153552438Y-89585714D02*
X153504819Y-89680952D01*
X153504819Y-89680952D02*
X153504819Y-89919047D01*
X153504819Y-89919047D02*
X153552438Y-90014285D01*
X153552438Y-90014285D02*
X153600057Y-90061904D01*
X153600057Y-90061904D02*
X153695295Y-90109523D01*
X153695295Y-90109523D02*
X153790533Y-90109523D01*
X153790533Y-90109523D02*
X153933390Y-90061904D01*
X153933390Y-90061904D02*
X154504819Y-89490476D01*
X154504819Y-89490476D02*
X154504819Y-90109523D01*
X156789580Y-71494642D02*
X156837200Y-71447023D01*
X156837200Y-71447023D02*
X156884819Y-71304166D01*
X156884819Y-71304166D02*
X156884819Y-71208928D01*
X156884819Y-71208928D02*
X156837200Y-71066071D01*
X156837200Y-71066071D02*
X156741961Y-70970833D01*
X156741961Y-70970833D02*
X156646723Y-70923214D01*
X156646723Y-70923214D02*
X156456247Y-70875595D01*
X156456247Y-70875595D02*
X156313390Y-70875595D01*
X156313390Y-70875595D02*
X156122914Y-70923214D01*
X156122914Y-70923214D02*
X156027676Y-70970833D01*
X156027676Y-70970833D02*
X155932438Y-71066071D01*
X155932438Y-71066071D02*
X155884819Y-71208928D01*
X155884819Y-71208928D02*
X155884819Y-71304166D01*
X155884819Y-71304166D02*
X155932438Y-71447023D01*
X155932438Y-71447023D02*
X155980057Y-71494642D01*
X156884819Y-72447023D02*
X156884819Y-71875595D01*
X156884819Y-72161309D02*
X155884819Y-72161309D01*
X155884819Y-72161309D02*
X156027676Y-72066071D01*
X156027676Y-72066071D02*
X156122914Y-71970833D01*
X156122914Y-71970833D02*
X156170533Y-71875595D01*
X155884819Y-73304166D02*
X155884819Y-73113690D01*
X155884819Y-73113690D02*
X155932438Y-73018452D01*
X155932438Y-73018452D02*
X155980057Y-72970833D01*
X155980057Y-72970833D02*
X156122914Y-72875595D01*
X156122914Y-72875595D02*
X156313390Y-72827976D01*
X156313390Y-72827976D02*
X156694342Y-72827976D01*
X156694342Y-72827976D02*
X156789580Y-72875595D01*
X156789580Y-72875595D02*
X156837200Y-72923214D01*
X156837200Y-72923214D02*
X156884819Y-73018452D01*
X156884819Y-73018452D02*
X156884819Y-73208928D01*
X156884819Y-73208928D02*
X156837200Y-73304166D01*
X156837200Y-73304166D02*
X156789580Y-73351785D01*
X156789580Y-73351785D02*
X156694342Y-73399404D01*
X156694342Y-73399404D02*
X156456247Y-73399404D01*
X156456247Y-73399404D02*
X156361009Y-73351785D01*
X156361009Y-73351785D02*
X156313390Y-73304166D01*
X156313390Y-73304166D02*
X156265771Y-73208928D01*
X156265771Y-73208928D02*
X156265771Y-73018452D01*
X156265771Y-73018452D02*
X156313390Y-72923214D01*
X156313390Y-72923214D02*
X156361009Y-72875595D01*
X156361009Y-72875595D02*
X156456247Y-72827976D01*
X107479166Y-109304819D02*
X107812499Y-108828628D01*
X108050594Y-109304819D02*
X108050594Y-108304819D01*
X108050594Y-108304819D02*
X107669642Y-108304819D01*
X107669642Y-108304819D02*
X107574404Y-108352438D01*
X107574404Y-108352438D02*
X107526785Y-108400057D01*
X107526785Y-108400057D02*
X107479166Y-108495295D01*
X107479166Y-108495295D02*
X107479166Y-108638152D01*
X107479166Y-108638152D02*
X107526785Y-108733390D01*
X107526785Y-108733390D02*
X107574404Y-108781009D01*
X107574404Y-108781009D02*
X107669642Y-108828628D01*
X107669642Y-108828628D02*
X108050594Y-108828628D01*
X107098213Y-108400057D02*
X107050594Y-108352438D01*
X107050594Y-108352438D02*
X106955356Y-108304819D01*
X106955356Y-108304819D02*
X106717261Y-108304819D01*
X106717261Y-108304819D02*
X106622023Y-108352438D01*
X106622023Y-108352438D02*
X106574404Y-108400057D01*
X106574404Y-108400057D02*
X106526785Y-108495295D01*
X106526785Y-108495295D02*
X106526785Y-108590533D01*
X106526785Y-108590533D02*
X106574404Y-108733390D01*
X106574404Y-108733390D02*
X107145832Y-109304819D01*
X107145832Y-109304819D02*
X106526785Y-109304819D01*
X150761904Y-110854819D02*
X150761904Y-111664342D01*
X150761904Y-111664342D02*
X150714285Y-111759580D01*
X150714285Y-111759580D02*
X150666666Y-111807200D01*
X150666666Y-111807200D02*
X150571428Y-111854819D01*
X150571428Y-111854819D02*
X150380952Y-111854819D01*
X150380952Y-111854819D02*
X150285714Y-111807200D01*
X150285714Y-111807200D02*
X150238095Y-111759580D01*
X150238095Y-111759580D02*
X150190476Y-111664342D01*
X150190476Y-111664342D02*
X150190476Y-110854819D01*
X149571428Y-111283390D02*
X149666666Y-111235771D01*
X149666666Y-111235771D02*
X149714285Y-111188152D01*
X149714285Y-111188152D02*
X149761904Y-111092914D01*
X149761904Y-111092914D02*
X149761904Y-111045295D01*
X149761904Y-111045295D02*
X149714285Y-110950057D01*
X149714285Y-110950057D02*
X149666666Y-110902438D01*
X149666666Y-110902438D02*
X149571428Y-110854819D01*
X149571428Y-110854819D02*
X149380952Y-110854819D01*
X149380952Y-110854819D02*
X149285714Y-110902438D01*
X149285714Y-110902438D02*
X149238095Y-110950057D01*
X149238095Y-110950057D02*
X149190476Y-111045295D01*
X149190476Y-111045295D02*
X149190476Y-111092914D01*
X149190476Y-111092914D02*
X149238095Y-111188152D01*
X149238095Y-111188152D02*
X149285714Y-111235771D01*
X149285714Y-111235771D02*
X149380952Y-111283390D01*
X149380952Y-111283390D02*
X149571428Y-111283390D01*
X149571428Y-111283390D02*
X149666666Y-111331009D01*
X149666666Y-111331009D02*
X149714285Y-111378628D01*
X149714285Y-111378628D02*
X149761904Y-111473866D01*
X149761904Y-111473866D02*
X149761904Y-111664342D01*
X149761904Y-111664342D02*
X149714285Y-111759580D01*
X149714285Y-111759580D02*
X149666666Y-111807200D01*
X149666666Y-111807200D02*
X149571428Y-111854819D01*
X149571428Y-111854819D02*
X149380952Y-111854819D01*
X149380952Y-111854819D02*
X149285714Y-111807200D01*
X149285714Y-111807200D02*
X149238095Y-111759580D01*
X149238095Y-111759580D02*
X149190476Y-111664342D01*
X149190476Y-111664342D02*
X149190476Y-111473866D01*
X149190476Y-111473866D02*
X149238095Y-111378628D01*
X149238095Y-111378628D02*
X149285714Y-111331009D01*
X149285714Y-111331009D02*
X149380952Y-111283390D01*
X163554819Y-83257142D02*
X163078628Y-82923809D01*
X163554819Y-82685714D02*
X162554819Y-82685714D01*
X162554819Y-82685714D02*
X162554819Y-83066666D01*
X162554819Y-83066666D02*
X162602438Y-83161904D01*
X162602438Y-83161904D02*
X162650057Y-83209523D01*
X162650057Y-83209523D02*
X162745295Y-83257142D01*
X162745295Y-83257142D02*
X162888152Y-83257142D01*
X162888152Y-83257142D02*
X162983390Y-83209523D01*
X162983390Y-83209523D02*
X163031009Y-83161904D01*
X163031009Y-83161904D02*
X163078628Y-83066666D01*
X163078628Y-83066666D02*
X163078628Y-82685714D01*
X162554819Y-83590476D02*
X162554819Y-84209523D01*
X162554819Y-84209523D02*
X162935771Y-83876190D01*
X162935771Y-83876190D02*
X162935771Y-84019047D01*
X162935771Y-84019047D02*
X162983390Y-84114285D01*
X162983390Y-84114285D02*
X163031009Y-84161904D01*
X163031009Y-84161904D02*
X163126247Y-84209523D01*
X163126247Y-84209523D02*
X163364342Y-84209523D01*
X163364342Y-84209523D02*
X163459580Y-84161904D01*
X163459580Y-84161904D02*
X163507200Y-84114285D01*
X163507200Y-84114285D02*
X163554819Y-84019047D01*
X163554819Y-84019047D02*
X163554819Y-83733333D01*
X163554819Y-83733333D02*
X163507200Y-83638095D01*
X163507200Y-83638095D02*
X163459580Y-83590476D01*
X163554819Y-84685714D02*
X163554819Y-84876190D01*
X163554819Y-84876190D02*
X163507200Y-84971428D01*
X163507200Y-84971428D02*
X163459580Y-85019047D01*
X163459580Y-85019047D02*
X163316723Y-85114285D01*
X163316723Y-85114285D02*
X163126247Y-85161904D01*
X163126247Y-85161904D02*
X162745295Y-85161904D01*
X162745295Y-85161904D02*
X162650057Y-85114285D01*
X162650057Y-85114285D02*
X162602438Y-85066666D01*
X162602438Y-85066666D02*
X162554819Y-84971428D01*
X162554819Y-84971428D02*
X162554819Y-84780952D01*
X162554819Y-84780952D02*
X162602438Y-84685714D01*
X162602438Y-84685714D02*
X162650057Y-84638095D01*
X162650057Y-84638095D02*
X162745295Y-84590476D01*
X162745295Y-84590476D02*
X162983390Y-84590476D01*
X162983390Y-84590476D02*
X163078628Y-84638095D01*
X163078628Y-84638095D02*
X163126247Y-84685714D01*
X163126247Y-84685714D02*
X163173866Y-84780952D01*
X163173866Y-84780952D02*
X163173866Y-84971428D01*
X163173866Y-84971428D02*
X163126247Y-85066666D01*
X163126247Y-85066666D02*
X163078628Y-85114285D01*
X163078628Y-85114285D02*
X162983390Y-85161904D01*
X137242857Y-89554819D02*
X137576190Y-89078628D01*
X137814285Y-89554819D02*
X137814285Y-88554819D01*
X137814285Y-88554819D02*
X137433333Y-88554819D01*
X137433333Y-88554819D02*
X137338095Y-88602438D01*
X137338095Y-88602438D02*
X137290476Y-88650057D01*
X137290476Y-88650057D02*
X137242857Y-88745295D01*
X137242857Y-88745295D02*
X137242857Y-88888152D01*
X137242857Y-88888152D02*
X137290476Y-88983390D01*
X137290476Y-88983390D02*
X137338095Y-89031009D01*
X137338095Y-89031009D02*
X137433333Y-89078628D01*
X137433333Y-89078628D02*
X137814285Y-89078628D01*
X136909523Y-88554819D02*
X136290476Y-88554819D01*
X136290476Y-88554819D02*
X136623809Y-88935771D01*
X136623809Y-88935771D02*
X136480952Y-88935771D01*
X136480952Y-88935771D02*
X136385714Y-88983390D01*
X136385714Y-88983390D02*
X136338095Y-89031009D01*
X136338095Y-89031009D02*
X136290476Y-89126247D01*
X136290476Y-89126247D02*
X136290476Y-89364342D01*
X136290476Y-89364342D02*
X136338095Y-89459580D01*
X136338095Y-89459580D02*
X136385714Y-89507200D01*
X136385714Y-89507200D02*
X136480952Y-89554819D01*
X136480952Y-89554819D02*
X136766666Y-89554819D01*
X136766666Y-89554819D02*
X136861904Y-89507200D01*
X136861904Y-89507200D02*
X136909523Y-89459580D01*
X135957142Y-88554819D02*
X135338095Y-88554819D01*
X135338095Y-88554819D02*
X135671428Y-88935771D01*
X135671428Y-88935771D02*
X135528571Y-88935771D01*
X135528571Y-88935771D02*
X135433333Y-88983390D01*
X135433333Y-88983390D02*
X135385714Y-89031009D01*
X135385714Y-89031009D02*
X135338095Y-89126247D01*
X135338095Y-89126247D02*
X135338095Y-89364342D01*
X135338095Y-89364342D02*
X135385714Y-89459580D01*
X135385714Y-89459580D02*
X135433333Y-89507200D01*
X135433333Y-89507200D02*
X135528571Y-89554819D01*
X135528571Y-89554819D02*
X135814285Y-89554819D01*
X135814285Y-89554819D02*
X135909523Y-89507200D01*
X135909523Y-89507200D02*
X135957142Y-89459580D01*
X160342857Y-94054819D02*
X160676190Y-93578628D01*
X160914285Y-94054819D02*
X160914285Y-93054819D01*
X160914285Y-93054819D02*
X160533333Y-93054819D01*
X160533333Y-93054819D02*
X160438095Y-93102438D01*
X160438095Y-93102438D02*
X160390476Y-93150057D01*
X160390476Y-93150057D02*
X160342857Y-93245295D01*
X160342857Y-93245295D02*
X160342857Y-93388152D01*
X160342857Y-93388152D02*
X160390476Y-93483390D01*
X160390476Y-93483390D02*
X160438095Y-93531009D01*
X160438095Y-93531009D02*
X160533333Y-93578628D01*
X160533333Y-93578628D02*
X160914285Y-93578628D01*
X159961904Y-93150057D02*
X159914285Y-93102438D01*
X159914285Y-93102438D02*
X159819047Y-93054819D01*
X159819047Y-93054819D02*
X159580952Y-93054819D01*
X159580952Y-93054819D02*
X159485714Y-93102438D01*
X159485714Y-93102438D02*
X159438095Y-93150057D01*
X159438095Y-93150057D02*
X159390476Y-93245295D01*
X159390476Y-93245295D02*
X159390476Y-93340533D01*
X159390476Y-93340533D02*
X159438095Y-93483390D01*
X159438095Y-93483390D02*
X160009523Y-94054819D01*
X160009523Y-94054819D02*
X159390476Y-94054819D01*
X158438095Y-94054819D02*
X159009523Y-94054819D01*
X158723809Y-94054819D02*
X158723809Y-93054819D01*
X158723809Y-93054819D02*
X158819047Y-93197676D01*
X158819047Y-93197676D02*
X158914285Y-93292914D01*
X158914285Y-93292914D02*
X159009523Y-93340533D01*
X104630357Y-86954819D02*
X104963690Y-86478628D01*
X105201785Y-86954819D02*
X105201785Y-85954819D01*
X105201785Y-85954819D02*
X104820833Y-85954819D01*
X104820833Y-85954819D02*
X104725595Y-86002438D01*
X104725595Y-86002438D02*
X104677976Y-86050057D01*
X104677976Y-86050057D02*
X104630357Y-86145295D01*
X104630357Y-86145295D02*
X104630357Y-86288152D01*
X104630357Y-86288152D02*
X104677976Y-86383390D01*
X104677976Y-86383390D02*
X104725595Y-86431009D01*
X104725595Y-86431009D02*
X104820833Y-86478628D01*
X104820833Y-86478628D02*
X105201785Y-86478628D01*
X104249404Y-86050057D02*
X104201785Y-86002438D01*
X104201785Y-86002438D02*
X104106547Y-85954819D01*
X104106547Y-85954819D02*
X103868452Y-85954819D01*
X103868452Y-85954819D02*
X103773214Y-86002438D01*
X103773214Y-86002438D02*
X103725595Y-86050057D01*
X103725595Y-86050057D02*
X103677976Y-86145295D01*
X103677976Y-86145295D02*
X103677976Y-86240533D01*
X103677976Y-86240533D02*
X103725595Y-86383390D01*
X103725595Y-86383390D02*
X104297023Y-86954819D01*
X104297023Y-86954819D02*
X103677976Y-86954819D01*
X103344642Y-85954819D02*
X102725595Y-85954819D01*
X102725595Y-85954819D02*
X103058928Y-86335771D01*
X103058928Y-86335771D02*
X102916071Y-86335771D01*
X102916071Y-86335771D02*
X102820833Y-86383390D01*
X102820833Y-86383390D02*
X102773214Y-86431009D01*
X102773214Y-86431009D02*
X102725595Y-86526247D01*
X102725595Y-86526247D02*
X102725595Y-86764342D01*
X102725595Y-86764342D02*
X102773214Y-86859580D01*
X102773214Y-86859580D02*
X102820833Y-86907200D01*
X102820833Y-86907200D02*
X102916071Y-86954819D01*
X102916071Y-86954819D02*
X103201785Y-86954819D01*
X103201785Y-86954819D02*
X103297023Y-86907200D01*
X103297023Y-86907200D02*
X103344642Y-86859580D01*
X151789580Y-71494642D02*
X151837200Y-71447023D01*
X151837200Y-71447023D02*
X151884819Y-71304166D01*
X151884819Y-71304166D02*
X151884819Y-71208928D01*
X151884819Y-71208928D02*
X151837200Y-71066071D01*
X151837200Y-71066071D02*
X151741961Y-70970833D01*
X151741961Y-70970833D02*
X151646723Y-70923214D01*
X151646723Y-70923214D02*
X151456247Y-70875595D01*
X151456247Y-70875595D02*
X151313390Y-70875595D01*
X151313390Y-70875595D02*
X151122914Y-70923214D01*
X151122914Y-70923214D02*
X151027676Y-70970833D01*
X151027676Y-70970833D02*
X150932438Y-71066071D01*
X150932438Y-71066071D02*
X150884819Y-71208928D01*
X150884819Y-71208928D02*
X150884819Y-71304166D01*
X150884819Y-71304166D02*
X150932438Y-71447023D01*
X150932438Y-71447023D02*
X150980057Y-71494642D01*
X151884819Y-72447023D02*
X151884819Y-71875595D01*
X151884819Y-72161309D02*
X150884819Y-72161309D01*
X150884819Y-72161309D02*
X151027676Y-72066071D01*
X151027676Y-72066071D02*
X151122914Y-71970833D01*
X151122914Y-71970833D02*
X151170533Y-71875595D01*
X150884819Y-73351785D02*
X150884819Y-72875595D01*
X150884819Y-72875595D02*
X151361009Y-72827976D01*
X151361009Y-72827976D02*
X151313390Y-72875595D01*
X151313390Y-72875595D02*
X151265771Y-72970833D01*
X151265771Y-72970833D02*
X151265771Y-73208928D01*
X151265771Y-73208928D02*
X151313390Y-73304166D01*
X151313390Y-73304166D02*
X151361009Y-73351785D01*
X151361009Y-73351785D02*
X151456247Y-73399404D01*
X151456247Y-73399404D02*
X151694342Y-73399404D01*
X151694342Y-73399404D02*
X151789580Y-73351785D01*
X151789580Y-73351785D02*
X151837200Y-73304166D01*
X151837200Y-73304166D02*
X151884819Y-73208928D01*
X151884819Y-73208928D02*
X151884819Y-72970833D01*
X151884819Y-72970833D02*
X151837200Y-72875595D01*
X151837200Y-72875595D02*
X151789580Y-72827976D01*
X160442857Y-92454819D02*
X160776190Y-91978628D01*
X161014285Y-92454819D02*
X161014285Y-91454819D01*
X161014285Y-91454819D02*
X160633333Y-91454819D01*
X160633333Y-91454819D02*
X160538095Y-91502438D01*
X160538095Y-91502438D02*
X160490476Y-91550057D01*
X160490476Y-91550057D02*
X160442857Y-91645295D01*
X160442857Y-91645295D02*
X160442857Y-91788152D01*
X160442857Y-91788152D02*
X160490476Y-91883390D01*
X160490476Y-91883390D02*
X160538095Y-91931009D01*
X160538095Y-91931009D02*
X160633333Y-91978628D01*
X160633333Y-91978628D02*
X161014285Y-91978628D01*
X160061904Y-91550057D02*
X160014285Y-91502438D01*
X160014285Y-91502438D02*
X159919047Y-91454819D01*
X159919047Y-91454819D02*
X159680952Y-91454819D01*
X159680952Y-91454819D02*
X159585714Y-91502438D01*
X159585714Y-91502438D02*
X159538095Y-91550057D01*
X159538095Y-91550057D02*
X159490476Y-91645295D01*
X159490476Y-91645295D02*
X159490476Y-91740533D01*
X159490476Y-91740533D02*
X159538095Y-91883390D01*
X159538095Y-91883390D02*
X160109523Y-92454819D01*
X160109523Y-92454819D02*
X159490476Y-92454819D01*
X159109523Y-91550057D02*
X159061904Y-91502438D01*
X159061904Y-91502438D02*
X158966666Y-91454819D01*
X158966666Y-91454819D02*
X158728571Y-91454819D01*
X158728571Y-91454819D02*
X158633333Y-91502438D01*
X158633333Y-91502438D02*
X158585714Y-91550057D01*
X158585714Y-91550057D02*
X158538095Y-91645295D01*
X158538095Y-91645295D02*
X158538095Y-91740533D01*
X158538095Y-91740533D02*
X158585714Y-91883390D01*
X158585714Y-91883390D02*
X159157142Y-92454819D01*
X159157142Y-92454819D02*
X158538095Y-92454819D01*
X134937387Y-81954819D02*
X134937387Y-80954819D01*
X134937387Y-80954819D02*
X134699292Y-80954819D01*
X134699292Y-80954819D02*
X134556435Y-81002438D01*
X134556435Y-81002438D02*
X134461197Y-81097676D01*
X134461197Y-81097676D02*
X134413578Y-81192914D01*
X134413578Y-81192914D02*
X134365959Y-81383390D01*
X134365959Y-81383390D02*
X134365959Y-81526247D01*
X134365959Y-81526247D02*
X134413578Y-81716723D01*
X134413578Y-81716723D02*
X134461197Y-81811961D01*
X134461197Y-81811961D02*
X134556435Y-81907200D01*
X134556435Y-81907200D02*
X134699292Y-81954819D01*
X134699292Y-81954819D02*
X134937387Y-81954819D01*
X133413578Y-81954819D02*
X133985006Y-81954819D01*
X133699292Y-81954819D02*
X133699292Y-80954819D01*
X133699292Y-80954819D02*
X133794530Y-81097676D01*
X133794530Y-81097676D02*
X133889768Y-81192914D01*
X133889768Y-81192914D02*
X133985006Y-81240533D01*
X166859580Y-71494642D02*
X166907200Y-71447023D01*
X166907200Y-71447023D02*
X166954819Y-71304166D01*
X166954819Y-71304166D02*
X166954819Y-71208928D01*
X166954819Y-71208928D02*
X166907200Y-71066071D01*
X166907200Y-71066071D02*
X166811961Y-70970833D01*
X166811961Y-70970833D02*
X166716723Y-70923214D01*
X166716723Y-70923214D02*
X166526247Y-70875595D01*
X166526247Y-70875595D02*
X166383390Y-70875595D01*
X166383390Y-70875595D02*
X166192914Y-70923214D01*
X166192914Y-70923214D02*
X166097676Y-70970833D01*
X166097676Y-70970833D02*
X166002438Y-71066071D01*
X166002438Y-71066071D02*
X165954819Y-71208928D01*
X165954819Y-71208928D02*
X165954819Y-71304166D01*
X165954819Y-71304166D02*
X166002438Y-71447023D01*
X166002438Y-71447023D02*
X166050057Y-71494642D01*
X166288152Y-72351785D02*
X166954819Y-72351785D01*
X165907200Y-72113690D02*
X166621485Y-71875595D01*
X166621485Y-71875595D02*
X166621485Y-72494642D01*
X165954819Y-73066071D02*
X165954819Y-73161309D01*
X165954819Y-73161309D02*
X166002438Y-73256547D01*
X166002438Y-73256547D02*
X166050057Y-73304166D01*
X166050057Y-73304166D02*
X166145295Y-73351785D01*
X166145295Y-73351785D02*
X166335771Y-73399404D01*
X166335771Y-73399404D02*
X166573866Y-73399404D01*
X166573866Y-73399404D02*
X166764342Y-73351785D01*
X166764342Y-73351785D02*
X166859580Y-73304166D01*
X166859580Y-73304166D02*
X166907200Y-73256547D01*
X166907200Y-73256547D02*
X166954819Y-73161309D01*
X166954819Y-73161309D02*
X166954819Y-73066071D01*
X166954819Y-73066071D02*
X166907200Y-72970833D01*
X166907200Y-72970833D02*
X166859580Y-72923214D01*
X166859580Y-72923214D02*
X166764342Y-72875595D01*
X166764342Y-72875595D02*
X166573866Y-72827976D01*
X166573866Y-72827976D02*
X166335771Y-72827976D01*
X166335771Y-72827976D02*
X166145295Y-72875595D01*
X166145295Y-72875595D02*
X166050057Y-72923214D01*
X166050057Y-72923214D02*
X166002438Y-72970833D01*
X166002438Y-72970833D02*
X165954819Y-73066071D01*
D10*
X146561904Y-102757419D02*
X145990476Y-102757419D01*
X146276190Y-103757419D02*
X146276190Y-102757419D01*
X145657142Y-103757419D02*
X145657142Y-102757419D01*
X145657142Y-102757419D02*
X145276190Y-102757419D01*
X145276190Y-102757419D02*
X145180952Y-102805038D01*
X145180952Y-102805038D02*
X145133333Y-102852657D01*
X145133333Y-102852657D02*
X145085714Y-102947895D01*
X145085714Y-102947895D02*
X145085714Y-103090752D01*
X145085714Y-103090752D02*
X145133333Y-103185990D01*
X145133333Y-103185990D02*
X145180952Y-103233609D01*
X145180952Y-103233609D02*
X145276190Y-103281228D01*
X145276190Y-103281228D02*
X145657142Y-103281228D01*
X144514285Y-103185990D02*
X144609523Y-103138371D01*
X144609523Y-103138371D02*
X144657142Y-103090752D01*
X144657142Y-103090752D02*
X144704761Y-102995514D01*
X144704761Y-102995514D02*
X144704761Y-102947895D01*
X144704761Y-102947895D02*
X144657142Y-102852657D01*
X144657142Y-102852657D02*
X144609523Y-102805038D01*
X144609523Y-102805038D02*
X144514285Y-102757419D01*
X144514285Y-102757419D02*
X144323809Y-102757419D01*
X144323809Y-102757419D02*
X144228571Y-102805038D01*
X144228571Y-102805038D02*
X144180952Y-102852657D01*
X144180952Y-102852657D02*
X144133333Y-102947895D01*
X144133333Y-102947895D02*
X144133333Y-102995514D01*
X144133333Y-102995514D02*
X144180952Y-103090752D01*
X144180952Y-103090752D02*
X144228571Y-103138371D01*
X144228571Y-103138371D02*
X144323809Y-103185990D01*
X144323809Y-103185990D02*
X144514285Y-103185990D01*
X144514285Y-103185990D02*
X144609523Y-103233609D01*
X144609523Y-103233609D02*
X144657142Y-103281228D01*
X144657142Y-103281228D02*
X144704761Y-103376466D01*
X144704761Y-103376466D02*
X144704761Y-103566942D01*
X144704761Y-103566942D02*
X144657142Y-103662180D01*
X144657142Y-103662180D02*
X144609523Y-103709800D01*
X144609523Y-103709800D02*
X144514285Y-103757419D01*
X144514285Y-103757419D02*
X144323809Y-103757419D01*
X144323809Y-103757419D02*
X144228571Y-103709800D01*
X144228571Y-103709800D02*
X144180952Y-103662180D01*
X144180952Y-103662180D02*
X144133333Y-103566942D01*
X144133333Y-103566942D02*
X144133333Y-103376466D01*
X144133333Y-103376466D02*
X144180952Y-103281228D01*
X144180952Y-103281228D02*
X144228571Y-103233609D01*
X144228571Y-103233609D02*
X144323809Y-103185990D01*
D11*
X116904166Y-117059580D02*
X116951785Y-117107200D01*
X116951785Y-117107200D02*
X117094642Y-117154819D01*
X117094642Y-117154819D02*
X117189880Y-117154819D01*
X117189880Y-117154819D02*
X117332737Y-117107200D01*
X117332737Y-117107200D02*
X117427975Y-117011961D01*
X117427975Y-117011961D02*
X117475594Y-116916723D01*
X117475594Y-116916723D02*
X117523213Y-116726247D01*
X117523213Y-116726247D02*
X117523213Y-116583390D01*
X117523213Y-116583390D02*
X117475594Y-116392914D01*
X117475594Y-116392914D02*
X117427975Y-116297676D01*
X117427975Y-116297676D02*
X117332737Y-116202438D01*
X117332737Y-116202438D02*
X117189880Y-116154819D01*
X117189880Y-116154819D02*
X117094642Y-116154819D01*
X117094642Y-116154819D02*
X116951785Y-116202438D01*
X116951785Y-116202438D02*
X116904166Y-116250057D01*
X116523213Y-116250057D02*
X116475594Y-116202438D01*
X116475594Y-116202438D02*
X116380356Y-116154819D01*
X116380356Y-116154819D02*
X116142261Y-116154819D01*
X116142261Y-116154819D02*
X116047023Y-116202438D01*
X116047023Y-116202438D02*
X115999404Y-116250057D01*
X115999404Y-116250057D02*
X115951785Y-116345295D01*
X115951785Y-116345295D02*
X115951785Y-116440533D01*
X115951785Y-116440533D02*
X115999404Y-116583390D01*
X115999404Y-116583390D02*
X116570832Y-117154819D01*
X116570832Y-117154819D02*
X115951785Y-117154819D01*
X165740319Y-100857142D02*
X165264128Y-100523809D01*
X165740319Y-100285714D02*
X164740319Y-100285714D01*
X164740319Y-100285714D02*
X164740319Y-100666666D01*
X164740319Y-100666666D02*
X164787938Y-100761904D01*
X164787938Y-100761904D02*
X164835557Y-100809523D01*
X164835557Y-100809523D02*
X164930795Y-100857142D01*
X164930795Y-100857142D02*
X165073652Y-100857142D01*
X165073652Y-100857142D02*
X165168890Y-100809523D01*
X165168890Y-100809523D02*
X165216509Y-100761904D01*
X165216509Y-100761904D02*
X165264128Y-100666666D01*
X165264128Y-100666666D02*
X165264128Y-100285714D01*
X165073652Y-101714285D02*
X165740319Y-101714285D01*
X164692700Y-101476190D02*
X165406985Y-101238095D01*
X165406985Y-101238095D02*
X165406985Y-101857142D01*
X165073652Y-102666666D02*
X165740319Y-102666666D01*
X164692700Y-102428571D02*
X165406985Y-102190476D01*
X165406985Y-102190476D02*
X165406985Y-102809523D01*
D10*
X115461904Y-106157419D02*
X114890476Y-106157419D01*
X115176190Y-107157419D02*
X115176190Y-106157419D01*
X114557142Y-107157419D02*
X114557142Y-106157419D01*
X114557142Y-106157419D02*
X114176190Y-106157419D01*
X114176190Y-106157419D02*
X114080952Y-106205038D01*
X114080952Y-106205038D02*
X114033333Y-106252657D01*
X114033333Y-106252657D02*
X113985714Y-106347895D01*
X113985714Y-106347895D02*
X113985714Y-106490752D01*
X113985714Y-106490752D02*
X114033333Y-106585990D01*
X114033333Y-106585990D02*
X114080952Y-106633609D01*
X114080952Y-106633609D02*
X114176190Y-106681228D01*
X114176190Y-106681228D02*
X114557142Y-106681228D01*
X113033333Y-107157419D02*
X113604761Y-107157419D01*
X113319047Y-107157419D02*
X113319047Y-106157419D01*
X113319047Y-106157419D02*
X113414285Y-106300276D01*
X113414285Y-106300276D02*
X113509523Y-106395514D01*
X113509523Y-106395514D02*
X113604761Y-106443133D01*
D11*
X161789580Y-71494642D02*
X161837200Y-71447023D01*
X161837200Y-71447023D02*
X161884819Y-71304166D01*
X161884819Y-71304166D02*
X161884819Y-71208928D01*
X161884819Y-71208928D02*
X161837200Y-71066071D01*
X161837200Y-71066071D02*
X161741961Y-70970833D01*
X161741961Y-70970833D02*
X161646723Y-70923214D01*
X161646723Y-70923214D02*
X161456247Y-70875595D01*
X161456247Y-70875595D02*
X161313390Y-70875595D01*
X161313390Y-70875595D02*
X161122914Y-70923214D01*
X161122914Y-70923214D02*
X161027676Y-70970833D01*
X161027676Y-70970833D02*
X160932438Y-71066071D01*
X160932438Y-71066071D02*
X160884819Y-71208928D01*
X160884819Y-71208928D02*
X160884819Y-71304166D01*
X160884819Y-71304166D02*
X160932438Y-71447023D01*
X160932438Y-71447023D02*
X160980057Y-71494642D01*
X161884819Y-72447023D02*
X161884819Y-71875595D01*
X161884819Y-72161309D02*
X160884819Y-72161309D01*
X160884819Y-72161309D02*
X161027676Y-72066071D01*
X161027676Y-72066071D02*
X161122914Y-71970833D01*
X161122914Y-71970833D02*
X161170533Y-71875595D01*
X160884819Y-72780357D02*
X160884819Y-73447023D01*
X160884819Y-73447023D02*
X161884819Y-73018452D01*
X121721904Y-104542319D02*
X121721904Y-105351842D01*
X121721904Y-105351842D02*
X121674285Y-105447080D01*
X121674285Y-105447080D02*
X121626666Y-105494700D01*
X121626666Y-105494700D02*
X121531428Y-105542319D01*
X121531428Y-105542319D02*
X121340952Y-105542319D01*
X121340952Y-105542319D02*
X121245714Y-105494700D01*
X121245714Y-105494700D02*
X121198095Y-105447080D01*
X121198095Y-105447080D02*
X121150476Y-105351842D01*
X121150476Y-105351842D02*
X121150476Y-104542319D01*
X120769523Y-104542319D02*
X120102857Y-104542319D01*
X120102857Y-104542319D02*
X120531428Y-105542319D01*
X115039580Y-71494642D02*
X115087200Y-71447023D01*
X115087200Y-71447023D02*
X115134819Y-71304166D01*
X115134819Y-71304166D02*
X115134819Y-71208928D01*
X115134819Y-71208928D02*
X115087200Y-71066071D01*
X115087200Y-71066071D02*
X114991961Y-70970833D01*
X114991961Y-70970833D02*
X114896723Y-70923214D01*
X114896723Y-70923214D02*
X114706247Y-70875595D01*
X114706247Y-70875595D02*
X114563390Y-70875595D01*
X114563390Y-70875595D02*
X114372914Y-70923214D01*
X114372914Y-70923214D02*
X114277676Y-70970833D01*
X114277676Y-70970833D02*
X114182438Y-71066071D01*
X114182438Y-71066071D02*
X114134819Y-71208928D01*
X114134819Y-71208928D02*
X114134819Y-71304166D01*
X114134819Y-71304166D02*
X114182438Y-71447023D01*
X114182438Y-71447023D02*
X114230057Y-71494642D01*
X114134819Y-71827976D02*
X114134819Y-72447023D01*
X114134819Y-72447023D02*
X114515771Y-72113690D01*
X114515771Y-72113690D02*
X114515771Y-72256547D01*
X114515771Y-72256547D02*
X114563390Y-72351785D01*
X114563390Y-72351785D02*
X114611009Y-72399404D01*
X114611009Y-72399404D02*
X114706247Y-72447023D01*
X114706247Y-72447023D02*
X114944342Y-72447023D01*
X114944342Y-72447023D02*
X115039580Y-72399404D01*
X115039580Y-72399404D02*
X115087200Y-72351785D01*
X115087200Y-72351785D02*
X115134819Y-72256547D01*
X115134819Y-72256547D02*
X115134819Y-71970833D01*
X115134819Y-71970833D02*
X115087200Y-71875595D01*
X115087200Y-71875595D02*
X115039580Y-71827976D01*
X115134819Y-73399404D02*
X115134819Y-72827976D01*
X115134819Y-73113690D02*
X114134819Y-73113690D01*
X114134819Y-73113690D02*
X114277676Y-73018452D01*
X114277676Y-73018452D02*
X114372914Y-72923214D01*
X114372914Y-72923214D02*
X114420533Y-72827976D01*
X109942857Y-83254819D02*
X110276190Y-82778628D01*
X110514285Y-83254819D02*
X110514285Y-82254819D01*
X110514285Y-82254819D02*
X110133333Y-82254819D01*
X110133333Y-82254819D02*
X110038095Y-82302438D01*
X110038095Y-82302438D02*
X109990476Y-82350057D01*
X109990476Y-82350057D02*
X109942857Y-82445295D01*
X109942857Y-82445295D02*
X109942857Y-82588152D01*
X109942857Y-82588152D02*
X109990476Y-82683390D01*
X109990476Y-82683390D02*
X110038095Y-82731009D01*
X110038095Y-82731009D02*
X110133333Y-82778628D01*
X110133333Y-82778628D02*
X110514285Y-82778628D01*
X109561904Y-82350057D02*
X109514285Y-82302438D01*
X109514285Y-82302438D02*
X109419047Y-82254819D01*
X109419047Y-82254819D02*
X109180952Y-82254819D01*
X109180952Y-82254819D02*
X109085714Y-82302438D01*
X109085714Y-82302438D02*
X109038095Y-82350057D01*
X109038095Y-82350057D02*
X108990476Y-82445295D01*
X108990476Y-82445295D02*
X108990476Y-82540533D01*
X108990476Y-82540533D02*
X109038095Y-82683390D01*
X109038095Y-82683390D02*
X109609523Y-83254819D01*
X109609523Y-83254819D02*
X108990476Y-83254819D01*
X108133333Y-82254819D02*
X108323809Y-82254819D01*
X108323809Y-82254819D02*
X108419047Y-82302438D01*
X108419047Y-82302438D02*
X108466666Y-82350057D01*
X108466666Y-82350057D02*
X108561904Y-82492914D01*
X108561904Y-82492914D02*
X108609523Y-82683390D01*
X108609523Y-82683390D02*
X108609523Y-83064342D01*
X108609523Y-83064342D02*
X108561904Y-83159580D01*
X108561904Y-83159580D02*
X108514285Y-83207200D01*
X108514285Y-83207200D02*
X108419047Y-83254819D01*
X108419047Y-83254819D02*
X108228571Y-83254819D01*
X108228571Y-83254819D02*
X108133333Y-83207200D01*
X108133333Y-83207200D02*
X108085714Y-83159580D01*
X108085714Y-83159580D02*
X108038095Y-83064342D01*
X108038095Y-83064342D02*
X108038095Y-82826247D01*
X108038095Y-82826247D02*
X108085714Y-82731009D01*
X108085714Y-82731009D02*
X108133333Y-82683390D01*
X108133333Y-82683390D02*
X108228571Y-82635771D01*
X108228571Y-82635771D02*
X108419047Y-82635771D01*
X108419047Y-82635771D02*
X108514285Y-82683390D01*
X108514285Y-82683390D02*
X108561904Y-82731009D01*
X108561904Y-82731009D02*
X108609523Y-82826247D01*
D10*
X114638094Y-104057419D02*
X114066666Y-104057419D01*
X114352380Y-105057419D02*
X114352380Y-104057419D01*
X113733332Y-105057419D02*
X113733332Y-104057419D01*
X113733332Y-104057419D02*
X113352380Y-104057419D01*
X113352380Y-104057419D02*
X113257142Y-104105038D01*
X113257142Y-104105038D02*
X113209523Y-104152657D01*
X113209523Y-104152657D02*
X113161904Y-104247895D01*
X113161904Y-104247895D02*
X113161904Y-104390752D01*
X113161904Y-104390752D02*
X113209523Y-104485990D01*
X113209523Y-104485990D02*
X113257142Y-104533609D01*
X113257142Y-104533609D02*
X113352380Y-104581228D01*
X113352380Y-104581228D02*
X113733332Y-104581228D01*
X112209523Y-105057419D02*
X112780951Y-105057419D01*
X112495237Y-105057419D02*
X112495237Y-104057419D01*
X112495237Y-104057419D02*
X112590475Y-104200276D01*
X112590475Y-104200276D02*
X112685713Y-104295514D01*
X112685713Y-104295514D02*
X112780951Y-104343133D01*
X111257142Y-105057419D02*
X111828570Y-105057419D01*
X111542856Y-105057419D02*
X111542856Y-104057419D01*
X111542856Y-104057419D02*
X111638094Y-104200276D01*
X111638094Y-104200276D02*
X111733332Y-104295514D01*
X111733332Y-104295514D02*
X111828570Y-104343133D01*
D11*
X109159580Y-117933333D02*
X109207200Y-117885714D01*
X109207200Y-117885714D02*
X109254819Y-117742857D01*
X109254819Y-117742857D02*
X109254819Y-117647619D01*
X109254819Y-117647619D02*
X109207200Y-117504762D01*
X109207200Y-117504762D02*
X109111961Y-117409524D01*
X109111961Y-117409524D02*
X109016723Y-117361905D01*
X109016723Y-117361905D02*
X108826247Y-117314286D01*
X108826247Y-117314286D02*
X108683390Y-117314286D01*
X108683390Y-117314286D02*
X108492914Y-117361905D01*
X108492914Y-117361905D02*
X108397676Y-117409524D01*
X108397676Y-117409524D02*
X108302438Y-117504762D01*
X108302438Y-117504762D02*
X108254819Y-117647619D01*
X108254819Y-117647619D02*
X108254819Y-117742857D01*
X108254819Y-117742857D02*
X108302438Y-117885714D01*
X108302438Y-117885714D02*
X108350057Y-117933333D01*
X108683390Y-118504762D02*
X108635771Y-118409524D01*
X108635771Y-118409524D02*
X108588152Y-118361905D01*
X108588152Y-118361905D02*
X108492914Y-118314286D01*
X108492914Y-118314286D02*
X108445295Y-118314286D01*
X108445295Y-118314286D02*
X108350057Y-118361905D01*
X108350057Y-118361905D02*
X108302438Y-118409524D01*
X108302438Y-118409524D02*
X108254819Y-118504762D01*
X108254819Y-118504762D02*
X108254819Y-118695238D01*
X108254819Y-118695238D02*
X108302438Y-118790476D01*
X108302438Y-118790476D02*
X108350057Y-118838095D01*
X108350057Y-118838095D02*
X108445295Y-118885714D01*
X108445295Y-118885714D02*
X108492914Y-118885714D01*
X108492914Y-118885714D02*
X108588152Y-118838095D01*
X108588152Y-118838095D02*
X108635771Y-118790476D01*
X108635771Y-118790476D02*
X108683390Y-118695238D01*
X108683390Y-118695238D02*
X108683390Y-118504762D01*
X108683390Y-118504762D02*
X108731009Y-118409524D01*
X108731009Y-118409524D02*
X108778628Y-118361905D01*
X108778628Y-118361905D02*
X108873866Y-118314286D01*
X108873866Y-118314286D02*
X109064342Y-118314286D01*
X109064342Y-118314286D02*
X109159580Y-118361905D01*
X109159580Y-118361905D02*
X109207200Y-118409524D01*
X109207200Y-118409524D02*
X109254819Y-118504762D01*
X109254819Y-118504762D02*
X109254819Y-118695238D01*
X109254819Y-118695238D02*
X109207200Y-118790476D01*
X109207200Y-118790476D02*
X109159580Y-118838095D01*
X109159580Y-118838095D02*
X109064342Y-118885714D01*
X109064342Y-118885714D02*
X108873866Y-118885714D01*
X108873866Y-118885714D02*
X108778628Y-118838095D01*
X108778628Y-118838095D02*
X108731009Y-118790476D01*
X108731009Y-118790476D02*
X108683390Y-118695238D01*
X117242857Y-83254819D02*
X117576190Y-82778628D01*
X117814285Y-83254819D02*
X117814285Y-82254819D01*
X117814285Y-82254819D02*
X117433333Y-82254819D01*
X117433333Y-82254819D02*
X117338095Y-82302438D01*
X117338095Y-82302438D02*
X117290476Y-82350057D01*
X117290476Y-82350057D02*
X117242857Y-82445295D01*
X117242857Y-82445295D02*
X117242857Y-82588152D01*
X117242857Y-82588152D02*
X117290476Y-82683390D01*
X117290476Y-82683390D02*
X117338095Y-82731009D01*
X117338095Y-82731009D02*
X117433333Y-82778628D01*
X117433333Y-82778628D02*
X117814285Y-82778628D01*
X116861904Y-82350057D02*
X116814285Y-82302438D01*
X116814285Y-82302438D02*
X116719047Y-82254819D01*
X116719047Y-82254819D02*
X116480952Y-82254819D01*
X116480952Y-82254819D02*
X116385714Y-82302438D01*
X116385714Y-82302438D02*
X116338095Y-82350057D01*
X116338095Y-82350057D02*
X116290476Y-82445295D01*
X116290476Y-82445295D02*
X116290476Y-82540533D01*
X116290476Y-82540533D02*
X116338095Y-82683390D01*
X116338095Y-82683390D02*
X116909523Y-83254819D01*
X116909523Y-83254819D02*
X116290476Y-83254819D01*
X115814285Y-83254819D02*
X115623809Y-83254819D01*
X115623809Y-83254819D02*
X115528571Y-83207200D01*
X115528571Y-83207200D02*
X115480952Y-83159580D01*
X115480952Y-83159580D02*
X115385714Y-83016723D01*
X115385714Y-83016723D02*
X115338095Y-82826247D01*
X115338095Y-82826247D02*
X115338095Y-82445295D01*
X115338095Y-82445295D02*
X115385714Y-82350057D01*
X115385714Y-82350057D02*
X115433333Y-82302438D01*
X115433333Y-82302438D02*
X115528571Y-82254819D01*
X115528571Y-82254819D02*
X115719047Y-82254819D01*
X115719047Y-82254819D02*
X115814285Y-82302438D01*
X115814285Y-82302438D02*
X115861904Y-82350057D01*
X115861904Y-82350057D02*
X115909523Y-82445295D01*
X115909523Y-82445295D02*
X115909523Y-82683390D01*
X115909523Y-82683390D02*
X115861904Y-82778628D01*
X115861904Y-82778628D02*
X115814285Y-82826247D01*
X115814285Y-82826247D02*
X115719047Y-82873866D01*
X115719047Y-82873866D02*
X115528571Y-82873866D01*
X115528571Y-82873866D02*
X115433333Y-82826247D01*
X115433333Y-82826247D02*
X115385714Y-82778628D01*
X115385714Y-82778628D02*
X115338095Y-82683390D01*
D10*
X172138094Y-77481419D02*
X171566666Y-77481419D01*
X171852380Y-78481419D02*
X171852380Y-77481419D01*
X171233332Y-78481419D02*
X171233332Y-77481419D01*
X171233332Y-77481419D02*
X170852380Y-77481419D01*
X170852380Y-77481419D02*
X170757142Y-77529038D01*
X170757142Y-77529038D02*
X170709523Y-77576657D01*
X170709523Y-77576657D02*
X170661904Y-77671895D01*
X170661904Y-77671895D02*
X170661904Y-77814752D01*
X170661904Y-77814752D02*
X170709523Y-77909990D01*
X170709523Y-77909990D02*
X170757142Y-77957609D01*
X170757142Y-77957609D02*
X170852380Y-78005228D01*
X170852380Y-78005228D02*
X171233332Y-78005228D01*
X170280951Y-77576657D02*
X170233332Y-77529038D01*
X170233332Y-77529038D02*
X170138094Y-77481419D01*
X170138094Y-77481419D02*
X169899999Y-77481419D01*
X169899999Y-77481419D02*
X169804761Y-77529038D01*
X169804761Y-77529038D02*
X169757142Y-77576657D01*
X169757142Y-77576657D02*
X169709523Y-77671895D01*
X169709523Y-77671895D02*
X169709523Y-77767133D01*
X169709523Y-77767133D02*
X169757142Y-77909990D01*
X169757142Y-77909990D02*
X170328570Y-78481419D01*
X170328570Y-78481419D02*
X169709523Y-78481419D01*
X169090475Y-77481419D02*
X168995237Y-77481419D01*
X168995237Y-77481419D02*
X168899999Y-77529038D01*
X168899999Y-77529038D02*
X168852380Y-77576657D01*
X168852380Y-77576657D02*
X168804761Y-77671895D01*
X168804761Y-77671895D02*
X168757142Y-77862371D01*
X168757142Y-77862371D02*
X168757142Y-78100466D01*
X168757142Y-78100466D02*
X168804761Y-78290942D01*
X168804761Y-78290942D02*
X168852380Y-78386180D01*
X168852380Y-78386180D02*
X168899999Y-78433800D01*
X168899999Y-78433800D02*
X168995237Y-78481419D01*
X168995237Y-78481419D02*
X169090475Y-78481419D01*
X169090475Y-78481419D02*
X169185713Y-78433800D01*
X169185713Y-78433800D02*
X169233332Y-78386180D01*
X169233332Y-78386180D02*
X169280951Y-78290942D01*
X169280951Y-78290942D02*
X169328570Y-78100466D01*
X169328570Y-78100466D02*
X169328570Y-77862371D01*
X169328570Y-77862371D02*
X169280951Y-77671895D01*
X169280951Y-77671895D02*
X169233332Y-77576657D01*
X169233332Y-77576657D02*
X169185713Y-77529038D01*
X169185713Y-77529038D02*
X169090475Y-77481419D01*
D11*
X169359580Y-71494642D02*
X169407200Y-71447023D01*
X169407200Y-71447023D02*
X169454819Y-71304166D01*
X169454819Y-71304166D02*
X169454819Y-71208928D01*
X169454819Y-71208928D02*
X169407200Y-71066071D01*
X169407200Y-71066071D02*
X169311961Y-70970833D01*
X169311961Y-70970833D02*
X169216723Y-70923214D01*
X169216723Y-70923214D02*
X169026247Y-70875595D01*
X169026247Y-70875595D02*
X168883390Y-70875595D01*
X168883390Y-70875595D02*
X168692914Y-70923214D01*
X168692914Y-70923214D02*
X168597676Y-70970833D01*
X168597676Y-70970833D02*
X168502438Y-71066071D01*
X168502438Y-71066071D02*
X168454819Y-71208928D01*
X168454819Y-71208928D02*
X168454819Y-71304166D01*
X168454819Y-71304166D02*
X168502438Y-71447023D01*
X168502438Y-71447023D02*
X168550057Y-71494642D01*
X168550057Y-71875595D02*
X168502438Y-71923214D01*
X168502438Y-71923214D02*
X168454819Y-72018452D01*
X168454819Y-72018452D02*
X168454819Y-72256547D01*
X168454819Y-72256547D02*
X168502438Y-72351785D01*
X168502438Y-72351785D02*
X168550057Y-72399404D01*
X168550057Y-72399404D02*
X168645295Y-72447023D01*
X168645295Y-72447023D02*
X168740533Y-72447023D01*
X168740533Y-72447023D02*
X168883390Y-72399404D01*
X168883390Y-72399404D02*
X169454819Y-71827976D01*
X169454819Y-71827976D02*
X169454819Y-72447023D01*
X169454819Y-73399404D02*
X169454819Y-72827976D01*
X169454819Y-73113690D02*
X168454819Y-73113690D01*
X168454819Y-73113690D02*
X168597676Y-73018452D01*
X168597676Y-73018452D02*
X168692914Y-72923214D01*
X168692914Y-72923214D02*
X168740533Y-72827976D01*
X172109580Y-71494642D02*
X172157200Y-71447023D01*
X172157200Y-71447023D02*
X172204819Y-71304166D01*
X172204819Y-71304166D02*
X172204819Y-71208928D01*
X172204819Y-71208928D02*
X172157200Y-71066071D01*
X172157200Y-71066071D02*
X172061961Y-70970833D01*
X172061961Y-70970833D02*
X171966723Y-70923214D01*
X171966723Y-70923214D02*
X171776247Y-70875595D01*
X171776247Y-70875595D02*
X171633390Y-70875595D01*
X171633390Y-70875595D02*
X171442914Y-70923214D01*
X171442914Y-70923214D02*
X171347676Y-70970833D01*
X171347676Y-70970833D02*
X171252438Y-71066071D01*
X171252438Y-71066071D02*
X171204819Y-71208928D01*
X171204819Y-71208928D02*
X171204819Y-71304166D01*
X171204819Y-71304166D02*
X171252438Y-71447023D01*
X171252438Y-71447023D02*
X171300057Y-71494642D01*
X171538152Y-72351785D02*
X172204819Y-72351785D01*
X171157200Y-72113690D02*
X171871485Y-71875595D01*
X171871485Y-71875595D02*
X171871485Y-72494642D01*
X172204819Y-73399404D02*
X172204819Y-72827976D01*
X172204819Y-73113690D02*
X171204819Y-73113690D01*
X171204819Y-73113690D02*
X171347676Y-73018452D01*
X171347676Y-73018452D02*
X171442914Y-72923214D01*
X171442914Y-72923214D02*
X171490533Y-72827976D01*
X143789580Y-71494642D02*
X143837200Y-71447023D01*
X143837200Y-71447023D02*
X143884819Y-71304166D01*
X143884819Y-71304166D02*
X143884819Y-71208928D01*
X143884819Y-71208928D02*
X143837200Y-71066071D01*
X143837200Y-71066071D02*
X143741961Y-70970833D01*
X143741961Y-70970833D02*
X143646723Y-70923214D01*
X143646723Y-70923214D02*
X143456247Y-70875595D01*
X143456247Y-70875595D02*
X143313390Y-70875595D01*
X143313390Y-70875595D02*
X143122914Y-70923214D01*
X143122914Y-70923214D02*
X143027676Y-70970833D01*
X143027676Y-70970833D02*
X142932438Y-71066071D01*
X142932438Y-71066071D02*
X142884819Y-71208928D01*
X142884819Y-71208928D02*
X142884819Y-71304166D01*
X142884819Y-71304166D02*
X142932438Y-71447023D01*
X142932438Y-71447023D02*
X142980057Y-71494642D01*
X142884819Y-71827976D02*
X142884819Y-72447023D01*
X142884819Y-72447023D02*
X143265771Y-72113690D01*
X143265771Y-72113690D02*
X143265771Y-72256547D01*
X143265771Y-72256547D02*
X143313390Y-72351785D01*
X143313390Y-72351785D02*
X143361009Y-72399404D01*
X143361009Y-72399404D02*
X143456247Y-72447023D01*
X143456247Y-72447023D02*
X143694342Y-72447023D01*
X143694342Y-72447023D02*
X143789580Y-72399404D01*
X143789580Y-72399404D02*
X143837200Y-72351785D01*
X143837200Y-72351785D02*
X143884819Y-72256547D01*
X143884819Y-72256547D02*
X143884819Y-71970833D01*
X143884819Y-71970833D02*
X143837200Y-71875595D01*
X143837200Y-71875595D02*
X143789580Y-71827976D01*
X142884819Y-73351785D02*
X142884819Y-72875595D01*
X142884819Y-72875595D02*
X143361009Y-72827976D01*
X143361009Y-72827976D02*
X143313390Y-72875595D01*
X143313390Y-72875595D02*
X143265771Y-72970833D01*
X143265771Y-72970833D02*
X143265771Y-73208928D01*
X143265771Y-73208928D02*
X143313390Y-73304166D01*
X143313390Y-73304166D02*
X143361009Y-73351785D01*
X143361009Y-73351785D02*
X143456247Y-73399404D01*
X143456247Y-73399404D02*
X143694342Y-73399404D01*
X143694342Y-73399404D02*
X143789580Y-73351785D01*
X143789580Y-73351785D02*
X143837200Y-73304166D01*
X143837200Y-73304166D02*
X143884819Y-73208928D01*
X143884819Y-73208928D02*
X143884819Y-72970833D01*
X143884819Y-72970833D02*
X143837200Y-72875595D01*
X143837200Y-72875595D02*
X143789580Y-72827976D01*
X149554819Y-91457142D02*
X149078628Y-91123809D01*
X149554819Y-90885714D02*
X148554819Y-90885714D01*
X148554819Y-90885714D02*
X148554819Y-91266666D01*
X148554819Y-91266666D02*
X148602438Y-91361904D01*
X148602438Y-91361904D02*
X148650057Y-91409523D01*
X148650057Y-91409523D02*
X148745295Y-91457142D01*
X148745295Y-91457142D02*
X148888152Y-91457142D01*
X148888152Y-91457142D02*
X148983390Y-91409523D01*
X148983390Y-91409523D02*
X149031009Y-91361904D01*
X149031009Y-91361904D02*
X149078628Y-91266666D01*
X149078628Y-91266666D02*
X149078628Y-90885714D01*
X149554819Y-92409523D02*
X149554819Y-91838095D01*
X149554819Y-92123809D02*
X148554819Y-92123809D01*
X148554819Y-92123809D02*
X148697676Y-92028571D01*
X148697676Y-92028571D02*
X148792914Y-91933333D01*
X148792914Y-91933333D02*
X148840533Y-91838095D01*
X149554819Y-93361904D02*
X149554819Y-92790476D01*
X149554819Y-93076190D02*
X148554819Y-93076190D01*
X148554819Y-93076190D02*
X148697676Y-92980952D01*
X148697676Y-92980952D02*
X148792914Y-92885714D01*
X148792914Y-92885714D02*
X148840533Y-92790476D01*
D10*
X146738094Y-106757419D02*
X146166666Y-106757419D01*
X146452380Y-107757419D02*
X146452380Y-106757419D01*
X145833332Y-107757419D02*
X145833332Y-106757419D01*
X145833332Y-106757419D02*
X145452380Y-106757419D01*
X145452380Y-106757419D02*
X145357142Y-106805038D01*
X145357142Y-106805038D02*
X145309523Y-106852657D01*
X145309523Y-106852657D02*
X145261904Y-106947895D01*
X145261904Y-106947895D02*
X145261904Y-107090752D01*
X145261904Y-107090752D02*
X145309523Y-107185990D01*
X145309523Y-107185990D02*
X145357142Y-107233609D01*
X145357142Y-107233609D02*
X145452380Y-107281228D01*
X145452380Y-107281228D02*
X145833332Y-107281228D01*
X144309523Y-107757419D02*
X144880951Y-107757419D01*
X144595237Y-107757419D02*
X144595237Y-106757419D01*
X144595237Y-106757419D02*
X144690475Y-106900276D01*
X144690475Y-106900276D02*
X144785713Y-106995514D01*
X144785713Y-106995514D02*
X144880951Y-107043133D01*
X143690475Y-106757419D02*
X143595237Y-106757419D01*
X143595237Y-106757419D02*
X143499999Y-106805038D01*
X143499999Y-106805038D02*
X143452380Y-106852657D01*
X143452380Y-106852657D02*
X143404761Y-106947895D01*
X143404761Y-106947895D02*
X143357142Y-107138371D01*
X143357142Y-107138371D02*
X143357142Y-107376466D01*
X143357142Y-107376466D02*
X143404761Y-107566942D01*
X143404761Y-107566942D02*
X143452380Y-107662180D01*
X143452380Y-107662180D02*
X143499999Y-107709800D01*
X143499999Y-107709800D02*
X143595237Y-107757419D01*
X143595237Y-107757419D02*
X143690475Y-107757419D01*
X143690475Y-107757419D02*
X143785713Y-107709800D01*
X143785713Y-107709800D02*
X143833332Y-107662180D01*
X143833332Y-107662180D02*
X143880951Y-107566942D01*
X143880951Y-107566942D02*
X143928570Y-107376466D01*
X143928570Y-107376466D02*
X143928570Y-107138371D01*
X143928570Y-107138371D02*
X143880951Y-106947895D01*
X143880951Y-106947895D02*
X143833332Y-106852657D01*
X143833332Y-106852657D02*
X143785713Y-106805038D01*
X143785713Y-106805038D02*
X143690475Y-106757419D01*
D11*
X102554819Y-105157142D02*
X102078628Y-104823809D01*
X102554819Y-104585714D02*
X101554819Y-104585714D01*
X101554819Y-104585714D02*
X101554819Y-104966666D01*
X101554819Y-104966666D02*
X101602438Y-105061904D01*
X101602438Y-105061904D02*
X101650057Y-105109523D01*
X101650057Y-105109523D02*
X101745295Y-105157142D01*
X101745295Y-105157142D02*
X101888152Y-105157142D01*
X101888152Y-105157142D02*
X101983390Y-105109523D01*
X101983390Y-105109523D02*
X102031009Y-105061904D01*
X102031009Y-105061904D02*
X102078628Y-104966666D01*
X102078628Y-104966666D02*
X102078628Y-104585714D01*
X101650057Y-105538095D02*
X101602438Y-105585714D01*
X101602438Y-105585714D02*
X101554819Y-105680952D01*
X101554819Y-105680952D02*
X101554819Y-105919047D01*
X101554819Y-105919047D02*
X101602438Y-106014285D01*
X101602438Y-106014285D02*
X101650057Y-106061904D01*
X101650057Y-106061904D02*
X101745295Y-106109523D01*
X101745295Y-106109523D02*
X101840533Y-106109523D01*
X101840533Y-106109523D02*
X101983390Y-106061904D01*
X101983390Y-106061904D02*
X102554819Y-105490476D01*
X102554819Y-105490476D02*
X102554819Y-106109523D01*
X101554819Y-107014285D02*
X101554819Y-106538095D01*
X101554819Y-106538095D02*
X102031009Y-106490476D01*
X102031009Y-106490476D02*
X101983390Y-106538095D01*
X101983390Y-106538095D02*
X101935771Y-106633333D01*
X101935771Y-106633333D02*
X101935771Y-106871428D01*
X101935771Y-106871428D02*
X101983390Y-106966666D01*
X101983390Y-106966666D02*
X102031009Y-107014285D01*
X102031009Y-107014285D02*
X102126247Y-107061904D01*
X102126247Y-107061904D02*
X102364342Y-107061904D01*
X102364342Y-107061904D02*
X102459580Y-107014285D01*
X102459580Y-107014285D02*
X102507200Y-106966666D01*
X102507200Y-106966666D02*
X102554819Y-106871428D01*
X102554819Y-106871428D02*
X102554819Y-106633333D01*
X102554819Y-106633333D02*
X102507200Y-106538095D01*
X102507200Y-106538095D02*
X102459580Y-106490476D01*
X152442857Y-95554819D02*
X152776190Y-95078628D01*
X153014285Y-95554819D02*
X153014285Y-94554819D01*
X153014285Y-94554819D02*
X152633333Y-94554819D01*
X152633333Y-94554819D02*
X152538095Y-94602438D01*
X152538095Y-94602438D02*
X152490476Y-94650057D01*
X152490476Y-94650057D02*
X152442857Y-94745295D01*
X152442857Y-94745295D02*
X152442857Y-94888152D01*
X152442857Y-94888152D02*
X152490476Y-94983390D01*
X152490476Y-94983390D02*
X152538095Y-95031009D01*
X152538095Y-95031009D02*
X152633333Y-95078628D01*
X152633333Y-95078628D02*
X153014285Y-95078628D01*
X151490476Y-95554819D02*
X152061904Y-95554819D01*
X151776190Y-95554819D02*
X151776190Y-94554819D01*
X151776190Y-94554819D02*
X151871428Y-94697676D01*
X151871428Y-94697676D02*
X151966666Y-94792914D01*
X151966666Y-94792914D02*
X152061904Y-94840533D01*
X151157142Y-94554819D02*
X150538095Y-94554819D01*
X150538095Y-94554819D02*
X150871428Y-94935771D01*
X150871428Y-94935771D02*
X150728571Y-94935771D01*
X150728571Y-94935771D02*
X150633333Y-94983390D01*
X150633333Y-94983390D02*
X150585714Y-95031009D01*
X150585714Y-95031009D02*
X150538095Y-95126247D01*
X150538095Y-95126247D02*
X150538095Y-95364342D01*
X150538095Y-95364342D02*
X150585714Y-95459580D01*
X150585714Y-95459580D02*
X150633333Y-95507200D01*
X150633333Y-95507200D02*
X150728571Y-95554819D01*
X150728571Y-95554819D02*
X151014285Y-95554819D01*
X151014285Y-95554819D02*
X151109523Y-95507200D01*
X151109523Y-95507200D02*
X151157142Y-95459580D01*
X111642857Y-103169319D02*
X111976190Y-102693128D01*
X112214285Y-103169319D02*
X112214285Y-102169319D01*
X112214285Y-102169319D02*
X111833333Y-102169319D01*
X111833333Y-102169319D02*
X111738095Y-102216938D01*
X111738095Y-102216938D02*
X111690476Y-102264557D01*
X111690476Y-102264557D02*
X111642857Y-102359795D01*
X111642857Y-102359795D02*
X111642857Y-102502652D01*
X111642857Y-102502652D02*
X111690476Y-102597890D01*
X111690476Y-102597890D02*
X111738095Y-102645509D01*
X111738095Y-102645509D02*
X111833333Y-102693128D01*
X111833333Y-102693128D02*
X112214285Y-102693128D01*
X111309523Y-102169319D02*
X110690476Y-102169319D01*
X110690476Y-102169319D02*
X111023809Y-102550271D01*
X111023809Y-102550271D02*
X110880952Y-102550271D01*
X110880952Y-102550271D02*
X110785714Y-102597890D01*
X110785714Y-102597890D02*
X110738095Y-102645509D01*
X110738095Y-102645509D02*
X110690476Y-102740747D01*
X110690476Y-102740747D02*
X110690476Y-102978842D01*
X110690476Y-102978842D02*
X110738095Y-103074080D01*
X110738095Y-103074080D02*
X110785714Y-103121700D01*
X110785714Y-103121700D02*
X110880952Y-103169319D01*
X110880952Y-103169319D02*
X111166666Y-103169319D01*
X111166666Y-103169319D02*
X111261904Y-103121700D01*
X111261904Y-103121700D02*
X111309523Y-103074080D01*
X109833333Y-102502652D02*
X109833333Y-103169319D01*
X110071428Y-102121700D02*
X110309523Y-102835985D01*
X110309523Y-102835985D02*
X109690476Y-102835985D01*
X149550057Y-89204761D02*
X149502438Y-89109523D01*
X149502438Y-89109523D02*
X149407200Y-89014285D01*
X149407200Y-89014285D02*
X149264342Y-88871428D01*
X149264342Y-88871428D02*
X149216723Y-88776190D01*
X149216723Y-88776190D02*
X149216723Y-88680952D01*
X149454819Y-88728571D02*
X149407200Y-88633333D01*
X149407200Y-88633333D02*
X149311961Y-88538095D01*
X149311961Y-88538095D02*
X149121485Y-88490476D01*
X149121485Y-88490476D02*
X148788152Y-88490476D01*
X148788152Y-88490476D02*
X148597676Y-88538095D01*
X148597676Y-88538095D02*
X148502438Y-88633333D01*
X148502438Y-88633333D02*
X148454819Y-88728571D01*
X148454819Y-88728571D02*
X148454819Y-88919047D01*
X148454819Y-88919047D02*
X148502438Y-89014285D01*
X148502438Y-89014285D02*
X148597676Y-89109523D01*
X148597676Y-89109523D02*
X148788152Y-89157142D01*
X148788152Y-89157142D02*
X149121485Y-89157142D01*
X149121485Y-89157142D02*
X149311961Y-89109523D01*
X149311961Y-89109523D02*
X149407200Y-89014285D01*
X149407200Y-89014285D02*
X149454819Y-88919047D01*
X149454819Y-88919047D02*
X149454819Y-88728571D01*
X149454819Y-90109523D02*
X149454819Y-89538095D01*
X149454819Y-89823809D02*
X148454819Y-89823809D01*
X148454819Y-89823809D02*
X148597676Y-89728571D01*
X148597676Y-89728571D02*
X148692914Y-89633333D01*
X148692914Y-89633333D02*
X148740533Y-89538095D01*
X154654819Y-92457142D02*
X154178628Y-92123809D01*
X154654819Y-91885714D02*
X153654819Y-91885714D01*
X153654819Y-91885714D02*
X153654819Y-92266666D01*
X153654819Y-92266666D02*
X153702438Y-92361904D01*
X153702438Y-92361904D02*
X153750057Y-92409523D01*
X153750057Y-92409523D02*
X153845295Y-92457142D01*
X153845295Y-92457142D02*
X153988152Y-92457142D01*
X153988152Y-92457142D02*
X154083390Y-92409523D01*
X154083390Y-92409523D02*
X154131009Y-92361904D01*
X154131009Y-92361904D02*
X154178628Y-92266666D01*
X154178628Y-92266666D02*
X154178628Y-91885714D01*
X154654819Y-93409523D02*
X154654819Y-92838095D01*
X154654819Y-93123809D02*
X153654819Y-93123809D01*
X153654819Y-93123809D02*
X153797676Y-93028571D01*
X153797676Y-93028571D02*
X153892914Y-92933333D01*
X153892914Y-92933333D02*
X153940533Y-92838095D01*
X153988152Y-94266666D02*
X154654819Y-94266666D01*
X153607200Y-94028571D02*
X154321485Y-93790476D01*
X154321485Y-93790476D02*
X154321485Y-94409523D01*
D10*
X115461904Y-95257419D02*
X114890476Y-95257419D01*
X115176190Y-96257419D02*
X115176190Y-95257419D01*
X114557142Y-96257419D02*
X114557142Y-95257419D01*
X114557142Y-95257419D02*
X114176190Y-95257419D01*
X114176190Y-95257419D02*
X114080952Y-95305038D01*
X114080952Y-95305038D02*
X114033333Y-95352657D01*
X114033333Y-95352657D02*
X113985714Y-95447895D01*
X113985714Y-95447895D02*
X113985714Y-95590752D01*
X113985714Y-95590752D02*
X114033333Y-95685990D01*
X114033333Y-95685990D02*
X114080952Y-95733609D01*
X114080952Y-95733609D02*
X114176190Y-95781228D01*
X114176190Y-95781228D02*
X114557142Y-95781228D01*
X113080952Y-95257419D02*
X113557142Y-95257419D01*
X113557142Y-95257419D02*
X113604761Y-95733609D01*
X113604761Y-95733609D02*
X113557142Y-95685990D01*
X113557142Y-95685990D02*
X113461904Y-95638371D01*
X113461904Y-95638371D02*
X113223809Y-95638371D01*
X113223809Y-95638371D02*
X113128571Y-95685990D01*
X113128571Y-95685990D02*
X113080952Y-95733609D01*
X113080952Y-95733609D02*
X113033333Y-95828847D01*
X113033333Y-95828847D02*
X113033333Y-96066942D01*
X113033333Y-96066942D02*
X113080952Y-96162180D01*
X113080952Y-96162180D02*
X113128571Y-96209800D01*
X113128571Y-96209800D02*
X113223809Y-96257419D01*
X113223809Y-96257419D02*
X113461904Y-96257419D01*
X113461904Y-96257419D02*
X113557142Y-96209800D01*
X113557142Y-96209800D02*
X113604761Y-96162180D01*
D11*
X128538094Y-82054819D02*
X128538094Y-81054819D01*
X128538094Y-81054819D02*
X128299999Y-81054819D01*
X128299999Y-81054819D02*
X128157142Y-81102438D01*
X128157142Y-81102438D02*
X128061904Y-81197676D01*
X128061904Y-81197676D02*
X128014285Y-81292914D01*
X128014285Y-81292914D02*
X127966666Y-81483390D01*
X127966666Y-81483390D02*
X127966666Y-81626247D01*
X127966666Y-81626247D02*
X128014285Y-81816723D01*
X128014285Y-81816723D02*
X128061904Y-81911961D01*
X128061904Y-81911961D02*
X128157142Y-82007200D01*
X128157142Y-82007200D02*
X128299999Y-82054819D01*
X128299999Y-82054819D02*
X128538094Y-82054819D01*
X127585713Y-81150057D02*
X127538094Y-81102438D01*
X127538094Y-81102438D02*
X127442856Y-81054819D01*
X127442856Y-81054819D02*
X127204761Y-81054819D01*
X127204761Y-81054819D02*
X127109523Y-81102438D01*
X127109523Y-81102438D02*
X127061904Y-81150057D01*
X127061904Y-81150057D02*
X127014285Y-81245295D01*
X127014285Y-81245295D02*
X127014285Y-81340533D01*
X127014285Y-81340533D02*
X127061904Y-81483390D01*
X127061904Y-81483390D02*
X127633332Y-82054819D01*
X127633332Y-82054819D02*
X127014285Y-82054819D01*
X128459580Y-103457142D02*
X128507200Y-103409523D01*
X128507200Y-103409523D02*
X128554819Y-103266666D01*
X128554819Y-103266666D02*
X128554819Y-103171428D01*
X128554819Y-103171428D02*
X128507200Y-103028571D01*
X128507200Y-103028571D02*
X128411961Y-102933333D01*
X128411961Y-102933333D02*
X128316723Y-102885714D01*
X128316723Y-102885714D02*
X128126247Y-102838095D01*
X128126247Y-102838095D02*
X127983390Y-102838095D01*
X127983390Y-102838095D02*
X127792914Y-102885714D01*
X127792914Y-102885714D02*
X127697676Y-102933333D01*
X127697676Y-102933333D02*
X127602438Y-103028571D01*
X127602438Y-103028571D02*
X127554819Y-103171428D01*
X127554819Y-103171428D02*
X127554819Y-103266666D01*
X127554819Y-103266666D02*
X127602438Y-103409523D01*
X127602438Y-103409523D02*
X127650057Y-103457142D01*
X127554819Y-103790476D02*
X127554819Y-104409523D01*
X127554819Y-104409523D02*
X127935771Y-104076190D01*
X127935771Y-104076190D02*
X127935771Y-104219047D01*
X127935771Y-104219047D02*
X127983390Y-104314285D01*
X127983390Y-104314285D02*
X128031009Y-104361904D01*
X128031009Y-104361904D02*
X128126247Y-104409523D01*
X128126247Y-104409523D02*
X128364342Y-104409523D01*
X128364342Y-104409523D02*
X128459580Y-104361904D01*
X128459580Y-104361904D02*
X128507200Y-104314285D01*
X128507200Y-104314285D02*
X128554819Y-104219047D01*
X128554819Y-104219047D02*
X128554819Y-103933333D01*
X128554819Y-103933333D02*
X128507200Y-103838095D01*
X128507200Y-103838095D02*
X128459580Y-103790476D01*
X127650057Y-104790476D02*
X127602438Y-104838095D01*
X127602438Y-104838095D02*
X127554819Y-104933333D01*
X127554819Y-104933333D02*
X127554819Y-105171428D01*
X127554819Y-105171428D02*
X127602438Y-105266666D01*
X127602438Y-105266666D02*
X127650057Y-105314285D01*
X127650057Y-105314285D02*
X127745295Y-105361904D01*
X127745295Y-105361904D02*
X127840533Y-105361904D01*
X127840533Y-105361904D02*
X127983390Y-105314285D01*
X127983390Y-105314285D02*
X128554819Y-104742857D01*
X128554819Y-104742857D02*
X128554819Y-105361904D01*
X107454819Y-105157142D02*
X106978628Y-104823809D01*
X107454819Y-104585714D02*
X106454819Y-104585714D01*
X106454819Y-104585714D02*
X106454819Y-104966666D01*
X106454819Y-104966666D02*
X106502438Y-105061904D01*
X106502438Y-105061904D02*
X106550057Y-105109523D01*
X106550057Y-105109523D02*
X106645295Y-105157142D01*
X106645295Y-105157142D02*
X106788152Y-105157142D01*
X106788152Y-105157142D02*
X106883390Y-105109523D01*
X106883390Y-105109523D02*
X106931009Y-105061904D01*
X106931009Y-105061904D02*
X106978628Y-104966666D01*
X106978628Y-104966666D02*
X106978628Y-104585714D01*
X106454819Y-105490476D02*
X106454819Y-106109523D01*
X106454819Y-106109523D02*
X106835771Y-105776190D01*
X106835771Y-105776190D02*
X106835771Y-105919047D01*
X106835771Y-105919047D02*
X106883390Y-106014285D01*
X106883390Y-106014285D02*
X106931009Y-106061904D01*
X106931009Y-106061904D02*
X107026247Y-106109523D01*
X107026247Y-106109523D02*
X107264342Y-106109523D01*
X107264342Y-106109523D02*
X107359580Y-106061904D01*
X107359580Y-106061904D02*
X107407200Y-106014285D01*
X107407200Y-106014285D02*
X107454819Y-105919047D01*
X107454819Y-105919047D02*
X107454819Y-105633333D01*
X107454819Y-105633333D02*
X107407200Y-105538095D01*
X107407200Y-105538095D02*
X107359580Y-105490476D01*
X107454819Y-107061904D02*
X107454819Y-106490476D01*
X107454819Y-106776190D02*
X106454819Y-106776190D01*
X106454819Y-106776190D02*
X106597676Y-106680952D01*
X106597676Y-106680952D02*
X106692914Y-106585714D01*
X106692914Y-106585714D02*
X106740533Y-106490476D01*
X102039580Y-71494642D02*
X102087200Y-71447023D01*
X102087200Y-71447023D02*
X102134819Y-71304166D01*
X102134819Y-71304166D02*
X102134819Y-71208928D01*
X102134819Y-71208928D02*
X102087200Y-71066071D01*
X102087200Y-71066071D02*
X101991961Y-70970833D01*
X101991961Y-70970833D02*
X101896723Y-70923214D01*
X101896723Y-70923214D02*
X101706247Y-70875595D01*
X101706247Y-70875595D02*
X101563390Y-70875595D01*
X101563390Y-70875595D02*
X101372914Y-70923214D01*
X101372914Y-70923214D02*
X101277676Y-70970833D01*
X101277676Y-70970833D02*
X101182438Y-71066071D01*
X101182438Y-71066071D02*
X101134819Y-71208928D01*
X101134819Y-71208928D02*
X101134819Y-71304166D01*
X101134819Y-71304166D02*
X101182438Y-71447023D01*
X101182438Y-71447023D02*
X101230057Y-71494642D01*
X101230057Y-71875595D02*
X101182438Y-71923214D01*
X101182438Y-71923214D02*
X101134819Y-72018452D01*
X101134819Y-72018452D02*
X101134819Y-72256547D01*
X101134819Y-72256547D02*
X101182438Y-72351785D01*
X101182438Y-72351785D02*
X101230057Y-72399404D01*
X101230057Y-72399404D02*
X101325295Y-72447023D01*
X101325295Y-72447023D02*
X101420533Y-72447023D01*
X101420533Y-72447023D02*
X101563390Y-72399404D01*
X101563390Y-72399404D02*
X102134819Y-71827976D01*
X102134819Y-71827976D02*
X102134819Y-72447023D01*
X101134819Y-72780357D02*
X101134819Y-73447023D01*
X101134819Y-73447023D02*
X102134819Y-73018452D01*
D10*
X167038094Y-77481419D02*
X166466666Y-77481419D01*
X166752380Y-78481419D02*
X166752380Y-77481419D01*
X166133332Y-78481419D02*
X166133332Y-77481419D01*
X166133332Y-77481419D02*
X165752380Y-77481419D01*
X165752380Y-77481419D02*
X165657142Y-77529038D01*
X165657142Y-77529038D02*
X165609523Y-77576657D01*
X165609523Y-77576657D02*
X165561904Y-77671895D01*
X165561904Y-77671895D02*
X165561904Y-77814752D01*
X165561904Y-77814752D02*
X165609523Y-77909990D01*
X165609523Y-77909990D02*
X165657142Y-77957609D01*
X165657142Y-77957609D02*
X165752380Y-78005228D01*
X165752380Y-78005228D02*
X166133332Y-78005228D01*
X165180951Y-77576657D02*
X165133332Y-77529038D01*
X165133332Y-77529038D02*
X165038094Y-77481419D01*
X165038094Y-77481419D02*
X164799999Y-77481419D01*
X164799999Y-77481419D02*
X164704761Y-77529038D01*
X164704761Y-77529038D02*
X164657142Y-77576657D01*
X164657142Y-77576657D02*
X164609523Y-77671895D01*
X164609523Y-77671895D02*
X164609523Y-77767133D01*
X164609523Y-77767133D02*
X164657142Y-77909990D01*
X164657142Y-77909990D02*
X165228570Y-78481419D01*
X165228570Y-78481419D02*
X164609523Y-78481419D01*
X163657142Y-78481419D02*
X164228570Y-78481419D01*
X163942856Y-78481419D02*
X163942856Y-77481419D01*
X163942856Y-77481419D02*
X164038094Y-77624276D01*
X164038094Y-77624276D02*
X164133332Y-77719514D01*
X164133332Y-77719514D02*
X164228570Y-77767133D01*
D11*
X98465819Y-93928571D02*
X98465819Y-94119047D01*
X98465819Y-94119047D02*
X98513438Y-94214285D01*
X98513438Y-94214285D02*
X98608676Y-94309523D01*
X98608676Y-94309523D02*
X98799152Y-94357142D01*
X98799152Y-94357142D02*
X99132485Y-94357142D01*
X99132485Y-94357142D02*
X99322961Y-94309523D01*
X99322961Y-94309523D02*
X99418200Y-94214285D01*
X99418200Y-94214285D02*
X99465819Y-94119047D01*
X99465819Y-94119047D02*
X99465819Y-93928571D01*
X99465819Y-93928571D02*
X99418200Y-93833333D01*
X99418200Y-93833333D02*
X99322961Y-93738095D01*
X99322961Y-93738095D02*
X99132485Y-93690476D01*
X99132485Y-93690476D02*
X98799152Y-93690476D01*
X98799152Y-93690476D02*
X98608676Y-93738095D01*
X98608676Y-93738095D02*
X98513438Y-93833333D01*
X98513438Y-93833333D02*
X98465819Y-93928571D01*
X99370580Y-95357142D02*
X99418200Y-95309523D01*
X99418200Y-95309523D02*
X99465819Y-95166666D01*
X99465819Y-95166666D02*
X99465819Y-95071428D01*
X99465819Y-95071428D02*
X99418200Y-94928571D01*
X99418200Y-94928571D02*
X99322961Y-94833333D01*
X99322961Y-94833333D02*
X99227723Y-94785714D01*
X99227723Y-94785714D02*
X99037247Y-94738095D01*
X99037247Y-94738095D02*
X98894390Y-94738095D01*
X98894390Y-94738095D02*
X98703914Y-94785714D01*
X98703914Y-94785714D02*
X98608676Y-94833333D01*
X98608676Y-94833333D02*
X98513438Y-94928571D01*
X98513438Y-94928571D02*
X98465819Y-95071428D01*
X98465819Y-95071428D02*
X98465819Y-95166666D01*
X98465819Y-95166666D02*
X98513438Y-95309523D01*
X98513438Y-95309523D02*
X98561057Y-95357142D01*
X99465819Y-96309523D02*
X99465819Y-95738095D01*
X99465819Y-96023809D02*
X98465819Y-96023809D01*
X98465819Y-96023809D02*
X98608676Y-95928571D01*
X98608676Y-95928571D02*
X98703914Y-95833333D01*
X98703914Y-95833333D02*
X98751533Y-95738095D01*
X172954819Y-86757142D02*
X172478628Y-86423809D01*
X172954819Y-86185714D02*
X171954819Y-86185714D01*
X171954819Y-86185714D02*
X171954819Y-86566666D01*
X171954819Y-86566666D02*
X172002438Y-86661904D01*
X172002438Y-86661904D02*
X172050057Y-86709523D01*
X172050057Y-86709523D02*
X172145295Y-86757142D01*
X172145295Y-86757142D02*
X172288152Y-86757142D01*
X172288152Y-86757142D02*
X172383390Y-86709523D01*
X172383390Y-86709523D02*
X172431009Y-86661904D01*
X172431009Y-86661904D02*
X172478628Y-86566666D01*
X172478628Y-86566666D02*
X172478628Y-86185714D01*
X172288152Y-87614285D02*
X172954819Y-87614285D01*
X171907200Y-87376190D02*
X172621485Y-87138095D01*
X172621485Y-87138095D02*
X172621485Y-87757142D01*
X172954819Y-88661904D02*
X172954819Y-88090476D01*
X172954819Y-88376190D02*
X171954819Y-88376190D01*
X171954819Y-88376190D02*
X172097676Y-88280952D01*
X172097676Y-88280952D02*
X172192914Y-88185714D01*
X172192914Y-88185714D02*
X172240533Y-88090476D01*
X160740319Y-100857142D02*
X160264128Y-100523809D01*
X160740319Y-100285714D02*
X159740319Y-100285714D01*
X159740319Y-100285714D02*
X159740319Y-100666666D01*
X159740319Y-100666666D02*
X159787938Y-100761904D01*
X159787938Y-100761904D02*
X159835557Y-100809523D01*
X159835557Y-100809523D02*
X159930795Y-100857142D01*
X159930795Y-100857142D02*
X160073652Y-100857142D01*
X160073652Y-100857142D02*
X160168890Y-100809523D01*
X160168890Y-100809523D02*
X160216509Y-100761904D01*
X160216509Y-100761904D02*
X160264128Y-100666666D01*
X160264128Y-100666666D02*
X160264128Y-100285714D01*
X160073652Y-101714285D02*
X160740319Y-101714285D01*
X159692700Y-101476190D02*
X160406985Y-101238095D01*
X160406985Y-101238095D02*
X160406985Y-101857142D01*
X159740319Y-102714285D02*
X159740319Y-102238095D01*
X159740319Y-102238095D02*
X160216509Y-102190476D01*
X160216509Y-102190476D02*
X160168890Y-102238095D01*
X160168890Y-102238095D02*
X160121271Y-102333333D01*
X160121271Y-102333333D02*
X160121271Y-102571428D01*
X160121271Y-102571428D02*
X160168890Y-102666666D01*
X160168890Y-102666666D02*
X160216509Y-102714285D01*
X160216509Y-102714285D02*
X160311747Y-102761904D01*
X160311747Y-102761904D02*
X160549842Y-102761904D01*
X160549842Y-102761904D02*
X160645080Y-102714285D01*
X160645080Y-102714285D02*
X160692700Y-102666666D01*
X160692700Y-102666666D02*
X160740319Y-102571428D01*
X160740319Y-102571428D02*
X160740319Y-102333333D01*
X160740319Y-102333333D02*
X160692700Y-102238095D01*
X160692700Y-102238095D02*
X160645080Y-102190476D01*
D10*
X149761904Y-104357419D02*
X149190476Y-104357419D01*
X149476190Y-105357419D02*
X149476190Y-104357419D01*
X148857142Y-105357419D02*
X148857142Y-104357419D01*
X148857142Y-104357419D02*
X148476190Y-104357419D01*
X148476190Y-104357419D02*
X148380952Y-104405038D01*
X148380952Y-104405038D02*
X148333333Y-104452657D01*
X148333333Y-104452657D02*
X148285714Y-104547895D01*
X148285714Y-104547895D02*
X148285714Y-104690752D01*
X148285714Y-104690752D02*
X148333333Y-104785990D01*
X148333333Y-104785990D02*
X148380952Y-104833609D01*
X148380952Y-104833609D02*
X148476190Y-104881228D01*
X148476190Y-104881228D02*
X148857142Y-104881228D01*
X147809523Y-105357419D02*
X147619047Y-105357419D01*
X147619047Y-105357419D02*
X147523809Y-105309800D01*
X147523809Y-105309800D02*
X147476190Y-105262180D01*
X147476190Y-105262180D02*
X147380952Y-105119323D01*
X147380952Y-105119323D02*
X147333333Y-104928847D01*
X147333333Y-104928847D02*
X147333333Y-104547895D01*
X147333333Y-104547895D02*
X147380952Y-104452657D01*
X147380952Y-104452657D02*
X147428571Y-104405038D01*
X147428571Y-104405038D02*
X147523809Y-104357419D01*
X147523809Y-104357419D02*
X147714285Y-104357419D01*
X147714285Y-104357419D02*
X147809523Y-104405038D01*
X147809523Y-104405038D02*
X147857142Y-104452657D01*
X147857142Y-104452657D02*
X147904761Y-104547895D01*
X147904761Y-104547895D02*
X147904761Y-104785990D01*
X147904761Y-104785990D02*
X147857142Y-104881228D01*
X147857142Y-104881228D02*
X147809523Y-104928847D01*
X147809523Y-104928847D02*
X147714285Y-104976466D01*
X147714285Y-104976466D02*
X147523809Y-104976466D01*
X147523809Y-104976466D02*
X147428571Y-104928847D01*
X147428571Y-104928847D02*
X147380952Y-104881228D01*
X147380952Y-104881228D02*
X147333333Y-104785990D01*
D11*
X109842857Y-89554819D02*
X110176190Y-89078628D01*
X110414285Y-89554819D02*
X110414285Y-88554819D01*
X110414285Y-88554819D02*
X110033333Y-88554819D01*
X110033333Y-88554819D02*
X109938095Y-88602438D01*
X109938095Y-88602438D02*
X109890476Y-88650057D01*
X109890476Y-88650057D02*
X109842857Y-88745295D01*
X109842857Y-88745295D02*
X109842857Y-88888152D01*
X109842857Y-88888152D02*
X109890476Y-88983390D01*
X109890476Y-88983390D02*
X109938095Y-89031009D01*
X109938095Y-89031009D02*
X110033333Y-89078628D01*
X110033333Y-89078628D02*
X110414285Y-89078628D01*
X109461904Y-88650057D02*
X109414285Y-88602438D01*
X109414285Y-88602438D02*
X109319047Y-88554819D01*
X109319047Y-88554819D02*
X109080952Y-88554819D01*
X109080952Y-88554819D02*
X108985714Y-88602438D01*
X108985714Y-88602438D02*
X108938095Y-88650057D01*
X108938095Y-88650057D02*
X108890476Y-88745295D01*
X108890476Y-88745295D02*
X108890476Y-88840533D01*
X108890476Y-88840533D02*
X108938095Y-88983390D01*
X108938095Y-88983390D02*
X109509523Y-89554819D01*
X109509523Y-89554819D02*
X108890476Y-89554819D01*
X108557142Y-88554819D02*
X107890476Y-88554819D01*
X107890476Y-88554819D02*
X108319047Y-89554819D01*
X118604166Y-108804819D02*
X118937499Y-108328628D01*
X119175594Y-108804819D02*
X119175594Y-107804819D01*
X119175594Y-107804819D02*
X118794642Y-107804819D01*
X118794642Y-107804819D02*
X118699404Y-107852438D01*
X118699404Y-107852438D02*
X118651785Y-107900057D01*
X118651785Y-107900057D02*
X118604166Y-107995295D01*
X118604166Y-107995295D02*
X118604166Y-108138152D01*
X118604166Y-108138152D02*
X118651785Y-108233390D01*
X118651785Y-108233390D02*
X118699404Y-108281009D01*
X118699404Y-108281009D02*
X118794642Y-108328628D01*
X118794642Y-108328628D02*
X119175594Y-108328628D01*
X117747023Y-108138152D02*
X117747023Y-108804819D01*
X117985118Y-107757200D02*
X118223213Y-108471485D01*
X118223213Y-108471485D02*
X117604166Y-108471485D01*
X128039580Y-71494642D02*
X128087200Y-71447023D01*
X128087200Y-71447023D02*
X128134819Y-71304166D01*
X128134819Y-71304166D02*
X128134819Y-71208928D01*
X128134819Y-71208928D02*
X128087200Y-71066071D01*
X128087200Y-71066071D02*
X127991961Y-70970833D01*
X127991961Y-70970833D02*
X127896723Y-70923214D01*
X127896723Y-70923214D02*
X127706247Y-70875595D01*
X127706247Y-70875595D02*
X127563390Y-70875595D01*
X127563390Y-70875595D02*
X127372914Y-70923214D01*
X127372914Y-70923214D02*
X127277676Y-70970833D01*
X127277676Y-70970833D02*
X127182438Y-71066071D01*
X127182438Y-71066071D02*
X127134819Y-71208928D01*
X127134819Y-71208928D02*
X127134819Y-71304166D01*
X127134819Y-71304166D02*
X127182438Y-71447023D01*
X127182438Y-71447023D02*
X127230057Y-71494642D01*
X127134819Y-71827976D02*
X127134819Y-72447023D01*
X127134819Y-72447023D02*
X127515771Y-72113690D01*
X127515771Y-72113690D02*
X127515771Y-72256547D01*
X127515771Y-72256547D02*
X127563390Y-72351785D01*
X127563390Y-72351785D02*
X127611009Y-72399404D01*
X127611009Y-72399404D02*
X127706247Y-72447023D01*
X127706247Y-72447023D02*
X127944342Y-72447023D01*
X127944342Y-72447023D02*
X128039580Y-72399404D01*
X128039580Y-72399404D02*
X128087200Y-72351785D01*
X128087200Y-72351785D02*
X128134819Y-72256547D01*
X128134819Y-72256547D02*
X128134819Y-71970833D01*
X128134819Y-71970833D02*
X128087200Y-71875595D01*
X128087200Y-71875595D02*
X128039580Y-71827976D01*
X127468152Y-73304166D02*
X128134819Y-73304166D01*
X127087200Y-73066071D02*
X127801485Y-72827976D01*
X127801485Y-72827976D02*
X127801485Y-73447023D01*
D10*
X126657419Y-98361905D02*
X126657419Y-98933333D01*
X127657419Y-98647619D02*
X126657419Y-98647619D01*
X127657419Y-99266667D02*
X126657419Y-99266667D01*
X126657419Y-99266667D02*
X126657419Y-99647619D01*
X126657419Y-99647619D02*
X126705038Y-99742857D01*
X126705038Y-99742857D02*
X126752657Y-99790476D01*
X126752657Y-99790476D02*
X126847895Y-99838095D01*
X126847895Y-99838095D02*
X126990752Y-99838095D01*
X126990752Y-99838095D02*
X127085990Y-99790476D01*
X127085990Y-99790476D02*
X127133609Y-99742857D01*
X127133609Y-99742857D02*
X127181228Y-99647619D01*
X127181228Y-99647619D02*
X127181228Y-99266667D01*
X127657419Y-100790476D02*
X127657419Y-100219048D01*
X127657419Y-100504762D02*
X126657419Y-100504762D01*
X126657419Y-100504762D02*
X126800276Y-100409524D01*
X126800276Y-100409524D02*
X126895514Y-100314286D01*
X126895514Y-100314286D02*
X126943133Y-100219048D01*
X126990752Y-101647619D02*
X127657419Y-101647619D01*
X126609800Y-101409524D02*
X127324085Y-101171429D01*
X127324085Y-101171429D02*
X127324085Y-101790476D01*
D11*
X104661904Y-117254819D02*
X104661904Y-118064342D01*
X104661904Y-118064342D02*
X104614285Y-118159580D01*
X104614285Y-118159580D02*
X104566666Y-118207200D01*
X104566666Y-118207200D02*
X104471428Y-118254819D01*
X104471428Y-118254819D02*
X104280952Y-118254819D01*
X104280952Y-118254819D02*
X104185714Y-118207200D01*
X104185714Y-118207200D02*
X104138095Y-118159580D01*
X104138095Y-118159580D02*
X104090476Y-118064342D01*
X104090476Y-118064342D02*
X104090476Y-117254819D01*
X103090476Y-118254819D02*
X103661904Y-118254819D01*
X103376190Y-118254819D02*
X103376190Y-117254819D01*
X103376190Y-117254819D02*
X103471428Y-117397676D01*
X103471428Y-117397676D02*
X103566666Y-117492914D01*
X103566666Y-117492914D02*
X103661904Y-117540533D01*
X104954819Y-105157142D02*
X104478628Y-104823809D01*
X104954819Y-104585714D02*
X103954819Y-104585714D01*
X103954819Y-104585714D02*
X103954819Y-104966666D01*
X103954819Y-104966666D02*
X104002438Y-105061904D01*
X104002438Y-105061904D02*
X104050057Y-105109523D01*
X104050057Y-105109523D02*
X104145295Y-105157142D01*
X104145295Y-105157142D02*
X104288152Y-105157142D01*
X104288152Y-105157142D02*
X104383390Y-105109523D01*
X104383390Y-105109523D02*
X104431009Y-105061904D01*
X104431009Y-105061904D02*
X104478628Y-104966666D01*
X104478628Y-104966666D02*
X104478628Y-104585714D01*
X104050057Y-105538095D02*
X104002438Y-105585714D01*
X104002438Y-105585714D02*
X103954819Y-105680952D01*
X103954819Y-105680952D02*
X103954819Y-105919047D01*
X103954819Y-105919047D02*
X104002438Y-106014285D01*
X104002438Y-106014285D02*
X104050057Y-106061904D01*
X104050057Y-106061904D02*
X104145295Y-106109523D01*
X104145295Y-106109523D02*
X104240533Y-106109523D01*
X104240533Y-106109523D02*
X104383390Y-106061904D01*
X104383390Y-106061904D02*
X104954819Y-105490476D01*
X104954819Y-105490476D02*
X104954819Y-106109523D01*
X104383390Y-106680952D02*
X104335771Y-106585714D01*
X104335771Y-106585714D02*
X104288152Y-106538095D01*
X104288152Y-106538095D02*
X104192914Y-106490476D01*
X104192914Y-106490476D02*
X104145295Y-106490476D01*
X104145295Y-106490476D02*
X104050057Y-106538095D01*
X104050057Y-106538095D02*
X104002438Y-106585714D01*
X104002438Y-106585714D02*
X103954819Y-106680952D01*
X103954819Y-106680952D02*
X103954819Y-106871428D01*
X103954819Y-106871428D02*
X104002438Y-106966666D01*
X104002438Y-106966666D02*
X104050057Y-107014285D01*
X104050057Y-107014285D02*
X104145295Y-107061904D01*
X104145295Y-107061904D02*
X104192914Y-107061904D01*
X104192914Y-107061904D02*
X104288152Y-107014285D01*
X104288152Y-107014285D02*
X104335771Y-106966666D01*
X104335771Y-106966666D02*
X104383390Y-106871428D01*
X104383390Y-106871428D02*
X104383390Y-106680952D01*
X104383390Y-106680952D02*
X104431009Y-106585714D01*
X104431009Y-106585714D02*
X104478628Y-106538095D01*
X104478628Y-106538095D02*
X104573866Y-106490476D01*
X104573866Y-106490476D02*
X104764342Y-106490476D01*
X104764342Y-106490476D02*
X104859580Y-106538095D01*
X104859580Y-106538095D02*
X104907200Y-106585714D01*
X104907200Y-106585714D02*
X104954819Y-106680952D01*
X104954819Y-106680952D02*
X104954819Y-106871428D01*
X104954819Y-106871428D02*
X104907200Y-106966666D01*
X104907200Y-106966666D02*
X104859580Y-107014285D01*
X104859580Y-107014285D02*
X104764342Y-107061904D01*
X104764342Y-107061904D02*
X104573866Y-107061904D01*
X104573866Y-107061904D02*
X104478628Y-107014285D01*
X104478628Y-107014285D02*
X104431009Y-106966666D01*
X104431009Y-106966666D02*
X104383390Y-106871428D01*
D12*
%TO.C,C28*%
X116300002Y-97462500D02*
X116300001Y-100262500D01*
X114700001Y-100262500D02*
X114700000Y-97462500D01*
X116300001Y-97462501D02*
G75*
G03*
X114700001Y-97462501I-800000J-840223D01*
G01*
X114700000Y-100262499D02*
G75*
G03*
X116300000Y-100262499I800000J840223D01*
G01*
%TO.C,C30*%
X120962500Y-91699998D02*
X123762500Y-91699999D01*
X123762500Y-93299999D02*
X120962500Y-93300000D01*
X120962501Y-91699999D02*
G75*
G03*
X120962501Y-93299999I840223J-800000D01*
G01*
X123762499Y-93300000D02*
G75*
G03*
X123762499Y-91700000I-840223J800000D01*
G01*
%TO.C,R10*%
X148276000Y-94298500D02*
X144974000Y-94298500D01*
X148276000Y-92901500D02*
X148276000Y-94298500D01*
X144974000Y-94298500D02*
X144974000Y-92901500D01*
X144974000Y-92901500D02*
X148276000Y-92901500D01*
%TO.C,C26*%
X116600000Y-104699998D02*
X119400000Y-104699999D01*
X119400000Y-106299999D02*
X116600000Y-106300000D01*
X116600001Y-104699999D02*
G75*
G03*
X116600001Y-106299999I840223J-800000D01*
G01*
X119399999Y-106300000D02*
G75*
G03*
X119399999Y-104700000I-840223J800000D01*
G01*
%TO.C,C10*%
X143011000Y-116412500D02*
X147964000Y-116412500D01*
X143011000Y-119587500D02*
X143011000Y-116412500D01*
X145233500Y-118000000D02*
X144979500Y-118000000D01*
X145233500Y-118000000D02*
X145233500Y-117111000D01*
X145233500Y-118889000D02*
X145233500Y-118000000D01*
X145741500Y-118000000D02*
X145995500Y-118000000D01*
X145741500Y-118889000D02*
X145741500Y-117111000D01*
X147964000Y-116412500D02*
X147964000Y-119587500D01*
X147964000Y-119587500D02*
X143011000Y-119587500D01*
%TO.C,R32*%
X142976500Y-86643000D02*
X138023500Y-86643000D01*
X142976500Y-84357000D02*
X142976500Y-86643000D01*
X138023500Y-86643000D02*
X138023500Y-84357000D01*
X138023500Y-84357000D02*
X142976500Y-84357000D01*
%TO.C,C29*%
X115490000Y-72283767D02*
X115490000Y-71991233D01*
X116510000Y-72283767D02*
X116510000Y-71991233D01*
%TO.C,C33*%
X128490000Y-72283767D02*
X128490000Y-71991233D01*
X129510000Y-72283767D02*
X129510000Y-71991233D01*
%TO.C,U6*%
X139500000Y-97130000D02*
X140640000Y-97130000D01*
X140640000Y-92640000D02*
X140640000Y-92870000D01*
X140640000Y-97360000D02*
X140640000Y-97130000D01*
X140640000Y-97360000D02*
X143360000Y-97360000D01*
X143360000Y-92640000D02*
X140640000Y-92640000D01*
X143360000Y-93950000D02*
X143360000Y-92640000D01*
X143360000Y-97360000D02*
X143360000Y-96050000D01*
%TO.C,C1*%
X103480000Y-111452500D02*
X99670000Y-111452500D01*
X103480000Y-109611000D02*
X103480000Y-111452500D01*
X103480000Y-109547500D02*
X103480000Y-109611000D01*
X101702000Y-110500000D02*
X101765500Y-110500000D01*
X101702000Y-110182500D02*
X101702000Y-110817500D01*
X101448000Y-110817500D02*
X101448000Y-110182500D01*
X101448000Y-110500000D02*
X101384500Y-110500000D01*
X99670000Y-111452500D02*
X99670000Y-109547500D01*
X99670000Y-109547500D02*
X103480000Y-109547500D01*
%TO.C,C25*%
X102490000Y-72283767D02*
X102490000Y-71991233D01*
X103510000Y-72283767D02*
X103510000Y-71991233D01*
%TO.C,Q3*%
X154750000Y-91100000D02*
X154750000Y-87500000D01*
X158350000Y-91100000D02*
X154750000Y-91100000D01*
X154750000Y-87500000D02*
X158350000Y-87500000D01*
X158350000Y-87500000D02*
X158350000Y-91100000D01*
%TO.C,R30*%
X119164000Y-88343000D02*
X114211000Y-88343000D01*
X119164000Y-86057000D02*
X119164000Y-88343000D01*
X114211000Y-88343000D02*
X114211000Y-86057000D01*
X114211000Y-86057000D02*
X119164000Y-86057000D01*
%TO.C,C9*%
X123605000Y-117952500D02*
X119795000Y-117952500D01*
X123605000Y-116111000D02*
X123605000Y-117952500D01*
X123605000Y-116047500D02*
X123605000Y-116111000D01*
X121827000Y-117000000D02*
X121890500Y-117000000D01*
X121827000Y-116682500D02*
X121827000Y-117317500D01*
X121573000Y-117317500D02*
X121573000Y-116682500D01*
X121573000Y-117000000D02*
X121509500Y-117000000D01*
X119795000Y-117952500D02*
X119795000Y-116047500D01*
X119795000Y-116047500D02*
X123605000Y-116047500D01*
%TO.C,R24*%
X101289000Y-85643000D02*
X96336000Y-85643000D01*
X101289000Y-83357000D02*
X101289000Y-85643000D01*
X96336000Y-85643000D02*
X96336000Y-83357000D01*
X96336000Y-83357000D02*
X101289000Y-83357000D01*
%TO.C,R42*%
X168857000Y-85964000D02*
X168857000Y-81011000D01*
X171143000Y-85964000D02*
X168857000Y-85964000D01*
X168857000Y-81011000D02*
X171143000Y-81011000D01*
X171143000Y-81011000D02*
X171143000Y-85964000D01*
%TO.C,C36*%
X138740000Y-72283767D02*
X138740000Y-71991233D01*
X139760000Y-72283767D02*
X139760000Y-71991233D01*
%TO.C,R40*%
X166357000Y-85989000D02*
X166357000Y-81036000D01*
X168643000Y-85989000D02*
X166357000Y-85989000D01*
X166357000Y-81036000D02*
X168643000Y-81036000D01*
X168643000Y-81036000D02*
X168643000Y-85989000D01*
%TO.C,C13*%
X153212500Y-120600000D02*
X148812500Y-120600000D01*
X151266500Y-118800000D02*
X151520500Y-118800000D01*
X151266500Y-118800000D02*
X151266500Y-119689000D01*
X151266500Y-117911000D02*
X151266500Y-118800000D01*
X150758500Y-118800000D02*
X150504500Y-118800000D01*
X150758500Y-117911000D02*
X150758500Y-119689000D01*
X148812500Y-117200000D02*
X153212500Y-117200000D01*
X153212499Y-120600000D02*
G75*
G03*
X153212499Y-117200000I-2462359J1700000D01*
G01*
X148812501Y-117200001D02*
G75*
G03*
X148812501Y-120599999I2462357J-1699999D01*
G01*
%TO.C,C20*%
X164490000Y-72283767D02*
X164490000Y-71991233D01*
X165510000Y-72283767D02*
X165510000Y-71991233D01*
%TO.C,Q2*%
X149750000Y-91100000D02*
X149750000Y-87500000D01*
X153350000Y-91100000D02*
X149750000Y-91100000D01*
X149750000Y-87500000D02*
X153350000Y-87500000D01*
X153350000Y-87500000D02*
X153350000Y-91100000D01*
%TO.C,C16*%
X154490000Y-72283767D02*
X154490000Y-71991233D01*
X155510000Y-72283767D02*
X155510000Y-71991233D01*
%TO.C,R2*%
X107571078Y-111210000D02*
X107053922Y-111210000D01*
X107571078Y-109790000D02*
X107053922Y-109790000D01*
%TO.C,U8*%
X149362500Y-110560000D02*
X150162500Y-110560000D01*
X149362500Y-110560000D02*
X148562500Y-110560000D01*
X149362500Y-107440000D02*
X151162500Y-107440000D01*
X149362500Y-107440000D02*
X148562500Y-107440000D01*
%TO.C,R39*%
X163857000Y-85964000D02*
X163857000Y-81011000D01*
X166143000Y-85964000D02*
X163857000Y-85964000D01*
X163857000Y-81011000D02*
X166143000Y-81011000D01*
X166143000Y-81011000D02*
X166143000Y-85964000D01*
%TO.C,R33*%
X142964000Y-89643000D02*
X138011000Y-89643000D01*
X142964000Y-87357000D02*
X142964000Y-89643000D01*
X138011000Y-89643000D02*
X138011000Y-87357000D01*
X138011000Y-87357000D02*
X142964000Y-87357000D01*
%TO.C,R21*%
X158276000Y-94298500D02*
X154974000Y-94298500D01*
X158276000Y-92901500D02*
X158276000Y-94298500D01*
X154974000Y-94298500D02*
X154974000Y-92901500D01*
X154974000Y-92901500D02*
X158276000Y-92901500D01*
%TO.C,R23*%
X106464000Y-85643000D02*
X101511000Y-85643000D01*
X106464000Y-83357000D02*
X106464000Y-85643000D01*
X101511000Y-85643000D02*
X101511000Y-83357000D01*
X101511000Y-83357000D02*
X106464000Y-83357000D01*
%TO.C,C15*%
X149490000Y-72283767D02*
X149490000Y-71991233D01*
X150510000Y-72283767D02*
X150510000Y-71991233D01*
%TO.C,R22*%
X154974000Y-91301500D02*
X158276000Y-91301500D01*
X154974000Y-92698500D02*
X154974000Y-91301500D01*
X158276000Y-91301500D02*
X158276000Y-92698500D01*
X158276000Y-92698500D02*
X154974000Y-92698500D01*
%TO.C,D1*%
X136709293Y-85010000D02*
X134899293Y-85010000D01*
X136709293Y-84400000D02*
X136709293Y-85010000D01*
X133054293Y-85010000D02*
X131499293Y-85010000D01*
%TO.C,C40*%
X167240000Y-72283767D02*
X167240000Y-71991233D01*
X168260000Y-72283767D02*
X168260000Y-71991233D01*
%TO.C,C2*%
X114300000Y-117400000D02*
X118700000Y-117400000D01*
X116246000Y-119200000D02*
X115992000Y-119200000D01*
X116246000Y-119200000D02*
X116246000Y-118311000D01*
X116246000Y-120089000D02*
X116246000Y-119200000D01*
X116754000Y-119200000D02*
X117008000Y-119200000D01*
X116754000Y-120089000D02*
X116754000Y-118311000D01*
X118700000Y-120800000D02*
X114300000Y-120800000D01*
X114300001Y-117400000D02*
G75*
G03*
X114300001Y-120800000I2462359J-1700000D01*
G01*
X118699999Y-120799999D02*
G75*
G03*
X118699999Y-117400001I-2462357J1699999D01*
G01*
%TO.C,R44*%
X167952500Y-99658500D02*
X167952500Y-103341500D01*
X166047500Y-99658500D02*
X167952500Y-99658500D01*
X167952500Y-103341500D02*
X166047500Y-103341500D01*
X166047500Y-103341500D02*
X166047500Y-99658500D01*
%TO.C,C17*%
X159490000Y-72283767D02*
X159490000Y-71991233D01*
X160510000Y-72283767D02*
X160510000Y-71991233D01*
%TO.C,U7*%
X118200000Y-93827500D02*
X118200000Y-94667500D01*
X118200000Y-103407500D02*
X116510000Y-103407500D01*
X118200000Y-104247500D02*
X118200000Y-103407500D01*
X120960000Y-93827500D02*
X118200000Y-93827500D01*
X120960000Y-93827500D02*
X123720000Y-93827500D01*
X120960000Y-104247500D02*
X118200000Y-104247500D01*
X120960000Y-104247500D02*
X123720000Y-104247500D01*
X123720000Y-93827500D02*
X123720000Y-94667500D01*
X123720000Y-104247500D02*
X123720000Y-103407500D01*
%TO.C,C31*%
X112740000Y-72283767D02*
X112740000Y-71991233D01*
X113760000Y-72283767D02*
X113760000Y-71991233D01*
%TO.C,R26*%
X106723500Y-83457000D02*
X111676500Y-83457000D01*
X106723500Y-85743000D02*
X106723500Y-83457000D01*
X111676500Y-83457000D02*
X111676500Y-85743000D01*
X111676500Y-85743000D02*
X106723500Y-85743000D01*
%TO.C,C8*%
X111702500Y-116382500D02*
X111702500Y-120192500D01*
X109861000Y-116382500D02*
X111702500Y-116382500D01*
X109797500Y-116382500D02*
X109861000Y-116382500D01*
X110750000Y-118160500D02*
X110750000Y-118097000D01*
X110432500Y-118160500D02*
X111067500Y-118160500D01*
X111067500Y-118414500D02*
X110432500Y-118414500D01*
X110750000Y-118414500D02*
X110750000Y-118478000D01*
X111702500Y-120192500D02*
X109797500Y-120192500D01*
X109797500Y-120192500D02*
X109797500Y-116382500D01*
%TO.C,R29*%
X114211000Y-83457000D02*
X119164000Y-83457000D01*
X114211000Y-85743000D02*
X114211000Y-83457000D01*
X119164000Y-83457000D02*
X119164000Y-85743000D01*
X119164000Y-85743000D02*
X114211000Y-85743000D01*
%TO.C,C21*%
X169740000Y-72283767D02*
X169740000Y-71991233D01*
X170760000Y-72283767D02*
X170760000Y-71991233D01*
%TO.C,C41*%
X172490000Y-72283767D02*
X172490000Y-71991233D01*
X173510000Y-72283767D02*
X173510000Y-71991233D01*
%TO.C,C35*%
X141490000Y-72283767D02*
X141490000Y-71991233D01*
X142510000Y-72283767D02*
X142510000Y-71991233D01*
%TO.C,R11*%
X144974000Y-91301500D02*
X148276000Y-91301500D01*
X144974000Y-92698500D02*
X144974000Y-91301500D01*
X148276000Y-91301500D02*
X148276000Y-92698500D01*
X148276000Y-92698500D02*
X144974000Y-92698500D01*
%TO.C,R25*%
X102952500Y-100658500D02*
X102952500Y-104341500D01*
X101047500Y-100658500D02*
X102952500Y-100658500D01*
X102952500Y-104341500D02*
X101047500Y-104341500D01*
X101047500Y-104341500D02*
X101047500Y-100658500D01*
%TO.C,R13*%
X153276000Y-94298500D02*
X149974000Y-94298500D01*
X153276000Y-92901500D02*
X153276000Y-94298500D01*
X149974000Y-94298500D02*
X149974000Y-92901500D01*
X149974000Y-92901500D02*
X153276000Y-92901500D01*
%TO.C,R34*%
X109158500Y-100047500D02*
X112841500Y-100047500D01*
X109158500Y-101952500D02*
X109158500Y-100047500D01*
X112841500Y-100047500D02*
X112841500Y-101952500D01*
X112841500Y-101952500D02*
X109158500Y-101952500D01*
%TO.C,Q1*%
X144700000Y-91100000D02*
X144700000Y-87500000D01*
X148300000Y-91100000D02*
X144700000Y-91100000D01*
X144700000Y-87500000D02*
X148300000Y-87500000D01*
X148300000Y-87500000D02*
X148300000Y-91100000D01*
%TO.C,R14*%
X149974000Y-91301500D02*
X153276000Y-91301500D01*
X149974000Y-92698500D02*
X149974000Y-91301500D01*
X153276000Y-91301500D02*
X153276000Y-92698500D01*
X153276000Y-92698500D02*
X149974000Y-92698500D01*
%TO.C,D2*%
X130210000Y-85010000D02*
X128400000Y-85010000D01*
X130210000Y-84400000D02*
X130210000Y-85010000D01*
X126555000Y-85010000D02*
X125000000Y-85010000D01*
%TO.C,C32*%
X127300002Y-102600000D02*
X127300001Y-105400000D01*
X125700001Y-105400000D02*
X125700000Y-102600000D01*
X127300001Y-102600001D02*
G75*
G03*
X125700001Y-102600001I-800000J-840223D01*
G01*
X125700000Y-105399999D02*
G75*
G03*
X127300000Y-105399999I800000J840223D01*
G01*
%TO.C,R31*%
X107952500Y-100658500D02*
X107952500Y-104341500D01*
X106047500Y-100658500D02*
X107952500Y-100658500D01*
X107952500Y-104341500D02*
X106047500Y-104341500D01*
X106047500Y-104341500D02*
X106047500Y-100658500D01*
%TO.C,C27*%
X99740000Y-72283767D02*
X99740000Y-71991233D01*
X100760000Y-72283767D02*
X100760000Y-71991233D01*
%TO.C,OC1*%
X110750000Y-90400000D02*
X110750000Y-99600000D01*
X100350000Y-90400000D02*
X110750000Y-90400000D01*
X110750000Y-99600000D02*
X99750000Y-99600000D01*
X99750000Y-99600000D02*
X99750000Y-91000000D01*
D13*
X100013500Y-90600000D02*
G75*
G03*
X100013500Y-90600000I-63500J0D01*
G01*
D12*
%TO.C,R41*%
X173643000Y-81011000D02*
X173643000Y-85964000D01*
X171357000Y-81011000D02*
X173643000Y-81011000D01*
X173643000Y-85964000D02*
X171357000Y-85964000D01*
X171357000Y-85964000D02*
X171357000Y-81011000D01*
%TO.C,R45*%
X162952500Y-99658500D02*
X162952500Y-103341500D01*
X161047500Y-99658500D02*
X162952500Y-99658500D01*
X162952500Y-103341500D02*
X161047500Y-103341500D01*
X161047500Y-103341500D02*
X161047500Y-99658500D01*
%TO.C,R27*%
X111564000Y-88343000D02*
X106611000Y-88343000D01*
X111564000Y-86057000D02*
X111564000Y-88343000D01*
X106611000Y-88343000D02*
X106611000Y-86057000D01*
X106611000Y-86057000D02*
X111564000Y-86057000D01*
%TO.C,R4*%
X118696078Y-110710000D02*
X118178922Y-110710000D01*
X118696078Y-109290000D02*
X118178922Y-109290000D01*
%TO.C,C34*%
X125740000Y-72283767D02*
X125740000Y-71991233D01*
X126760000Y-72283767D02*
X126760000Y-71991233D01*
%TO.C,U1*%
X103000000Y-116925000D02*
X104950000Y-116925000D01*
X103000000Y-116925000D02*
X101050000Y-116925000D01*
X103000000Y-111805000D02*
X106450000Y-111805000D01*
X103000000Y-111805000D02*
X101050000Y-111805000D01*
%TO.C,R28*%
X105452500Y-100658500D02*
X105452500Y-104341500D01*
X103547500Y-100658500D02*
X105452500Y-100658500D01*
X105452500Y-104341500D02*
X103547500Y-104341500D01*
X103547500Y-104341500D02*
X103547500Y-100658500D01*
%TD*%
M02*
