%TF.GenerationSoftware,KiCad,Pcbnew,7.0.9*%
%TF.CreationDate,2024-06-20T13:45:24+03:00*%
%TF.ProjectId,_____ _______ _______ __________,1f3b3042-3020-4323-9d35-483d38452048,rev?*%
%TF.SameCoordinates,Original*%
%TF.FileFunction,Soldermask,Top*%
%TF.FilePolarity,Negative*%
%FSLAX46Y46*%
G04 Gerber Fmt 4.6, Leading zero omitted, Abs format (unit mm)*
G04 Created by KiCad (PCBNEW 7.0.9) date 2024-06-20 13:45:24*
%MOMM*%
%LPD*%
G01*
G04 APERTURE LIST*
G04 Aperture macros list*
%AMRoundRect*
0 Rectangle with rounded corners*
0 $1 Rounding radius*
0 $2 $3 $4 $5 $6 $7 $8 $9 X,Y pos of 4 corners*
0 Add a 4 corners polygon primitive as box body*
4,1,4,$2,$3,$4,$5,$6,$7,$8,$9,$2,$3,0*
0 Add four circle primitives for the rounded corners*
1,1,$1+$1,$2,$3*
1,1,$1+$1,$4,$5*
1,1,$1+$1,$6,$7*
1,1,$1+$1,$8,$9*
0 Add four rect primitives between the rounded corners*
20,1,$1+$1,$2,$3,$4,$5,0*
20,1,$1+$1,$4,$5,$6,$7,0*
20,1,$1+$1,$6,$7,$8,$9,0*
20,1,$1+$1,$8,$9,$2,$3,0*%
G04 Aperture macros list end*
%ADD10RoundRect,0.250000X0.450000X-0.350000X0.450000X0.350000X-0.450000X0.350000X-0.450000X-0.350000X0*%
%ADD11RoundRect,0.249999X-1.425001X0.512501X-1.425001X-0.512501X1.425001X-0.512501X1.425001X0.512501X0*%
%ADD12R,1.700000X1.700000*%
%ADD13O,1.700000X1.700000*%
%ADD14RoundRect,0.243750X0.243750X0.456250X-0.243750X0.456250X-0.243750X-0.456250X0.243750X-0.456250X0*%
%ADD15R,1.750000X2.250000*%
%ADD16O,1.750000X2.250000*%
%ADD17RoundRect,0.243750X0.456250X-0.243750X0.456250X0.243750X-0.456250X0.243750X-0.456250X-0.243750X0*%
%ADD18RoundRect,0.250000X-0.350000X-0.450000X0.350000X-0.450000X0.350000X0.450000X-0.350000X0.450000X0*%
%ADD19C,1.700000*%
%ADD20R,1.600000X1.600000*%
%ADD21C,1.600000*%
%ADD22C,3.200000*%
%ADD23RoundRect,0.250000X-0.450000X0.350000X-0.450000X-0.350000X0.450000X-0.350000X0.450000X0.350000X0*%
%ADD24RoundRect,0.243750X-0.456250X0.243750X-0.456250X-0.243750X0.456250X-0.243750X0.456250X0.243750X0*%
%ADD25C,1.000000*%
%ADD26RoundRect,0.243750X-0.243750X-0.456250X0.243750X-0.456250X0.243750X0.456250X-0.243750X0.456250X0*%
%ADD27RoundRect,0.250000X0.550000X2.600000X-0.550000X2.600000X-0.550000X-2.600000X0.550000X-2.600000X0*%
%ADD28RoundRect,0.237500X-0.300000X-0.237500X0.300000X-0.237500X0.300000X0.237500X-0.300000X0.237500X0*%
%ADD29RoundRect,0.237500X0.300000X0.237500X-0.300000X0.237500X-0.300000X-0.237500X0.300000X-0.237500X0*%
%ADD30RoundRect,0.250000X0.475000X-0.337500X0.475000X0.337500X-0.475000X0.337500X-0.475000X-0.337500X0*%
%ADD31RoundRect,0.150000X0.150000X-0.587500X0.150000X0.587500X-0.150000X0.587500X-0.150000X-0.587500X0*%
%ADD32C,1.524000*%
%ADD33RoundRect,0.075000X0.700000X0.075000X-0.700000X0.075000X-0.700000X-0.075000X0.700000X-0.075000X0*%
%ADD34RoundRect,0.075000X0.075000X0.700000X-0.075000X0.700000X-0.075000X-0.700000X0.075000X-0.700000X0*%
%ADD35RoundRect,0.250000X0.650000X-1.000000X0.650000X1.000000X-0.650000X1.000000X-0.650000X-1.000000X0*%
%ADD36RoundRect,0.250000X-1.000000X-0.650000X1.000000X-0.650000X1.000000X0.650000X-1.000000X0.650000X0*%
%ADD37R,1.780000X2.000000*%
%ADD38RoundRect,0.250000X-0.337500X-0.475000X0.337500X-0.475000X0.337500X0.475000X-0.337500X0.475000X0*%
%ADD39RoundRect,0.250000X-1.000000X-0.900000X1.000000X-0.900000X1.000000X0.900000X-1.000000X0.900000X0*%
%ADD40RoundRect,0.250000X-0.475000X0.337500X-0.475000X-0.337500X0.475000X-0.337500X0.475000X0.337500X0*%
%ADD41RoundRect,0.150000X0.150000X-0.825000X0.150000X0.825000X-0.150000X0.825000X-0.150000X-0.825000X0*%
%ADD42R,1.524000X7.000000*%
%ADD43RoundRect,0.250000X1.000000X0.650000X-1.000000X0.650000X-1.000000X-0.650000X1.000000X-0.650000X0*%
%ADD44RoundRect,0.250000X0.337500X0.475000X-0.337500X0.475000X-0.337500X-0.475000X0.337500X-0.475000X0*%
%ADD45RoundRect,0.237500X0.237500X-0.300000X0.237500X0.300000X-0.237500X0.300000X-0.237500X-0.300000X0*%
%ADD46RoundRect,0.250000X-0.730000X-1.325000X0.730000X-1.325000X0.730000X1.325000X-0.730000X1.325000X0*%
%ADD47RoundRect,0.250000X1.000000X0.900000X-1.000000X0.900000X-1.000000X-0.900000X1.000000X-0.900000X0*%
%ADD48RoundRect,0.150000X0.825000X0.150000X-0.825000X0.150000X-0.825000X-0.150000X0.825000X-0.150000X0*%
%ADD49RoundRect,0.250001X0.624999X-0.462499X0.624999X0.462499X-0.624999X0.462499X-0.624999X-0.462499X0*%
G04 APERTURE END LIST*
D10*
%TO.C,C4*%
X141100000Y-112452500D03*
X141100000Y-110452500D03*
%TD*%
D11*
%TO.C,R9*%
X146500000Y-84512500D03*
X146500000Y-90487500D03*
%TD*%
D12*
%TO.C,J7*%
X91250000Y-79000000D03*
D13*
X91250000Y-81540000D03*
X91250000Y-84080000D03*
%TD*%
D14*
%TO.C,R1*%
X104000000Y-112500000D03*
X102125000Y-112500000D03*
%TD*%
D15*
%TO.C,U5*%
X152120000Y-115000000D03*
D16*
X149580000Y-115000000D03*
X147040000Y-115000000D03*
X144500000Y-115000000D03*
%TD*%
D11*
%TO.C,R12*%
X151500000Y-84512500D03*
X151500000Y-90487500D03*
%TD*%
D17*
%TO.C,R17*%
X153000000Y-104875000D03*
X153000000Y-103000000D03*
%TD*%
D18*
%TO.C,C6*%
X139250000Y-108250000D03*
X141250000Y-108250000D03*
%TD*%
D19*
%TO.C,J3*%
X105620000Y-75000000D03*
X105620000Y-80080000D03*
X103080000Y-75000000D03*
X103080000Y-80080000D03*
X100540000Y-75000000D03*
X100540000Y-80080000D03*
X98000000Y-75000000D03*
X98000000Y-80080000D03*
%TD*%
D20*
%TO.C,C14*%
X164750000Y-111000000D03*
D21*
X167250000Y-111000000D03*
%TD*%
D22*
%TO.C,H2*%
X93000000Y-115000000D03*
%TD*%
D23*
%TO.C,C7*%
X139000000Y-114300000D03*
X139000000Y-116300000D03*
%TD*%
D18*
%TO.C,R38*%
X110500000Y-97900000D03*
X112500000Y-97900000D03*
%TD*%
D19*
%TO.C,J5*%
X131620000Y-75000000D03*
X131620000Y-80080000D03*
X129080000Y-75000000D03*
X129080000Y-80080000D03*
X126540000Y-75000000D03*
X126540000Y-80080000D03*
X124000000Y-75000000D03*
X124000000Y-80080000D03*
%TD*%
D24*
%TO.C,R19*%
X158000000Y-95000000D03*
X158000000Y-96875000D03*
%TD*%
D25*
%TO.C,TP15*%
X121600000Y-98600000D03*
%TD*%
D26*
%TO.C,R8*%
X106500000Y-114500000D03*
X108375000Y-114500000D03*
%TD*%
D10*
%TO.C,C3*%
X139047500Y-112452500D03*
X139047500Y-110452500D03*
%TD*%
D27*
%TO.C,L1*%
X161000000Y-112000000D03*
X156300000Y-112000000D03*
%TD*%
D17*
%TO.C,R15*%
X149000000Y-105437500D03*
X149000000Y-103562500D03*
%TD*%
D28*
%TO.C,C24*%
X141275000Y-96500000D03*
X143000000Y-96500000D03*
%TD*%
D25*
%TO.C,TP6*%
X119000000Y-98600000D03*
%TD*%
D29*
%TO.C,C37*%
X152000000Y-109000000D03*
X150275000Y-109000000D03*
%TD*%
D30*
%TO.C,C18*%
X147000000Y-105075000D03*
X147000000Y-103000000D03*
%TD*%
D31*
%TO.C,Q4*%
X134050000Y-86500000D03*
X135950000Y-86500000D03*
X135000000Y-84625000D03*
%TD*%
D23*
%TO.C,R46*%
X162000000Y-101500000D03*
X162000000Y-103500000D03*
%TD*%
D19*
%TO.C,J2*%
X172860000Y-74920000D03*
D32*
X172860000Y-80000000D03*
D19*
X170320000Y-74920000D03*
X170320000Y-80000000D03*
X167780000Y-74920000D03*
X167780000Y-80000000D03*
X165240000Y-74920000D03*
X165240000Y-80000000D03*
X162700000Y-74920000D03*
X162700000Y-80000000D03*
X160160000Y-74920000D03*
X160160000Y-80000000D03*
X157620000Y-74920000D03*
X157620000Y-80000000D03*
X155080000Y-74920000D03*
X155080000Y-80000000D03*
X152540000Y-74920000D03*
X152540000Y-80000000D03*
X150000000Y-74920000D03*
X150000000Y-80000000D03*
%TD*%
D33*
%TO.C,U3*%
X135675000Y-116500000D03*
X135675000Y-116000000D03*
X135675000Y-115500000D03*
X135675000Y-115000000D03*
X135675000Y-114500000D03*
X135675000Y-114000000D03*
X135675000Y-113500000D03*
X135675000Y-113000000D03*
X135675000Y-112500000D03*
X135675000Y-112000000D03*
X135675000Y-111500000D03*
X135675000Y-111000000D03*
X135675000Y-110500000D03*
X135675000Y-110000000D03*
X135675000Y-109500000D03*
X135675000Y-109000000D03*
D34*
X133750000Y-107075000D03*
X133250000Y-107075000D03*
X132750000Y-107075000D03*
X132250000Y-107075000D03*
X131750000Y-107075000D03*
X131250000Y-107075000D03*
X130750000Y-107075000D03*
X130250000Y-107075000D03*
X129750000Y-107075000D03*
X129250000Y-107075000D03*
X128750000Y-107075000D03*
X128250000Y-107075000D03*
X127750000Y-107075000D03*
X127250000Y-107075000D03*
X126750000Y-107075000D03*
X126250000Y-107075000D03*
D33*
X124325000Y-109000000D03*
X124325000Y-109500000D03*
X124325000Y-110000000D03*
X124325000Y-110500000D03*
X124325000Y-111000000D03*
X124325000Y-111500000D03*
X124325000Y-112000000D03*
X124325000Y-112500000D03*
X124325000Y-113000000D03*
X124325000Y-113500000D03*
X124325000Y-114000000D03*
X124325000Y-114500000D03*
X124325000Y-115000000D03*
X124325000Y-115500000D03*
X124325000Y-116000000D03*
X124325000Y-116500000D03*
D34*
X126250000Y-118425000D03*
X126750000Y-118425000D03*
X127250000Y-118425000D03*
X127750000Y-118425000D03*
X128250000Y-118425000D03*
X128750000Y-118425000D03*
X129250000Y-118425000D03*
X129750000Y-118425000D03*
X130250000Y-118425000D03*
X130750000Y-118425000D03*
X131250000Y-118425000D03*
X131750000Y-118425000D03*
X132250000Y-118425000D03*
X132750000Y-118425000D03*
X133250000Y-118425000D03*
X133750000Y-118425000D03*
%TD*%
D19*
%TO.C,J4*%
X118620000Y-75000000D03*
X118620000Y-80080000D03*
X116080000Y-75000000D03*
X116080000Y-80080000D03*
X113540000Y-75000000D03*
X113540000Y-80080000D03*
X111000000Y-75000000D03*
X111000000Y-80080000D03*
%TD*%
D25*
%TO.C,TP23*%
X136500000Y-107000000D03*
%TD*%
D18*
%TO.C,R37*%
X110500000Y-104200000D03*
X112500000Y-104200000D03*
%TD*%
D35*
%TO.C,D6*%
X139601036Y-88962588D03*
X139601036Y-84962588D03*
%TD*%
D36*
%TO.C,D5*%
X118000000Y-86000000D03*
X122000000Y-86000000D03*
%TD*%
D28*
%TO.C,C23*%
X140637500Y-93500000D03*
X142362500Y-93500000D03*
%TD*%
D37*
%TO.C,OC2*%
X169810000Y-89485000D03*
X167270000Y-89485000D03*
X164730000Y-89485000D03*
X162190000Y-89485000D03*
X162190000Y-99015000D03*
X164730000Y-99015000D03*
X167270000Y-99015000D03*
X169810000Y-99015000D03*
%TD*%
D23*
%TO.C,R43*%
X167000000Y-101500000D03*
X167000000Y-103500000D03*
%TD*%
D25*
%TO.C,TP12*%
X121400000Y-96800000D03*
%TD*%
D38*
%TO.C,C22*%
X120962500Y-105000000D03*
X123037500Y-105000000D03*
%TD*%
D31*
%TO.C,Q5*%
X127850000Y-86500000D03*
X129750000Y-86500000D03*
X128800000Y-84625000D03*
%TD*%
D28*
%TO.C,C38*%
X151500000Y-106500000D03*
X153225000Y-106500000D03*
%TD*%
D17*
%TO.C,R7*%
X126000000Y-86500000D03*
X126000000Y-84625000D03*
%TD*%
D25*
%TO.C,TP17*%
X140000000Y-91500000D03*
%TD*%
D39*
%TO.C,D8*%
X160400000Y-85600000D03*
X164700000Y-85600000D03*
%TD*%
D36*
%TO.C,D4*%
X109500000Y-86000000D03*
X113500000Y-86000000D03*
%TD*%
D11*
%TO.C,R20*%
X156500000Y-84512500D03*
X156500000Y-90487500D03*
%TD*%
D17*
%TO.C,R16*%
X151000000Y-104875000D03*
X151000000Y-103000000D03*
%TD*%
D25*
%TO.C,TP2*%
X120000000Y-101500000D03*
%TD*%
D17*
%TO.C,R18*%
X155000000Y-104875000D03*
X155000000Y-103000000D03*
%TD*%
D14*
%TO.C,R3*%
X102000000Y-116500000D03*
X100125000Y-116500000D03*
%TD*%
%TO.C,R6*%
X103937500Y-114500000D03*
X102062500Y-114500000D03*
%TD*%
D40*
%TO.C,C11*%
X161000000Y-116925000D03*
X161000000Y-119000000D03*
%TD*%
D25*
%TO.C,TP19*%
X160400000Y-103400000D03*
%TD*%
D41*
%TO.C,U4*%
X147055000Y-100475000D03*
X148325000Y-100475000D03*
X149595000Y-100475000D03*
X150865000Y-100475000D03*
X152135000Y-100475000D03*
X153405000Y-100475000D03*
X154675000Y-100475000D03*
X155945000Y-100475000D03*
X155945000Y-95525000D03*
X154675000Y-95525000D03*
X153405000Y-95525000D03*
X152135000Y-95525000D03*
X150865000Y-95525000D03*
X149595000Y-95525000D03*
X148325000Y-95525000D03*
X147055000Y-95525000D03*
%TD*%
D38*
%TO.C,C12*%
X155925000Y-117000000D03*
X158000000Y-117000000D03*
%TD*%
D12*
%TO.C,J8*%
X91250000Y-72250000D03*
D13*
X91250000Y-74790000D03*
%TD*%
D22*
%TO.C,H1*%
X93000000Y-95000000D03*
%TD*%
D42*
%TO.C,RS1*%
X101460000Y-126500000D03*
X104000000Y-126500000D03*
X106540000Y-126500000D03*
X109080000Y-126500000D03*
X111620000Y-126500000D03*
X111620000Y-126500000D03*
X109080000Y-126500000D03*
X106540000Y-126500000D03*
X104000000Y-126500000D03*
X101460000Y-126500000D03*
%TD*%
%TO.C,RS2*%
X160840000Y-126500000D03*
X163380000Y-126500000D03*
X165920000Y-126500000D03*
X168460000Y-126500000D03*
X171000000Y-126500000D03*
X171000000Y-126500000D03*
X168460000Y-126500000D03*
X165920000Y-126500000D03*
X163380000Y-126500000D03*
X160840000Y-126500000D03*
%TD*%
D43*
%TO.C,D3*%
X103500000Y-85500000D03*
X99500000Y-85500000D03*
%TD*%
D44*
%TO.C,C5*%
X102537500Y-110500000D03*
X100462500Y-110500000D03*
%TD*%
D12*
%TO.C,J1*%
X133000000Y-101540000D03*
D13*
X130460000Y-101540000D03*
X133000000Y-99000000D03*
X130460000Y-99000000D03*
X133000000Y-96460000D03*
X130460000Y-96460000D03*
%TD*%
D45*
%TO.C,C19*%
X145500000Y-95225000D03*
X145500000Y-93500000D03*
%TD*%
D18*
%TO.C,R36*%
X110500000Y-102100000D03*
X112500000Y-102100000D03*
%TD*%
D25*
%TO.C,TP4*%
X144500000Y-112500000D03*
%TD*%
D46*
%TO.C,F1*%
X163840000Y-118000000D03*
X168750000Y-118000000D03*
%TD*%
D47*
%TO.C,D7*%
X172250000Y-85600000D03*
X167950000Y-85600000D03*
%TD*%
D25*
%TO.C,TP18*%
X168600000Y-103500000D03*
%TD*%
D48*
%TO.C,U9*%
X118975000Y-118945000D03*
X118975000Y-117675000D03*
X118975000Y-116405000D03*
X118975000Y-115135000D03*
X118975000Y-113865000D03*
X118975000Y-112595000D03*
X118975000Y-111325000D03*
X118975000Y-110055000D03*
X114025000Y-110055000D03*
X114025000Y-111325000D03*
X114025000Y-112595000D03*
X114025000Y-113865000D03*
X114025000Y-115135000D03*
X114025000Y-116405000D03*
X114025000Y-117675000D03*
X114025000Y-118945000D03*
%TD*%
D18*
%TO.C,R35*%
X110500000Y-100000000D03*
X112500000Y-100000000D03*
%TD*%
D49*
%TO.C,R47*%
X143250000Y-90250000D03*
X143250000Y-87275000D03*
%TD*%
D24*
%TO.C,R5*%
X132199293Y-84625000D03*
X132199293Y-86500000D03*
%TD*%
D19*
%TO.C,J6*%
X144620000Y-75000000D03*
X144620000Y-80080000D03*
X142080000Y-75000000D03*
X142080000Y-80080000D03*
X139540000Y-75000000D03*
X139540000Y-80080000D03*
X137000000Y-75000000D03*
X137000000Y-80080000D03*
%TD*%
D40*
%TO.C,C39*%
X147000000Y-107000000D03*
X147000000Y-109075000D03*
%TD*%
M02*
