%TF.GenerationSoftware,KiCad,Pcbnew,7.0.9*%
%TF.CreationDate,2024-06-20T13:45:24+03:00*%
%TF.ProjectId,_____ _______ _______ __________,1f3b3042-3020-4323-9d35-483d38452048,rev?*%
%TF.SameCoordinates,Original*%
%TF.FileFunction,Legend,Top*%
%TF.FilePolarity,Positive*%
%FSLAX46Y46*%
G04 Gerber Fmt 4.6, Leading zero omitted, Abs format (unit mm)*
G04 Created by KiCad (PCBNEW 7.0.9) date 2024-06-20 13:45:24*
%MOMM*%
%LPD*%
G01*
G04 APERTURE LIST*
%ADD10C,0.150000*%
%ADD11C,0.100000*%
%ADD12C,0.120000*%
G04 APERTURE END LIST*
D10*
X143159580Y-111466666D02*
X143207200Y-111514285D01*
X143207200Y-111514285D02*
X143254819Y-111657142D01*
X143254819Y-111657142D02*
X143254819Y-111752380D01*
X143254819Y-111752380D02*
X143207200Y-111895237D01*
X143207200Y-111895237D02*
X143111961Y-111990475D01*
X143111961Y-111990475D02*
X143016723Y-112038094D01*
X143016723Y-112038094D02*
X142826247Y-112085713D01*
X142826247Y-112085713D02*
X142683390Y-112085713D01*
X142683390Y-112085713D02*
X142492914Y-112038094D01*
X142492914Y-112038094D02*
X142397676Y-111990475D01*
X142397676Y-111990475D02*
X142302438Y-111895237D01*
X142302438Y-111895237D02*
X142254819Y-111752380D01*
X142254819Y-111752380D02*
X142254819Y-111657142D01*
X142254819Y-111657142D02*
X142302438Y-111514285D01*
X142302438Y-111514285D02*
X142350057Y-111466666D01*
X142588152Y-110609523D02*
X143254819Y-110609523D01*
X142207200Y-110847618D02*
X142921485Y-111085713D01*
X142921485Y-111085713D02*
X142921485Y-110466666D01*
X147333333Y-92954819D02*
X147000000Y-92478628D01*
X146761905Y-92954819D02*
X146761905Y-91954819D01*
X146761905Y-91954819D02*
X147142857Y-91954819D01*
X147142857Y-91954819D02*
X147238095Y-92002438D01*
X147238095Y-92002438D02*
X147285714Y-92050057D01*
X147285714Y-92050057D02*
X147333333Y-92145295D01*
X147333333Y-92145295D02*
X147333333Y-92288152D01*
X147333333Y-92288152D02*
X147285714Y-92383390D01*
X147285714Y-92383390D02*
X147238095Y-92431009D01*
X147238095Y-92431009D02*
X147142857Y-92478628D01*
X147142857Y-92478628D02*
X146761905Y-92478628D01*
X147809524Y-92954819D02*
X148000000Y-92954819D01*
X148000000Y-92954819D02*
X148095238Y-92907200D01*
X148095238Y-92907200D02*
X148142857Y-92859580D01*
X148142857Y-92859580D02*
X148238095Y-92716723D01*
X148238095Y-92716723D02*
X148285714Y-92526247D01*
X148285714Y-92526247D02*
X148285714Y-92145295D01*
X148285714Y-92145295D02*
X148238095Y-92050057D01*
X148238095Y-92050057D02*
X148190476Y-92002438D01*
X148190476Y-92002438D02*
X148095238Y-91954819D01*
X148095238Y-91954819D02*
X147904762Y-91954819D01*
X147904762Y-91954819D02*
X147809524Y-92002438D01*
X147809524Y-92002438D02*
X147761905Y-92050057D01*
X147761905Y-92050057D02*
X147714286Y-92145295D01*
X147714286Y-92145295D02*
X147714286Y-92383390D01*
X147714286Y-92383390D02*
X147761905Y-92478628D01*
X147761905Y-92478628D02*
X147809524Y-92526247D01*
X147809524Y-92526247D02*
X147904762Y-92573866D01*
X147904762Y-92573866D02*
X148095238Y-92573866D01*
X148095238Y-92573866D02*
X148190476Y-92526247D01*
X148190476Y-92526247D02*
X148238095Y-92478628D01*
X148238095Y-92478628D02*
X148285714Y-92383390D01*
X90916666Y-86454819D02*
X90916666Y-87169104D01*
X90916666Y-87169104D02*
X90869047Y-87311961D01*
X90869047Y-87311961D02*
X90773809Y-87407200D01*
X90773809Y-87407200D02*
X90630952Y-87454819D01*
X90630952Y-87454819D02*
X90535714Y-87454819D01*
X91297619Y-86454819D02*
X91964285Y-86454819D01*
X91964285Y-86454819D02*
X91535714Y-87454819D01*
X100233333Y-113054819D02*
X99900000Y-112578628D01*
X99661905Y-113054819D02*
X99661905Y-112054819D01*
X99661905Y-112054819D02*
X100042857Y-112054819D01*
X100042857Y-112054819D02*
X100138095Y-112102438D01*
X100138095Y-112102438D02*
X100185714Y-112150057D01*
X100185714Y-112150057D02*
X100233333Y-112245295D01*
X100233333Y-112245295D02*
X100233333Y-112388152D01*
X100233333Y-112388152D02*
X100185714Y-112483390D01*
X100185714Y-112483390D02*
X100138095Y-112531009D01*
X100138095Y-112531009D02*
X100042857Y-112578628D01*
X100042857Y-112578628D02*
X99661905Y-112578628D01*
X101185714Y-113054819D02*
X100614286Y-113054819D01*
X100900000Y-113054819D02*
X100900000Y-112054819D01*
X100900000Y-112054819D02*
X100804762Y-112197676D01*
X100804762Y-112197676D02*
X100709524Y-112292914D01*
X100709524Y-112292914D02*
X100614286Y-112340533D01*
X149488095Y-112204819D02*
X149488095Y-113014342D01*
X149488095Y-113014342D02*
X149535714Y-113109580D01*
X149535714Y-113109580D02*
X149583333Y-113157200D01*
X149583333Y-113157200D02*
X149678571Y-113204819D01*
X149678571Y-113204819D02*
X149869047Y-113204819D01*
X149869047Y-113204819D02*
X149964285Y-113157200D01*
X149964285Y-113157200D02*
X150011904Y-113109580D01*
X150011904Y-113109580D02*
X150059523Y-113014342D01*
X150059523Y-113014342D02*
X150059523Y-112204819D01*
X151011904Y-112204819D02*
X150535714Y-112204819D01*
X150535714Y-112204819D02*
X150488095Y-112681009D01*
X150488095Y-112681009D02*
X150535714Y-112633390D01*
X150535714Y-112633390D02*
X150630952Y-112585771D01*
X150630952Y-112585771D02*
X150869047Y-112585771D01*
X150869047Y-112585771D02*
X150964285Y-112633390D01*
X150964285Y-112633390D02*
X151011904Y-112681009D01*
X151011904Y-112681009D02*
X151059523Y-112776247D01*
X151059523Y-112776247D02*
X151059523Y-113014342D01*
X151059523Y-113014342D02*
X151011904Y-113109580D01*
X151011904Y-113109580D02*
X150964285Y-113157200D01*
X150964285Y-113157200D02*
X150869047Y-113204819D01*
X150869047Y-113204819D02*
X150630952Y-113204819D01*
X150630952Y-113204819D02*
X150535714Y-113157200D01*
X150535714Y-113157200D02*
X150488095Y-113109580D01*
X150857142Y-92954819D02*
X150523809Y-92478628D01*
X150285714Y-92954819D02*
X150285714Y-91954819D01*
X150285714Y-91954819D02*
X150666666Y-91954819D01*
X150666666Y-91954819D02*
X150761904Y-92002438D01*
X150761904Y-92002438D02*
X150809523Y-92050057D01*
X150809523Y-92050057D02*
X150857142Y-92145295D01*
X150857142Y-92145295D02*
X150857142Y-92288152D01*
X150857142Y-92288152D02*
X150809523Y-92383390D01*
X150809523Y-92383390D02*
X150761904Y-92431009D01*
X150761904Y-92431009D02*
X150666666Y-92478628D01*
X150666666Y-92478628D02*
X150285714Y-92478628D01*
X151809523Y-92954819D02*
X151238095Y-92954819D01*
X151523809Y-92954819D02*
X151523809Y-91954819D01*
X151523809Y-91954819D02*
X151428571Y-92097676D01*
X151428571Y-92097676D02*
X151333333Y-92192914D01*
X151333333Y-92192914D02*
X151238095Y-92240533D01*
X152190476Y-92050057D02*
X152238095Y-92002438D01*
X152238095Y-92002438D02*
X152333333Y-91954819D01*
X152333333Y-91954819D02*
X152571428Y-91954819D01*
X152571428Y-91954819D02*
X152666666Y-92002438D01*
X152666666Y-92002438D02*
X152714285Y-92050057D01*
X152714285Y-92050057D02*
X152761904Y-92145295D01*
X152761904Y-92145295D02*
X152761904Y-92240533D01*
X152761904Y-92240533D02*
X152714285Y-92383390D01*
X152714285Y-92383390D02*
X152142857Y-92954819D01*
X152142857Y-92954819D02*
X152761904Y-92954819D01*
X158154819Y-104642857D02*
X157678628Y-104976190D01*
X158154819Y-105214285D02*
X157154819Y-105214285D01*
X157154819Y-105214285D02*
X157154819Y-104833333D01*
X157154819Y-104833333D02*
X157202438Y-104738095D01*
X157202438Y-104738095D02*
X157250057Y-104690476D01*
X157250057Y-104690476D02*
X157345295Y-104642857D01*
X157345295Y-104642857D02*
X157488152Y-104642857D01*
X157488152Y-104642857D02*
X157583390Y-104690476D01*
X157583390Y-104690476D02*
X157631009Y-104738095D01*
X157631009Y-104738095D02*
X157678628Y-104833333D01*
X157678628Y-104833333D02*
X157678628Y-105214285D01*
X158154819Y-103690476D02*
X158154819Y-104261904D01*
X158154819Y-103976190D02*
X157154819Y-103976190D01*
X157154819Y-103976190D02*
X157297676Y-104071428D01*
X157297676Y-104071428D02*
X157392914Y-104166666D01*
X157392914Y-104166666D02*
X157440533Y-104261904D01*
X157154819Y-103357142D02*
X157154819Y-102690476D01*
X157154819Y-102690476D02*
X158154819Y-103119047D01*
X140083333Y-106895080D02*
X140035714Y-106942700D01*
X140035714Y-106942700D02*
X139892857Y-106990319D01*
X139892857Y-106990319D02*
X139797619Y-106990319D01*
X139797619Y-106990319D02*
X139654762Y-106942700D01*
X139654762Y-106942700D02*
X139559524Y-106847461D01*
X139559524Y-106847461D02*
X139511905Y-106752223D01*
X139511905Y-106752223D02*
X139464286Y-106561747D01*
X139464286Y-106561747D02*
X139464286Y-106418890D01*
X139464286Y-106418890D02*
X139511905Y-106228414D01*
X139511905Y-106228414D02*
X139559524Y-106133176D01*
X139559524Y-106133176D02*
X139654762Y-106037938D01*
X139654762Y-106037938D02*
X139797619Y-105990319D01*
X139797619Y-105990319D02*
X139892857Y-105990319D01*
X139892857Y-105990319D02*
X140035714Y-106037938D01*
X140035714Y-106037938D02*
X140083333Y-106085557D01*
X140940476Y-105990319D02*
X140750000Y-105990319D01*
X140750000Y-105990319D02*
X140654762Y-106037938D01*
X140654762Y-106037938D02*
X140607143Y-106085557D01*
X140607143Y-106085557D02*
X140511905Y-106228414D01*
X140511905Y-106228414D02*
X140464286Y-106418890D01*
X140464286Y-106418890D02*
X140464286Y-106799842D01*
X140464286Y-106799842D02*
X140511905Y-106895080D01*
X140511905Y-106895080D02*
X140559524Y-106942700D01*
X140559524Y-106942700D02*
X140654762Y-106990319D01*
X140654762Y-106990319D02*
X140845238Y-106990319D01*
X140845238Y-106990319D02*
X140940476Y-106942700D01*
X140940476Y-106942700D02*
X140988095Y-106895080D01*
X140988095Y-106895080D02*
X141035714Y-106799842D01*
X141035714Y-106799842D02*
X141035714Y-106561747D01*
X141035714Y-106561747D02*
X140988095Y-106466509D01*
X140988095Y-106466509D02*
X140940476Y-106418890D01*
X140940476Y-106418890D02*
X140845238Y-106371271D01*
X140845238Y-106371271D02*
X140654762Y-106371271D01*
X140654762Y-106371271D02*
X140559524Y-106418890D01*
X140559524Y-106418890D02*
X140511905Y-106466509D01*
X140511905Y-106466509D02*
X140464286Y-106561747D01*
X165357142Y-106959580D02*
X165309523Y-107007200D01*
X165309523Y-107007200D02*
X165166666Y-107054819D01*
X165166666Y-107054819D02*
X165071428Y-107054819D01*
X165071428Y-107054819D02*
X164928571Y-107007200D01*
X164928571Y-107007200D02*
X164833333Y-106911961D01*
X164833333Y-106911961D02*
X164785714Y-106816723D01*
X164785714Y-106816723D02*
X164738095Y-106626247D01*
X164738095Y-106626247D02*
X164738095Y-106483390D01*
X164738095Y-106483390D02*
X164785714Y-106292914D01*
X164785714Y-106292914D02*
X164833333Y-106197676D01*
X164833333Y-106197676D02*
X164928571Y-106102438D01*
X164928571Y-106102438D02*
X165071428Y-106054819D01*
X165071428Y-106054819D02*
X165166666Y-106054819D01*
X165166666Y-106054819D02*
X165309523Y-106102438D01*
X165309523Y-106102438D02*
X165357142Y-106150057D01*
X166309523Y-107054819D02*
X165738095Y-107054819D01*
X166023809Y-107054819D02*
X166023809Y-106054819D01*
X166023809Y-106054819D02*
X165928571Y-106197676D01*
X165928571Y-106197676D02*
X165833333Y-106292914D01*
X165833333Y-106292914D02*
X165738095Y-106340533D01*
X167166666Y-106388152D02*
X167166666Y-107054819D01*
X166928571Y-106007200D02*
X166690476Y-106721485D01*
X166690476Y-106721485D02*
X167309523Y-106721485D01*
X141074080Y-115466666D02*
X141121700Y-115514285D01*
X141121700Y-115514285D02*
X141169319Y-115657142D01*
X141169319Y-115657142D02*
X141169319Y-115752380D01*
X141169319Y-115752380D02*
X141121700Y-115895237D01*
X141121700Y-115895237D02*
X141026461Y-115990475D01*
X141026461Y-115990475D02*
X140931223Y-116038094D01*
X140931223Y-116038094D02*
X140740747Y-116085713D01*
X140740747Y-116085713D02*
X140597890Y-116085713D01*
X140597890Y-116085713D02*
X140407414Y-116038094D01*
X140407414Y-116038094D02*
X140312176Y-115990475D01*
X140312176Y-115990475D02*
X140216938Y-115895237D01*
X140216938Y-115895237D02*
X140169319Y-115752380D01*
X140169319Y-115752380D02*
X140169319Y-115657142D01*
X140169319Y-115657142D02*
X140216938Y-115514285D01*
X140216938Y-115514285D02*
X140264557Y-115466666D01*
X140169319Y-115133332D02*
X140169319Y-114466666D01*
X140169319Y-114466666D02*
X141169319Y-114895237D01*
X110857142Y-96640319D02*
X110523809Y-96164128D01*
X110285714Y-96640319D02*
X110285714Y-95640319D01*
X110285714Y-95640319D02*
X110666666Y-95640319D01*
X110666666Y-95640319D02*
X110761904Y-95687938D01*
X110761904Y-95687938D02*
X110809523Y-95735557D01*
X110809523Y-95735557D02*
X110857142Y-95830795D01*
X110857142Y-95830795D02*
X110857142Y-95973652D01*
X110857142Y-95973652D02*
X110809523Y-96068890D01*
X110809523Y-96068890D02*
X110761904Y-96116509D01*
X110761904Y-96116509D02*
X110666666Y-96164128D01*
X110666666Y-96164128D02*
X110285714Y-96164128D01*
X111190476Y-95640319D02*
X111809523Y-95640319D01*
X111809523Y-95640319D02*
X111476190Y-96021271D01*
X111476190Y-96021271D02*
X111619047Y-96021271D01*
X111619047Y-96021271D02*
X111714285Y-96068890D01*
X111714285Y-96068890D02*
X111761904Y-96116509D01*
X111761904Y-96116509D02*
X111809523Y-96211747D01*
X111809523Y-96211747D02*
X111809523Y-96449842D01*
X111809523Y-96449842D02*
X111761904Y-96545080D01*
X111761904Y-96545080D02*
X111714285Y-96592700D01*
X111714285Y-96592700D02*
X111619047Y-96640319D01*
X111619047Y-96640319D02*
X111333333Y-96640319D01*
X111333333Y-96640319D02*
X111238095Y-96592700D01*
X111238095Y-96592700D02*
X111190476Y-96545080D01*
X112380952Y-96068890D02*
X112285714Y-96021271D01*
X112285714Y-96021271D02*
X112238095Y-95973652D01*
X112238095Y-95973652D02*
X112190476Y-95878414D01*
X112190476Y-95878414D02*
X112190476Y-95830795D01*
X112190476Y-95830795D02*
X112238095Y-95735557D01*
X112238095Y-95735557D02*
X112285714Y-95687938D01*
X112285714Y-95687938D02*
X112380952Y-95640319D01*
X112380952Y-95640319D02*
X112571428Y-95640319D01*
X112571428Y-95640319D02*
X112666666Y-95687938D01*
X112666666Y-95687938D02*
X112714285Y-95735557D01*
X112714285Y-95735557D02*
X112761904Y-95830795D01*
X112761904Y-95830795D02*
X112761904Y-95878414D01*
X112761904Y-95878414D02*
X112714285Y-95973652D01*
X112714285Y-95973652D02*
X112666666Y-96021271D01*
X112666666Y-96021271D02*
X112571428Y-96068890D01*
X112571428Y-96068890D02*
X112380952Y-96068890D01*
X112380952Y-96068890D02*
X112285714Y-96116509D01*
X112285714Y-96116509D02*
X112238095Y-96164128D01*
X112238095Y-96164128D02*
X112190476Y-96259366D01*
X112190476Y-96259366D02*
X112190476Y-96449842D01*
X112190476Y-96449842D02*
X112238095Y-96545080D01*
X112238095Y-96545080D02*
X112285714Y-96592700D01*
X112285714Y-96592700D02*
X112380952Y-96640319D01*
X112380952Y-96640319D02*
X112571428Y-96640319D01*
X112571428Y-96640319D02*
X112666666Y-96592700D01*
X112666666Y-96592700D02*
X112714285Y-96545080D01*
X112714285Y-96545080D02*
X112761904Y-96449842D01*
X112761904Y-96449842D02*
X112761904Y-96259366D01*
X112761904Y-96259366D02*
X112714285Y-96164128D01*
X112714285Y-96164128D02*
X112666666Y-96116509D01*
X112666666Y-96116509D02*
X112571428Y-96068890D01*
X160054819Y-97642857D02*
X159578628Y-97976190D01*
X160054819Y-98214285D02*
X159054819Y-98214285D01*
X159054819Y-98214285D02*
X159054819Y-97833333D01*
X159054819Y-97833333D02*
X159102438Y-97738095D01*
X159102438Y-97738095D02*
X159150057Y-97690476D01*
X159150057Y-97690476D02*
X159245295Y-97642857D01*
X159245295Y-97642857D02*
X159388152Y-97642857D01*
X159388152Y-97642857D02*
X159483390Y-97690476D01*
X159483390Y-97690476D02*
X159531009Y-97738095D01*
X159531009Y-97738095D02*
X159578628Y-97833333D01*
X159578628Y-97833333D02*
X159578628Y-98214285D01*
X160054819Y-96690476D02*
X160054819Y-97261904D01*
X160054819Y-96976190D02*
X159054819Y-96976190D01*
X159054819Y-96976190D02*
X159197676Y-97071428D01*
X159197676Y-97071428D02*
X159292914Y-97166666D01*
X159292914Y-97166666D02*
X159340533Y-97261904D01*
X160054819Y-96214285D02*
X160054819Y-96023809D01*
X160054819Y-96023809D02*
X160007200Y-95928571D01*
X160007200Y-95928571D02*
X159959580Y-95880952D01*
X159959580Y-95880952D02*
X159816723Y-95785714D01*
X159816723Y-95785714D02*
X159626247Y-95738095D01*
X159626247Y-95738095D02*
X159245295Y-95738095D01*
X159245295Y-95738095D02*
X159150057Y-95785714D01*
X159150057Y-95785714D02*
X159102438Y-95833333D01*
X159102438Y-95833333D02*
X159054819Y-95928571D01*
X159054819Y-95928571D02*
X159054819Y-96119047D01*
X159054819Y-96119047D02*
X159102438Y-96214285D01*
X159102438Y-96214285D02*
X159150057Y-96261904D01*
X159150057Y-96261904D02*
X159245295Y-96309523D01*
X159245295Y-96309523D02*
X159483390Y-96309523D01*
X159483390Y-96309523D02*
X159578628Y-96261904D01*
X159578628Y-96261904D02*
X159626247Y-96214285D01*
X159626247Y-96214285D02*
X159673866Y-96119047D01*
X159673866Y-96119047D02*
X159673866Y-95928571D01*
X159673866Y-95928571D02*
X159626247Y-95833333D01*
X159626247Y-95833333D02*
X159578628Y-95785714D01*
X159578628Y-95785714D02*
X159483390Y-95738095D01*
D11*
X119861905Y-99257419D02*
X120433333Y-99257419D01*
X120147619Y-100257419D02*
X120147619Y-99257419D01*
X120766667Y-100257419D02*
X120766667Y-99257419D01*
X120766667Y-99257419D02*
X121147619Y-99257419D01*
X121147619Y-99257419D02*
X121242857Y-99305038D01*
X121242857Y-99305038D02*
X121290476Y-99352657D01*
X121290476Y-99352657D02*
X121338095Y-99447895D01*
X121338095Y-99447895D02*
X121338095Y-99590752D01*
X121338095Y-99590752D02*
X121290476Y-99685990D01*
X121290476Y-99685990D02*
X121242857Y-99733609D01*
X121242857Y-99733609D02*
X121147619Y-99781228D01*
X121147619Y-99781228D02*
X120766667Y-99781228D01*
X122290476Y-100257419D02*
X121719048Y-100257419D01*
X122004762Y-100257419D02*
X122004762Y-99257419D01*
X122004762Y-99257419D02*
X121909524Y-99400276D01*
X121909524Y-99400276D02*
X121814286Y-99495514D01*
X121814286Y-99495514D02*
X121719048Y-99543133D01*
X123195238Y-99257419D02*
X122719048Y-99257419D01*
X122719048Y-99257419D02*
X122671429Y-99733609D01*
X122671429Y-99733609D02*
X122719048Y-99685990D01*
X122719048Y-99685990D02*
X122814286Y-99638371D01*
X122814286Y-99638371D02*
X123052381Y-99638371D01*
X123052381Y-99638371D02*
X123147619Y-99685990D01*
X123147619Y-99685990D02*
X123195238Y-99733609D01*
X123195238Y-99733609D02*
X123242857Y-99828847D01*
X123242857Y-99828847D02*
X123242857Y-100066942D01*
X123242857Y-100066942D02*
X123195238Y-100162180D01*
X123195238Y-100162180D02*
X123147619Y-100209800D01*
X123147619Y-100209800D02*
X123052381Y-100257419D01*
X123052381Y-100257419D02*
X122814286Y-100257419D01*
X122814286Y-100257419D02*
X122719048Y-100209800D01*
X122719048Y-100209800D02*
X122671429Y-100162180D01*
D10*
X107733333Y-113304819D02*
X107400000Y-112828628D01*
X107161905Y-113304819D02*
X107161905Y-112304819D01*
X107161905Y-112304819D02*
X107542857Y-112304819D01*
X107542857Y-112304819D02*
X107638095Y-112352438D01*
X107638095Y-112352438D02*
X107685714Y-112400057D01*
X107685714Y-112400057D02*
X107733333Y-112495295D01*
X107733333Y-112495295D02*
X107733333Y-112638152D01*
X107733333Y-112638152D02*
X107685714Y-112733390D01*
X107685714Y-112733390D02*
X107638095Y-112781009D01*
X107638095Y-112781009D02*
X107542857Y-112828628D01*
X107542857Y-112828628D02*
X107161905Y-112828628D01*
X108304762Y-112733390D02*
X108209524Y-112685771D01*
X108209524Y-112685771D02*
X108161905Y-112638152D01*
X108161905Y-112638152D02*
X108114286Y-112542914D01*
X108114286Y-112542914D02*
X108114286Y-112495295D01*
X108114286Y-112495295D02*
X108161905Y-112400057D01*
X108161905Y-112400057D02*
X108209524Y-112352438D01*
X108209524Y-112352438D02*
X108304762Y-112304819D01*
X108304762Y-112304819D02*
X108495238Y-112304819D01*
X108495238Y-112304819D02*
X108590476Y-112352438D01*
X108590476Y-112352438D02*
X108638095Y-112400057D01*
X108638095Y-112400057D02*
X108685714Y-112495295D01*
X108685714Y-112495295D02*
X108685714Y-112542914D01*
X108685714Y-112542914D02*
X108638095Y-112638152D01*
X108638095Y-112638152D02*
X108590476Y-112685771D01*
X108590476Y-112685771D02*
X108495238Y-112733390D01*
X108495238Y-112733390D02*
X108304762Y-112733390D01*
X108304762Y-112733390D02*
X108209524Y-112781009D01*
X108209524Y-112781009D02*
X108161905Y-112828628D01*
X108161905Y-112828628D02*
X108114286Y-112923866D01*
X108114286Y-112923866D02*
X108114286Y-113114342D01*
X108114286Y-113114342D02*
X108161905Y-113209580D01*
X108161905Y-113209580D02*
X108209524Y-113257200D01*
X108209524Y-113257200D02*
X108304762Y-113304819D01*
X108304762Y-113304819D02*
X108495238Y-113304819D01*
X108495238Y-113304819D02*
X108590476Y-113257200D01*
X108590476Y-113257200D02*
X108638095Y-113209580D01*
X108638095Y-113209580D02*
X108685714Y-113114342D01*
X108685714Y-113114342D02*
X108685714Y-112923866D01*
X108685714Y-112923866D02*
X108638095Y-112828628D01*
X108638095Y-112828628D02*
X108590476Y-112781009D01*
X108590476Y-112781009D02*
X108495238Y-112733390D01*
X137759580Y-111619166D02*
X137807200Y-111666785D01*
X137807200Y-111666785D02*
X137854819Y-111809642D01*
X137854819Y-111809642D02*
X137854819Y-111904880D01*
X137854819Y-111904880D02*
X137807200Y-112047737D01*
X137807200Y-112047737D02*
X137711961Y-112142975D01*
X137711961Y-112142975D02*
X137616723Y-112190594D01*
X137616723Y-112190594D02*
X137426247Y-112238213D01*
X137426247Y-112238213D02*
X137283390Y-112238213D01*
X137283390Y-112238213D02*
X137092914Y-112190594D01*
X137092914Y-112190594D02*
X136997676Y-112142975D01*
X136997676Y-112142975D02*
X136902438Y-112047737D01*
X136902438Y-112047737D02*
X136854819Y-111904880D01*
X136854819Y-111904880D02*
X136854819Y-111809642D01*
X136854819Y-111809642D02*
X136902438Y-111666785D01*
X136902438Y-111666785D02*
X136950057Y-111619166D01*
X136854819Y-111285832D02*
X136854819Y-110666785D01*
X136854819Y-110666785D02*
X137235771Y-111000118D01*
X137235771Y-111000118D02*
X137235771Y-110857261D01*
X137235771Y-110857261D02*
X137283390Y-110762023D01*
X137283390Y-110762023D02*
X137331009Y-110714404D01*
X137331009Y-110714404D02*
X137426247Y-110666785D01*
X137426247Y-110666785D02*
X137664342Y-110666785D01*
X137664342Y-110666785D02*
X137759580Y-110714404D01*
X137759580Y-110714404D02*
X137807200Y-110762023D01*
X137807200Y-110762023D02*
X137854819Y-110857261D01*
X137854819Y-110857261D02*
X137854819Y-111142975D01*
X137854819Y-111142975D02*
X137807200Y-111238213D01*
X137807200Y-111238213D02*
X137759580Y-111285832D01*
X158483333Y-108154819D02*
X158007143Y-108154819D01*
X158007143Y-108154819D02*
X158007143Y-107154819D01*
X159340476Y-108154819D02*
X158769048Y-108154819D01*
X159054762Y-108154819D02*
X159054762Y-107154819D01*
X159054762Y-107154819D02*
X158959524Y-107297676D01*
X158959524Y-107297676D02*
X158864286Y-107392914D01*
X158864286Y-107392914D02*
X158769048Y-107440533D01*
X149254819Y-108142857D02*
X148778628Y-108476190D01*
X149254819Y-108714285D02*
X148254819Y-108714285D01*
X148254819Y-108714285D02*
X148254819Y-108333333D01*
X148254819Y-108333333D02*
X148302438Y-108238095D01*
X148302438Y-108238095D02*
X148350057Y-108190476D01*
X148350057Y-108190476D02*
X148445295Y-108142857D01*
X148445295Y-108142857D02*
X148588152Y-108142857D01*
X148588152Y-108142857D02*
X148683390Y-108190476D01*
X148683390Y-108190476D02*
X148731009Y-108238095D01*
X148731009Y-108238095D02*
X148778628Y-108333333D01*
X148778628Y-108333333D02*
X148778628Y-108714285D01*
X149254819Y-107190476D02*
X149254819Y-107761904D01*
X149254819Y-107476190D02*
X148254819Y-107476190D01*
X148254819Y-107476190D02*
X148397676Y-107571428D01*
X148397676Y-107571428D02*
X148492914Y-107666666D01*
X148492914Y-107666666D02*
X148540533Y-107761904D01*
X148254819Y-106285714D02*
X148254819Y-106761904D01*
X148254819Y-106761904D02*
X148731009Y-106809523D01*
X148731009Y-106809523D02*
X148683390Y-106761904D01*
X148683390Y-106761904D02*
X148635771Y-106666666D01*
X148635771Y-106666666D02*
X148635771Y-106428571D01*
X148635771Y-106428571D02*
X148683390Y-106333333D01*
X148683390Y-106333333D02*
X148731009Y-106285714D01*
X148731009Y-106285714D02*
X148826247Y-106238095D01*
X148826247Y-106238095D02*
X149064342Y-106238095D01*
X149064342Y-106238095D02*
X149159580Y-106285714D01*
X149159580Y-106285714D02*
X149207200Y-106333333D01*
X149207200Y-106333333D02*
X149254819Y-106428571D01*
X149254819Y-106428571D02*
X149254819Y-106666666D01*
X149254819Y-106666666D02*
X149207200Y-106761904D01*
X149207200Y-106761904D02*
X149159580Y-106809523D01*
X141357142Y-98559580D02*
X141309523Y-98607200D01*
X141309523Y-98607200D02*
X141166666Y-98654819D01*
X141166666Y-98654819D02*
X141071428Y-98654819D01*
X141071428Y-98654819D02*
X140928571Y-98607200D01*
X140928571Y-98607200D02*
X140833333Y-98511961D01*
X140833333Y-98511961D02*
X140785714Y-98416723D01*
X140785714Y-98416723D02*
X140738095Y-98226247D01*
X140738095Y-98226247D02*
X140738095Y-98083390D01*
X140738095Y-98083390D02*
X140785714Y-97892914D01*
X140785714Y-97892914D02*
X140833333Y-97797676D01*
X140833333Y-97797676D02*
X140928571Y-97702438D01*
X140928571Y-97702438D02*
X141071428Y-97654819D01*
X141071428Y-97654819D02*
X141166666Y-97654819D01*
X141166666Y-97654819D02*
X141309523Y-97702438D01*
X141309523Y-97702438D02*
X141357142Y-97750057D01*
X141738095Y-97750057D02*
X141785714Y-97702438D01*
X141785714Y-97702438D02*
X141880952Y-97654819D01*
X141880952Y-97654819D02*
X142119047Y-97654819D01*
X142119047Y-97654819D02*
X142214285Y-97702438D01*
X142214285Y-97702438D02*
X142261904Y-97750057D01*
X142261904Y-97750057D02*
X142309523Y-97845295D01*
X142309523Y-97845295D02*
X142309523Y-97940533D01*
X142309523Y-97940533D02*
X142261904Y-98083390D01*
X142261904Y-98083390D02*
X141690476Y-98654819D01*
X141690476Y-98654819D02*
X142309523Y-98654819D01*
X143166666Y-97988152D02*
X143166666Y-98654819D01*
X142928571Y-97607200D02*
X142690476Y-98321485D01*
X142690476Y-98321485D02*
X143309523Y-98321485D01*
D11*
X117738095Y-96957419D02*
X118309523Y-96957419D01*
X118023809Y-97957419D02*
X118023809Y-96957419D01*
X118642857Y-97957419D02*
X118642857Y-96957419D01*
X118642857Y-96957419D02*
X119023809Y-96957419D01*
X119023809Y-96957419D02*
X119119047Y-97005038D01*
X119119047Y-97005038D02*
X119166666Y-97052657D01*
X119166666Y-97052657D02*
X119214285Y-97147895D01*
X119214285Y-97147895D02*
X119214285Y-97290752D01*
X119214285Y-97290752D02*
X119166666Y-97385990D01*
X119166666Y-97385990D02*
X119119047Y-97433609D01*
X119119047Y-97433609D02*
X119023809Y-97481228D01*
X119023809Y-97481228D02*
X118642857Y-97481228D01*
X120071428Y-96957419D02*
X119880952Y-96957419D01*
X119880952Y-96957419D02*
X119785714Y-97005038D01*
X119785714Y-97005038D02*
X119738095Y-97052657D01*
X119738095Y-97052657D02*
X119642857Y-97195514D01*
X119642857Y-97195514D02*
X119595238Y-97385990D01*
X119595238Y-97385990D02*
X119595238Y-97766942D01*
X119595238Y-97766942D02*
X119642857Y-97862180D01*
X119642857Y-97862180D02*
X119690476Y-97909800D01*
X119690476Y-97909800D02*
X119785714Y-97957419D01*
X119785714Y-97957419D02*
X119976190Y-97957419D01*
X119976190Y-97957419D02*
X120071428Y-97909800D01*
X120071428Y-97909800D02*
X120119047Y-97862180D01*
X120119047Y-97862180D02*
X120166666Y-97766942D01*
X120166666Y-97766942D02*
X120166666Y-97528847D01*
X120166666Y-97528847D02*
X120119047Y-97433609D01*
X120119047Y-97433609D02*
X120071428Y-97385990D01*
X120071428Y-97385990D02*
X119976190Y-97338371D01*
X119976190Y-97338371D02*
X119785714Y-97338371D01*
X119785714Y-97338371D02*
X119690476Y-97385990D01*
X119690476Y-97385990D02*
X119642857Y-97433609D01*
X119642857Y-97433609D02*
X119595238Y-97528847D01*
D10*
X149607142Y-110859580D02*
X149559523Y-110907200D01*
X149559523Y-110907200D02*
X149416666Y-110954819D01*
X149416666Y-110954819D02*
X149321428Y-110954819D01*
X149321428Y-110954819D02*
X149178571Y-110907200D01*
X149178571Y-110907200D02*
X149083333Y-110811961D01*
X149083333Y-110811961D02*
X149035714Y-110716723D01*
X149035714Y-110716723D02*
X148988095Y-110526247D01*
X148988095Y-110526247D02*
X148988095Y-110383390D01*
X148988095Y-110383390D02*
X149035714Y-110192914D01*
X149035714Y-110192914D02*
X149083333Y-110097676D01*
X149083333Y-110097676D02*
X149178571Y-110002438D01*
X149178571Y-110002438D02*
X149321428Y-109954819D01*
X149321428Y-109954819D02*
X149416666Y-109954819D01*
X149416666Y-109954819D02*
X149559523Y-110002438D01*
X149559523Y-110002438D02*
X149607142Y-110050057D01*
X149940476Y-109954819D02*
X150559523Y-109954819D01*
X150559523Y-109954819D02*
X150226190Y-110335771D01*
X150226190Y-110335771D02*
X150369047Y-110335771D01*
X150369047Y-110335771D02*
X150464285Y-110383390D01*
X150464285Y-110383390D02*
X150511904Y-110431009D01*
X150511904Y-110431009D02*
X150559523Y-110526247D01*
X150559523Y-110526247D02*
X150559523Y-110764342D01*
X150559523Y-110764342D02*
X150511904Y-110859580D01*
X150511904Y-110859580D02*
X150464285Y-110907200D01*
X150464285Y-110907200D02*
X150369047Y-110954819D01*
X150369047Y-110954819D02*
X150083333Y-110954819D01*
X150083333Y-110954819D02*
X149988095Y-110907200D01*
X149988095Y-110907200D02*
X149940476Y-110859580D01*
X150892857Y-109954819D02*
X151559523Y-109954819D01*
X151559523Y-109954819D02*
X151130952Y-110954819D01*
X145679580Y-104680357D02*
X145727200Y-104727976D01*
X145727200Y-104727976D02*
X145774819Y-104870833D01*
X145774819Y-104870833D02*
X145774819Y-104966071D01*
X145774819Y-104966071D02*
X145727200Y-105108928D01*
X145727200Y-105108928D02*
X145631961Y-105204166D01*
X145631961Y-105204166D02*
X145536723Y-105251785D01*
X145536723Y-105251785D02*
X145346247Y-105299404D01*
X145346247Y-105299404D02*
X145203390Y-105299404D01*
X145203390Y-105299404D02*
X145012914Y-105251785D01*
X145012914Y-105251785D02*
X144917676Y-105204166D01*
X144917676Y-105204166D02*
X144822438Y-105108928D01*
X144822438Y-105108928D02*
X144774819Y-104966071D01*
X144774819Y-104966071D02*
X144774819Y-104870833D01*
X144774819Y-104870833D02*
X144822438Y-104727976D01*
X144822438Y-104727976D02*
X144870057Y-104680357D01*
X145774819Y-103727976D02*
X145774819Y-104299404D01*
X145774819Y-104013690D02*
X144774819Y-104013690D01*
X144774819Y-104013690D02*
X144917676Y-104108928D01*
X144917676Y-104108928D02*
X145012914Y-104204166D01*
X145012914Y-104204166D02*
X145060533Y-104299404D01*
X145203390Y-103156547D02*
X145155771Y-103251785D01*
X145155771Y-103251785D02*
X145108152Y-103299404D01*
X145108152Y-103299404D02*
X145012914Y-103347023D01*
X145012914Y-103347023D02*
X144965295Y-103347023D01*
X144965295Y-103347023D02*
X144870057Y-103299404D01*
X144870057Y-103299404D02*
X144822438Y-103251785D01*
X144822438Y-103251785D02*
X144774819Y-103156547D01*
X144774819Y-103156547D02*
X144774819Y-102966071D01*
X144774819Y-102966071D02*
X144822438Y-102870833D01*
X144822438Y-102870833D02*
X144870057Y-102823214D01*
X144870057Y-102823214D02*
X144965295Y-102775595D01*
X144965295Y-102775595D02*
X145012914Y-102775595D01*
X145012914Y-102775595D02*
X145108152Y-102823214D01*
X145108152Y-102823214D02*
X145155771Y-102870833D01*
X145155771Y-102870833D02*
X145203390Y-102966071D01*
X145203390Y-102966071D02*
X145203390Y-103156547D01*
X145203390Y-103156547D02*
X145251009Y-103251785D01*
X145251009Y-103251785D02*
X145298628Y-103299404D01*
X145298628Y-103299404D02*
X145393866Y-103347023D01*
X145393866Y-103347023D02*
X145584342Y-103347023D01*
X145584342Y-103347023D02*
X145679580Y-103299404D01*
X145679580Y-103299404D02*
X145727200Y-103251785D01*
X145727200Y-103251785D02*
X145774819Y-103156547D01*
X145774819Y-103156547D02*
X145774819Y-102966071D01*
X145774819Y-102966071D02*
X145727200Y-102870833D01*
X145727200Y-102870833D02*
X145679580Y-102823214D01*
X145679580Y-102823214D02*
X145584342Y-102775595D01*
X145584342Y-102775595D02*
X145393866Y-102775595D01*
X145393866Y-102775595D02*
X145298628Y-102823214D01*
X145298628Y-102823214D02*
X145251009Y-102870833D01*
X145251009Y-102870833D02*
X145203390Y-102966071D01*
X134954761Y-88750057D02*
X134859523Y-88702438D01*
X134859523Y-88702438D02*
X134764285Y-88607200D01*
X134764285Y-88607200D02*
X134621428Y-88464342D01*
X134621428Y-88464342D02*
X134526190Y-88416723D01*
X134526190Y-88416723D02*
X134430952Y-88416723D01*
X134478571Y-88654819D02*
X134383333Y-88607200D01*
X134383333Y-88607200D02*
X134288095Y-88511961D01*
X134288095Y-88511961D02*
X134240476Y-88321485D01*
X134240476Y-88321485D02*
X134240476Y-87988152D01*
X134240476Y-87988152D02*
X134288095Y-87797676D01*
X134288095Y-87797676D02*
X134383333Y-87702438D01*
X134383333Y-87702438D02*
X134478571Y-87654819D01*
X134478571Y-87654819D02*
X134669047Y-87654819D01*
X134669047Y-87654819D02*
X134764285Y-87702438D01*
X134764285Y-87702438D02*
X134859523Y-87797676D01*
X134859523Y-87797676D02*
X134907142Y-87988152D01*
X134907142Y-87988152D02*
X134907142Y-88321485D01*
X134907142Y-88321485D02*
X134859523Y-88511961D01*
X134859523Y-88511961D02*
X134764285Y-88607200D01*
X134764285Y-88607200D02*
X134669047Y-88654819D01*
X134669047Y-88654819D02*
X134478571Y-88654819D01*
X135764285Y-87988152D02*
X135764285Y-88654819D01*
X135526190Y-87607200D02*
X135288095Y-88321485D01*
X135288095Y-88321485D02*
X135907142Y-88321485D01*
X164169319Y-103142857D02*
X163693128Y-103476190D01*
X164169319Y-103714285D02*
X163169319Y-103714285D01*
X163169319Y-103714285D02*
X163169319Y-103333333D01*
X163169319Y-103333333D02*
X163216938Y-103238095D01*
X163216938Y-103238095D02*
X163264557Y-103190476D01*
X163264557Y-103190476D02*
X163359795Y-103142857D01*
X163359795Y-103142857D02*
X163502652Y-103142857D01*
X163502652Y-103142857D02*
X163597890Y-103190476D01*
X163597890Y-103190476D02*
X163645509Y-103238095D01*
X163645509Y-103238095D02*
X163693128Y-103333333D01*
X163693128Y-103333333D02*
X163693128Y-103714285D01*
X163502652Y-102285714D02*
X164169319Y-102285714D01*
X163121700Y-102523809D02*
X163835985Y-102761904D01*
X163835985Y-102761904D02*
X163835985Y-102142857D01*
X163169319Y-101333333D02*
X163169319Y-101523809D01*
X163169319Y-101523809D02*
X163216938Y-101619047D01*
X163216938Y-101619047D02*
X163264557Y-101666666D01*
X163264557Y-101666666D02*
X163407414Y-101761904D01*
X163407414Y-101761904D02*
X163597890Y-101809523D01*
X163597890Y-101809523D02*
X163978842Y-101809523D01*
X163978842Y-101809523D02*
X164074080Y-101761904D01*
X164074080Y-101761904D02*
X164121700Y-101714285D01*
X164121700Y-101714285D02*
X164169319Y-101619047D01*
X164169319Y-101619047D02*
X164169319Y-101428571D01*
X164169319Y-101428571D02*
X164121700Y-101333333D01*
X164121700Y-101333333D02*
X164074080Y-101285714D01*
X164074080Y-101285714D02*
X163978842Y-101238095D01*
X163978842Y-101238095D02*
X163740747Y-101238095D01*
X163740747Y-101238095D02*
X163645509Y-101285714D01*
X163645509Y-101285714D02*
X163597890Y-101333333D01*
X163597890Y-101333333D02*
X163550271Y-101428571D01*
X163550271Y-101428571D02*
X163550271Y-101619047D01*
X163550271Y-101619047D02*
X163597890Y-101714285D01*
X163597890Y-101714285D02*
X163645509Y-101761904D01*
X163645509Y-101761904D02*
X163740747Y-101809523D01*
X129238095Y-119604819D02*
X129238095Y-120414342D01*
X129238095Y-120414342D02*
X129285714Y-120509580D01*
X129285714Y-120509580D02*
X129333333Y-120557200D01*
X129333333Y-120557200D02*
X129428571Y-120604819D01*
X129428571Y-120604819D02*
X129619047Y-120604819D01*
X129619047Y-120604819D02*
X129714285Y-120557200D01*
X129714285Y-120557200D02*
X129761904Y-120509580D01*
X129761904Y-120509580D02*
X129809523Y-120414342D01*
X129809523Y-120414342D02*
X129809523Y-119604819D01*
X130190476Y-119604819D02*
X130809523Y-119604819D01*
X130809523Y-119604819D02*
X130476190Y-119985771D01*
X130476190Y-119985771D02*
X130619047Y-119985771D01*
X130619047Y-119985771D02*
X130714285Y-120033390D01*
X130714285Y-120033390D02*
X130761904Y-120081009D01*
X130761904Y-120081009D02*
X130809523Y-120176247D01*
X130809523Y-120176247D02*
X130809523Y-120414342D01*
X130809523Y-120414342D02*
X130761904Y-120509580D01*
X130761904Y-120509580D02*
X130714285Y-120557200D01*
X130714285Y-120557200D02*
X130619047Y-120604819D01*
X130619047Y-120604819D02*
X130333333Y-120604819D01*
X130333333Y-120604819D02*
X130238095Y-120557200D01*
X130238095Y-120557200D02*
X130190476Y-120509580D01*
D11*
X134661905Y-105357419D02*
X135233333Y-105357419D01*
X134947619Y-106357419D02*
X134947619Y-105357419D01*
X135566667Y-106357419D02*
X135566667Y-105357419D01*
X135566667Y-105357419D02*
X135947619Y-105357419D01*
X135947619Y-105357419D02*
X136042857Y-105405038D01*
X136042857Y-105405038D02*
X136090476Y-105452657D01*
X136090476Y-105452657D02*
X136138095Y-105547895D01*
X136138095Y-105547895D02*
X136138095Y-105690752D01*
X136138095Y-105690752D02*
X136090476Y-105785990D01*
X136090476Y-105785990D02*
X136042857Y-105833609D01*
X136042857Y-105833609D02*
X135947619Y-105881228D01*
X135947619Y-105881228D02*
X135566667Y-105881228D01*
X136519048Y-105452657D02*
X136566667Y-105405038D01*
X136566667Y-105405038D02*
X136661905Y-105357419D01*
X136661905Y-105357419D02*
X136900000Y-105357419D01*
X136900000Y-105357419D02*
X136995238Y-105405038D01*
X136995238Y-105405038D02*
X137042857Y-105452657D01*
X137042857Y-105452657D02*
X137090476Y-105547895D01*
X137090476Y-105547895D02*
X137090476Y-105643133D01*
X137090476Y-105643133D02*
X137042857Y-105785990D01*
X137042857Y-105785990D02*
X136471429Y-106357419D01*
X136471429Y-106357419D02*
X137090476Y-106357419D01*
X137423810Y-105357419D02*
X138042857Y-105357419D01*
X138042857Y-105357419D02*
X137709524Y-105738371D01*
X137709524Y-105738371D02*
X137852381Y-105738371D01*
X137852381Y-105738371D02*
X137947619Y-105785990D01*
X137947619Y-105785990D02*
X137995238Y-105833609D01*
X137995238Y-105833609D02*
X138042857Y-105928847D01*
X138042857Y-105928847D02*
X138042857Y-106166942D01*
X138042857Y-106166942D02*
X137995238Y-106262180D01*
X137995238Y-106262180D02*
X137947619Y-106309800D01*
X137947619Y-106309800D02*
X137852381Y-106357419D01*
X137852381Y-106357419D02*
X137566667Y-106357419D01*
X137566667Y-106357419D02*
X137471429Y-106309800D01*
X137471429Y-106309800D02*
X137423810Y-106262180D01*
D10*
X110857142Y-106654819D02*
X110523809Y-106178628D01*
X110285714Y-106654819D02*
X110285714Y-105654819D01*
X110285714Y-105654819D02*
X110666666Y-105654819D01*
X110666666Y-105654819D02*
X110761904Y-105702438D01*
X110761904Y-105702438D02*
X110809523Y-105750057D01*
X110809523Y-105750057D02*
X110857142Y-105845295D01*
X110857142Y-105845295D02*
X110857142Y-105988152D01*
X110857142Y-105988152D02*
X110809523Y-106083390D01*
X110809523Y-106083390D02*
X110761904Y-106131009D01*
X110761904Y-106131009D02*
X110666666Y-106178628D01*
X110666666Y-106178628D02*
X110285714Y-106178628D01*
X111190476Y-105654819D02*
X111809523Y-105654819D01*
X111809523Y-105654819D02*
X111476190Y-106035771D01*
X111476190Y-106035771D02*
X111619047Y-106035771D01*
X111619047Y-106035771D02*
X111714285Y-106083390D01*
X111714285Y-106083390D02*
X111761904Y-106131009D01*
X111761904Y-106131009D02*
X111809523Y-106226247D01*
X111809523Y-106226247D02*
X111809523Y-106464342D01*
X111809523Y-106464342D02*
X111761904Y-106559580D01*
X111761904Y-106559580D02*
X111714285Y-106607200D01*
X111714285Y-106607200D02*
X111619047Y-106654819D01*
X111619047Y-106654819D02*
X111333333Y-106654819D01*
X111333333Y-106654819D02*
X111238095Y-106607200D01*
X111238095Y-106607200D02*
X111190476Y-106559580D01*
X112142857Y-105654819D02*
X112809523Y-105654819D01*
X112809523Y-105654819D02*
X112380952Y-106654819D01*
X137704819Y-89238094D02*
X136704819Y-89238094D01*
X136704819Y-89238094D02*
X136704819Y-88999999D01*
X136704819Y-88999999D02*
X136752438Y-88857142D01*
X136752438Y-88857142D02*
X136847676Y-88761904D01*
X136847676Y-88761904D02*
X136942914Y-88714285D01*
X136942914Y-88714285D02*
X137133390Y-88666666D01*
X137133390Y-88666666D02*
X137276247Y-88666666D01*
X137276247Y-88666666D02*
X137466723Y-88714285D01*
X137466723Y-88714285D02*
X137561961Y-88761904D01*
X137561961Y-88761904D02*
X137657200Y-88857142D01*
X137657200Y-88857142D02*
X137704819Y-88999999D01*
X137704819Y-88999999D02*
X137704819Y-89238094D01*
X136704819Y-87809523D02*
X136704819Y-87999999D01*
X136704819Y-87999999D02*
X136752438Y-88095237D01*
X136752438Y-88095237D02*
X136800057Y-88142856D01*
X136800057Y-88142856D02*
X136942914Y-88238094D01*
X136942914Y-88238094D02*
X137133390Y-88285713D01*
X137133390Y-88285713D02*
X137514342Y-88285713D01*
X137514342Y-88285713D02*
X137609580Y-88238094D01*
X137609580Y-88238094D02*
X137657200Y-88190475D01*
X137657200Y-88190475D02*
X137704819Y-88095237D01*
X137704819Y-88095237D02*
X137704819Y-87904761D01*
X137704819Y-87904761D02*
X137657200Y-87809523D01*
X137657200Y-87809523D02*
X137609580Y-87761904D01*
X137609580Y-87761904D02*
X137514342Y-87714285D01*
X137514342Y-87714285D02*
X137276247Y-87714285D01*
X137276247Y-87714285D02*
X137181009Y-87761904D01*
X137181009Y-87761904D02*
X137133390Y-87809523D01*
X137133390Y-87809523D02*
X137085771Y-87904761D01*
X137085771Y-87904761D02*
X137085771Y-88095237D01*
X137085771Y-88095237D02*
X137133390Y-88190475D01*
X137133390Y-88190475D02*
X137181009Y-88238094D01*
X137181009Y-88238094D02*
X137276247Y-88285713D01*
X119261905Y-88954819D02*
X119261905Y-87954819D01*
X119261905Y-87954819D02*
X119500000Y-87954819D01*
X119500000Y-87954819D02*
X119642857Y-88002438D01*
X119642857Y-88002438D02*
X119738095Y-88097676D01*
X119738095Y-88097676D02*
X119785714Y-88192914D01*
X119785714Y-88192914D02*
X119833333Y-88383390D01*
X119833333Y-88383390D02*
X119833333Y-88526247D01*
X119833333Y-88526247D02*
X119785714Y-88716723D01*
X119785714Y-88716723D02*
X119738095Y-88811961D01*
X119738095Y-88811961D02*
X119642857Y-88907200D01*
X119642857Y-88907200D02*
X119500000Y-88954819D01*
X119500000Y-88954819D02*
X119261905Y-88954819D01*
X120738095Y-87954819D02*
X120261905Y-87954819D01*
X120261905Y-87954819D02*
X120214286Y-88431009D01*
X120214286Y-88431009D02*
X120261905Y-88383390D01*
X120261905Y-88383390D02*
X120357143Y-88335771D01*
X120357143Y-88335771D02*
X120595238Y-88335771D01*
X120595238Y-88335771D02*
X120690476Y-88383390D01*
X120690476Y-88383390D02*
X120738095Y-88431009D01*
X120738095Y-88431009D02*
X120785714Y-88526247D01*
X120785714Y-88526247D02*
X120785714Y-88764342D01*
X120785714Y-88764342D02*
X120738095Y-88859580D01*
X120738095Y-88859580D02*
X120690476Y-88907200D01*
X120690476Y-88907200D02*
X120595238Y-88954819D01*
X120595238Y-88954819D02*
X120357143Y-88954819D01*
X120357143Y-88954819D02*
X120261905Y-88907200D01*
X120261905Y-88907200D02*
X120214286Y-88859580D01*
X141157142Y-92459580D02*
X141109523Y-92507200D01*
X141109523Y-92507200D02*
X140966666Y-92554819D01*
X140966666Y-92554819D02*
X140871428Y-92554819D01*
X140871428Y-92554819D02*
X140728571Y-92507200D01*
X140728571Y-92507200D02*
X140633333Y-92411961D01*
X140633333Y-92411961D02*
X140585714Y-92316723D01*
X140585714Y-92316723D02*
X140538095Y-92126247D01*
X140538095Y-92126247D02*
X140538095Y-91983390D01*
X140538095Y-91983390D02*
X140585714Y-91792914D01*
X140585714Y-91792914D02*
X140633333Y-91697676D01*
X140633333Y-91697676D02*
X140728571Y-91602438D01*
X140728571Y-91602438D02*
X140871428Y-91554819D01*
X140871428Y-91554819D02*
X140966666Y-91554819D01*
X140966666Y-91554819D02*
X141109523Y-91602438D01*
X141109523Y-91602438D02*
X141157142Y-91650057D01*
X141538095Y-91650057D02*
X141585714Y-91602438D01*
X141585714Y-91602438D02*
X141680952Y-91554819D01*
X141680952Y-91554819D02*
X141919047Y-91554819D01*
X141919047Y-91554819D02*
X142014285Y-91602438D01*
X142014285Y-91602438D02*
X142061904Y-91650057D01*
X142061904Y-91650057D02*
X142109523Y-91745295D01*
X142109523Y-91745295D02*
X142109523Y-91840533D01*
X142109523Y-91840533D02*
X142061904Y-91983390D01*
X142061904Y-91983390D02*
X141490476Y-92554819D01*
X141490476Y-92554819D02*
X142109523Y-92554819D01*
X142442857Y-91554819D02*
X143061904Y-91554819D01*
X143061904Y-91554819D02*
X142728571Y-91935771D01*
X142728571Y-91935771D02*
X142871428Y-91935771D01*
X142871428Y-91935771D02*
X142966666Y-91983390D01*
X142966666Y-91983390D02*
X143014285Y-92031009D01*
X143014285Y-92031009D02*
X143061904Y-92126247D01*
X143061904Y-92126247D02*
X143061904Y-92364342D01*
X143061904Y-92364342D02*
X143014285Y-92459580D01*
X143014285Y-92459580D02*
X142966666Y-92507200D01*
X142966666Y-92507200D02*
X142871428Y-92554819D01*
X142871428Y-92554819D02*
X142585714Y-92554819D01*
X142585714Y-92554819D02*
X142490476Y-92507200D01*
X142490476Y-92507200D02*
X142442857Y-92459580D01*
X171594819Y-95321428D02*
X171594819Y-95130952D01*
X171594819Y-95130952D02*
X171642438Y-95035714D01*
X171642438Y-95035714D02*
X171737676Y-94940476D01*
X171737676Y-94940476D02*
X171928152Y-94892857D01*
X171928152Y-94892857D02*
X172261485Y-94892857D01*
X172261485Y-94892857D02*
X172451961Y-94940476D01*
X172451961Y-94940476D02*
X172547200Y-95035714D01*
X172547200Y-95035714D02*
X172594819Y-95130952D01*
X172594819Y-95130952D02*
X172594819Y-95321428D01*
X172594819Y-95321428D02*
X172547200Y-95416666D01*
X172547200Y-95416666D02*
X172451961Y-95511904D01*
X172451961Y-95511904D02*
X172261485Y-95559523D01*
X172261485Y-95559523D02*
X171928152Y-95559523D01*
X171928152Y-95559523D02*
X171737676Y-95511904D01*
X171737676Y-95511904D02*
X171642438Y-95416666D01*
X171642438Y-95416666D02*
X171594819Y-95321428D01*
X172499580Y-93892857D02*
X172547200Y-93940476D01*
X172547200Y-93940476D02*
X172594819Y-94083333D01*
X172594819Y-94083333D02*
X172594819Y-94178571D01*
X172594819Y-94178571D02*
X172547200Y-94321428D01*
X172547200Y-94321428D02*
X172451961Y-94416666D01*
X172451961Y-94416666D02*
X172356723Y-94464285D01*
X172356723Y-94464285D02*
X172166247Y-94511904D01*
X172166247Y-94511904D02*
X172023390Y-94511904D01*
X172023390Y-94511904D02*
X171832914Y-94464285D01*
X171832914Y-94464285D02*
X171737676Y-94416666D01*
X171737676Y-94416666D02*
X171642438Y-94321428D01*
X171642438Y-94321428D02*
X171594819Y-94178571D01*
X171594819Y-94178571D02*
X171594819Y-94083333D01*
X171594819Y-94083333D02*
X171642438Y-93940476D01*
X171642438Y-93940476D02*
X171690057Y-93892857D01*
X171690057Y-93511904D02*
X171642438Y-93464285D01*
X171642438Y-93464285D02*
X171594819Y-93369047D01*
X171594819Y-93369047D02*
X171594819Y-93130952D01*
X171594819Y-93130952D02*
X171642438Y-93035714D01*
X171642438Y-93035714D02*
X171690057Y-92988095D01*
X171690057Y-92988095D02*
X171785295Y-92940476D01*
X171785295Y-92940476D02*
X171880533Y-92940476D01*
X171880533Y-92940476D02*
X172023390Y-92988095D01*
X172023390Y-92988095D02*
X172594819Y-93559523D01*
X172594819Y-93559523D02*
X172594819Y-92940476D01*
X165454819Y-103142857D02*
X164978628Y-103476190D01*
X165454819Y-103714285D02*
X164454819Y-103714285D01*
X164454819Y-103714285D02*
X164454819Y-103333333D01*
X164454819Y-103333333D02*
X164502438Y-103238095D01*
X164502438Y-103238095D02*
X164550057Y-103190476D01*
X164550057Y-103190476D02*
X164645295Y-103142857D01*
X164645295Y-103142857D02*
X164788152Y-103142857D01*
X164788152Y-103142857D02*
X164883390Y-103190476D01*
X164883390Y-103190476D02*
X164931009Y-103238095D01*
X164931009Y-103238095D02*
X164978628Y-103333333D01*
X164978628Y-103333333D02*
X164978628Y-103714285D01*
X164788152Y-102285714D02*
X165454819Y-102285714D01*
X164407200Y-102523809D02*
X165121485Y-102761904D01*
X165121485Y-102761904D02*
X165121485Y-102142857D01*
X164454819Y-101857142D02*
X164454819Y-101238095D01*
X164454819Y-101238095D02*
X164835771Y-101571428D01*
X164835771Y-101571428D02*
X164835771Y-101428571D01*
X164835771Y-101428571D02*
X164883390Y-101333333D01*
X164883390Y-101333333D02*
X164931009Y-101285714D01*
X164931009Y-101285714D02*
X165026247Y-101238095D01*
X165026247Y-101238095D02*
X165264342Y-101238095D01*
X165264342Y-101238095D02*
X165359580Y-101285714D01*
X165359580Y-101285714D02*
X165407200Y-101333333D01*
X165407200Y-101333333D02*
X165454819Y-101428571D01*
X165454819Y-101428571D02*
X165454819Y-101714285D01*
X165454819Y-101714285D02*
X165407200Y-101809523D01*
X165407200Y-101809523D02*
X165359580Y-101857142D01*
D11*
X119861905Y-94957419D02*
X120433333Y-94957419D01*
X120147619Y-95957419D02*
X120147619Y-94957419D01*
X120766667Y-95957419D02*
X120766667Y-94957419D01*
X120766667Y-94957419D02*
X121147619Y-94957419D01*
X121147619Y-94957419D02*
X121242857Y-95005038D01*
X121242857Y-95005038D02*
X121290476Y-95052657D01*
X121290476Y-95052657D02*
X121338095Y-95147895D01*
X121338095Y-95147895D02*
X121338095Y-95290752D01*
X121338095Y-95290752D02*
X121290476Y-95385990D01*
X121290476Y-95385990D02*
X121242857Y-95433609D01*
X121242857Y-95433609D02*
X121147619Y-95481228D01*
X121147619Y-95481228D02*
X120766667Y-95481228D01*
X122290476Y-95957419D02*
X121719048Y-95957419D01*
X122004762Y-95957419D02*
X122004762Y-94957419D01*
X122004762Y-94957419D02*
X121909524Y-95100276D01*
X121909524Y-95100276D02*
X121814286Y-95195514D01*
X121814286Y-95195514D02*
X121719048Y-95243133D01*
X122671429Y-95052657D02*
X122719048Y-95005038D01*
X122719048Y-95005038D02*
X122814286Y-94957419D01*
X122814286Y-94957419D02*
X123052381Y-94957419D01*
X123052381Y-94957419D02*
X123147619Y-95005038D01*
X123147619Y-95005038D02*
X123195238Y-95052657D01*
X123195238Y-95052657D02*
X123242857Y-95147895D01*
X123242857Y-95147895D02*
X123242857Y-95243133D01*
X123242857Y-95243133D02*
X123195238Y-95385990D01*
X123195238Y-95385990D02*
X122623810Y-95957419D01*
X122623810Y-95957419D02*
X123242857Y-95957419D01*
D10*
X121357142Y-103679580D02*
X121309523Y-103727200D01*
X121309523Y-103727200D02*
X121166666Y-103774819D01*
X121166666Y-103774819D02*
X121071428Y-103774819D01*
X121071428Y-103774819D02*
X120928571Y-103727200D01*
X120928571Y-103727200D02*
X120833333Y-103631961D01*
X120833333Y-103631961D02*
X120785714Y-103536723D01*
X120785714Y-103536723D02*
X120738095Y-103346247D01*
X120738095Y-103346247D02*
X120738095Y-103203390D01*
X120738095Y-103203390D02*
X120785714Y-103012914D01*
X120785714Y-103012914D02*
X120833333Y-102917676D01*
X120833333Y-102917676D02*
X120928571Y-102822438D01*
X120928571Y-102822438D02*
X121071428Y-102774819D01*
X121071428Y-102774819D02*
X121166666Y-102774819D01*
X121166666Y-102774819D02*
X121309523Y-102822438D01*
X121309523Y-102822438D02*
X121357142Y-102870057D01*
X121738095Y-102870057D02*
X121785714Y-102822438D01*
X121785714Y-102822438D02*
X121880952Y-102774819D01*
X121880952Y-102774819D02*
X122119047Y-102774819D01*
X122119047Y-102774819D02*
X122214285Y-102822438D01*
X122214285Y-102822438D02*
X122261904Y-102870057D01*
X122261904Y-102870057D02*
X122309523Y-102965295D01*
X122309523Y-102965295D02*
X122309523Y-103060533D01*
X122309523Y-103060533D02*
X122261904Y-103203390D01*
X122261904Y-103203390D02*
X121690476Y-103774819D01*
X121690476Y-103774819D02*
X122309523Y-103774819D01*
X122690476Y-102870057D02*
X122738095Y-102822438D01*
X122738095Y-102822438D02*
X122833333Y-102774819D01*
X122833333Y-102774819D02*
X123071428Y-102774819D01*
X123071428Y-102774819D02*
X123166666Y-102822438D01*
X123166666Y-102822438D02*
X123214285Y-102870057D01*
X123214285Y-102870057D02*
X123261904Y-102965295D01*
X123261904Y-102965295D02*
X123261904Y-103060533D01*
X123261904Y-103060533D02*
X123214285Y-103203390D01*
X123214285Y-103203390D02*
X122642857Y-103774819D01*
X122642857Y-103774819D02*
X123261904Y-103774819D01*
X128704761Y-88750057D02*
X128609523Y-88702438D01*
X128609523Y-88702438D02*
X128514285Y-88607200D01*
X128514285Y-88607200D02*
X128371428Y-88464342D01*
X128371428Y-88464342D02*
X128276190Y-88416723D01*
X128276190Y-88416723D02*
X128180952Y-88416723D01*
X128228571Y-88654819D02*
X128133333Y-88607200D01*
X128133333Y-88607200D02*
X128038095Y-88511961D01*
X128038095Y-88511961D02*
X127990476Y-88321485D01*
X127990476Y-88321485D02*
X127990476Y-87988152D01*
X127990476Y-87988152D02*
X128038095Y-87797676D01*
X128038095Y-87797676D02*
X128133333Y-87702438D01*
X128133333Y-87702438D02*
X128228571Y-87654819D01*
X128228571Y-87654819D02*
X128419047Y-87654819D01*
X128419047Y-87654819D02*
X128514285Y-87702438D01*
X128514285Y-87702438D02*
X128609523Y-87797676D01*
X128609523Y-87797676D02*
X128657142Y-87988152D01*
X128657142Y-87988152D02*
X128657142Y-88321485D01*
X128657142Y-88321485D02*
X128609523Y-88511961D01*
X128609523Y-88511961D02*
X128514285Y-88607200D01*
X128514285Y-88607200D02*
X128419047Y-88654819D01*
X128419047Y-88654819D02*
X128228571Y-88654819D01*
X129561904Y-87654819D02*
X129085714Y-87654819D01*
X129085714Y-87654819D02*
X129038095Y-88131009D01*
X129038095Y-88131009D02*
X129085714Y-88083390D01*
X129085714Y-88083390D02*
X129180952Y-88035771D01*
X129180952Y-88035771D02*
X129419047Y-88035771D01*
X129419047Y-88035771D02*
X129514285Y-88083390D01*
X129514285Y-88083390D02*
X129561904Y-88131009D01*
X129561904Y-88131009D02*
X129609523Y-88226247D01*
X129609523Y-88226247D02*
X129609523Y-88464342D01*
X129609523Y-88464342D02*
X129561904Y-88559580D01*
X129561904Y-88559580D02*
X129514285Y-88607200D01*
X129514285Y-88607200D02*
X129419047Y-88654819D01*
X129419047Y-88654819D02*
X129180952Y-88654819D01*
X129180952Y-88654819D02*
X129085714Y-88607200D01*
X129085714Y-88607200D02*
X129038095Y-88559580D01*
X153357142Y-108359580D02*
X153309523Y-108407200D01*
X153309523Y-108407200D02*
X153166666Y-108454819D01*
X153166666Y-108454819D02*
X153071428Y-108454819D01*
X153071428Y-108454819D02*
X152928571Y-108407200D01*
X152928571Y-108407200D02*
X152833333Y-108311961D01*
X152833333Y-108311961D02*
X152785714Y-108216723D01*
X152785714Y-108216723D02*
X152738095Y-108026247D01*
X152738095Y-108026247D02*
X152738095Y-107883390D01*
X152738095Y-107883390D02*
X152785714Y-107692914D01*
X152785714Y-107692914D02*
X152833333Y-107597676D01*
X152833333Y-107597676D02*
X152928571Y-107502438D01*
X152928571Y-107502438D02*
X153071428Y-107454819D01*
X153071428Y-107454819D02*
X153166666Y-107454819D01*
X153166666Y-107454819D02*
X153309523Y-107502438D01*
X153309523Y-107502438D02*
X153357142Y-107550057D01*
X153690476Y-107454819D02*
X154309523Y-107454819D01*
X154309523Y-107454819D02*
X153976190Y-107835771D01*
X153976190Y-107835771D02*
X154119047Y-107835771D01*
X154119047Y-107835771D02*
X154214285Y-107883390D01*
X154214285Y-107883390D02*
X154261904Y-107931009D01*
X154261904Y-107931009D02*
X154309523Y-108026247D01*
X154309523Y-108026247D02*
X154309523Y-108264342D01*
X154309523Y-108264342D02*
X154261904Y-108359580D01*
X154261904Y-108359580D02*
X154214285Y-108407200D01*
X154214285Y-108407200D02*
X154119047Y-108454819D01*
X154119047Y-108454819D02*
X153833333Y-108454819D01*
X153833333Y-108454819D02*
X153738095Y-108407200D01*
X153738095Y-108407200D02*
X153690476Y-108359580D01*
X154880952Y-107883390D02*
X154785714Y-107835771D01*
X154785714Y-107835771D02*
X154738095Y-107788152D01*
X154738095Y-107788152D02*
X154690476Y-107692914D01*
X154690476Y-107692914D02*
X154690476Y-107645295D01*
X154690476Y-107645295D02*
X154738095Y-107550057D01*
X154738095Y-107550057D02*
X154785714Y-107502438D01*
X154785714Y-107502438D02*
X154880952Y-107454819D01*
X154880952Y-107454819D02*
X155071428Y-107454819D01*
X155071428Y-107454819D02*
X155166666Y-107502438D01*
X155166666Y-107502438D02*
X155214285Y-107550057D01*
X155214285Y-107550057D02*
X155261904Y-107645295D01*
X155261904Y-107645295D02*
X155261904Y-107692914D01*
X155261904Y-107692914D02*
X155214285Y-107788152D01*
X155214285Y-107788152D02*
X155166666Y-107835771D01*
X155166666Y-107835771D02*
X155071428Y-107883390D01*
X155071428Y-107883390D02*
X154880952Y-107883390D01*
X154880952Y-107883390D02*
X154785714Y-107931009D01*
X154785714Y-107931009D02*
X154738095Y-107978628D01*
X154738095Y-107978628D02*
X154690476Y-108073866D01*
X154690476Y-108073866D02*
X154690476Y-108264342D01*
X154690476Y-108264342D02*
X154738095Y-108359580D01*
X154738095Y-108359580D02*
X154785714Y-108407200D01*
X154785714Y-108407200D02*
X154880952Y-108454819D01*
X154880952Y-108454819D02*
X155071428Y-108454819D01*
X155071428Y-108454819D02*
X155166666Y-108407200D01*
X155166666Y-108407200D02*
X155214285Y-108359580D01*
X155214285Y-108359580D02*
X155261904Y-108264342D01*
X155261904Y-108264342D02*
X155261904Y-108073866D01*
X155261904Y-108073866D02*
X155214285Y-107978628D01*
X155214285Y-107978628D02*
X155166666Y-107931009D01*
X155166666Y-107931009D02*
X155071428Y-107883390D01*
X124804819Y-85729166D02*
X124328628Y-86062499D01*
X124804819Y-86300594D02*
X123804819Y-86300594D01*
X123804819Y-86300594D02*
X123804819Y-85919642D01*
X123804819Y-85919642D02*
X123852438Y-85824404D01*
X123852438Y-85824404D02*
X123900057Y-85776785D01*
X123900057Y-85776785D02*
X123995295Y-85729166D01*
X123995295Y-85729166D02*
X124138152Y-85729166D01*
X124138152Y-85729166D02*
X124233390Y-85776785D01*
X124233390Y-85776785D02*
X124281009Y-85824404D01*
X124281009Y-85824404D02*
X124328628Y-85919642D01*
X124328628Y-85919642D02*
X124328628Y-86300594D01*
X123804819Y-85395832D02*
X123804819Y-84729166D01*
X123804819Y-84729166D02*
X124804819Y-85157737D01*
D11*
X136161905Y-90657419D02*
X136733333Y-90657419D01*
X136447619Y-91657419D02*
X136447619Y-90657419D01*
X137066667Y-91657419D02*
X137066667Y-90657419D01*
X137066667Y-90657419D02*
X137447619Y-90657419D01*
X137447619Y-90657419D02*
X137542857Y-90705038D01*
X137542857Y-90705038D02*
X137590476Y-90752657D01*
X137590476Y-90752657D02*
X137638095Y-90847895D01*
X137638095Y-90847895D02*
X137638095Y-90990752D01*
X137638095Y-90990752D02*
X137590476Y-91085990D01*
X137590476Y-91085990D02*
X137542857Y-91133609D01*
X137542857Y-91133609D02*
X137447619Y-91181228D01*
X137447619Y-91181228D02*
X137066667Y-91181228D01*
X138590476Y-91657419D02*
X138019048Y-91657419D01*
X138304762Y-91657419D02*
X138304762Y-90657419D01*
X138304762Y-90657419D02*
X138209524Y-90800276D01*
X138209524Y-90800276D02*
X138114286Y-90895514D01*
X138114286Y-90895514D02*
X138019048Y-90943133D01*
X138923810Y-90657419D02*
X139590476Y-90657419D01*
X139590476Y-90657419D02*
X139161905Y-91657419D01*
D10*
X160254819Y-89538094D02*
X159254819Y-89538094D01*
X159254819Y-89538094D02*
X159254819Y-89299999D01*
X159254819Y-89299999D02*
X159302438Y-89157142D01*
X159302438Y-89157142D02*
X159397676Y-89061904D01*
X159397676Y-89061904D02*
X159492914Y-89014285D01*
X159492914Y-89014285D02*
X159683390Y-88966666D01*
X159683390Y-88966666D02*
X159826247Y-88966666D01*
X159826247Y-88966666D02*
X160016723Y-89014285D01*
X160016723Y-89014285D02*
X160111961Y-89061904D01*
X160111961Y-89061904D02*
X160207200Y-89157142D01*
X160207200Y-89157142D02*
X160254819Y-89299999D01*
X160254819Y-89299999D02*
X160254819Y-89538094D01*
X159683390Y-88395237D02*
X159635771Y-88490475D01*
X159635771Y-88490475D02*
X159588152Y-88538094D01*
X159588152Y-88538094D02*
X159492914Y-88585713D01*
X159492914Y-88585713D02*
X159445295Y-88585713D01*
X159445295Y-88585713D02*
X159350057Y-88538094D01*
X159350057Y-88538094D02*
X159302438Y-88490475D01*
X159302438Y-88490475D02*
X159254819Y-88395237D01*
X159254819Y-88395237D02*
X159254819Y-88204761D01*
X159254819Y-88204761D02*
X159302438Y-88109523D01*
X159302438Y-88109523D02*
X159350057Y-88061904D01*
X159350057Y-88061904D02*
X159445295Y-88014285D01*
X159445295Y-88014285D02*
X159492914Y-88014285D01*
X159492914Y-88014285D02*
X159588152Y-88061904D01*
X159588152Y-88061904D02*
X159635771Y-88109523D01*
X159635771Y-88109523D02*
X159683390Y-88204761D01*
X159683390Y-88204761D02*
X159683390Y-88395237D01*
X159683390Y-88395237D02*
X159731009Y-88490475D01*
X159731009Y-88490475D02*
X159778628Y-88538094D01*
X159778628Y-88538094D02*
X159873866Y-88585713D01*
X159873866Y-88585713D02*
X160064342Y-88585713D01*
X160064342Y-88585713D02*
X160159580Y-88538094D01*
X160159580Y-88538094D02*
X160207200Y-88490475D01*
X160207200Y-88490475D02*
X160254819Y-88395237D01*
X160254819Y-88395237D02*
X160254819Y-88204761D01*
X160254819Y-88204761D02*
X160207200Y-88109523D01*
X160207200Y-88109523D02*
X160159580Y-88061904D01*
X160159580Y-88061904D02*
X160064342Y-88014285D01*
X160064342Y-88014285D02*
X159873866Y-88014285D01*
X159873866Y-88014285D02*
X159778628Y-88061904D01*
X159778628Y-88061904D02*
X159731009Y-88109523D01*
X159731009Y-88109523D02*
X159683390Y-88204761D01*
X110761905Y-88954819D02*
X110761905Y-87954819D01*
X110761905Y-87954819D02*
X111000000Y-87954819D01*
X111000000Y-87954819D02*
X111142857Y-88002438D01*
X111142857Y-88002438D02*
X111238095Y-88097676D01*
X111238095Y-88097676D02*
X111285714Y-88192914D01*
X111285714Y-88192914D02*
X111333333Y-88383390D01*
X111333333Y-88383390D02*
X111333333Y-88526247D01*
X111333333Y-88526247D02*
X111285714Y-88716723D01*
X111285714Y-88716723D02*
X111238095Y-88811961D01*
X111238095Y-88811961D02*
X111142857Y-88907200D01*
X111142857Y-88907200D02*
X111000000Y-88954819D01*
X111000000Y-88954819D02*
X110761905Y-88954819D01*
X112190476Y-88288152D02*
X112190476Y-88954819D01*
X111952381Y-87907200D02*
X111714286Y-88621485D01*
X111714286Y-88621485D02*
X112333333Y-88621485D01*
X155957142Y-92854819D02*
X155623809Y-92378628D01*
X155385714Y-92854819D02*
X155385714Y-91854819D01*
X155385714Y-91854819D02*
X155766666Y-91854819D01*
X155766666Y-91854819D02*
X155861904Y-91902438D01*
X155861904Y-91902438D02*
X155909523Y-91950057D01*
X155909523Y-91950057D02*
X155957142Y-92045295D01*
X155957142Y-92045295D02*
X155957142Y-92188152D01*
X155957142Y-92188152D02*
X155909523Y-92283390D01*
X155909523Y-92283390D02*
X155861904Y-92331009D01*
X155861904Y-92331009D02*
X155766666Y-92378628D01*
X155766666Y-92378628D02*
X155385714Y-92378628D01*
X156338095Y-91950057D02*
X156385714Y-91902438D01*
X156385714Y-91902438D02*
X156480952Y-91854819D01*
X156480952Y-91854819D02*
X156719047Y-91854819D01*
X156719047Y-91854819D02*
X156814285Y-91902438D01*
X156814285Y-91902438D02*
X156861904Y-91950057D01*
X156861904Y-91950057D02*
X156909523Y-92045295D01*
X156909523Y-92045295D02*
X156909523Y-92140533D01*
X156909523Y-92140533D02*
X156861904Y-92283390D01*
X156861904Y-92283390D02*
X156290476Y-92854819D01*
X156290476Y-92854819D02*
X156909523Y-92854819D01*
X157528571Y-91854819D02*
X157623809Y-91854819D01*
X157623809Y-91854819D02*
X157719047Y-91902438D01*
X157719047Y-91902438D02*
X157766666Y-91950057D01*
X157766666Y-91950057D02*
X157814285Y-92045295D01*
X157814285Y-92045295D02*
X157861904Y-92235771D01*
X157861904Y-92235771D02*
X157861904Y-92473866D01*
X157861904Y-92473866D02*
X157814285Y-92664342D01*
X157814285Y-92664342D02*
X157766666Y-92759580D01*
X157766666Y-92759580D02*
X157719047Y-92807200D01*
X157719047Y-92807200D02*
X157623809Y-92854819D01*
X157623809Y-92854819D02*
X157528571Y-92854819D01*
X157528571Y-92854819D02*
X157433333Y-92807200D01*
X157433333Y-92807200D02*
X157385714Y-92759580D01*
X157385714Y-92759580D02*
X157338095Y-92664342D01*
X157338095Y-92664342D02*
X157290476Y-92473866D01*
X157290476Y-92473866D02*
X157290476Y-92235771D01*
X157290476Y-92235771D02*
X157338095Y-92045295D01*
X157338095Y-92045295D02*
X157385714Y-91950057D01*
X157385714Y-91950057D02*
X157433333Y-91902438D01*
X157433333Y-91902438D02*
X157528571Y-91854819D01*
X156954819Y-104642857D02*
X156478628Y-104976190D01*
X156954819Y-105214285D02*
X155954819Y-105214285D01*
X155954819Y-105214285D02*
X155954819Y-104833333D01*
X155954819Y-104833333D02*
X156002438Y-104738095D01*
X156002438Y-104738095D02*
X156050057Y-104690476D01*
X156050057Y-104690476D02*
X156145295Y-104642857D01*
X156145295Y-104642857D02*
X156288152Y-104642857D01*
X156288152Y-104642857D02*
X156383390Y-104690476D01*
X156383390Y-104690476D02*
X156431009Y-104738095D01*
X156431009Y-104738095D02*
X156478628Y-104833333D01*
X156478628Y-104833333D02*
X156478628Y-105214285D01*
X156954819Y-103690476D02*
X156954819Y-104261904D01*
X156954819Y-103976190D02*
X155954819Y-103976190D01*
X155954819Y-103976190D02*
X156097676Y-104071428D01*
X156097676Y-104071428D02*
X156192914Y-104166666D01*
X156192914Y-104166666D02*
X156240533Y-104261904D01*
X155954819Y-102833333D02*
X155954819Y-103023809D01*
X155954819Y-103023809D02*
X156002438Y-103119047D01*
X156002438Y-103119047D02*
X156050057Y-103166666D01*
X156050057Y-103166666D02*
X156192914Y-103261904D01*
X156192914Y-103261904D02*
X156383390Y-103309523D01*
X156383390Y-103309523D02*
X156764342Y-103309523D01*
X156764342Y-103309523D02*
X156859580Y-103261904D01*
X156859580Y-103261904D02*
X156907200Y-103214285D01*
X156907200Y-103214285D02*
X156954819Y-103119047D01*
X156954819Y-103119047D02*
X156954819Y-102928571D01*
X156954819Y-102928571D02*
X156907200Y-102833333D01*
X156907200Y-102833333D02*
X156859580Y-102785714D01*
X156859580Y-102785714D02*
X156764342Y-102738095D01*
X156764342Y-102738095D02*
X156526247Y-102738095D01*
X156526247Y-102738095D02*
X156431009Y-102785714D01*
X156431009Y-102785714D02*
X156383390Y-102833333D01*
X156383390Y-102833333D02*
X156335771Y-102928571D01*
X156335771Y-102928571D02*
X156335771Y-103119047D01*
X156335771Y-103119047D02*
X156383390Y-103214285D01*
X156383390Y-103214285D02*
X156431009Y-103261904D01*
X156431009Y-103261904D02*
X156526247Y-103309523D01*
D11*
X116838095Y-100957419D02*
X117409523Y-100957419D01*
X117123809Y-101957419D02*
X117123809Y-100957419D01*
X117742857Y-101957419D02*
X117742857Y-100957419D01*
X117742857Y-100957419D02*
X118123809Y-100957419D01*
X118123809Y-100957419D02*
X118219047Y-101005038D01*
X118219047Y-101005038D02*
X118266666Y-101052657D01*
X118266666Y-101052657D02*
X118314285Y-101147895D01*
X118314285Y-101147895D02*
X118314285Y-101290752D01*
X118314285Y-101290752D02*
X118266666Y-101385990D01*
X118266666Y-101385990D02*
X118219047Y-101433609D01*
X118219047Y-101433609D02*
X118123809Y-101481228D01*
X118123809Y-101481228D02*
X117742857Y-101481228D01*
X118695238Y-101052657D02*
X118742857Y-101005038D01*
X118742857Y-101005038D02*
X118838095Y-100957419D01*
X118838095Y-100957419D02*
X119076190Y-100957419D01*
X119076190Y-100957419D02*
X119171428Y-101005038D01*
X119171428Y-101005038D02*
X119219047Y-101052657D01*
X119219047Y-101052657D02*
X119266666Y-101147895D01*
X119266666Y-101147895D02*
X119266666Y-101243133D01*
X119266666Y-101243133D02*
X119219047Y-101385990D01*
X119219047Y-101385990D02*
X118647619Y-101957419D01*
X118647619Y-101957419D02*
X119266666Y-101957419D01*
D10*
X159354819Y-104642857D02*
X158878628Y-104976190D01*
X159354819Y-105214285D02*
X158354819Y-105214285D01*
X158354819Y-105214285D02*
X158354819Y-104833333D01*
X158354819Y-104833333D02*
X158402438Y-104738095D01*
X158402438Y-104738095D02*
X158450057Y-104690476D01*
X158450057Y-104690476D02*
X158545295Y-104642857D01*
X158545295Y-104642857D02*
X158688152Y-104642857D01*
X158688152Y-104642857D02*
X158783390Y-104690476D01*
X158783390Y-104690476D02*
X158831009Y-104738095D01*
X158831009Y-104738095D02*
X158878628Y-104833333D01*
X158878628Y-104833333D02*
X158878628Y-105214285D01*
X159354819Y-103690476D02*
X159354819Y-104261904D01*
X159354819Y-103976190D02*
X158354819Y-103976190D01*
X158354819Y-103976190D02*
X158497676Y-104071428D01*
X158497676Y-104071428D02*
X158592914Y-104166666D01*
X158592914Y-104166666D02*
X158640533Y-104261904D01*
X158783390Y-103119047D02*
X158735771Y-103214285D01*
X158735771Y-103214285D02*
X158688152Y-103261904D01*
X158688152Y-103261904D02*
X158592914Y-103309523D01*
X158592914Y-103309523D02*
X158545295Y-103309523D01*
X158545295Y-103309523D02*
X158450057Y-103261904D01*
X158450057Y-103261904D02*
X158402438Y-103214285D01*
X158402438Y-103214285D02*
X158354819Y-103119047D01*
X158354819Y-103119047D02*
X158354819Y-102928571D01*
X158354819Y-102928571D02*
X158402438Y-102833333D01*
X158402438Y-102833333D02*
X158450057Y-102785714D01*
X158450057Y-102785714D02*
X158545295Y-102738095D01*
X158545295Y-102738095D02*
X158592914Y-102738095D01*
X158592914Y-102738095D02*
X158688152Y-102785714D01*
X158688152Y-102785714D02*
X158735771Y-102833333D01*
X158735771Y-102833333D02*
X158783390Y-102928571D01*
X158783390Y-102928571D02*
X158783390Y-103119047D01*
X158783390Y-103119047D02*
X158831009Y-103214285D01*
X158831009Y-103214285D02*
X158878628Y-103261904D01*
X158878628Y-103261904D02*
X158973866Y-103309523D01*
X158973866Y-103309523D02*
X159164342Y-103309523D01*
X159164342Y-103309523D02*
X159259580Y-103261904D01*
X159259580Y-103261904D02*
X159307200Y-103214285D01*
X159307200Y-103214285D02*
X159354819Y-103119047D01*
X159354819Y-103119047D02*
X159354819Y-102928571D01*
X159354819Y-102928571D02*
X159307200Y-102833333D01*
X159307200Y-102833333D02*
X159259580Y-102785714D01*
X159259580Y-102785714D02*
X159164342Y-102738095D01*
X159164342Y-102738095D02*
X158973866Y-102738095D01*
X158973866Y-102738095D02*
X158878628Y-102785714D01*
X158878628Y-102785714D02*
X158831009Y-102833333D01*
X158831009Y-102833333D02*
X158783390Y-102928571D01*
X103533333Y-116954819D02*
X103200000Y-116478628D01*
X102961905Y-116954819D02*
X102961905Y-115954819D01*
X102961905Y-115954819D02*
X103342857Y-115954819D01*
X103342857Y-115954819D02*
X103438095Y-116002438D01*
X103438095Y-116002438D02*
X103485714Y-116050057D01*
X103485714Y-116050057D02*
X103533333Y-116145295D01*
X103533333Y-116145295D02*
X103533333Y-116288152D01*
X103533333Y-116288152D02*
X103485714Y-116383390D01*
X103485714Y-116383390D02*
X103438095Y-116431009D01*
X103438095Y-116431009D02*
X103342857Y-116478628D01*
X103342857Y-116478628D02*
X102961905Y-116478628D01*
X103866667Y-115954819D02*
X104485714Y-115954819D01*
X104485714Y-115954819D02*
X104152381Y-116335771D01*
X104152381Y-116335771D02*
X104295238Y-116335771D01*
X104295238Y-116335771D02*
X104390476Y-116383390D01*
X104390476Y-116383390D02*
X104438095Y-116431009D01*
X104438095Y-116431009D02*
X104485714Y-116526247D01*
X104485714Y-116526247D02*
X104485714Y-116764342D01*
X104485714Y-116764342D02*
X104438095Y-116859580D01*
X104438095Y-116859580D02*
X104390476Y-116907200D01*
X104390476Y-116907200D02*
X104295238Y-116954819D01*
X104295238Y-116954819D02*
X104009524Y-116954819D01*
X104009524Y-116954819D02*
X103914286Y-116907200D01*
X103914286Y-116907200D02*
X103866667Y-116859580D01*
X100233333Y-114954819D02*
X99900000Y-114478628D01*
X99661905Y-114954819D02*
X99661905Y-113954819D01*
X99661905Y-113954819D02*
X100042857Y-113954819D01*
X100042857Y-113954819D02*
X100138095Y-114002438D01*
X100138095Y-114002438D02*
X100185714Y-114050057D01*
X100185714Y-114050057D02*
X100233333Y-114145295D01*
X100233333Y-114145295D02*
X100233333Y-114288152D01*
X100233333Y-114288152D02*
X100185714Y-114383390D01*
X100185714Y-114383390D02*
X100138095Y-114431009D01*
X100138095Y-114431009D02*
X100042857Y-114478628D01*
X100042857Y-114478628D02*
X99661905Y-114478628D01*
X101090476Y-113954819D02*
X100900000Y-113954819D01*
X100900000Y-113954819D02*
X100804762Y-114002438D01*
X100804762Y-114002438D02*
X100757143Y-114050057D01*
X100757143Y-114050057D02*
X100661905Y-114192914D01*
X100661905Y-114192914D02*
X100614286Y-114383390D01*
X100614286Y-114383390D02*
X100614286Y-114764342D01*
X100614286Y-114764342D02*
X100661905Y-114859580D01*
X100661905Y-114859580D02*
X100709524Y-114907200D01*
X100709524Y-114907200D02*
X100804762Y-114954819D01*
X100804762Y-114954819D02*
X100995238Y-114954819D01*
X100995238Y-114954819D02*
X101090476Y-114907200D01*
X101090476Y-114907200D02*
X101138095Y-114859580D01*
X101138095Y-114859580D02*
X101185714Y-114764342D01*
X101185714Y-114764342D02*
X101185714Y-114526247D01*
X101185714Y-114526247D02*
X101138095Y-114431009D01*
X101138095Y-114431009D02*
X101090476Y-114383390D01*
X101090476Y-114383390D02*
X100995238Y-114335771D01*
X100995238Y-114335771D02*
X100804762Y-114335771D01*
X100804762Y-114335771D02*
X100709524Y-114383390D01*
X100709524Y-114383390D02*
X100661905Y-114431009D01*
X100661905Y-114431009D02*
X100614286Y-114526247D01*
X160357142Y-121109580D02*
X160309523Y-121157200D01*
X160309523Y-121157200D02*
X160166666Y-121204819D01*
X160166666Y-121204819D02*
X160071428Y-121204819D01*
X160071428Y-121204819D02*
X159928571Y-121157200D01*
X159928571Y-121157200D02*
X159833333Y-121061961D01*
X159833333Y-121061961D02*
X159785714Y-120966723D01*
X159785714Y-120966723D02*
X159738095Y-120776247D01*
X159738095Y-120776247D02*
X159738095Y-120633390D01*
X159738095Y-120633390D02*
X159785714Y-120442914D01*
X159785714Y-120442914D02*
X159833333Y-120347676D01*
X159833333Y-120347676D02*
X159928571Y-120252438D01*
X159928571Y-120252438D02*
X160071428Y-120204819D01*
X160071428Y-120204819D02*
X160166666Y-120204819D01*
X160166666Y-120204819D02*
X160309523Y-120252438D01*
X160309523Y-120252438D02*
X160357142Y-120300057D01*
X161309523Y-121204819D02*
X160738095Y-121204819D01*
X161023809Y-121204819D02*
X161023809Y-120204819D01*
X161023809Y-120204819D02*
X160928571Y-120347676D01*
X160928571Y-120347676D02*
X160833333Y-120442914D01*
X160833333Y-120442914D02*
X160738095Y-120490533D01*
X162261904Y-121204819D02*
X161690476Y-121204819D01*
X161976190Y-121204819D02*
X161976190Y-120204819D01*
X161976190Y-120204819D02*
X161880952Y-120347676D01*
X161880952Y-120347676D02*
X161785714Y-120442914D01*
X161785714Y-120442914D02*
X161690476Y-120490533D01*
D11*
X159861905Y-104857419D02*
X160433333Y-104857419D01*
X160147619Y-105857419D02*
X160147619Y-104857419D01*
X160766667Y-105857419D02*
X160766667Y-104857419D01*
X160766667Y-104857419D02*
X161147619Y-104857419D01*
X161147619Y-104857419D02*
X161242857Y-104905038D01*
X161242857Y-104905038D02*
X161290476Y-104952657D01*
X161290476Y-104952657D02*
X161338095Y-105047895D01*
X161338095Y-105047895D02*
X161338095Y-105190752D01*
X161338095Y-105190752D02*
X161290476Y-105285990D01*
X161290476Y-105285990D02*
X161242857Y-105333609D01*
X161242857Y-105333609D02*
X161147619Y-105381228D01*
X161147619Y-105381228D02*
X160766667Y-105381228D01*
X162290476Y-105857419D02*
X161719048Y-105857419D01*
X162004762Y-105857419D02*
X162004762Y-104857419D01*
X162004762Y-104857419D02*
X161909524Y-105000276D01*
X161909524Y-105000276D02*
X161814286Y-105095514D01*
X161814286Y-105095514D02*
X161719048Y-105143133D01*
X162766667Y-105857419D02*
X162957143Y-105857419D01*
X162957143Y-105857419D02*
X163052381Y-105809800D01*
X163052381Y-105809800D02*
X163100000Y-105762180D01*
X163100000Y-105762180D02*
X163195238Y-105619323D01*
X163195238Y-105619323D02*
X163242857Y-105428847D01*
X163242857Y-105428847D02*
X163242857Y-105047895D01*
X163242857Y-105047895D02*
X163195238Y-104952657D01*
X163195238Y-104952657D02*
X163147619Y-104905038D01*
X163147619Y-104905038D02*
X163052381Y-104857419D01*
X163052381Y-104857419D02*
X162861905Y-104857419D01*
X162861905Y-104857419D02*
X162766667Y-104905038D01*
X162766667Y-104905038D02*
X162719048Y-104952657D01*
X162719048Y-104952657D02*
X162671429Y-105047895D01*
X162671429Y-105047895D02*
X162671429Y-105285990D01*
X162671429Y-105285990D02*
X162719048Y-105381228D01*
X162719048Y-105381228D02*
X162766667Y-105428847D01*
X162766667Y-105428847D02*
X162861905Y-105476466D01*
X162861905Y-105476466D02*
X163052381Y-105476466D01*
X163052381Y-105476466D02*
X163147619Y-105428847D01*
X163147619Y-105428847D02*
X163195238Y-105381228D01*
X163195238Y-105381228D02*
X163242857Y-105285990D01*
D10*
X145054819Y-98761904D02*
X145864342Y-98761904D01*
X145864342Y-98761904D02*
X145959580Y-98714285D01*
X145959580Y-98714285D02*
X146007200Y-98666666D01*
X146007200Y-98666666D02*
X146054819Y-98571428D01*
X146054819Y-98571428D02*
X146054819Y-98380952D01*
X146054819Y-98380952D02*
X146007200Y-98285714D01*
X146007200Y-98285714D02*
X145959580Y-98238095D01*
X145959580Y-98238095D02*
X145864342Y-98190476D01*
X145864342Y-98190476D02*
X145054819Y-98190476D01*
X145388152Y-97285714D02*
X146054819Y-97285714D01*
X145007200Y-97523809D02*
X145721485Y-97761904D01*
X145721485Y-97761904D02*
X145721485Y-97142857D01*
X156357142Y-119109580D02*
X156309523Y-119157200D01*
X156309523Y-119157200D02*
X156166666Y-119204819D01*
X156166666Y-119204819D02*
X156071428Y-119204819D01*
X156071428Y-119204819D02*
X155928571Y-119157200D01*
X155928571Y-119157200D02*
X155833333Y-119061961D01*
X155833333Y-119061961D02*
X155785714Y-118966723D01*
X155785714Y-118966723D02*
X155738095Y-118776247D01*
X155738095Y-118776247D02*
X155738095Y-118633390D01*
X155738095Y-118633390D02*
X155785714Y-118442914D01*
X155785714Y-118442914D02*
X155833333Y-118347676D01*
X155833333Y-118347676D02*
X155928571Y-118252438D01*
X155928571Y-118252438D02*
X156071428Y-118204819D01*
X156071428Y-118204819D02*
X156166666Y-118204819D01*
X156166666Y-118204819D02*
X156309523Y-118252438D01*
X156309523Y-118252438D02*
X156357142Y-118300057D01*
X157309523Y-119204819D02*
X156738095Y-119204819D01*
X157023809Y-119204819D02*
X157023809Y-118204819D01*
X157023809Y-118204819D02*
X156928571Y-118347676D01*
X156928571Y-118347676D02*
X156833333Y-118442914D01*
X156833333Y-118442914D02*
X156738095Y-118490533D01*
X157690476Y-118300057D02*
X157738095Y-118252438D01*
X157738095Y-118252438D02*
X157833333Y-118204819D01*
X157833333Y-118204819D02*
X158071428Y-118204819D01*
X158071428Y-118204819D02*
X158166666Y-118252438D01*
X158166666Y-118252438D02*
X158214285Y-118300057D01*
X158214285Y-118300057D02*
X158261904Y-118395295D01*
X158261904Y-118395295D02*
X158261904Y-118490533D01*
X158261904Y-118490533D02*
X158214285Y-118633390D01*
X158214285Y-118633390D02*
X157642857Y-119204819D01*
X157642857Y-119204819D02*
X158261904Y-119204819D01*
X92666666Y-71454819D02*
X92666666Y-72169104D01*
X92666666Y-72169104D02*
X92619047Y-72311961D01*
X92619047Y-72311961D02*
X92523809Y-72407200D01*
X92523809Y-72407200D02*
X92380952Y-72454819D01*
X92380952Y-72454819D02*
X92285714Y-72454819D01*
X93285714Y-71883390D02*
X93190476Y-71835771D01*
X93190476Y-71835771D02*
X93142857Y-71788152D01*
X93142857Y-71788152D02*
X93095238Y-71692914D01*
X93095238Y-71692914D02*
X93095238Y-71645295D01*
X93095238Y-71645295D02*
X93142857Y-71550057D01*
X93142857Y-71550057D02*
X93190476Y-71502438D01*
X93190476Y-71502438D02*
X93285714Y-71454819D01*
X93285714Y-71454819D02*
X93476190Y-71454819D01*
X93476190Y-71454819D02*
X93571428Y-71502438D01*
X93571428Y-71502438D02*
X93619047Y-71550057D01*
X93619047Y-71550057D02*
X93666666Y-71645295D01*
X93666666Y-71645295D02*
X93666666Y-71692914D01*
X93666666Y-71692914D02*
X93619047Y-71788152D01*
X93619047Y-71788152D02*
X93571428Y-71835771D01*
X93571428Y-71835771D02*
X93476190Y-71883390D01*
X93476190Y-71883390D02*
X93285714Y-71883390D01*
X93285714Y-71883390D02*
X93190476Y-71931009D01*
X93190476Y-71931009D02*
X93142857Y-71978628D01*
X93142857Y-71978628D02*
X93095238Y-72073866D01*
X93095238Y-72073866D02*
X93095238Y-72264342D01*
X93095238Y-72264342D02*
X93142857Y-72359580D01*
X93142857Y-72359580D02*
X93190476Y-72407200D01*
X93190476Y-72407200D02*
X93285714Y-72454819D01*
X93285714Y-72454819D02*
X93476190Y-72454819D01*
X93476190Y-72454819D02*
X93571428Y-72407200D01*
X93571428Y-72407200D02*
X93619047Y-72359580D01*
X93619047Y-72359580D02*
X93666666Y-72264342D01*
X93666666Y-72264342D02*
X93666666Y-72073866D01*
X93666666Y-72073866D02*
X93619047Y-71978628D01*
X93619047Y-71978628D02*
X93571428Y-71931009D01*
X93571428Y-71931009D02*
X93476190Y-71883390D01*
X100761905Y-88454819D02*
X100761905Y-87454819D01*
X100761905Y-87454819D02*
X101000000Y-87454819D01*
X101000000Y-87454819D02*
X101142857Y-87502438D01*
X101142857Y-87502438D02*
X101238095Y-87597676D01*
X101238095Y-87597676D02*
X101285714Y-87692914D01*
X101285714Y-87692914D02*
X101333333Y-87883390D01*
X101333333Y-87883390D02*
X101333333Y-88026247D01*
X101333333Y-88026247D02*
X101285714Y-88216723D01*
X101285714Y-88216723D02*
X101238095Y-88311961D01*
X101238095Y-88311961D02*
X101142857Y-88407200D01*
X101142857Y-88407200D02*
X101000000Y-88454819D01*
X101000000Y-88454819D02*
X100761905Y-88454819D01*
X101666667Y-87454819D02*
X102285714Y-87454819D01*
X102285714Y-87454819D02*
X101952381Y-87835771D01*
X101952381Y-87835771D02*
X102095238Y-87835771D01*
X102095238Y-87835771D02*
X102190476Y-87883390D01*
X102190476Y-87883390D02*
X102238095Y-87931009D01*
X102238095Y-87931009D02*
X102285714Y-88026247D01*
X102285714Y-88026247D02*
X102285714Y-88264342D01*
X102285714Y-88264342D02*
X102238095Y-88359580D01*
X102238095Y-88359580D02*
X102190476Y-88407200D01*
X102190476Y-88407200D02*
X102095238Y-88454819D01*
X102095238Y-88454819D02*
X101809524Y-88454819D01*
X101809524Y-88454819D02*
X101714286Y-88407200D01*
X101714286Y-88407200D02*
X101666667Y-88359580D01*
X100033333Y-109159580D02*
X99985714Y-109207200D01*
X99985714Y-109207200D02*
X99842857Y-109254819D01*
X99842857Y-109254819D02*
X99747619Y-109254819D01*
X99747619Y-109254819D02*
X99604762Y-109207200D01*
X99604762Y-109207200D02*
X99509524Y-109111961D01*
X99509524Y-109111961D02*
X99461905Y-109016723D01*
X99461905Y-109016723D02*
X99414286Y-108826247D01*
X99414286Y-108826247D02*
X99414286Y-108683390D01*
X99414286Y-108683390D02*
X99461905Y-108492914D01*
X99461905Y-108492914D02*
X99509524Y-108397676D01*
X99509524Y-108397676D02*
X99604762Y-108302438D01*
X99604762Y-108302438D02*
X99747619Y-108254819D01*
X99747619Y-108254819D02*
X99842857Y-108254819D01*
X99842857Y-108254819D02*
X99985714Y-108302438D01*
X99985714Y-108302438D02*
X100033333Y-108350057D01*
X100938095Y-108254819D02*
X100461905Y-108254819D01*
X100461905Y-108254819D02*
X100414286Y-108731009D01*
X100414286Y-108731009D02*
X100461905Y-108683390D01*
X100461905Y-108683390D02*
X100557143Y-108635771D01*
X100557143Y-108635771D02*
X100795238Y-108635771D01*
X100795238Y-108635771D02*
X100890476Y-108683390D01*
X100890476Y-108683390D02*
X100938095Y-108731009D01*
X100938095Y-108731009D02*
X100985714Y-108826247D01*
X100985714Y-108826247D02*
X100985714Y-109064342D01*
X100985714Y-109064342D02*
X100938095Y-109159580D01*
X100938095Y-109159580D02*
X100890476Y-109207200D01*
X100890476Y-109207200D02*
X100795238Y-109254819D01*
X100795238Y-109254819D02*
X100557143Y-109254819D01*
X100557143Y-109254819D02*
X100461905Y-109207200D01*
X100461905Y-109207200D02*
X100414286Y-109159580D01*
X131396666Y-103324819D02*
X131396666Y-104039104D01*
X131396666Y-104039104D02*
X131349047Y-104181961D01*
X131349047Y-104181961D02*
X131253809Y-104277200D01*
X131253809Y-104277200D02*
X131110952Y-104324819D01*
X131110952Y-104324819D02*
X131015714Y-104324819D01*
X132396666Y-104324819D02*
X131825238Y-104324819D01*
X132110952Y-104324819D02*
X132110952Y-103324819D01*
X132110952Y-103324819D02*
X132015714Y-103467676D01*
X132015714Y-103467676D02*
X131920476Y-103562914D01*
X131920476Y-103562914D02*
X131825238Y-103610533D01*
X144559580Y-94842857D02*
X144607200Y-94890476D01*
X144607200Y-94890476D02*
X144654819Y-95033333D01*
X144654819Y-95033333D02*
X144654819Y-95128571D01*
X144654819Y-95128571D02*
X144607200Y-95271428D01*
X144607200Y-95271428D02*
X144511961Y-95366666D01*
X144511961Y-95366666D02*
X144416723Y-95414285D01*
X144416723Y-95414285D02*
X144226247Y-95461904D01*
X144226247Y-95461904D02*
X144083390Y-95461904D01*
X144083390Y-95461904D02*
X143892914Y-95414285D01*
X143892914Y-95414285D02*
X143797676Y-95366666D01*
X143797676Y-95366666D02*
X143702438Y-95271428D01*
X143702438Y-95271428D02*
X143654819Y-95128571D01*
X143654819Y-95128571D02*
X143654819Y-95033333D01*
X143654819Y-95033333D02*
X143702438Y-94890476D01*
X143702438Y-94890476D02*
X143750057Y-94842857D01*
X144654819Y-93890476D02*
X144654819Y-94461904D01*
X144654819Y-94176190D02*
X143654819Y-94176190D01*
X143654819Y-94176190D02*
X143797676Y-94271428D01*
X143797676Y-94271428D02*
X143892914Y-94366666D01*
X143892914Y-94366666D02*
X143940533Y-94461904D01*
X144654819Y-93414285D02*
X144654819Y-93223809D01*
X144654819Y-93223809D02*
X144607200Y-93128571D01*
X144607200Y-93128571D02*
X144559580Y-93080952D01*
X144559580Y-93080952D02*
X144416723Y-92985714D01*
X144416723Y-92985714D02*
X144226247Y-92938095D01*
X144226247Y-92938095D02*
X143845295Y-92938095D01*
X143845295Y-92938095D02*
X143750057Y-92985714D01*
X143750057Y-92985714D02*
X143702438Y-93033333D01*
X143702438Y-93033333D02*
X143654819Y-93128571D01*
X143654819Y-93128571D02*
X143654819Y-93319047D01*
X143654819Y-93319047D02*
X143702438Y-93414285D01*
X143702438Y-93414285D02*
X143750057Y-93461904D01*
X143750057Y-93461904D02*
X143845295Y-93509523D01*
X143845295Y-93509523D02*
X144083390Y-93509523D01*
X144083390Y-93509523D02*
X144178628Y-93461904D01*
X144178628Y-93461904D02*
X144226247Y-93414285D01*
X144226247Y-93414285D02*
X144273866Y-93319047D01*
X144273866Y-93319047D02*
X144273866Y-93128571D01*
X144273866Y-93128571D02*
X144226247Y-93033333D01*
X144226247Y-93033333D02*
X144178628Y-92985714D01*
X144178628Y-92985714D02*
X144083390Y-92938095D01*
X107457142Y-102754819D02*
X107123809Y-102278628D01*
X106885714Y-102754819D02*
X106885714Y-101754819D01*
X106885714Y-101754819D02*
X107266666Y-101754819D01*
X107266666Y-101754819D02*
X107361904Y-101802438D01*
X107361904Y-101802438D02*
X107409523Y-101850057D01*
X107409523Y-101850057D02*
X107457142Y-101945295D01*
X107457142Y-101945295D02*
X107457142Y-102088152D01*
X107457142Y-102088152D02*
X107409523Y-102183390D01*
X107409523Y-102183390D02*
X107361904Y-102231009D01*
X107361904Y-102231009D02*
X107266666Y-102278628D01*
X107266666Y-102278628D02*
X106885714Y-102278628D01*
X107790476Y-101754819D02*
X108409523Y-101754819D01*
X108409523Y-101754819D02*
X108076190Y-102135771D01*
X108076190Y-102135771D02*
X108219047Y-102135771D01*
X108219047Y-102135771D02*
X108314285Y-102183390D01*
X108314285Y-102183390D02*
X108361904Y-102231009D01*
X108361904Y-102231009D02*
X108409523Y-102326247D01*
X108409523Y-102326247D02*
X108409523Y-102564342D01*
X108409523Y-102564342D02*
X108361904Y-102659580D01*
X108361904Y-102659580D02*
X108314285Y-102707200D01*
X108314285Y-102707200D02*
X108219047Y-102754819D01*
X108219047Y-102754819D02*
X107933333Y-102754819D01*
X107933333Y-102754819D02*
X107838095Y-102707200D01*
X107838095Y-102707200D02*
X107790476Y-102659580D01*
X109266666Y-101754819D02*
X109076190Y-101754819D01*
X109076190Y-101754819D02*
X108980952Y-101802438D01*
X108980952Y-101802438D02*
X108933333Y-101850057D01*
X108933333Y-101850057D02*
X108838095Y-101992914D01*
X108838095Y-101992914D02*
X108790476Y-102183390D01*
X108790476Y-102183390D02*
X108790476Y-102564342D01*
X108790476Y-102564342D02*
X108838095Y-102659580D01*
X108838095Y-102659580D02*
X108885714Y-102707200D01*
X108885714Y-102707200D02*
X108980952Y-102754819D01*
X108980952Y-102754819D02*
X109171428Y-102754819D01*
X109171428Y-102754819D02*
X109266666Y-102707200D01*
X109266666Y-102707200D02*
X109314285Y-102659580D01*
X109314285Y-102659580D02*
X109361904Y-102564342D01*
X109361904Y-102564342D02*
X109361904Y-102326247D01*
X109361904Y-102326247D02*
X109314285Y-102231009D01*
X109314285Y-102231009D02*
X109266666Y-102183390D01*
X109266666Y-102183390D02*
X109171428Y-102135771D01*
X109171428Y-102135771D02*
X108980952Y-102135771D01*
X108980952Y-102135771D02*
X108885714Y-102183390D01*
X108885714Y-102183390D02*
X108838095Y-102231009D01*
X108838095Y-102231009D02*
X108790476Y-102326247D01*
D11*
X144038095Y-110857419D02*
X144609523Y-110857419D01*
X144323809Y-111857419D02*
X144323809Y-110857419D01*
X144942857Y-111857419D02*
X144942857Y-110857419D01*
X144942857Y-110857419D02*
X145323809Y-110857419D01*
X145323809Y-110857419D02*
X145419047Y-110905038D01*
X145419047Y-110905038D02*
X145466666Y-110952657D01*
X145466666Y-110952657D02*
X145514285Y-111047895D01*
X145514285Y-111047895D02*
X145514285Y-111190752D01*
X145514285Y-111190752D02*
X145466666Y-111285990D01*
X145466666Y-111285990D02*
X145419047Y-111333609D01*
X145419047Y-111333609D02*
X145323809Y-111381228D01*
X145323809Y-111381228D02*
X144942857Y-111381228D01*
X146371428Y-111190752D02*
X146371428Y-111857419D01*
X146133333Y-110809800D02*
X145895238Y-111524085D01*
X145895238Y-111524085D02*
X146514285Y-111524085D01*
D10*
X165961666Y-115131009D02*
X165628333Y-115131009D01*
X165628333Y-115654819D02*
X165628333Y-114654819D01*
X165628333Y-114654819D02*
X166104523Y-114654819D01*
X167009285Y-115654819D02*
X166437857Y-115654819D01*
X166723571Y-115654819D02*
X166723571Y-114654819D01*
X166723571Y-114654819D02*
X166628333Y-114797676D01*
X166628333Y-114797676D02*
X166533095Y-114892914D01*
X166533095Y-114892914D02*
X166437857Y-114940533D01*
X171461905Y-89254819D02*
X171461905Y-88254819D01*
X171461905Y-88254819D02*
X171700000Y-88254819D01*
X171700000Y-88254819D02*
X171842857Y-88302438D01*
X171842857Y-88302438D02*
X171938095Y-88397676D01*
X171938095Y-88397676D02*
X171985714Y-88492914D01*
X171985714Y-88492914D02*
X172033333Y-88683390D01*
X172033333Y-88683390D02*
X172033333Y-88826247D01*
X172033333Y-88826247D02*
X171985714Y-89016723D01*
X171985714Y-89016723D02*
X171938095Y-89111961D01*
X171938095Y-89111961D02*
X171842857Y-89207200D01*
X171842857Y-89207200D02*
X171700000Y-89254819D01*
X171700000Y-89254819D02*
X171461905Y-89254819D01*
X172366667Y-88254819D02*
X173033333Y-88254819D01*
X173033333Y-88254819D02*
X172604762Y-89254819D01*
D11*
X168361905Y-101857419D02*
X168933333Y-101857419D01*
X168647619Y-102857419D02*
X168647619Y-101857419D01*
X169266667Y-102857419D02*
X169266667Y-101857419D01*
X169266667Y-101857419D02*
X169647619Y-101857419D01*
X169647619Y-101857419D02*
X169742857Y-101905038D01*
X169742857Y-101905038D02*
X169790476Y-101952657D01*
X169790476Y-101952657D02*
X169838095Y-102047895D01*
X169838095Y-102047895D02*
X169838095Y-102190752D01*
X169838095Y-102190752D02*
X169790476Y-102285990D01*
X169790476Y-102285990D02*
X169742857Y-102333609D01*
X169742857Y-102333609D02*
X169647619Y-102381228D01*
X169647619Y-102381228D02*
X169266667Y-102381228D01*
X170790476Y-102857419D02*
X170219048Y-102857419D01*
X170504762Y-102857419D02*
X170504762Y-101857419D01*
X170504762Y-101857419D02*
X170409524Y-102000276D01*
X170409524Y-102000276D02*
X170314286Y-102095514D01*
X170314286Y-102095514D02*
X170219048Y-102143133D01*
X171361905Y-102285990D02*
X171266667Y-102238371D01*
X171266667Y-102238371D02*
X171219048Y-102190752D01*
X171219048Y-102190752D02*
X171171429Y-102095514D01*
X171171429Y-102095514D02*
X171171429Y-102047895D01*
X171171429Y-102047895D02*
X171219048Y-101952657D01*
X171219048Y-101952657D02*
X171266667Y-101905038D01*
X171266667Y-101905038D02*
X171361905Y-101857419D01*
X171361905Y-101857419D02*
X171552381Y-101857419D01*
X171552381Y-101857419D02*
X171647619Y-101905038D01*
X171647619Y-101905038D02*
X171695238Y-101952657D01*
X171695238Y-101952657D02*
X171742857Y-102047895D01*
X171742857Y-102047895D02*
X171742857Y-102095514D01*
X171742857Y-102095514D02*
X171695238Y-102190752D01*
X171695238Y-102190752D02*
X171647619Y-102238371D01*
X171647619Y-102238371D02*
X171552381Y-102285990D01*
X171552381Y-102285990D02*
X171361905Y-102285990D01*
X171361905Y-102285990D02*
X171266667Y-102333609D01*
X171266667Y-102333609D02*
X171219048Y-102381228D01*
X171219048Y-102381228D02*
X171171429Y-102476466D01*
X171171429Y-102476466D02*
X171171429Y-102666942D01*
X171171429Y-102666942D02*
X171219048Y-102762180D01*
X171219048Y-102762180D02*
X171266667Y-102809800D01*
X171266667Y-102809800D02*
X171361905Y-102857419D01*
X171361905Y-102857419D02*
X171552381Y-102857419D01*
X171552381Y-102857419D02*
X171647619Y-102809800D01*
X171647619Y-102809800D02*
X171695238Y-102762180D01*
X171695238Y-102762180D02*
X171742857Y-102666942D01*
X171742857Y-102666942D02*
X171742857Y-102476466D01*
X171742857Y-102476466D02*
X171695238Y-102381228D01*
X171695238Y-102381228D02*
X171647619Y-102333609D01*
X171647619Y-102333609D02*
X171552381Y-102285990D01*
D10*
X115738095Y-119854819D02*
X115738095Y-120664342D01*
X115738095Y-120664342D02*
X115785714Y-120759580D01*
X115785714Y-120759580D02*
X115833333Y-120807200D01*
X115833333Y-120807200D02*
X115928571Y-120854819D01*
X115928571Y-120854819D02*
X116119047Y-120854819D01*
X116119047Y-120854819D02*
X116214285Y-120807200D01*
X116214285Y-120807200D02*
X116261904Y-120759580D01*
X116261904Y-120759580D02*
X116309523Y-120664342D01*
X116309523Y-120664342D02*
X116309523Y-119854819D01*
X116833333Y-120854819D02*
X117023809Y-120854819D01*
X117023809Y-120854819D02*
X117119047Y-120807200D01*
X117119047Y-120807200D02*
X117166666Y-120759580D01*
X117166666Y-120759580D02*
X117261904Y-120616723D01*
X117261904Y-120616723D02*
X117309523Y-120426247D01*
X117309523Y-120426247D02*
X117309523Y-120045295D01*
X117309523Y-120045295D02*
X117261904Y-119950057D01*
X117261904Y-119950057D02*
X117214285Y-119902438D01*
X117214285Y-119902438D02*
X117119047Y-119854819D01*
X117119047Y-119854819D02*
X116928571Y-119854819D01*
X116928571Y-119854819D02*
X116833333Y-119902438D01*
X116833333Y-119902438D02*
X116785714Y-119950057D01*
X116785714Y-119950057D02*
X116738095Y-120045295D01*
X116738095Y-120045295D02*
X116738095Y-120283390D01*
X116738095Y-120283390D02*
X116785714Y-120378628D01*
X116785714Y-120378628D02*
X116833333Y-120426247D01*
X116833333Y-120426247D02*
X116928571Y-120473866D01*
X116928571Y-120473866D02*
X117119047Y-120473866D01*
X117119047Y-120473866D02*
X117214285Y-120426247D01*
X117214285Y-120426247D02*
X117261904Y-120378628D01*
X117261904Y-120378628D02*
X117309523Y-120283390D01*
X107357142Y-99454819D02*
X107023809Y-98978628D01*
X106785714Y-99454819D02*
X106785714Y-98454819D01*
X106785714Y-98454819D02*
X107166666Y-98454819D01*
X107166666Y-98454819D02*
X107261904Y-98502438D01*
X107261904Y-98502438D02*
X107309523Y-98550057D01*
X107309523Y-98550057D02*
X107357142Y-98645295D01*
X107357142Y-98645295D02*
X107357142Y-98788152D01*
X107357142Y-98788152D02*
X107309523Y-98883390D01*
X107309523Y-98883390D02*
X107261904Y-98931009D01*
X107261904Y-98931009D02*
X107166666Y-98978628D01*
X107166666Y-98978628D02*
X106785714Y-98978628D01*
X107690476Y-98454819D02*
X108309523Y-98454819D01*
X108309523Y-98454819D02*
X107976190Y-98835771D01*
X107976190Y-98835771D02*
X108119047Y-98835771D01*
X108119047Y-98835771D02*
X108214285Y-98883390D01*
X108214285Y-98883390D02*
X108261904Y-98931009D01*
X108261904Y-98931009D02*
X108309523Y-99026247D01*
X108309523Y-99026247D02*
X108309523Y-99264342D01*
X108309523Y-99264342D02*
X108261904Y-99359580D01*
X108261904Y-99359580D02*
X108214285Y-99407200D01*
X108214285Y-99407200D02*
X108119047Y-99454819D01*
X108119047Y-99454819D02*
X107833333Y-99454819D01*
X107833333Y-99454819D02*
X107738095Y-99407200D01*
X107738095Y-99407200D02*
X107690476Y-99359580D01*
X109214285Y-98454819D02*
X108738095Y-98454819D01*
X108738095Y-98454819D02*
X108690476Y-98931009D01*
X108690476Y-98931009D02*
X108738095Y-98883390D01*
X108738095Y-98883390D02*
X108833333Y-98835771D01*
X108833333Y-98835771D02*
X109071428Y-98835771D01*
X109071428Y-98835771D02*
X109166666Y-98883390D01*
X109166666Y-98883390D02*
X109214285Y-98931009D01*
X109214285Y-98931009D02*
X109261904Y-99026247D01*
X109261904Y-99026247D02*
X109261904Y-99264342D01*
X109261904Y-99264342D02*
X109214285Y-99359580D01*
X109214285Y-99359580D02*
X109166666Y-99407200D01*
X109166666Y-99407200D02*
X109071428Y-99454819D01*
X109071428Y-99454819D02*
X108833333Y-99454819D01*
X108833333Y-99454819D02*
X108738095Y-99407200D01*
X108738095Y-99407200D02*
X108690476Y-99359580D01*
X142954819Y-85392857D02*
X142478628Y-85726190D01*
X142954819Y-85964285D02*
X141954819Y-85964285D01*
X141954819Y-85964285D02*
X141954819Y-85583333D01*
X141954819Y-85583333D02*
X142002438Y-85488095D01*
X142002438Y-85488095D02*
X142050057Y-85440476D01*
X142050057Y-85440476D02*
X142145295Y-85392857D01*
X142145295Y-85392857D02*
X142288152Y-85392857D01*
X142288152Y-85392857D02*
X142383390Y-85440476D01*
X142383390Y-85440476D02*
X142431009Y-85488095D01*
X142431009Y-85488095D02*
X142478628Y-85583333D01*
X142478628Y-85583333D02*
X142478628Y-85964285D01*
X142288152Y-84535714D02*
X142954819Y-84535714D01*
X141907200Y-84773809D02*
X142621485Y-85011904D01*
X142621485Y-85011904D02*
X142621485Y-84392857D01*
X141954819Y-84107142D02*
X141954819Y-83440476D01*
X141954819Y-83440476D02*
X142954819Y-83869047D01*
X132754112Y-88366666D02*
X132277921Y-88699999D01*
X132754112Y-88938094D02*
X131754112Y-88938094D01*
X131754112Y-88938094D02*
X131754112Y-88557142D01*
X131754112Y-88557142D02*
X131801731Y-88461904D01*
X131801731Y-88461904D02*
X131849350Y-88414285D01*
X131849350Y-88414285D02*
X131944588Y-88366666D01*
X131944588Y-88366666D02*
X132087445Y-88366666D01*
X132087445Y-88366666D02*
X132182683Y-88414285D01*
X132182683Y-88414285D02*
X132230302Y-88461904D01*
X132230302Y-88461904D02*
X132277921Y-88557142D01*
X132277921Y-88557142D02*
X132277921Y-88938094D01*
X131754112Y-87461904D02*
X131754112Y-87938094D01*
X131754112Y-87938094D02*
X132230302Y-87985713D01*
X132230302Y-87985713D02*
X132182683Y-87938094D01*
X132182683Y-87938094D02*
X132135064Y-87842856D01*
X132135064Y-87842856D02*
X132135064Y-87604761D01*
X132135064Y-87604761D02*
X132182683Y-87509523D01*
X132182683Y-87509523D02*
X132230302Y-87461904D01*
X132230302Y-87461904D02*
X132325540Y-87414285D01*
X132325540Y-87414285D02*
X132563635Y-87414285D01*
X132563635Y-87414285D02*
X132658873Y-87461904D01*
X132658873Y-87461904D02*
X132706493Y-87509523D01*
X132706493Y-87509523D02*
X132754112Y-87604761D01*
X132754112Y-87604761D02*
X132754112Y-87842856D01*
X132754112Y-87842856D02*
X132706493Y-87938094D01*
X132706493Y-87938094D02*
X132658873Y-87985713D01*
X145609580Y-108642857D02*
X145657200Y-108690476D01*
X145657200Y-108690476D02*
X145704819Y-108833333D01*
X145704819Y-108833333D02*
X145704819Y-108928571D01*
X145704819Y-108928571D02*
X145657200Y-109071428D01*
X145657200Y-109071428D02*
X145561961Y-109166666D01*
X145561961Y-109166666D02*
X145466723Y-109214285D01*
X145466723Y-109214285D02*
X145276247Y-109261904D01*
X145276247Y-109261904D02*
X145133390Y-109261904D01*
X145133390Y-109261904D02*
X144942914Y-109214285D01*
X144942914Y-109214285D02*
X144847676Y-109166666D01*
X144847676Y-109166666D02*
X144752438Y-109071428D01*
X144752438Y-109071428D02*
X144704819Y-108928571D01*
X144704819Y-108928571D02*
X144704819Y-108833333D01*
X144704819Y-108833333D02*
X144752438Y-108690476D01*
X144752438Y-108690476D02*
X144800057Y-108642857D01*
X144704819Y-108309523D02*
X144704819Y-107690476D01*
X144704819Y-107690476D02*
X145085771Y-108023809D01*
X145085771Y-108023809D02*
X145085771Y-107880952D01*
X145085771Y-107880952D02*
X145133390Y-107785714D01*
X145133390Y-107785714D02*
X145181009Y-107738095D01*
X145181009Y-107738095D02*
X145276247Y-107690476D01*
X145276247Y-107690476D02*
X145514342Y-107690476D01*
X145514342Y-107690476D02*
X145609580Y-107738095D01*
X145609580Y-107738095D02*
X145657200Y-107785714D01*
X145657200Y-107785714D02*
X145704819Y-107880952D01*
X145704819Y-107880952D02*
X145704819Y-108166666D01*
X145704819Y-108166666D02*
X145657200Y-108261904D01*
X145657200Y-108261904D02*
X145609580Y-108309523D01*
X145704819Y-107214285D02*
X145704819Y-107023809D01*
X145704819Y-107023809D02*
X145657200Y-106928571D01*
X145657200Y-106928571D02*
X145609580Y-106880952D01*
X145609580Y-106880952D02*
X145466723Y-106785714D01*
X145466723Y-106785714D02*
X145276247Y-106738095D01*
X145276247Y-106738095D02*
X144895295Y-106738095D01*
X144895295Y-106738095D02*
X144800057Y-106785714D01*
X144800057Y-106785714D02*
X144752438Y-106833333D01*
X144752438Y-106833333D02*
X144704819Y-106928571D01*
X144704819Y-106928571D02*
X144704819Y-107119047D01*
X144704819Y-107119047D02*
X144752438Y-107214285D01*
X144752438Y-107214285D02*
X144800057Y-107261904D01*
X144800057Y-107261904D02*
X144895295Y-107309523D01*
X144895295Y-107309523D02*
X145133390Y-107309523D01*
X145133390Y-107309523D02*
X145228628Y-107261904D01*
X145228628Y-107261904D02*
X145276247Y-107214285D01*
X145276247Y-107214285D02*
X145323866Y-107119047D01*
X145323866Y-107119047D02*
X145323866Y-106928571D01*
X145323866Y-106928571D02*
X145276247Y-106833333D01*
X145276247Y-106833333D02*
X145228628Y-106785714D01*
X145228628Y-106785714D02*
X145133390Y-106738095D01*
D12*
%TO.C,C4*%
X140147500Y-113294000D02*
X142052500Y-113294000D01*
X142052500Y-113294000D02*
X142052500Y-109611000D01*
X140147500Y-109611000D02*
X140147500Y-113294000D01*
X142052500Y-109611000D02*
X140147500Y-109611000D01*
%TO.C,R9*%
X148405000Y-83499500D02*
X148405000Y-91500500D01*
X144595000Y-83499500D02*
X148405000Y-83499500D01*
X148405000Y-91500500D02*
X144595000Y-91500500D01*
X144595000Y-91500500D02*
X144595000Y-83499500D01*
%TO.C,J7*%
X89920000Y-77670000D02*
X91250000Y-77670000D01*
X89920000Y-79000000D02*
X89920000Y-77670000D01*
X89920000Y-80270000D02*
X89920000Y-85410000D01*
X89920000Y-80270000D02*
X92580000Y-80270000D01*
X89920000Y-85410000D02*
X92580000Y-85410000D01*
X92580000Y-80270000D02*
X92580000Y-85410000D01*
%TO.C,R1*%
X103321078Y-113210000D02*
X102803922Y-113210000D01*
X103321078Y-111790000D02*
X102803922Y-111790000D01*
%TO.C,U5*%
X154570000Y-113500000D02*
X153370000Y-113500000D01*
X154320000Y-113750000D02*
X142550000Y-113750000D01*
X154570000Y-114700000D02*
X154570000Y-113500000D01*
X154320000Y-120090000D02*
X154320000Y-113750000D01*
X154320000Y-120090000D02*
X142550000Y-120090000D01*
X142550000Y-120090000D02*
X142550000Y-113750000D01*
%TO.C,R12*%
X153405000Y-83499500D02*
X153405000Y-91500500D01*
X149595000Y-83499500D02*
X153405000Y-83499500D01*
X153405000Y-91500500D02*
X149595000Y-91500500D01*
X149595000Y-91500500D02*
X149595000Y-83499500D01*
%TO.C,R17*%
X152290000Y-104196078D02*
X152290000Y-103678922D01*
X153710000Y-104196078D02*
X153710000Y-103678922D01*
%TO.C,C6*%
X138408500Y-107297500D02*
X138408500Y-109202500D01*
X138408500Y-109202500D02*
X142091500Y-109202500D01*
X142091500Y-107297500D02*
X138408500Y-107297500D01*
X142091500Y-109202500D02*
X142091500Y-107297500D01*
D11*
%TO.C,J3*%
X106509000Y-70428000D02*
X93809000Y-70428000D01*
X106509000Y-70428000D02*
X106509000Y-83128000D01*
X103969000Y-70428000D02*
X103969000Y-72968000D01*
X101429000Y-70428000D02*
X101429000Y-72968000D01*
X98889000Y-70428000D02*
X98889000Y-72968000D01*
X96349000Y-72968000D02*
X106509000Y-72968000D01*
X106509000Y-83128000D02*
X93809000Y-83128000D01*
X96349000Y-83128000D02*
X96349000Y-70428000D01*
X93809000Y-83128000D02*
X93809000Y-70428000D01*
D12*
%TO.C,C14*%
X162499759Y-109161000D02*
X163129759Y-109161000D01*
X162814759Y-108846000D02*
X162814759Y-109476000D01*
X166000000Y-107770000D02*
X166000000Y-114230000D01*
X166040000Y-107770000D02*
X166040000Y-114230000D01*
X166080000Y-107770000D02*
X166080000Y-114230000D01*
X166120000Y-107772000D02*
X166120000Y-114228000D01*
X166160000Y-107773000D02*
X166160000Y-114227000D01*
X166200000Y-107776000D02*
X166200000Y-114224000D01*
X166240000Y-107778000D02*
X166240000Y-109960000D01*
X166240000Y-112040000D02*
X166240000Y-114222000D01*
X166280000Y-107782000D02*
X166280000Y-109960000D01*
X166280000Y-112040000D02*
X166280000Y-114218000D01*
X166320000Y-107785000D02*
X166320000Y-109960000D01*
X166320000Y-112040000D02*
X166320000Y-114215000D01*
X166360000Y-107789000D02*
X166360000Y-109960000D01*
X166360000Y-112040000D02*
X166360000Y-114211000D01*
X166400000Y-107794000D02*
X166400000Y-109960000D01*
X166400000Y-112040000D02*
X166400000Y-114206000D01*
X166440000Y-107799000D02*
X166440000Y-109960000D01*
X166440000Y-112040000D02*
X166440000Y-114201000D01*
X166480000Y-107805000D02*
X166480000Y-109960000D01*
X166480000Y-112040000D02*
X166480000Y-114195000D01*
X166520000Y-107811000D02*
X166520000Y-109960000D01*
X166520000Y-112040000D02*
X166520000Y-114189000D01*
X166560000Y-107818000D02*
X166560000Y-109960000D01*
X166560000Y-112040000D02*
X166560000Y-114182000D01*
X166600000Y-107825000D02*
X166600000Y-109960000D01*
X166600000Y-112040000D02*
X166600000Y-114175000D01*
X166640000Y-107833000D02*
X166640000Y-109960000D01*
X166640000Y-112040000D02*
X166640000Y-114167000D01*
X166680000Y-107841000D02*
X166680000Y-109960000D01*
X166680000Y-112040000D02*
X166680000Y-114159000D01*
X166721000Y-107850000D02*
X166721000Y-109960000D01*
X166721000Y-112040000D02*
X166721000Y-114150000D01*
X166761000Y-107859000D02*
X166761000Y-109960000D01*
X166761000Y-112040000D02*
X166761000Y-114141000D01*
X166801000Y-107869000D02*
X166801000Y-109960000D01*
X166801000Y-112040000D02*
X166801000Y-114131000D01*
X166841000Y-107879000D02*
X166841000Y-109960000D01*
X166841000Y-112040000D02*
X166841000Y-114121000D01*
X166881000Y-107890000D02*
X166881000Y-109960000D01*
X166881000Y-112040000D02*
X166881000Y-114110000D01*
X166921000Y-107902000D02*
X166921000Y-109960000D01*
X166921000Y-112040000D02*
X166921000Y-114098000D01*
X166961000Y-107914000D02*
X166961000Y-109960000D01*
X166961000Y-112040000D02*
X166961000Y-114086000D01*
X167001000Y-107926000D02*
X167001000Y-109960000D01*
X167001000Y-112040000D02*
X167001000Y-114074000D01*
X167041000Y-107939000D02*
X167041000Y-109960000D01*
X167041000Y-112040000D02*
X167041000Y-114061000D01*
X167081000Y-107953000D02*
X167081000Y-109960000D01*
X167081000Y-112040000D02*
X167081000Y-114047000D01*
X167121000Y-107967000D02*
X167121000Y-109960000D01*
X167121000Y-112040000D02*
X167121000Y-114033000D01*
X167161000Y-107982000D02*
X167161000Y-109960000D01*
X167161000Y-112040000D02*
X167161000Y-114018000D01*
X167201000Y-107998000D02*
X167201000Y-109960000D01*
X167201000Y-112040000D02*
X167201000Y-114002000D01*
X167241000Y-108014000D02*
X167241000Y-109960000D01*
X167241000Y-112040000D02*
X167241000Y-113986000D01*
X167281000Y-108030000D02*
X167281000Y-109960000D01*
X167281000Y-112040000D02*
X167281000Y-113970000D01*
X167321000Y-108048000D02*
X167321000Y-109960000D01*
X167321000Y-112040000D02*
X167321000Y-113952000D01*
X167361000Y-108066000D02*
X167361000Y-109960000D01*
X167361000Y-112040000D02*
X167361000Y-113934000D01*
X167401000Y-108084000D02*
X167401000Y-109960000D01*
X167401000Y-112040000D02*
X167401000Y-113916000D01*
X167441000Y-108104000D02*
X167441000Y-109960000D01*
X167441000Y-112040000D02*
X167441000Y-113896000D01*
X167481000Y-108124000D02*
X167481000Y-109960000D01*
X167481000Y-112040000D02*
X167481000Y-113876000D01*
X167521000Y-108144000D02*
X167521000Y-109960000D01*
X167521000Y-112040000D02*
X167521000Y-113856000D01*
X167561000Y-108166000D02*
X167561000Y-109960000D01*
X167561000Y-112040000D02*
X167561000Y-113834000D01*
X167601000Y-108188000D02*
X167601000Y-109960000D01*
X167601000Y-112040000D02*
X167601000Y-113812000D01*
X167641000Y-108210000D02*
X167641000Y-109960000D01*
X167641000Y-112040000D02*
X167641000Y-113790000D01*
X167681000Y-108234000D02*
X167681000Y-109960000D01*
X167681000Y-112040000D02*
X167681000Y-113766000D01*
X167721000Y-108258000D02*
X167721000Y-109960000D01*
X167721000Y-112040000D02*
X167721000Y-113742000D01*
X167761000Y-108284000D02*
X167761000Y-109960000D01*
X167761000Y-112040000D02*
X167761000Y-113716000D01*
X167801000Y-108310000D02*
X167801000Y-109960000D01*
X167801000Y-112040000D02*
X167801000Y-113690000D01*
X167841000Y-108336000D02*
X167841000Y-109960000D01*
X167841000Y-112040000D02*
X167841000Y-113664000D01*
X167881000Y-108364000D02*
X167881000Y-109960000D01*
X167881000Y-112040000D02*
X167881000Y-113636000D01*
X167921000Y-108393000D02*
X167921000Y-109960000D01*
X167921000Y-112040000D02*
X167921000Y-113607000D01*
X167961000Y-108422000D02*
X167961000Y-109960000D01*
X167961000Y-112040000D02*
X167961000Y-113578000D01*
X168001000Y-108452000D02*
X168001000Y-109960000D01*
X168001000Y-112040000D02*
X168001000Y-113548000D01*
X168041000Y-108484000D02*
X168041000Y-109960000D01*
X168041000Y-112040000D02*
X168041000Y-113516000D01*
X168081000Y-108516000D02*
X168081000Y-109960000D01*
X168081000Y-112040000D02*
X168081000Y-113484000D01*
X168121000Y-108550000D02*
X168121000Y-109960000D01*
X168121000Y-112040000D02*
X168121000Y-113450000D01*
X168161000Y-108584000D02*
X168161000Y-109960000D01*
X168161000Y-112040000D02*
X168161000Y-113416000D01*
X168201000Y-108620000D02*
X168201000Y-109960000D01*
X168201000Y-112040000D02*
X168201000Y-113380000D01*
X168241000Y-108657000D02*
X168241000Y-109960000D01*
X168241000Y-112040000D02*
X168241000Y-113343000D01*
X168281000Y-108695000D02*
X168281000Y-109960000D01*
X168281000Y-112040000D02*
X168281000Y-113305000D01*
X168321000Y-108735000D02*
X168321000Y-113265000D01*
X168361000Y-108776000D02*
X168361000Y-113224000D01*
X168401000Y-108818000D02*
X168401000Y-113182000D01*
X168441000Y-108863000D02*
X168441000Y-113137000D01*
X168481000Y-108908000D02*
X168481000Y-113092000D01*
X168521000Y-108956000D02*
X168521000Y-113044000D01*
X168561000Y-109005000D02*
X168561000Y-112995000D01*
X168601000Y-109056000D02*
X168601000Y-112944000D01*
X168641000Y-109110000D02*
X168641000Y-112890000D01*
X168681000Y-109166000D02*
X168681000Y-112834000D01*
X168721000Y-109224000D02*
X168721000Y-112776000D01*
X168761000Y-109286000D02*
X168761000Y-112714000D01*
X168801000Y-109350000D02*
X168801000Y-112650000D01*
X168841000Y-109419000D02*
X168841000Y-112581000D01*
X168881000Y-109491000D02*
X168881000Y-112509000D01*
X168921000Y-109568000D02*
X168921000Y-112432000D01*
X168961000Y-109650000D02*
X168961000Y-112350000D01*
X169001000Y-109738000D02*
X169001000Y-112262000D01*
X169041000Y-109835000D02*
X169041000Y-112165000D01*
X169081000Y-109941000D02*
X169081000Y-112059000D01*
X169121000Y-110060000D02*
X169121000Y-111940000D01*
X169161000Y-110198000D02*
X169161000Y-111802000D01*
X169201000Y-110367000D02*
X169201000Y-111633000D01*
X169241000Y-110598000D02*
X169241000Y-111402000D01*
X169270000Y-111000000D02*
G75*
G03*
X169270000Y-111000000I-3270000J0D01*
G01*
%TO.C,C7*%
X139952500Y-113458500D02*
X138047500Y-113458500D01*
X138047500Y-113458500D02*
X138047500Y-117141500D01*
X139952500Y-117141500D02*
X139952500Y-113458500D01*
X138047500Y-117141500D02*
X139952500Y-117141500D01*
%TO.C,R38*%
X109658500Y-96947500D02*
X109658500Y-98852500D01*
X109658500Y-98852500D02*
X113341500Y-98852500D01*
X113341500Y-96947500D02*
X109658500Y-96947500D01*
X113341500Y-98852500D02*
X113341500Y-96947500D01*
D11*
%TO.C,J5*%
X132509000Y-70428000D02*
X119809000Y-70428000D01*
X132509000Y-70428000D02*
X132509000Y-83128000D01*
X129969000Y-70428000D02*
X129969000Y-72968000D01*
X127429000Y-70428000D02*
X127429000Y-72968000D01*
X124889000Y-70428000D02*
X124889000Y-72968000D01*
X122349000Y-72968000D02*
X132509000Y-72968000D01*
X132509000Y-83128000D02*
X119809000Y-83128000D01*
X122349000Y-83128000D02*
X122349000Y-70428000D01*
X119809000Y-83128000D02*
X119809000Y-70428000D01*
D12*
%TO.C,R19*%
X158710000Y-95678922D02*
X158710000Y-96196078D01*
X157290000Y-95678922D02*
X157290000Y-96196078D01*
%TO.C,R8*%
X107178922Y-113790000D02*
X107696078Y-113790000D01*
X107178922Y-115210000D02*
X107696078Y-115210000D01*
%TO.C,C3*%
X138095000Y-113294000D02*
X140000000Y-113294000D01*
X140000000Y-113294000D02*
X140000000Y-109611000D01*
X138095000Y-109611000D02*
X138095000Y-113294000D01*
X140000000Y-109611000D02*
X138095000Y-109611000D01*
%TO.C,L1*%
X162250000Y-115400000D02*
X162250000Y-108600000D01*
X162250000Y-108600000D02*
X155050000Y-108600000D01*
X155050000Y-115400000D02*
X162250000Y-115400000D01*
X155050000Y-108600000D02*
X155050000Y-115400000D01*
X159285000Y-112000000D02*
G75*
G03*
X159920000Y-112000000I317500J0D01*
G01*
X158650000Y-112000000D02*
G75*
G03*
X159285000Y-112000000I317500J0D01*
G01*
X158015000Y-112000000D02*
G75*
G03*
X158650000Y-112000000I317500J0D01*
G01*
X157380000Y-112000000D02*
G75*
G03*
X158015000Y-112000000I317500J0D01*
G01*
%TO.C,R15*%
X148290000Y-104758578D02*
X148290000Y-104241422D01*
X149710000Y-104758578D02*
X149710000Y-104241422D01*
%TO.C,C24*%
X141991233Y-95990000D02*
X142283767Y-95990000D01*
X141991233Y-97010000D02*
X142283767Y-97010000D01*
%TO.C,C37*%
X152537500Y-108199998D02*
X149737500Y-108199999D01*
X149737500Y-109799999D02*
X152537500Y-109800000D01*
X152537499Y-109799999D02*
G75*
G03*
X152537499Y-108199999I-840223J800000D01*
G01*
X149737501Y-108200000D02*
G75*
G03*
X149737501Y-109800000I840223J-800000D01*
G01*
%TO.C,C18*%
X146047500Y-105942500D02*
X146111000Y-105942500D01*
X146111000Y-105942500D02*
X147952500Y-105942500D01*
X147952500Y-105942500D02*
X147952500Y-102132500D01*
X146682500Y-104164500D02*
X147317500Y-104164500D01*
X147000000Y-104164500D02*
X147000000Y-104228000D01*
X147000000Y-103910500D02*
X147000000Y-103847000D01*
X147317500Y-103910500D02*
X146682500Y-103910500D01*
X146047500Y-102132500D02*
X146047500Y-105942500D01*
X147952500Y-102132500D02*
X146047500Y-102132500D01*
%TO.C,Q4*%
X133440000Y-85562500D02*
X133440000Y-87237500D01*
X133440000Y-85562500D02*
X133440000Y-84912500D01*
X136560000Y-85562500D02*
X136560000Y-86212500D01*
X136560000Y-85562500D02*
X136560000Y-84912500D01*
%TO.C,R46*%
X162952500Y-100658500D02*
X161047500Y-100658500D01*
X161047500Y-100658500D02*
X161047500Y-104341500D01*
X162952500Y-104341500D02*
X162952500Y-100658500D01*
X161047500Y-104341500D02*
X162952500Y-104341500D01*
D11*
%TO.C,J2*%
X173749000Y-70475000D02*
X145809000Y-70475000D01*
X173749000Y-70475000D02*
X173749000Y-83175000D01*
X148349000Y-70475000D02*
X148349000Y-83175000D01*
X148349000Y-73015000D02*
X173749000Y-73015000D01*
X173749000Y-83175000D02*
X145809000Y-83175000D01*
X145809000Y-83175000D02*
X145809000Y-70475000D01*
D12*
%TO.C,U3*%
X135110000Y-117860000D02*
X135110000Y-116910000D01*
X135110000Y-116910000D02*
X136450000Y-116910000D01*
X135110000Y-107640000D02*
X135110000Y-108590000D01*
X134160000Y-117860000D02*
X135110000Y-117860000D01*
X134160000Y-107640000D02*
X135110000Y-107640000D01*
X125840000Y-117860000D02*
X124890000Y-117860000D01*
X125840000Y-107640000D02*
X124890000Y-107640000D01*
X124890000Y-117860000D02*
X124890000Y-116910000D01*
X124890000Y-107640000D02*
X124890000Y-108590000D01*
D11*
%TO.C,J4*%
X119509000Y-70428000D02*
X106809000Y-70428000D01*
X119509000Y-70428000D02*
X119509000Y-83128000D01*
X116969000Y-70428000D02*
X116969000Y-72968000D01*
X114429000Y-70428000D02*
X114429000Y-72968000D01*
X111889000Y-70428000D02*
X111889000Y-72968000D01*
X109349000Y-72968000D02*
X119509000Y-72968000D01*
X119509000Y-83128000D02*
X106809000Y-83128000D01*
X109349000Y-83128000D02*
X109349000Y-70428000D01*
X106809000Y-83128000D02*
X106809000Y-70428000D01*
D12*
%TO.C,R37*%
X109658500Y-103247500D02*
X109658500Y-105152500D01*
X109658500Y-105152500D02*
X113341500Y-105152500D01*
X113341500Y-103247500D02*
X109658500Y-103247500D01*
X113341500Y-105152500D02*
X113341500Y-103247500D01*
%TO.C,D6*%
X137951036Y-90472588D02*
X141251036Y-90472588D01*
X137951036Y-90472588D02*
X137951036Y-84962588D01*
X141251036Y-90472588D02*
X141251036Y-84962588D01*
%TO.C,D5*%
X116490000Y-84350000D02*
X116490000Y-87650000D01*
X116490000Y-84350000D02*
X122000000Y-84350000D01*
X116490000Y-87650000D02*
X122000000Y-87650000D01*
%TO.C,C23*%
X141353733Y-92990000D02*
X141646267Y-92990000D01*
X141353733Y-94010000D02*
X141646267Y-94010000D01*
%TO.C,OC2*%
X171140000Y-91015000D02*
X160860000Y-91015000D01*
X160860000Y-91015000D02*
X160860000Y-97485000D01*
X171140000Y-93250000D02*
X171140000Y-91015000D01*
X171140000Y-97485000D02*
X171140000Y-95250000D01*
X160860000Y-97485000D02*
X171140000Y-97485000D01*
X171140000Y-93250000D02*
G75*
G03*
X171140000Y-95250000I0J-1000000D01*
G01*
%TO.C,R43*%
X167952500Y-100658500D02*
X166047500Y-100658500D01*
X166047500Y-100658500D02*
X166047500Y-104341500D01*
X167952500Y-104341500D02*
X167952500Y-100658500D01*
X166047500Y-104341500D02*
X167952500Y-104341500D01*
%TO.C,C22*%
X120095000Y-104047500D02*
X120095000Y-104111000D01*
X120095000Y-104111000D02*
X120095000Y-105952500D01*
X120095000Y-105952500D02*
X123905000Y-105952500D01*
X121873000Y-104682500D02*
X121873000Y-105317500D01*
X121873000Y-105000000D02*
X121809500Y-105000000D01*
X122127000Y-105000000D02*
X122190500Y-105000000D01*
X122127000Y-105317500D02*
X122127000Y-104682500D01*
X123905000Y-104047500D02*
X120095000Y-104047500D01*
X123905000Y-105952500D02*
X123905000Y-104047500D01*
%TO.C,Q5*%
X127240000Y-85562500D02*
X127240000Y-87237500D01*
X127240000Y-85562500D02*
X127240000Y-84912500D01*
X130360000Y-85562500D02*
X130360000Y-86212500D01*
X130360000Y-85562500D02*
X130360000Y-84912500D01*
%TO.C,C38*%
X150962500Y-107300002D02*
X153762500Y-107300001D01*
X153762500Y-105700001D02*
X150962500Y-105700000D01*
X150962501Y-105700001D02*
G75*
G03*
X150962501Y-107300001I840223J-800000D01*
G01*
X153762499Y-107300000D02*
G75*
G03*
X153762499Y-105700000I-840223J800000D01*
G01*
%TO.C,R7*%
X125290000Y-85821078D02*
X125290000Y-85303922D01*
X126710000Y-85821078D02*
X126710000Y-85303922D01*
%TO.C,D8*%
X158890000Y-83450000D02*
X158890000Y-87750000D01*
X158890000Y-83450000D02*
X164700000Y-83450000D01*
X158890000Y-87750000D02*
X164700000Y-87750000D01*
%TO.C,D4*%
X107990000Y-84350000D02*
X107990000Y-87650000D01*
X107990000Y-84350000D02*
X113500000Y-84350000D01*
X107990000Y-87650000D02*
X113500000Y-87650000D01*
%TO.C,R20*%
X158405000Y-83499500D02*
X158405000Y-91500500D01*
X154595000Y-83499500D02*
X158405000Y-83499500D01*
X158405000Y-91500500D02*
X154595000Y-91500500D01*
X154595000Y-91500500D02*
X154595000Y-83499500D01*
%TO.C,R16*%
X150290000Y-104196078D02*
X150290000Y-103678922D01*
X151710000Y-104196078D02*
X151710000Y-103678922D01*
%TO.C,R18*%
X154290000Y-104196078D02*
X154290000Y-103678922D01*
X155710000Y-104196078D02*
X155710000Y-103678922D01*
%TO.C,R3*%
X101321078Y-117210000D02*
X100803922Y-117210000D01*
X101321078Y-115790000D02*
X100803922Y-115790000D01*
%TO.C,R6*%
X103258578Y-115210000D02*
X102741422Y-115210000D01*
X103258578Y-113790000D02*
X102741422Y-113790000D01*
%TO.C,C11*%
X161952500Y-116057500D02*
X161889000Y-116057500D01*
X161889000Y-116057500D02*
X160047500Y-116057500D01*
X160047500Y-116057500D02*
X160047500Y-119867500D01*
X161317500Y-117835500D02*
X160682500Y-117835500D01*
X161000000Y-117835500D02*
X161000000Y-117772000D01*
X161000000Y-118089500D02*
X161000000Y-118153000D01*
X160682500Y-118089500D02*
X161317500Y-118089500D01*
X161952500Y-119867500D02*
X161952500Y-116057500D01*
X160047500Y-119867500D02*
X161952500Y-119867500D01*
%TO.C,U4*%
X146440000Y-98000000D02*
X146440000Y-101450000D01*
X146440000Y-98000000D02*
X146440000Y-96050000D01*
X156560000Y-98000000D02*
X156560000Y-99950000D01*
X156560000Y-98000000D02*
X156560000Y-96050000D01*
%TO.C,C12*%
X155057500Y-116047500D02*
X155057500Y-116111000D01*
X155057500Y-116111000D02*
X155057500Y-117952500D01*
X155057500Y-117952500D02*
X158867500Y-117952500D01*
X156835500Y-116682500D02*
X156835500Y-117317500D01*
X156835500Y-117000000D02*
X156772000Y-117000000D01*
X157089500Y-117000000D02*
X157153000Y-117000000D01*
X157089500Y-117317500D02*
X157089500Y-116682500D01*
X158867500Y-116047500D02*
X155057500Y-116047500D01*
X158867500Y-117952500D02*
X158867500Y-116047500D01*
%TO.C,J8*%
X89920000Y-70920000D02*
X91250000Y-70920000D01*
X89920000Y-72250000D02*
X89920000Y-70920000D01*
X89920000Y-73520000D02*
X89920000Y-76120000D01*
X89920000Y-73520000D02*
X92580000Y-73520000D01*
X89920000Y-76120000D02*
X92580000Y-76120000D01*
X92580000Y-73520000D02*
X92580000Y-76120000D01*
D11*
%TO.C,RS1*%
X98920000Y-130310000D02*
X98920000Y-122690000D01*
X98920000Y-130310000D02*
X114160000Y-130310000D01*
X114160000Y-130310000D02*
X114160000Y-122690000D01*
%TO.C,RS2*%
X158300000Y-130310000D02*
X158300000Y-122690000D01*
X158300000Y-130310000D02*
X173540000Y-130310000D01*
X173540000Y-130310000D02*
X173540000Y-122690000D01*
D12*
%TO.C,D3*%
X105010000Y-87150000D02*
X105010000Y-83850000D01*
X105010000Y-87150000D02*
X99500000Y-87150000D01*
X105010000Y-83850000D02*
X99500000Y-83850000D01*
%TO.C,C5*%
X103405000Y-111452500D02*
X103405000Y-111389000D01*
X103405000Y-111389000D02*
X103405000Y-109547500D01*
X103405000Y-109547500D02*
X99595000Y-109547500D01*
X101627000Y-110817500D02*
X101627000Y-110182500D01*
X101627000Y-110500000D02*
X101690500Y-110500000D01*
X101373000Y-110500000D02*
X101309500Y-110500000D01*
X101373000Y-110182500D02*
X101373000Y-110817500D01*
X99595000Y-111452500D02*
X103405000Y-111452500D01*
X99595000Y-109547500D02*
X99595000Y-111452500D01*
%TO.C,J1*%
X134330000Y-102870000D02*
X133000000Y-102870000D01*
X134330000Y-101540000D02*
X134330000Y-102870000D01*
X134330000Y-100270000D02*
X134330000Y-95130000D01*
X134330000Y-100270000D02*
X131730000Y-100270000D01*
X134330000Y-95130000D02*
X129130000Y-95130000D01*
X131730000Y-102870000D02*
X129130000Y-102870000D01*
X131730000Y-100270000D02*
X131730000Y-102870000D01*
X129130000Y-102870000D02*
X129130000Y-95130000D01*
%TO.C,C19*%
X144990000Y-94508767D02*
X144990000Y-94216233D01*
X146010000Y-94508767D02*
X146010000Y-94216233D01*
%TO.C,R36*%
X109658500Y-101147500D02*
X109658500Y-103052500D01*
X109658500Y-103052500D02*
X113341500Y-103052500D01*
X113341500Y-101147500D02*
X109658500Y-101147500D01*
X113341500Y-103052500D02*
X113341500Y-101147500D01*
%TO.C,F1*%
X162495000Y-116000000D02*
X162495000Y-120000000D01*
X162495000Y-120000000D02*
X170095000Y-120000000D01*
X165279000Y-118000000D02*
X165152000Y-118000000D01*
X167438000Y-118000000D02*
X165279000Y-118000000D01*
X170095000Y-116000000D02*
X162495000Y-116000000D01*
X170095000Y-120000000D02*
X170095000Y-116000000D01*
X165395000Y-117600000D02*
X167195000Y-117600000D01*
X167195000Y-117600000D02*
X167195000Y-118400000D01*
X167195000Y-118400000D02*
X165395000Y-118400000D01*
X165395000Y-118400000D02*
X165395000Y-117600000D01*
%TO.C,D7*%
X173760000Y-87750000D02*
X173760000Y-83450000D01*
X173760000Y-87750000D02*
X167950000Y-87750000D01*
X173760000Y-83450000D02*
X167950000Y-83450000D01*
%TO.C,U9*%
X116500000Y-119560000D02*
X119950000Y-119560000D01*
X116500000Y-119560000D02*
X114550000Y-119560000D01*
X116500000Y-109440000D02*
X118450000Y-109440000D01*
X116500000Y-109440000D02*
X114550000Y-109440000D01*
%TO.C,R35*%
X109658500Y-99047500D02*
X109658500Y-100952500D01*
X109658500Y-100952500D02*
X113341500Y-100952500D01*
X113341500Y-99047500D02*
X109658500Y-99047500D01*
X113341500Y-100952500D02*
X113341500Y-99047500D01*
%TO.C,R47*%
X142107000Y-91239000D02*
X144393000Y-91239000D01*
X144393000Y-91239000D02*
X144393000Y-86286000D01*
X142107000Y-86286000D02*
X142107000Y-91239000D01*
X144393000Y-86286000D02*
X142107000Y-86286000D01*
%TO.C,R5*%
X132909293Y-85303922D02*
X132909293Y-85821078D01*
X131489293Y-85303922D02*
X131489293Y-85821078D01*
D11*
%TO.C,J6*%
X145509000Y-70428000D02*
X132809000Y-70428000D01*
X145509000Y-70428000D02*
X145509000Y-83128000D01*
X142969000Y-70428000D02*
X142969000Y-72968000D01*
X140429000Y-70428000D02*
X140429000Y-72968000D01*
X137889000Y-70428000D02*
X137889000Y-72968000D01*
X135349000Y-72968000D02*
X145509000Y-72968000D01*
X145509000Y-83128000D02*
X132809000Y-83128000D01*
X135349000Y-83128000D02*
X135349000Y-70428000D01*
X132809000Y-83128000D02*
X132809000Y-70428000D01*
D12*
%TO.C,C39*%
X147952500Y-106132500D02*
X147889000Y-106132500D01*
X147889000Y-106132500D02*
X146047500Y-106132500D01*
X146047500Y-106132500D02*
X146047500Y-109942500D01*
X147317500Y-107910500D02*
X146682500Y-107910500D01*
X147000000Y-107910500D02*
X147000000Y-107847000D01*
X147000000Y-108164500D02*
X147000000Y-108228000D01*
X146682500Y-108164500D02*
X147317500Y-108164500D01*
X147952500Y-109942500D02*
X147952500Y-106132500D01*
X146047500Y-109942500D02*
X147952500Y-109942500D01*
%TD*%
M02*
