M48
; DRILL file {KiCad 7.0.9} date Thu Jun 20 13:46:23 2024
; FORMAT={-:-/ absolute / metric / decimal}
; #@! TF.CreationDate,2024-06-20T13:46:23+03:00
; #@! TF.GenerationSoftware,Kicad,Pcbnew,7.0.9
; #@! TF.FileFunction,Plated,1,2,PTH
FMAT,2
METRIC
; #@! TA.AperFunction,Plated,PTH,ViaDrill
T1C0.500
; #@! TA.AperFunction,Plated,PTH,ComponentDrill
T2C0.762
; #@! TA.AperFunction,Plated,PTH,ComponentDrill
T3C0.800
; #@! TA.AperFunction,Plated,PTH,ComponentDrill
T4C1.000
; #@! TA.AperFunction,Plated,PTH,ComponentDrill
T5C1.075
%
G90
G05
T1
X97.0Y-77.5
X97.0Y-82.0
X97.5Y-71.5
X98.5Y-109.0
X98.5Y-112.0
X98.5Y-113.5
X98.5Y-115.5
X98.5Y-117.5
X98.5Y-119.5
X99.0Y-77.5
X99.537Y-110.5
X101.1Y-118.3
X101.5Y-109.0
X101.5Y-119.4
X101.5Y-122.5
X102.0Y-86.5
X102.0Y-89.5
X102.075Y-100.0
X102.5Y-82.5
X102.5Y-114.0
X102.5Y-117.5
X103.0Y-121.25
X103.5Y-88.0
X103.5Y-122.75
X104.0Y-109.0
X104.5Y-100.0
X104.5Y-122.75
X104.75Y-121.25
X105.0Y-89.5
X105.5Y-71.0
X105.7Y-109.0
X106.5Y-117.75
X106.5Y-122.5
X106.6Y-100.2
X106.75Y-112.5
X107.5Y-71.0
X107.5Y-93.0
X108.0Y-75.0
X108.0Y-78.0
X108.0Y-80.0
X108.0Y-82.0
X108.5Y-101.0
X108.75Y-117.75
X109.0Y-109.0
X109.0Y-122.5
X109.002Y-115.988
X109.25Y-111.75
X109.25Y-114.25
X109.5Y-87.0
X109.75Y-121.0
X110.5Y-71.0
X110.75Y-119.325
X111.0Y-109.0
X111.0Y-116.25
X111.0Y-121.0
X111.5Y-77.5
X112.0Y-82.5
X112.0Y-122.5
X112.25Y-110.0
X112.25Y-116.5
X115.0Y-82.0
X115.4Y-102.8
X115.4Y-104.0
X115.5Y-101.5
X115.6Y-95.8
X117.0Y-87.0
X117.5Y-111.25
X118.5Y-71.5
X118.5Y-82.5
X119.0Y-104.0
X119.35Y-93.85
X119.5Y-99.6
X119.774Y-96.0
X119.8Y-106.8
X120.0Y-103.2
X120.75Y-101.75
X121.0Y-83.5
X121.0Y-106.8
X121.0Y-111.0
X121.0Y-115.0
X121.0Y-118.724
X121.5Y-71.5
X121.5Y-75.0
X121.5Y-77.0
X121.5Y-79.5
X121.5Y-82.0
X122.25Y-96.25
X122.525Y-107.725
X122.679Y-98.597
X122.8Y-102.949
X123.1Y-118.9
X123.5Y-71.5
X124.0Y-77.5
X124.0Y-118.0
X125.0Y-92.0
X125.0Y-93.7
X125.0Y-119.0
X126.0Y-116.5
X126.137Y-111.116
X126.5Y-113.0
X127.1Y-83.3
X127.126Y-91.248
X127.5Y-95.8
X127.5Y-109.0
X127.5Y-115.5
X127.6Y-94.3
X128.5Y-114.0
X129.6Y-92.3
X130.5Y-84.0
X130.5Y-116.5
X131.246Y-111.554
X131.4Y-90.7
X131.5Y-71.5
X132.5Y-110.5
X132.5Y-112.5
X132.5Y-114.5
X132.979Y-83.715
X133.0Y-91.5
X133.0Y-94.0
X133.0Y-116.5
X133.5Y-71.5
X134.0Y-75.0
X134.0Y-77.0
X134.0Y-79.5
X134.0Y-81.5
X134.851Y-83.65
X135.0Y-107.0
X135.0Y-118.5
X135.7Y-105.1
X136.0Y-77.5
X136.0Y-91.0
X136.5Y-71.5
X136.5Y-92.5
X137.0Y-94.5
X137.0Y-97.0
X137.3Y-99.9
X137.4Y-108.3
X137.5Y-77.0
X137.5Y-116.0
X137.5Y-118.5
X138.0Y-103.5
X139.0Y-106.5
X139.3Y-92.9
X139.5Y-95.0
X139.5Y-100.0
X140.0Y-118.5
X140.5Y-97.5
X140.5Y-103.5
X140.5Y-105.5
X140.75Y-89.0
X141.0Y-91.0
X141.5Y-117.0
X142.0Y-95.0
X142.0Y-100.0
X142.0Y-115.5
X142.5Y-103.5
X142.5Y-105.5
X143.5Y-85.0
X144.0Y-92.0
X144.0Y-93.5
X144.0Y-95.0
X145.5Y-86.5
X145.5Y-100.0
X145.6Y-88.6
X146.0Y-113.0
X146.5Y-110.0
X147.0Y-86.5
X148.144Y-101.44
X148.5Y-111.5
X148.97Y-102.57
X149.0Y-86.5
X149.0Y-93.5
X150.0Y-105.5
X150.444Y-93.895
X150.5Y-86.5
X150.5Y-107.0
X150.6Y-88.4
X151.0Y-102.0
X151.875Y-104.875
X152.0Y-110.0
X152.5Y-86.5
X153.0Y-102.5
X154.0Y-86.5
X154.0Y-93.5
X155.5Y-86.5
X155.5Y-119.5
X155.6Y-88.4
X156.5Y-102.0
X156.6Y-83.2
X157.5Y-86.5
X157.6Y-100.7
X158.5Y-110.5
X158.5Y-114.0
X159.0Y-95.0
X159.0Y-119.5
X159.5Y-100.0
X160.5Y-104.5
X160.75Y-122.25
X161.0Y-99.0
X163.0Y-115.0
X163.4Y-85.2
X163.5Y-122.25
X164.4Y-103.3
X165.5Y-104.5
X166.0Y-122.25
X166.5Y-120.5
X168.5Y-101.0
X168.5Y-122.25
X170.0Y-86.0
X170.5Y-109.5
X170.5Y-111.0
X170.5Y-113.0
X170.5Y-115.0
X171.0Y-120.5
X171.0Y-122.25
X172.5Y-109.5
X172.5Y-111.0
X172.5Y-113.0
X172.5Y-115.0
X172.5Y-117.0
X172.5Y-119.5
T2
X172.86Y-80.0
T3
X164.75Y-111.0
X167.25Y-111.0
T4
X91.25Y-72.25
X91.25Y-74.79
X91.25Y-79.0
X91.25Y-81.54
X91.25Y-84.08
X98.0Y-75.0
X98.0Y-80.08
X100.54Y-75.0
X100.54Y-80.08
X103.08Y-75.0
X103.08Y-80.08
X105.62Y-75.0
X105.62Y-80.08
X111.0Y-75.0
X111.0Y-80.08
X113.54Y-75.0
X113.54Y-80.08
X116.08Y-75.0
X116.08Y-80.08
X118.62Y-75.0
X118.62Y-80.08
X124.0Y-75.0
X124.0Y-80.08
X126.54Y-75.0
X126.54Y-80.08
X129.08Y-75.0
X129.08Y-80.08
X130.46Y-96.46
X130.46Y-99.0
X130.46Y-101.54
X131.62Y-75.0
X131.62Y-80.08
X133.0Y-96.46
X133.0Y-99.0
X133.0Y-101.54
X137.0Y-75.0
X137.0Y-80.08
X139.54Y-75.0
X139.54Y-80.08
X142.08Y-75.0
X142.08Y-80.08
X144.62Y-75.0
X144.62Y-80.08
X150.0Y-74.92
X150.0Y-80.0
X152.54Y-74.92
X152.54Y-80.0
X155.08Y-74.92
X155.08Y-80.0
X157.62Y-74.92
X157.62Y-80.0
X160.16Y-74.92
X160.16Y-80.0
X162.7Y-74.92
X162.7Y-80.0
X165.24Y-74.92
X165.24Y-80.0
X167.78Y-74.92
X167.78Y-80.0
X170.32Y-74.92
X170.32Y-80.0
X172.86Y-74.92
T5
X144.5Y-115.0
X147.04Y-115.0
X149.58Y-115.0
X152.12Y-115.0
T0
M30
