%TF.GenerationSoftware,KiCad,Pcbnew,7.0.9*%
%TF.CreationDate,2024-06-20T14:31:36+03:00*%
%TF.ProjectId,_____ ____ __________,1f3b3042-3020-4443-9e42-3e2041323542,rev?*%
%TF.SameCoordinates,Original*%
%TF.FileFunction,Soldermask,Top*%
%TF.FilePolarity,Negative*%
%FSLAX46Y46*%
G04 Gerber Fmt 4.6, Leading zero omitted, Abs format (unit mm)*
G04 Created by KiCad (PCBNEW 7.0.9) date 2024-06-20 14:31:36*
%MOMM*%
%LPD*%
G01*
G04 APERTURE LIST*
G04 Aperture macros list*
%AMRoundRect*
0 Rectangle with rounded corners*
0 $1 Rounding radius*
0 $2 $3 $4 $5 $6 $7 $8 $9 X,Y pos of 4 corners*
0 Add a 4 corners polygon primitive as box body*
4,1,4,$2,$3,$4,$5,$6,$7,$8,$9,$2,$3,0*
0 Add four circle primitives for the rounded corners*
1,1,$1+$1,$2,$3*
1,1,$1+$1,$4,$5*
1,1,$1+$1,$6,$7*
1,1,$1+$1,$8,$9*
0 Add four rect primitives between the rounded corners*
20,1,$1+$1,$2,$3,$4,$5,0*
20,1,$1+$1,$4,$5,$6,$7,0*
20,1,$1+$1,$6,$7,$8,$9,0*
20,1,$1+$1,$8,$9,$2,$3,0*%
G04 Aperture macros list end*
%ADD10RoundRect,0.250000X0.450000X-0.350000X0.450000X0.350000X-0.450000X0.350000X-0.450000X-0.350000X0*%
%ADD11RoundRect,0.250001X-0.462499X-0.624999X0.462499X-0.624999X0.462499X0.624999X-0.462499X0.624999X0*%
%ADD12RoundRect,0.250001X0.462499X0.624999X-0.462499X0.624999X-0.462499X-0.624999X0.462499X-0.624999X0*%
%ADD13RoundRect,0.250000X-0.450000X0.350000X-0.450000X-0.350000X0.450000X-0.350000X0.450000X0.350000X0*%
%ADD14RoundRect,0.250000X-0.350000X-0.450000X0.350000X-0.450000X0.350000X0.450000X-0.350000X0.450000X0*%
%ADD15RoundRect,0.250000X-0.600000X0.600000X-0.600000X-0.600000X0.600000X-0.600000X0.600000X0.600000X0*%
%ADD16C,1.700000*%
%ADD17RoundRect,0.250000X0.350000X0.450000X-0.350000X0.450000X-0.350000X-0.450000X0.350000X-0.450000X0*%
%ADD18RoundRect,0.150000X0.875000X0.150000X-0.875000X0.150000X-0.875000X-0.150000X0.875000X-0.150000X0*%
%ADD19RoundRect,0.750000X0.750000X0.750000X-0.750000X0.750000X-0.750000X-0.750000X0.750000X-0.750000X0*%
G04 APERTURE END LIST*
D10*
%TO.C,C30*%
X138420000Y-82657500D03*
X138420000Y-80657500D03*
%TD*%
D11*
%TO.C,Q7*%
X187525000Y-54000000D03*
X190500000Y-54000000D03*
%TD*%
D12*
%TO.C,Q3*%
X86500000Y-54000000D03*
X83525000Y-54000000D03*
%TD*%
D10*
%TO.C,C32*%
X123420000Y-82657500D03*
X123420000Y-80657500D03*
%TD*%
%TO.C,C29*%
X128420000Y-82657500D03*
X128420000Y-80657500D03*
%TD*%
D13*
%TO.C,C26*%
X179000000Y-55000000D03*
X179000000Y-57000000D03*
%TD*%
D14*
%TO.C,C7*%
X137500000Y-56500000D03*
X139500000Y-56500000D03*
%TD*%
D10*
%TO.C,C34*%
X103420000Y-82657500D03*
X103420000Y-80657500D03*
%TD*%
D14*
%TO.C,R15*%
X181000000Y-55000000D03*
X183000000Y-55000000D03*
%TD*%
D15*
%TO.C,J2*%
X92580000Y-80802500D03*
D16*
X92580000Y-83342500D03*
X90040000Y-80802500D03*
X90040000Y-83342500D03*
X87500000Y-80802500D03*
X87500000Y-83342500D03*
X84960000Y-80802500D03*
X84960000Y-83342500D03*
X82420000Y-80802500D03*
X82420000Y-83342500D03*
%TD*%
D14*
%TO.C,C1*%
X32000000Y-56500000D03*
X34000000Y-56500000D03*
%TD*%
D17*
%TO.C,C24*%
X132500000Y-58600000D03*
X130500000Y-58600000D03*
%TD*%
D10*
%TO.C,R12*%
X107000000Y-70000000D03*
X107000000Y-68000000D03*
%TD*%
D14*
%TO.C,C22*%
X91000000Y-58000000D03*
X93000000Y-58000000D03*
%TD*%
D17*
%TO.C,C20*%
X207000000Y-68000000D03*
X205000000Y-68000000D03*
%TD*%
D14*
%TO.C,C4*%
X58000000Y-65500000D03*
X60000000Y-65500000D03*
%TD*%
D17*
%TO.C,R9*%
X34000000Y-59000000D03*
X32000000Y-59000000D03*
%TD*%
D10*
%TO.C,C28*%
X118420000Y-82657500D03*
X118420000Y-80657500D03*
%TD*%
%TO.C,R10*%
X55375000Y-70025000D03*
X55375000Y-68025000D03*
%TD*%
%TO.C,C27*%
X108420000Y-82657500D03*
X108420000Y-80657500D03*
%TD*%
D11*
%TO.C,Q4*%
X109512500Y-68000000D03*
X112487500Y-68000000D03*
%TD*%
%TO.C,Q8*%
X213525000Y-68000000D03*
X216500000Y-68000000D03*
%TD*%
D10*
%TO.C,C2*%
X189000000Y-90400000D03*
X189000000Y-88400000D03*
%TD*%
%TO.C,C31*%
X133420000Y-82657500D03*
X133420000Y-80657500D03*
%TD*%
D17*
%TO.C,C23*%
X155000000Y-68000000D03*
X153000000Y-68000000D03*
%TD*%
D14*
%TO.C,C8*%
X162000000Y-65500000D03*
X164000000Y-65500000D03*
%TD*%
D11*
%TO.C,Q5*%
X135525000Y-54000000D03*
X138500000Y-54000000D03*
%TD*%
D10*
%TO.C,C21*%
X36000000Y-59000000D03*
X36000000Y-57000000D03*
%TD*%
D14*
%TO.C,R14*%
X157000000Y-68000000D03*
X159000000Y-68000000D03*
%TD*%
%TO.C,C5*%
X91500000Y-54000000D03*
X93500000Y-54000000D03*
%TD*%
%TO.C,C10*%
X214000000Y-71000000D03*
X216000000Y-71000000D03*
%TD*%
%TO.C,C6*%
X110000000Y-65000000D03*
X112000000Y-65000000D03*
%TD*%
D10*
%TO.C,R11*%
X89500000Y-56000000D03*
X89500000Y-54000000D03*
%TD*%
D11*
%TO.C,Q6*%
X161525000Y-68000000D03*
X164500000Y-68000000D03*
%TD*%
D18*
%TO.C,U1*%
X160500000Y-89390000D03*
X160500000Y-88120000D03*
X160500000Y-86850000D03*
X160500000Y-85580000D03*
X160500000Y-84310000D03*
X160500000Y-83040000D03*
X160500000Y-81770000D03*
X160500000Y-80500000D03*
X160500000Y-79230000D03*
X151200000Y-79230000D03*
X151200000Y-80500000D03*
X151200000Y-81770000D03*
X151200000Y-83040000D03*
X151200000Y-84310000D03*
X151200000Y-85580000D03*
X151200000Y-86850000D03*
X151200000Y-88120000D03*
X151200000Y-89390000D03*
%TD*%
D14*
%TO.C,R13*%
X133500000Y-56500000D03*
X135500000Y-56500000D03*
%TD*%
D11*
%TO.C,Q2*%
X57525000Y-68000000D03*
X60500000Y-68000000D03*
%TD*%
D10*
%TO.C,C9*%
X185000000Y-55000000D03*
X185000000Y-53000000D03*
%TD*%
D13*
%TO.C,C25*%
X109500000Y-70500000D03*
X109500000Y-72500000D03*
%TD*%
D14*
%TO.C,R16*%
X209000000Y-68000000D03*
X211000000Y-68000000D03*
%TD*%
D10*
%TO.C,C33*%
X113420000Y-82657500D03*
X113420000Y-80657500D03*
%TD*%
D19*
%TO.C,J1*%
X185000000Y-92000000D03*
X180725000Y-92000000D03*
%TD*%
D13*
%TO.C,C19*%
X58000000Y-71000000D03*
X58000000Y-73000000D03*
%TD*%
D11*
%TO.C,Q1*%
X31525000Y-54000000D03*
X34500000Y-54000000D03*
%TD*%
M02*
