%TF.GenerationSoftware,KiCad,Pcbnew,7.0.9*%
%TF.CreationDate,2024-06-20T14:31:36+03:00*%
%TF.ProjectId,_____ ____ __________,1f3b3042-3020-4443-9e42-3e2041323542,rev?*%
%TF.SameCoordinates,Original*%
%TF.FileFunction,Legend,Top*%
%TF.FilePolarity,Positive*%
%FSLAX46Y46*%
G04 Gerber Fmt 4.6, Leading zero omitted, Abs format (unit mm)*
G04 Created by KiCad (PCBNEW 7.0.9) date 2024-06-20 14:31:36*
%MOMM*%
%LPD*%
G01*
G04 APERTURE LIST*
%ADD10C,0.150000*%
%ADD11C,0.100000*%
%ADD12C,0.120000*%
%ADD13C,0.200000*%
G04 APERTURE END LIST*
D10*
X178812969Y-88882200D02*
X181098684Y-88882200D01*
X185212969Y-88682200D02*
X187498684Y-88682200D01*
X186355826Y-89825057D02*
X186355826Y-87539342D01*
X137065080Y-82300357D02*
X137112700Y-82347976D01*
X137112700Y-82347976D02*
X137160319Y-82490833D01*
X137160319Y-82490833D02*
X137160319Y-82586071D01*
X137160319Y-82586071D02*
X137112700Y-82728928D01*
X137112700Y-82728928D02*
X137017461Y-82824166D01*
X137017461Y-82824166D02*
X136922223Y-82871785D01*
X136922223Y-82871785D02*
X136731747Y-82919404D01*
X136731747Y-82919404D02*
X136588890Y-82919404D01*
X136588890Y-82919404D02*
X136398414Y-82871785D01*
X136398414Y-82871785D02*
X136303176Y-82824166D01*
X136303176Y-82824166D02*
X136207938Y-82728928D01*
X136207938Y-82728928D02*
X136160319Y-82586071D01*
X136160319Y-82586071D02*
X136160319Y-82490833D01*
X136160319Y-82490833D02*
X136207938Y-82347976D01*
X136207938Y-82347976D02*
X136255557Y-82300357D01*
X136160319Y-81967023D02*
X136160319Y-81347976D01*
X136160319Y-81347976D02*
X136541271Y-81681309D01*
X136541271Y-81681309D02*
X136541271Y-81538452D01*
X136541271Y-81538452D02*
X136588890Y-81443214D01*
X136588890Y-81443214D02*
X136636509Y-81395595D01*
X136636509Y-81395595D02*
X136731747Y-81347976D01*
X136731747Y-81347976D02*
X136969842Y-81347976D01*
X136969842Y-81347976D02*
X137065080Y-81395595D01*
X137065080Y-81395595D02*
X137112700Y-81443214D01*
X137112700Y-81443214D02*
X137160319Y-81538452D01*
X137160319Y-81538452D02*
X137160319Y-81824166D01*
X137160319Y-81824166D02*
X137112700Y-81919404D01*
X137112700Y-81919404D02*
X137065080Y-81967023D01*
X136160319Y-80728928D02*
X136160319Y-80633690D01*
X136160319Y-80633690D02*
X136207938Y-80538452D01*
X136207938Y-80538452D02*
X136255557Y-80490833D01*
X136255557Y-80490833D02*
X136350795Y-80443214D01*
X136350795Y-80443214D02*
X136541271Y-80395595D01*
X136541271Y-80395595D02*
X136779366Y-80395595D01*
X136779366Y-80395595D02*
X136969842Y-80443214D01*
X136969842Y-80443214D02*
X137065080Y-80490833D01*
X137065080Y-80490833D02*
X137112700Y-80538452D01*
X137112700Y-80538452D02*
X137160319Y-80633690D01*
X137160319Y-80633690D02*
X137160319Y-80728928D01*
X137160319Y-80728928D02*
X137112700Y-80824166D01*
X137112700Y-80824166D02*
X137065080Y-80871785D01*
X137065080Y-80871785D02*
X136969842Y-80919404D01*
X136969842Y-80919404D02*
X136779366Y-80967023D01*
X136779366Y-80967023D02*
X136541271Y-80967023D01*
X136541271Y-80967023D02*
X136350795Y-80919404D01*
X136350795Y-80919404D02*
X136255557Y-80871785D01*
X136255557Y-80871785D02*
X136207938Y-80824166D01*
X136207938Y-80824166D02*
X136160319Y-80728928D01*
X188917261Y-52550057D02*
X188822023Y-52502438D01*
X188822023Y-52502438D02*
X188726785Y-52407200D01*
X188726785Y-52407200D02*
X188583928Y-52264342D01*
X188583928Y-52264342D02*
X188488690Y-52216723D01*
X188488690Y-52216723D02*
X188393452Y-52216723D01*
X188441071Y-52454819D02*
X188345833Y-52407200D01*
X188345833Y-52407200D02*
X188250595Y-52311961D01*
X188250595Y-52311961D02*
X188202976Y-52121485D01*
X188202976Y-52121485D02*
X188202976Y-51788152D01*
X188202976Y-51788152D02*
X188250595Y-51597676D01*
X188250595Y-51597676D02*
X188345833Y-51502438D01*
X188345833Y-51502438D02*
X188441071Y-51454819D01*
X188441071Y-51454819D02*
X188631547Y-51454819D01*
X188631547Y-51454819D02*
X188726785Y-51502438D01*
X188726785Y-51502438D02*
X188822023Y-51597676D01*
X188822023Y-51597676D02*
X188869642Y-51788152D01*
X188869642Y-51788152D02*
X188869642Y-52121485D01*
X188869642Y-52121485D02*
X188822023Y-52311961D01*
X188822023Y-52311961D02*
X188726785Y-52407200D01*
X188726785Y-52407200D02*
X188631547Y-52454819D01*
X188631547Y-52454819D02*
X188441071Y-52454819D01*
X189202976Y-51454819D02*
X189869642Y-51454819D01*
X189869642Y-51454819D02*
X189441071Y-52454819D01*
X84904761Y-56550057D02*
X84809523Y-56502438D01*
X84809523Y-56502438D02*
X84714285Y-56407200D01*
X84714285Y-56407200D02*
X84571428Y-56264342D01*
X84571428Y-56264342D02*
X84476190Y-56216723D01*
X84476190Y-56216723D02*
X84380952Y-56216723D01*
X84428571Y-56454819D02*
X84333333Y-56407200D01*
X84333333Y-56407200D02*
X84238095Y-56311961D01*
X84238095Y-56311961D02*
X84190476Y-56121485D01*
X84190476Y-56121485D02*
X84190476Y-55788152D01*
X84190476Y-55788152D02*
X84238095Y-55597676D01*
X84238095Y-55597676D02*
X84333333Y-55502438D01*
X84333333Y-55502438D02*
X84428571Y-55454819D01*
X84428571Y-55454819D02*
X84619047Y-55454819D01*
X84619047Y-55454819D02*
X84714285Y-55502438D01*
X84714285Y-55502438D02*
X84809523Y-55597676D01*
X84809523Y-55597676D02*
X84857142Y-55788152D01*
X84857142Y-55788152D02*
X84857142Y-56121485D01*
X84857142Y-56121485D02*
X84809523Y-56311961D01*
X84809523Y-56311961D02*
X84714285Y-56407200D01*
X84714285Y-56407200D02*
X84619047Y-56454819D01*
X84619047Y-56454819D02*
X84428571Y-56454819D01*
X85190476Y-55454819D02*
X85809523Y-55454819D01*
X85809523Y-55454819D02*
X85476190Y-55835771D01*
X85476190Y-55835771D02*
X85619047Y-55835771D01*
X85619047Y-55835771D02*
X85714285Y-55883390D01*
X85714285Y-55883390D02*
X85761904Y-55931009D01*
X85761904Y-55931009D02*
X85809523Y-56026247D01*
X85809523Y-56026247D02*
X85809523Y-56264342D01*
X85809523Y-56264342D02*
X85761904Y-56359580D01*
X85761904Y-56359580D02*
X85714285Y-56407200D01*
X85714285Y-56407200D02*
X85619047Y-56454819D01*
X85619047Y-56454819D02*
X85333333Y-56454819D01*
X85333333Y-56454819D02*
X85238095Y-56407200D01*
X85238095Y-56407200D02*
X85190476Y-56359580D01*
X122065080Y-82300357D02*
X122112700Y-82347976D01*
X122112700Y-82347976D02*
X122160319Y-82490833D01*
X122160319Y-82490833D02*
X122160319Y-82586071D01*
X122160319Y-82586071D02*
X122112700Y-82728928D01*
X122112700Y-82728928D02*
X122017461Y-82824166D01*
X122017461Y-82824166D02*
X121922223Y-82871785D01*
X121922223Y-82871785D02*
X121731747Y-82919404D01*
X121731747Y-82919404D02*
X121588890Y-82919404D01*
X121588890Y-82919404D02*
X121398414Y-82871785D01*
X121398414Y-82871785D02*
X121303176Y-82824166D01*
X121303176Y-82824166D02*
X121207938Y-82728928D01*
X121207938Y-82728928D02*
X121160319Y-82586071D01*
X121160319Y-82586071D02*
X121160319Y-82490833D01*
X121160319Y-82490833D02*
X121207938Y-82347976D01*
X121207938Y-82347976D02*
X121255557Y-82300357D01*
X121160319Y-81967023D02*
X121160319Y-81347976D01*
X121160319Y-81347976D02*
X121541271Y-81681309D01*
X121541271Y-81681309D02*
X121541271Y-81538452D01*
X121541271Y-81538452D02*
X121588890Y-81443214D01*
X121588890Y-81443214D02*
X121636509Y-81395595D01*
X121636509Y-81395595D02*
X121731747Y-81347976D01*
X121731747Y-81347976D02*
X121969842Y-81347976D01*
X121969842Y-81347976D02*
X122065080Y-81395595D01*
X122065080Y-81395595D02*
X122112700Y-81443214D01*
X122112700Y-81443214D02*
X122160319Y-81538452D01*
X122160319Y-81538452D02*
X122160319Y-81824166D01*
X122160319Y-81824166D02*
X122112700Y-81919404D01*
X122112700Y-81919404D02*
X122065080Y-81967023D01*
X121255557Y-80967023D02*
X121207938Y-80919404D01*
X121207938Y-80919404D02*
X121160319Y-80824166D01*
X121160319Y-80824166D02*
X121160319Y-80586071D01*
X121160319Y-80586071D02*
X121207938Y-80490833D01*
X121207938Y-80490833D02*
X121255557Y-80443214D01*
X121255557Y-80443214D02*
X121350795Y-80395595D01*
X121350795Y-80395595D02*
X121446033Y-80395595D01*
X121446033Y-80395595D02*
X121588890Y-80443214D01*
X121588890Y-80443214D02*
X122160319Y-81014642D01*
X122160319Y-81014642D02*
X122160319Y-80395595D01*
X127065080Y-82300357D02*
X127112700Y-82347976D01*
X127112700Y-82347976D02*
X127160319Y-82490833D01*
X127160319Y-82490833D02*
X127160319Y-82586071D01*
X127160319Y-82586071D02*
X127112700Y-82728928D01*
X127112700Y-82728928D02*
X127017461Y-82824166D01*
X127017461Y-82824166D02*
X126922223Y-82871785D01*
X126922223Y-82871785D02*
X126731747Y-82919404D01*
X126731747Y-82919404D02*
X126588890Y-82919404D01*
X126588890Y-82919404D02*
X126398414Y-82871785D01*
X126398414Y-82871785D02*
X126303176Y-82824166D01*
X126303176Y-82824166D02*
X126207938Y-82728928D01*
X126207938Y-82728928D02*
X126160319Y-82586071D01*
X126160319Y-82586071D02*
X126160319Y-82490833D01*
X126160319Y-82490833D02*
X126207938Y-82347976D01*
X126207938Y-82347976D02*
X126255557Y-82300357D01*
X126255557Y-81919404D02*
X126207938Y-81871785D01*
X126207938Y-81871785D02*
X126160319Y-81776547D01*
X126160319Y-81776547D02*
X126160319Y-81538452D01*
X126160319Y-81538452D02*
X126207938Y-81443214D01*
X126207938Y-81443214D02*
X126255557Y-81395595D01*
X126255557Y-81395595D02*
X126350795Y-81347976D01*
X126350795Y-81347976D02*
X126446033Y-81347976D01*
X126446033Y-81347976D02*
X126588890Y-81395595D01*
X126588890Y-81395595D02*
X127160319Y-81967023D01*
X127160319Y-81967023D02*
X127160319Y-81347976D01*
X127160319Y-80871785D02*
X127160319Y-80681309D01*
X127160319Y-80681309D02*
X127112700Y-80586071D01*
X127112700Y-80586071D02*
X127065080Y-80538452D01*
X127065080Y-80538452D02*
X126922223Y-80443214D01*
X126922223Y-80443214D02*
X126731747Y-80395595D01*
X126731747Y-80395595D02*
X126350795Y-80395595D01*
X126350795Y-80395595D02*
X126255557Y-80443214D01*
X126255557Y-80443214D02*
X126207938Y-80490833D01*
X126207938Y-80490833D02*
X126160319Y-80586071D01*
X126160319Y-80586071D02*
X126160319Y-80776547D01*
X126160319Y-80776547D02*
X126207938Y-80871785D01*
X126207938Y-80871785D02*
X126255557Y-80919404D01*
X126255557Y-80919404D02*
X126350795Y-80967023D01*
X126350795Y-80967023D02*
X126588890Y-80967023D01*
X126588890Y-80967023D02*
X126684128Y-80919404D01*
X126684128Y-80919404D02*
X126731747Y-80871785D01*
X126731747Y-80871785D02*
X126779366Y-80776547D01*
X126779366Y-80776547D02*
X126779366Y-80586071D01*
X126779366Y-80586071D02*
X126731747Y-80490833D01*
X126731747Y-80490833D02*
X126684128Y-80443214D01*
X126684128Y-80443214D02*
X126588890Y-80395595D01*
X177559580Y-56642857D02*
X177607200Y-56690476D01*
X177607200Y-56690476D02*
X177654819Y-56833333D01*
X177654819Y-56833333D02*
X177654819Y-56928571D01*
X177654819Y-56928571D02*
X177607200Y-57071428D01*
X177607200Y-57071428D02*
X177511961Y-57166666D01*
X177511961Y-57166666D02*
X177416723Y-57214285D01*
X177416723Y-57214285D02*
X177226247Y-57261904D01*
X177226247Y-57261904D02*
X177083390Y-57261904D01*
X177083390Y-57261904D02*
X176892914Y-57214285D01*
X176892914Y-57214285D02*
X176797676Y-57166666D01*
X176797676Y-57166666D02*
X176702438Y-57071428D01*
X176702438Y-57071428D02*
X176654819Y-56928571D01*
X176654819Y-56928571D02*
X176654819Y-56833333D01*
X176654819Y-56833333D02*
X176702438Y-56690476D01*
X176702438Y-56690476D02*
X176750057Y-56642857D01*
X176750057Y-56261904D02*
X176702438Y-56214285D01*
X176702438Y-56214285D02*
X176654819Y-56119047D01*
X176654819Y-56119047D02*
X176654819Y-55880952D01*
X176654819Y-55880952D02*
X176702438Y-55785714D01*
X176702438Y-55785714D02*
X176750057Y-55738095D01*
X176750057Y-55738095D02*
X176845295Y-55690476D01*
X176845295Y-55690476D02*
X176940533Y-55690476D01*
X176940533Y-55690476D02*
X177083390Y-55738095D01*
X177083390Y-55738095D02*
X177654819Y-56309523D01*
X177654819Y-56309523D02*
X177654819Y-55690476D01*
X176654819Y-54833333D02*
X176654819Y-55023809D01*
X176654819Y-55023809D02*
X176702438Y-55119047D01*
X176702438Y-55119047D02*
X176750057Y-55166666D01*
X176750057Y-55166666D02*
X176892914Y-55261904D01*
X176892914Y-55261904D02*
X177083390Y-55309523D01*
X177083390Y-55309523D02*
X177464342Y-55309523D01*
X177464342Y-55309523D02*
X177559580Y-55261904D01*
X177559580Y-55261904D02*
X177607200Y-55214285D01*
X177607200Y-55214285D02*
X177654819Y-55119047D01*
X177654819Y-55119047D02*
X177654819Y-54928571D01*
X177654819Y-54928571D02*
X177607200Y-54833333D01*
X177607200Y-54833333D02*
X177559580Y-54785714D01*
X177559580Y-54785714D02*
X177464342Y-54738095D01*
X177464342Y-54738095D02*
X177226247Y-54738095D01*
X177226247Y-54738095D02*
X177131009Y-54785714D01*
X177131009Y-54785714D02*
X177083390Y-54833333D01*
X177083390Y-54833333D02*
X177035771Y-54928571D01*
X177035771Y-54928571D02*
X177035771Y-55119047D01*
X177035771Y-55119047D02*
X177083390Y-55214285D01*
X177083390Y-55214285D02*
X177131009Y-55261904D01*
X177131009Y-55261904D02*
X177226247Y-55309523D01*
X138333333Y-58859580D02*
X138285714Y-58907200D01*
X138285714Y-58907200D02*
X138142857Y-58954819D01*
X138142857Y-58954819D02*
X138047619Y-58954819D01*
X138047619Y-58954819D02*
X137904762Y-58907200D01*
X137904762Y-58907200D02*
X137809524Y-58811961D01*
X137809524Y-58811961D02*
X137761905Y-58716723D01*
X137761905Y-58716723D02*
X137714286Y-58526247D01*
X137714286Y-58526247D02*
X137714286Y-58383390D01*
X137714286Y-58383390D02*
X137761905Y-58192914D01*
X137761905Y-58192914D02*
X137809524Y-58097676D01*
X137809524Y-58097676D02*
X137904762Y-58002438D01*
X137904762Y-58002438D02*
X138047619Y-57954819D01*
X138047619Y-57954819D02*
X138142857Y-57954819D01*
X138142857Y-57954819D02*
X138285714Y-58002438D01*
X138285714Y-58002438D02*
X138333333Y-58050057D01*
X138666667Y-57954819D02*
X139333333Y-57954819D01*
X139333333Y-57954819D02*
X138904762Y-58954819D01*
X102065080Y-82300357D02*
X102112700Y-82347976D01*
X102112700Y-82347976D02*
X102160319Y-82490833D01*
X102160319Y-82490833D02*
X102160319Y-82586071D01*
X102160319Y-82586071D02*
X102112700Y-82728928D01*
X102112700Y-82728928D02*
X102017461Y-82824166D01*
X102017461Y-82824166D02*
X101922223Y-82871785D01*
X101922223Y-82871785D02*
X101731747Y-82919404D01*
X101731747Y-82919404D02*
X101588890Y-82919404D01*
X101588890Y-82919404D02*
X101398414Y-82871785D01*
X101398414Y-82871785D02*
X101303176Y-82824166D01*
X101303176Y-82824166D02*
X101207938Y-82728928D01*
X101207938Y-82728928D02*
X101160319Y-82586071D01*
X101160319Y-82586071D02*
X101160319Y-82490833D01*
X101160319Y-82490833D02*
X101207938Y-82347976D01*
X101207938Y-82347976D02*
X101255557Y-82300357D01*
X101160319Y-81967023D02*
X101160319Y-81347976D01*
X101160319Y-81347976D02*
X101541271Y-81681309D01*
X101541271Y-81681309D02*
X101541271Y-81538452D01*
X101541271Y-81538452D02*
X101588890Y-81443214D01*
X101588890Y-81443214D02*
X101636509Y-81395595D01*
X101636509Y-81395595D02*
X101731747Y-81347976D01*
X101731747Y-81347976D02*
X101969842Y-81347976D01*
X101969842Y-81347976D02*
X102065080Y-81395595D01*
X102065080Y-81395595D02*
X102112700Y-81443214D01*
X102112700Y-81443214D02*
X102160319Y-81538452D01*
X102160319Y-81538452D02*
X102160319Y-81824166D01*
X102160319Y-81824166D02*
X102112700Y-81919404D01*
X102112700Y-81919404D02*
X102065080Y-81967023D01*
X101493652Y-80490833D02*
X102160319Y-80490833D01*
X101112700Y-80728928D02*
X101826985Y-80967023D01*
X101826985Y-80967023D02*
X101826985Y-80347976D01*
X181357142Y-57454819D02*
X181023809Y-56978628D01*
X180785714Y-57454819D02*
X180785714Y-56454819D01*
X180785714Y-56454819D02*
X181166666Y-56454819D01*
X181166666Y-56454819D02*
X181261904Y-56502438D01*
X181261904Y-56502438D02*
X181309523Y-56550057D01*
X181309523Y-56550057D02*
X181357142Y-56645295D01*
X181357142Y-56645295D02*
X181357142Y-56788152D01*
X181357142Y-56788152D02*
X181309523Y-56883390D01*
X181309523Y-56883390D02*
X181261904Y-56931009D01*
X181261904Y-56931009D02*
X181166666Y-56978628D01*
X181166666Y-56978628D02*
X180785714Y-56978628D01*
X182309523Y-57454819D02*
X181738095Y-57454819D01*
X182023809Y-57454819D02*
X182023809Y-56454819D01*
X182023809Y-56454819D02*
X181928571Y-56597676D01*
X181928571Y-56597676D02*
X181833333Y-56692914D01*
X181833333Y-56692914D02*
X181738095Y-56740533D01*
X183214285Y-56454819D02*
X182738095Y-56454819D01*
X182738095Y-56454819D02*
X182690476Y-56931009D01*
X182690476Y-56931009D02*
X182738095Y-56883390D01*
X182738095Y-56883390D02*
X182833333Y-56835771D01*
X182833333Y-56835771D02*
X183071428Y-56835771D01*
X183071428Y-56835771D02*
X183166666Y-56883390D01*
X183166666Y-56883390D02*
X183214285Y-56931009D01*
X183214285Y-56931009D02*
X183261904Y-57026247D01*
X183261904Y-57026247D02*
X183261904Y-57264342D01*
X183261904Y-57264342D02*
X183214285Y-57359580D01*
X183214285Y-57359580D02*
X183166666Y-57407200D01*
X183166666Y-57407200D02*
X183071428Y-57454819D01*
X183071428Y-57454819D02*
X182833333Y-57454819D01*
X182833333Y-57454819D02*
X182738095Y-57407200D01*
X182738095Y-57407200D02*
X182690476Y-57359580D01*
X98134819Y-87350833D02*
X98849104Y-87350833D01*
X98849104Y-87350833D02*
X98991961Y-87398452D01*
X98991961Y-87398452D02*
X99087200Y-87493690D01*
X99087200Y-87493690D02*
X99134819Y-87636547D01*
X99134819Y-87636547D02*
X99134819Y-87731785D01*
X98230057Y-86922261D02*
X98182438Y-86874642D01*
X98182438Y-86874642D02*
X98134819Y-86779404D01*
X98134819Y-86779404D02*
X98134819Y-86541309D01*
X98134819Y-86541309D02*
X98182438Y-86446071D01*
X98182438Y-86446071D02*
X98230057Y-86398452D01*
X98230057Y-86398452D02*
X98325295Y-86350833D01*
X98325295Y-86350833D02*
X98420533Y-86350833D01*
X98420533Y-86350833D02*
X98563390Y-86398452D01*
X98563390Y-86398452D02*
X99134819Y-86969880D01*
X99134819Y-86969880D02*
X99134819Y-86350833D01*
X36033333Y-55759580D02*
X35985714Y-55807200D01*
X35985714Y-55807200D02*
X35842857Y-55854819D01*
X35842857Y-55854819D02*
X35747619Y-55854819D01*
X35747619Y-55854819D02*
X35604762Y-55807200D01*
X35604762Y-55807200D02*
X35509524Y-55711961D01*
X35509524Y-55711961D02*
X35461905Y-55616723D01*
X35461905Y-55616723D02*
X35414286Y-55426247D01*
X35414286Y-55426247D02*
X35414286Y-55283390D01*
X35414286Y-55283390D02*
X35461905Y-55092914D01*
X35461905Y-55092914D02*
X35509524Y-54997676D01*
X35509524Y-54997676D02*
X35604762Y-54902438D01*
X35604762Y-54902438D02*
X35747619Y-54854819D01*
X35747619Y-54854819D02*
X35842857Y-54854819D01*
X35842857Y-54854819D02*
X35985714Y-54902438D01*
X35985714Y-54902438D02*
X36033333Y-54950057D01*
X36985714Y-55854819D02*
X36414286Y-55854819D01*
X36700000Y-55854819D02*
X36700000Y-54854819D01*
X36700000Y-54854819D02*
X36604762Y-54997676D01*
X36604762Y-54997676D02*
X36509524Y-55092914D01*
X36509524Y-55092914D02*
X36414286Y-55140533D01*
X130857142Y-60674080D02*
X130809523Y-60721700D01*
X130809523Y-60721700D02*
X130666666Y-60769319D01*
X130666666Y-60769319D02*
X130571428Y-60769319D01*
X130571428Y-60769319D02*
X130428571Y-60721700D01*
X130428571Y-60721700D02*
X130333333Y-60626461D01*
X130333333Y-60626461D02*
X130285714Y-60531223D01*
X130285714Y-60531223D02*
X130238095Y-60340747D01*
X130238095Y-60340747D02*
X130238095Y-60197890D01*
X130238095Y-60197890D02*
X130285714Y-60007414D01*
X130285714Y-60007414D02*
X130333333Y-59912176D01*
X130333333Y-59912176D02*
X130428571Y-59816938D01*
X130428571Y-59816938D02*
X130571428Y-59769319D01*
X130571428Y-59769319D02*
X130666666Y-59769319D01*
X130666666Y-59769319D02*
X130809523Y-59816938D01*
X130809523Y-59816938D02*
X130857142Y-59864557D01*
X131238095Y-59864557D02*
X131285714Y-59816938D01*
X131285714Y-59816938D02*
X131380952Y-59769319D01*
X131380952Y-59769319D02*
X131619047Y-59769319D01*
X131619047Y-59769319D02*
X131714285Y-59816938D01*
X131714285Y-59816938D02*
X131761904Y-59864557D01*
X131761904Y-59864557D02*
X131809523Y-59959795D01*
X131809523Y-59959795D02*
X131809523Y-60055033D01*
X131809523Y-60055033D02*
X131761904Y-60197890D01*
X131761904Y-60197890D02*
X131190476Y-60769319D01*
X131190476Y-60769319D02*
X131809523Y-60769319D01*
X132666666Y-60102652D02*
X132666666Y-60769319D01*
X132428571Y-59721700D02*
X132190476Y-60435985D01*
X132190476Y-60435985D02*
X132809523Y-60435985D01*
X105454819Y-69642857D02*
X104978628Y-69976190D01*
X105454819Y-70214285D02*
X104454819Y-70214285D01*
X104454819Y-70214285D02*
X104454819Y-69833333D01*
X104454819Y-69833333D02*
X104502438Y-69738095D01*
X104502438Y-69738095D02*
X104550057Y-69690476D01*
X104550057Y-69690476D02*
X104645295Y-69642857D01*
X104645295Y-69642857D02*
X104788152Y-69642857D01*
X104788152Y-69642857D02*
X104883390Y-69690476D01*
X104883390Y-69690476D02*
X104931009Y-69738095D01*
X104931009Y-69738095D02*
X104978628Y-69833333D01*
X104978628Y-69833333D02*
X104978628Y-70214285D01*
X105454819Y-68690476D02*
X105454819Y-69261904D01*
X105454819Y-68976190D02*
X104454819Y-68976190D01*
X104454819Y-68976190D02*
X104597676Y-69071428D01*
X104597676Y-69071428D02*
X104692914Y-69166666D01*
X104692914Y-69166666D02*
X104740533Y-69261904D01*
X104550057Y-68309523D02*
X104502438Y-68261904D01*
X104502438Y-68261904D02*
X104454819Y-68166666D01*
X104454819Y-68166666D02*
X104454819Y-67928571D01*
X104454819Y-67928571D02*
X104502438Y-67833333D01*
X104502438Y-67833333D02*
X104550057Y-67785714D01*
X104550057Y-67785714D02*
X104645295Y-67738095D01*
X104645295Y-67738095D02*
X104740533Y-67738095D01*
X104740533Y-67738095D02*
X104883390Y-67785714D01*
X104883390Y-67785714D02*
X105454819Y-68357142D01*
X105454819Y-68357142D02*
X105454819Y-67738095D01*
X91357142Y-56645080D02*
X91309523Y-56692700D01*
X91309523Y-56692700D02*
X91166666Y-56740319D01*
X91166666Y-56740319D02*
X91071428Y-56740319D01*
X91071428Y-56740319D02*
X90928571Y-56692700D01*
X90928571Y-56692700D02*
X90833333Y-56597461D01*
X90833333Y-56597461D02*
X90785714Y-56502223D01*
X90785714Y-56502223D02*
X90738095Y-56311747D01*
X90738095Y-56311747D02*
X90738095Y-56168890D01*
X90738095Y-56168890D02*
X90785714Y-55978414D01*
X90785714Y-55978414D02*
X90833333Y-55883176D01*
X90833333Y-55883176D02*
X90928571Y-55787938D01*
X90928571Y-55787938D02*
X91071428Y-55740319D01*
X91071428Y-55740319D02*
X91166666Y-55740319D01*
X91166666Y-55740319D02*
X91309523Y-55787938D01*
X91309523Y-55787938D02*
X91357142Y-55835557D01*
X91738095Y-55835557D02*
X91785714Y-55787938D01*
X91785714Y-55787938D02*
X91880952Y-55740319D01*
X91880952Y-55740319D02*
X92119047Y-55740319D01*
X92119047Y-55740319D02*
X92214285Y-55787938D01*
X92214285Y-55787938D02*
X92261904Y-55835557D01*
X92261904Y-55835557D02*
X92309523Y-55930795D01*
X92309523Y-55930795D02*
X92309523Y-56026033D01*
X92309523Y-56026033D02*
X92261904Y-56168890D01*
X92261904Y-56168890D02*
X91690476Y-56740319D01*
X91690476Y-56740319D02*
X92309523Y-56740319D01*
X92690476Y-55835557D02*
X92738095Y-55787938D01*
X92738095Y-55787938D02*
X92833333Y-55740319D01*
X92833333Y-55740319D02*
X93071428Y-55740319D01*
X93071428Y-55740319D02*
X93166666Y-55787938D01*
X93166666Y-55787938D02*
X93214285Y-55835557D01*
X93214285Y-55835557D02*
X93261904Y-55930795D01*
X93261904Y-55930795D02*
X93261904Y-56026033D01*
X93261904Y-56026033D02*
X93214285Y-56168890D01*
X93214285Y-56168890D02*
X92642857Y-56740319D01*
X92642857Y-56740319D02*
X93261904Y-56740319D01*
X205357142Y-70074080D02*
X205309523Y-70121700D01*
X205309523Y-70121700D02*
X205166666Y-70169319D01*
X205166666Y-70169319D02*
X205071428Y-70169319D01*
X205071428Y-70169319D02*
X204928571Y-70121700D01*
X204928571Y-70121700D02*
X204833333Y-70026461D01*
X204833333Y-70026461D02*
X204785714Y-69931223D01*
X204785714Y-69931223D02*
X204738095Y-69740747D01*
X204738095Y-69740747D02*
X204738095Y-69597890D01*
X204738095Y-69597890D02*
X204785714Y-69407414D01*
X204785714Y-69407414D02*
X204833333Y-69312176D01*
X204833333Y-69312176D02*
X204928571Y-69216938D01*
X204928571Y-69216938D02*
X205071428Y-69169319D01*
X205071428Y-69169319D02*
X205166666Y-69169319D01*
X205166666Y-69169319D02*
X205309523Y-69216938D01*
X205309523Y-69216938D02*
X205357142Y-69264557D01*
X205738095Y-69264557D02*
X205785714Y-69216938D01*
X205785714Y-69216938D02*
X205880952Y-69169319D01*
X205880952Y-69169319D02*
X206119047Y-69169319D01*
X206119047Y-69169319D02*
X206214285Y-69216938D01*
X206214285Y-69216938D02*
X206261904Y-69264557D01*
X206261904Y-69264557D02*
X206309523Y-69359795D01*
X206309523Y-69359795D02*
X206309523Y-69455033D01*
X206309523Y-69455033D02*
X206261904Y-69597890D01*
X206261904Y-69597890D02*
X205690476Y-70169319D01*
X205690476Y-70169319D02*
X206309523Y-70169319D01*
X206928571Y-69169319D02*
X207023809Y-69169319D01*
X207023809Y-69169319D02*
X207119047Y-69216938D01*
X207119047Y-69216938D02*
X207166666Y-69264557D01*
X207166666Y-69264557D02*
X207214285Y-69359795D01*
X207214285Y-69359795D02*
X207261904Y-69550271D01*
X207261904Y-69550271D02*
X207261904Y-69788366D01*
X207261904Y-69788366D02*
X207214285Y-69978842D01*
X207214285Y-69978842D02*
X207166666Y-70074080D01*
X207166666Y-70074080D02*
X207119047Y-70121700D01*
X207119047Y-70121700D02*
X207023809Y-70169319D01*
X207023809Y-70169319D02*
X206928571Y-70169319D01*
X206928571Y-70169319D02*
X206833333Y-70121700D01*
X206833333Y-70121700D02*
X206785714Y-70074080D01*
X206785714Y-70074080D02*
X206738095Y-69978842D01*
X206738095Y-69978842D02*
X206690476Y-69788366D01*
X206690476Y-69788366D02*
X206690476Y-69550271D01*
X206690476Y-69550271D02*
X206738095Y-69359795D01*
X206738095Y-69359795D02*
X206785714Y-69264557D01*
X206785714Y-69264557D02*
X206833333Y-69216938D01*
X206833333Y-69216938D02*
X206928571Y-69169319D01*
X58833333Y-64145080D02*
X58785714Y-64192700D01*
X58785714Y-64192700D02*
X58642857Y-64240319D01*
X58642857Y-64240319D02*
X58547619Y-64240319D01*
X58547619Y-64240319D02*
X58404762Y-64192700D01*
X58404762Y-64192700D02*
X58309524Y-64097461D01*
X58309524Y-64097461D02*
X58261905Y-64002223D01*
X58261905Y-64002223D02*
X58214286Y-63811747D01*
X58214286Y-63811747D02*
X58214286Y-63668890D01*
X58214286Y-63668890D02*
X58261905Y-63478414D01*
X58261905Y-63478414D02*
X58309524Y-63383176D01*
X58309524Y-63383176D02*
X58404762Y-63287938D01*
X58404762Y-63287938D02*
X58547619Y-63240319D01*
X58547619Y-63240319D02*
X58642857Y-63240319D01*
X58642857Y-63240319D02*
X58785714Y-63287938D01*
X58785714Y-63287938D02*
X58833333Y-63335557D01*
X59690476Y-63573652D02*
X59690476Y-64240319D01*
X59452381Y-63192700D02*
X59214286Y-63906985D01*
X59214286Y-63906985D02*
X59833333Y-63906985D01*
X32833333Y-61169319D02*
X32500000Y-60693128D01*
X32261905Y-61169319D02*
X32261905Y-60169319D01*
X32261905Y-60169319D02*
X32642857Y-60169319D01*
X32642857Y-60169319D02*
X32738095Y-60216938D01*
X32738095Y-60216938D02*
X32785714Y-60264557D01*
X32785714Y-60264557D02*
X32833333Y-60359795D01*
X32833333Y-60359795D02*
X32833333Y-60502652D01*
X32833333Y-60502652D02*
X32785714Y-60597890D01*
X32785714Y-60597890D02*
X32738095Y-60645509D01*
X32738095Y-60645509D02*
X32642857Y-60693128D01*
X32642857Y-60693128D02*
X32261905Y-60693128D01*
X33309524Y-61169319D02*
X33500000Y-61169319D01*
X33500000Y-61169319D02*
X33595238Y-61121700D01*
X33595238Y-61121700D02*
X33642857Y-61074080D01*
X33642857Y-61074080D02*
X33738095Y-60931223D01*
X33738095Y-60931223D02*
X33785714Y-60740747D01*
X33785714Y-60740747D02*
X33785714Y-60359795D01*
X33785714Y-60359795D02*
X33738095Y-60264557D01*
X33738095Y-60264557D02*
X33690476Y-60216938D01*
X33690476Y-60216938D02*
X33595238Y-60169319D01*
X33595238Y-60169319D02*
X33404762Y-60169319D01*
X33404762Y-60169319D02*
X33309524Y-60216938D01*
X33309524Y-60216938D02*
X33261905Y-60264557D01*
X33261905Y-60264557D02*
X33214286Y-60359795D01*
X33214286Y-60359795D02*
X33214286Y-60597890D01*
X33214286Y-60597890D02*
X33261905Y-60693128D01*
X33261905Y-60693128D02*
X33309524Y-60740747D01*
X33309524Y-60740747D02*
X33404762Y-60788366D01*
X33404762Y-60788366D02*
X33595238Y-60788366D01*
X33595238Y-60788366D02*
X33690476Y-60740747D01*
X33690476Y-60740747D02*
X33738095Y-60693128D01*
X33738095Y-60693128D02*
X33785714Y-60597890D01*
X117065080Y-82300357D02*
X117112700Y-82347976D01*
X117112700Y-82347976D02*
X117160319Y-82490833D01*
X117160319Y-82490833D02*
X117160319Y-82586071D01*
X117160319Y-82586071D02*
X117112700Y-82728928D01*
X117112700Y-82728928D02*
X117017461Y-82824166D01*
X117017461Y-82824166D02*
X116922223Y-82871785D01*
X116922223Y-82871785D02*
X116731747Y-82919404D01*
X116731747Y-82919404D02*
X116588890Y-82919404D01*
X116588890Y-82919404D02*
X116398414Y-82871785D01*
X116398414Y-82871785D02*
X116303176Y-82824166D01*
X116303176Y-82824166D02*
X116207938Y-82728928D01*
X116207938Y-82728928D02*
X116160319Y-82586071D01*
X116160319Y-82586071D02*
X116160319Y-82490833D01*
X116160319Y-82490833D02*
X116207938Y-82347976D01*
X116207938Y-82347976D02*
X116255557Y-82300357D01*
X116255557Y-81919404D02*
X116207938Y-81871785D01*
X116207938Y-81871785D02*
X116160319Y-81776547D01*
X116160319Y-81776547D02*
X116160319Y-81538452D01*
X116160319Y-81538452D02*
X116207938Y-81443214D01*
X116207938Y-81443214D02*
X116255557Y-81395595D01*
X116255557Y-81395595D02*
X116350795Y-81347976D01*
X116350795Y-81347976D02*
X116446033Y-81347976D01*
X116446033Y-81347976D02*
X116588890Y-81395595D01*
X116588890Y-81395595D02*
X117160319Y-81967023D01*
X117160319Y-81967023D02*
X117160319Y-81347976D01*
X116588890Y-80776547D02*
X116541271Y-80871785D01*
X116541271Y-80871785D02*
X116493652Y-80919404D01*
X116493652Y-80919404D02*
X116398414Y-80967023D01*
X116398414Y-80967023D02*
X116350795Y-80967023D01*
X116350795Y-80967023D02*
X116255557Y-80919404D01*
X116255557Y-80919404D02*
X116207938Y-80871785D01*
X116207938Y-80871785D02*
X116160319Y-80776547D01*
X116160319Y-80776547D02*
X116160319Y-80586071D01*
X116160319Y-80586071D02*
X116207938Y-80490833D01*
X116207938Y-80490833D02*
X116255557Y-80443214D01*
X116255557Y-80443214D02*
X116350795Y-80395595D01*
X116350795Y-80395595D02*
X116398414Y-80395595D01*
X116398414Y-80395595D02*
X116493652Y-80443214D01*
X116493652Y-80443214D02*
X116541271Y-80490833D01*
X116541271Y-80490833D02*
X116588890Y-80586071D01*
X116588890Y-80586071D02*
X116588890Y-80776547D01*
X116588890Y-80776547D02*
X116636509Y-80871785D01*
X116636509Y-80871785D02*
X116684128Y-80919404D01*
X116684128Y-80919404D02*
X116779366Y-80967023D01*
X116779366Y-80967023D02*
X116969842Y-80967023D01*
X116969842Y-80967023D02*
X117065080Y-80919404D01*
X117065080Y-80919404D02*
X117112700Y-80871785D01*
X117112700Y-80871785D02*
X117160319Y-80776547D01*
X117160319Y-80776547D02*
X117160319Y-80586071D01*
X117160319Y-80586071D02*
X117112700Y-80490833D01*
X117112700Y-80490833D02*
X117065080Y-80443214D01*
X117065080Y-80443214D02*
X116969842Y-80395595D01*
X116969842Y-80395595D02*
X116779366Y-80395595D01*
X116779366Y-80395595D02*
X116684128Y-80443214D01*
X116684128Y-80443214D02*
X116636509Y-80490833D01*
X116636509Y-80490833D02*
X116588890Y-80586071D01*
X54115319Y-69667857D02*
X53639128Y-70001190D01*
X54115319Y-70239285D02*
X53115319Y-70239285D01*
X53115319Y-70239285D02*
X53115319Y-69858333D01*
X53115319Y-69858333D02*
X53162938Y-69763095D01*
X53162938Y-69763095D02*
X53210557Y-69715476D01*
X53210557Y-69715476D02*
X53305795Y-69667857D01*
X53305795Y-69667857D02*
X53448652Y-69667857D01*
X53448652Y-69667857D02*
X53543890Y-69715476D01*
X53543890Y-69715476D02*
X53591509Y-69763095D01*
X53591509Y-69763095D02*
X53639128Y-69858333D01*
X53639128Y-69858333D02*
X53639128Y-70239285D01*
X54115319Y-68715476D02*
X54115319Y-69286904D01*
X54115319Y-69001190D02*
X53115319Y-69001190D01*
X53115319Y-69001190D02*
X53258176Y-69096428D01*
X53258176Y-69096428D02*
X53353414Y-69191666D01*
X53353414Y-69191666D02*
X53401033Y-69286904D01*
X53115319Y-68096428D02*
X53115319Y-68001190D01*
X53115319Y-68001190D02*
X53162938Y-67905952D01*
X53162938Y-67905952D02*
X53210557Y-67858333D01*
X53210557Y-67858333D02*
X53305795Y-67810714D01*
X53305795Y-67810714D02*
X53496271Y-67763095D01*
X53496271Y-67763095D02*
X53734366Y-67763095D01*
X53734366Y-67763095D02*
X53924842Y-67810714D01*
X53924842Y-67810714D02*
X54020080Y-67858333D01*
X54020080Y-67858333D02*
X54067700Y-67905952D01*
X54067700Y-67905952D02*
X54115319Y-68001190D01*
X54115319Y-68001190D02*
X54115319Y-68096428D01*
X54115319Y-68096428D02*
X54067700Y-68191666D01*
X54067700Y-68191666D02*
X54020080Y-68239285D01*
X54020080Y-68239285D02*
X53924842Y-68286904D01*
X53924842Y-68286904D02*
X53734366Y-68334523D01*
X53734366Y-68334523D02*
X53496271Y-68334523D01*
X53496271Y-68334523D02*
X53305795Y-68286904D01*
X53305795Y-68286904D02*
X53210557Y-68239285D01*
X53210557Y-68239285D02*
X53162938Y-68191666D01*
X53162938Y-68191666D02*
X53115319Y-68096428D01*
X107065080Y-82300357D02*
X107112700Y-82347976D01*
X107112700Y-82347976D02*
X107160319Y-82490833D01*
X107160319Y-82490833D02*
X107160319Y-82586071D01*
X107160319Y-82586071D02*
X107112700Y-82728928D01*
X107112700Y-82728928D02*
X107017461Y-82824166D01*
X107017461Y-82824166D02*
X106922223Y-82871785D01*
X106922223Y-82871785D02*
X106731747Y-82919404D01*
X106731747Y-82919404D02*
X106588890Y-82919404D01*
X106588890Y-82919404D02*
X106398414Y-82871785D01*
X106398414Y-82871785D02*
X106303176Y-82824166D01*
X106303176Y-82824166D02*
X106207938Y-82728928D01*
X106207938Y-82728928D02*
X106160319Y-82586071D01*
X106160319Y-82586071D02*
X106160319Y-82490833D01*
X106160319Y-82490833D02*
X106207938Y-82347976D01*
X106207938Y-82347976D02*
X106255557Y-82300357D01*
X106255557Y-81919404D02*
X106207938Y-81871785D01*
X106207938Y-81871785D02*
X106160319Y-81776547D01*
X106160319Y-81776547D02*
X106160319Y-81538452D01*
X106160319Y-81538452D02*
X106207938Y-81443214D01*
X106207938Y-81443214D02*
X106255557Y-81395595D01*
X106255557Y-81395595D02*
X106350795Y-81347976D01*
X106350795Y-81347976D02*
X106446033Y-81347976D01*
X106446033Y-81347976D02*
X106588890Y-81395595D01*
X106588890Y-81395595D02*
X107160319Y-81967023D01*
X107160319Y-81967023D02*
X107160319Y-81347976D01*
X106160319Y-81014642D02*
X106160319Y-80347976D01*
X106160319Y-80347976D02*
X107160319Y-80776547D01*
X112904761Y-70550057D02*
X112809523Y-70502438D01*
X112809523Y-70502438D02*
X112714285Y-70407200D01*
X112714285Y-70407200D02*
X112571428Y-70264342D01*
X112571428Y-70264342D02*
X112476190Y-70216723D01*
X112476190Y-70216723D02*
X112380952Y-70216723D01*
X112428571Y-70454819D02*
X112333333Y-70407200D01*
X112333333Y-70407200D02*
X112238095Y-70311961D01*
X112238095Y-70311961D02*
X112190476Y-70121485D01*
X112190476Y-70121485D02*
X112190476Y-69788152D01*
X112190476Y-69788152D02*
X112238095Y-69597676D01*
X112238095Y-69597676D02*
X112333333Y-69502438D01*
X112333333Y-69502438D02*
X112428571Y-69454819D01*
X112428571Y-69454819D02*
X112619047Y-69454819D01*
X112619047Y-69454819D02*
X112714285Y-69502438D01*
X112714285Y-69502438D02*
X112809523Y-69597676D01*
X112809523Y-69597676D02*
X112857142Y-69788152D01*
X112857142Y-69788152D02*
X112857142Y-70121485D01*
X112857142Y-70121485D02*
X112809523Y-70311961D01*
X112809523Y-70311961D02*
X112714285Y-70407200D01*
X112714285Y-70407200D02*
X112619047Y-70454819D01*
X112619047Y-70454819D02*
X112428571Y-70454819D01*
X113714285Y-69788152D02*
X113714285Y-70454819D01*
X113476190Y-69407200D02*
X113238095Y-70121485D01*
X113238095Y-70121485D02*
X113857142Y-70121485D01*
X214917261Y-66550057D02*
X214822023Y-66502438D01*
X214822023Y-66502438D02*
X214726785Y-66407200D01*
X214726785Y-66407200D02*
X214583928Y-66264342D01*
X214583928Y-66264342D02*
X214488690Y-66216723D01*
X214488690Y-66216723D02*
X214393452Y-66216723D01*
X214441071Y-66454819D02*
X214345833Y-66407200D01*
X214345833Y-66407200D02*
X214250595Y-66311961D01*
X214250595Y-66311961D02*
X214202976Y-66121485D01*
X214202976Y-66121485D02*
X214202976Y-65788152D01*
X214202976Y-65788152D02*
X214250595Y-65597676D01*
X214250595Y-65597676D02*
X214345833Y-65502438D01*
X214345833Y-65502438D02*
X214441071Y-65454819D01*
X214441071Y-65454819D02*
X214631547Y-65454819D01*
X214631547Y-65454819D02*
X214726785Y-65502438D01*
X214726785Y-65502438D02*
X214822023Y-65597676D01*
X214822023Y-65597676D02*
X214869642Y-65788152D01*
X214869642Y-65788152D02*
X214869642Y-66121485D01*
X214869642Y-66121485D02*
X214822023Y-66311961D01*
X214822023Y-66311961D02*
X214726785Y-66407200D01*
X214726785Y-66407200D02*
X214631547Y-66454819D01*
X214631547Y-66454819D02*
X214441071Y-66454819D01*
X215441071Y-65883390D02*
X215345833Y-65835771D01*
X215345833Y-65835771D02*
X215298214Y-65788152D01*
X215298214Y-65788152D02*
X215250595Y-65692914D01*
X215250595Y-65692914D02*
X215250595Y-65645295D01*
X215250595Y-65645295D02*
X215298214Y-65550057D01*
X215298214Y-65550057D02*
X215345833Y-65502438D01*
X215345833Y-65502438D02*
X215441071Y-65454819D01*
X215441071Y-65454819D02*
X215631547Y-65454819D01*
X215631547Y-65454819D02*
X215726785Y-65502438D01*
X215726785Y-65502438D02*
X215774404Y-65550057D01*
X215774404Y-65550057D02*
X215822023Y-65645295D01*
X215822023Y-65645295D02*
X215822023Y-65692914D01*
X215822023Y-65692914D02*
X215774404Y-65788152D01*
X215774404Y-65788152D02*
X215726785Y-65835771D01*
X215726785Y-65835771D02*
X215631547Y-65883390D01*
X215631547Y-65883390D02*
X215441071Y-65883390D01*
X215441071Y-65883390D02*
X215345833Y-65931009D01*
X215345833Y-65931009D02*
X215298214Y-65978628D01*
X215298214Y-65978628D02*
X215250595Y-66073866D01*
X215250595Y-66073866D02*
X215250595Y-66264342D01*
X215250595Y-66264342D02*
X215298214Y-66359580D01*
X215298214Y-66359580D02*
X215345833Y-66407200D01*
X215345833Y-66407200D02*
X215441071Y-66454819D01*
X215441071Y-66454819D02*
X215631547Y-66454819D01*
X215631547Y-66454819D02*
X215726785Y-66407200D01*
X215726785Y-66407200D02*
X215774404Y-66359580D01*
X215774404Y-66359580D02*
X215822023Y-66264342D01*
X215822023Y-66264342D02*
X215822023Y-66073866D01*
X215822023Y-66073866D02*
X215774404Y-65978628D01*
X215774404Y-65978628D02*
X215726785Y-65931009D01*
X215726785Y-65931009D02*
X215631547Y-65883390D01*
X191159580Y-89766666D02*
X191207200Y-89814285D01*
X191207200Y-89814285D02*
X191254819Y-89957142D01*
X191254819Y-89957142D02*
X191254819Y-90052380D01*
X191254819Y-90052380D02*
X191207200Y-90195237D01*
X191207200Y-90195237D02*
X191111961Y-90290475D01*
X191111961Y-90290475D02*
X191016723Y-90338094D01*
X191016723Y-90338094D02*
X190826247Y-90385713D01*
X190826247Y-90385713D02*
X190683390Y-90385713D01*
X190683390Y-90385713D02*
X190492914Y-90338094D01*
X190492914Y-90338094D02*
X190397676Y-90290475D01*
X190397676Y-90290475D02*
X190302438Y-90195237D01*
X190302438Y-90195237D02*
X190254819Y-90052380D01*
X190254819Y-90052380D02*
X190254819Y-89957142D01*
X190254819Y-89957142D02*
X190302438Y-89814285D01*
X190302438Y-89814285D02*
X190350057Y-89766666D01*
X190350057Y-89385713D02*
X190302438Y-89338094D01*
X190302438Y-89338094D02*
X190254819Y-89242856D01*
X190254819Y-89242856D02*
X190254819Y-89004761D01*
X190254819Y-89004761D02*
X190302438Y-88909523D01*
X190302438Y-88909523D02*
X190350057Y-88861904D01*
X190350057Y-88861904D02*
X190445295Y-88814285D01*
X190445295Y-88814285D02*
X190540533Y-88814285D01*
X190540533Y-88814285D02*
X190683390Y-88861904D01*
X190683390Y-88861904D02*
X191254819Y-89433332D01*
X191254819Y-89433332D02*
X191254819Y-88814285D01*
X132065080Y-82300357D02*
X132112700Y-82347976D01*
X132112700Y-82347976D02*
X132160319Y-82490833D01*
X132160319Y-82490833D02*
X132160319Y-82586071D01*
X132160319Y-82586071D02*
X132112700Y-82728928D01*
X132112700Y-82728928D02*
X132017461Y-82824166D01*
X132017461Y-82824166D02*
X131922223Y-82871785D01*
X131922223Y-82871785D02*
X131731747Y-82919404D01*
X131731747Y-82919404D02*
X131588890Y-82919404D01*
X131588890Y-82919404D02*
X131398414Y-82871785D01*
X131398414Y-82871785D02*
X131303176Y-82824166D01*
X131303176Y-82824166D02*
X131207938Y-82728928D01*
X131207938Y-82728928D02*
X131160319Y-82586071D01*
X131160319Y-82586071D02*
X131160319Y-82490833D01*
X131160319Y-82490833D02*
X131207938Y-82347976D01*
X131207938Y-82347976D02*
X131255557Y-82300357D01*
X131160319Y-81967023D02*
X131160319Y-81347976D01*
X131160319Y-81347976D02*
X131541271Y-81681309D01*
X131541271Y-81681309D02*
X131541271Y-81538452D01*
X131541271Y-81538452D02*
X131588890Y-81443214D01*
X131588890Y-81443214D02*
X131636509Y-81395595D01*
X131636509Y-81395595D02*
X131731747Y-81347976D01*
X131731747Y-81347976D02*
X131969842Y-81347976D01*
X131969842Y-81347976D02*
X132065080Y-81395595D01*
X132065080Y-81395595D02*
X132112700Y-81443214D01*
X132112700Y-81443214D02*
X132160319Y-81538452D01*
X132160319Y-81538452D02*
X132160319Y-81824166D01*
X132160319Y-81824166D02*
X132112700Y-81919404D01*
X132112700Y-81919404D02*
X132065080Y-81967023D01*
X132160319Y-80395595D02*
X132160319Y-80967023D01*
X132160319Y-80681309D02*
X131160319Y-80681309D01*
X131160319Y-80681309D02*
X131303176Y-80776547D01*
X131303176Y-80776547D02*
X131398414Y-80871785D01*
X131398414Y-80871785D02*
X131446033Y-80967023D01*
X153357142Y-70074080D02*
X153309523Y-70121700D01*
X153309523Y-70121700D02*
X153166666Y-70169319D01*
X153166666Y-70169319D02*
X153071428Y-70169319D01*
X153071428Y-70169319D02*
X152928571Y-70121700D01*
X152928571Y-70121700D02*
X152833333Y-70026461D01*
X152833333Y-70026461D02*
X152785714Y-69931223D01*
X152785714Y-69931223D02*
X152738095Y-69740747D01*
X152738095Y-69740747D02*
X152738095Y-69597890D01*
X152738095Y-69597890D02*
X152785714Y-69407414D01*
X152785714Y-69407414D02*
X152833333Y-69312176D01*
X152833333Y-69312176D02*
X152928571Y-69216938D01*
X152928571Y-69216938D02*
X153071428Y-69169319D01*
X153071428Y-69169319D02*
X153166666Y-69169319D01*
X153166666Y-69169319D02*
X153309523Y-69216938D01*
X153309523Y-69216938D02*
X153357142Y-69264557D01*
X153738095Y-69264557D02*
X153785714Y-69216938D01*
X153785714Y-69216938D02*
X153880952Y-69169319D01*
X153880952Y-69169319D02*
X154119047Y-69169319D01*
X154119047Y-69169319D02*
X154214285Y-69216938D01*
X154214285Y-69216938D02*
X154261904Y-69264557D01*
X154261904Y-69264557D02*
X154309523Y-69359795D01*
X154309523Y-69359795D02*
X154309523Y-69455033D01*
X154309523Y-69455033D02*
X154261904Y-69597890D01*
X154261904Y-69597890D02*
X153690476Y-70169319D01*
X153690476Y-70169319D02*
X154309523Y-70169319D01*
X154642857Y-69169319D02*
X155261904Y-69169319D01*
X155261904Y-69169319D02*
X154928571Y-69550271D01*
X154928571Y-69550271D02*
X155071428Y-69550271D01*
X155071428Y-69550271D02*
X155166666Y-69597890D01*
X155166666Y-69597890D02*
X155214285Y-69645509D01*
X155214285Y-69645509D02*
X155261904Y-69740747D01*
X155261904Y-69740747D02*
X155261904Y-69978842D01*
X155261904Y-69978842D02*
X155214285Y-70074080D01*
X155214285Y-70074080D02*
X155166666Y-70121700D01*
X155166666Y-70121700D02*
X155071428Y-70169319D01*
X155071428Y-70169319D02*
X154785714Y-70169319D01*
X154785714Y-70169319D02*
X154690476Y-70121700D01*
X154690476Y-70121700D02*
X154642857Y-70074080D01*
X162833333Y-64145080D02*
X162785714Y-64192700D01*
X162785714Y-64192700D02*
X162642857Y-64240319D01*
X162642857Y-64240319D02*
X162547619Y-64240319D01*
X162547619Y-64240319D02*
X162404762Y-64192700D01*
X162404762Y-64192700D02*
X162309524Y-64097461D01*
X162309524Y-64097461D02*
X162261905Y-64002223D01*
X162261905Y-64002223D02*
X162214286Y-63811747D01*
X162214286Y-63811747D02*
X162214286Y-63668890D01*
X162214286Y-63668890D02*
X162261905Y-63478414D01*
X162261905Y-63478414D02*
X162309524Y-63383176D01*
X162309524Y-63383176D02*
X162404762Y-63287938D01*
X162404762Y-63287938D02*
X162547619Y-63240319D01*
X162547619Y-63240319D02*
X162642857Y-63240319D01*
X162642857Y-63240319D02*
X162785714Y-63287938D01*
X162785714Y-63287938D02*
X162833333Y-63335557D01*
X163404762Y-63668890D02*
X163309524Y-63621271D01*
X163309524Y-63621271D02*
X163261905Y-63573652D01*
X163261905Y-63573652D02*
X163214286Y-63478414D01*
X163214286Y-63478414D02*
X163214286Y-63430795D01*
X163214286Y-63430795D02*
X163261905Y-63335557D01*
X163261905Y-63335557D02*
X163309524Y-63287938D01*
X163309524Y-63287938D02*
X163404762Y-63240319D01*
X163404762Y-63240319D02*
X163595238Y-63240319D01*
X163595238Y-63240319D02*
X163690476Y-63287938D01*
X163690476Y-63287938D02*
X163738095Y-63335557D01*
X163738095Y-63335557D02*
X163785714Y-63430795D01*
X163785714Y-63430795D02*
X163785714Y-63478414D01*
X163785714Y-63478414D02*
X163738095Y-63573652D01*
X163738095Y-63573652D02*
X163690476Y-63621271D01*
X163690476Y-63621271D02*
X163595238Y-63668890D01*
X163595238Y-63668890D02*
X163404762Y-63668890D01*
X163404762Y-63668890D02*
X163309524Y-63716509D01*
X163309524Y-63716509D02*
X163261905Y-63764128D01*
X163261905Y-63764128D02*
X163214286Y-63859366D01*
X163214286Y-63859366D02*
X163214286Y-64049842D01*
X163214286Y-64049842D02*
X163261905Y-64145080D01*
X163261905Y-64145080D02*
X163309524Y-64192700D01*
X163309524Y-64192700D02*
X163404762Y-64240319D01*
X163404762Y-64240319D02*
X163595238Y-64240319D01*
X163595238Y-64240319D02*
X163690476Y-64192700D01*
X163690476Y-64192700D02*
X163738095Y-64145080D01*
X163738095Y-64145080D02*
X163785714Y-64049842D01*
X163785714Y-64049842D02*
X163785714Y-63859366D01*
X163785714Y-63859366D02*
X163738095Y-63764128D01*
X163738095Y-63764128D02*
X163690476Y-63716509D01*
X163690476Y-63716509D02*
X163595238Y-63668890D01*
X136917261Y-52550057D02*
X136822023Y-52502438D01*
X136822023Y-52502438D02*
X136726785Y-52407200D01*
X136726785Y-52407200D02*
X136583928Y-52264342D01*
X136583928Y-52264342D02*
X136488690Y-52216723D01*
X136488690Y-52216723D02*
X136393452Y-52216723D01*
X136441071Y-52454819D02*
X136345833Y-52407200D01*
X136345833Y-52407200D02*
X136250595Y-52311961D01*
X136250595Y-52311961D02*
X136202976Y-52121485D01*
X136202976Y-52121485D02*
X136202976Y-51788152D01*
X136202976Y-51788152D02*
X136250595Y-51597676D01*
X136250595Y-51597676D02*
X136345833Y-51502438D01*
X136345833Y-51502438D02*
X136441071Y-51454819D01*
X136441071Y-51454819D02*
X136631547Y-51454819D01*
X136631547Y-51454819D02*
X136726785Y-51502438D01*
X136726785Y-51502438D02*
X136822023Y-51597676D01*
X136822023Y-51597676D02*
X136869642Y-51788152D01*
X136869642Y-51788152D02*
X136869642Y-52121485D01*
X136869642Y-52121485D02*
X136822023Y-52311961D01*
X136822023Y-52311961D02*
X136726785Y-52407200D01*
X136726785Y-52407200D02*
X136631547Y-52454819D01*
X136631547Y-52454819D02*
X136441071Y-52454819D01*
X137774404Y-51454819D02*
X137298214Y-51454819D01*
X137298214Y-51454819D02*
X137250595Y-51931009D01*
X137250595Y-51931009D02*
X137298214Y-51883390D01*
X137298214Y-51883390D02*
X137393452Y-51835771D01*
X137393452Y-51835771D02*
X137631547Y-51835771D01*
X137631547Y-51835771D02*
X137726785Y-51883390D01*
X137726785Y-51883390D02*
X137774404Y-51931009D01*
X137774404Y-51931009D02*
X137822023Y-52026247D01*
X137822023Y-52026247D02*
X137822023Y-52264342D01*
X137822023Y-52264342D02*
X137774404Y-52359580D01*
X137774404Y-52359580D02*
X137726785Y-52407200D01*
X137726785Y-52407200D02*
X137631547Y-52454819D01*
X137631547Y-52454819D02*
X137393452Y-52454819D01*
X137393452Y-52454819D02*
X137298214Y-52407200D01*
X137298214Y-52407200D02*
X137250595Y-52359580D01*
X38159580Y-58642857D02*
X38207200Y-58690476D01*
X38207200Y-58690476D02*
X38254819Y-58833333D01*
X38254819Y-58833333D02*
X38254819Y-58928571D01*
X38254819Y-58928571D02*
X38207200Y-59071428D01*
X38207200Y-59071428D02*
X38111961Y-59166666D01*
X38111961Y-59166666D02*
X38016723Y-59214285D01*
X38016723Y-59214285D02*
X37826247Y-59261904D01*
X37826247Y-59261904D02*
X37683390Y-59261904D01*
X37683390Y-59261904D02*
X37492914Y-59214285D01*
X37492914Y-59214285D02*
X37397676Y-59166666D01*
X37397676Y-59166666D02*
X37302438Y-59071428D01*
X37302438Y-59071428D02*
X37254819Y-58928571D01*
X37254819Y-58928571D02*
X37254819Y-58833333D01*
X37254819Y-58833333D02*
X37302438Y-58690476D01*
X37302438Y-58690476D02*
X37350057Y-58642857D01*
X37350057Y-58261904D02*
X37302438Y-58214285D01*
X37302438Y-58214285D02*
X37254819Y-58119047D01*
X37254819Y-58119047D02*
X37254819Y-57880952D01*
X37254819Y-57880952D02*
X37302438Y-57785714D01*
X37302438Y-57785714D02*
X37350057Y-57738095D01*
X37350057Y-57738095D02*
X37445295Y-57690476D01*
X37445295Y-57690476D02*
X37540533Y-57690476D01*
X37540533Y-57690476D02*
X37683390Y-57738095D01*
X37683390Y-57738095D02*
X38254819Y-58309523D01*
X38254819Y-58309523D02*
X38254819Y-57690476D01*
X38254819Y-56738095D02*
X38254819Y-57309523D01*
X38254819Y-57023809D02*
X37254819Y-57023809D01*
X37254819Y-57023809D02*
X37397676Y-57119047D01*
X37397676Y-57119047D02*
X37492914Y-57214285D01*
X37492914Y-57214285D02*
X37540533Y-57309523D01*
X157357142Y-66740319D02*
X157023809Y-66264128D01*
X156785714Y-66740319D02*
X156785714Y-65740319D01*
X156785714Y-65740319D02*
X157166666Y-65740319D01*
X157166666Y-65740319D02*
X157261904Y-65787938D01*
X157261904Y-65787938D02*
X157309523Y-65835557D01*
X157309523Y-65835557D02*
X157357142Y-65930795D01*
X157357142Y-65930795D02*
X157357142Y-66073652D01*
X157357142Y-66073652D02*
X157309523Y-66168890D01*
X157309523Y-66168890D02*
X157261904Y-66216509D01*
X157261904Y-66216509D02*
X157166666Y-66264128D01*
X157166666Y-66264128D02*
X156785714Y-66264128D01*
X158309523Y-66740319D02*
X157738095Y-66740319D01*
X158023809Y-66740319D02*
X158023809Y-65740319D01*
X158023809Y-65740319D02*
X157928571Y-65883176D01*
X157928571Y-65883176D02*
X157833333Y-65978414D01*
X157833333Y-65978414D02*
X157738095Y-66026033D01*
X159166666Y-66073652D02*
X159166666Y-66740319D01*
X158928571Y-65692700D02*
X158690476Y-66406985D01*
X158690476Y-66406985D02*
X159309523Y-66406985D01*
X92333333Y-52645080D02*
X92285714Y-52692700D01*
X92285714Y-52692700D02*
X92142857Y-52740319D01*
X92142857Y-52740319D02*
X92047619Y-52740319D01*
X92047619Y-52740319D02*
X91904762Y-52692700D01*
X91904762Y-52692700D02*
X91809524Y-52597461D01*
X91809524Y-52597461D02*
X91761905Y-52502223D01*
X91761905Y-52502223D02*
X91714286Y-52311747D01*
X91714286Y-52311747D02*
X91714286Y-52168890D01*
X91714286Y-52168890D02*
X91761905Y-51978414D01*
X91761905Y-51978414D02*
X91809524Y-51883176D01*
X91809524Y-51883176D02*
X91904762Y-51787938D01*
X91904762Y-51787938D02*
X92047619Y-51740319D01*
X92047619Y-51740319D02*
X92142857Y-51740319D01*
X92142857Y-51740319D02*
X92285714Y-51787938D01*
X92285714Y-51787938D02*
X92333333Y-51835557D01*
X93238095Y-51740319D02*
X92761905Y-51740319D01*
X92761905Y-51740319D02*
X92714286Y-52216509D01*
X92714286Y-52216509D02*
X92761905Y-52168890D01*
X92761905Y-52168890D02*
X92857143Y-52121271D01*
X92857143Y-52121271D02*
X93095238Y-52121271D01*
X93095238Y-52121271D02*
X93190476Y-52168890D01*
X93190476Y-52168890D02*
X93238095Y-52216509D01*
X93238095Y-52216509D02*
X93285714Y-52311747D01*
X93285714Y-52311747D02*
X93285714Y-52549842D01*
X93285714Y-52549842D02*
X93238095Y-52645080D01*
X93238095Y-52645080D02*
X93190476Y-52692700D01*
X93190476Y-52692700D02*
X93095238Y-52740319D01*
X93095238Y-52740319D02*
X92857143Y-52740319D01*
X92857143Y-52740319D02*
X92761905Y-52692700D01*
X92761905Y-52692700D02*
X92714286Y-52645080D01*
X110833333Y-63645080D02*
X110785714Y-63692700D01*
X110785714Y-63692700D02*
X110642857Y-63740319D01*
X110642857Y-63740319D02*
X110547619Y-63740319D01*
X110547619Y-63740319D02*
X110404762Y-63692700D01*
X110404762Y-63692700D02*
X110309524Y-63597461D01*
X110309524Y-63597461D02*
X110261905Y-63502223D01*
X110261905Y-63502223D02*
X110214286Y-63311747D01*
X110214286Y-63311747D02*
X110214286Y-63168890D01*
X110214286Y-63168890D02*
X110261905Y-62978414D01*
X110261905Y-62978414D02*
X110309524Y-62883176D01*
X110309524Y-62883176D02*
X110404762Y-62787938D01*
X110404762Y-62787938D02*
X110547619Y-62740319D01*
X110547619Y-62740319D02*
X110642857Y-62740319D01*
X110642857Y-62740319D02*
X110785714Y-62787938D01*
X110785714Y-62787938D02*
X110833333Y-62835557D01*
X111690476Y-62740319D02*
X111500000Y-62740319D01*
X111500000Y-62740319D02*
X111404762Y-62787938D01*
X111404762Y-62787938D02*
X111357143Y-62835557D01*
X111357143Y-62835557D02*
X111261905Y-62978414D01*
X111261905Y-62978414D02*
X111214286Y-63168890D01*
X111214286Y-63168890D02*
X111214286Y-63549842D01*
X111214286Y-63549842D02*
X111261905Y-63645080D01*
X111261905Y-63645080D02*
X111309524Y-63692700D01*
X111309524Y-63692700D02*
X111404762Y-63740319D01*
X111404762Y-63740319D02*
X111595238Y-63740319D01*
X111595238Y-63740319D02*
X111690476Y-63692700D01*
X111690476Y-63692700D02*
X111738095Y-63645080D01*
X111738095Y-63645080D02*
X111785714Y-63549842D01*
X111785714Y-63549842D02*
X111785714Y-63311747D01*
X111785714Y-63311747D02*
X111738095Y-63216509D01*
X111738095Y-63216509D02*
X111690476Y-63168890D01*
X111690476Y-63168890D02*
X111595238Y-63121271D01*
X111595238Y-63121271D02*
X111404762Y-63121271D01*
X111404762Y-63121271D02*
X111309524Y-63168890D01*
X111309524Y-63168890D02*
X111261905Y-63216509D01*
X111261905Y-63216509D02*
X111214286Y-63311747D01*
X88557142Y-52654819D02*
X88223809Y-52178628D01*
X87985714Y-52654819D02*
X87985714Y-51654819D01*
X87985714Y-51654819D02*
X88366666Y-51654819D01*
X88366666Y-51654819D02*
X88461904Y-51702438D01*
X88461904Y-51702438D02*
X88509523Y-51750057D01*
X88509523Y-51750057D02*
X88557142Y-51845295D01*
X88557142Y-51845295D02*
X88557142Y-51988152D01*
X88557142Y-51988152D02*
X88509523Y-52083390D01*
X88509523Y-52083390D02*
X88461904Y-52131009D01*
X88461904Y-52131009D02*
X88366666Y-52178628D01*
X88366666Y-52178628D02*
X87985714Y-52178628D01*
X89509523Y-52654819D02*
X88938095Y-52654819D01*
X89223809Y-52654819D02*
X89223809Y-51654819D01*
X89223809Y-51654819D02*
X89128571Y-51797676D01*
X89128571Y-51797676D02*
X89033333Y-51892914D01*
X89033333Y-51892914D02*
X88938095Y-51940533D01*
X90461904Y-52654819D02*
X89890476Y-52654819D01*
X90176190Y-52654819D02*
X90176190Y-51654819D01*
X90176190Y-51654819D02*
X90080952Y-51797676D01*
X90080952Y-51797676D02*
X89985714Y-51892914D01*
X89985714Y-51892914D02*
X89890476Y-51940533D01*
X162904761Y-70550057D02*
X162809523Y-70502438D01*
X162809523Y-70502438D02*
X162714285Y-70407200D01*
X162714285Y-70407200D02*
X162571428Y-70264342D01*
X162571428Y-70264342D02*
X162476190Y-70216723D01*
X162476190Y-70216723D02*
X162380952Y-70216723D01*
X162428571Y-70454819D02*
X162333333Y-70407200D01*
X162333333Y-70407200D02*
X162238095Y-70311961D01*
X162238095Y-70311961D02*
X162190476Y-70121485D01*
X162190476Y-70121485D02*
X162190476Y-69788152D01*
X162190476Y-69788152D02*
X162238095Y-69597676D01*
X162238095Y-69597676D02*
X162333333Y-69502438D01*
X162333333Y-69502438D02*
X162428571Y-69454819D01*
X162428571Y-69454819D02*
X162619047Y-69454819D01*
X162619047Y-69454819D02*
X162714285Y-69502438D01*
X162714285Y-69502438D02*
X162809523Y-69597676D01*
X162809523Y-69597676D02*
X162857142Y-69788152D01*
X162857142Y-69788152D02*
X162857142Y-70121485D01*
X162857142Y-70121485D02*
X162809523Y-70311961D01*
X162809523Y-70311961D02*
X162714285Y-70407200D01*
X162714285Y-70407200D02*
X162619047Y-70454819D01*
X162619047Y-70454819D02*
X162428571Y-70454819D01*
X163714285Y-69454819D02*
X163523809Y-69454819D01*
X163523809Y-69454819D02*
X163428571Y-69502438D01*
X163428571Y-69502438D02*
X163380952Y-69550057D01*
X163380952Y-69550057D02*
X163285714Y-69692914D01*
X163285714Y-69692914D02*
X163238095Y-69883390D01*
X163238095Y-69883390D02*
X163238095Y-70264342D01*
X163238095Y-70264342D02*
X163285714Y-70359580D01*
X163285714Y-70359580D02*
X163333333Y-70407200D01*
X163333333Y-70407200D02*
X163428571Y-70454819D01*
X163428571Y-70454819D02*
X163619047Y-70454819D01*
X163619047Y-70454819D02*
X163714285Y-70407200D01*
X163714285Y-70407200D02*
X163761904Y-70359580D01*
X163761904Y-70359580D02*
X163809523Y-70264342D01*
X163809523Y-70264342D02*
X163809523Y-70026247D01*
X163809523Y-70026247D02*
X163761904Y-69931009D01*
X163761904Y-69931009D02*
X163714285Y-69883390D01*
X163714285Y-69883390D02*
X163619047Y-69835771D01*
X163619047Y-69835771D02*
X163428571Y-69835771D01*
X163428571Y-69835771D02*
X163333333Y-69883390D01*
X163333333Y-69883390D02*
X163285714Y-69931009D01*
X163285714Y-69931009D02*
X163238095Y-70026247D01*
X155088095Y-90484819D02*
X155088095Y-91294342D01*
X155088095Y-91294342D02*
X155135714Y-91389580D01*
X155135714Y-91389580D02*
X155183333Y-91437200D01*
X155183333Y-91437200D02*
X155278571Y-91484819D01*
X155278571Y-91484819D02*
X155469047Y-91484819D01*
X155469047Y-91484819D02*
X155564285Y-91437200D01*
X155564285Y-91437200D02*
X155611904Y-91389580D01*
X155611904Y-91389580D02*
X155659523Y-91294342D01*
X155659523Y-91294342D02*
X155659523Y-90484819D01*
X156659523Y-91484819D02*
X156088095Y-91484819D01*
X156373809Y-91484819D02*
X156373809Y-90484819D01*
X156373809Y-90484819D02*
X156278571Y-90627676D01*
X156278571Y-90627676D02*
X156183333Y-90722914D01*
X156183333Y-90722914D02*
X156088095Y-90770533D01*
X134357142Y-58954819D02*
X134023809Y-58478628D01*
X133785714Y-58954819D02*
X133785714Y-57954819D01*
X133785714Y-57954819D02*
X134166666Y-57954819D01*
X134166666Y-57954819D02*
X134261904Y-58002438D01*
X134261904Y-58002438D02*
X134309523Y-58050057D01*
X134309523Y-58050057D02*
X134357142Y-58145295D01*
X134357142Y-58145295D02*
X134357142Y-58288152D01*
X134357142Y-58288152D02*
X134309523Y-58383390D01*
X134309523Y-58383390D02*
X134261904Y-58431009D01*
X134261904Y-58431009D02*
X134166666Y-58478628D01*
X134166666Y-58478628D02*
X133785714Y-58478628D01*
X135309523Y-58954819D02*
X134738095Y-58954819D01*
X135023809Y-58954819D02*
X135023809Y-57954819D01*
X135023809Y-57954819D02*
X134928571Y-58097676D01*
X134928571Y-58097676D02*
X134833333Y-58192914D01*
X134833333Y-58192914D02*
X134738095Y-58240533D01*
X135642857Y-57954819D02*
X136261904Y-57954819D01*
X136261904Y-57954819D02*
X135928571Y-58335771D01*
X135928571Y-58335771D02*
X136071428Y-58335771D01*
X136071428Y-58335771D02*
X136166666Y-58383390D01*
X136166666Y-58383390D02*
X136214285Y-58431009D01*
X136214285Y-58431009D02*
X136261904Y-58526247D01*
X136261904Y-58526247D02*
X136261904Y-58764342D01*
X136261904Y-58764342D02*
X136214285Y-58859580D01*
X136214285Y-58859580D02*
X136166666Y-58907200D01*
X136166666Y-58907200D02*
X136071428Y-58954819D01*
X136071428Y-58954819D02*
X135785714Y-58954819D01*
X135785714Y-58954819D02*
X135690476Y-58907200D01*
X135690476Y-58907200D02*
X135642857Y-58859580D01*
X60104761Y-70550057D02*
X60009523Y-70502438D01*
X60009523Y-70502438D02*
X59914285Y-70407200D01*
X59914285Y-70407200D02*
X59771428Y-70264342D01*
X59771428Y-70264342D02*
X59676190Y-70216723D01*
X59676190Y-70216723D02*
X59580952Y-70216723D01*
X59628571Y-70454819D02*
X59533333Y-70407200D01*
X59533333Y-70407200D02*
X59438095Y-70311961D01*
X59438095Y-70311961D02*
X59390476Y-70121485D01*
X59390476Y-70121485D02*
X59390476Y-69788152D01*
X59390476Y-69788152D02*
X59438095Y-69597676D01*
X59438095Y-69597676D02*
X59533333Y-69502438D01*
X59533333Y-69502438D02*
X59628571Y-69454819D01*
X59628571Y-69454819D02*
X59819047Y-69454819D01*
X59819047Y-69454819D02*
X59914285Y-69502438D01*
X59914285Y-69502438D02*
X60009523Y-69597676D01*
X60009523Y-69597676D02*
X60057142Y-69788152D01*
X60057142Y-69788152D02*
X60057142Y-70121485D01*
X60057142Y-70121485D02*
X60009523Y-70311961D01*
X60009523Y-70311961D02*
X59914285Y-70407200D01*
X59914285Y-70407200D02*
X59819047Y-70454819D01*
X59819047Y-70454819D02*
X59628571Y-70454819D01*
X60438095Y-69550057D02*
X60485714Y-69502438D01*
X60485714Y-69502438D02*
X60580952Y-69454819D01*
X60580952Y-69454819D02*
X60819047Y-69454819D01*
X60819047Y-69454819D02*
X60914285Y-69502438D01*
X60914285Y-69502438D02*
X60961904Y-69550057D01*
X60961904Y-69550057D02*
X61009523Y-69645295D01*
X61009523Y-69645295D02*
X61009523Y-69740533D01*
X61009523Y-69740533D02*
X60961904Y-69883390D01*
X60961904Y-69883390D02*
X60390476Y-70454819D01*
X60390476Y-70454819D02*
X61009523Y-70454819D01*
X183645080Y-53166666D02*
X183692700Y-53214285D01*
X183692700Y-53214285D02*
X183740319Y-53357142D01*
X183740319Y-53357142D02*
X183740319Y-53452380D01*
X183740319Y-53452380D02*
X183692700Y-53595237D01*
X183692700Y-53595237D02*
X183597461Y-53690475D01*
X183597461Y-53690475D02*
X183502223Y-53738094D01*
X183502223Y-53738094D02*
X183311747Y-53785713D01*
X183311747Y-53785713D02*
X183168890Y-53785713D01*
X183168890Y-53785713D02*
X182978414Y-53738094D01*
X182978414Y-53738094D02*
X182883176Y-53690475D01*
X182883176Y-53690475D02*
X182787938Y-53595237D01*
X182787938Y-53595237D02*
X182740319Y-53452380D01*
X182740319Y-53452380D02*
X182740319Y-53357142D01*
X182740319Y-53357142D02*
X182787938Y-53214285D01*
X182787938Y-53214285D02*
X182835557Y-53166666D01*
X183740319Y-52690475D02*
X183740319Y-52499999D01*
X183740319Y-52499999D02*
X183692700Y-52404761D01*
X183692700Y-52404761D02*
X183645080Y-52357142D01*
X183645080Y-52357142D02*
X183502223Y-52261904D01*
X183502223Y-52261904D02*
X183311747Y-52214285D01*
X183311747Y-52214285D02*
X182930795Y-52214285D01*
X182930795Y-52214285D02*
X182835557Y-52261904D01*
X182835557Y-52261904D02*
X182787938Y-52309523D01*
X182787938Y-52309523D02*
X182740319Y-52404761D01*
X182740319Y-52404761D02*
X182740319Y-52595237D01*
X182740319Y-52595237D02*
X182787938Y-52690475D01*
X182787938Y-52690475D02*
X182835557Y-52738094D01*
X182835557Y-52738094D02*
X182930795Y-52785713D01*
X182930795Y-52785713D02*
X183168890Y-52785713D01*
X183168890Y-52785713D02*
X183264128Y-52738094D01*
X183264128Y-52738094D02*
X183311747Y-52690475D01*
X183311747Y-52690475D02*
X183359366Y-52595237D01*
X183359366Y-52595237D02*
X183359366Y-52404761D01*
X183359366Y-52404761D02*
X183311747Y-52309523D01*
X183311747Y-52309523D02*
X183264128Y-52261904D01*
X183264128Y-52261904D02*
X183168890Y-52214285D01*
X111574080Y-72142857D02*
X111621700Y-72190476D01*
X111621700Y-72190476D02*
X111669319Y-72333333D01*
X111669319Y-72333333D02*
X111669319Y-72428571D01*
X111669319Y-72428571D02*
X111621700Y-72571428D01*
X111621700Y-72571428D02*
X111526461Y-72666666D01*
X111526461Y-72666666D02*
X111431223Y-72714285D01*
X111431223Y-72714285D02*
X111240747Y-72761904D01*
X111240747Y-72761904D02*
X111097890Y-72761904D01*
X111097890Y-72761904D02*
X110907414Y-72714285D01*
X110907414Y-72714285D02*
X110812176Y-72666666D01*
X110812176Y-72666666D02*
X110716938Y-72571428D01*
X110716938Y-72571428D02*
X110669319Y-72428571D01*
X110669319Y-72428571D02*
X110669319Y-72333333D01*
X110669319Y-72333333D02*
X110716938Y-72190476D01*
X110716938Y-72190476D02*
X110764557Y-72142857D01*
X110764557Y-71761904D02*
X110716938Y-71714285D01*
X110716938Y-71714285D02*
X110669319Y-71619047D01*
X110669319Y-71619047D02*
X110669319Y-71380952D01*
X110669319Y-71380952D02*
X110716938Y-71285714D01*
X110716938Y-71285714D02*
X110764557Y-71238095D01*
X110764557Y-71238095D02*
X110859795Y-71190476D01*
X110859795Y-71190476D02*
X110955033Y-71190476D01*
X110955033Y-71190476D02*
X111097890Y-71238095D01*
X111097890Y-71238095D02*
X111669319Y-71809523D01*
X111669319Y-71809523D02*
X111669319Y-71190476D01*
X110669319Y-70285714D02*
X110669319Y-70761904D01*
X110669319Y-70761904D02*
X111145509Y-70809523D01*
X111145509Y-70809523D02*
X111097890Y-70761904D01*
X111097890Y-70761904D02*
X111050271Y-70666666D01*
X111050271Y-70666666D02*
X111050271Y-70428571D01*
X111050271Y-70428571D02*
X111097890Y-70333333D01*
X111097890Y-70333333D02*
X111145509Y-70285714D01*
X111145509Y-70285714D02*
X111240747Y-70238095D01*
X111240747Y-70238095D02*
X111478842Y-70238095D01*
X111478842Y-70238095D02*
X111574080Y-70285714D01*
X111574080Y-70285714D02*
X111621700Y-70333333D01*
X111621700Y-70333333D02*
X111669319Y-70428571D01*
X111669319Y-70428571D02*
X111669319Y-70666666D01*
X111669319Y-70666666D02*
X111621700Y-70761904D01*
X111621700Y-70761904D02*
X111574080Y-70809523D01*
X209357142Y-66740319D02*
X209023809Y-66264128D01*
X208785714Y-66740319D02*
X208785714Y-65740319D01*
X208785714Y-65740319D02*
X209166666Y-65740319D01*
X209166666Y-65740319D02*
X209261904Y-65787938D01*
X209261904Y-65787938D02*
X209309523Y-65835557D01*
X209309523Y-65835557D02*
X209357142Y-65930795D01*
X209357142Y-65930795D02*
X209357142Y-66073652D01*
X209357142Y-66073652D02*
X209309523Y-66168890D01*
X209309523Y-66168890D02*
X209261904Y-66216509D01*
X209261904Y-66216509D02*
X209166666Y-66264128D01*
X209166666Y-66264128D02*
X208785714Y-66264128D01*
X210309523Y-66740319D02*
X209738095Y-66740319D01*
X210023809Y-66740319D02*
X210023809Y-65740319D01*
X210023809Y-65740319D02*
X209928571Y-65883176D01*
X209928571Y-65883176D02*
X209833333Y-65978414D01*
X209833333Y-65978414D02*
X209738095Y-66026033D01*
X211166666Y-65740319D02*
X210976190Y-65740319D01*
X210976190Y-65740319D02*
X210880952Y-65787938D01*
X210880952Y-65787938D02*
X210833333Y-65835557D01*
X210833333Y-65835557D02*
X210738095Y-65978414D01*
X210738095Y-65978414D02*
X210690476Y-66168890D01*
X210690476Y-66168890D02*
X210690476Y-66549842D01*
X210690476Y-66549842D02*
X210738095Y-66645080D01*
X210738095Y-66645080D02*
X210785714Y-66692700D01*
X210785714Y-66692700D02*
X210880952Y-66740319D01*
X210880952Y-66740319D02*
X211071428Y-66740319D01*
X211071428Y-66740319D02*
X211166666Y-66692700D01*
X211166666Y-66692700D02*
X211214285Y-66645080D01*
X211214285Y-66645080D02*
X211261904Y-66549842D01*
X211261904Y-66549842D02*
X211261904Y-66311747D01*
X211261904Y-66311747D02*
X211214285Y-66216509D01*
X211214285Y-66216509D02*
X211166666Y-66168890D01*
X211166666Y-66168890D02*
X211071428Y-66121271D01*
X211071428Y-66121271D02*
X210880952Y-66121271D01*
X210880952Y-66121271D02*
X210785714Y-66168890D01*
X210785714Y-66168890D02*
X210738095Y-66216509D01*
X210738095Y-66216509D02*
X210690476Y-66311747D01*
X112065080Y-82300357D02*
X112112700Y-82347976D01*
X112112700Y-82347976D02*
X112160319Y-82490833D01*
X112160319Y-82490833D02*
X112160319Y-82586071D01*
X112160319Y-82586071D02*
X112112700Y-82728928D01*
X112112700Y-82728928D02*
X112017461Y-82824166D01*
X112017461Y-82824166D02*
X111922223Y-82871785D01*
X111922223Y-82871785D02*
X111731747Y-82919404D01*
X111731747Y-82919404D02*
X111588890Y-82919404D01*
X111588890Y-82919404D02*
X111398414Y-82871785D01*
X111398414Y-82871785D02*
X111303176Y-82824166D01*
X111303176Y-82824166D02*
X111207938Y-82728928D01*
X111207938Y-82728928D02*
X111160319Y-82586071D01*
X111160319Y-82586071D02*
X111160319Y-82490833D01*
X111160319Y-82490833D02*
X111207938Y-82347976D01*
X111207938Y-82347976D02*
X111255557Y-82300357D01*
X111160319Y-81967023D02*
X111160319Y-81347976D01*
X111160319Y-81347976D02*
X111541271Y-81681309D01*
X111541271Y-81681309D02*
X111541271Y-81538452D01*
X111541271Y-81538452D02*
X111588890Y-81443214D01*
X111588890Y-81443214D02*
X111636509Y-81395595D01*
X111636509Y-81395595D02*
X111731747Y-81347976D01*
X111731747Y-81347976D02*
X111969842Y-81347976D01*
X111969842Y-81347976D02*
X112065080Y-81395595D01*
X112065080Y-81395595D02*
X112112700Y-81443214D01*
X112112700Y-81443214D02*
X112160319Y-81538452D01*
X112160319Y-81538452D02*
X112160319Y-81824166D01*
X112160319Y-81824166D02*
X112112700Y-81919404D01*
X112112700Y-81919404D02*
X112065080Y-81967023D01*
X111160319Y-81014642D02*
X111160319Y-80395595D01*
X111160319Y-80395595D02*
X111541271Y-80728928D01*
X111541271Y-80728928D02*
X111541271Y-80586071D01*
X111541271Y-80586071D02*
X111588890Y-80490833D01*
X111588890Y-80490833D02*
X111636509Y-80443214D01*
X111636509Y-80443214D02*
X111731747Y-80395595D01*
X111731747Y-80395595D02*
X111969842Y-80395595D01*
X111969842Y-80395595D02*
X112065080Y-80443214D01*
X112065080Y-80443214D02*
X112112700Y-80490833D01*
X112112700Y-80490833D02*
X112160319Y-80586071D01*
X112160319Y-80586071D02*
X112160319Y-80871785D01*
X112160319Y-80871785D02*
X112112700Y-80967023D01*
X112112700Y-80967023D02*
X112065080Y-81014642D01*
D11*
X182866666Y-88257419D02*
X182866666Y-88971704D01*
X182866666Y-88971704D02*
X182819047Y-89114561D01*
X182819047Y-89114561D02*
X182723809Y-89209800D01*
X182723809Y-89209800D02*
X182580952Y-89257419D01*
X182580952Y-89257419D02*
X182485714Y-89257419D01*
X183866666Y-89257419D02*
X183295238Y-89257419D01*
X183580952Y-89257419D02*
X183580952Y-88257419D01*
X183580952Y-88257419D02*
X183485714Y-88400276D01*
X183485714Y-88400276D02*
X183390476Y-88495514D01*
X183390476Y-88495514D02*
X183295238Y-88543133D01*
D10*
X60074080Y-72642857D02*
X60121700Y-72690476D01*
X60121700Y-72690476D02*
X60169319Y-72833333D01*
X60169319Y-72833333D02*
X60169319Y-72928571D01*
X60169319Y-72928571D02*
X60121700Y-73071428D01*
X60121700Y-73071428D02*
X60026461Y-73166666D01*
X60026461Y-73166666D02*
X59931223Y-73214285D01*
X59931223Y-73214285D02*
X59740747Y-73261904D01*
X59740747Y-73261904D02*
X59597890Y-73261904D01*
X59597890Y-73261904D02*
X59407414Y-73214285D01*
X59407414Y-73214285D02*
X59312176Y-73166666D01*
X59312176Y-73166666D02*
X59216938Y-73071428D01*
X59216938Y-73071428D02*
X59169319Y-72928571D01*
X59169319Y-72928571D02*
X59169319Y-72833333D01*
X59169319Y-72833333D02*
X59216938Y-72690476D01*
X59216938Y-72690476D02*
X59264557Y-72642857D01*
X60169319Y-71690476D02*
X60169319Y-72261904D01*
X60169319Y-71976190D02*
X59169319Y-71976190D01*
X59169319Y-71976190D02*
X59312176Y-72071428D01*
X59312176Y-72071428D02*
X59407414Y-72166666D01*
X59407414Y-72166666D02*
X59455033Y-72261904D01*
X60169319Y-71214285D02*
X60169319Y-71023809D01*
X60169319Y-71023809D02*
X60121700Y-70928571D01*
X60121700Y-70928571D02*
X60074080Y-70880952D01*
X60074080Y-70880952D02*
X59931223Y-70785714D01*
X59931223Y-70785714D02*
X59740747Y-70738095D01*
X59740747Y-70738095D02*
X59359795Y-70738095D01*
X59359795Y-70738095D02*
X59264557Y-70785714D01*
X59264557Y-70785714D02*
X59216938Y-70833333D01*
X59216938Y-70833333D02*
X59169319Y-70928571D01*
X59169319Y-70928571D02*
X59169319Y-71119047D01*
X59169319Y-71119047D02*
X59216938Y-71214285D01*
X59216938Y-71214285D02*
X59264557Y-71261904D01*
X59264557Y-71261904D02*
X59359795Y-71309523D01*
X59359795Y-71309523D02*
X59597890Y-71309523D01*
X59597890Y-71309523D02*
X59693128Y-71261904D01*
X59693128Y-71261904D02*
X59740747Y-71214285D01*
X59740747Y-71214285D02*
X59788366Y-71119047D01*
X59788366Y-71119047D02*
X59788366Y-70928571D01*
X59788366Y-70928571D02*
X59740747Y-70833333D01*
X59740747Y-70833333D02*
X59693128Y-70785714D01*
X59693128Y-70785714D02*
X59597890Y-70738095D01*
X32904761Y-52550057D02*
X32809523Y-52502438D01*
X32809523Y-52502438D02*
X32714285Y-52407200D01*
X32714285Y-52407200D02*
X32571428Y-52264342D01*
X32571428Y-52264342D02*
X32476190Y-52216723D01*
X32476190Y-52216723D02*
X32380952Y-52216723D01*
X32428571Y-52454819D02*
X32333333Y-52407200D01*
X32333333Y-52407200D02*
X32238095Y-52311961D01*
X32238095Y-52311961D02*
X32190476Y-52121485D01*
X32190476Y-52121485D02*
X32190476Y-51788152D01*
X32190476Y-51788152D02*
X32238095Y-51597676D01*
X32238095Y-51597676D02*
X32333333Y-51502438D01*
X32333333Y-51502438D02*
X32428571Y-51454819D01*
X32428571Y-51454819D02*
X32619047Y-51454819D01*
X32619047Y-51454819D02*
X32714285Y-51502438D01*
X32714285Y-51502438D02*
X32809523Y-51597676D01*
X32809523Y-51597676D02*
X32857142Y-51788152D01*
X32857142Y-51788152D02*
X32857142Y-52121485D01*
X32857142Y-52121485D02*
X32809523Y-52311961D01*
X32809523Y-52311961D02*
X32714285Y-52407200D01*
X32714285Y-52407200D02*
X32619047Y-52454819D01*
X32619047Y-52454819D02*
X32428571Y-52454819D01*
X33809523Y-52454819D02*
X33238095Y-52454819D01*
X33523809Y-52454819D02*
X33523809Y-51454819D01*
X33523809Y-51454819D02*
X33428571Y-51597676D01*
X33428571Y-51597676D02*
X33333333Y-51692914D01*
X33333333Y-51692914D02*
X33238095Y-51740533D01*
D12*
%TO.C,C30*%
X137467500Y-83499000D02*
X139372500Y-83499000D01*
X139372500Y-83499000D02*
X139372500Y-79816000D01*
X137467500Y-79816000D02*
X137467500Y-83499000D01*
X139372500Y-79816000D02*
X137467500Y-79816000D01*
%TO.C,Q7*%
X186552500Y-52865000D02*
X186552500Y-55135000D01*
X186552500Y-55135000D02*
X190612500Y-55135000D01*
X190612500Y-52865000D02*
X186552500Y-52865000D01*
%TO.C,Q3*%
X87472500Y-55135000D02*
X87472500Y-52865000D01*
X87472500Y-52865000D02*
X83412500Y-52865000D01*
X83412500Y-55135000D02*
X87472500Y-55135000D01*
%TO.C,C32*%
X122467500Y-83499000D02*
X124372500Y-83499000D01*
X124372500Y-83499000D02*
X124372500Y-79816000D01*
X122467500Y-79816000D02*
X122467500Y-83499000D01*
X124372500Y-79816000D02*
X122467500Y-79816000D01*
%TO.C,C29*%
X127467500Y-83499000D02*
X129372500Y-83499000D01*
X129372500Y-83499000D02*
X129372500Y-79816000D01*
X127467500Y-79816000D02*
X127467500Y-83499000D01*
X129372500Y-79816000D02*
X127467500Y-79816000D01*
%TO.C,C26*%
X179952500Y-54158500D02*
X178047500Y-54158500D01*
X178047500Y-54158500D02*
X178047500Y-57841500D01*
X179952500Y-57841500D02*
X179952500Y-54158500D01*
X178047500Y-57841500D02*
X179952500Y-57841500D01*
%TO.C,C7*%
X136658500Y-55547500D02*
X136658500Y-57452500D01*
X136658500Y-57452500D02*
X140341500Y-57452500D01*
X140341500Y-55547500D02*
X136658500Y-55547500D01*
X140341500Y-57452500D02*
X140341500Y-55547500D01*
%TO.C,C34*%
X102467500Y-83499000D02*
X104372500Y-83499000D01*
X104372500Y-83499000D02*
X104372500Y-79816000D01*
X102467500Y-79816000D02*
X102467500Y-83499000D01*
X104372500Y-79816000D02*
X102467500Y-79816000D01*
%TO.C,R15*%
X180158500Y-54047500D02*
X180158500Y-55952500D01*
X180158500Y-55952500D02*
X183841500Y-55952500D01*
X183841500Y-54047500D02*
X180158500Y-54047500D01*
X183841500Y-55952500D02*
X183841500Y-54047500D01*
%TO.C,J2*%
X93080000Y-78452500D02*
X92080000Y-78452500D01*
X92080000Y-78452500D02*
X92580000Y-79452500D01*
X92580000Y-79452500D02*
X93080000Y-78452500D01*
X97790000Y-85072500D02*
X97790000Y-94192500D01*
X89550000Y-85072500D02*
X89550000Y-94192500D01*
X85450000Y-85072500D02*
X85450000Y-94192500D01*
X77210000Y-85072500D02*
X97790000Y-85072500D01*
X97790000Y-94192500D02*
X77210000Y-94192500D01*
X77210000Y-94192500D02*
X77210000Y-85072500D01*
%TO.C,C1*%
X31158500Y-55547500D02*
X31158500Y-57452500D01*
X31158500Y-57452500D02*
X34841500Y-57452500D01*
X34841500Y-55547500D02*
X31158500Y-55547500D01*
X34841500Y-57452500D02*
X34841500Y-55547500D01*
%TO.C,C24*%
X133341500Y-59552500D02*
X133341500Y-57647500D01*
X133341500Y-57647500D02*
X129658500Y-57647500D01*
X129658500Y-59552500D02*
X133341500Y-59552500D01*
X129658500Y-57647500D02*
X129658500Y-59552500D01*
%TO.C,R12*%
X106047500Y-70841500D02*
X107952500Y-70841500D01*
X107952500Y-70841500D02*
X107952500Y-67158500D01*
X106047500Y-67158500D02*
X106047500Y-70841500D01*
X107952500Y-67158500D02*
X106047500Y-67158500D01*
%TO.C,C22*%
X90158500Y-57047500D02*
X90158500Y-58952500D01*
X90158500Y-58952500D02*
X93841500Y-58952500D01*
X93841500Y-57047500D02*
X90158500Y-57047500D01*
X93841500Y-58952500D02*
X93841500Y-57047500D01*
%TO.C,C20*%
X207841500Y-68952500D02*
X207841500Y-67047500D01*
X207841500Y-67047500D02*
X204158500Y-67047500D01*
X204158500Y-68952500D02*
X207841500Y-68952500D01*
X204158500Y-67047500D02*
X204158500Y-68952500D01*
%TO.C,C4*%
X57158500Y-64547500D02*
X57158500Y-66452500D01*
X57158500Y-66452500D02*
X60841500Y-66452500D01*
X60841500Y-64547500D02*
X57158500Y-64547500D01*
X60841500Y-66452500D02*
X60841500Y-64547500D01*
%TO.C,R9*%
X34841500Y-59952500D02*
X34841500Y-58047500D01*
X34841500Y-58047500D02*
X31158500Y-58047500D01*
X31158500Y-59952500D02*
X34841500Y-59952500D01*
X31158500Y-58047500D02*
X31158500Y-59952500D01*
%TO.C,C28*%
X117467500Y-83499000D02*
X119372500Y-83499000D01*
X119372500Y-83499000D02*
X119372500Y-79816000D01*
X117467500Y-79816000D02*
X117467500Y-83499000D01*
X119372500Y-79816000D02*
X117467500Y-79816000D01*
%TO.C,R10*%
X54422500Y-70866500D02*
X56327500Y-70866500D01*
X56327500Y-70866500D02*
X56327500Y-67183500D01*
X54422500Y-67183500D02*
X54422500Y-70866500D01*
X56327500Y-67183500D02*
X54422500Y-67183500D01*
%TO.C,C27*%
X107467500Y-83499000D02*
X109372500Y-83499000D01*
X109372500Y-83499000D02*
X109372500Y-79816000D01*
X107467500Y-79816000D02*
X107467500Y-83499000D01*
X109372500Y-79816000D02*
X107467500Y-79816000D01*
%TO.C,Q4*%
X108540000Y-66865000D02*
X108540000Y-69135000D01*
X108540000Y-69135000D02*
X112600000Y-69135000D01*
X112600000Y-66865000D02*
X108540000Y-66865000D01*
%TO.C,Q8*%
X212552500Y-66865000D02*
X212552500Y-69135000D01*
X212552500Y-69135000D02*
X216612500Y-69135000D01*
X216612500Y-66865000D02*
X212552500Y-66865000D01*
%TO.C,C2*%
X188047500Y-91241500D02*
X189952500Y-91241500D01*
X189952500Y-91241500D02*
X189952500Y-87558500D01*
X188047500Y-87558500D02*
X188047500Y-91241500D01*
X189952500Y-87558500D02*
X188047500Y-87558500D01*
%TO.C,C31*%
X132467500Y-83499000D02*
X134372500Y-83499000D01*
X134372500Y-83499000D02*
X134372500Y-79816000D01*
X132467500Y-79816000D02*
X132467500Y-83499000D01*
X134372500Y-79816000D02*
X132467500Y-79816000D01*
%TO.C,C23*%
X155841500Y-68952500D02*
X155841500Y-67047500D01*
X155841500Y-67047500D02*
X152158500Y-67047500D01*
X152158500Y-68952500D02*
X155841500Y-68952500D01*
X152158500Y-67047500D02*
X152158500Y-68952500D01*
%TO.C,C8*%
X161158500Y-64547500D02*
X161158500Y-66452500D01*
X161158500Y-66452500D02*
X164841500Y-66452500D01*
X164841500Y-64547500D02*
X161158500Y-64547500D01*
X164841500Y-66452500D02*
X164841500Y-64547500D01*
%TO.C,Q5*%
X134552500Y-52865000D02*
X134552500Y-55135000D01*
X134552500Y-55135000D02*
X138612500Y-55135000D01*
X138612500Y-52865000D02*
X134552500Y-52865000D01*
%TO.C,C21*%
X35047500Y-59841500D02*
X36952500Y-59841500D01*
X36952500Y-59841500D02*
X36952500Y-56158500D01*
X35047500Y-56158500D02*
X35047500Y-59841500D01*
X36952500Y-56158500D02*
X35047500Y-56158500D01*
%TO.C,R14*%
X156158500Y-67047500D02*
X156158500Y-68952500D01*
X156158500Y-68952500D02*
X159841500Y-68952500D01*
X159841500Y-67047500D02*
X156158500Y-67047500D01*
X159841500Y-68952500D02*
X159841500Y-67047500D01*
%TO.C,C5*%
X90658500Y-53047500D02*
X90658500Y-54952500D01*
X90658500Y-54952500D02*
X94341500Y-54952500D01*
X94341500Y-53047500D02*
X90658500Y-53047500D01*
X94341500Y-54952500D02*
X94341500Y-53047500D01*
%TO.C,C10*%
X213158500Y-70047500D02*
X213158500Y-71952500D01*
X213158500Y-71952500D02*
X216841500Y-71952500D01*
X216841500Y-70047500D02*
X213158500Y-70047500D01*
X216841500Y-71952500D02*
X216841500Y-70047500D01*
%TO.C,C6*%
X109158500Y-64047500D02*
X109158500Y-65952500D01*
X109158500Y-65952500D02*
X112841500Y-65952500D01*
X112841500Y-64047500D02*
X109158500Y-64047500D01*
X112841500Y-65952500D02*
X112841500Y-64047500D01*
%TO.C,R11*%
X88547500Y-56841500D02*
X90452500Y-56841500D01*
X90452500Y-56841500D02*
X90452500Y-53158500D01*
X88547500Y-53158500D02*
X88547500Y-56841500D01*
X90452500Y-53158500D02*
X88547500Y-53158500D01*
%TO.C,Q6*%
X160552500Y-66865000D02*
X160552500Y-69135000D01*
X160552500Y-69135000D02*
X164612500Y-69135000D01*
X164612500Y-66865000D02*
X160552500Y-66865000D01*
%TO.C,U1*%
X159710000Y-90195000D02*
X159710000Y-89950000D01*
X159710000Y-89950000D02*
X161525000Y-89950000D01*
X159710000Y-78425000D02*
X159710000Y-78670000D01*
X155850000Y-90195000D02*
X159710000Y-90195000D01*
X155850000Y-90195000D02*
X151990000Y-90195000D01*
X155850000Y-78425000D02*
X159710000Y-78425000D01*
X155850000Y-78425000D02*
X151990000Y-78425000D01*
X151990000Y-90195000D02*
X151990000Y-89950000D01*
X151990000Y-78425000D02*
X151990000Y-78670000D01*
%TO.C,R13*%
X132658500Y-55547500D02*
X132658500Y-57452500D01*
X132658500Y-57452500D02*
X136341500Y-57452500D01*
X136341500Y-55547500D02*
X132658500Y-55547500D01*
X136341500Y-57452500D02*
X136341500Y-55547500D01*
%TO.C,Q2*%
X56552500Y-66865000D02*
X56552500Y-69135000D01*
X56552500Y-69135000D02*
X60612500Y-69135000D01*
X60612500Y-66865000D02*
X56552500Y-66865000D01*
%TO.C,C9*%
X184047500Y-55841500D02*
X185952500Y-55841500D01*
X185952500Y-55841500D02*
X185952500Y-52158500D01*
X184047500Y-52158500D02*
X184047500Y-55841500D01*
X185952500Y-52158500D02*
X184047500Y-52158500D01*
%TO.C,C25*%
X110452500Y-69658500D02*
X108547500Y-69658500D01*
X108547500Y-69658500D02*
X108547500Y-73341500D01*
X110452500Y-73341500D02*
X110452500Y-69658500D01*
X108547500Y-73341500D02*
X110452500Y-73341500D01*
%TO.C,R16*%
X208158500Y-67047500D02*
X208158500Y-68952500D01*
X208158500Y-68952500D02*
X211841500Y-68952500D01*
X211841500Y-67047500D02*
X208158500Y-67047500D01*
X211841500Y-68952500D02*
X211841500Y-67047500D01*
%TO.C,C33*%
X112467500Y-83499000D02*
X114372500Y-83499000D01*
X114372500Y-83499000D02*
X114372500Y-79816000D01*
X112467500Y-79816000D02*
X112467500Y-83499000D01*
X114372500Y-79816000D02*
X112467500Y-79816000D01*
D13*
%TO.C,J1*%
X186778000Y-93778000D02*
X186778000Y-90222000D01*
X186778000Y-90222000D02*
X183222000Y-90222000D01*
X183222000Y-93778000D02*
X186778000Y-93778000D01*
X183222000Y-90222000D02*
X183222000Y-93778000D01*
D12*
%TO.C,C19*%
X58952500Y-70158500D02*
X57047500Y-70158500D01*
X57047500Y-70158500D02*
X57047500Y-73841500D01*
X58952500Y-73841500D02*
X58952500Y-70158500D01*
X57047500Y-73841500D02*
X58952500Y-73841500D01*
%TO.C,Q1*%
X30552500Y-52865000D02*
X30552500Y-55135000D01*
X30552500Y-55135000D02*
X34612500Y-55135000D01*
X34612500Y-52865000D02*
X30552500Y-52865000D01*
%TD*%
M02*
