%TF.GenerationSoftware,KiCad,Pcbnew,7.0.9*%
%TF.CreationDate,2024-06-20T14:31:36+03:00*%
%TF.ProjectId,_____ ____ __________,1f3b3042-3020-4443-9e42-3e2041323542,rev?*%
%TF.SameCoordinates,Original*%
%TF.FileFunction,Paste,Bot*%
%TF.FilePolarity,Positive*%
%FSLAX46Y46*%
G04 Gerber Fmt 4.6, Leading zero omitted, Abs format (unit mm)*
G04 Created by KiCad (PCBNEW 7.0.9) date 2024-06-20 14:31:36*
%MOMM*%
%LPD*%
G01*
G04 APERTURE LIST*
G04 Aperture macros list*
%AMRoundRect*
0 Rectangle with rounded corners*
0 $1 Rounding radius*
0 $2 $3 $4 $5 $6 $7 $8 $9 X,Y pos of 4 corners*
0 Add a 4 corners polygon primitive as box body*
4,1,4,$2,$3,$4,$5,$6,$7,$8,$9,$2,$3,0*
0 Add four circle primitives for the rounded corners*
1,1,$1+$1,$2,$3*
1,1,$1+$1,$4,$5*
1,1,$1+$1,$6,$7*
1,1,$1+$1,$8,$9*
0 Add four rect primitives between the rounded corners*
20,1,$1+$1,$2,$3,$4,$5,0*
20,1,$1+$1,$4,$5,$6,$7,0*
20,1,$1+$1,$6,$7,$8,$9,0*
20,1,$1+$1,$8,$9,$2,$3,0*%
G04 Aperture macros list end*
%ADD10RoundRect,0.250000X-0.450000X0.350000X-0.450000X-0.350000X0.450000X-0.350000X0.450000X0.350000X0*%
%ADD11RoundRect,0.249999X-1.425001X0.450001X-1.425001X-0.450001X1.425001X-0.450001X1.425001X0.450001X0*%
%ADD12RoundRect,0.250000X0.600000X-0.400000X0.600000X0.400000X-0.600000X0.400000X-0.600000X-0.400000X0*%
%ADD13RoundRect,0.249999X1.425001X-0.512501X1.425001X0.512501X-1.425001X0.512501X-1.425001X-0.512501X0*%
%ADD14RoundRect,0.249999X0.450001X1.425001X-0.450001X1.425001X-0.450001X-1.425001X0.450001X-1.425001X0*%
%ADD15RoundRect,0.249999X-0.450001X-1.425001X0.450001X-1.425001X0.450001X1.425001X-0.450001X1.425001X0*%
G04 APERTURE END LIST*
D10*
%TO.C,C11*%
X37000000Y-52500000D03*
X37000000Y-54500000D03*
%TD*%
D11*
%TO.C,R5*%
X131500000Y-54500000D03*
X131500000Y-60600000D03*
%TD*%
D12*
%TO.C,D8*%
X215000000Y-69500000D03*
X215000000Y-66000000D03*
%TD*%
D10*
%TO.C,C16*%
X166000000Y-66500000D03*
X166000000Y-68500000D03*
%TD*%
%TO.C,C13*%
X88000000Y-53000000D03*
X88000000Y-55000000D03*
%TD*%
D13*
%TO.C,R18*%
X108500000Y-86475000D03*
X108500000Y-80500000D03*
%TD*%
%TO.C,R24*%
X138500000Y-86500000D03*
X138500000Y-80525000D03*
%TD*%
%TO.C,R21*%
X123500000Y-86475000D03*
X123500000Y-80500000D03*
%TD*%
%TO.C,R22*%
X128500000Y-86475000D03*
X128500000Y-80500000D03*
%TD*%
D11*
%TO.C,R6*%
X163000000Y-52500000D03*
X163000000Y-58600000D03*
%TD*%
D12*
%TO.C,D6*%
X163000000Y-69500000D03*
X163000000Y-66000000D03*
%TD*%
%TO.C,D4*%
X111000000Y-70000000D03*
X111000000Y-66500000D03*
%TD*%
D10*
%TO.C,C17*%
X192000000Y-53500000D03*
X192000000Y-55500000D03*
%TD*%
%TO.C,C18*%
X218000000Y-67000000D03*
X218000000Y-69000000D03*
%TD*%
%TO.C,C12*%
X62000000Y-67500000D03*
X62000000Y-69500000D03*
%TD*%
D14*
%TO.C,R8*%
X222050000Y-63000000D03*
X215950000Y-63000000D03*
%TD*%
D10*
%TO.C,C3*%
X80000000Y-83200000D03*
X80000000Y-85200000D03*
%TD*%
D11*
%TO.C,R7*%
X180500000Y-55950000D03*
X180500000Y-62050000D03*
%TD*%
D13*
%TO.C,R19*%
X113500000Y-86475000D03*
X113500000Y-80500000D03*
%TD*%
D11*
%TO.C,R2*%
X59000000Y-52000000D03*
X59000000Y-58100000D03*
%TD*%
D15*
%TO.C,R1*%
X32950000Y-58750000D03*
X39050000Y-58750000D03*
%TD*%
D13*
%TO.C,R23*%
X133500000Y-86500000D03*
X133500000Y-80525000D03*
%TD*%
D12*
%TO.C,D2*%
X59000000Y-70000000D03*
X59000000Y-66500000D03*
%TD*%
%TO.C,D5*%
X137000000Y-56000000D03*
X137000000Y-52500000D03*
%TD*%
D11*
%TO.C,R4*%
X111000000Y-52500000D03*
X111000000Y-58600000D03*
%TD*%
D12*
%TO.C,D1*%
X33000000Y-55500000D03*
X33000000Y-52000000D03*
%TD*%
D10*
%TO.C,C15*%
X140500000Y-53500000D03*
X140500000Y-55500000D03*
%TD*%
D12*
%TO.C,D7*%
X189000000Y-56000000D03*
X189000000Y-52500000D03*
%TD*%
D13*
%TO.C,R20*%
X118500000Y-86475000D03*
X118500000Y-80500000D03*
%TD*%
D12*
%TO.C,D3*%
X85000000Y-56000000D03*
X85000000Y-52500000D03*
%TD*%
D11*
%TO.C,R3*%
X77000000Y-54000000D03*
X77000000Y-60100000D03*
%TD*%
D10*
%TO.C,C14*%
X114500000Y-67000000D03*
X114500000Y-69000000D03*
%TD*%
D13*
%TO.C,R17*%
X103500000Y-86475000D03*
X103500000Y-80500000D03*
%TD*%
M02*
