%TF.GenerationSoftware,KiCad,Pcbnew,7.0.9*%
%TF.CreationDate,2024-06-26T15:19:18+03:00*%
%TF.ProjectId,_____ _________ ___________,1f3b3042-3020-43e4-913d-3e323d3e333e,rev?*%
%TF.SameCoordinates,Original*%
%TF.FileFunction,Legend,Top*%
%TF.FilePolarity,Positive*%
%FSLAX46Y46*%
G04 Gerber Fmt 4.6, Leading zero omitted, Abs format (unit mm)*
G04 Created by KiCad (PCBNEW 7.0.9) date 2024-06-26 15:19:18*
%MOMM*%
%LPD*%
G01*
G04 APERTURE LIST*
%ADD10C,0.150000*%
%ADD11C,0.100000*%
%ADD12C,0.120000*%
%TA.AperFunction,Profile*%
%ADD13C,0.100000*%
%TD*%
G04 APERTURE END LIST*
D10*
X127554819Y-84366666D02*
X127078628Y-84699999D01*
X127554819Y-84938094D02*
X126554819Y-84938094D01*
X126554819Y-84938094D02*
X126554819Y-84557142D01*
X126554819Y-84557142D02*
X126602438Y-84461904D01*
X126602438Y-84461904D02*
X126650057Y-84414285D01*
X126650057Y-84414285D02*
X126745295Y-84366666D01*
X126745295Y-84366666D02*
X126888152Y-84366666D01*
X126888152Y-84366666D02*
X126983390Y-84414285D01*
X126983390Y-84414285D02*
X127031009Y-84461904D01*
X127031009Y-84461904D02*
X127078628Y-84557142D01*
X127078628Y-84557142D02*
X127078628Y-84938094D01*
X126650057Y-83985713D02*
X126602438Y-83938094D01*
X126602438Y-83938094D02*
X126554819Y-83842856D01*
X126554819Y-83842856D02*
X126554819Y-83604761D01*
X126554819Y-83604761D02*
X126602438Y-83509523D01*
X126602438Y-83509523D02*
X126650057Y-83461904D01*
X126650057Y-83461904D02*
X126745295Y-83414285D01*
X126745295Y-83414285D02*
X126840533Y-83414285D01*
X126840533Y-83414285D02*
X126983390Y-83461904D01*
X126983390Y-83461904D02*
X127554819Y-84033332D01*
X127554819Y-84033332D02*
X127554819Y-83414285D01*
X118245833Y-80714580D02*
X118198214Y-80762200D01*
X118198214Y-80762200D02*
X118055357Y-80809819D01*
X118055357Y-80809819D02*
X117960119Y-80809819D01*
X117960119Y-80809819D02*
X117817262Y-80762200D01*
X117817262Y-80762200D02*
X117722024Y-80666961D01*
X117722024Y-80666961D02*
X117674405Y-80571723D01*
X117674405Y-80571723D02*
X117626786Y-80381247D01*
X117626786Y-80381247D02*
X117626786Y-80238390D01*
X117626786Y-80238390D02*
X117674405Y-80047914D01*
X117674405Y-80047914D02*
X117722024Y-79952676D01*
X117722024Y-79952676D02*
X117817262Y-79857438D01*
X117817262Y-79857438D02*
X117960119Y-79809819D01*
X117960119Y-79809819D02*
X118055357Y-79809819D01*
X118055357Y-79809819D02*
X118198214Y-79857438D01*
X118198214Y-79857438D02*
X118245833Y-79905057D01*
X118722024Y-80809819D02*
X118912500Y-80809819D01*
X118912500Y-80809819D02*
X119007738Y-80762200D01*
X119007738Y-80762200D02*
X119055357Y-80714580D01*
X119055357Y-80714580D02*
X119150595Y-80571723D01*
X119150595Y-80571723D02*
X119198214Y-80381247D01*
X119198214Y-80381247D02*
X119198214Y-80000295D01*
X119198214Y-80000295D02*
X119150595Y-79905057D01*
X119150595Y-79905057D02*
X119102976Y-79857438D01*
X119102976Y-79857438D02*
X119007738Y-79809819D01*
X119007738Y-79809819D02*
X118817262Y-79809819D01*
X118817262Y-79809819D02*
X118722024Y-79857438D01*
X118722024Y-79857438D02*
X118674405Y-79905057D01*
X118674405Y-79905057D02*
X118626786Y-80000295D01*
X118626786Y-80000295D02*
X118626786Y-80238390D01*
X118626786Y-80238390D02*
X118674405Y-80333628D01*
X118674405Y-80333628D02*
X118722024Y-80381247D01*
X118722024Y-80381247D02*
X118817262Y-80428866D01*
X118817262Y-80428866D02*
X119007738Y-80428866D01*
X119007738Y-80428866D02*
X119102976Y-80381247D01*
X119102976Y-80381247D02*
X119150595Y-80333628D01*
X119150595Y-80333628D02*
X119198214Y-80238390D01*
X124220833Y-77979819D02*
X123887500Y-77503628D01*
X123649405Y-77979819D02*
X123649405Y-76979819D01*
X123649405Y-76979819D02*
X124030357Y-76979819D01*
X124030357Y-76979819D02*
X124125595Y-77027438D01*
X124125595Y-77027438D02*
X124173214Y-77075057D01*
X124173214Y-77075057D02*
X124220833Y-77170295D01*
X124220833Y-77170295D02*
X124220833Y-77313152D01*
X124220833Y-77313152D02*
X124173214Y-77408390D01*
X124173214Y-77408390D02*
X124125595Y-77456009D01*
X124125595Y-77456009D02*
X124030357Y-77503628D01*
X124030357Y-77503628D02*
X123649405Y-77503628D01*
X125125595Y-76979819D02*
X124649405Y-76979819D01*
X124649405Y-76979819D02*
X124601786Y-77456009D01*
X124601786Y-77456009D02*
X124649405Y-77408390D01*
X124649405Y-77408390D02*
X124744643Y-77360771D01*
X124744643Y-77360771D02*
X124982738Y-77360771D01*
X124982738Y-77360771D02*
X125077976Y-77408390D01*
X125077976Y-77408390D02*
X125125595Y-77456009D01*
X125125595Y-77456009D02*
X125173214Y-77551247D01*
X125173214Y-77551247D02*
X125173214Y-77789342D01*
X125173214Y-77789342D02*
X125125595Y-77884580D01*
X125125595Y-77884580D02*
X125077976Y-77932200D01*
X125077976Y-77932200D02*
X124982738Y-77979819D01*
X124982738Y-77979819D02*
X124744643Y-77979819D01*
X124744643Y-77979819D02*
X124649405Y-77932200D01*
X124649405Y-77932200D02*
X124601786Y-77884580D01*
X154150057Y-42095238D02*
X154102438Y-42190476D01*
X154102438Y-42190476D02*
X154007200Y-42285714D01*
X154007200Y-42285714D02*
X153864342Y-42428571D01*
X153864342Y-42428571D02*
X153816723Y-42523809D01*
X153816723Y-42523809D02*
X153816723Y-42619047D01*
X154054819Y-42571428D02*
X154007200Y-42666666D01*
X154007200Y-42666666D02*
X153911961Y-42761904D01*
X153911961Y-42761904D02*
X153721485Y-42809523D01*
X153721485Y-42809523D02*
X153388152Y-42809523D01*
X153388152Y-42809523D02*
X153197676Y-42761904D01*
X153197676Y-42761904D02*
X153102438Y-42666666D01*
X153102438Y-42666666D02*
X153054819Y-42571428D01*
X153054819Y-42571428D02*
X153054819Y-42380952D01*
X153054819Y-42380952D02*
X153102438Y-42285714D01*
X153102438Y-42285714D02*
X153197676Y-42190476D01*
X153197676Y-42190476D02*
X153388152Y-42142857D01*
X153388152Y-42142857D02*
X153721485Y-42142857D01*
X153721485Y-42142857D02*
X153911961Y-42190476D01*
X153911961Y-42190476D02*
X154007200Y-42285714D01*
X154007200Y-42285714D02*
X154054819Y-42380952D01*
X154054819Y-42380952D02*
X154054819Y-42571428D01*
X154054819Y-41190476D02*
X154054819Y-41761904D01*
X154054819Y-41476190D02*
X153054819Y-41476190D01*
X153054819Y-41476190D02*
X153197676Y-41571428D01*
X153197676Y-41571428D02*
X153292914Y-41666666D01*
X153292914Y-41666666D02*
X153340533Y-41761904D01*
X122254819Y-84279166D02*
X121778628Y-84612499D01*
X122254819Y-84850594D02*
X121254819Y-84850594D01*
X121254819Y-84850594D02*
X121254819Y-84469642D01*
X121254819Y-84469642D02*
X121302438Y-84374404D01*
X121302438Y-84374404D02*
X121350057Y-84326785D01*
X121350057Y-84326785D02*
X121445295Y-84279166D01*
X121445295Y-84279166D02*
X121588152Y-84279166D01*
X121588152Y-84279166D02*
X121683390Y-84326785D01*
X121683390Y-84326785D02*
X121731009Y-84374404D01*
X121731009Y-84374404D02*
X121778628Y-84469642D01*
X121778628Y-84469642D02*
X121778628Y-84850594D01*
X122254819Y-83326785D02*
X122254819Y-83898213D01*
X122254819Y-83612499D02*
X121254819Y-83612499D01*
X121254819Y-83612499D02*
X121397676Y-83707737D01*
X121397676Y-83707737D02*
X121492914Y-83802975D01*
X121492914Y-83802975D02*
X121540533Y-83898213D01*
X143839580Y-45680357D02*
X143887200Y-45727976D01*
X143887200Y-45727976D02*
X143934819Y-45870833D01*
X143934819Y-45870833D02*
X143934819Y-45966071D01*
X143934819Y-45966071D02*
X143887200Y-46108928D01*
X143887200Y-46108928D02*
X143791961Y-46204166D01*
X143791961Y-46204166D02*
X143696723Y-46251785D01*
X143696723Y-46251785D02*
X143506247Y-46299404D01*
X143506247Y-46299404D02*
X143363390Y-46299404D01*
X143363390Y-46299404D02*
X143172914Y-46251785D01*
X143172914Y-46251785D02*
X143077676Y-46204166D01*
X143077676Y-46204166D02*
X142982438Y-46108928D01*
X142982438Y-46108928D02*
X142934819Y-45966071D01*
X142934819Y-45966071D02*
X142934819Y-45870833D01*
X142934819Y-45870833D02*
X142982438Y-45727976D01*
X142982438Y-45727976D02*
X143030057Y-45680357D01*
X143934819Y-44727976D02*
X143934819Y-45299404D01*
X143934819Y-45013690D02*
X142934819Y-45013690D01*
X142934819Y-45013690D02*
X143077676Y-45108928D01*
X143077676Y-45108928D02*
X143172914Y-45204166D01*
X143172914Y-45204166D02*
X143220533Y-45299404D01*
X143934819Y-43775595D02*
X143934819Y-44347023D01*
X143934819Y-44061309D02*
X142934819Y-44061309D01*
X142934819Y-44061309D02*
X143077676Y-44156547D01*
X143077676Y-44156547D02*
X143172914Y-44251785D01*
X143172914Y-44251785D02*
X143220533Y-44347023D01*
X108294642Y-99054819D02*
X107961309Y-98578628D01*
X107723214Y-99054819D02*
X107723214Y-98054819D01*
X107723214Y-98054819D02*
X108104166Y-98054819D01*
X108104166Y-98054819D02*
X108199404Y-98102438D01*
X108199404Y-98102438D02*
X108247023Y-98150057D01*
X108247023Y-98150057D02*
X108294642Y-98245295D01*
X108294642Y-98245295D02*
X108294642Y-98388152D01*
X108294642Y-98388152D02*
X108247023Y-98483390D01*
X108247023Y-98483390D02*
X108199404Y-98531009D01*
X108199404Y-98531009D02*
X108104166Y-98578628D01*
X108104166Y-98578628D02*
X107723214Y-98578628D01*
X108627976Y-98054819D02*
X109247023Y-98054819D01*
X109247023Y-98054819D02*
X108913690Y-98435771D01*
X108913690Y-98435771D02*
X109056547Y-98435771D01*
X109056547Y-98435771D02*
X109151785Y-98483390D01*
X109151785Y-98483390D02*
X109199404Y-98531009D01*
X109199404Y-98531009D02*
X109247023Y-98626247D01*
X109247023Y-98626247D02*
X109247023Y-98864342D01*
X109247023Y-98864342D02*
X109199404Y-98959580D01*
X109199404Y-98959580D02*
X109151785Y-99007200D01*
X109151785Y-99007200D02*
X109056547Y-99054819D01*
X109056547Y-99054819D02*
X108770833Y-99054819D01*
X108770833Y-99054819D02*
X108675595Y-99007200D01*
X108675595Y-99007200D02*
X108627976Y-98959580D01*
X110199404Y-99054819D02*
X109627976Y-99054819D01*
X109913690Y-99054819D02*
X109913690Y-98054819D01*
X109913690Y-98054819D02*
X109818452Y-98197676D01*
X109818452Y-98197676D02*
X109723214Y-98292914D01*
X109723214Y-98292914D02*
X109627976Y-98340533D01*
X153317142Y-86854819D02*
X152983809Y-86378628D01*
X152745714Y-86854819D02*
X152745714Y-85854819D01*
X152745714Y-85854819D02*
X153126666Y-85854819D01*
X153126666Y-85854819D02*
X153221904Y-85902438D01*
X153221904Y-85902438D02*
X153269523Y-85950057D01*
X153269523Y-85950057D02*
X153317142Y-86045295D01*
X153317142Y-86045295D02*
X153317142Y-86188152D01*
X153317142Y-86188152D02*
X153269523Y-86283390D01*
X153269523Y-86283390D02*
X153221904Y-86331009D01*
X153221904Y-86331009D02*
X153126666Y-86378628D01*
X153126666Y-86378628D02*
X152745714Y-86378628D01*
X154269523Y-86854819D02*
X153698095Y-86854819D01*
X153983809Y-86854819D02*
X153983809Y-85854819D01*
X153983809Y-85854819D02*
X153888571Y-85997676D01*
X153888571Y-85997676D02*
X153793333Y-86092914D01*
X153793333Y-86092914D02*
X153698095Y-86140533D01*
X155126666Y-85854819D02*
X154936190Y-85854819D01*
X154936190Y-85854819D02*
X154840952Y-85902438D01*
X154840952Y-85902438D02*
X154793333Y-85950057D01*
X154793333Y-85950057D02*
X154698095Y-86092914D01*
X154698095Y-86092914D02*
X154650476Y-86283390D01*
X154650476Y-86283390D02*
X154650476Y-86664342D01*
X154650476Y-86664342D02*
X154698095Y-86759580D01*
X154698095Y-86759580D02*
X154745714Y-86807200D01*
X154745714Y-86807200D02*
X154840952Y-86854819D01*
X154840952Y-86854819D02*
X155031428Y-86854819D01*
X155031428Y-86854819D02*
X155126666Y-86807200D01*
X155126666Y-86807200D02*
X155174285Y-86759580D01*
X155174285Y-86759580D02*
X155221904Y-86664342D01*
X155221904Y-86664342D02*
X155221904Y-86426247D01*
X155221904Y-86426247D02*
X155174285Y-86331009D01*
X155174285Y-86331009D02*
X155126666Y-86283390D01*
X155126666Y-86283390D02*
X155031428Y-86235771D01*
X155031428Y-86235771D02*
X154840952Y-86235771D01*
X154840952Y-86235771D02*
X154745714Y-86283390D01*
X154745714Y-86283390D02*
X154698095Y-86331009D01*
X154698095Y-86331009D02*
X154650476Y-86426247D01*
X134144642Y-50039580D02*
X134097023Y-50087200D01*
X134097023Y-50087200D02*
X133954166Y-50134819D01*
X133954166Y-50134819D02*
X133858928Y-50134819D01*
X133858928Y-50134819D02*
X133716071Y-50087200D01*
X133716071Y-50087200D02*
X133620833Y-49991961D01*
X133620833Y-49991961D02*
X133573214Y-49896723D01*
X133573214Y-49896723D02*
X133525595Y-49706247D01*
X133525595Y-49706247D02*
X133525595Y-49563390D01*
X133525595Y-49563390D02*
X133573214Y-49372914D01*
X133573214Y-49372914D02*
X133620833Y-49277676D01*
X133620833Y-49277676D02*
X133716071Y-49182438D01*
X133716071Y-49182438D02*
X133858928Y-49134819D01*
X133858928Y-49134819D02*
X133954166Y-49134819D01*
X133954166Y-49134819D02*
X134097023Y-49182438D01*
X134097023Y-49182438D02*
X134144642Y-49230057D01*
X135097023Y-50134819D02*
X134525595Y-50134819D01*
X134811309Y-50134819D02*
X134811309Y-49134819D01*
X134811309Y-49134819D02*
X134716071Y-49277676D01*
X134716071Y-49277676D02*
X134620833Y-49372914D01*
X134620833Y-49372914D02*
X134525595Y-49420533D01*
X135477976Y-49230057D02*
X135525595Y-49182438D01*
X135525595Y-49182438D02*
X135620833Y-49134819D01*
X135620833Y-49134819D02*
X135858928Y-49134819D01*
X135858928Y-49134819D02*
X135954166Y-49182438D01*
X135954166Y-49182438D02*
X136001785Y-49230057D01*
X136001785Y-49230057D02*
X136049404Y-49325295D01*
X136049404Y-49325295D02*
X136049404Y-49420533D01*
X136049404Y-49420533D02*
X136001785Y-49563390D01*
X136001785Y-49563390D02*
X135430357Y-50134819D01*
X135430357Y-50134819D02*
X136049404Y-50134819D01*
X158833333Y-92354819D02*
X158357143Y-92354819D01*
X158357143Y-92354819D02*
X158357143Y-91354819D01*
X159119048Y-91450057D02*
X159166667Y-91402438D01*
X159166667Y-91402438D02*
X159261905Y-91354819D01*
X159261905Y-91354819D02*
X159500000Y-91354819D01*
X159500000Y-91354819D02*
X159595238Y-91402438D01*
X159595238Y-91402438D02*
X159642857Y-91450057D01*
X159642857Y-91450057D02*
X159690476Y-91545295D01*
X159690476Y-91545295D02*
X159690476Y-91640533D01*
X159690476Y-91640533D02*
X159642857Y-91783390D01*
X159642857Y-91783390D02*
X159071429Y-92354819D01*
X159071429Y-92354819D02*
X159690476Y-92354819D01*
X132954819Y-43906189D02*
X131954819Y-43906189D01*
X132859580Y-42858571D02*
X132907200Y-42906190D01*
X132907200Y-42906190D02*
X132954819Y-43049047D01*
X132954819Y-43049047D02*
X132954819Y-43144285D01*
X132954819Y-43144285D02*
X132907200Y-43287142D01*
X132907200Y-43287142D02*
X132811961Y-43382380D01*
X132811961Y-43382380D02*
X132716723Y-43429999D01*
X132716723Y-43429999D02*
X132526247Y-43477618D01*
X132526247Y-43477618D02*
X132383390Y-43477618D01*
X132383390Y-43477618D02*
X132192914Y-43429999D01*
X132192914Y-43429999D02*
X132097676Y-43382380D01*
X132097676Y-43382380D02*
X132002438Y-43287142D01*
X132002438Y-43287142D02*
X131954819Y-43144285D01*
X131954819Y-43144285D02*
X131954819Y-43049047D01*
X131954819Y-43049047D02*
X132002438Y-42906190D01*
X132002438Y-42906190D02*
X132050057Y-42858571D01*
X132954819Y-41906190D02*
X132954819Y-42477618D01*
X132954819Y-42191904D02*
X131954819Y-42191904D01*
X131954819Y-42191904D02*
X132097676Y-42287142D01*
X132097676Y-42287142D02*
X132192914Y-42382380D01*
X132192914Y-42382380D02*
X132240533Y-42477618D01*
X118357142Y-49740319D02*
X118023809Y-49264128D01*
X117785714Y-49740319D02*
X117785714Y-48740319D01*
X117785714Y-48740319D02*
X118166666Y-48740319D01*
X118166666Y-48740319D02*
X118261904Y-48787938D01*
X118261904Y-48787938D02*
X118309523Y-48835557D01*
X118309523Y-48835557D02*
X118357142Y-48930795D01*
X118357142Y-48930795D02*
X118357142Y-49073652D01*
X118357142Y-49073652D02*
X118309523Y-49168890D01*
X118309523Y-49168890D02*
X118261904Y-49216509D01*
X118261904Y-49216509D02*
X118166666Y-49264128D01*
X118166666Y-49264128D02*
X117785714Y-49264128D01*
X119309523Y-49740319D02*
X118738095Y-49740319D01*
X119023809Y-49740319D02*
X119023809Y-48740319D01*
X119023809Y-48740319D02*
X118928571Y-48883176D01*
X118928571Y-48883176D02*
X118833333Y-48978414D01*
X118833333Y-48978414D02*
X118738095Y-49026033D01*
X120261904Y-49740319D02*
X119690476Y-49740319D01*
X119976190Y-49740319D02*
X119976190Y-48740319D01*
X119976190Y-48740319D02*
X119880952Y-48883176D01*
X119880952Y-48883176D02*
X119785714Y-48978414D01*
X119785714Y-48978414D02*
X119690476Y-49026033D01*
X168039523Y-41589580D02*
X167991904Y-41637200D01*
X167991904Y-41637200D02*
X167849047Y-41684819D01*
X167849047Y-41684819D02*
X167753809Y-41684819D01*
X167753809Y-41684819D02*
X167610952Y-41637200D01*
X167610952Y-41637200D02*
X167515714Y-41541961D01*
X167515714Y-41541961D02*
X167468095Y-41446723D01*
X167468095Y-41446723D02*
X167420476Y-41256247D01*
X167420476Y-41256247D02*
X167420476Y-41113390D01*
X167420476Y-41113390D02*
X167468095Y-40922914D01*
X167468095Y-40922914D02*
X167515714Y-40827676D01*
X167515714Y-40827676D02*
X167610952Y-40732438D01*
X167610952Y-40732438D02*
X167753809Y-40684819D01*
X167753809Y-40684819D02*
X167849047Y-40684819D01*
X167849047Y-40684819D02*
X167991904Y-40732438D01*
X167991904Y-40732438D02*
X168039523Y-40780057D01*
X168468095Y-41684819D02*
X168468095Y-40684819D01*
X168468095Y-40684819D02*
X169039523Y-41684819D01*
X169039523Y-41684819D02*
X169039523Y-40684819D01*
X169563333Y-41684819D02*
X169753809Y-41684819D01*
X169753809Y-41684819D02*
X169849047Y-41637200D01*
X169849047Y-41637200D02*
X169896666Y-41589580D01*
X169896666Y-41589580D02*
X169991904Y-41446723D01*
X169991904Y-41446723D02*
X170039523Y-41256247D01*
X170039523Y-41256247D02*
X170039523Y-40875295D01*
X170039523Y-40875295D02*
X169991904Y-40780057D01*
X169991904Y-40780057D02*
X169944285Y-40732438D01*
X169944285Y-40732438D02*
X169849047Y-40684819D01*
X169849047Y-40684819D02*
X169658571Y-40684819D01*
X169658571Y-40684819D02*
X169563333Y-40732438D01*
X169563333Y-40732438D02*
X169515714Y-40780057D01*
X169515714Y-40780057D02*
X169468095Y-40875295D01*
X169468095Y-40875295D02*
X169468095Y-41113390D01*
X169468095Y-41113390D02*
X169515714Y-41208628D01*
X169515714Y-41208628D02*
X169563333Y-41256247D01*
X169563333Y-41256247D02*
X169658571Y-41303866D01*
X169658571Y-41303866D02*
X169849047Y-41303866D01*
X169849047Y-41303866D02*
X169944285Y-41256247D01*
X169944285Y-41256247D02*
X169991904Y-41208628D01*
X169991904Y-41208628D02*
X170039523Y-41113390D01*
X152554819Y-46042857D02*
X152078628Y-46376190D01*
X152554819Y-46614285D02*
X151554819Y-46614285D01*
X151554819Y-46614285D02*
X151554819Y-46233333D01*
X151554819Y-46233333D02*
X151602438Y-46138095D01*
X151602438Y-46138095D02*
X151650057Y-46090476D01*
X151650057Y-46090476D02*
X151745295Y-46042857D01*
X151745295Y-46042857D02*
X151888152Y-46042857D01*
X151888152Y-46042857D02*
X151983390Y-46090476D01*
X151983390Y-46090476D02*
X152031009Y-46138095D01*
X152031009Y-46138095D02*
X152078628Y-46233333D01*
X152078628Y-46233333D02*
X152078628Y-46614285D01*
X152554819Y-45090476D02*
X152554819Y-45661904D01*
X152554819Y-45376190D02*
X151554819Y-45376190D01*
X151554819Y-45376190D02*
X151697676Y-45471428D01*
X151697676Y-45471428D02*
X151792914Y-45566666D01*
X151792914Y-45566666D02*
X151840533Y-45661904D01*
X151650057Y-44709523D02*
X151602438Y-44661904D01*
X151602438Y-44661904D02*
X151554819Y-44566666D01*
X151554819Y-44566666D02*
X151554819Y-44328571D01*
X151554819Y-44328571D02*
X151602438Y-44233333D01*
X151602438Y-44233333D02*
X151650057Y-44185714D01*
X151650057Y-44185714D02*
X151745295Y-44138095D01*
X151745295Y-44138095D02*
X151840533Y-44138095D01*
X151840533Y-44138095D02*
X151983390Y-44185714D01*
X151983390Y-44185714D02*
X152554819Y-44757142D01*
X152554819Y-44757142D02*
X152554819Y-44138095D01*
X153669642Y-74604819D02*
X153336309Y-74128628D01*
X153098214Y-74604819D02*
X153098214Y-73604819D01*
X153098214Y-73604819D02*
X153479166Y-73604819D01*
X153479166Y-73604819D02*
X153574404Y-73652438D01*
X153574404Y-73652438D02*
X153622023Y-73700057D01*
X153622023Y-73700057D02*
X153669642Y-73795295D01*
X153669642Y-73795295D02*
X153669642Y-73938152D01*
X153669642Y-73938152D02*
X153622023Y-74033390D01*
X153622023Y-74033390D02*
X153574404Y-74081009D01*
X153574404Y-74081009D02*
X153479166Y-74128628D01*
X153479166Y-74128628D02*
X153098214Y-74128628D01*
X154622023Y-74604819D02*
X154050595Y-74604819D01*
X154336309Y-74604819D02*
X154336309Y-73604819D01*
X154336309Y-73604819D02*
X154241071Y-73747676D01*
X154241071Y-73747676D02*
X154145833Y-73842914D01*
X154145833Y-73842914D02*
X154050595Y-73890533D01*
X155526785Y-73604819D02*
X155050595Y-73604819D01*
X155050595Y-73604819D02*
X155002976Y-74081009D01*
X155002976Y-74081009D02*
X155050595Y-74033390D01*
X155050595Y-74033390D02*
X155145833Y-73985771D01*
X155145833Y-73985771D02*
X155383928Y-73985771D01*
X155383928Y-73985771D02*
X155479166Y-74033390D01*
X155479166Y-74033390D02*
X155526785Y-74081009D01*
X155526785Y-74081009D02*
X155574404Y-74176247D01*
X155574404Y-74176247D02*
X155574404Y-74414342D01*
X155574404Y-74414342D02*
X155526785Y-74509580D01*
X155526785Y-74509580D02*
X155479166Y-74557200D01*
X155479166Y-74557200D02*
X155383928Y-74604819D01*
X155383928Y-74604819D02*
X155145833Y-74604819D01*
X155145833Y-74604819D02*
X155050595Y-74557200D01*
X155050595Y-74557200D02*
X155002976Y-74509580D01*
X174109580Y-95129166D02*
X174157200Y-95176785D01*
X174157200Y-95176785D02*
X174204819Y-95319642D01*
X174204819Y-95319642D02*
X174204819Y-95414880D01*
X174204819Y-95414880D02*
X174157200Y-95557737D01*
X174157200Y-95557737D02*
X174061961Y-95652975D01*
X174061961Y-95652975D02*
X173966723Y-95700594D01*
X173966723Y-95700594D02*
X173776247Y-95748213D01*
X173776247Y-95748213D02*
X173633390Y-95748213D01*
X173633390Y-95748213D02*
X173442914Y-95700594D01*
X173442914Y-95700594D02*
X173347676Y-95652975D01*
X173347676Y-95652975D02*
X173252438Y-95557737D01*
X173252438Y-95557737D02*
X173204819Y-95414880D01*
X173204819Y-95414880D02*
X173204819Y-95319642D01*
X173204819Y-95319642D02*
X173252438Y-95176785D01*
X173252438Y-95176785D02*
X173300057Y-95129166D01*
X173538152Y-94272023D02*
X174204819Y-94272023D01*
X173157200Y-94510118D02*
X173871485Y-94748213D01*
X173871485Y-94748213D02*
X173871485Y-94129166D01*
X147200057Y-42032738D02*
X147152438Y-42127976D01*
X147152438Y-42127976D02*
X147057200Y-42223214D01*
X147057200Y-42223214D02*
X146914342Y-42366071D01*
X146914342Y-42366071D02*
X146866723Y-42461309D01*
X146866723Y-42461309D02*
X146866723Y-42556547D01*
X147104819Y-42508928D02*
X147057200Y-42604166D01*
X147057200Y-42604166D02*
X146961961Y-42699404D01*
X146961961Y-42699404D02*
X146771485Y-42747023D01*
X146771485Y-42747023D02*
X146438152Y-42747023D01*
X146438152Y-42747023D02*
X146247676Y-42699404D01*
X146247676Y-42699404D02*
X146152438Y-42604166D01*
X146152438Y-42604166D02*
X146104819Y-42508928D01*
X146104819Y-42508928D02*
X146104819Y-42318452D01*
X146104819Y-42318452D02*
X146152438Y-42223214D01*
X146152438Y-42223214D02*
X146247676Y-42127976D01*
X146247676Y-42127976D02*
X146438152Y-42080357D01*
X146438152Y-42080357D02*
X146771485Y-42080357D01*
X146771485Y-42080357D02*
X146961961Y-42127976D01*
X146961961Y-42127976D02*
X147057200Y-42223214D01*
X147057200Y-42223214D02*
X147104819Y-42318452D01*
X147104819Y-42318452D02*
X147104819Y-42508928D01*
X146200057Y-41699404D02*
X146152438Y-41651785D01*
X146152438Y-41651785D02*
X146104819Y-41556547D01*
X146104819Y-41556547D02*
X146104819Y-41318452D01*
X146104819Y-41318452D02*
X146152438Y-41223214D01*
X146152438Y-41223214D02*
X146200057Y-41175595D01*
X146200057Y-41175595D02*
X146295295Y-41127976D01*
X146295295Y-41127976D02*
X146390533Y-41127976D01*
X146390533Y-41127976D02*
X146533390Y-41175595D01*
X146533390Y-41175595D02*
X147104819Y-41747023D01*
X147104819Y-41747023D02*
X147104819Y-41127976D01*
X151859580Y-95066666D02*
X151907200Y-95114285D01*
X151907200Y-95114285D02*
X151954819Y-95257142D01*
X151954819Y-95257142D02*
X151954819Y-95352380D01*
X151954819Y-95352380D02*
X151907200Y-95495237D01*
X151907200Y-95495237D02*
X151811961Y-95590475D01*
X151811961Y-95590475D02*
X151716723Y-95638094D01*
X151716723Y-95638094D02*
X151526247Y-95685713D01*
X151526247Y-95685713D02*
X151383390Y-95685713D01*
X151383390Y-95685713D02*
X151192914Y-95638094D01*
X151192914Y-95638094D02*
X151097676Y-95590475D01*
X151097676Y-95590475D02*
X151002438Y-95495237D01*
X151002438Y-95495237D02*
X150954819Y-95352380D01*
X150954819Y-95352380D02*
X150954819Y-95257142D01*
X150954819Y-95257142D02*
X151002438Y-95114285D01*
X151002438Y-95114285D02*
X151050057Y-95066666D01*
X150954819Y-94209523D02*
X150954819Y-94399999D01*
X150954819Y-94399999D02*
X151002438Y-94495237D01*
X151002438Y-94495237D02*
X151050057Y-94542856D01*
X151050057Y-94542856D02*
X151192914Y-94638094D01*
X151192914Y-94638094D02*
X151383390Y-94685713D01*
X151383390Y-94685713D02*
X151764342Y-94685713D01*
X151764342Y-94685713D02*
X151859580Y-94638094D01*
X151859580Y-94638094D02*
X151907200Y-94590475D01*
X151907200Y-94590475D02*
X151954819Y-94495237D01*
X151954819Y-94495237D02*
X151954819Y-94304761D01*
X151954819Y-94304761D02*
X151907200Y-94209523D01*
X151907200Y-94209523D02*
X151859580Y-94161904D01*
X151859580Y-94161904D02*
X151764342Y-94114285D01*
X151764342Y-94114285D02*
X151526247Y-94114285D01*
X151526247Y-94114285D02*
X151431009Y-94161904D01*
X151431009Y-94161904D02*
X151383390Y-94209523D01*
X151383390Y-94209523D02*
X151335771Y-94304761D01*
X151335771Y-94304761D02*
X151335771Y-94495237D01*
X151335771Y-94495237D02*
X151383390Y-94590475D01*
X151383390Y-94590475D02*
X151431009Y-94638094D01*
X151431009Y-94638094D02*
X151526247Y-94685713D01*
X142038095Y-68854819D02*
X142038095Y-69664342D01*
X142038095Y-69664342D02*
X142085714Y-69759580D01*
X142085714Y-69759580D02*
X142133333Y-69807200D01*
X142133333Y-69807200D02*
X142228571Y-69854819D01*
X142228571Y-69854819D02*
X142419047Y-69854819D01*
X142419047Y-69854819D02*
X142514285Y-69807200D01*
X142514285Y-69807200D02*
X142561904Y-69759580D01*
X142561904Y-69759580D02*
X142609523Y-69664342D01*
X142609523Y-69664342D02*
X142609523Y-68854819D01*
X142990476Y-68854819D02*
X143657142Y-68854819D01*
X143657142Y-68854819D02*
X143228571Y-69854819D01*
X118545833Y-86039580D02*
X118498214Y-86087200D01*
X118498214Y-86087200D02*
X118355357Y-86134819D01*
X118355357Y-86134819D02*
X118260119Y-86134819D01*
X118260119Y-86134819D02*
X118117262Y-86087200D01*
X118117262Y-86087200D02*
X118022024Y-85991961D01*
X118022024Y-85991961D02*
X117974405Y-85896723D01*
X117974405Y-85896723D02*
X117926786Y-85706247D01*
X117926786Y-85706247D02*
X117926786Y-85563390D01*
X117926786Y-85563390D02*
X117974405Y-85372914D01*
X117974405Y-85372914D02*
X118022024Y-85277676D01*
X118022024Y-85277676D02*
X118117262Y-85182438D01*
X118117262Y-85182438D02*
X118260119Y-85134819D01*
X118260119Y-85134819D02*
X118355357Y-85134819D01*
X118355357Y-85134819D02*
X118498214Y-85182438D01*
X118498214Y-85182438D02*
X118545833Y-85230057D01*
X119117262Y-85563390D02*
X119022024Y-85515771D01*
X119022024Y-85515771D02*
X118974405Y-85468152D01*
X118974405Y-85468152D02*
X118926786Y-85372914D01*
X118926786Y-85372914D02*
X118926786Y-85325295D01*
X118926786Y-85325295D02*
X118974405Y-85230057D01*
X118974405Y-85230057D02*
X119022024Y-85182438D01*
X119022024Y-85182438D02*
X119117262Y-85134819D01*
X119117262Y-85134819D02*
X119307738Y-85134819D01*
X119307738Y-85134819D02*
X119402976Y-85182438D01*
X119402976Y-85182438D02*
X119450595Y-85230057D01*
X119450595Y-85230057D02*
X119498214Y-85325295D01*
X119498214Y-85325295D02*
X119498214Y-85372914D01*
X119498214Y-85372914D02*
X119450595Y-85468152D01*
X119450595Y-85468152D02*
X119402976Y-85515771D01*
X119402976Y-85515771D02*
X119307738Y-85563390D01*
X119307738Y-85563390D02*
X119117262Y-85563390D01*
X119117262Y-85563390D02*
X119022024Y-85611009D01*
X119022024Y-85611009D02*
X118974405Y-85658628D01*
X118974405Y-85658628D02*
X118926786Y-85753866D01*
X118926786Y-85753866D02*
X118926786Y-85944342D01*
X118926786Y-85944342D02*
X118974405Y-86039580D01*
X118974405Y-86039580D02*
X119022024Y-86087200D01*
X119022024Y-86087200D02*
X119117262Y-86134819D01*
X119117262Y-86134819D02*
X119307738Y-86134819D01*
X119307738Y-86134819D02*
X119402976Y-86087200D01*
X119402976Y-86087200D02*
X119450595Y-86039580D01*
X119450595Y-86039580D02*
X119498214Y-85944342D01*
X119498214Y-85944342D02*
X119498214Y-85753866D01*
X119498214Y-85753866D02*
X119450595Y-85658628D01*
X119450595Y-85658628D02*
X119402976Y-85611009D01*
X119402976Y-85611009D02*
X119307738Y-85563390D01*
X141838095Y-78954819D02*
X141838095Y-79764342D01*
X141838095Y-79764342D02*
X141885714Y-79859580D01*
X141885714Y-79859580D02*
X141933333Y-79907200D01*
X141933333Y-79907200D02*
X142028571Y-79954819D01*
X142028571Y-79954819D02*
X142219047Y-79954819D01*
X142219047Y-79954819D02*
X142314285Y-79907200D01*
X142314285Y-79907200D02*
X142361904Y-79859580D01*
X142361904Y-79859580D02*
X142409523Y-79764342D01*
X142409523Y-79764342D02*
X142409523Y-78954819D01*
X143028571Y-79383390D02*
X142933333Y-79335771D01*
X142933333Y-79335771D02*
X142885714Y-79288152D01*
X142885714Y-79288152D02*
X142838095Y-79192914D01*
X142838095Y-79192914D02*
X142838095Y-79145295D01*
X142838095Y-79145295D02*
X142885714Y-79050057D01*
X142885714Y-79050057D02*
X142933333Y-79002438D01*
X142933333Y-79002438D02*
X143028571Y-78954819D01*
X143028571Y-78954819D02*
X143219047Y-78954819D01*
X143219047Y-78954819D02*
X143314285Y-79002438D01*
X143314285Y-79002438D02*
X143361904Y-79050057D01*
X143361904Y-79050057D02*
X143409523Y-79145295D01*
X143409523Y-79145295D02*
X143409523Y-79192914D01*
X143409523Y-79192914D02*
X143361904Y-79288152D01*
X143361904Y-79288152D02*
X143314285Y-79335771D01*
X143314285Y-79335771D02*
X143219047Y-79383390D01*
X143219047Y-79383390D02*
X143028571Y-79383390D01*
X143028571Y-79383390D02*
X142933333Y-79431009D01*
X142933333Y-79431009D02*
X142885714Y-79478628D01*
X142885714Y-79478628D02*
X142838095Y-79573866D01*
X142838095Y-79573866D02*
X142838095Y-79764342D01*
X142838095Y-79764342D02*
X142885714Y-79859580D01*
X142885714Y-79859580D02*
X142933333Y-79907200D01*
X142933333Y-79907200D02*
X143028571Y-79954819D01*
X143028571Y-79954819D02*
X143219047Y-79954819D01*
X143219047Y-79954819D02*
X143314285Y-79907200D01*
X143314285Y-79907200D02*
X143361904Y-79859580D01*
X143361904Y-79859580D02*
X143409523Y-79764342D01*
X143409523Y-79764342D02*
X143409523Y-79573866D01*
X143409523Y-79573866D02*
X143361904Y-79478628D01*
X143361904Y-79478628D02*
X143314285Y-79431009D01*
X143314285Y-79431009D02*
X143219047Y-79383390D01*
X145654819Y-45942857D02*
X145178628Y-46276190D01*
X145654819Y-46514285D02*
X144654819Y-46514285D01*
X144654819Y-46514285D02*
X144654819Y-46133333D01*
X144654819Y-46133333D02*
X144702438Y-46038095D01*
X144702438Y-46038095D02*
X144750057Y-45990476D01*
X144750057Y-45990476D02*
X144845295Y-45942857D01*
X144845295Y-45942857D02*
X144988152Y-45942857D01*
X144988152Y-45942857D02*
X145083390Y-45990476D01*
X145083390Y-45990476D02*
X145131009Y-46038095D01*
X145131009Y-46038095D02*
X145178628Y-46133333D01*
X145178628Y-46133333D02*
X145178628Y-46514285D01*
X145654819Y-44990476D02*
X145654819Y-45561904D01*
X145654819Y-45276190D02*
X144654819Y-45276190D01*
X144654819Y-45276190D02*
X144797676Y-45371428D01*
X144797676Y-45371428D02*
X144892914Y-45466666D01*
X144892914Y-45466666D02*
X144940533Y-45561904D01*
X144654819Y-44657142D02*
X144654819Y-44038095D01*
X144654819Y-44038095D02*
X145035771Y-44371428D01*
X145035771Y-44371428D02*
X145035771Y-44228571D01*
X145035771Y-44228571D02*
X145083390Y-44133333D01*
X145083390Y-44133333D02*
X145131009Y-44085714D01*
X145131009Y-44085714D02*
X145226247Y-44038095D01*
X145226247Y-44038095D02*
X145464342Y-44038095D01*
X145464342Y-44038095D02*
X145559580Y-44085714D01*
X145559580Y-44085714D02*
X145607200Y-44133333D01*
X145607200Y-44133333D02*
X145654819Y-44228571D01*
X145654819Y-44228571D02*
X145654819Y-44514285D01*
X145654819Y-44514285D02*
X145607200Y-44609523D01*
X145607200Y-44609523D02*
X145559580Y-44657142D01*
X159095833Y-85579580D02*
X159048214Y-85627200D01*
X159048214Y-85627200D02*
X158905357Y-85674819D01*
X158905357Y-85674819D02*
X158810119Y-85674819D01*
X158810119Y-85674819D02*
X158667262Y-85627200D01*
X158667262Y-85627200D02*
X158572024Y-85531961D01*
X158572024Y-85531961D02*
X158524405Y-85436723D01*
X158524405Y-85436723D02*
X158476786Y-85246247D01*
X158476786Y-85246247D02*
X158476786Y-85103390D01*
X158476786Y-85103390D02*
X158524405Y-84912914D01*
X158524405Y-84912914D02*
X158572024Y-84817676D01*
X158572024Y-84817676D02*
X158667262Y-84722438D01*
X158667262Y-84722438D02*
X158810119Y-84674819D01*
X158810119Y-84674819D02*
X158905357Y-84674819D01*
X158905357Y-84674819D02*
X159048214Y-84722438D01*
X159048214Y-84722438D02*
X159095833Y-84770057D01*
X159429167Y-84674819D02*
X160048214Y-84674819D01*
X160048214Y-84674819D02*
X159714881Y-85055771D01*
X159714881Y-85055771D02*
X159857738Y-85055771D01*
X159857738Y-85055771D02*
X159952976Y-85103390D01*
X159952976Y-85103390D02*
X160000595Y-85151009D01*
X160000595Y-85151009D02*
X160048214Y-85246247D01*
X160048214Y-85246247D02*
X160048214Y-85484342D01*
X160048214Y-85484342D02*
X160000595Y-85579580D01*
X160000595Y-85579580D02*
X159952976Y-85627200D01*
X159952976Y-85627200D02*
X159857738Y-85674819D01*
X159857738Y-85674819D02*
X159572024Y-85674819D01*
X159572024Y-85674819D02*
X159476786Y-85627200D01*
X159476786Y-85627200D02*
X159429167Y-85579580D01*
X155554819Y-63742857D02*
X155078628Y-64076190D01*
X155554819Y-64314285D02*
X154554819Y-64314285D01*
X154554819Y-64314285D02*
X154554819Y-63933333D01*
X154554819Y-63933333D02*
X154602438Y-63838095D01*
X154602438Y-63838095D02*
X154650057Y-63790476D01*
X154650057Y-63790476D02*
X154745295Y-63742857D01*
X154745295Y-63742857D02*
X154888152Y-63742857D01*
X154888152Y-63742857D02*
X154983390Y-63790476D01*
X154983390Y-63790476D02*
X155031009Y-63838095D01*
X155031009Y-63838095D02*
X155078628Y-63933333D01*
X155078628Y-63933333D02*
X155078628Y-64314285D01*
X155554819Y-62790476D02*
X155554819Y-63361904D01*
X155554819Y-63076190D02*
X154554819Y-63076190D01*
X154554819Y-63076190D02*
X154697676Y-63171428D01*
X154697676Y-63171428D02*
X154792914Y-63266666D01*
X154792914Y-63266666D02*
X154840533Y-63361904D01*
X154888152Y-61933333D02*
X155554819Y-61933333D01*
X154507200Y-62171428D02*
X155221485Y-62409523D01*
X155221485Y-62409523D02*
X155221485Y-61790476D01*
X116357142Y-67054819D02*
X116023809Y-66578628D01*
X115785714Y-67054819D02*
X115785714Y-66054819D01*
X115785714Y-66054819D02*
X116166666Y-66054819D01*
X116166666Y-66054819D02*
X116261904Y-66102438D01*
X116261904Y-66102438D02*
X116309523Y-66150057D01*
X116309523Y-66150057D02*
X116357142Y-66245295D01*
X116357142Y-66245295D02*
X116357142Y-66388152D01*
X116357142Y-66388152D02*
X116309523Y-66483390D01*
X116309523Y-66483390D02*
X116261904Y-66531009D01*
X116261904Y-66531009D02*
X116166666Y-66578628D01*
X116166666Y-66578628D02*
X115785714Y-66578628D01*
X117309523Y-67054819D02*
X116738095Y-67054819D01*
X117023809Y-67054819D02*
X117023809Y-66054819D01*
X117023809Y-66054819D02*
X116928571Y-66197676D01*
X116928571Y-66197676D02*
X116833333Y-66292914D01*
X116833333Y-66292914D02*
X116738095Y-66340533D01*
X117928571Y-66054819D02*
X118023809Y-66054819D01*
X118023809Y-66054819D02*
X118119047Y-66102438D01*
X118119047Y-66102438D02*
X118166666Y-66150057D01*
X118166666Y-66150057D02*
X118214285Y-66245295D01*
X118214285Y-66245295D02*
X118261904Y-66435771D01*
X118261904Y-66435771D02*
X118261904Y-66673866D01*
X118261904Y-66673866D02*
X118214285Y-66864342D01*
X118214285Y-66864342D02*
X118166666Y-66959580D01*
X118166666Y-66959580D02*
X118119047Y-67007200D01*
X118119047Y-67007200D02*
X118023809Y-67054819D01*
X118023809Y-67054819D02*
X117928571Y-67054819D01*
X117928571Y-67054819D02*
X117833333Y-67007200D01*
X117833333Y-67007200D02*
X117785714Y-66959580D01*
X117785714Y-66959580D02*
X117738095Y-66864342D01*
X117738095Y-66864342D02*
X117690476Y-66673866D01*
X117690476Y-66673866D02*
X117690476Y-66435771D01*
X117690476Y-66435771D02*
X117738095Y-66245295D01*
X117738095Y-66245295D02*
X117785714Y-66150057D01*
X117785714Y-66150057D02*
X117833333Y-66102438D01*
X117833333Y-66102438D02*
X117928571Y-66054819D01*
X96583333Y-66724819D02*
X96107143Y-66724819D01*
X96107143Y-66724819D02*
X96107143Y-65724819D01*
X97440476Y-66724819D02*
X96869048Y-66724819D01*
X97154762Y-66724819D02*
X97154762Y-65724819D01*
X97154762Y-65724819D02*
X97059524Y-65867676D01*
X97059524Y-65867676D02*
X96964286Y-65962914D01*
X96964286Y-65962914D02*
X96869048Y-66010533D01*
X128379819Y-59261904D02*
X129189342Y-59261904D01*
X129189342Y-59261904D02*
X129284580Y-59214285D01*
X129284580Y-59214285D02*
X129332200Y-59166666D01*
X129332200Y-59166666D02*
X129379819Y-59071428D01*
X129379819Y-59071428D02*
X129379819Y-58880952D01*
X129379819Y-58880952D02*
X129332200Y-58785714D01*
X129332200Y-58785714D02*
X129284580Y-58738095D01*
X129284580Y-58738095D02*
X129189342Y-58690476D01*
X129189342Y-58690476D02*
X128379819Y-58690476D01*
X128379819Y-57785714D02*
X128379819Y-57976190D01*
X128379819Y-57976190D02*
X128427438Y-58071428D01*
X128427438Y-58071428D02*
X128475057Y-58119047D01*
X128475057Y-58119047D02*
X128617914Y-58214285D01*
X128617914Y-58214285D02*
X128808390Y-58261904D01*
X128808390Y-58261904D02*
X129189342Y-58261904D01*
X129189342Y-58261904D02*
X129284580Y-58214285D01*
X129284580Y-58214285D02*
X129332200Y-58166666D01*
X129332200Y-58166666D02*
X129379819Y-58071428D01*
X129379819Y-58071428D02*
X129379819Y-57880952D01*
X129379819Y-57880952D02*
X129332200Y-57785714D01*
X129332200Y-57785714D02*
X129284580Y-57738095D01*
X129284580Y-57738095D02*
X129189342Y-57690476D01*
X129189342Y-57690476D02*
X128951247Y-57690476D01*
X128951247Y-57690476D02*
X128856009Y-57738095D01*
X128856009Y-57738095D02*
X128808390Y-57785714D01*
X128808390Y-57785714D02*
X128760771Y-57880952D01*
X128760771Y-57880952D02*
X128760771Y-58071428D01*
X128760771Y-58071428D02*
X128808390Y-58166666D01*
X128808390Y-58166666D02*
X128856009Y-58214285D01*
X128856009Y-58214285D02*
X128951247Y-58261904D01*
X131289580Y-51355357D02*
X131337200Y-51402976D01*
X131337200Y-51402976D02*
X131384819Y-51545833D01*
X131384819Y-51545833D02*
X131384819Y-51641071D01*
X131384819Y-51641071D02*
X131337200Y-51783928D01*
X131337200Y-51783928D02*
X131241961Y-51879166D01*
X131241961Y-51879166D02*
X131146723Y-51926785D01*
X131146723Y-51926785D02*
X130956247Y-51974404D01*
X130956247Y-51974404D02*
X130813390Y-51974404D01*
X130813390Y-51974404D02*
X130622914Y-51926785D01*
X130622914Y-51926785D02*
X130527676Y-51879166D01*
X130527676Y-51879166D02*
X130432438Y-51783928D01*
X130432438Y-51783928D02*
X130384819Y-51641071D01*
X130384819Y-51641071D02*
X130384819Y-51545833D01*
X130384819Y-51545833D02*
X130432438Y-51402976D01*
X130432438Y-51402976D02*
X130480057Y-51355357D01*
X131384819Y-50402976D02*
X131384819Y-50974404D01*
X131384819Y-50688690D02*
X130384819Y-50688690D01*
X130384819Y-50688690D02*
X130527676Y-50783928D01*
X130527676Y-50783928D02*
X130622914Y-50879166D01*
X130622914Y-50879166D02*
X130670533Y-50974404D01*
X130384819Y-50069642D02*
X130384819Y-49402976D01*
X130384819Y-49402976D02*
X131384819Y-49831547D01*
X100854819Y-55642857D02*
X100378628Y-55976190D01*
X100854819Y-56214285D02*
X99854819Y-56214285D01*
X99854819Y-56214285D02*
X99854819Y-55833333D01*
X99854819Y-55833333D02*
X99902438Y-55738095D01*
X99902438Y-55738095D02*
X99950057Y-55690476D01*
X99950057Y-55690476D02*
X100045295Y-55642857D01*
X100045295Y-55642857D02*
X100188152Y-55642857D01*
X100188152Y-55642857D02*
X100283390Y-55690476D01*
X100283390Y-55690476D02*
X100331009Y-55738095D01*
X100331009Y-55738095D02*
X100378628Y-55833333D01*
X100378628Y-55833333D02*
X100378628Y-56214285D01*
X100854819Y-54690476D02*
X100854819Y-55261904D01*
X100854819Y-54976190D02*
X99854819Y-54976190D01*
X99854819Y-54976190D02*
X99997676Y-55071428D01*
X99997676Y-55071428D02*
X100092914Y-55166666D01*
X100092914Y-55166666D02*
X100140533Y-55261904D01*
X100283390Y-54119047D02*
X100235771Y-54214285D01*
X100235771Y-54214285D02*
X100188152Y-54261904D01*
X100188152Y-54261904D02*
X100092914Y-54309523D01*
X100092914Y-54309523D02*
X100045295Y-54309523D01*
X100045295Y-54309523D02*
X99950057Y-54261904D01*
X99950057Y-54261904D02*
X99902438Y-54214285D01*
X99902438Y-54214285D02*
X99854819Y-54119047D01*
X99854819Y-54119047D02*
X99854819Y-53928571D01*
X99854819Y-53928571D02*
X99902438Y-53833333D01*
X99902438Y-53833333D02*
X99950057Y-53785714D01*
X99950057Y-53785714D02*
X100045295Y-53738095D01*
X100045295Y-53738095D02*
X100092914Y-53738095D01*
X100092914Y-53738095D02*
X100188152Y-53785714D01*
X100188152Y-53785714D02*
X100235771Y-53833333D01*
X100235771Y-53833333D02*
X100283390Y-53928571D01*
X100283390Y-53928571D02*
X100283390Y-54119047D01*
X100283390Y-54119047D02*
X100331009Y-54214285D01*
X100331009Y-54214285D02*
X100378628Y-54261904D01*
X100378628Y-54261904D02*
X100473866Y-54309523D01*
X100473866Y-54309523D02*
X100664342Y-54309523D01*
X100664342Y-54309523D02*
X100759580Y-54261904D01*
X100759580Y-54261904D02*
X100807200Y-54214285D01*
X100807200Y-54214285D02*
X100854819Y-54119047D01*
X100854819Y-54119047D02*
X100854819Y-53928571D01*
X100854819Y-53928571D02*
X100807200Y-53833333D01*
X100807200Y-53833333D02*
X100759580Y-53785714D01*
X100759580Y-53785714D02*
X100664342Y-53738095D01*
X100664342Y-53738095D02*
X100473866Y-53738095D01*
X100473866Y-53738095D02*
X100378628Y-53785714D01*
X100378628Y-53785714D02*
X100331009Y-53833333D01*
X100331009Y-53833333D02*
X100283390Y-53928571D01*
X94154819Y-55742857D02*
X93678628Y-56076190D01*
X94154819Y-56314285D02*
X93154819Y-56314285D01*
X93154819Y-56314285D02*
X93154819Y-55933333D01*
X93154819Y-55933333D02*
X93202438Y-55838095D01*
X93202438Y-55838095D02*
X93250057Y-55790476D01*
X93250057Y-55790476D02*
X93345295Y-55742857D01*
X93345295Y-55742857D02*
X93488152Y-55742857D01*
X93488152Y-55742857D02*
X93583390Y-55790476D01*
X93583390Y-55790476D02*
X93631009Y-55838095D01*
X93631009Y-55838095D02*
X93678628Y-55933333D01*
X93678628Y-55933333D02*
X93678628Y-56314285D01*
X94154819Y-54790476D02*
X94154819Y-55361904D01*
X94154819Y-55076190D02*
X93154819Y-55076190D01*
X93154819Y-55076190D02*
X93297676Y-55171428D01*
X93297676Y-55171428D02*
X93392914Y-55266666D01*
X93392914Y-55266666D02*
X93440533Y-55361904D01*
X93154819Y-54457142D02*
X93154819Y-53790476D01*
X93154819Y-53790476D02*
X94154819Y-54219047D01*
X107059523Y-41599580D02*
X107011904Y-41647200D01*
X107011904Y-41647200D02*
X106869047Y-41694819D01*
X106869047Y-41694819D02*
X106773809Y-41694819D01*
X106773809Y-41694819D02*
X106630952Y-41647200D01*
X106630952Y-41647200D02*
X106535714Y-41551961D01*
X106535714Y-41551961D02*
X106488095Y-41456723D01*
X106488095Y-41456723D02*
X106440476Y-41266247D01*
X106440476Y-41266247D02*
X106440476Y-41123390D01*
X106440476Y-41123390D02*
X106488095Y-40932914D01*
X106488095Y-40932914D02*
X106535714Y-40837676D01*
X106535714Y-40837676D02*
X106630952Y-40742438D01*
X106630952Y-40742438D02*
X106773809Y-40694819D01*
X106773809Y-40694819D02*
X106869047Y-40694819D01*
X106869047Y-40694819D02*
X107011904Y-40742438D01*
X107011904Y-40742438D02*
X107059523Y-40790057D01*
X107488095Y-41694819D02*
X107488095Y-40694819D01*
X107488095Y-40694819D02*
X108059523Y-41694819D01*
X108059523Y-41694819D02*
X108059523Y-40694819D01*
X108440476Y-40694819D02*
X109107142Y-40694819D01*
X109107142Y-40694819D02*
X108678571Y-41694819D01*
X140259580Y-49142857D02*
X140307200Y-49190476D01*
X140307200Y-49190476D02*
X140354819Y-49333333D01*
X140354819Y-49333333D02*
X140354819Y-49428571D01*
X140354819Y-49428571D02*
X140307200Y-49571428D01*
X140307200Y-49571428D02*
X140211961Y-49666666D01*
X140211961Y-49666666D02*
X140116723Y-49714285D01*
X140116723Y-49714285D02*
X139926247Y-49761904D01*
X139926247Y-49761904D02*
X139783390Y-49761904D01*
X139783390Y-49761904D02*
X139592914Y-49714285D01*
X139592914Y-49714285D02*
X139497676Y-49666666D01*
X139497676Y-49666666D02*
X139402438Y-49571428D01*
X139402438Y-49571428D02*
X139354819Y-49428571D01*
X139354819Y-49428571D02*
X139354819Y-49333333D01*
X139354819Y-49333333D02*
X139402438Y-49190476D01*
X139402438Y-49190476D02*
X139450057Y-49142857D01*
X140354819Y-48190476D02*
X140354819Y-48761904D01*
X140354819Y-48476190D02*
X139354819Y-48476190D01*
X139354819Y-48476190D02*
X139497676Y-48571428D01*
X139497676Y-48571428D02*
X139592914Y-48666666D01*
X139592914Y-48666666D02*
X139640533Y-48761904D01*
X139354819Y-47857142D02*
X139354819Y-47238095D01*
X139354819Y-47238095D02*
X139735771Y-47571428D01*
X139735771Y-47571428D02*
X139735771Y-47428571D01*
X139735771Y-47428571D02*
X139783390Y-47333333D01*
X139783390Y-47333333D02*
X139831009Y-47285714D01*
X139831009Y-47285714D02*
X139926247Y-47238095D01*
X139926247Y-47238095D02*
X140164342Y-47238095D01*
X140164342Y-47238095D02*
X140259580Y-47285714D01*
X140259580Y-47285714D02*
X140307200Y-47333333D01*
X140307200Y-47333333D02*
X140354819Y-47428571D01*
X140354819Y-47428571D02*
X140354819Y-47714285D01*
X140354819Y-47714285D02*
X140307200Y-47809523D01*
X140307200Y-47809523D02*
X140259580Y-47857142D01*
D11*
X96566666Y-37257419D02*
X96566666Y-37971704D01*
X96566666Y-37971704D02*
X96519047Y-38114561D01*
X96519047Y-38114561D02*
X96423809Y-38209800D01*
X96423809Y-38209800D02*
X96280952Y-38257419D01*
X96280952Y-38257419D02*
X96185714Y-38257419D01*
X97566666Y-38257419D02*
X96995238Y-38257419D01*
X97280952Y-38257419D02*
X97280952Y-37257419D01*
X97280952Y-37257419D02*
X97185714Y-37400276D01*
X97185714Y-37400276D02*
X97090476Y-37495514D01*
X97090476Y-37495514D02*
X96995238Y-37543133D01*
D10*
X125754819Y-88661904D02*
X126564342Y-88661904D01*
X126564342Y-88661904D02*
X126659580Y-88614285D01*
X126659580Y-88614285D02*
X126707200Y-88566666D01*
X126707200Y-88566666D02*
X126754819Y-88471428D01*
X126754819Y-88471428D02*
X126754819Y-88280952D01*
X126754819Y-88280952D02*
X126707200Y-88185714D01*
X126707200Y-88185714D02*
X126659580Y-88138095D01*
X126659580Y-88138095D02*
X126564342Y-88090476D01*
X126564342Y-88090476D02*
X125754819Y-88090476D01*
X126754819Y-87090476D02*
X126754819Y-87661904D01*
X126754819Y-87376190D02*
X125754819Y-87376190D01*
X125754819Y-87376190D02*
X125897676Y-87471428D01*
X125897676Y-87471428D02*
X125992914Y-87566666D01*
X125992914Y-87566666D02*
X126040533Y-87661904D01*
X127933333Y-67054819D02*
X127600000Y-66578628D01*
X127361905Y-67054819D02*
X127361905Y-66054819D01*
X127361905Y-66054819D02*
X127742857Y-66054819D01*
X127742857Y-66054819D02*
X127838095Y-66102438D01*
X127838095Y-66102438D02*
X127885714Y-66150057D01*
X127885714Y-66150057D02*
X127933333Y-66245295D01*
X127933333Y-66245295D02*
X127933333Y-66388152D01*
X127933333Y-66388152D02*
X127885714Y-66483390D01*
X127885714Y-66483390D02*
X127838095Y-66531009D01*
X127838095Y-66531009D02*
X127742857Y-66578628D01*
X127742857Y-66578628D02*
X127361905Y-66578628D01*
X128790476Y-66388152D02*
X128790476Y-67054819D01*
X128552381Y-66007200D02*
X128314286Y-66721485D01*
X128314286Y-66721485D02*
X128933333Y-66721485D01*
X130133333Y-92459580D02*
X130085714Y-92507200D01*
X130085714Y-92507200D02*
X129942857Y-92554819D01*
X129942857Y-92554819D02*
X129847619Y-92554819D01*
X129847619Y-92554819D02*
X129704762Y-92507200D01*
X129704762Y-92507200D02*
X129609524Y-92411961D01*
X129609524Y-92411961D02*
X129561905Y-92316723D01*
X129561905Y-92316723D02*
X129514286Y-92126247D01*
X129514286Y-92126247D02*
X129514286Y-91983390D01*
X129514286Y-91983390D02*
X129561905Y-91792914D01*
X129561905Y-91792914D02*
X129609524Y-91697676D01*
X129609524Y-91697676D02*
X129704762Y-91602438D01*
X129704762Y-91602438D02*
X129847619Y-91554819D01*
X129847619Y-91554819D02*
X129942857Y-91554819D01*
X129942857Y-91554819D02*
X130085714Y-91602438D01*
X130085714Y-91602438D02*
X130133333Y-91650057D01*
X131038095Y-91554819D02*
X130561905Y-91554819D01*
X130561905Y-91554819D02*
X130514286Y-92031009D01*
X130514286Y-92031009D02*
X130561905Y-91983390D01*
X130561905Y-91983390D02*
X130657143Y-91935771D01*
X130657143Y-91935771D02*
X130895238Y-91935771D01*
X130895238Y-91935771D02*
X130990476Y-91983390D01*
X130990476Y-91983390D02*
X131038095Y-92031009D01*
X131038095Y-92031009D02*
X131085714Y-92126247D01*
X131085714Y-92126247D02*
X131085714Y-92364342D01*
X131085714Y-92364342D02*
X131038095Y-92459580D01*
X131038095Y-92459580D02*
X130990476Y-92507200D01*
X130990476Y-92507200D02*
X130895238Y-92554819D01*
X130895238Y-92554819D02*
X130657143Y-92554819D01*
X130657143Y-92554819D02*
X130561905Y-92507200D01*
X130561905Y-92507200D02*
X130514286Y-92459580D01*
X147285595Y-51969819D02*
X147285595Y-52779342D01*
X147285595Y-52779342D02*
X147333214Y-52874580D01*
X147333214Y-52874580D02*
X147380833Y-52922200D01*
X147380833Y-52922200D02*
X147476071Y-52969819D01*
X147476071Y-52969819D02*
X147666547Y-52969819D01*
X147666547Y-52969819D02*
X147761785Y-52922200D01*
X147761785Y-52922200D02*
X147809404Y-52874580D01*
X147809404Y-52874580D02*
X147857023Y-52779342D01*
X147857023Y-52779342D02*
X147857023Y-51969819D01*
X148761785Y-52303152D02*
X148761785Y-52969819D01*
X148523690Y-51922200D02*
X148285595Y-52636485D01*
X148285595Y-52636485D02*
X148904642Y-52636485D01*
X127459580Y-47942857D02*
X127507200Y-47990476D01*
X127507200Y-47990476D02*
X127554819Y-48133333D01*
X127554819Y-48133333D02*
X127554819Y-48228571D01*
X127554819Y-48228571D02*
X127507200Y-48371428D01*
X127507200Y-48371428D02*
X127411961Y-48466666D01*
X127411961Y-48466666D02*
X127316723Y-48514285D01*
X127316723Y-48514285D02*
X127126247Y-48561904D01*
X127126247Y-48561904D02*
X126983390Y-48561904D01*
X126983390Y-48561904D02*
X126792914Y-48514285D01*
X126792914Y-48514285D02*
X126697676Y-48466666D01*
X126697676Y-48466666D02*
X126602438Y-48371428D01*
X126602438Y-48371428D02*
X126554819Y-48228571D01*
X126554819Y-48228571D02*
X126554819Y-48133333D01*
X126554819Y-48133333D02*
X126602438Y-47990476D01*
X126602438Y-47990476D02*
X126650057Y-47942857D01*
X126650057Y-47561904D02*
X126602438Y-47514285D01*
X126602438Y-47514285D02*
X126554819Y-47419047D01*
X126554819Y-47419047D02*
X126554819Y-47180952D01*
X126554819Y-47180952D02*
X126602438Y-47085714D01*
X126602438Y-47085714D02*
X126650057Y-47038095D01*
X126650057Y-47038095D02*
X126745295Y-46990476D01*
X126745295Y-46990476D02*
X126840533Y-46990476D01*
X126840533Y-46990476D02*
X126983390Y-47038095D01*
X126983390Y-47038095D02*
X127554819Y-47609523D01*
X127554819Y-47609523D02*
X127554819Y-46990476D01*
X127554819Y-46038095D02*
X127554819Y-46609523D01*
X127554819Y-46323809D02*
X126554819Y-46323809D01*
X126554819Y-46323809D02*
X126697676Y-46419047D01*
X126697676Y-46419047D02*
X126792914Y-46514285D01*
X126792914Y-46514285D02*
X126840533Y-46609523D01*
X166666666Y-100181009D02*
X166333333Y-100181009D01*
X166333333Y-100704819D02*
X166333333Y-99704819D01*
X166333333Y-99704819D02*
X166809523Y-99704819D01*
X167714285Y-100704819D02*
X167142857Y-100704819D01*
X167428571Y-100704819D02*
X167428571Y-99704819D01*
X167428571Y-99704819D02*
X167333333Y-99847676D01*
X167333333Y-99847676D02*
X167238095Y-99942914D01*
X167238095Y-99942914D02*
X167142857Y-99990533D01*
X130133333Y-90459580D02*
X130085714Y-90507200D01*
X130085714Y-90507200D02*
X129942857Y-90554819D01*
X129942857Y-90554819D02*
X129847619Y-90554819D01*
X129847619Y-90554819D02*
X129704762Y-90507200D01*
X129704762Y-90507200D02*
X129609524Y-90411961D01*
X129609524Y-90411961D02*
X129561905Y-90316723D01*
X129561905Y-90316723D02*
X129514286Y-90126247D01*
X129514286Y-90126247D02*
X129514286Y-89983390D01*
X129514286Y-89983390D02*
X129561905Y-89792914D01*
X129561905Y-89792914D02*
X129609524Y-89697676D01*
X129609524Y-89697676D02*
X129704762Y-89602438D01*
X129704762Y-89602438D02*
X129847619Y-89554819D01*
X129847619Y-89554819D02*
X129942857Y-89554819D01*
X129942857Y-89554819D02*
X130085714Y-89602438D01*
X130085714Y-89602438D02*
X130133333Y-89650057D01*
X131085714Y-90554819D02*
X130514286Y-90554819D01*
X130800000Y-90554819D02*
X130800000Y-89554819D01*
X130800000Y-89554819D02*
X130704762Y-89697676D01*
X130704762Y-89697676D02*
X130609524Y-89792914D01*
X130609524Y-89792914D02*
X130514286Y-89840533D01*
D12*
%TO.C,R2*%
X124740000Y-84371078D02*
X124740000Y-83853922D01*
X126160000Y-84371078D02*
X126160000Y-83853922D01*
D11*
%TO.C,RS1*%
X99900000Y-109310000D02*
X99900000Y-101690000D01*
X99900000Y-109310000D02*
X115140000Y-109310000D01*
X115140000Y-109310000D02*
X115140000Y-101690000D01*
D12*
%TO.C,C9*%
X120317500Y-79627500D02*
X120317500Y-79564000D01*
X120317500Y-79564000D02*
X120317500Y-77722500D01*
X120317500Y-77722500D02*
X116507500Y-77722500D01*
X118539500Y-78992500D02*
X118539500Y-78357500D01*
X118539500Y-78675000D02*
X118603000Y-78675000D01*
X118285500Y-78675000D02*
X118222000Y-78675000D01*
X118285500Y-78357500D02*
X118285500Y-78992500D01*
X116507500Y-79627500D02*
X120317500Y-79627500D01*
X116507500Y-77722500D02*
X116507500Y-79627500D01*
%TO.C,R5*%
X124128922Y-78465000D02*
X124646078Y-78465000D01*
X124128922Y-79885000D02*
X124646078Y-79885000D01*
%TO.C,Q1*%
X154440000Y-42000000D02*
X154440000Y-43675000D01*
X154440000Y-42000000D02*
X154440000Y-41350000D01*
X157560000Y-42000000D02*
X157560000Y-42650000D01*
X157560000Y-42000000D02*
X157560000Y-41350000D01*
%TO.C,R1*%
X122740000Y-84371078D02*
X122740000Y-83853922D01*
X124160000Y-84371078D02*
X124160000Y-83853922D01*
%TO.C,C11*%
X142752500Y-43132500D02*
X142689000Y-43132500D01*
X142689000Y-43132500D02*
X140847500Y-43132500D01*
X140847500Y-43132500D02*
X140847500Y-46942500D01*
X142117500Y-44910500D02*
X141482500Y-44910500D01*
X141800000Y-44910500D02*
X141800000Y-44847000D01*
X141800000Y-45164500D02*
X141800000Y-45228000D01*
X141482500Y-45164500D02*
X142117500Y-45164500D01*
X142752500Y-46942500D02*
X142752500Y-43132500D01*
X140847500Y-46942500D02*
X142752500Y-46942500D01*
%TO.C,R31*%
X109196078Y-100960000D02*
X108678922Y-100960000D01*
X109196078Y-99540000D02*
X108678922Y-99540000D01*
%TO.C,R16*%
X154218578Y-85460000D02*
X153701422Y-85460000D01*
X154218578Y-84040000D02*
X153701422Y-84040000D01*
%TO.C,C12*%
X136692500Y-48952500D02*
X136692500Y-48889000D01*
X136692500Y-48889000D02*
X136692500Y-47047500D01*
X136692500Y-47047500D02*
X132882500Y-47047500D01*
X134914500Y-48317500D02*
X134914500Y-47682500D01*
X134914500Y-48000000D02*
X134978000Y-48000000D01*
X134660500Y-48000000D02*
X134597000Y-48000000D01*
X134660500Y-47682500D02*
X134660500Y-48317500D01*
X132882500Y-48952500D02*
X136692500Y-48952500D01*
X132882500Y-47047500D02*
X132882500Y-48952500D01*
%TO.C,L2*%
X164200000Y-99400000D02*
X164200000Y-92600000D01*
X164200000Y-92600000D02*
X157000000Y-92600000D01*
X157000000Y-99400000D02*
X164200000Y-99400000D01*
X157000000Y-92600000D02*
X157000000Y-99400000D01*
X161235000Y-96000000D02*
G75*
G03*
X161870000Y-96000000I317500J0D01*
G01*
X160600000Y-96000000D02*
G75*
G03*
X161235000Y-96000000I317500J0D01*
G01*
X159965000Y-96000000D02*
G75*
G03*
X160600000Y-96000000I317500J0D01*
G01*
X159330000Y-96000000D02*
G75*
G03*
X159965000Y-96000000I317500J0D01*
G01*
%TO.C,IC1*%
X133400000Y-46830000D02*
X138600000Y-46830000D01*
X138600000Y-46830000D02*
X138600000Y-39630000D01*
X133400000Y-39630000D02*
X133400000Y-46830000D01*
X138600000Y-39630000D02*
X133400000Y-39630000D01*
%TO.C,R11*%
X117158500Y-50047500D02*
X117158500Y-51952500D01*
X117158500Y-51952500D02*
X120841500Y-51952500D01*
X120841500Y-50047500D02*
X117158500Y-50047500D01*
X120841500Y-51952500D02*
X120841500Y-50047500D01*
%TO.C,CN9*%
X166130000Y-42670000D02*
X166130000Y-91050000D01*
X166130000Y-42670000D02*
X168730000Y-42670000D01*
X166130000Y-91050000D02*
X171330000Y-91050000D01*
X168730000Y-42670000D02*
X168730000Y-45270000D01*
X168730000Y-45270000D02*
X171330000Y-45270000D01*
X170000000Y-42670000D02*
X171330000Y-42670000D01*
X171330000Y-42670000D02*
X171330000Y-44000000D01*
X171330000Y-45270000D02*
X171330000Y-91050000D01*
%TO.C,R12*%
X152710000Y-41803922D02*
X152710000Y-42321078D01*
X151290000Y-41803922D02*
X151290000Y-42321078D01*
%TO.C,R15*%
X154571078Y-73210000D02*
X154053922Y-73210000D01*
X154571078Y-71790000D02*
X154053922Y-71790000D01*
%TO.C,C4*%
X172952500Y-93057500D02*
X172889000Y-93057500D01*
X172889000Y-93057500D02*
X171047500Y-93057500D01*
X171047500Y-93057500D02*
X171047500Y-96867500D01*
X172317500Y-94835500D02*
X171682500Y-94835500D01*
X172000000Y-94835500D02*
X172000000Y-94772000D01*
X172000000Y-95089500D02*
X172000000Y-95153000D01*
X171682500Y-95089500D02*
X172317500Y-95089500D01*
X172952500Y-96867500D02*
X172952500Y-93057500D01*
X171047500Y-96867500D02*
X172952500Y-96867500D01*
%TO.C,Q2*%
X147490000Y-41937500D02*
X147490000Y-43612500D01*
X147490000Y-41937500D02*
X147490000Y-41287500D01*
X150610000Y-41937500D02*
X150610000Y-42587500D01*
X150610000Y-41937500D02*
X150610000Y-41287500D01*
%TO.C,C6*%
X154202500Y-92595000D02*
X154139000Y-92595000D01*
X154139000Y-92595000D02*
X152297500Y-92595000D01*
X152297500Y-92595000D02*
X152297500Y-96405000D01*
X153567500Y-94373000D02*
X152932500Y-94373000D01*
X153250000Y-94373000D02*
X153250000Y-94309500D01*
X153250000Y-94627000D02*
X153250000Y-94690500D01*
X152932500Y-94627000D02*
X153567500Y-94627000D01*
X154202500Y-96405000D02*
X154202500Y-92595000D01*
X152297500Y-96405000D02*
X154202500Y-96405000D01*
%TO.C,U7*%
X148047500Y-64245000D02*
X144597500Y-64245000D01*
X148047500Y-64245000D02*
X149997500Y-64245000D01*
X148047500Y-74365000D02*
X146097500Y-74365000D01*
X148047500Y-74365000D02*
X149997500Y-74365000D01*
%TO.C,C8*%
X120617500Y-84952500D02*
X120617500Y-84889000D01*
X120617500Y-84889000D02*
X120617500Y-83047500D01*
X120617500Y-83047500D02*
X116807500Y-83047500D01*
X118839500Y-84317500D02*
X118839500Y-83682500D01*
X118839500Y-84000000D02*
X118903000Y-84000000D01*
X118585500Y-84000000D02*
X118522000Y-84000000D01*
X118585500Y-83682500D02*
X118585500Y-84317500D01*
X116807500Y-84952500D02*
X120617500Y-84952500D01*
X116807500Y-83047500D02*
X116807500Y-84952500D01*
%TO.C,U8*%
X148047500Y-75245000D02*
X144597500Y-75245000D01*
X148047500Y-75245000D02*
X149997500Y-75245000D01*
X148047500Y-85365000D02*
X146097500Y-85365000D01*
X148047500Y-85365000D02*
X149997500Y-85365000D01*
%TO.C,R13*%
X144290000Y-42196078D02*
X144290000Y-41678922D01*
X145710000Y-42196078D02*
X145710000Y-41678922D01*
%TO.C,C3*%
X156786000Y-85912500D02*
X156786000Y-89087500D01*
X156786000Y-89087500D02*
X161739000Y-89087500D01*
X159008500Y-86611000D02*
X159008500Y-87500000D01*
X159008500Y-87500000D02*
X158754500Y-87500000D01*
X159008500Y-87500000D02*
X159008500Y-88389000D01*
X159516500Y-86611000D02*
X159516500Y-88389000D01*
X159516500Y-87500000D02*
X159770500Y-87500000D01*
X161739000Y-85912500D02*
X156786000Y-85912500D01*
X161739000Y-89087500D02*
X161739000Y-85912500D01*
%TO.C,R14*%
X152790000Y-63196078D02*
X152790000Y-62678922D01*
X154210000Y-63196078D02*
X154210000Y-62678922D01*
%TO.C,R10*%
X119878922Y-65790000D02*
X120396078Y-65790000D01*
X119878922Y-67210000D02*
X120396078Y-67210000D01*
%TO.C,L1*%
X101940000Y-64620000D02*
X101115000Y-64620000D01*
X101115000Y-65180000D02*
X101115000Y-64620000D01*
X101115000Y-65180000D02*
X92385000Y-65180000D01*
X101115000Y-62460000D02*
X101115000Y-62080000D01*
X101115000Y-59360000D02*
X101115000Y-59920000D01*
X92385000Y-65180000D02*
X92385000Y-64620000D01*
X92385000Y-62460000D02*
X92385000Y-62080000D01*
X92385000Y-59360000D02*
X101115000Y-59360000D01*
X92385000Y-59360000D02*
X92385000Y-59920000D01*
%TO.C,U6*%
X128085000Y-54640000D02*
X127850000Y-54640000D01*
X127850000Y-54640000D02*
X127850000Y-52825000D01*
X115065000Y-54640000D02*
X115300000Y-54640000D01*
X128085000Y-58500000D02*
X128085000Y-54640000D01*
X128085000Y-58500000D02*
X128085000Y-62360000D01*
X115065000Y-58500000D02*
X115065000Y-54640000D01*
X115065000Y-58500000D02*
X115065000Y-62360000D01*
X128085000Y-62360000D02*
X127850000Y-62360000D01*
X115065000Y-62360000D02*
X115300000Y-62360000D01*
%TO.C,C17*%
X129985000Y-50451248D02*
X129985000Y-50973752D01*
X128515000Y-50451248D02*
X128515000Y-50973752D01*
%TO.C,R18*%
X96410000Y-54497936D02*
X96410000Y-55702064D01*
X94590000Y-54497936D02*
X94590000Y-55702064D01*
%TO.C,R17*%
X97590000Y-55702064D02*
X97590000Y-54497936D01*
X99410000Y-55702064D02*
X99410000Y-54497936D01*
%TO.C,CN7*%
X105150000Y-42680000D02*
X105150000Y-91060000D01*
X105150000Y-42680000D02*
X107750000Y-42680000D01*
X105150000Y-91060000D02*
X110350000Y-91060000D01*
X107750000Y-42680000D02*
X107750000Y-45280000D01*
X107750000Y-45280000D02*
X110350000Y-45280000D01*
X109020000Y-42680000D02*
X110350000Y-42680000D01*
X110350000Y-42680000D02*
X110350000Y-44010000D01*
X110350000Y-45280000D02*
X110350000Y-91060000D01*
%TO.C,C13*%
X140702500Y-43132500D02*
X140639000Y-43132500D01*
X140639000Y-43132500D02*
X138797500Y-43132500D01*
X138797500Y-43132500D02*
X138797500Y-46942500D01*
X140067500Y-44910500D02*
X139432500Y-44910500D01*
X139750000Y-44910500D02*
X139750000Y-44847000D01*
X139750000Y-45164500D02*
X139750000Y-45228000D01*
X139432500Y-45164500D02*
X140067500Y-45164500D01*
X140702500Y-46942500D02*
X140702500Y-43132500D01*
X138797500Y-46942500D02*
X140702500Y-46942500D01*
D11*
%TO.C,J1*%
X99805000Y-39650000D02*
X92185000Y-39650000D01*
X99805000Y-39650000D02*
X99805000Y-52350000D01*
X97265000Y-39650000D02*
X97265000Y-42190000D01*
X94725000Y-42190000D02*
X99805000Y-42190000D01*
X99805000Y-52350000D02*
X92185000Y-52350000D01*
X94725000Y-52350000D02*
X94725000Y-39650000D01*
X92185000Y-52350000D02*
X92185000Y-39650000D01*
D12*
%TO.C,U1*%
X125310000Y-89525000D02*
X125310000Y-86075000D01*
X125310000Y-89525000D02*
X125310000Y-91475000D01*
X120190000Y-89525000D02*
X120190000Y-87575000D01*
X120190000Y-89525000D02*
X120190000Y-91475000D01*
D11*
%TO.C,RS2*%
X159300000Y-109310000D02*
X159300000Y-101690000D01*
X159300000Y-109310000D02*
X174540000Y-109310000D01*
X174540000Y-109310000D02*
X174540000Y-101690000D01*
D12*
%TO.C,R4*%
X125771078Y-67210000D02*
X125253922Y-67210000D01*
X125771078Y-65790000D02*
X125253922Y-65790000D01*
%TO.C,C5*%
X129267500Y-93152500D02*
X129267500Y-93089000D01*
X129267500Y-93089000D02*
X129267500Y-91247500D01*
X129267500Y-91247500D02*
X125457500Y-91247500D01*
X127489500Y-92517500D02*
X127489500Y-91882500D01*
X127489500Y-92200000D02*
X127553000Y-92200000D01*
X127235500Y-92200000D02*
X127172000Y-92200000D01*
X127235500Y-91882500D02*
X127235500Y-92517500D01*
X125457500Y-93152500D02*
X129267500Y-93152500D01*
X125457500Y-91247500D02*
X125457500Y-93152500D01*
%TO.C,U4*%
X148047500Y-53355000D02*
X144597500Y-53355000D01*
X148047500Y-53355000D02*
X149997500Y-53355000D01*
X148047500Y-63475000D02*
X146097500Y-63475000D01*
X148047500Y-63475000D02*
X149997500Y-63475000D01*
%TO.C,C21*%
X128152500Y-48758500D02*
X126247500Y-48758500D01*
X126247500Y-48758500D02*
X126247500Y-52441500D01*
X128152500Y-52441500D02*
X128152500Y-48758500D01*
X126247500Y-52441500D02*
X128152500Y-52441500D01*
%TO.C,F1*%
X165000000Y-99345000D02*
X169000000Y-99345000D01*
X169000000Y-99345000D02*
X169000000Y-91745000D01*
X167000000Y-96561000D02*
X167000000Y-96688000D01*
X167000000Y-94402000D02*
X167000000Y-96561000D01*
X165000000Y-91745000D02*
X165000000Y-99345000D01*
X169000000Y-91745000D02*
X165000000Y-91745000D01*
X166600000Y-96445000D02*
X167400000Y-96445000D01*
X167400000Y-96445000D02*
X167400000Y-94645000D01*
X167400000Y-94645000D02*
X166600000Y-94645000D01*
X166600000Y-94645000D02*
X166600000Y-96445000D01*
D11*
%TO.C,RS3*%
X119460000Y-109310000D02*
X119460000Y-101690000D01*
X119460000Y-109310000D02*
X139780000Y-109310000D01*
X139780000Y-109310000D02*
X139780000Y-101690000D01*
D12*
%TO.C,C1*%
X129267500Y-91102500D02*
X129267500Y-91039000D01*
X129267500Y-91039000D02*
X129267500Y-89197500D01*
X129267500Y-89197500D02*
X125457500Y-89197500D01*
X127489500Y-90467500D02*
X127489500Y-89832500D01*
X127489500Y-90150000D02*
X127553000Y-90150000D01*
X127235500Y-90150000D02*
X127172000Y-90150000D01*
X127235500Y-89832500D02*
X127235500Y-90467500D01*
X125457500Y-91102500D02*
X129267500Y-91102500D01*
X125457500Y-89197500D02*
X125457500Y-91102500D01*
%TD*%
D13*
X175000000Y-100000000D02*
X175000000Y-36000000D01*
X119500000Y-100000000D02*
X119500000Y-109500000D01*
X90000000Y-100000000D02*
X90000000Y-36000000D01*
X175000000Y-36000000D02*
X90000000Y-36000000D01*
X97500000Y-100000000D02*
X90000000Y-100000000D01*
X100000000Y-109500000D02*
X115000000Y-109500000D01*
X115000000Y-100000000D02*
X119500000Y-100000000D01*
X159400000Y-109500000D02*
X174500000Y-109500000D01*
X97500000Y-100000000D02*
X100000000Y-100000000D01*
X174500000Y-100000000D02*
X175000000Y-100000000D01*
X139600000Y-109500000D02*
X139600000Y-100000000D01*
X159400000Y-100000000D02*
X159400000Y-109500000D01*
X139600000Y-100000000D02*
X159400000Y-100000000D01*
X115000000Y-109500000D02*
X115000000Y-100000000D01*
X174500000Y-109500000D02*
X174500000Y-100000000D01*
X100000000Y-100000000D02*
X100000000Y-109500000D01*
X119500000Y-109500000D02*
X139600000Y-109500000D01*
M02*
