%TF.GenerationSoftware,KiCad,Pcbnew,7.0.9*%
%TF.CreationDate,2024-06-26T15:19:18+03:00*%
%TF.ProjectId,_____ _________ ___________,1f3b3042-3020-43e4-913d-3e323d3e333e,rev?*%
%TF.SameCoordinates,Original*%
%TF.FileFunction,Paste,Bot*%
%TF.FilePolarity,Positive*%
%FSLAX46Y46*%
G04 Gerber Fmt 4.6, Leading zero omitted, Abs format (unit mm)*
G04 Created by KiCad (PCBNEW 7.0.9) date 2024-06-26 15:19:18*
%MOMM*%
%LPD*%
G01*
G04 APERTURE LIST*
G04 Aperture macros list*
%AMRoundRect*
0 Rectangle with rounded corners*
0 $1 Rounding radius*
0 $2 $3 $4 $5 $6 $7 $8 $9 X,Y pos of 4 corners*
0 Add a 4 corners polygon primitive as box body*
4,1,4,$2,$3,$4,$5,$6,$7,$8,$9,$2,$3,0*
0 Add four circle primitives for the rounded corners*
1,1,$1+$1,$2,$3*
1,1,$1+$1,$4,$5*
1,1,$1+$1,$6,$7*
1,1,$1+$1,$8,$9*
0 Add four rect primitives between the rounded corners*
20,1,$1+$1,$2,$3,$4,$5,0*
20,1,$1+$1,$4,$5,$6,$7,0*
20,1,$1+$1,$6,$7,$8,$9,0*
20,1,$1+$1,$8,$9,$2,$3,0*%
G04 Aperture macros list end*
%ADD10R,1.000000X1.000000*%
%ADD11C,1.000000*%
%ADD12RoundRect,0.250000X0.475000X-0.337500X0.475000X0.337500X-0.475000X0.337500X-0.475000X-0.337500X0*%
%ADD13RoundRect,0.250000X0.337500X0.475000X-0.337500X0.475000X-0.337500X-0.475000X0.337500X-0.475000X0*%
%ADD14RoundRect,0.250001X-0.462499X-1.074999X0.462499X-1.074999X0.462499X1.074999X-0.462499X1.074999X0*%
%ADD15RoundRect,0.250000X0.500000X0.500000X-0.500000X0.500000X-0.500000X-0.500000X0.500000X-0.500000X0*%
%ADD16RoundRect,0.225000X0.225000X0.225000X-0.225000X0.225000X-0.225000X-0.225000X0.225000X-0.225000X0*%
%ADD17RoundRect,0.250000X-0.350000X-0.450000X0.350000X-0.450000X0.350000X0.450000X-0.350000X0.450000X0*%
%ADD18RoundRect,0.250001X1.074999X-0.462499X1.074999X0.462499X-1.074999X0.462499X-1.074999X-0.462499X0*%
%ADD19RoundRect,0.250000X-0.450000X0.350000X-0.450000X-0.350000X0.450000X-0.350000X0.450000X0.350000X0*%
%ADD20RoundRect,0.250000X-0.900000X1.000000X-0.900000X-1.000000X0.900000X-1.000000X0.900000X1.000000X0*%
%ADD21RoundRect,0.243750X-0.243750X-0.456250X0.243750X-0.456250X0.243750X0.456250X-0.243750X0.456250X0*%
%ADD22RoundRect,0.250000X-1.000000X-0.900000X1.000000X-0.900000X1.000000X0.900000X-1.000000X0.900000X0*%
%ADD23RoundRect,0.250001X-1.074999X0.462499X-1.074999X-0.462499X1.074999X-0.462499X1.074999X0.462499X0*%
%ADD24RoundRect,0.150000X-0.150000X0.825000X-0.150000X-0.825000X0.150000X-0.825000X0.150000X0.825000X0*%
%ADD25RoundRect,0.250000X0.450000X-0.350000X0.450000X0.350000X-0.450000X0.350000X-0.450000X-0.350000X0*%
%ADD26RoundRect,0.250000X0.350000X0.450000X-0.350000X0.450000X-0.350000X-0.450000X0.350000X-0.450000X0*%
%ADD27RoundRect,0.250000X-0.475000X0.337500X-0.475000X-0.337500X0.475000X-0.337500X0.475000X0.337500X0*%
%ADD28RoundRect,0.250000X-0.337500X-0.475000X0.337500X-0.475000X0.337500X0.475000X-0.337500X0.475000X0*%
%TA.AperFunction,Profile*%
%ADD29C,0.100000*%
%TD*%
G04 APERTURE END LIST*
D10*
%TO.C,R24*%
X143100000Y-70080000D03*
X141400000Y-70080000D03*
%TD*%
D11*
%TO.C,TP29*%
X124375000Y-77000000D03*
%TD*%
D10*
%TO.C,R23*%
X143100000Y-71680000D03*
X141400000Y-71680000D03*
%TD*%
D11*
%TO.C,TP13*%
X145250000Y-56000000D03*
%TD*%
%TO.C,TP19*%
X145500000Y-70100000D03*
%TD*%
%TO.C,TP33*%
X109750000Y-99250000D03*
%TD*%
D12*
%TO.C,C25*%
X153000000Y-65325000D03*
X153000000Y-63250000D03*
%TD*%
D13*
%TO.C,C16*%
X128075000Y-62000000D03*
X126000000Y-62000000D03*
%TD*%
D11*
%TO.C,TP8*%
X153250000Y-71750000D03*
%TD*%
D14*
%TO.C,C2*%
X146547500Y-85750000D03*
X149522500Y-85750000D03*
%TD*%
D10*
%TO.C,R26*%
X143100000Y-66880000D03*
X141400000Y-66880000D03*
%TD*%
D11*
%TO.C,TP10*%
X153250000Y-79750000D03*
%TD*%
D15*
%TO.C,D4*%
X149050000Y-39000000D03*
X145550000Y-39000000D03*
D16*
X147300000Y-39650000D03*
%TD*%
D11*
%TO.C,TP9*%
X153500000Y-78250000D03*
%TD*%
D17*
%TO.C,C15*%
X115075000Y-64000000D03*
X117075000Y-64000000D03*
%TD*%
D15*
%TO.C,D3*%
X155800000Y-39000000D03*
X152300000Y-39000000D03*
D16*
X154050000Y-39650000D03*
%TD*%
D18*
%TO.C,C7*%
X163000000Y-93475000D03*
X163000000Y-90500000D03*
%TD*%
D10*
%TO.C,R30*%
X143250000Y-56080000D03*
X141550000Y-56080000D03*
%TD*%
D17*
%TO.C,C31*%
X142500000Y-65000000D03*
X144500000Y-65000000D03*
%TD*%
D13*
%TO.C,C34*%
X143750000Y-74000000D03*
X141675000Y-74000000D03*
%TD*%
D11*
%TO.C,TP35*%
X122000000Y-49500000D03*
%TD*%
D19*
%TO.C,C28*%
X152052500Y-73787500D03*
X152052500Y-75787500D03*
%TD*%
D12*
%TO.C,C27*%
X150022500Y-75825000D03*
X150022500Y-73750000D03*
%TD*%
D11*
%TO.C,TP38*%
X119000000Y-68000000D03*
%TD*%
D13*
%TO.C,C22*%
X118000000Y-51950000D03*
X115925000Y-51950000D03*
%TD*%
D11*
%TO.C,TP26*%
X124350000Y-87000000D03*
%TD*%
%TO.C,TP31*%
X121375000Y-77000000D03*
%TD*%
D20*
%TO.C,D1*%
X93500000Y-59500000D03*
X93500000Y-63800000D03*
%TD*%
D10*
%TO.C,R29*%
X143250000Y-57680000D03*
X141550000Y-57680000D03*
%TD*%
D11*
%TO.C,TP12*%
X153500000Y-82500000D03*
%TD*%
D21*
%TO.C,R7*%
X120115000Y-88250000D03*
X121990000Y-88250000D03*
%TD*%
D10*
%TO.C,R19*%
X143000000Y-82880000D03*
X141300000Y-82880000D03*
%TD*%
D22*
%TO.C,D5*%
X94700000Y-55000000D03*
X99000000Y-55000000D03*
%TD*%
D23*
%TO.C,C10*%
X130500000Y-57025000D03*
X130500000Y-60000000D03*
%TD*%
D10*
%TO.C,R28*%
X143100000Y-59280000D03*
X141400000Y-59280000D03*
%TD*%
D17*
%TO.C,C18*%
X116000000Y-54000000D03*
X118000000Y-54000000D03*
%TD*%
D11*
%TO.C,TP17*%
X145500000Y-67250000D03*
%TD*%
D17*
%TO.C,C30*%
X142250000Y-54000000D03*
X144250000Y-54000000D03*
%TD*%
D10*
%TO.C,R20*%
X143000000Y-81280000D03*
X141300000Y-81280000D03*
%TD*%
D11*
%TO.C,TP25*%
X156750000Y-84750000D03*
%TD*%
%TO.C,TP15*%
X145000000Y-59250000D03*
%TD*%
%TO.C,TP2*%
X153500000Y-57500000D03*
%TD*%
D24*
%TO.C,U2*%
X117600000Y-79050000D03*
X118870000Y-79050000D03*
X120140000Y-79050000D03*
X121410000Y-79050000D03*
X122680000Y-79050000D03*
X123950000Y-79050000D03*
X125220000Y-79050000D03*
X126490000Y-79050000D03*
X126490000Y-84000000D03*
X125220000Y-84000000D03*
X123950000Y-84000000D03*
X122680000Y-84000000D03*
X121410000Y-84000000D03*
X120140000Y-84000000D03*
X118870000Y-84000000D03*
X117600000Y-84000000D03*
%TD*%
D11*
%TO.C,TP7*%
X154250000Y-70000000D03*
%TD*%
%TO.C,TP6*%
X153250000Y-68750000D03*
%TD*%
%TO.C,TP3*%
X153500000Y-59000000D03*
%TD*%
D13*
%TO.C,C32*%
X144575000Y-63000000D03*
X142500000Y-63000000D03*
%TD*%
D10*
%TO.C,R21*%
X143000000Y-79680000D03*
X141300000Y-79680000D03*
%TD*%
D25*
%TO.C,C23*%
X150522500Y-55250000D03*
X150522500Y-53250000D03*
%TD*%
D11*
%TO.C,TP27*%
X122850000Y-86000000D03*
%TD*%
%TO.C,TP4*%
X153500000Y-60500000D03*
%TD*%
D20*
%TO.C,D2*%
X99500000Y-59500000D03*
X99500000Y-63800000D03*
%TD*%
D11*
%TO.C,TP1*%
X155600000Y-56800000D03*
%TD*%
%TO.C,TP24*%
X145750000Y-82750000D03*
%TD*%
%TO.C,TP11*%
X153750000Y-81000000D03*
%TD*%
D26*
%TO.C,C20*%
X128000000Y-64000000D03*
X126000000Y-64000000D03*
%TD*%
D11*
%TO.C,TP23*%
X145750000Y-81250000D03*
%TD*%
%TO.C,TP32*%
X111250000Y-99750000D03*
%TD*%
D27*
%TO.C,C24*%
X152522500Y-53250000D03*
X152522500Y-55325000D03*
%TD*%
D11*
%TO.C,TP18*%
X145500000Y-68750000D03*
%TD*%
%TO.C,TP16*%
X145000000Y-60750000D03*
%TD*%
D19*
%TO.C,C26*%
X150500000Y-63250000D03*
X150500000Y-65250000D03*
%TD*%
D21*
%TO.C,R6*%
X120115000Y-90500000D03*
X121990000Y-90500000D03*
%TD*%
D25*
%TO.C,R9*%
X121075000Y-54500000D03*
X121075000Y-52500000D03*
%TD*%
D11*
%TO.C,TP28*%
X121350000Y-86000000D03*
%TD*%
%TO.C,TP20*%
X145500000Y-71500000D03*
%TD*%
D17*
%TO.C,C33*%
X141750000Y-76000000D03*
X143750000Y-76000000D03*
%TD*%
D21*
%TO.C,R8*%
X118875000Y-69250000D03*
X120750000Y-69250000D03*
%TD*%
D11*
%TO.C,TP36*%
X120500000Y-49500000D03*
%TD*%
%TO.C,TP37*%
X128000000Y-69000000D03*
%TD*%
%TO.C,TP14*%
X145500000Y-57750000D03*
%TD*%
D10*
%TO.C,R25*%
X143100000Y-68500000D03*
X141400000Y-68500000D03*
%TD*%
D11*
%TO.C,TP21*%
X145750000Y-78250000D03*
%TD*%
%TO.C,TP34*%
X123500000Y-49500000D03*
%TD*%
D10*
%TO.C,R22*%
X143000000Y-78080000D03*
X141300000Y-78080000D03*
%TD*%
D13*
%TO.C,C29*%
X144325000Y-52000000D03*
X142250000Y-52000000D03*
%TD*%
D11*
%TO.C,TP22*%
X145750000Y-79750000D03*
%TD*%
D28*
%TO.C,C19*%
X115000000Y-62000000D03*
X117075000Y-62000000D03*
%TD*%
D11*
%TO.C,TP5*%
X154000000Y-67500000D03*
%TD*%
%TO.C,TP30*%
X122875000Y-77000000D03*
%TD*%
D21*
%TO.C,R3*%
X122677500Y-92500000D03*
X124552500Y-92500000D03*
%TD*%
D10*
%TO.C,R27*%
X143250000Y-60880000D03*
X141550000Y-60880000D03*
%TD*%
D29*
X175000000Y-100000000D02*
X175000000Y-36000000D01*
X119500000Y-100000000D02*
X119500000Y-109500000D01*
X90000000Y-100000000D02*
X90000000Y-36000000D01*
X175000000Y-36000000D02*
X90000000Y-36000000D01*
X97500000Y-100000000D02*
X90000000Y-100000000D01*
X100000000Y-109500000D02*
X115000000Y-109500000D01*
X115000000Y-100000000D02*
X119500000Y-100000000D01*
X159400000Y-109500000D02*
X174500000Y-109500000D01*
X97500000Y-100000000D02*
X100000000Y-100000000D01*
X174500000Y-100000000D02*
X175000000Y-100000000D01*
X139600000Y-109500000D02*
X139600000Y-100000000D01*
X159400000Y-100000000D02*
X159400000Y-109500000D01*
X139600000Y-100000000D02*
X159400000Y-100000000D01*
X115000000Y-109500000D02*
X115000000Y-100000000D01*
X174500000Y-109500000D02*
X174500000Y-100000000D01*
X100000000Y-100000000D02*
X100000000Y-109500000D01*
X119500000Y-109500000D02*
X139600000Y-109500000D01*
M02*
