M48
; DRILL file {KiCad 7.0.9} date Wed Jun 26 15:19:22 2024
; FORMAT={-:-/ absolute / metric / decimal}
; #@! TF.CreationDate,2024-06-26T15:19:22+03:00
; #@! TF.GenerationSoftware,Kicad,Pcbnew,7.0.9
; #@! TF.FileFunction,Plated,1,2,PTH
FMAT,2
METRIC
; #@! TA.AperFunction,Plated,PTH,ViaDrill
T1C0.500
; #@! TA.AperFunction,Plated,PTH,ComponentDrill
T2C0.700
; #@! TA.AperFunction,Plated,PTH,ComponentDrill
T3C0.800
; #@! TA.AperFunction,Plated,PTH,ComponentDrill
T4C1.000
%
G90
G05
T1
X92.25Y-68.25
X93.0Y-55.0
X95.0Y-68.25
X98.25Y-68.25
X100.25Y-68.25
X100.5Y-55.0
X100.5Y-70.25
X100.5Y-73.5
X100.5Y-76.25
X100.5Y-80.5
X100.5Y-85.0
X100.5Y-89.0
X100.5Y-92.25
X100.5Y-95.25
X101.75Y-98.75
X102.5Y-99.75
X102.5Y-101.5
X103.25Y-68.0
X103.25Y-72.0
X103.25Y-76.25
X103.25Y-80.5
X103.25Y-85.0
X103.25Y-89.0
X103.25Y-91.75
X103.5Y-95.25
X103.5Y-98.75
X105.0Y-92.5
X105.0Y-101.5
X105.5Y-100.25
X106.5Y-99.75
X106.75Y-95.25
X107.52Y-101.25
X109.0Y-92.5
X109.75Y-95.25
X110.25Y-101.5
X111.5Y-72.5
X111.5Y-77.0
X111.5Y-80.5
X111.5Y-84.0
X111.5Y-87.5
X111.5Y-91.0
X111.6Y-44.4
X112.5Y-101.5
X113.0Y-94.25
X113.5Y-49.0
X113.5Y-69.5
X113.5Y-72.5
X113.5Y-97.25
X113.75Y-100.75
X114.25Y-77.5
X114.25Y-81.0
X114.25Y-84.0
X114.25Y-87.5
X114.25Y-91.0
X114.4Y-63.0
X114.5Y-51.0
X114.5Y-53.0
X114.5Y-55.25
X114.5Y-66.5
X115.0Y-95.75
X115.25Y-75.0
X116.0Y-50.0
X116.25Y-99.0
X116.5Y-69.5
X116.5Y-86.25
X116.75Y-88.75
X116.75Y-91.5
X116.75Y-94.0
X117.0Y-65.0
X117.0Y-83.0
X117.5Y-72.75
X117.625Y-77.25
X117.75Y-66.75
X117.75Y-96.3
X117.75Y-99.0
X118.0Y-69.55
X118.25Y-38.0
X118.25Y-90.0
X118.25Y-92.5
X118.3Y-55.1
X118.75Y-86.25
X118.75Y-87.5
X118.75Y-95.704
X119.0Y-49.5
X119.2Y-77.5
X119.5Y-65.0
X119.5Y-75.75
X120.0Y-72.5
X120.25Y-44.5
X120.5Y-99.0
X120.75Y-85.75
X121.0Y-50.5
X121.0Y-94.0
X121.0Y-95.0
X121.5Y-55.0
X122.0Y-46.25
X122.0Y-75.0
X122.25Y-64.75
X122.25Y-97.25
X122.5Y-51.0
X122.5Y-72.0
X122.75Y-93.75
X122.85Y-87.75
X123.093Y-90.708
X123.75Y-95.25
X123.75Y-99.0
X124.0Y-50.5
X124.75Y-52.25
X124.75Y-93.75
X125.25Y-96.5
X125.294Y-77.95
X125.5Y-51.25
X125.5Y-74.25
X125.5Y-87.25
X125.625Y-100.125
X125.75Y-45.75
X126.0Y-65.25
X126.02Y-85.951
X126.5Y-37.0
X126.5Y-95.0
X127.75Y-86.75
X128.0Y-83.75
X128.171Y-99.921
X128.25Y-71.5
X128.25Y-76.25
X128.5Y-66.0
X128.6Y-53.4
X128.6Y-56.6
X129.6Y-55.0
X129.75Y-37.0
X129.75Y-80.75
X129.75Y-83.75
X129.75Y-86.75
X129.75Y-90.0
X129.75Y-92.0
X130.0Y-62.5
X130.0Y-64.5
X130.25Y-46.0
X130.5Y-69.25
X130.51Y-99.04
X130.75Y-45.0
X130.75Y-78.25
X131.0Y-73.5
X131.25Y-49.5
X131.5Y-46.0
X131.5Y-62.5
X131.75Y-45.0
X132.0Y-51.0
X132.5Y-49.5
X132.5Y-76.25
X132.75Y-46.0
X133.0Y-55.4
X133.0Y-57.2
X133.0Y-66.5
X133.25Y-71.0
X133.25Y-99.75
X134.0Y-40.25
X134.0Y-41.25
X134.0Y-42.25
X134.0Y-43.25
X134.0Y-59.0
X134.0Y-61.5
X134.0Y-64.5
X134.25Y-74.5
X135.0Y-40.25
X135.0Y-41.25
X135.0Y-42.25
X135.0Y-43.25
X136.0Y-39.75
X136.0Y-40.75
X136.0Y-41.75
X136.0Y-42.75
X136.0Y-43.75
X136.0Y-72.75
X136.0Y-83.0
X136.0Y-85.25
X136.0Y-87.0
X136.0Y-90.5
X136.0Y-92.5
X136.0Y-99.5
X136.5Y-68.0
X136.8Y-52.8
X137.0Y-40.25
X137.0Y-41.25
X137.0Y-42.25
X137.0Y-43.25
X137.0Y-54.75
X137.0Y-57.75
X137.0Y-61.0
X137.0Y-64.75
X137.25Y-80.75
X137.25Y-101.25
X137.5Y-90.5
X137.5Y-92.0
X137.75Y-88.25
X138.0Y-40.25
X138.0Y-41.25
X138.0Y-42.25
X138.0Y-43.25
X138.25Y-70.5
X138.25Y-99.0
X139.25Y-68.25
X139.25Y-78.5
X139.5Y-62.0
X139.5Y-64.5
X139.75Y-46.0
X139.75Y-56.25
X139.75Y-58.5
X139.75Y-97.75
X140.75Y-46.0
X140.75Y-52.0
X140.75Y-54.0
X140.75Y-96.25
X141.0Y-99.0
X141.75Y-46.0
X141.75Y-87.25
X142.75Y-86.0
X143.0Y-64.0
X143.25Y-37.25
X143.5Y-87.25
X143.7Y-59.3
X143.996Y-82.747
X144.0Y-78.4
X144.022Y-60.824
X144.2Y-56.3
X144.222Y-81.071
X144.242Y-70.067
X144.25Y-53.0
X144.25Y-67.25
X144.25Y-86.0
X144.252Y-71.466
X144.32Y-57.832
X144.33Y-68.67
X144.5Y-37.0
X144.5Y-39.0
X144.5Y-75.25
X144.513Y-79.702
X145.0Y-43.75
X145.0Y-87.25
X145.5Y-64.25
X146.75Y-41.25
X146.75Y-42.5
X149.25Y-50.75
X150.0Y-38.5
X150.25Y-41.5
X150.75Y-50.75
X151.0Y-40.0
X151.5Y-52.75
X151.75Y-86.5
X151.75Y-89.5
X151.828Y-57.666
X151.951Y-82.495
X152.0Y-43.75
X152.0Y-50.75
X152.0Y-60.5
X152.0Y-63.25
X152.0Y-64.75
X152.0Y-71.25
X152.226Y-81.122
X152.25Y-59.0
X152.25Y-67.5
X152.25Y-68.9
X152.25Y-78.25
X152.5Y-79.75
X153.0Y-98.5
X153.023Y-70.066
X153.245Y-76.0
X153.5Y-86.5
X153.5Y-89.5
X153.75Y-41.5
X153.75Y-43.25
X153.75Y-74.25
X154.0Y-97.0
X154.5Y-53.0
X154.5Y-54.75
X154.5Y-56.5
X154.75Y-77.0
X155.0Y-64.75
X155.0Y-66.25
X155.0Y-83.0
X155.25Y-74.25
X155.5Y-77.5
X155.5Y-98.5
X156.25Y-81.75
X156.25Y-83.25
X157.0Y-39.0
X157.25Y-46.25
X158.0Y-54.25
X158.0Y-55.5
X158.0Y-56.75
X158.0Y-90.0
X158.5Y-41.25
X158.5Y-43.0
X158.5Y-61.25
X158.5Y-63.5
X158.5Y-65.75
X158.75Y-38.5
X158.75Y-47.5
X158.75Y-71.25
X158.75Y-73.25
X158.75Y-75.25
X158.75Y-77.5
X159.25Y-55.5
X159.25Y-56.75
X159.5Y-81.5
X159.5Y-83.25
X159.5Y-85.0
X159.75Y-61.25
X159.75Y-90.0
X160.0Y-63.5
X160.0Y-65.75
X160.25Y-48.5
X160.5Y-71.25
X160.5Y-73.25
X160.5Y-75.25
X160.5Y-77.5
X160.5Y-95.25
X160.5Y-98.0
X160.742Y-56.5
X161.0Y-62.25
X161.0Y-81.5
X161.0Y-83.25
X161.0Y-85.0
X161.0Y-100.0
X161.198Y-58.05
X161.25Y-50.0
X161.75Y-101.25
X161.98Y-59.451
X162.0Y-48.5
X162.25Y-51.5
X162.5Y-60.75
X162.5Y-73.75
X162.5Y-75.5
X162.75Y-64.0
X162.75Y-65.75
X162.75Y-71.75
X163.0Y-50.0
X163.0Y-70.25
X163.0Y-77.25
X163.0Y-78.75
X163.0Y-80.25
X163.0Y-81.75
X163.0Y-83.5
X163.0Y-85.0
X163.0Y-87.25
X163.0Y-100.0
X163.75Y-48.5
X163.75Y-51.5
X163.75Y-53.0
X164.0Y-56.5
X164.5Y-101.25
X165.0Y-54.5
X165.0Y-89.75
X166.75Y-101.5
X169.5Y-101.25
X170.0Y-99.0
X172.0Y-99.0
X172.0Y-101.25
X173.5Y-97.5
T2
X155.632Y-87.892
X155.632Y-90.432
X155.632Y-92.972
X155.632Y-95.512
T3
X170.0Y-94.0
X170.0Y-96.5
T4
X96.376Y-44.222
X96.376Y-49.302
X98.916Y-44.222
X98.916Y-49.302
X106.48Y-44.01
X106.48Y-46.55
X106.48Y-49.09
X106.48Y-51.63
X106.48Y-54.17
X106.48Y-56.71
X106.48Y-59.25
X106.48Y-61.79
X106.48Y-64.33
X106.48Y-66.87
X106.48Y-69.41
X106.48Y-71.95
X106.48Y-74.49
X106.48Y-77.03
X106.48Y-79.57
X106.48Y-82.11
X106.48Y-84.65
X106.48Y-87.19
X106.48Y-89.73
X109.02Y-44.01
X109.02Y-46.55
X109.02Y-49.09
X109.02Y-51.63
X109.02Y-54.17
X109.02Y-56.71
X109.02Y-59.25
X109.02Y-61.79
X109.02Y-64.33
X109.02Y-66.87
X109.02Y-69.41
X109.02Y-71.95
X109.02Y-74.49
X109.02Y-77.03
X109.02Y-79.57
X109.02Y-82.11
X109.02Y-84.65
X109.02Y-87.19
X109.02Y-89.73
X121.42Y-39.66
X121.42Y-42.2
X123.46Y-69.0
X123.96Y-39.66
X123.96Y-42.2
X126.0Y-69.0
X126.5Y-39.66
X126.5Y-42.2
X167.46Y-44.0
X167.46Y-46.54
X167.46Y-49.08
X167.46Y-51.62
X167.46Y-54.16
X167.46Y-56.7
X167.46Y-59.24
X167.46Y-61.78
X167.46Y-64.32
X167.46Y-66.86
X167.46Y-69.4
X167.46Y-71.94
X167.46Y-74.48
X167.46Y-77.02
X167.46Y-79.56
X167.46Y-82.1
X167.46Y-84.64
X167.46Y-87.18
X167.46Y-89.72
X170.0Y-44.0
X170.0Y-46.54
X170.0Y-49.08
X170.0Y-51.62
X170.0Y-54.16
X170.0Y-56.7
X170.0Y-59.24
X170.0Y-61.78
X170.0Y-64.32
X170.0Y-66.86
X170.0Y-69.4
X170.0Y-71.94
X170.0Y-74.48
X170.0Y-77.02
X170.0Y-79.56
X170.0Y-82.1
X170.0Y-84.64
X170.0Y-87.18
X170.0Y-89.72
X173.0Y-44.0
X173.0Y-46.54
X173.0Y-49.08
X173.0Y-77.0
X173.0Y-79.54
T0
M30
