%TF.GenerationSoftware,KiCad,Pcbnew,7.0.9*%
%TF.CreationDate,2024-06-26T15:19:18+03:00*%
%TF.ProjectId,_____ _________ ___________,1f3b3042-3020-43e4-913d-3e323d3e333e,rev?*%
%TF.SameCoordinates,Original*%
%TF.FileFunction,Soldermask,Top*%
%TF.FilePolarity,Negative*%
%FSLAX46Y46*%
G04 Gerber Fmt 4.6, Leading zero omitted, Abs format (unit mm)*
G04 Created by KiCad (PCBNEW 7.0.9) date 2024-06-26 15:19:18*
%MOMM*%
%LPD*%
G01*
G04 APERTURE LIST*
G04 Aperture macros list*
%AMRoundRect*
0 Rectangle with rounded corners*
0 $1 Rounding radius*
0 $2 $3 $4 $5 $6 $7 $8 $9 X,Y pos of 4 corners*
0 Add a 4 corners polygon primitive as box body*
4,1,4,$2,$3,$4,$5,$6,$7,$8,$9,$2,$3,0*
0 Add four circle primitives for the rounded corners*
1,1,$1+$1,$2,$3*
1,1,$1+$1,$4,$5*
1,1,$1+$1,$6,$7*
1,1,$1+$1,$8,$9*
0 Add four rect primitives between the rounded corners*
20,1,$1+$1,$2,$3,$4,$5,0*
20,1,$1+$1,$4,$5,$6,$7,0*
20,1,$1+$1,$6,$7,$8,$9,0*
20,1,$1+$1,$8,$9,$2,$3,0*%
G04 Aperture macros list end*
%ADD10RoundRect,0.243750X0.456250X-0.243750X0.456250X0.243750X-0.456250X0.243750X-0.456250X-0.243750X0*%
%ADD11C,3.200000*%
%ADD12R,1.524000X7.000000*%
%ADD13RoundRect,0.250000X0.337500X0.475000X-0.337500X0.475000X-0.337500X-0.475000X0.337500X-0.475000X0*%
%ADD14RoundRect,0.243750X-0.243750X-0.456250X0.243750X-0.456250X0.243750X0.456250X-0.243750X0.456250X0*%
%ADD15RoundRect,0.150000X0.150000X-0.587500X0.150000X0.587500X-0.150000X0.587500X-0.150000X-0.587500X0*%
%ADD16RoundRect,0.250000X-0.475000X0.337500X-0.475000X-0.337500X0.475000X-0.337500X0.475000X0.337500X0*%
%ADD17RoundRect,0.243750X0.243750X0.456250X-0.243750X0.456250X-0.243750X-0.456250X0.243750X-0.456250X0*%
%ADD18RoundRect,0.250000X0.550000X2.600000X-0.550000X2.600000X-0.550000X-2.600000X0.550000X-2.600000X0*%
%ADD19RoundRect,0.225000X0.225000X-0.925000X0.225000X0.925000X-0.225000X0.925000X-0.225000X-0.925000X0*%
%ADD20RoundRect,0.225000X0.225000X-1.125000X0.225000X1.125000X-0.225000X1.125000X-0.225000X-1.125000X0*%
%ADD21RoundRect,0.250000X0.616500X-1.812500X0.616500X1.812500X-0.616500X1.812500X-0.616500X-1.812500X0*%
%ADD22RoundRect,0.250000X-0.350000X-0.450000X0.350000X-0.450000X0.350000X0.450000X-0.350000X0.450000X0*%
%ADD23R,1.700000X1.700000*%
%ADD24O,1.700000X1.700000*%
%ADD25RoundRect,0.243750X-0.456250X0.243750X-0.456250X-0.243750X0.456250X-0.243750X0.456250X0.243750X0*%
%ADD26RoundRect,0.150000X-0.825000X-0.150000X0.825000X-0.150000X0.825000X0.150000X-0.825000X0.150000X0*%
%ADD27RoundRect,0.250001X-0.462499X-1.074999X0.462499X-1.074999X0.462499X1.074999X-0.462499X1.074999X0*%
%ADD28R,3.000000X1.800000*%
%ADD29RoundRect,0.150000X-0.150000X0.875000X-0.150000X-0.875000X0.150000X-0.875000X0.150000X0.875000X0*%
%ADD30RoundRect,0.250000X-0.625000X0.375000X-0.625000X-0.375000X0.625000X-0.375000X0.625000X0.375000X0*%
%ADD31RoundRect,0.250000X0.625000X-0.375000X0.625000X0.375000X-0.625000X0.375000X-0.625000X-0.375000X0*%
%ADD32C,1.700000*%
%ADD33RoundRect,0.150000X-0.150000X0.825000X-0.150000X-0.825000X0.150000X-0.825000X0.150000X0.825000X0*%
%ADD34RoundRect,0.250000X-0.450000X0.350000X-0.450000X-0.350000X0.450000X-0.350000X0.450000X0.350000X0*%
%ADD35RoundRect,0.250000X1.325000X-0.730000X1.325000X0.730000X-1.325000X0.730000X-1.325000X-0.730000X0*%
%ADD36R,2.000000X1.500000*%
%ADD37O,2.000000X1.500000*%
%ADD38R,1.600000X1.600000*%
%ADD39C,1.600000*%
%TA.AperFunction,Profile*%
%ADD40C,0.100000*%
%TD*%
G04 APERTURE END LIST*
D10*
%TO.C,R2*%
X125450000Y-85050000D03*
X125450000Y-83175000D03*
%TD*%
D11*
%TO.C,H5*%
X162400000Y-41500000D03*
%TD*%
D12*
%TO.C,RS1*%
X102440000Y-105500000D03*
X104980000Y-105500000D03*
X107520000Y-105500000D03*
X110060000Y-105500000D03*
X112600000Y-105500000D03*
X112600000Y-105500000D03*
X110060000Y-105500000D03*
X107520000Y-105500000D03*
X104980000Y-105500000D03*
X102440000Y-105500000D03*
%TD*%
D11*
%TO.C,H3*%
X147200000Y-92300000D03*
%TD*%
D13*
%TO.C,C9*%
X119450000Y-78675000D03*
X117375000Y-78675000D03*
%TD*%
D14*
%TO.C,R5*%
X123450000Y-79175000D03*
X125325000Y-79175000D03*
%TD*%
D15*
%TO.C,Q1*%
X155050000Y-42937500D03*
X156950000Y-42937500D03*
X156000000Y-41062500D03*
%TD*%
D10*
%TO.C,R1*%
X123450000Y-85050000D03*
X123450000Y-83175000D03*
%TD*%
D16*
%TO.C,C11*%
X141800000Y-44000000D03*
X141800000Y-46075000D03*
%TD*%
D17*
%TO.C,R31*%
X109875000Y-100250000D03*
X108000000Y-100250000D03*
%TD*%
%TO.C,R16*%
X154897500Y-84750000D03*
X153022500Y-84750000D03*
%TD*%
D13*
%TO.C,C12*%
X135825000Y-48000000D03*
X133750000Y-48000000D03*
%TD*%
D18*
%TO.C,L2*%
X162950000Y-96000000D03*
X158250000Y-96000000D03*
%TD*%
D19*
%TO.C,IC1*%
X134500000Y-45380000D03*
D20*
X136000000Y-45180000D03*
D21*
X136000000Y-42000000D03*
D19*
X137500000Y-45380000D03*
%TD*%
D22*
%TO.C,R11*%
X118000000Y-51000000D03*
X120000000Y-51000000D03*
%TD*%
D23*
%TO.C,CN9*%
X170000000Y-44000000D03*
D24*
X167460000Y-44000000D03*
X170000000Y-46540000D03*
X167460000Y-46540000D03*
X170000000Y-49080000D03*
X167460000Y-49080000D03*
X170000000Y-51620000D03*
X167460000Y-51620000D03*
X170000000Y-54160000D03*
X167460000Y-54160000D03*
X170000000Y-56700000D03*
X167460000Y-56700000D03*
X170000000Y-59240000D03*
X167460000Y-59240000D03*
X170000000Y-61780000D03*
X167460000Y-61780000D03*
X170000000Y-64320000D03*
X167460000Y-64320000D03*
X170000000Y-66860000D03*
X167460000Y-66860000D03*
X170000000Y-69400000D03*
X167460000Y-69400000D03*
X170000000Y-71940000D03*
X167460000Y-71940000D03*
X170000000Y-74480000D03*
X167460000Y-74480000D03*
X170000000Y-77020000D03*
X167460000Y-77020000D03*
X170000000Y-79560000D03*
X167460000Y-79560000D03*
X170000000Y-82100000D03*
X167460000Y-82100000D03*
X170000000Y-84640000D03*
X167460000Y-84640000D03*
X170000000Y-87180000D03*
X167460000Y-87180000D03*
X170000000Y-89720000D03*
X167460000Y-89720000D03*
%TD*%
D25*
%TO.C,R12*%
X152000000Y-41125000D03*
X152000000Y-43000000D03*
%TD*%
D11*
%TO.C,H4*%
X114100000Y-40200000D03*
%TD*%
D17*
%TO.C,R15*%
X155250000Y-72500000D03*
X153375000Y-72500000D03*
%TD*%
D16*
%TO.C,C4*%
X172000000Y-93925000D03*
X172000000Y-96000000D03*
%TD*%
D15*
%TO.C,Q2*%
X148100000Y-42875000D03*
X150000000Y-42875000D03*
X149050000Y-41000000D03*
%TD*%
D16*
%TO.C,C6*%
X153250000Y-93462500D03*
X153250000Y-95537500D03*
%TD*%
D26*
%TO.C,U7*%
X145572500Y-64860000D03*
X145572500Y-66130000D03*
X145572500Y-67400000D03*
X145572500Y-68670000D03*
X145572500Y-69940000D03*
X145572500Y-71210000D03*
X145572500Y-72480000D03*
X145572500Y-73750000D03*
X150522500Y-73750000D03*
X150522500Y-72480000D03*
X150522500Y-71210000D03*
X150522500Y-69940000D03*
X150522500Y-68670000D03*
X150522500Y-67400000D03*
X150522500Y-66130000D03*
X150522500Y-64860000D03*
%TD*%
D13*
%TO.C,C8*%
X119750000Y-84000000D03*
X117675000Y-84000000D03*
%TD*%
D26*
%TO.C,U8*%
X145572500Y-75860000D03*
X145572500Y-77130000D03*
X145572500Y-78400000D03*
X145572500Y-79670000D03*
X145572500Y-80940000D03*
X145572500Y-82210000D03*
X145572500Y-83480000D03*
X145572500Y-84750000D03*
X150522500Y-84750000D03*
X150522500Y-83480000D03*
X150522500Y-82210000D03*
X150522500Y-80940000D03*
X150522500Y-79670000D03*
X150522500Y-78400000D03*
X150522500Y-77130000D03*
X150522500Y-75860000D03*
%TD*%
D10*
%TO.C,R13*%
X145000000Y-42875000D03*
X145000000Y-41000000D03*
%TD*%
D11*
%TO.C,H1*%
X94000000Y-94000000D03*
%TD*%
D27*
%TO.C,C3*%
X157775000Y-87500000D03*
X160750000Y-87500000D03*
%TD*%
D10*
%TO.C,R14*%
X153500000Y-63875000D03*
X153500000Y-62000000D03*
%TD*%
D14*
%TO.C,R10*%
X119200000Y-66500000D03*
X121075000Y-66500000D03*
%TD*%
D28*
%TO.C,L1*%
X100500000Y-63540000D03*
X100500000Y-61000000D03*
X93000000Y-61000000D03*
X93000000Y-63540000D03*
%TD*%
D29*
%TO.C,U6*%
X127290000Y-53850000D03*
X126020000Y-53850000D03*
X124750000Y-53850000D03*
X123480000Y-53850000D03*
X122210000Y-53850000D03*
X120940000Y-53850000D03*
X119670000Y-53850000D03*
X118400000Y-53850000D03*
X117130000Y-53850000D03*
X115860000Y-53850000D03*
X115860000Y-63150000D03*
X117130000Y-63150000D03*
X118400000Y-63150000D03*
X119670000Y-63150000D03*
X120940000Y-63150000D03*
X122210000Y-63150000D03*
X123480000Y-63150000D03*
X124750000Y-63150000D03*
X126020000Y-63150000D03*
X127290000Y-63150000D03*
%TD*%
D11*
%TO.C,H2*%
X94000000Y-74000000D03*
%TD*%
D16*
%TO.C,C17*%
X129250000Y-49675000D03*
X129250000Y-51750000D03*
%TD*%
D30*
%TO.C,R18*%
X95500000Y-53700000D03*
X95500000Y-56500000D03*
%TD*%
D31*
%TO.C,R17*%
X98500000Y-56500000D03*
X98500000Y-53700000D03*
%TD*%
D23*
%TO.C,CN7*%
X109020000Y-44010000D03*
D24*
X106480000Y-44010000D03*
X109020000Y-46550000D03*
X106480000Y-46550000D03*
X109020000Y-49090000D03*
X106480000Y-49090000D03*
X109020000Y-51630000D03*
X106480000Y-51630000D03*
X109020000Y-54170000D03*
X106480000Y-54170000D03*
X109020000Y-56710000D03*
X106480000Y-56710000D03*
X109020000Y-59250000D03*
X106480000Y-59250000D03*
X109020000Y-61790000D03*
X106480000Y-61790000D03*
X109020000Y-64330000D03*
X106480000Y-64330000D03*
X109020000Y-66870000D03*
X106480000Y-66870000D03*
X109020000Y-69410000D03*
X106480000Y-69410000D03*
X109020000Y-71950000D03*
X106480000Y-71950000D03*
X109020000Y-74490000D03*
X106480000Y-74490000D03*
X109020000Y-77030000D03*
X106480000Y-77030000D03*
X109020000Y-79570000D03*
X106480000Y-79570000D03*
X109020000Y-82110000D03*
X106480000Y-82110000D03*
X109020000Y-84650000D03*
X106480000Y-84650000D03*
X109020000Y-87190000D03*
X106480000Y-87190000D03*
X109020000Y-89730000D03*
X106480000Y-89730000D03*
%TD*%
D16*
%TO.C,C13*%
X139750000Y-44000000D03*
X139750000Y-46075000D03*
%TD*%
D32*
%TO.C,J1*%
X98916000Y-44222000D03*
X98916000Y-49302000D03*
X96376000Y-44222000D03*
X96376000Y-49302000D03*
%TD*%
D33*
%TO.C,U1*%
X124655000Y-87050000D03*
X123385000Y-87050000D03*
X122115000Y-87050000D03*
X120845000Y-87050000D03*
X120845000Y-92000000D03*
X122115000Y-92000000D03*
X123385000Y-92000000D03*
X124655000Y-92000000D03*
%TD*%
D12*
%TO.C,RS2*%
X161840000Y-105500000D03*
X164380000Y-105500000D03*
X166920000Y-105500000D03*
X169460000Y-105500000D03*
X172000000Y-105500000D03*
X172000000Y-105500000D03*
X169460000Y-105500000D03*
X166920000Y-105500000D03*
X164380000Y-105500000D03*
X161840000Y-105500000D03*
%TD*%
D17*
%TO.C,R4*%
X126450000Y-66500000D03*
X124575000Y-66500000D03*
%TD*%
D13*
%TO.C,C5*%
X128400000Y-92200000D03*
X126325000Y-92200000D03*
%TD*%
D26*
%TO.C,U4*%
X145572500Y-53970000D03*
X145572500Y-55240000D03*
X145572500Y-56510000D03*
X145572500Y-57780000D03*
X145572500Y-59050000D03*
X145572500Y-60320000D03*
X145572500Y-61590000D03*
X145572500Y-62860000D03*
X150522500Y-62860000D03*
X150522500Y-61590000D03*
X150522500Y-60320000D03*
X150522500Y-59050000D03*
X150522500Y-57780000D03*
X150522500Y-56510000D03*
X150522500Y-55240000D03*
X150522500Y-53970000D03*
%TD*%
D34*
%TO.C,C21*%
X127200000Y-49600000D03*
X127200000Y-51600000D03*
%TD*%
D35*
%TO.C,F1*%
X167000000Y-98000000D03*
X167000000Y-93090000D03*
%TD*%
D12*
%TO.C,RS3*%
X122000000Y-105500000D03*
X124540000Y-105500000D03*
X127080000Y-105500000D03*
X129620000Y-105500000D03*
X132160000Y-105500000D03*
X134700000Y-105500000D03*
X137240000Y-105500000D03*
%TD*%
D13*
%TO.C,C1*%
X128400000Y-90150000D03*
X126325000Y-90150000D03*
%TD*%
D23*
%TO.C,J3*%
X173000000Y-44000000D03*
D24*
X173000000Y-46540000D03*
X173000000Y-49080000D03*
%TD*%
D36*
%TO.C,U5*%
X155632500Y-95512500D03*
D37*
X155632500Y-92972500D03*
X155632500Y-90432500D03*
X155632500Y-87892500D03*
%TD*%
D23*
%TO.C,J2*%
X121420000Y-39660000D03*
D24*
X121420000Y-42200000D03*
X123960000Y-39660000D03*
X123960000Y-42200000D03*
X126500000Y-39660000D03*
X126500000Y-42200000D03*
%TD*%
D23*
%TO.C,J5*%
X123460000Y-69000000D03*
D24*
X126000000Y-69000000D03*
%TD*%
D23*
%TO.C,J4*%
X173000000Y-77000000D03*
D24*
X173000000Y-79540000D03*
%TD*%
D38*
%TO.C,C14*%
X170000000Y-94000000D03*
D39*
X170000000Y-96500000D03*
%TD*%
D40*
X175000000Y-100000000D02*
X175000000Y-36000000D01*
X119500000Y-100000000D02*
X119500000Y-109500000D01*
X90000000Y-100000000D02*
X90000000Y-36000000D01*
X175000000Y-36000000D02*
X90000000Y-36000000D01*
X97500000Y-100000000D02*
X90000000Y-100000000D01*
X100000000Y-109500000D02*
X115000000Y-109500000D01*
X115000000Y-100000000D02*
X119500000Y-100000000D01*
X159400000Y-109500000D02*
X174500000Y-109500000D01*
X97500000Y-100000000D02*
X100000000Y-100000000D01*
X174500000Y-100000000D02*
X175000000Y-100000000D01*
X139600000Y-109500000D02*
X139600000Y-100000000D01*
X159400000Y-100000000D02*
X159400000Y-109500000D01*
X139600000Y-100000000D02*
X159400000Y-100000000D01*
X115000000Y-109500000D02*
X115000000Y-100000000D01*
X174500000Y-109500000D02*
X174500000Y-100000000D01*
X100000000Y-100000000D02*
X100000000Y-109500000D01*
X119500000Y-109500000D02*
X139600000Y-109500000D01*
M02*
