%TF.GenerationSoftware,KiCad,Pcbnew,7.0.9*%
%TF.CreationDate,2024-06-26T15:19:18+03:00*%
%TF.ProjectId,_____ _________ ___________,1f3b3042-3020-43e4-913d-3e323d3e333e,rev?*%
%TF.SameCoordinates,Original*%
%TF.FileFunction,Legend,Bot*%
%TF.FilePolarity,Positive*%
%FSLAX46Y46*%
G04 Gerber Fmt 4.6, Leading zero omitted, Abs format (unit mm)*
G04 Created by KiCad (PCBNEW 7.0.9) date 2024-06-26 15:19:18*
%MOMM*%
%LPD*%
G01*
G04 APERTURE LIST*
%ADD10C,0.150000*%
%ADD11C,0.100000*%
%ADD12C,0.120000*%
%TA.AperFunction,Profile*%
%ADD13C,0.100000*%
%TD*%
G04 APERTURE END LIST*
D10*
X140117857Y-70392902D02*
X140334524Y-70083378D01*
X140489286Y-70392902D02*
X140489286Y-69742902D01*
X140489286Y-69742902D02*
X140241667Y-69742902D01*
X140241667Y-69742902D02*
X140179762Y-69773854D01*
X140179762Y-69773854D02*
X140148809Y-69804807D01*
X140148809Y-69804807D02*
X140117857Y-69866711D01*
X140117857Y-69866711D02*
X140117857Y-69959569D01*
X140117857Y-69959569D02*
X140148809Y-70021473D01*
X140148809Y-70021473D02*
X140179762Y-70052426D01*
X140179762Y-70052426D02*
X140241667Y-70083378D01*
X140241667Y-70083378D02*
X140489286Y-70083378D01*
X139870238Y-69804807D02*
X139839286Y-69773854D01*
X139839286Y-69773854D02*
X139777381Y-69742902D01*
X139777381Y-69742902D02*
X139622619Y-69742902D01*
X139622619Y-69742902D02*
X139560714Y-69773854D01*
X139560714Y-69773854D02*
X139529762Y-69804807D01*
X139529762Y-69804807D02*
X139498809Y-69866711D01*
X139498809Y-69866711D02*
X139498809Y-69928616D01*
X139498809Y-69928616D02*
X139529762Y-70021473D01*
X139529762Y-70021473D02*
X139901190Y-70392902D01*
X139901190Y-70392902D02*
X139498809Y-70392902D01*
X138941666Y-69959569D02*
X138941666Y-70392902D01*
X139096428Y-69711950D02*
X139251190Y-70176235D01*
X139251190Y-70176235D02*
X138848809Y-70176235D01*
D11*
X128438094Y-76257419D02*
X127866666Y-76257419D01*
X128152380Y-77257419D02*
X128152380Y-76257419D01*
X127533332Y-77257419D02*
X127533332Y-76257419D01*
X127533332Y-76257419D02*
X127152380Y-76257419D01*
X127152380Y-76257419D02*
X127057142Y-76305038D01*
X127057142Y-76305038D02*
X127009523Y-76352657D01*
X127009523Y-76352657D02*
X126961904Y-76447895D01*
X126961904Y-76447895D02*
X126961904Y-76590752D01*
X126961904Y-76590752D02*
X127009523Y-76685990D01*
X127009523Y-76685990D02*
X127057142Y-76733609D01*
X127057142Y-76733609D02*
X127152380Y-76781228D01*
X127152380Y-76781228D02*
X127533332Y-76781228D01*
X126580951Y-76352657D02*
X126533332Y-76305038D01*
X126533332Y-76305038D02*
X126438094Y-76257419D01*
X126438094Y-76257419D02*
X126199999Y-76257419D01*
X126199999Y-76257419D02*
X126104761Y-76305038D01*
X126104761Y-76305038D02*
X126057142Y-76352657D01*
X126057142Y-76352657D02*
X126009523Y-76447895D01*
X126009523Y-76447895D02*
X126009523Y-76543133D01*
X126009523Y-76543133D02*
X126057142Y-76685990D01*
X126057142Y-76685990D02*
X126628570Y-77257419D01*
X126628570Y-77257419D02*
X126009523Y-77257419D01*
X125533332Y-77257419D02*
X125342856Y-77257419D01*
X125342856Y-77257419D02*
X125247618Y-77209800D01*
X125247618Y-77209800D02*
X125199999Y-77162180D01*
X125199999Y-77162180D02*
X125104761Y-77019323D01*
X125104761Y-77019323D02*
X125057142Y-76828847D01*
X125057142Y-76828847D02*
X125057142Y-76447895D01*
X125057142Y-76447895D02*
X125104761Y-76352657D01*
X125104761Y-76352657D02*
X125152380Y-76305038D01*
X125152380Y-76305038D02*
X125247618Y-76257419D01*
X125247618Y-76257419D02*
X125438094Y-76257419D01*
X125438094Y-76257419D02*
X125533332Y-76305038D01*
X125533332Y-76305038D02*
X125580951Y-76352657D01*
X125580951Y-76352657D02*
X125628570Y-76447895D01*
X125628570Y-76447895D02*
X125628570Y-76685990D01*
X125628570Y-76685990D02*
X125580951Y-76781228D01*
X125580951Y-76781228D02*
X125533332Y-76828847D01*
X125533332Y-76828847D02*
X125438094Y-76876466D01*
X125438094Y-76876466D02*
X125247618Y-76876466D01*
X125247618Y-76876466D02*
X125152380Y-76828847D01*
X125152380Y-76828847D02*
X125104761Y-76781228D01*
X125104761Y-76781228D02*
X125057142Y-76685990D01*
D10*
X140117857Y-71992902D02*
X140334524Y-71683378D01*
X140489286Y-71992902D02*
X140489286Y-71342902D01*
X140489286Y-71342902D02*
X140241667Y-71342902D01*
X140241667Y-71342902D02*
X140179762Y-71373854D01*
X140179762Y-71373854D02*
X140148809Y-71404807D01*
X140148809Y-71404807D02*
X140117857Y-71466711D01*
X140117857Y-71466711D02*
X140117857Y-71559569D01*
X140117857Y-71559569D02*
X140148809Y-71621473D01*
X140148809Y-71621473D02*
X140179762Y-71652426D01*
X140179762Y-71652426D02*
X140241667Y-71683378D01*
X140241667Y-71683378D02*
X140489286Y-71683378D01*
X139870238Y-71404807D02*
X139839286Y-71373854D01*
X139839286Y-71373854D02*
X139777381Y-71342902D01*
X139777381Y-71342902D02*
X139622619Y-71342902D01*
X139622619Y-71342902D02*
X139560714Y-71373854D01*
X139560714Y-71373854D02*
X139529762Y-71404807D01*
X139529762Y-71404807D02*
X139498809Y-71466711D01*
X139498809Y-71466711D02*
X139498809Y-71528616D01*
X139498809Y-71528616D02*
X139529762Y-71621473D01*
X139529762Y-71621473D02*
X139901190Y-71992902D01*
X139901190Y-71992902D02*
X139498809Y-71992902D01*
X139282142Y-71342902D02*
X138879761Y-71342902D01*
X138879761Y-71342902D02*
X139096428Y-71590521D01*
X139096428Y-71590521D02*
X139003571Y-71590521D01*
X139003571Y-71590521D02*
X138941666Y-71621473D01*
X138941666Y-71621473D02*
X138910714Y-71652426D01*
X138910714Y-71652426D02*
X138879761Y-71714330D01*
X138879761Y-71714330D02*
X138879761Y-71869092D01*
X138879761Y-71869092D02*
X138910714Y-71930997D01*
X138910714Y-71930997D02*
X138941666Y-71961950D01*
X138941666Y-71961950D02*
X139003571Y-71992902D01*
X139003571Y-71992902D02*
X139189285Y-71992902D01*
X139189285Y-71992902D02*
X139251190Y-71961950D01*
X139251190Y-71961950D02*
X139282142Y-71930997D01*
D11*
X149238094Y-55857419D02*
X148666666Y-55857419D01*
X148952380Y-56857419D02*
X148952380Y-55857419D01*
X148333332Y-56857419D02*
X148333332Y-55857419D01*
X148333332Y-55857419D02*
X147952380Y-55857419D01*
X147952380Y-55857419D02*
X147857142Y-55905038D01*
X147857142Y-55905038D02*
X147809523Y-55952657D01*
X147809523Y-55952657D02*
X147761904Y-56047895D01*
X147761904Y-56047895D02*
X147761904Y-56190752D01*
X147761904Y-56190752D02*
X147809523Y-56285990D01*
X147809523Y-56285990D02*
X147857142Y-56333609D01*
X147857142Y-56333609D02*
X147952380Y-56381228D01*
X147952380Y-56381228D02*
X148333332Y-56381228D01*
X146809523Y-56857419D02*
X147380951Y-56857419D01*
X147095237Y-56857419D02*
X147095237Y-55857419D01*
X147095237Y-55857419D02*
X147190475Y-56000276D01*
X147190475Y-56000276D02*
X147285713Y-56095514D01*
X147285713Y-56095514D02*
X147380951Y-56143133D01*
X146476189Y-55857419D02*
X145857142Y-55857419D01*
X145857142Y-55857419D02*
X146190475Y-56238371D01*
X146190475Y-56238371D02*
X146047618Y-56238371D01*
X146047618Y-56238371D02*
X145952380Y-56285990D01*
X145952380Y-56285990D02*
X145904761Y-56333609D01*
X145904761Y-56333609D02*
X145857142Y-56428847D01*
X145857142Y-56428847D02*
X145857142Y-56666942D01*
X145857142Y-56666942D02*
X145904761Y-56762180D01*
X145904761Y-56762180D02*
X145952380Y-56809800D01*
X145952380Y-56809800D02*
X146047618Y-56857419D01*
X146047618Y-56857419D02*
X146333332Y-56857419D01*
X146333332Y-56857419D02*
X146428570Y-56809800D01*
X146428570Y-56809800D02*
X146476189Y-56762180D01*
X149738094Y-69557419D02*
X149166666Y-69557419D01*
X149452380Y-70557419D02*
X149452380Y-69557419D01*
X148833332Y-70557419D02*
X148833332Y-69557419D01*
X148833332Y-69557419D02*
X148452380Y-69557419D01*
X148452380Y-69557419D02*
X148357142Y-69605038D01*
X148357142Y-69605038D02*
X148309523Y-69652657D01*
X148309523Y-69652657D02*
X148261904Y-69747895D01*
X148261904Y-69747895D02*
X148261904Y-69890752D01*
X148261904Y-69890752D02*
X148309523Y-69985990D01*
X148309523Y-69985990D02*
X148357142Y-70033609D01*
X148357142Y-70033609D02*
X148452380Y-70081228D01*
X148452380Y-70081228D02*
X148833332Y-70081228D01*
X147309523Y-70557419D02*
X147880951Y-70557419D01*
X147595237Y-70557419D02*
X147595237Y-69557419D01*
X147595237Y-69557419D02*
X147690475Y-69700276D01*
X147690475Y-69700276D02*
X147785713Y-69795514D01*
X147785713Y-69795514D02*
X147880951Y-69843133D01*
X146833332Y-70557419D02*
X146642856Y-70557419D01*
X146642856Y-70557419D02*
X146547618Y-70509800D01*
X146547618Y-70509800D02*
X146499999Y-70462180D01*
X146499999Y-70462180D02*
X146404761Y-70319323D01*
X146404761Y-70319323D02*
X146357142Y-70128847D01*
X146357142Y-70128847D02*
X146357142Y-69747895D01*
X146357142Y-69747895D02*
X146404761Y-69652657D01*
X146404761Y-69652657D02*
X146452380Y-69605038D01*
X146452380Y-69605038D02*
X146547618Y-69557419D01*
X146547618Y-69557419D02*
X146738094Y-69557419D01*
X146738094Y-69557419D02*
X146833332Y-69605038D01*
X146833332Y-69605038D02*
X146880951Y-69652657D01*
X146880951Y-69652657D02*
X146928570Y-69747895D01*
X146928570Y-69747895D02*
X146928570Y-69985990D01*
X146928570Y-69985990D02*
X146880951Y-70081228D01*
X146880951Y-70081228D02*
X146833332Y-70128847D01*
X146833332Y-70128847D02*
X146738094Y-70176466D01*
X146738094Y-70176466D02*
X146547618Y-70176466D01*
X146547618Y-70176466D02*
X146452380Y-70128847D01*
X146452380Y-70128847D02*
X146404761Y-70081228D01*
X146404761Y-70081228D02*
X146357142Y-69985990D01*
X111438094Y-97657419D02*
X110866666Y-97657419D01*
X111152380Y-98657419D02*
X111152380Y-97657419D01*
X110533332Y-98657419D02*
X110533332Y-97657419D01*
X110533332Y-97657419D02*
X110152380Y-97657419D01*
X110152380Y-97657419D02*
X110057142Y-97705038D01*
X110057142Y-97705038D02*
X110009523Y-97752657D01*
X110009523Y-97752657D02*
X109961904Y-97847895D01*
X109961904Y-97847895D02*
X109961904Y-97990752D01*
X109961904Y-97990752D02*
X110009523Y-98085990D01*
X110009523Y-98085990D02*
X110057142Y-98133609D01*
X110057142Y-98133609D02*
X110152380Y-98181228D01*
X110152380Y-98181228D02*
X110533332Y-98181228D01*
X109628570Y-97657419D02*
X109009523Y-97657419D01*
X109009523Y-97657419D02*
X109342856Y-98038371D01*
X109342856Y-98038371D02*
X109199999Y-98038371D01*
X109199999Y-98038371D02*
X109104761Y-98085990D01*
X109104761Y-98085990D02*
X109057142Y-98133609D01*
X109057142Y-98133609D02*
X109009523Y-98228847D01*
X109009523Y-98228847D02*
X109009523Y-98466942D01*
X109009523Y-98466942D02*
X109057142Y-98562180D01*
X109057142Y-98562180D02*
X109104761Y-98609800D01*
X109104761Y-98609800D02*
X109199999Y-98657419D01*
X109199999Y-98657419D02*
X109485713Y-98657419D01*
X109485713Y-98657419D02*
X109580951Y-98609800D01*
X109580951Y-98609800D02*
X109628570Y-98562180D01*
X108676189Y-97657419D02*
X108057142Y-97657419D01*
X108057142Y-97657419D02*
X108390475Y-98038371D01*
X108390475Y-98038371D02*
X108247618Y-98038371D01*
X108247618Y-98038371D02*
X108152380Y-98085990D01*
X108152380Y-98085990D02*
X108104761Y-98133609D01*
X108104761Y-98133609D02*
X108057142Y-98228847D01*
X108057142Y-98228847D02*
X108057142Y-98466942D01*
X108057142Y-98466942D02*
X108104761Y-98562180D01*
X108104761Y-98562180D02*
X108152380Y-98609800D01*
X108152380Y-98609800D02*
X108247618Y-98657419D01*
X108247618Y-98657419D02*
X108533332Y-98657419D01*
X108533332Y-98657419D02*
X108628570Y-98609800D01*
X108628570Y-98609800D02*
X108676189Y-98562180D01*
D10*
X155059580Y-63757142D02*
X155107200Y-63709523D01*
X155107200Y-63709523D02*
X155154819Y-63566666D01*
X155154819Y-63566666D02*
X155154819Y-63471428D01*
X155154819Y-63471428D02*
X155107200Y-63328571D01*
X155107200Y-63328571D02*
X155011961Y-63233333D01*
X155011961Y-63233333D02*
X154916723Y-63185714D01*
X154916723Y-63185714D02*
X154726247Y-63138095D01*
X154726247Y-63138095D02*
X154583390Y-63138095D01*
X154583390Y-63138095D02*
X154392914Y-63185714D01*
X154392914Y-63185714D02*
X154297676Y-63233333D01*
X154297676Y-63233333D02*
X154202438Y-63328571D01*
X154202438Y-63328571D02*
X154154819Y-63471428D01*
X154154819Y-63471428D02*
X154154819Y-63566666D01*
X154154819Y-63566666D02*
X154202438Y-63709523D01*
X154202438Y-63709523D02*
X154250057Y-63757142D01*
X154250057Y-64138095D02*
X154202438Y-64185714D01*
X154202438Y-64185714D02*
X154154819Y-64280952D01*
X154154819Y-64280952D02*
X154154819Y-64519047D01*
X154154819Y-64519047D02*
X154202438Y-64614285D01*
X154202438Y-64614285D02*
X154250057Y-64661904D01*
X154250057Y-64661904D02*
X154345295Y-64709523D01*
X154345295Y-64709523D02*
X154440533Y-64709523D01*
X154440533Y-64709523D02*
X154583390Y-64661904D01*
X154583390Y-64661904D02*
X155154819Y-64090476D01*
X155154819Y-64090476D02*
X155154819Y-64709523D01*
X154154819Y-65614285D02*
X154154819Y-65138095D01*
X154154819Y-65138095D02*
X154631009Y-65090476D01*
X154631009Y-65090476D02*
X154583390Y-65138095D01*
X154583390Y-65138095D02*
X154535771Y-65233333D01*
X154535771Y-65233333D02*
X154535771Y-65471428D01*
X154535771Y-65471428D02*
X154583390Y-65566666D01*
X154583390Y-65566666D02*
X154631009Y-65614285D01*
X154631009Y-65614285D02*
X154726247Y-65661904D01*
X154726247Y-65661904D02*
X154964342Y-65661904D01*
X154964342Y-65661904D02*
X155059580Y-65614285D01*
X155059580Y-65614285D02*
X155107200Y-65566666D01*
X155107200Y-65566666D02*
X155154819Y-65471428D01*
X155154819Y-65471428D02*
X155154819Y-65233333D01*
X155154819Y-65233333D02*
X155107200Y-65138095D01*
X155107200Y-65138095D02*
X155059580Y-65090476D01*
X130942857Y-62559580D02*
X130990476Y-62607200D01*
X130990476Y-62607200D02*
X131133333Y-62654819D01*
X131133333Y-62654819D02*
X131228571Y-62654819D01*
X131228571Y-62654819D02*
X131371428Y-62607200D01*
X131371428Y-62607200D02*
X131466666Y-62511961D01*
X131466666Y-62511961D02*
X131514285Y-62416723D01*
X131514285Y-62416723D02*
X131561904Y-62226247D01*
X131561904Y-62226247D02*
X131561904Y-62083390D01*
X131561904Y-62083390D02*
X131514285Y-61892914D01*
X131514285Y-61892914D02*
X131466666Y-61797676D01*
X131466666Y-61797676D02*
X131371428Y-61702438D01*
X131371428Y-61702438D02*
X131228571Y-61654819D01*
X131228571Y-61654819D02*
X131133333Y-61654819D01*
X131133333Y-61654819D02*
X130990476Y-61702438D01*
X130990476Y-61702438D02*
X130942857Y-61750057D01*
X129990476Y-62654819D02*
X130561904Y-62654819D01*
X130276190Y-62654819D02*
X130276190Y-61654819D01*
X130276190Y-61654819D02*
X130371428Y-61797676D01*
X130371428Y-61797676D02*
X130466666Y-61892914D01*
X130466666Y-61892914D02*
X130561904Y-61940533D01*
X129133333Y-61654819D02*
X129323809Y-61654819D01*
X129323809Y-61654819D02*
X129419047Y-61702438D01*
X129419047Y-61702438D02*
X129466666Y-61750057D01*
X129466666Y-61750057D02*
X129561904Y-61892914D01*
X129561904Y-61892914D02*
X129609523Y-62083390D01*
X129609523Y-62083390D02*
X129609523Y-62464342D01*
X129609523Y-62464342D02*
X129561904Y-62559580D01*
X129561904Y-62559580D02*
X129514285Y-62607200D01*
X129514285Y-62607200D02*
X129419047Y-62654819D01*
X129419047Y-62654819D02*
X129228571Y-62654819D01*
X129228571Y-62654819D02*
X129133333Y-62607200D01*
X129133333Y-62607200D02*
X129085714Y-62559580D01*
X129085714Y-62559580D02*
X129038095Y-62464342D01*
X129038095Y-62464342D02*
X129038095Y-62226247D01*
X129038095Y-62226247D02*
X129085714Y-62131009D01*
X129085714Y-62131009D02*
X129133333Y-62083390D01*
X129133333Y-62083390D02*
X129228571Y-62035771D01*
X129228571Y-62035771D02*
X129419047Y-62035771D01*
X129419047Y-62035771D02*
X129514285Y-62083390D01*
X129514285Y-62083390D02*
X129561904Y-62131009D01*
X129561904Y-62131009D02*
X129609523Y-62226247D01*
D11*
X156361904Y-70657419D02*
X155790476Y-70657419D01*
X156076190Y-71657419D02*
X156076190Y-70657419D01*
X155457142Y-71657419D02*
X155457142Y-70657419D01*
X155457142Y-70657419D02*
X155076190Y-70657419D01*
X155076190Y-70657419D02*
X154980952Y-70705038D01*
X154980952Y-70705038D02*
X154933333Y-70752657D01*
X154933333Y-70752657D02*
X154885714Y-70847895D01*
X154885714Y-70847895D02*
X154885714Y-70990752D01*
X154885714Y-70990752D02*
X154933333Y-71085990D01*
X154933333Y-71085990D02*
X154980952Y-71133609D01*
X154980952Y-71133609D02*
X155076190Y-71181228D01*
X155076190Y-71181228D02*
X155457142Y-71181228D01*
X154314285Y-71085990D02*
X154409523Y-71038371D01*
X154409523Y-71038371D02*
X154457142Y-70990752D01*
X154457142Y-70990752D02*
X154504761Y-70895514D01*
X154504761Y-70895514D02*
X154504761Y-70847895D01*
X154504761Y-70847895D02*
X154457142Y-70752657D01*
X154457142Y-70752657D02*
X154409523Y-70705038D01*
X154409523Y-70705038D02*
X154314285Y-70657419D01*
X154314285Y-70657419D02*
X154123809Y-70657419D01*
X154123809Y-70657419D02*
X154028571Y-70705038D01*
X154028571Y-70705038D02*
X153980952Y-70752657D01*
X153980952Y-70752657D02*
X153933333Y-70847895D01*
X153933333Y-70847895D02*
X153933333Y-70895514D01*
X153933333Y-70895514D02*
X153980952Y-70990752D01*
X153980952Y-70990752D02*
X154028571Y-71038371D01*
X154028571Y-71038371D02*
X154123809Y-71085990D01*
X154123809Y-71085990D02*
X154314285Y-71085990D01*
X154314285Y-71085990D02*
X154409523Y-71133609D01*
X154409523Y-71133609D02*
X154457142Y-71181228D01*
X154457142Y-71181228D02*
X154504761Y-71276466D01*
X154504761Y-71276466D02*
X154504761Y-71466942D01*
X154504761Y-71466942D02*
X154457142Y-71562180D01*
X154457142Y-71562180D02*
X154409523Y-71609800D01*
X154409523Y-71609800D02*
X154314285Y-71657419D01*
X154314285Y-71657419D02*
X154123809Y-71657419D01*
X154123809Y-71657419D02*
X154028571Y-71609800D01*
X154028571Y-71609800D02*
X153980952Y-71562180D01*
X153980952Y-71562180D02*
X153933333Y-71466942D01*
X153933333Y-71466942D02*
X153933333Y-71276466D01*
X153933333Y-71276466D02*
X153980952Y-71181228D01*
X153980952Y-71181228D02*
X154028571Y-71133609D01*
X154028571Y-71133609D02*
X154123809Y-71085990D01*
D10*
X148201666Y-88459580D02*
X148249285Y-88507200D01*
X148249285Y-88507200D02*
X148392142Y-88554819D01*
X148392142Y-88554819D02*
X148487380Y-88554819D01*
X148487380Y-88554819D02*
X148630237Y-88507200D01*
X148630237Y-88507200D02*
X148725475Y-88411961D01*
X148725475Y-88411961D02*
X148773094Y-88316723D01*
X148773094Y-88316723D02*
X148820713Y-88126247D01*
X148820713Y-88126247D02*
X148820713Y-87983390D01*
X148820713Y-87983390D02*
X148773094Y-87792914D01*
X148773094Y-87792914D02*
X148725475Y-87697676D01*
X148725475Y-87697676D02*
X148630237Y-87602438D01*
X148630237Y-87602438D02*
X148487380Y-87554819D01*
X148487380Y-87554819D02*
X148392142Y-87554819D01*
X148392142Y-87554819D02*
X148249285Y-87602438D01*
X148249285Y-87602438D02*
X148201666Y-87650057D01*
X147820713Y-87650057D02*
X147773094Y-87602438D01*
X147773094Y-87602438D02*
X147677856Y-87554819D01*
X147677856Y-87554819D02*
X147439761Y-87554819D01*
X147439761Y-87554819D02*
X147344523Y-87602438D01*
X147344523Y-87602438D02*
X147296904Y-87650057D01*
X147296904Y-87650057D02*
X147249285Y-87745295D01*
X147249285Y-87745295D02*
X147249285Y-87840533D01*
X147249285Y-87840533D02*
X147296904Y-87983390D01*
X147296904Y-87983390D02*
X147868332Y-88554819D01*
X147868332Y-88554819D02*
X147249285Y-88554819D01*
X140117857Y-67192902D02*
X140334524Y-66883378D01*
X140489286Y-67192902D02*
X140489286Y-66542902D01*
X140489286Y-66542902D02*
X140241667Y-66542902D01*
X140241667Y-66542902D02*
X140179762Y-66573854D01*
X140179762Y-66573854D02*
X140148809Y-66604807D01*
X140148809Y-66604807D02*
X140117857Y-66666711D01*
X140117857Y-66666711D02*
X140117857Y-66759569D01*
X140117857Y-66759569D02*
X140148809Y-66821473D01*
X140148809Y-66821473D02*
X140179762Y-66852426D01*
X140179762Y-66852426D02*
X140241667Y-66883378D01*
X140241667Y-66883378D02*
X140489286Y-66883378D01*
X139870238Y-66604807D02*
X139839286Y-66573854D01*
X139839286Y-66573854D02*
X139777381Y-66542902D01*
X139777381Y-66542902D02*
X139622619Y-66542902D01*
X139622619Y-66542902D02*
X139560714Y-66573854D01*
X139560714Y-66573854D02*
X139529762Y-66604807D01*
X139529762Y-66604807D02*
X139498809Y-66666711D01*
X139498809Y-66666711D02*
X139498809Y-66728616D01*
X139498809Y-66728616D02*
X139529762Y-66821473D01*
X139529762Y-66821473D02*
X139901190Y-67192902D01*
X139901190Y-67192902D02*
X139498809Y-67192902D01*
X138941666Y-66542902D02*
X139065476Y-66542902D01*
X139065476Y-66542902D02*
X139127380Y-66573854D01*
X139127380Y-66573854D02*
X139158333Y-66604807D01*
X139158333Y-66604807D02*
X139220238Y-66697664D01*
X139220238Y-66697664D02*
X139251190Y-66821473D01*
X139251190Y-66821473D02*
X139251190Y-67069092D01*
X139251190Y-67069092D02*
X139220238Y-67130997D01*
X139220238Y-67130997D02*
X139189285Y-67161950D01*
X139189285Y-67161950D02*
X139127380Y-67192902D01*
X139127380Y-67192902D02*
X139003571Y-67192902D01*
X139003571Y-67192902D02*
X138941666Y-67161950D01*
X138941666Y-67161950D02*
X138910714Y-67130997D01*
X138910714Y-67130997D02*
X138879761Y-67069092D01*
X138879761Y-67069092D02*
X138879761Y-66914330D01*
X138879761Y-66914330D02*
X138910714Y-66852426D01*
X138910714Y-66852426D02*
X138941666Y-66821473D01*
X138941666Y-66821473D02*
X139003571Y-66790521D01*
X139003571Y-66790521D02*
X139127380Y-66790521D01*
X139127380Y-66790521D02*
X139189285Y-66821473D01*
X139189285Y-66821473D02*
X139220238Y-66852426D01*
X139220238Y-66852426D02*
X139251190Y-66914330D01*
D11*
X157338094Y-79157419D02*
X156766666Y-79157419D01*
X157052380Y-80157419D02*
X157052380Y-79157419D01*
X156433332Y-80157419D02*
X156433332Y-79157419D01*
X156433332Y-79157419D02*
X156052380Y-79157419D01*
X156052380Y-79157419D02*
X155957142Y-79205038D01*
X155957142Y-79205038D02*
X155909523Y-79252657D01*
X155909523Y-79252657D02*
X155861904Y-79347895D01*
X155861904Y-79347895D02*
X155861904Y-79490752D01*
X155861904Y-79490752D02*
X155909523Y-79585990D01*
X155909523Y-79585990D02*
X155957142Y-79633609D01*
X155957142Y-79633609D02*
X156052380Y-79681228D01*
X156052380Y-79681228D02*
X156433332Y-79681228D01*
X154909523Y-80157419D02*
X155480951Y-80157419D01*
X155195237Y-80157419D02*
X155195237Y-79157419D01*
X155195237Y-79157419D02*
X155290475Y-79300276D01*
X155290475Y-79300276D02*
X155385713Y-79395514D01*
X155385713Y-79395514D02*
X155480951Y-79443133D01*
X154290475Y-79157419D02*
X154195237Y-79157419D01*
X154195237Y-79157419D02*
X154099999Y-79205038D01*
X154099999Y-79205038D02*
X154052380Y-79252657D01*
X154052380Y-79252657D02*
X154004761Y-79347895D01*
X154004761Y-79347895D02*
X153957142Y-79538371D01*
X153957142Y-79538371D02*
X153957142Y-79776466D01*
X153957142Y-79776466D02*
X154004761Y-79966942D01*
X154004761Y-79966942D02*
X154052380Y-80062180D01*
X154052380Y-80062180D02*
X154099999Y-80109800D01*
X154099999Y-80109800D02*
X154195237Y-80157419D01*
X154195237Y-80157419D02*
X154290475Y-80157419D01*
X154290475Y-80157419D02*
X154385713Y-80109800D01*
X154385713Y-80109800D02*
X154433332Y-80062180D01*
X154433332Y-80062180D02*
X154480951Y-79966942D01*
X154480951Y-79966942D02*
X154528570Y-79776466D01*
X154528570Y-79776466D02*
X154528570Y-79538371D01*
X154528570Y-79538371D02*
X154480951Y-79347895D01*
X154480951Y-79347895D02*
X154433332Y-79252657D01*
X154433332Y-79252657D02*
X154385713Y-79205038D01*
X154385713Y-79205038D02*
X154290475Y-79157419D01*
D10*
X148038094Y-41454819D02*
X148038094Y-40454819D01*
X148038094Y-40454819D02*
X147799999Y-40454819D01*
X147799999Y-40454819D02*
X147657142Y-40502438D01*
X147657142Y-40502438D02*
X147561904Y-40597676D01*
X147561904Y-40597676D02*
X147514285Y-40692914D01*
X147514285Y-40692914D02*
X147466666Y-40883390D01*
X147466666Y-40883390D02*
X147466666Y-41026247D01*
X147466666Y-41026247D02*
X147514285Y-41216723D01*
X147514285Y-41216723D02*
X147561904Y-41311961D01*
X147561904Y-41311961D02*
X147657142Y-41407200D01*
X147657142Y-41407200D02*
X147799999Y-41454819D01*
X147799999Y-41454819D02*
X148038094Y-41454819D01*
X146609523Y-40788152D02*
X146609523Y-41454819D01*
X146847618Y-40407200D02*
X147085713Y-41121485D01*
X147085713Y-41121485D02*
X146466666Y-41121485D01*
D11*
X156661904Y-77657419D02*
X156090476Y-77657419D01*
X156376190Y-78657419D02*
X156376190Y-77657419D01*
X155757142Y-78657419D02*
X155757142Y-77657419D01*
X155757142Y-77657419D02*
X155376190Y-77657419D01*
X155376190Y-77657419D02*
X155280952Y-77705038D01*
X155280952Y-77705038D02*
X155233333Y-77752657D01*
X155233333Y-77752657D02*
X155185714Y-77847895D01*
X155185714Y-77847895D02*
X155185714Y-77990752D01*
X155185714Y-77990752D02*
X155233333Y-78085990D01*
X155233333Y-78085990D02*
X155280952Y-78133609D01*
X155280952Y-78133609D02*
X155376190Y-78181228D01*
X155376190Y-78181228D02*
X155757142Y-78181228D01*
X154709523Y-78657419D02*
X154519047Y-78657419D01*
X154519047Y-78657419D02*
X154423809Y-78609800D01*
X154423809Y-78609800D02*
X154376190Y-78562180D01*
X154376190Y-78562180D02*
X154280952Y-78419323D01*
X154280952Y-78419323D02*
X154233333Y-78228847D01*
X154233333Y-78228847D02*
X154233333Y-77847895D01*
X154233333Y-77847895D02*
X154280952Y-77752657D01*
X154280952Y-77752657D02*
X154328571Y-77705038D01*
X154328571Y-77705038D02*
X154423809Y-77657419D01*
X154423809Y-77657419D02*
X154614285Y-77657419D01*
X154614285Y-77657419D02*
X154709523Y-77705038D01*
X154709523Y-77705038D02*
X154757142Y-77752657D01*
X154757142Y-77752657D02*
X154804761Y-77847895D01*
X154804761Y-77847895D02*
X154804761Y-78085990D01*
X154804761Y-78085990D02*
X154757142Y-78181228D01*
X154757142Y-78181228D02*
X154709523Y-78228847D01*
X154709523Y-78228847D02*
X154614285Y-78276466D01*
X154614285Y-78276466D02*
X154423809Y-78276466D01*
X154423809Y-78276466D02*
X154328571Y-78228847D01*
X154328571Y-78228847D02*
X154280952Y-78181228D01*
X154280952Y-78181228D02*
X154233333Y-78085990D01*
D10*
X113242857Y-64359580D02*
X113290476Y-64407200D01*
X113290476Y-64407200D02*
X113433333Y-64454819D01*
X113433333Y-64454819D02*
X113528571Y-64454819D01*
X113528571Y-64454819D02*
X113671428Y-64407200D01*
X113671428Y-64407200D02*
X113766666Y-64311961D01*
X113766666Y-64311961D02*
X113814285Y-64216723D01*
X113814285Y-64216723D02*
X113861904Y-64026247D01*
X113861904Y-64026247D02*
X113861904Y-63883390D01*
X113861904Y-63883390D02*
X113814285Y-63692914D01*
X113814285Y-63692914D02*
X113766666Y-63597676D01*
X113766666Y-63597676D02*
X113671428Y-63502438D01*
X113671428Y-63502438D02*
X113528571Y-63454819D01*
X113528571Y-63454819D02*
X113433333Y-63454819D01*
X113433333Y-63454819D02*
X113290476Y-63502438D01*
X113290476Y-63502438D02*
X113242857Y-63550057D01*
X112290476Y-64454819D02*
X112861904Y-64454819D01*
X112576190Y-64454819D02*
X112576190Y-63454819D01*
X112576190Y-63454819D02*
X112671428Y-63597676D01*
X112671428Y-63597676D02*
X112766666Y-63692914D01*
X112766666Y-63692914D02*
X112861904Y-63740533D01*
X111385714Y-63454819D02*
X111861904Y-63454819D01*
X111861904Y-63454819D02*
X111909523Y-63931009D01*
X111909523Y-63931009D02*
X111861904Y-63883390D01*
X111861904Y-63883390D02*
X111766666Y-63835771D01*
X111766666Y-63835771D02*
X111528571Y-63835771D01*
X111528571Y-63835771D02*
X111433333Y-63883390D01*
X111433333Y-63883390D02*
X111385714Y-63931009D01*
X111385714Y-63931009D02*
X111338095Y-64026247D01*
X111338095Y-64026247D02*
X111338095Y-64264342D01*
X111338095Y-64264342D02*
X111385714Y-64359580D01*
X111385714Y-64359580D02*
X111433333Y-64407200D01*
X111433333Y-64407200D02*
X111528571Y-64454819D01*
X111528571Y-64454819D02*
X111766666Y-64454819D01*
X111766666Y-64454819D02*
X111861904Y-64407200D01*
X111861904Y-64407200D02*
X111909523Y-64359580D01*
X154788094Y-41454819D02*
X154788094Y-40454819D01*
X154788094Y-40454819D02*
X154549999Y-40454819D01*
X154549999Y-40454819D02*
X154407142Y-40502438D01*
X154407142Y-40502438D02*
X154311904Y-40597676D01*
X154311904Y-40597676D02*
X154264285Y-40692914D01*
X154264285Y-40692914D02*
X154216666Y-40883390D01*
X154216666Y-40883390D02*
X154216666Y-41026247D01*
X154216666Y-41026247D02*
X154264285Y-41216723D01*
X154264285Y-41216723D02*
X154311904Y-41311961D01*
X154311904Y-41311961D02*
X154407142Y-41407200D01*
X154407142Y-41407200D02*
X154549999Y-41454819D01*
X154549999Y-41454819D02*
X154788094Y-41454819D01*
X153883332Y-40454819D02*
X153264285Y-40454819D01*
X153264285Y-40454819D02*
X153597618Y-40835771D01*
X153597618Y-40835771D02*
X153454761Y-40835771D01*
X153454761Y-40835771D02*
X153359523Y-40883390D01*
X153359523Y-40883390D02*
X153311904Y-40931009D01*
X153311904Y-40931009D02*
X153264285Y-41026247D01*
X153264285Y-41026247D02*
X153264285Y-41264342D01*
X153264285Y-41264342D02*
X153311904Y-41359580D01*
X153311904Y-41359580D02*
X153359523Y-41407200D01*
X153359523Y-41407200D02*
X153454761Y-41454819D01*
X153454761Y-41454819D02*
X153740475Y-41454819D01*
X153740475Y-41454819D02*
X153835713Y-41407200D01*
X153835713Y-41407200D02*
X153883332Y-41359580D01*
X165859580Y-91820833D02*
X165907200Y-91773214D01*
X165907200Y-91773214D02*
X165954819Y-91630357D01*
X165954819Y-91630357D02*
X165954819Y-91535119D01*
X165954819Y-91535119D02*
X165907200Y-91392262D01*
X165907200Y-91392262D02*
X165811961Y-91297024D01*
X165811961Y-91297024D02*
X165716723Y-91249405D01*
X165716723Y-91249405D02*
X165526247Y-91201786D01*
X165526247Y-91201786D02*
X165383390Y-91201786D01*
X165383390Y-91201786D02*
X165192914Y-91249405D01*
X165192914Y-91249405D02*
X165097676Y-91297024D01*
X165097676Y-91297024D02*
X165002438Y-91392262D01*
X165002438Y-91392262D02*
X164954819Y-91535119D01*
X164954819Y-91535119D02*
X164954819Y-91630357D01*
X164954819Y-91630357D02*
X165002438Y-91773214D01*
X165002438Y-91773214D02*
X165050057Y-91820833D01*
X164954819Y-92154167D02*
X164954819Y-92820833D01*
X164954819Y-92820833D02*
X165954819Y-92392262D01*
X140217857Y-56392902D02*
X140434524Y-56083378D01*
X140589286Y-56392902D02*
X140589286Y-55742902D01*
X140589286Y-55742902D02*
X140341667Y-55742902D01*
X140341667Y-55742902D02*
X140279762Y-55773854D01*
X140279762Y-55773854D02*
X140248809Y-55804807D01*
X140248809Y-55804807D02*
X140217857Y-55866711D01*
X140217857Y-55866711D02*
X140217857Y-55959569D01*
X140217857Y-55959569D02*
X140248809Y-56021473D01*
X140248809Y-56021473D02*
X140279762Y-56052426D01*
X140279762Y-56052426D02*
X140341667Y-56083378D01*
X140341667Y-56083378D02*
X140589286Y-56083378D01*
X140001190Y-55742902D02*
X139598809Y-55742902D01*
X139598809Y-55742902D02*
X139815476Y-55990521D01*
X139815476Y-55990521D02*
X139722619Y-55990521D01*
X139722619Y-55990521D02*
X139660714Y-56021473D01*
X139660714Y-56021473D02*
X139629762Y-56052426D01*
X139629762Y-56052426D02*
X139598809Y-56114330D01*
X139598809Y-56114330D02*
X139598809Y-56269092D01*
X139598809Y-56269092D02*
X139629762Y-56330997D01*
X139629762Y-56330997D02*
X139660714Y-56361950D01*
X139660714Y-56361950D02*
X139722619Y-56392902D01*
X139722619Y-56392902D02*
X139908333Y-56392902D01*
X139908333Y-56392902D02*
X139970238Y-56361950D01*
X139970238Y-56361950D02*
X140001190Y-56330997D01*
X139196428Y-55742902D02*
X139134523Y-55742902D01*
X139134523Y-55742902D02*
X139072619Y-55773854D01*
X139072619Y-55773854D02*
X139041666Y-55804807D01*
X139041666Y-55804807D02*
X139010714Y-55866711D01*
X139010714Y-55866711D02*
X138979761Y-55990521D01*
X138979761Y-55990521D02*
X138979761Y-56145283D01*
X138979761Y-56145283D02*
X139010714Y-56269092D01*
X139010714Y-56269092D02*
X139041666Y-56330997D01*
X139041666Y-56330997D02*
X139072619Y-56361950D01*
X139072619Y-56361950D02*
X139134523Y-56392902D01*
X139134523Y-56392902D02*
X139196428Y-56392902D01*
X139196428Y-56392902D02*
X139258333Y-56361950D01*
X139258333Y-56361950D02*
X139289285Y-56330997D01*
X139289285Y-56330997D02*
X139320238Y-56269092D01*
X139320238Y-56269092D02*
X139351190Y-56145283D01*
X139351190Y-56145283D02*
X139351190Y-55990521D01*
X139351190Y-55990521D02*
X139320238Y-55866711D01*
X139320238Y-55866711D02*
X139289285Y-55804807D01*
X139289285Y-55804807D02*
X139258333Y-55773854D01*
X139258333Y-55773854D02*
X139196428Y-55742902D01*
X140842857Y-65459580D02*
X140890476Y-65507200D01*
X140890476Y-65507200D02*
X141033333Y-65554819D01*
X141033333Y-65554819D02*
X141128571Y-65554819D01*
X141128571Y-65554819D02*
X141271428Y-65507200D01*
X141271428Y-65507200D02*
X141366666Y-65411961D01*
X141366666Y-65411961D02*
X141414285Y-65316723D01*
X141414285Y-65316723D02*
X141461904Y-65126247D01*
X141461904Y-65126247D02*
X141461904Y-64983390D01*
X141461904Y-64983390D02*
X141414285Y-64792914D01*
X141414285Y-64792914D02*
X141366666Y-64697676D01*
X141366666Y-64697676D02*
X141271428Y-64602438D01*
X141271428Y-64602438D02*
X141128571Y-64554819D01*
X141128571Y-64554819D02*
X141033333Y-64554819D01*
X141033333Y-64554819D02*
X140890476Y-64602438D01*
X140890476Y-64602438D02*
X140842857Y-64650057D01*
X140509523Y-64554819D02*
X139890476Y-64554819D01*
X139890476Y-64554819D02*
X140223809Y-64935771D01*
X140223809Y-64935771D02*
X140080952Y-64935771D01*
X140080952Y-64935771D02*
X139985714Y-64983390D01*
X139985714Y-64983390D02*
X139938095Y-65031009D01*
X139938095Y-65031009D02*
X139890476Y-65126247D01*
X139890476Y-65126247D02*
X139890476Y-65364342D01*
X139890476Y-65364342D02*
X139938095Y-65459580D01*
X139938095Y-65459580D02*
X139985714Y-65507200D01*
X139985714Y-65507200D02*
X140080952Y-65554819D01*
X140080952Y-65554819D02*
X140366666Y-65554819D01*
X140366666Y-65554819D02*
X140461904Y-65507200D01*
X140461904Y-65507200D02*
X140509523Y-65459580D01*
X138938095Y-65554819D02*
X139509523Y-65554819D01*
X139223809Y-65554819D02*
X139223809Y-64554819D01*
X139223809Y-64554819D02*
X139319047Y-64697676D01*
X139319047Y-64697676D02*
X139414285Y-64792914D01*
X139414285Y-64792914D02*
X139509523Y-64840533D01*
X140042857Y-74359580D02*
X140090476Y-74407200D01*
X140090476Y-74407200D02*
X140233333Y-74454819D01*
X140233333Y-74454819D02*
X140328571Y-74454819D01*
X140328571Y-74454819D02*
X140471428Y-74407200D01*
X140471428Y-74407200D02*
X140566666Y-74311961D01*
X140566666Y-74311961D02*
X140614285Y-74216723D01*
X140614285Y-74216723D02*
X140661904Y-74026247D01*
X140661904Y-74026247D02*
X140661904Y-73883390D01*
X140661904Y-73883390D02*
X140614285Y-73692914D01*
X140614285Y-73692914D02*
X140566666Y-73597676D01*
X140566666Y-73597676D02*
X140471428Y-73502438D01*
X140471428Y-73502438D02*
X140328571Y-73454819D01*
X140328571Y-73454819D02*
X140233333Y-73454819D01*
X140233333Y-73454819D02*
X140090476Y-73502438D01*
X140090476Y-73502438D02*
X140042857Y-73550057D01*
X139709523Y-73454819D02*
X139090476Y-73454819D01*
X139090476Y-73454819D02*
X139423809Y-73835771D01*
X139423809Y-73835771D02*
X139280952Y-73835771D01*
X139280952Y-73835771D02*
X139185714Y-73883390D01*
X139185714Y-73883390D02*
X139138095Y-73931009D01*
X139138095Y-73931009D02*
X139090476Y-74026247D01*
X139090476Y-74026247D02*
X139090476Y-74264342D01*
X139090476Y-74264342D02*
X139138095Y-74359580D01*
X139138095Y-74359580D02*
X139185714Y-74407200D01*
X139185714Y-74407200D02*
X139280952Y-74454819D01*
X139280952Y-74454819D02*
X139566666Y-74454819D01*
X139566666Y-74454819D02*
X139661904Y-74407200D01*
X139661904Y-74407200D02*
X139709523Y-74359580D01*
X138233333Y-73788152D02*
X138233333Y-74454819D01*
X138471428Y-73407200D02*
X138709523Y-74121485D01*
X138709523Y-74121485D02*
X138090476Y-74121485D01*
D11*
X123838094Y-50357419D02*
X123266666Y-50357419D01*
X123552380Y-51357419D02*
X123552380Y-50357419D01*
X122933332Y-51357419D02*
X122933332Y-50357419D01*
X122933332Y-50357419D02*
X122552380Y-50357419D01*
X122552380Y-50357419D02*
X122457142Y-50405038D01*
X122457142Y-50405038D02*
X122409523Y-50452657D01*
X122409523Y-50452657D02*
X122361904Y-50547895D01*
X122361904Y-50547895D02*
X122361904Y-50690752D01*
X122361904Y-50690752D02*
X122409523Y-50785990D01*
X122409523Y-50785990D02*
X122457142Y-50833609D01*
X122457142Y-50833609D02*
X122552380Y-50881228D01*
X122552380Y-50881228D02*
X122933332Y-50881228D01*
X122028570Y-50357419D02*
X121409523Y-50357419D01*
X121409523Y-50357419D02*
X121742856Y-50738371D01*
X121742856Y-50738371D02*
X121599999Y-50738371D01*
X121599999Y-50738371D02*
X121504761Y-50785990D01*
X121504761Y-50785990D02*
X121457142Y-50833609D01*
X121457142Y-50833609D02*
X121409523Y-50928847D01*
X121409523Y-50928847D02*
X121409523Y-51166942D01*
X121409523Y-51166942D02*
X121457142Y-51262180D01*
X121457142Y-51262180D02*
X121504761Y-51309800D01*
X121504761Y-51309800D02*
X121599999Y-51357419D01*
X121599999Y-51357419D02*
X121885713Y-51357419D01*
X121885713Y-51357419D02*
X121980951Y-51309800D01*
X121980951Y-51309800D02*
X122028570Y-51262180D01*
X120504761Y-50357419D02*
X120980951Y-50357419D01*
X120980951Y-50357419D02*
X121028570Y-50833609D01*
X121028570Y-50833609D02*
X120980951Y-50785990D01*
X120980951Y-50785990D02*
X120885713Y-50738371D01*
X120885713Y-50738371D02*
X120647618Y-50738371D01*
X120647618Y-50738371D02*
X120552380Y-50785990D01*
X120552380Y-50785990D02*
X120504761Y-50833609D01*
X120504761Y-50833609D02*
X120457142Y-50928847D01*
X120457142Y-50928847D02*
X120457142Y-51166942D01*
X120457142Y-51166942D02*
X120504761Y-51262180D01*
X120504761Y-51262180D02*
X120552380Y-51309800D01*
X120552380Y-51309800D02*
X120647618Y-51357419D01*
X120647618Y-51357419D02*
X120885713Y-51357419D01*
X120885713Y-51357419D02*
X120980951Y-51309800D01*
X120980951Y-51309800D02*
X121028570Y-51262180D01*
D10*
X154259580Y-74357142D02*
X154307200Y-74309523D01*
X154307200Y-74309523D02*
X154354819Y-74166666D01*
X154354819Y-74166666D02*
X154354819Y-74071428D01*
X154354819Y-74071428D02*
X154307200Y-73928571D01*
X154307200Y-73928571D02*
X154211961Y-73833333D01*
X154211961Y-73833333D02*
X154116723Y-73785714D01*
X154116723Y-73785714D02*
X153926247Y-73738095D01*
X153926247Y-73738095D02*
X153783390Y-73738095D01*
X153783390Y-73738095D02*
X153592914Y-73785714D01*
X153592914Y-73785714D02*
X153497676Y-73833333D01*
X153497676Y-73833333D02*
X153402438Y-73928571D01*
X153402438Y-73928571D02*
X153354819Y-74071428D01*
X153354819Y-74071428D02*
X153354819Y-74166666D01*
X153354819Y-74166666D02*
X153402438Y-74309523D01*
X153402438Y-74309523D02*
X153450057Y-74357142D01*
X153450057Y-74738095D02*
X153402438Y-74785714D01*
X153402438Y-74785714D02*
X153354819Y-74880952D01*
X153354819Y-74880952D02*
X153354819Y-75119047D01*
X153354819Y-75119047D02*
X153402438Y-75214285D01*
X153402438Y-75214285D02*
X153450057Y-75261904D01*
X153450057Y-75261904D02*
X153545295Y-75309523D01*
X153545295Y-75309523D02*
X153640533Y-75309523D01*
X153640533Y-75309523D02*
X153783390Y-75261904D01*
X153783390Y-75261904D02*
X154354819Y-74690476D01*
X154354819Y-74690476D02*
X154354819Y-75309523D01*
X153783390Y-75880952D02*
X153735771Y-75785714D01*
X153735771Y-75785714D02*
X153688152Y-75738095D01*
X153688152Y-75738095D02*
X153592914Y-75690476D01*
X153592914Y-75690476D02*
X153545295Y-75690476D01*
X153545295Y-75690476D02*
X153450057Y-75738095D01*
X153450057Y-75738095D02*
X153402438Y-75785714D01*
X153402438Y-75785714D02*
X153354819Y-75880952D01*
X153354819Y-75880952D02*
X153354819Y-76071428D01*
X153354819Y-76071428D02*
X153402438Y-76166666D01*
X153402438Y-76166666D02*
X153450057Y-76214285D01*
X153450057Y-76214285D02*
X153545295Y-76261904D01*
X153545295Y-76261904D02*
X153592914Y-76261904D01*
X153592914Y-76261904D02*
X153688152Y-76214285D01*
X153688152Y-76214285D02*
X153735771Y-76166666D01*
X153735771Y-76166666D02*
X153783390Y-76071428D01*
X153783390Y-76071428D02*
X153783390Y-75880952D01*
X153783390Y-75880952D02*
X153831009Y-75785714D01*
X153831009Y-75785714D02*
X153878628Y-75738095D01*
X153878628Y-75738095D02*
X153973866Y-75690476D01*
X153973866Y-75690476D02*
X154164342Y-75690476D01*
X154164342Y-75690476D02*
X154259580Y-75738095D01*
X154259580Y-75738095D02*
X154307200Y-75785714D01*
X154307200Y-75785714D02*
X154354819Y-75880952D01*
X154354819Y-75880952D02*
X154354819Y-76071428D01*
X154354819Y-76071428D02*
X154307200Y-76166666D01*
X154307200Y-76166666D02*
X154259580Y-76214285D01*
X154259580Y-76214285D02*
X154164342Y-76261904D01*
X154164342Y-76261904D02*
X153973866Y-76261904D01*
X153973866Y-76261904D02*
X153878628Y-76214285D01*
X153878628Y-76214285D02*
X153831009Y-76166666D01*
X153831009Y-76166666D02*
X153783390Y-76071428D01*
X173333333Y-41124819D02*
X173333333Y-41839104D01*
X173333333Y-41839104D02*
X173380952Y-41981961D01*
X173380952Y-41981961D02*
X173476190Y-42077200D01*
X173476190Y-42077200D02*
X173619047Y-42124819D01*
X173619047Y-42124819D02*
X173714285Y-42124819D01*
X172952380Y-41124819D02*
X172333333Y-41124819D01*
X172333333Y-41124819D02*
X172666666Y-41505771D01*
X172666666Y-41505771D02*
X172523809Y-41505771D01*
X172523809Y-41505771D02*
X172428571Y-41553390D01*
X172428571Y-41553390D02*
X172380952Y-41601009D01*
X172380952Y-41601009D02*
X172333333Y-41696247D01*
X172333333Y-41696247D02*
X172333333Y-41934342D01*
X172333333Y-41934342D02*
X172380952Y-42029580D01*
X172380952Y-42029580D02*
X172428571Y-42077200D01*
X172428571Y-42077200D02*
X172523809Y-42124819D01*
X172523809Y-42124819D02*
X172809523Y-42124819D01*
X172809523Y-42124819D02*
X172904761Y-42077200D01*
X172904761Y-42077200D02*
X172952380Y-42029580D01*
X148759580Y-74157142D02*
X148807200Y-74109523D01*
X148807200Y-74109523D02*
X148854819Y-73966666D01*
X148854819Y-73966666D02*
X148854819Y-73871428D01*
X148854819Y-73871428D02*
X148807200Y-73728571D01*
X148807200Y-73728571D02*
X148711961Y-73633333D01*
X148711961Y-73633333D02*
X148616723Y-73585714D01*
X148616723Y-73585714D02*
X148426247Y-73538095D01*
X148426247Y-73538095D02*
X148283390Y-73538095D01*
X148283390Y-73538095D02*
X148092914Y-73585714D01*
X148092914Y-73585714D02*
X147997676Y-73633333D01*
X147997676Y-73633333D02*
X147902438Y-73728571D01*
X147902438Y-73728571D02*
X147854819Y-73871428D01*
X147854819Y-73871428D02*
X147854819Y-73966666D01*
X147854819Y-73966666D02*
X147902438Y-74109523D01*
X147902438Y-74109523D02*
X147950057Y-74157142D01*
X147950057Y-74538095D02*
X147902438Y-74585714D01*
X147902438Y-74585714D02*
X147854819Y-74680952D01*
X147854819Y-74680952D02*
X147854819Y-74919047D01*
X147854819Y-74919047D02*
X147902438Y-75014285D01*
X147902438Y-75014285D02*
X147950057Y-75061904D01*
X147950057Y-75061904D02*
X148045295Y-75109523D01*
X148045295Y-75109523D02*
X148140533Y-75109523D01*
X148140533Y-75109523D02*
X148283390Y-75061904D01*
X148283390Y-75061904D02*
X148854819Y-74490476D01*
X148854819Y-74490476D02*
X148854819Y-75109523D01*
X147854819Y-75442857D02*
X147854819Y-76109523D01*
X147854819Y-76109523D02*
X148854819Y-75680952D01*
D11*
X117838094Y-67457419D02*
X117266666Y-67457419D01*
X117552380Y-68457419D02*
X117552380Y-67457419D01*
X116933332Y-68457419D02*
X116933332Y-67457419D01*
X116933332Y-67457419D02*
X116552380Y-67457419D01*
X116552380Y-67457419D02*
X116457142Y-67505038D01*
X116457142Y-67505038D02*
X116409523Y-67552657D01*
X116409523Y-67552657D02*
X116361904Y-67647895D01*
X116361904Y-67647895D02*
X116361904Y-67790752D01*
X116361904Y-67790752D02*
X116409523Y-67885990D01*
X116409523Y-67885990D02*
X116457142Y-67933609D01*
X116457142Y-67933609D02*
X116552380Y-67981228D01*
X116552380Y-67981228D02*
X116933332Y-67981228D01*
X116028570Y-67457419D02*
X115409523Y-67457419D01*
X115409523Y-67457419D02*
X115742856Y-67838371D01*
X115742856Y-67838371D02*
X115599999Y-67838371D01*
X115599999Y-67838371D02*
X115504761Y-67885990D01*
X115504761Y-67885990D02*
X115457142Y-67933609D01*
X115457142Y-67933609D02*
X115409523Y-68028847D01*
X115409523Y-68028847D02*
X115409523Y-68266942D01*
X115409523Y-68266942D02*
X115457142Y-68362180D01*
X115457142Y-68362180D02*
X115504761Y-68409800D01*
X115504761Y-68409800D02*
X115599999Y-68457419D01*
X115599999Y-68457419D02*
X115885713Y-68457419D01*
X115885713Y-68457419D02*
X115980951Y-68409800D01*
X115980951Y-68409800D02*
X116028570Y-68362180D01*
X114838094Y-67885990D02*
X114933332Y-67838371D01*
X114933332Y-67838371D02*
X114980951Y-67790752D01*
X114980951Y-67790752D02*
X115028570Y-67695514D01*
X115028570Y-67695514D02*
X115028570Y-67647895D01*
X115028570Y-67647895D02*
X114980951Y-67552657D01*
X114980951Y-67552657D02*
X114933332Y-67505038D01*
X114933332Y-67505038D02*
X114838094Y-67457419D01*
X114838094Y-67457419D02*
X114647618Y-67457419D01*
X114647618Y-67457419D02*
X114552380Y-67505038D01*
X114552380Y-67505038D02*
X114504761Y-67552657D01*
X114504761Y-67552657D02*
X114457142Y-67647895D01*
X114457142Y-67647895D02*
X114457142Y-67695514D01*
X114457142Y-67695514D02*
X114504761Y-67790752D01*
X114504761Y-67790752D02*
X114552380Y-67838371D01*
X114552380Y-67838371D02*
X114647618Y-67885990D01*
X114647618Y-67885990D02*
X114838094Y-67885990D01*
X114838094Y-67885990D02*
X114933332Y-67933609D01*
X114933332Y-67933609D02*
X114980951Y-67981228D01*
X114980951Y-67981228D02*
X115028570Y-68076466D01*
X115028570Y-68076466D02*
X115028570Y-68266942D01*
X115028570Y-68266942D02*
X114980951Y-68362180D01*
X114980951Y-68362180D02*
X114933332Y-68409800D01*
X114933332Y-68409800D02*
X114838094Y-68457419D01*
X114838094Y-68457419D02*
X114647618Y-68457419D01*
X114647618Y-68457419D02*
X114552380Y-68409800D01*
X114552380Y-68409800D02*
X114504761Y-68362180D01*
X114504761Y-68362180D02*
X114457142Y-68266942D01*
X114457142Y-68266942D02*
X114457142Y-68076466D01*
X114457142Y-68076466D02*
X114504761Y-67981228D01*
X114504761Y-67981228D02*
X114552380Y-67933609D01*
X114552380Y-67933609D02*
X114647618Y-67885990D01*
D10*
X117605357Y-50629580D02*
X117652976Y-50677200D01*
X117652976Y-50677200D02*
X117795833Y-50724819D01*
X117795833Y-50724819D02*
X117891071Y-50724819D01*
X117891071Y-50724819D02*
X118033928Y-50677200D01*
X118033928Y-50677200D02*
X118129166Y-50581961D01*
X118129166Y-50581961D02*
X118176785Y-50486723D01*
X118176785Y-50486723D02*
X118224404Y-50296247D01*
X118224404Y-50296247D02*
X118224404Y-50153390D01*
X118224404Y-50153390D02*
X118176785Y-49962914D01*
X118176785Y-49962914D02*
X118129166Y-49867676D01*
X118129166Y-49867676D02*
X118033928Y-49772438D01*
X118033928Y-49772438D02*
X117891071Y-49724819D01*
X117891071Y-49724819D02*
X117795833Y-49724819D01*
X117795833Y-49724819D02*
X117652976Y-49772438D01*
X117652976Y-49772438D02*
X117605357Y-49820057D01*
X117224404Y-49820057D02*
X117176785Y-49772438D01*
X117176785Y-49772438D02*
X117081547Y-49724819D01*
X117081547Y-49724819D02*
X116843452Y-49724819D01*
X116843452Y-49724819D02*
X116748214Y-49772438D01*
X116748214Y-49772438D02*
X116700595Y-49820057D01*
X116700595Y-49820057D02*
X116652976Y-49915295D01*
X116652976Y-49915295D02*
X116652976Y-50010533D01*
X116652976Y-50010533D02*
X116700595Y-50153390D01*
X116700595Y-50153390D02*
X117272023Y-50724819D01*
X117272023Y-50724819D02*
X116652976Y-50724819D01*
X116272023Y-49820057D02*
X116224404Y-49772438D01*
X116224404Y-49772438D02*
X116129166Y-49724819D01*
X116129166Y-49724819D02*
X115891071Y-49724819D01*
X115891071Y-49724819D02*
X115795833Y-49772438D01*
X115795833Y-49772438D02*
X115748214Y-49820057D01*
X115748214Y-49820057D02*
X115700595Y-49915295D01*
X115700595Y-49915295D02*
X115700595Y-50010533D01*
X115700595Y-50010533D02*
X115748214Y-50153390D01*
X115748214Y-50153390D02*
X116319642Y-50724819D01*
X116319642Y-50724819D02*
X115700595Y-50724819D01*
D11*
X127338094Y-87557419D02*
X126766666Y-87557419D01*
X127052380Y-88557419D02*
X127052380Y-87557419D01*
X126433332Y-88557419D02*
X126433332Y-87557419D01*
X126433332Y-87557419D02*
X126052380Y-87557419D01*
X126052380Y-87557419D02*
X125957142Y-87605038D01*
X125957142Y-87605038D02*
X125909523Y-87652657D01*
X125909523Y-87652657D02*
X125861904Y-87747895D01*
X125861904Y-87747895D02*
X125861904Y-87890752D01*
X125861904Y-87890752D02*
X125909523Y-87985990D01*
X125909523Y-87985990D02*
X125957142Y-88033609D01*
X125957142Y-88033609D02*
X126052380Y-88081228D01*
X126052380Y-88081228D02*
X126433332Y-88081228D01*
X125480951Y-87652657D02*
X125433332Y-87605038D01*
X125433332Y-87605038D02*
X125338094Y-87557419D01*
X125338094Y-87557419D02*
X125099999Y-87557419D01*
X125099999Y-87557419D02*
X125004761Y-87605038D01*
X125004761Y-87605038D02*
X124957142Y-87652657D01*
X124957142Y-87652657D02*
X124909523Y-87747895D01*
X124909523Y-87747895D02*
X124909523Y-87843133D01*
X124909523Y-87843133D02*
X124957142Y-87985990D01*
X124957142Y-87985990D02*
X125528570Y-88557419D01*
X125528570Y-88557419D02*
X124909523Y-88557419D01*
X124052380Y-87557419D02*
X124242856Y-87557419D01*
X124242856Y-87557419D02*
X124338094Y-87605038D01*
X124338094Y-87605038D02*
X124385713Y-87652657D01*
X124385713Y-87652657D02*
X124480951Y-87795514D01*
X124480951Y-87795514D02*
X124528570Y-87985990D01*
X124528570Y-87985990D02*
X124528570Y-88366942D01*
X124528570Y-88366942D02*
X124480951Y-88462180D01*
X124480951Y-88462180D02*
X124433332Y-88509800D01*
X124433332Y-88509800D02*
X124338094Y-88557419D01*
X124338094Y-88557419D02*
X124147618Y-88557419D01*
X124147618Y-88557419D02*
X124052380Y-88509800D01*
X124052380Y-88509800D02*
X124004761Y-88462180D01*
X124004761Y-88462180D02*
X123957142Y-88366942D01*
X123957142Y-88366942D02*
X123957142Y-88128847D01*
X123957142Y-88128847D02*
X124004761Y-88033609D01*
X124004761Y-88033609D02*
X124052380Y-87985990D01*
X124052380Y-87985990D02*
X124147618Y-87938371D01*
X124147618Y-87938371D02*
X124338094Y-87938371D01*
X124338094Y-87938371D02*
X124433332Y-87985990D01*
X124433332Y-87985990D02*
X124480951Y-88033609D01*
X124480951Y-88033609D02*
X124528570Y-88128847D01*
X120838094Y-76457419D02*
X120266666Y-76457419D01*
X120552380Y-77457419D02*
X120552380Y-76457419D01*
X119933332Y-77457419D02*
X119933332Y-76457419D01*
X119933332Y-76457419D02*
X119552380Y-76457419D01*
X119552380Y-76457419D02*
X119457142Y-76505038D01*
X119457142Y-76505038D02*
X119409523Y-76552657D01*
X119409523Y-76552657D02*
X119361904Y-76647895D01*
X119361904Y-76647895D02*
X119361904Y-76790752D01*
X119361904Y-76790752D02*
X119409523Y-76885990D01*
X119409523Y-76885990D02*
X119457142Y-76933609D01*
X119457142Y-76933609D02*
X119552380Y-76981228D01*
X119552380Y-76981228D02*
X119933332Y-76981228D01*
X119028570Y-76457419D02*
X118409523Y-76457419D01*
X118409523Y-76457419D02*
X118742856Y-76838371D01*
X118742856Y-76838371D02*
X118599999Y-76838371D01*
X118599999Y-76838371D02*
X118504761Y-76885990D01*
X118504761Y-76885990D02*
X118457142Y-76933609D01*
X118457142Y-76933609D02*
X118409523Y-77028847D01*
X118409523Y-77028847D02*
X118409523Y-77266942D01*
X118409523Y-77266942D02*
X118457142Y-77362180D01*
X118457142Y-77362180D02*
X118504761Y-77409800D01*
X118504761Y-77409800D02*
X118599999Y-77457419D01*
X118599999Y-77457419D02*
X118885713Y-77457419D01*
X118885713Y-77457419D02*
X118980951Y-77409800D01*
X118980951Y-77409800D02*
X119028570Y-77362180D01*
X117457142Y-77457419D02*
X118028570Y-77457419D01*
X117742856Y-77457419D02*
X117742856Y-76457419D01*
X117742856Y-76457419D02*
X117838094Y-76600276D01*
X117838094Y-76600276D02*
X117933332Y-76695514D01*
X117933332Y-76695514D02*
X118028570Y-76743133D01*
D10*
X94338094Y-66754819D02*
X94338094Y-65754819D01*
X94338094Y-65754819D02*
X94099999Y-65754819D01*
X94099999Y-65754819D02*
X93957142Y-65802438D01*
X93957142Y-65802438D02*
X93861904Y-65897676D01*
X93861904Y-65897676D02*
X93814285Y-65992914D01*
X93814285Y-65992914D02*
X93766666Y-66183390D01*
X93766666Y-66183390D02*
X93766666Y-66326247D01*
X93766666Y-66326247D02*
X93814285Y-66516723D01*
X93814285Y-66516723D02*
X93861904Y-66611961D01*
X93861904Y-66611961D02*
X93957142Y-66707200D01*
X93957142Y-66707200D02*
X94099999Y-66754819D01*
X94099999Y-66754819D02*
X94338094Y-66754819D01*
X92814285Y-66754819D02*
X93385713Y-66754819D01*
X93099999Y-66754819D02*
X93099999Y-65754819D01*
X93099999Y-65754819D02*
X93195237Y-65897676D01*
X93195237Y-65897676D02*
X93290475Y-65992914D01*
X93290475Y-65992914D02*
X93385713Y-66040533D01*
X140217857Y-57992902D02*
X140434524Y-57683378D01*
X140589286Y-57992902D02*
X140589286Y-57342902D01*
X140589286Y-57342902D02*
X140341667Y-57342902D01*
X140341667Y-57342902D02*
X140279762Y-57373854D01*
X140279762Y-57373854D02*
X140248809Y-57404807D01*
X140248809Y-57404807D02*
X140217857Y-57466711D01*
X140217857Y-57466711D02*
X140217857Y-57559569D01*
X140217857Y-57559569D02*
X140248809Y-57621473D01*
X140248809Y-57621473D02*
X140279762Y-57652426D01*
X140279762Y-57652426D02*
X140341667Y-57683378D01*
X140341667Y-57683378D02*
X140589286Y-57683378D01*
X139970238Y-57404807D02*
X139939286Y-57373854D01*
X139939286Y-57373854D02*
X139877381Y-57342902D01*
X139877381Y-57342902D02*
X139722619Y-57342902D01*
X139722619Y-57342902D02*
X139660714Y-57373854D01*
X139660714Y-57373854D02*
X139629762Y-57404807D01*
X139629762Y-57404807D02*
X139598809Y-57466711D01*
X139598809Y-57466711D02*
X139598809Y-57528616D01*
X139598809Y-57528616D02*
X139629762Y-57621473D01*
X139629762Y-57621473D02*
X140001190Y-57992902D01*
X140001190Y-57992902D02*
X139598809Y-57992902D01*
X139289285Y-57992902D02*
X139165476Y-57992902D01*
X139165476Y-57992902D02*
X139103571Y-57961950D01*
X139103571Y-57961950D02*
X139072619Y-57930997D01*
X139072619Y-57930997D02*
X139010714Y-57838140D01*
X139010714Y-57838140D02*
X138979761Y-57714330D01*
X138979761Y-57714330D02*
X138979761Y-57466711D01*
X138979761Y-57466711D02*
X139010714Y-57404807D01*
X139010714Y-57404807D02*
X139041666Y-57373854D01*
X139041666Y-57373854D02*
X139103571Y-57342902D01*
X139103571Y-57342902D02*
X139227380Y-57342902D01*
X139227380Y-57342902D02*
X139289285Y-57373854D01*
X139289285Y-57373854D02*
X139320238Y-57404807D01*
X139320238Y-57404807D02*
X139351190Y-57466711D01*
X139351190Y-57466711D02*
X139351190Y-57621473D01*
X139351190Y-57621473D02*
X139320238Y-57683378D01*
X139320238Y-57683378D02*
X139289285Y-57714330D01*
X139289285Y-57714330D02*
X139227380Y-57745283D01*
X139227380Y-57745283D02*
X139103571Y-57745283D01*
X139103571Y-57745283D02*
X139041666Y-57714330D01*
X139041666Y-57714330D02*
X139010714Y-57683378D01*
X139010714Y-57683378D02*
X138979761Y-57621473D01*
D11*
X157538094Y-81957419D02*
X156966666Y-81957419D01*
X157252380Y-82957419D02*
X157252380Y-81957419D01*
X156633332Y-82957419D02*
X156633332Y-81957419D01*
X156633332Y-81957419D02*
X156252380Y-81957419D01*
X156252380Y-81957419D02*
X156157142Y-82005038D01*
X156157142Y-82005038D02*
X156109523Y-82052657D01*
X156109523Y-82052657D02*
X156061904Y-82147895D01*
X156061904Y-82147895D02*
X156061904Y-82290752D01*
X156061904Y-82290752D02*
X156109523Y-82385990D01*
X156109523Y-82385990D02*
X156157142Y-82433609D01*
X156157142Y-82433609D02*
X156252380Y-82481228D01*
X156252380Y-82481228D02*
X156633332Y-82481228D01*
X155109523Y-82957419D02*
X155680951Y-82957419D01*
X155395237Y-82957419D02*
X155395237Y-81957419D01*
X155395237Y-81957419D02*
X155490475Y-82100276D01*
X155490475Y-82100276D02*
X155585713Y-82195514D01*
X155585713Y-82195514D02*
X155680951Y-82243133D01*
X154728570Y-82052657D02*
X154680951Y-82005038D01*
X154680951Y-82005038D02*
X154585713Y-81957419D01*
X154585713Y-81957419D02*
X154347618Y-81957419D01*
X154347618Y-81957419D02*
X154252380Y-82005038D01*
X154252380Y-82005038D02*
X154204761Y-82052657D01*
X154204761Y-82052657D02*
X154157142Y-82147895D01*
X154157142Y-82147895D02*
X154157142Y-82243133D01*
X154157142Y-82243133D02*
X154204761Y-82385990D01*
X154204761Y-82385990D02*
X154776189Y-82957419D01*
X154776189Y-82957419D02*
X154157142Y-82957419D01*
D10*
X118566666Y-88754819D02*
X118899999Y-88278628D01*
X119138094Y-88754819D02*
X119138094Y-87754819D01*
X119138094Y-87754819D02*
X118757142Y-87754819D01*
X118757142Y-87754819D02*
X118661904Y-87802438D01*
X118661904Y-87802438D02*
X118614285Y-87850057D01*
X118614285Y-87850057D02*
X118566666Y-87945295D01*
X118566666Y-87945295D02*
X118566666Y-88088152D01*
X118566666Y-88088152D02*
X118614285Y-88183390D01*
X118614285Y-88183390D02*
X118661904Y-88231009D01*
X118661904Y-88231009D02*
X118757142Y-88278628D01*
X118757142Y-88278628D02*
X119138094Y-88278628D01*
X118233332Y-87754819D02*
X117566666Y-87754819D01*
X117566666Y-87754819D02*
X117995237Y-88754819D01*
X140017857Y-83192902D02*
X140234524Y-82883378D01*
X140389286Y-83192902D02*
X140389286Y-82542902D01*
X140389286Y-82542902D02*
X140141667Y-82542902D01*
X140141667Y-82542902D02*
X140079762Y-82573854D01*
X140079762Y-82573854D02*
X140048809Y-82604807D01*
X140048809Y-82604807D02*
X140017857Y-82666711D01*
X140017857Y-82666711D02*
X140017857Y-82759569D01*
X140017857Y-82759569D02*
X140048809Y-82821473D01*
X140048809Y-82821473D02*
X140079762Y-82852426D01*
X140079762Y-82852426D02*
X140141667Y-82883378D01*
X140141667Y-82883378D02*
X140389286Y-82883378D01*
X139398809Y-83192902D02*
X139770238Y-83192902D01*
X139584524Y-83192902D02*
X139584524Y-82542902D01*
X139584524Y-82542902D02*
X139646428Y-82635759D01*
X139646428Y-82635759D02*
X139708333Y-82697664D01*
X139708333Y-82697664D02*
X139770238Y-82728616D01*
X139089285Y-83192902D02*
X138965476Y-83192902D01*
X138965476Y-83192902D02*
X138903571Y-83161950D01*
X138903571Y-83161950D02*
X138872619Y-83130997D01*
X138872619Y-83130997D02*
X138810714Y-83038140D01*
X138810714Y-83038140D02*
X138779761Y-82914330D01*
X138779761Y-82914330D02*
X138779761Y-82666711D01*
X138779761Y-82666711D02*
X138810714Y-82604807D01*
X138810714Y-82604807D02*
X138841666Y-82573854D01*
X138841666Y-82573854D02*
X138903571Y-82542902D01*
X138903571Y-82542902D02*
X139027380Y-82542902D01*
X139027380Y-82542902D02*
X139089285Y-82573854D01*
X139089285Y-82573854D02*
X139120238Y-82604807D01*
X139120238Y-82604807D02*
X139151190Y-82666711D01*
X139151190Y-82666711D02*
X139151190Y-82821473D01*
X139151190Y-82821473D02*
X139120238Y-82883378D01*
X139120238Y-82883378D02*
X139089285Y-82914330D01*
X139089285Y-82914330D02*
X139027380Y-82945283D01*
X139027380Y-82945283D02*
X138903571Y-82945283D01*
X138903571Y-82945283D02*
X138841666Y-82914330D01*
X138841666Y-82914330D02*
X138810714Y-82883378D01*
X138810714Y-82883378D02*
X138779761Y-82821473D01*
X92738094Y-56254819D02*
X92738094Y-55254819D01*
X92738094Y-55254819D02*
X92499999Y-55254819D01*
X92499999Y-55254819D02*
X92357142Y-55302438D01*
X92357142Y-55302438D02*
X92261904Y-55397676D01*
X92261904Y-55397676D02*
X92214285Y-55492914D01*
X92214285Y-55492914D02*
X92166666Y-55683390D01*
X92166666Y-55683390D02*
X92166666Y-55826247D01*
X92166666Y-55826247D02*
X92214285Y-56016723D01*
X92214285Y-56016723D02*
X92261904Y-56111961D01*
X92261904Y-56111961D02*
X92357142Y-56207200D01*
X92357142Y-56207200D02*
X92499999Y-56254819D01*
X92499999Y-56254819D02*
X92738094Y-56254819D01*
X91261904Y-55254819D02*
X91738094Y-55254819D01*
X91738094Y-55254819D02*
X91785713Y-55731009D01*
X91785713Y-55731009D02*
X91738094Y-55683390D01*
X91738094Y-55683390D02*
X91642856Y-55635771D01*
X91642856Y-55635771D02*
X91404761Y-55635771D01*
X91404761Y-55635771D02*
X91309523Y-55683390D01*
X91309523Y-55683390D02*
X91261904Y-55731009D01*
X91261904Y-55731009D02*
X91214285Y-55826247D01*
X91214285Y-55826247D02*
X91214285Y-56064342D01*
X91214285Y-56064342D02*
X91261904Y-56159580D01*
X91261904Y-56159580D02*
X91309523Y-56207200D01*
X91309523Y-56207200D02*
X91404761Y-56254819D01*
X91404761Y-56254819D02*
X91642856Y-56254819D01*
X91642856Y-56254819D02*
X91738094Y-56207200D01*
X91738094Y-56207200D02*
X91785713Y-56159580D01*
X133459580Y-57857142D02*
X133507200Y-57809523D01*
X133507200Y-57809523D02*
X133554819Y-57666666D01*
X133554819Y-57666666D02*
X133554819Y-57571428D01*
X133554819Y-57571428D02*
X133507200Y-57428571D01*
X133507200Y-57428571D02*
X133411961Y-57333333D01*
X133411961Y-57333333D02*
X133316723Y-57285714D01*
X133316723Y-57285714D02*
X133126247Y-57238095D01*
X133126247Y-57238095D02*
X132983390Y-57238095D01*
X132983390Y-57238095D02*
X132792914Y-57285714D01*
X132792914Y-57285714D02*
X132697676Y-57333333D01*
X132697676Y-57333333D02*
X132602438Y-57428571D01*
X132602438Y-57428571D02*
X132554819Y-57571428D01*
X132554819Y-57571428D02*
X132554819Y-57666666D01*
X132554819Y-57666666D02*
X132602438Y-57809523D01*
X132602438Y-57809523D02*
X132650057Y-57857142D01*
X133554819Y-58809523D02*
X133554819Y-58238095D01*
X133554819Y-58523809D02*
X132554819Y-58523809D01*
X132554819Y-58523809D02*
X132697676Y-58428571D01*
X132697676Y-58428571D02*
X132792914Y-58333333D01*
X132792914Y-58333333D02*
X132840533Y-58238095D01*
X132554819Y-59428571D02*
X132554819Y-59523809D01*
X132554819Y-59523809D02*
X132602438Y-59619047D01*
X132602438Y-59619047D02*
X132650057Y-59666666D01*
X132650057Y-59666666D02*
X132745295Y-59714285D01*
X132745295Y-59714285D02*
X132935771Y-59761904D01*
X132935771Y-59761904D02*
X133173866Y-59761904D01*
X133173866Y-59761904D02*
X133364342Y-59714285D01*
X133364342Y-59714285D02*
X133459580Y-59666666D01*
X133459580Y-59666666D02*
X133507200Y-59619047D01*
X133507200Y-59619047D02*
X133554819Y-59523809D01*
X133554819Y-59523809D02*
X133554819Y-59428571D01*
X133554819Y-59428571D02*
X133507200Y-59333333D01*
X133507200Y-59333333D02*
X133459580Y-59285714D01*
X133459580Y-59285714D02*
X133364342Y-59238095D01*
X133364342Y-59238095D02*
X133173866Y-59190476D01*
X133173866Y-59190476D02*
X132935771Y-59190476D01*
X132935771Y-59190476D02*
X132745295Y-59238095D01*
X132745295Y-59238095D02*
X132650057Y-59285714D01*
X132650057Y-59285714D02*
X132602438Y-59333333D01*
X132602438Y-59333333D02*
X132554819Y-59428571D01*
X140117857Y-59592902D02*
X140334524Y-59283378D01*
X140489286Y-59592902D02*
X140489286Y-58942902D01*
X140489286Y-58942902D02*
X140241667Y-58942902D01*
X140241667Y-58942902D02*
X140179762Y-58973854D01*
X140179762Y-58973854D02*
X140148809Y-59004807D01*
X140148809Y-59004807D02*
X140117857Y-59066711D01*
X140117857Y-59066711D02*
X140117857Y-59159569D01*
X140117857Y-59159569D02*
X140148809Y-59221473D01*
X140148809Y-59221473D02*
X140179762Y-59252426D01*
X140179762Y-59252426D02*
X140241667Y-59283378D01*
X140241667Y-59283378D02*
X140489286Y-59283378D01*
X139870238Y-59004807D02*
X139839286Y-58973854D01*
X139839286Y-58973854D02*
X139777381Y-58942902D01*
X139777381Y-58942902D02*
X139622619Y-58942902D01*
X139622619Y-58942902D02*
X139560714Y-58973854D01*
X139560714Y-58973854D02*
X139529762Y-59004807D01*
X139529762Y-59004807D02*
X139498809Y-59066711D01*
X139498809Y-59066711D02*
X139498809Y-59128616D01*
X139498809Y-59128616D02*
X139529762Y-59221473D01*
X139529762Y-59221473D02*
X139901190Y-59592902D01*
X139901190Y-59592902D02*
X139498809Y-59592902D01*
X139127380Y-59221473D02*
X139189285Y-59190521D01*
X139189285Y-59190521D02*
X139220238Y-59159569D01*
X139220238Y-59159569D02*
X139251190Y-59097664D01*
X139251190Y-59097664D02*
X139251190Y-59066711D01*
X139251190Y-59066711D02*
X139220238Y-59004807D01*
X139220238Y-59004807D02*
X139189285Y-58973854D01*
X139189285Y-58973854D02*
X139127380Y-58942902D01*
X139127380Y-58942902D02*
X139003571Y-58942902D01*
X139003571Y-58942902D02*
X138941666Y-58973854D01*
X138941666Y-58973854D02*
X138910714Y-59004807D01*
X138910714Y-59004807D02*
X138879761Y-59066711D01*
X138879761Y-59066711D02*
X138879761Y-59097664D01*
X138879761Y-59097664D02*
X138910714Y-59159569D01*
X138910714Y-59159569D02*
X138941666Y-59190521D01*
X138941666Y-59190521D02*
X139003571Y-59221473D01*
X139003571Y-59221473D02*
X139127380Y-59221473D01*
X139127380Y-59221473D02*
X139189285Y-59252426D01*
X139189285Y-59252426D02*
X139220238Y-59283378D01*
X139220238Y-59283378D02*
X139251190Y-59345283D01*
X139251190Y-59345283D02*
X139251190Y-59469092D01*
X139251190Y-59469092D02*
X139220238Y-59530997D01*
X139220238Y-59530997D02*
X139189285Y-59561950D01*
X139189285Y-59561950D02*
X139127380Y-59592902D01*
X139127380Y-59592902D02*
X139003571Y-59592902D01*
X139003571Y-59592902D02*
X138941666Y-59561950D01*
X138941666Y-59561950D02*
X138910714Y-59530997D01*
X138910714Y-59530997D02*
X138879761Y-59469092D01*
X138879761Y-59469092D02*
X138879761Y-59345283D01*
X138879761Y-59345283D02*
X138910714Y-59283378D01*
X138910714Y-59283378D02*
X138941666Y-59252426D01*
X138941666Y-59252426D02*
X139003571Y-59221473D01*
X117642857Y-56074080D02*
X117690476Y-56121700D01*
X117690476Y-56121700D02*
X117833333Y-56169319D01*
X117833333Y-56169319D02*
X117928571Y-56169319D01*
X117928571Y-56169319D02*
X118071428Y-56121700D01*
X118071428Y-56121700D02*
X118166666Y-56026461D01*
X118166666Y-56026461D02*
X118214285Y-55931223D01*
X118214285Y-55931223D02*
X118261904Y-55740747D01*
X118261904Y-55740747D02*
X118261904Y-55597890D01*
X118261904Y-55597890D02*
X118214285Y-55407414D01*
X118214285Y-55407414D02*
X118166666Y-55312176D01*
X118166666Y-55312176D02*
X118071428Y-55216938D01*
X118071428Y-55216938D02*
X117928571Y-55169319D01*
X117928571Y-55169319D02*
X117833333Y-55169319D01*
X117833333Y-55169319D02*
X117690476Y-55216938D01*
X117690476Y-55216938D02*
X117642857Y-55264557D01*
X116690476Y-56169319D02*
X117261904Y-56169319D01*
X116976190Y-56169319D02*
X116976190Y-55169319D01*
X116976190Y-55169319D02*
X117071428Y-55312176D01*
X117071428Y-55312176D02*
X117166666Y-55407414D01*
X117166666Y-55407414D02*
X117261904Y-55455033D01*
X116119047Y-55597890D02*
X116214285Y-55550271D01*
X116214285Y-55550271D02*
X116261904Y-55502652D01*
X116261904Y-55502652D02*
X116309523Y-55407414D01*
X116309523Y-55407414D02*
X116309523Y-55359795D01*
X116309523Y-55359795D02*
X116261904Y-55264557D01*
X116261904Y-55264557D02*
X116214285Y-55216938D01*
X116214285Y-55216938D02*
X116119047Y-55169319D01*
X116119047Y-55169319D02*
X115928571Y-55169319D01*
X115928571Y-55169319D02*
X115833333Y-55216938D01*
X115833333Y-55216938D02*
X115785714Y-55264557D01*
X115785714Y-55264557D02*
X115738095Y-55359795D01*
X115738095Y-55359795D02*
X115738095Y-55407414D01*
X115738095Y-55407414D02*
X115785714Y-55502652D01*
X115785714Y-55502652D02*
X115833333Y-55550271D01*
X115833333Y-55550271D02*
X115928571Y-55597890D01*
X115928571Y-55597890D02*
X116119047Y-55597890D01*
X116119047Y-55597890D02*
X116214285Y-55645509D01*
X116214285Y-55645509D02*
X116261904Y-55693128D01*
X116261904Y-55693128D02*
X116309523Y-55788366D01*
X116309523Y-55788366D02*
X116309523Y-55978842D01*
X116309523Y-55978842D02*
X116261904Y-56074080D01*
X116261904Y-56074080D02*
X116214285Y-56121700D01*
X116214285Y-56121700D02*
X116119047Y-56169319D01*
X116119047Y-56169319D02*
X115928571Y-56169319D01*
X115928571Y-56169319D02*
X115833333Y-56121700D01*
X115833333Y-56121700D02*
X115785714Y-56074080D01*
X115785714Y-56074080D02*
X115738095Y-55978842D01*
X115738095Y-55978842D02*
X115738095Y-55788366D01*
X115738095Y-55788366D02*
X115785714Y-55693128D01*
X115785714Y-55693128D02*
X115833333Y-55645509D01*
X115833333Y-55645509D02*
X115928571Y-55597890D01*
D11*
X149638094Y-66957419D02*
X149066666Y-66957419D01*
X149352380Y-67957419D02*
X149352380Y-66957419D01*
X148733332Y-67957419D02*
X148733332Y-66957419D01*
X148733332Y-66957419D02*
X148352380Y-66957419D01*
X148352380Y-66957419D02*
X148257142Y-67005038D01*
X148257142Y-67005038D02*
X148209523Y-67052657D01*
X148209523Y-67052657D02*
X148161904Y-67147895D01*
X148161904Y-67147895D02*
X148161904Y-67290752D01*
X148161904Y-67290752D02*
X148209523Y-67385990D01*
X148209523Y-67385990D02*
X148257142Y-67433609D01*
X148257142Y-67433609D02*
X148352380Y-67481228D01*
X148352380Y-67481228D02*
X148733332Y-67481228D01*
X147209523Y-67957419D02*
X147780951Y-67957419D01*
X147495237Y-67957419D02*
X147495237Y-66957419D01*
X147495237Y-66957419D02*
X147590475Y-67100276D01*
X147590475Y-67100276D02*
X147685713Y-67195514D01*
X147685713Y-67195514D02*
X147780951Y-67243133D01*
X146876189Y-66957419D02*
X146209523Y-66957419D01*
X146209523Y-66957419D02*
X146638094Y-67957419D01*
D10*
X140442857Y-54359580D02*
X140490476Y-54407200D01*
X140490476Y-54407200D02*
X140633333Y-54454819D01*
X140633333Y-54454819D02*
X140728571Y-54454819D01*
X140728571Y-54454819D02*
X140871428Y-54407200D01*
X140871428Y-54407200D02*
X140966666Y-54311961D01*
X140966666Y-54311961D02*
X141014285Y-54216723D01*
X141014285Y-54216723D02*
X141061904Y-54026247D01*
X141061904Y-54026247D02*
X141061904Y-53883390D01*
X141061904Y-53883390D02*
X141014285Y-53692914D01*
X141014285Y-53692914D02*
X140966666Y-53597676D01*
X140966666Y-53597676D02*
X140871428Y-53502438D01*
X140871428Y-53502438D02*
X140728571Y-53454819D01*
X140728571Y-53454819D02*
X140633333Y-53454819D01*
X140633333Y-53454819D02*
X140490476Y-53502438D01*
X140490476Y-53502438D02*
X140442857Y-53550057D01*
X140109523Y-53454819D02*
X139490476Y-53454819D01*
X139490476Y-53454819D02*
X139823809Y-53835771D01*
X139823809Y-53835771D02*
X139680952Y-53835771D01*
X139680952Y-53835771D02*
X139585714Y-53883390D01*
X139585714Y-53883390D02*
X139538095Y-53931009D01*
X139538095Y-53931009D02*
X139490476Y-54026247D01*
X139490476Y-54026247D02*
X139490476Y-54264342D01*
X139490476Y-54264342D02*
X139538095Y-54359580D01*
X139538095Y-54359580D02*
X139585714Y-54407200D01*
X139585714Y-54407200D02*
X139680952Y-54454819D01*
X139680952Y-54454819D02*
X139966666Y-54454819D01*
X139966666Y-54454819D02*
X140061904Y-54407200D01*
X140061904Y-54407200D02*
X140109523Y-54359580D01*
X138871428Y-53454819D02*
X138776190Y-53454819D01*
X138776190Y-53454819D02*
X138680952Y-53502438D01*
X138680952Y-53502438D02*
X138633333Y-53550057D01*
X138633333Y-53550057D02*
X138585714Y-53645295D01*
X138585714Y-53645295D02*
X138538095Y-53835771D01*
X138538095Y-53835771D02*
X138538095Y-54073866D01*
X138538095Y-54073866D02*
X138585714Y-54264342D01*
X138585714Y-54264342D02*
X138633333Y-54359580D01*
X138633333Y-54359580D02*
X138680952Y-54407200D01*
X138680952Y-54407200D02*
X138776190Y-54454819D01*
X138776190Y-54454819D02*
X138871428Y-54454819D01*
X138871428Y-54454819D02*
X138966666Y-54407200D01*
X138966666Y-54407200D02*
X139014285Y-54359580D01*
X139014285Y-54359580D02*
X139061904Y-54264342D01*
X139061904Y-54264342D02*
X139109523Y-54073866D01*
X139109523Y-54073866D02*
X139109523Y-53835771D01*
X139109523Y-53835771D02*
X139061904Y-53645295D01*
X139061904Y-53645295D02*
X139014285Y-53550057D01*
X139014285Y-53550057D02*
X138966666Y-53502438D01*
X138966666Y-53502438D02*
X138871428Y-53454819D01*
X140017857Y-81592902D02*
X140234524Y-81283378D01*
X140389286Y-81592902D02*
X140389286Y-80942902D01*
X140389286Y-80942902D02*
X140141667Y-80942902D01*
X140141667Y-80942902D02*
X140079762Y-80973854D01*
X140079762Y-80973854D02*
X140048809Y-81004807D01*
X140048809Y-81004807D02*
X140017857Y-81066711D01*
X140017857Y-81066711D02*
X140017857Y-81159569D01*
X140017857Y-81159569D02*
X140048809Y-81221473D01*
X140048809Y-81221473D02*
X140079762Y-81252426D01*
X140079762Y-81252426D02*
X140141667Y-81283378D01*
X140141667Y-81283378D02*
X140389286Y-81283378D01*
X139770238Y-81004807D02*
X139739286Y-80973854D01*
X139739286Y-80973854D02*
X139677381Y-80942902D01*
X139677381Y-80942902D02*
X139522619Y-80942902D01*
X139522619Y-80942902D02*
X139460714Y-80973854D01*
X139460714Y-80973854D02*
X139429762Y-81004807D01*
X139429762Y-81004807D02*
X139398809Y-81066711D01*
X139398809Y-81066711D02*
X139398809Y-81128616D01*
X139398809Y-81128616D02*
X139429762Y-81221473D01*
X139429762Y-81221473D02*
X139801190Y-81592902D01*
X139801190Y-81592902D02*
X139398809Y-81592902D01*
X138996428Y-80942902D02*
X138934523Y-80942902D01*
X138934523Y-80942902D02*
X138872619Y-80973854D01*
X138872619Y-80973854D02*
X138841666Y-81004807D01*
X138841666Y-81004807D02*
X138810714Y-81066711D01*
X138810714Y-81066711D02*
X138779761Y-81190521D01*
X138779761Y-81190521D02*
X138779761Y-81345283D01*
X138779761Y-81345283D02*
X138810714Y-81469092D01*
X138810714Y-81469092D02*
X138841666Y-81530997D01*
X138841666Y-81530997D02*
X138872619Y-81561950D01*
X138872619Y-81561950D02*
X138934523Y-81592902D01*
X138934523Y-81592902D02*
X138996428Y-81592902D01*
X138996428Y-81592902D02*
X139058333Y-81561950D01*
X139058333Y-81561950D02*
X139089285Y-81530997D01*
X139089285Y-81530997D02*
X139120238Y-81469092D01*
X139120238Y-81469092D02*
X139151190Y-81345283D01*
X139151190Y-81345283D02*
X139151190Y-81190521D01*
X139151190Y-81190521D02*
X139120238Y-81066711D01*
X139120238Y-81066711D02*
X139089285Y-81004807D01*
X139089285Y-81004807D02*
X139058333Y-80973854D01*
X139058333Y-80973854D02*
X138996428Y-80942902D01*
D11*
X160738094Y-83757419D02*
X160166666Y-83757419D01*
X160452380Y-84757419D02*
X160452380Y-83757419D01*
X159833332Y-84757419D02*
X159833332Y-83757419D01*
X159833332Y-83757419D02*
X159452380Y-83757419D01*
X159452380Y-83757419D02*
X159357142Y-83805038D01*
X159357142Y-83805038D02*
X159309523Y-83852657D01*
X159309523Y-83852657D02*
X159261904Y-83947895D01*
X159261904Y-83947895D02*
X159261904Y-84090752D01*
X159261904Y-84090752D02*
X159309523Y-84185990D01*
X159309523Y-84185990D02*
X159357142Y-84233609D01*
X159357142Y-84233609D02*
X159452380Y-84281228D01*
X159452380Y-84281228D02*
X159833332Y-84281228D01*
X158880951Y-83852657D02*
X158833332Y-83805038D01*
X158833332Y-83805038D02*
X158738094Y-83757419D01*
X158738094Y-83757419D02*
X158499999Y-83757419D01*
X158499999Y-83757419D02*
X158404761Y-83805038D01*
X158404761Y-83805038D02*
X158357142Y-83852657D01*
X158357142Y-83852657D02*
X158309523Y-83947895D01*
X158309523Y-83947895D02*
X158309523Y-84043133D01*
X158309523Y-84043133D02*
X158357142Y-84185990D01*
X158357142Y-84185990D02*
X158928570Y-84757419D01*
X158928570Y-84757419D02*
X158309523Y-84757419D01*
X157404761Y-83757419D02*
X157880951Y-83757419D01*
X157880951Y-83757419D02*
X157928570Y-84233609D01*
X157928570Y-84233609D02*
X157880951Y-84185990D01*
X157880951Y-84185990D02*
X157785713Y-84138371D01*
X157785713Y-84138371D02*
X157547618Y-84138371D01*
X157547618Y-84138371D02*
X157452380Y-84185990D01*
X157452380Y-84185990D02*
X157404761Y-84233609D01*
X157404761Y-84233609D02*
X157357142Y-84328847D01*
X157357142Y-84328847D02*
X157357142Y-84566942D01*
X157357142Y-84566942D02*
X157404761Y-84662180D01*
X157404761Y-84662180D02*
X157452380Y-84709800D01*
X157452380Y-84709800D02*
X157547618Y-84757419D01*
X157547618Y-84757419D02*
X157785713Y-84757419D01*
X157785713Y-84757419D02*
X157880951Y-84709800D01*
X157880951Y-84709800D02*
X157928570Y-84662180D01*
X149138094Y-58857419D02*
X148566666Y-58857419D01*
X148852380Y-59857419D02*
X148852380Y-58857419D01*
X148233332Y-59857419D02*
X148233332Y-58857419D01*
X148233332Y-58857419D02*
X147852380Y-58857419D01*
X147852380Y-58857419D02*
X147757142Y-58905038D01*
X147757142Y-58905038D02*
X147709523Y-58952657D01*
X147709523Y-58952657D02*
X147661904Y-59047895D01*
X147661904Y-59047895D02*
X147661904Y-59190752D01*
X147661904Y-59190752D02*
X147709523Y-59285990D01*
X147709523Y-59285990D02*
X147757142Y-59333609D01*
X147757142Y-59333609D02*
X147852380Y-59381228D01*
X147852380Y-59381228D02*
X148233332Y-59381228D01*
X146709523Y-59857419D02*
X147280951Y-59857419D01*
X146995237Y-59857419D02*
X146995237Y-58857419D01*
X146995237Y-58857419D02*
X147090475Y-59000276D01*
X147090475Y-59000276D02*
X147185713Y-59095514D01*
X147185713Y-59095514D02*
X147280951Y-59143133D01*
X145804761Y-58857419D02*
X146280951Y-58857419D01*
X146280951Y-58857419D02*
X146328570Y-59333609D01*
X146328570Y-59333609D02*
X146280951Y-59285990D01*
X146280951Y-59285990D02*
X146185713Y-59238371D01*
X146185713Y-59238371D02*
X145947618Y-59238371D01*
X145947618Y-59238371D02*
X145852380Y-59285990D01*
X145852380Y-59285990D02*
X145804761Y-59333609D01*
X145804761Y-59333609D02*
X145757142Y-59428847D01*
X145757142Y-59428847D02*
X145757142Y-59666942D01*
X145757142Y-59666942D02*
X145804761Y-59762180D01*
X145804761Y-59762180D02*
X145852380Y-59809800D01*
X145852380Y-59809800D02*
X145947618Y-59857419D01*
X145947618Y-59857419D02*
X146185713Y-59857419D01*
X146185713Y-59857419D02*
X146280951Y-59809800D01*
X146280951Y-59809800D02*
X146328570Y-59762180D01*
X156561904Y-57457419D02*
X155990476Y-57457419D01*
X156276190Y-58457419D02*
X156276190Y-57457419D01*
X155657142Y-58457419D02*
X155657142Y-57457419D01*
X155657142Y-57457419D02*
X155276190Y-57457419D01*
X155276190Y-57457419D02*
X155180952Y-57505038D01*
X155180952Y-57505038D02*
X155133333Y-57552657D01*
X155133333Y-57552657D02*
X155085714Y-57647895D01*
X155085714Y-57647895D02*
X155085714Y-57790752D01*
X155085714Y-57790752D02*
X155133333Y-57885990D01*
X155133333Y-57885990D02*
X155180952Y-57933609D01*
X155180952Y-57933609D02*
X155276190Y-57981228D01*
X155276190Y-57981228D02*
X155657142Y-57981228D01*
X154704761Y-57552657D02*
X154657142Y-57505038D01*
X154657142Y-57505038D02*
X154561904Y-57457419D01*
X154561904Y-57457419D02*
X154323809Y-57457419D01*
X154323809Y-57457419D02*
X154228571Y-57505038D01*
X154228571Y-57505038D02*
X154180952Y-57552657D01*
X154180952Y-57552657D02*
X154133333Y-57647895D01*
X154133333Y-57647895D02*
X154133333Y-57743133D01*
X154133333Y-57743133D02*
X154180952Y-57885990D01*
X154180952Y-57885990D02*
X154752380Y-58457419D01*
X154752380Y-58457419D02*
X154133333Y-58457419D01*
D10*
X115599819Y-80763095D02*
X116409342Y-80763095D01*
X116409342Y-80763095D02*
X116504580Y-80810714D01*
X116504580Y-80810714D02*
X116552200Y-80858333D01*
X116552200Y-80858333D02*
X116599819Y-80953571D01*
X116599819Y-80953571D02*
X116599819Y-81144047D01*
X116599819Y-81144047D02*
X116552200Y-81239285D01*
X116552200Y-81239285D02*
X116504580Y-81286904D01*
X116504580Y-81286904D02*
X116409342Y-81334523D01*
X116409342Y-81334523D02*
X115599819Y-81334523D01*
X115695057Y-81763095D02*
X115647438Y-81810714D01*
X115647438Y-81810714D02*
X115599819Y-81905952D01*
X115599819Y-81905952D02*
X115599819Y-82144047D01*
X115599819Y-82144047D02*
X115647438Y-82239285D01*
X115647438Y-82239285D02*
X115695057Y-82286904D01*
X115695057Y-82286904D02*
X115790295Y-82334523D01*
X115790295Y-82334523D02*
X115885533Y-82334523D01*
X115885533Y-82334523D02*
X116028390Y-82286904D01*
X116028390Y-82286904D02*
X116599819Y-81715476D01*
X116599819Y-81715476D02*
X116599819Y-82334523D01*
D11*
X157161904Y-69357419D02*
X156590476Y-69357419D01*
X156876190Y-70357419D02*
X156876190Y-69357419D01*
X156257142Y-70357419D02*
X156257142Y-69357419D01*
X156257142Y-69357419D02*
X155876190Y-69357419D01*
X155876190Y-69357419D02*
X155780952Y-69405038D01*
X155780952Y-69405038D02*
X155733333Y-69452657D01*
X155733333Y-69452657D02*
X155685714Y-69547895D01*
X155685714Y-69547895D02*
X155685714Y-69690752D01*
X155685714Y-69690752D02*
X155733333Y-69785990D01*
X155733333Y-69785990D02*
X155780952Y-69833609D01*
X155780952Y-69833609D02*
X155876190Y-69881228D01*
X155876190Y-69881228D02*
X156257142Y-69881228D01*
X155352380Y-69357419D02*
X154685714Y-69357419D01*
X154685714Y-69357419D02*
X155114285Y-70357419D01*
D10*
X156894404Y-98467319D02*
X156894404Y-99276842D01*
X156894404Y-99276842D02*
X156846785Y-99372080D01*
X156846785Y-99372080D02*
X156799166Y-99419700D01*
X156799166Y-99419700D02*
X156703928Y-99467319D01*
X156703928Y-99467319D02*
X156513452Y-99467319D01*
X156513452Y-99467319D02*
X156418214Y-99419700D01*
X156418214Y-99419700D02*
X156370595Y-99372080D01*
X156370595Y-99372080D02*
X156322976Y-99276842D01*
X156322976Y-99276842D02*
X156322976Y-98467319D01*
X155370595Y-98467319D02*
X155846785Y-98467319D01*
X155846785Y-98467319D02*
X155894404Y-98943509D01*
X155894404Y-98943509D02*
X155846785Y-98895890D01*
X155846785Y-98895890D02*
X155751547Y-98848271D01*
X155751547Y-98848271D02*
X155513452Y-98848271D01*
X155513452Y-98848271D02*
X155418214Y-98895890D01*
X155418214Y-98895890D02*
X155370595Y-98943509D01*
X155370595Y-98943509D02*
X155322976Y-99038747D01*
X155322976Y-99038747D02*
X155322976Y-99276842D01*
X155322976Y-99276842D02*
X155370595Y-99372080D01*
X155370595Y-99372080D02*
X155418214Y-99419700D01*
X155418214Y-99419700D02*
X155513452Y-99467319D01*
X155513452Y-99467319D02*
X155751547Y-99467319D01*
X155751547Y-99467319D02*
X155846785Y-99419700D01*
X155846785Y-99419700D02*
X155894404Y-99372080D01*
D11*
X156461904Y-68157419D02*
X155890476Y-68157419D01*
X156176190Y-69157419D02*
X156176190Y-68157419D01*
X155557142Y-69157419D02*
X155557142Y-68157419D01*
X155557142Y-68157419D02*
X155176190Y-68157419D01*
X155176190Y-68157419D02*
X155080952Y-68205038D01*
X155080952Y-68205038D02*
X155033333Y-68252657D01*
X155033333Y-68252657D02*
X154985714Y-68347895D01*
X154985714Y-68347895D02*
X154985714Y-68490752D01*
X154985714Y-68490752D02*
X155033333Y-68585990D01*
X155033333Y-68585990D02*
X155080952Y-68633609D01*
X155080952Y-68633609D02*
X155176190Y-68681228D01*
X155176190Y-68681228D02*
X155557142Y-68681228D01*
X154128571Y-68157419D02*
X154319047Y-68157419D01*
X154319047Y-68157419D02*
X154414285Y-68205038D01*
X154414285Y-68205038D02*
X154461904Y-68252657D01*
X154461904Y-68252657D02*
X154557142Y-68395514D01*
X154557142Y-68395514D02*
X154604761Y-68585990D01*
X154604761Y-68585990D02*
X154604761Y-68966942D01*
X154604761Y-68966942D02*
X154557142Y-69062180D01*
X154557142Y-69062180D02*
X154509523Y-69109800D01*
X154509523Y-69109800D02*
X154414285Y-69157419D01*
X154414285Y-69157419D02*
X154223809Y-69157419D01*
X154223809Y-69157419D02*
X154128571Y-69109800D01*
X154128571Y-69109800D02*
X154080952Y-69062180D01*
X154080952Y-69062180D02*
X154033333Y-68966942D01*
X154033333Y-68966942D02*
X154033333Y-68728847D01*
X154033333Y-68728847D02*
X154080952Y-68633609D01*
X154080952Y-68633609D02*
X154128571Y-68585990D01*
X154128571Y-68585990D02*
X154223809Y-68538371D01*
X154223809Y-68538371D02*
X154414285Y-68538371D01*
X154414285Y-68538371D02*
X154509523Y-68585990D01*
X154509523Y-68585990D02*
X154557142Y-68633609D01*
X154557142Y-68633609D02*
X154604761Y-68728847D01*
X156561904Y-58657419D02*
X155990476Y-58657419D01*
X156276190Y-59657419D02*
X156276190Y-58657419D01*
X155657142Y-59657419D02*
X155657142Y-58657419D01*
X155657142Y-58657419D02*
X155276190Y-58657419D01*
X155276190Y-58657419D02*
X155180952Y-58705038D01*
X155180952Y-58705038D02*
X155133333Y-58752657D01*
X155133333Y-58752657D02*
X155085714Y-58847895D01*
X155085714Y-58847895D02*
X155085714Y-58990752D01*
X155085714Y-58990752D02*
X155133333Y-59085990D01*
X155133333Y-59085990D02*
X155180952Y-59133609D01*
X155180952Y-59133609D02*
X155276190Y-59181228D01*
X155276190Y-59181228D02*
X155657142Y-59181228D01*
X154752380Y-58657419D02*
X154133333Y-58657419D01*
X154133333Y-58657419D02*
X154466666Y-59038371D01*
X154466666Y-59038371D02*
X154323809Y-59038371D01*
X154323809Y-59038371D02*
X154228571Y-59085990D01*
X154228571Y-59085990D02*
X154180952Y-59133609D01*
X154180952Y-59133609D02*
X154133333Y-59228847D01*
X154133333Y-59228847D02*
X154133333Y-59466942D01*
X154133333Y-59466942D02*
X154180952Y-59562180D01*
X154180952Y-59562180D02*
X154228571Y-59609800D01*
X154228571Y-59609800D02*
X154323809Y-59657419D01*
X154323809Y-59657419D02*
X154609523Y-59657419D01*
X154609523Y-59657419D02*
X154704761Y-59609800D01*
X154704761Y-59609800D02*
X154752380Y-59562180D01*
D10*
X140942857Y-63459580D02*
X140990476Y-63507200D01*
X140990476Y-63507200D02*
X141133333Y-63554819D01*
X141133333Y-63554819D02*
X141228571Y-63554819D01*
X141228571Y-63554819D02*
X141371428Y-63507200D01*
X141371428Y-63507200D02*
X141466666Y-63411961D01*
X141466666Y-63411961D02*
X141514285Y-63316723D01*
X141514285Y-63316723D02*
X141561904Y-63126247D01*
X141561904Y-63126247D02*
X141561904Y-62983390D01*
X141561904Y-62983390D02*
X141514285Y-62792914D01*
X141514285Y-62792914D02*
X141466666Y-62697676D01*
X141466666Y-62697676D02*
X141371428Y-62602438D01*
X141371428Y-62602438D02*
X141228571Y-62554819D01*
X141228571Y-62554819D02*
X141133333Y-62554819D01*
X141133333Y-62554819D02*
X140990476Y-62602438D01*
X140990476Y-62602438D02*
X140942857Y-62650057D01*
X140609523Y-62554819D02*
X139990476Y-62554819D01*
X139990476Y-62554819D02*
X140323809Y-62935771D01*
X140323809Y-62935771D02*
X140180952Y-62935771D01*
X140180952Y-62935771D02*
X140085714Y-62983390D01*
X140085714Y-62983390D02*
X140038095Y-63031009D01*
X140038095Y-63031009D02*
X139990476Y-63126247D01*
X139990476Y-63126247D02*
X139990476Y-63364342D01*
X139990476Y-63364342D02*
X140038095Y-63459580D01*
X140038095Y-63459580D02*
X140085714Y-63507200D01*
X140085714Y-63507200D02*
X140180952Y-63554819D01*
X140180952Y-63554819D02*
X140466666Y-63554819D01*
X140466666Y-63554819D02*
X140561904Y-63507200D01*
X140561904Y-63507200D02*
X140609523Y-63459580D01*
X139609523Y-62650057D02*
X139561904Y-62602438D01*
X139561904Y-62602438D02*
X139466666Y-62554819D01*
X139466666Y-62554819D02*
X139228571Y-62554819D01*
X139228571Y-62554819D02*
X139133333Y-62602438D01*
X139133333Y-62602438D02*
X139085714Y-62650057D01*
X139085714Y-62650057D02*
X139038095Y-62745295D01*
X139038095Y-62745295D02*
X139038095Y-62840533D01*
X139038095Y-62840533D02*
X139085714Y-62983390D01*
X139085714Y-62983390D02*
X139657142Y-63554819D01*
X139657142Y-63554819D02*
X139038095Y-63554819D01*
X140017857Y-79992902D02*
X140234524Y-79683378D01*
X140389286Y-79992902D02*
X140389286Y-79342902D01*
X140389286Y-79342902D02*
X140141667Y-79342902D01*
X140141667Y-79342902D02*
X140079762Y-79373854D01*
X140079762Y-79373854D02*
X140048809Y-79404807D01*
X140048809Y-79404807D02*
X140017857Y-79466711D01*
X140017857Y-79466711D02*
X140017857Y-79559569D01*
X140017857Y-79559569D02*
X140048809Y-79621473D01*
X140048809Y-79621473D02*
X140079762Y-79652426D01*
X140079762Y-79652426D02*
X140141667Y-79683378D01*
X140141667Y-79683378D02*
X140389286Y-79683378D01*
X139770238Y-79404807D02*
X139739286Y-79373854D01*
X139739286Y-79373854D02*
X139677381Y-79342902D01*
X139677381Y-79342902D02*
X139522619Y-79342902D01*
X139522619Y-79342902D02*
X139460714Y-79373854D01*
X139460714Y-79373854D02*
X139429762Y-79404807D01*
X139429762Y-79404807D02*
X139398809Y-79466711D01*
X139398809Y-79466711D02*
X139398809Y-79528616D01*
X139398809Y-79528616D02*
X139429762Y-79621473D01*
X139429762Y-79621473D02*
X139801190Y-79992902D01*
X139801190Y-79992902D02*
X139398809Y-79992902D01*
X138779761Y-79992902D02*
X139151190Y-79992902D01*
X138965476Y-79992902D02*
X138965476Y-79342902D01*
X138965476Y-79342902D02*
X139027380Y-79435759D01*
X139027380Y-79435759D02*
X139089285Y-79497664D01*
X139089285Y-79497664D02*
X139151190Y-79528616D01*
X149159580Y-53607142D02*
X149207200Y-53559523D01*
X149207200Y-53559523D02*
X149254819Y-53416666D01*
X149254819Y-53416666D02*
X149254819Y-53321428D01*
X149254819Y-53321428D02*
X149207200Y-53178571D01*
X149207200Y-53178571D02*
X149111961Y-53083333D01*
X149111961Y-53083333D02*
X149016723Y-53035714D01*
X149016723Y-53035714D02*
X148826247Y-52988095D01*
X148826247Y-52988095D02*
X148683390Y-52988095D01*
X148683390Y-52988095D02*
X148492914Y-53035714D01*
X148492914Y-53035714D02*
X148397676Y-53083333D01*
X148397676Y-53083333D02*
X148302438Y-53178571D01*
X148302438Y-53178571D02*
X148254819Y-53321428D01*
X148254819Y-53321428D02*
X148254819Y-53416666D01*
X148254819Y-53416666D02*
X148302438Y-53559523D01*
X148302438Y-53559523D02*
X148350057Y-53607142D01*
X148350057Y-53988095D02*
X148302438Y-54035714D01*
X148302438Y-54035714D02*
X148254819Y-54130952D01*
X148254819Y-54130952D02*
X148254819Y-54369047D01*
X148254819Y-54369047D02*
X148302438Y-54464285D01*
X148302438Y-54464285D02*
X148350057Y-54511904D01*
X148350057Y-54511904D02*
X148445295Y-54559523D01*
X148445295Y-54559523D02*
X148540533Y-54559523D01*
X148540533Y-54559523D02*
X148683390Y-54511904D01*
X148683390Y-54511904D02*
X149254819Y-53940476D01*
X149254819Y-53940476D02*
X149254819Y-54559523D01*
X148254819Y-54892857D02*
X148254819Y-55511904D01*
X148254819Y-55511904D02*
X148635771Y-55178571D01*
X148635771Y-55178571D02*
X148635771Y-55321428D01*
X148635771Y-55321428D02*
X148683390Y-55416666D01*
X148683390Y-55416666D02*
X148731009Y-55464285D01*
X148731009Y-55464285D02*
X148826247Y-55511904D01*
X148826247Y-55511904D02*
X149064342Y-55511904D01*
X149064342Y-55511904D02*
X149159580Y-55464285D01*
X149159580Y-55464285D02*
X149207200Y-55416666D01*
X149207200Y-55416666D02*
X149254819Y-55321428D01*
X149254819Y-55321428D02*
X149254819Y-55035714D01*
X149254819Y-55035714D02*
X149207200Y-54940476D01*
X149207200Y-54940476D02*
X149159580Y-54892857D01*
D11*
X126738094Y-85357419D02*
X126166666Y-85357419D01*
X126452380Y-86357419D02*
X126452380Y-85357419D01*
X125833332Y-86357419D02*
X125833332Y-85357419D01*
X125833332Y-85357419D02*
X125452380Y-85357419D01*
X125452380Y-85357419D02*
X125357142Y-85405038D01*
X125357142Y-85405038D02*
X125309523Y-85452657D01*
X125309523Y-85452657D02*
X125261904Y-85547895D01*
X125261904Y-85547895D02*
X125261904Y-85690752D01*
X125261904Y-85690752D02*
X125309523Y-85785990D01*
X125309523Y-85785990D02*
X125357142Y-85833609D01*
X125357142Y-85833609D02*
X125452380Y-85881228D01*
X125452380Y-85881228D02*
X125833332Y-85881228D01*
X124880951Y-85452657D02*
X124833332Y-85405038D01*
X124833332Y-85405038D02*
X124738094Y-85357419D01*
X124738094Y-85357419D02*
X124499999Y-85357419D01*
X124499999Y-85357419D02*
X124404761Y-85405038D01*
X124404761Y-85405038D02*
X124357142Y-85452657D01*
X124357142Y-85452657D02*
X124309523Y-85547895D01*
X124309523Y-85547895D02*
X124309523Y-85643133D01*
X124309523Y-85643133D02*
X124357142Y-85785990D01*
X124357142Y-85785990D02*
X124928570Y-86357419D01*
X124928570Y-86357419D02*
X124309523Y-86357419D01*
X123976189Y-85357419D02*
X123309523Y-85357419D01*
X123309523Y-85357419D02*
X123738094Y-86357419D01*
X156561904Y-60057419D02*
X155990476Y-60057419D01*
X156276190Y-61057419D02*
X156276190Y-60057419D01*
X155657142Y-61057419D02*
X155657142Y-60057419D01*
X155657142Y-60057419D02*
X155276190Y-60057419D01*
X155276190Y-60057419D02*
X155180952Y-60105038D01*
X155180952Y-60105038D02*
X155133333Y-60152657D01*
X155133333Y-60152657D02*
X155085714Y-60247895D01*
X155085714Y-60247895D02*
X155085714Y-60390752D01*
X155085714Y-60390752D02*
X155133333Y-60485990D01*
X155133333Y-60485990D02*
X155180952Y-60533609D01*
X155180952Y-60533609D02*
X155276190Y-60581228D01*
X155276190Y-60581228D02*
X155657142Y-60581228D01*
X154228571Y-60390752D02*
X154228571Y-61057419D01*
X154466666Y-60009800D02*
X154704761Y-60724085D01*
X154704761Y-60724085D02*
X154085714Y-60724085D01*
D10*
X129833333Y-40554819D02*
X129833333Y-41269104D01*
X129833333Y-41269104D02*
X129880952Y-41411961D01*
X129880952Y-41411961D02*
X129976190Y-41507200D01*
X129976190Y-41507200D02*
X130119047Y-41554819D01*
X130119047Y-41554819D02*
X130214285Y-41554819D01*
X129404761Y-40650057D02*
X129357142Y-40602438D01*
X129357142Y-40602438D02*
X129261904Y-40554819D01*
X129261904Y-40554819D02*
X129023809Y-40554819D01*
X129023809Y-40554819D02*
X128928571Y-40602438D01*
X128928571Y-40602438D02*
X128880952Y-40650057D01*
X128880952Y-40650057D02*
X128833333Y-40745295D01*
X128833333Y-40745295D02*
X128833333Y-40840533D01*
X128833333Y-40840533D02*
X128880952Y-40983390D01*
X128880952Y-40983390D02*
X129452380Y-41554819D01*
X129452380Y-41554819D02*
X128833333Y-41554819D01*
X100338094Y-66554819D02*
X100338094Y-65554819D01*
X100338094Y-65554819D02*
X100099999Y-65554819D01*
X100099999Y-65554819D02*
X99957142Y-65602438D01*
X99957142Y-65602438D02*
X99861904Y-65697676D01*
X99861904Y-65697676D02*
X99814285Y-65792914D01*
X99814285Y-65792914D02*
X99766666Y-65983390D01*
X99766666Y-65983390D02*
X99766666Y-66126247D01*
X99766666Y-66126247D02*
X99814285Y-66316723D01*
X99814285Y-66316723D02*
X99861904Y-66411961D01*
X99861904Y-66411961D02*
X99957142Y-66507200D01*
X99957142Y-66507200D02*
X100099999Y-66554819D01*
X100099999Y-66554819D02*
X100338094Y-66554819D01*
X99385713Y-65650057D02*
X99338094Y-65602438D01*
X99338094Y-65602438D02*
X99242856Y-65554819D01*
X99242856Y-65554819D02*
X99004761Y-65554819D01*
X99004761Y-65554819D02*
X98909523Y-65602438D01*
X98909523Y-65602438D02*
X98861904Y-65650057D01*
X98861904Y-65650057D02*
X98814285Y-65745295D01*
X98814285Y-65745295D02*
X98814285Y-65840533D01*
X98814285Y-65840533D02*
X98861904Y-65983390D01*
X98861904Y-65983390D02*
X99433332Y-66554819D01*
X99433332Y-66554819D02*
X98814285Y-66554819D01*
D11*
X157461904Y-55157419D02*
X156890476Y-55157419D01*
X157176190Y-56157419D02*
X157176190Y-55157419D01*
X156557142Y-56157419D02*
X156557142Y-55157419D01*
X156557142Y-55157419D02*
X156176190Y-55157419D01*
X156176190Y-55157419D02*
X156080952Y-55205038D01*
X156080952Y-55205038D02*
X156033333Y-55252657D01*
X156033333Y-55252657D02*
X155985714Y-55347895D01*
X155985714Y-55347895D02*
X155985714Y-55490752D01*
X155985714Y-55490752D02*
X156033333Y-55585990D01*
X156033333Y-55585990D02*
X156080952Y-55633609D01*
X156080952Y-55633609D02*
X156176190Y-55681228D01*
X156176190Y-55681228D02*
X156557142Y-55681228D01*
X155033333Y-56157419D02*
X155604761Y-56157419D01*
X155319047Y-56157419D02*
X155319047Y-55157419D01*
X155319047Y-55157419D02*
X155414285Y-55300276D01*
X155414285Y-55300276D02*
X155509523Y-55395514D01*
X155509523Y-55395514D02*
X155604761Y-55443133D01*
X149838094Y-82257419D02*
X149266666Y-82257419D01*
X149552380Y-83257419D02*
X149552380Y-82257419D01*
X148933332Y-83257419D02*
X148933332Y-82257419D01*
X148933332Y-82257419D02*
X148552380Y-82257419D01*
X148552380Y-82257419D02*
X148457142Y-82305038D01*
X148457142Y-82305038D02*
X148409523Y-82352657D01*
X148409523Y-82352657D02*
X148361904Y-82447895D01*
X148361904Y-82447895D02*
X148361904Y-82590752D01*
X148361904Y-82590752D02*
X148409523Y-82685990D01*
X148409523Y-82685990D02*
X148457142Y-82733609D01*
X148457142Y-82733609D02*
X148552380Y-82781228D01*
X148552380Y-82781228D02*
X148933332Y-82781228D01*
X147980951Y-82352657D02*
X147933332Y-82305038D01*
X147933332Y-82305038D02*
X147838094Y-82257419D01*
X147838094Y-82257419D02*
X147599999Y-82257419D01*
X147599999Y-82257419D02*
X147504761Y-82305038D01*
X147504761Y-82305038D02*
X147457142Y-82352657D01*
X147457142Y-82352657D02*
X147409523Y-82447895D01*
X147409523Y-82447895D02*
X147409523Y-82543133D01*
X147409523Y-82543133D02*
X147457142Y-82685990D01*
X147457142Y-82685990D02*
X148028570Y-83257419D01*
X148028570Y-83257419D02*
X147409523Y-83257419D01*
X146552380Y-82590752D02*
X146552380Y-83257419D01*
X146790475Y-82209800D02*
X147028570Y-82924085D01*
X147028570Y-82924085D02*
X146409523Y-82924085D01*
X157638094Y-80457419D02*
X157066666Y-80457419D01*
X157352380Y-81457419D02*
X157352380Y-80457419D01*
X156733332Y-81457419D02*
X156733332Y-80457419D01*
X156733332Y-80457419D02*
X156352380Y-80457419D01*
X156352380Y-80457419D02*
X156257142Y-80505038D01*
X156257142Y-80505038D02*
X156209523Y-80552657D01*
X156209523Y-80552657D02*
X156161904Y-80647895D01*
X156161904Y-80647895D02*
X156161904Y-80790752D01*
X156161904Y-80790752D02*
X156209523Y-80885990D01*
X156209523Y-80885990D02*
X156257142Y-80933609D01*
X156257142Y-80933609D02*
X156352380Y-80981228D01*
X156352380Y-80981228D02*
X156733332Y-80981228D01*
X155209523Y-81457419D02*
X155780951Y-81457419D01*
X155495237Y-81457419D02*
X155495237Y-80457419D01*
X155495237Y-80457419D02*
X155590475Y-80600276D01*
X155590475Y-80600276D02*
X155685713Y-80695514D01*
X155685713Y-80695514D02*
X155780951Y-80743133D01*
X154257142Y-81457419D02*
X154828570Y-81457419D01*
X154542856Y-81457419D02*
X154542856Y-80457419D01*
X154542856Y-80457419D02*
X154638094Y-80600276D01*
X154638094Y-80600276D02*
X154733332Y-80695514D01*
X154733332Y-80695514D02*
X154828570Y-80743133D01*
D10*
X130942857Y-64559580D02*
X130990476Y-64607200D01*
X130990476Y-64607200D02*
X131133333Y-64654819D01*
X131133333Y-64654819D02*
X131228571Y-64654819D01*
X131228571Y-64654819D02*
X131371428Y-64607200D01*
X131371428Y-64607200D02*
X131466666Y-64511961D01*
X131466666Y-64511961D02*
X131514285Y-64416723D01*
X131514285Y-64416723D02*
X131561904Y-64226247D01*
X131561904Y-64226247D02*
X131561904Y-64083390D01*
X131561904Y-64083390D02*
X131514285Y-63892914D01*
X131514285Y-63892914D02*
X131466666Y-63797676D01*
X131466666Y-63797676D02*
X131371428Y-63702438D01*
X131371428Y-63702438D02*
X131228571Y-63654819D01*
X131228571Y-63654819D02*
X131133333Y-63654819D01*
X131133333Y-63654819D02*
X130990476Y-63702438D01*
X130990476Y-63702438D02*
X130942857Y-63750057D01*
X130561904Y-63750057D02*
X130514285Y-63702438D01*
X130514285Y-63702438D02*
X130419047Y-63654819D01*
X130419047Y-63654819D02*
X130180952Y-63654819D01*
X130180952Y-63654819D02*
X130085714Y-63702438D01*
X130085714Y-63702438D02*
X130038095Y-63750057D01*
X130038095Y-63750057D02*
X129990476Y-63845295D01*
X129990476Y-63845295D02*
X129990476Y-63940533D01*
X129990476Y-63940533D02*
X130038095Y-64083390D01*
X130038095Y-64083390D02*
X130609523Y-64654819D01*
X130609523Y-64654819D02*
X129990476Y-64654819D01*
X129371428Y-63654819D02*
X129276190Y-63654819D01*
X129276190Y-63654819D02*
X129180952Y-63702438D01*
X129180952Y-63702438D02*
X129133333Y-63750057D01*
X129133333Y-63750057D02*
X129085714Y-63845295D01*
X129085714Y-63845295D02*
X129038095Y-64035771D01*
X129038095Y-64035771D02*
X129038095Y-64273866D01*
X129038095Y-64273866D02*
X129085714Y-64464342D01*
X129085714Y-64464342D02*
X129133333Y-64559580D01*
X129133333Y-64559580D02*
X129180952Y-64607200D01*
X129180952Y-64607200D02*
X129276190Y-64654819D01*
X129276190Y-64654819D02*
X129371428Y-64654819D01*
X129371428Y-64654819D02*
X129466666Y-64607200D01*
X129466666Y-64607200D02*
X129514285Y-64559580D01*
X129514285Y-64559580D02*
X129561904Y-64464342D01*
X129561904Y-64464342D02*
X129609523Y-64273866D01*
X129609523Y-64273866D02*
X129609523Y-64035771D01*
X129609523Y-64035771D02*
X129561904Y-63845295D01*
X129561904Y-63845295D02*
X129514285Y-63750057D01*
X129514285Y-63750057D02*
X129466666Y-63702438D01*
X129466666Y-63702438D02*
X129371428Y-63654819D01*
D11*
X149938094Y-80857419D02*
X149366666Y-80857419D01*
X149652380Y-81857419D02*
X149652380Y-80857419D01*
X149033332Y-81857419D02*
X149033332Y-80857419D01*
X149033332Y-80857419D02*
X148652380Y-80857419D01*
X148652380Y-80857419D02*
X148557142Y-80905038D01*
X148557142Y-80905038D02*
X148509523Y-80952657D01*
X148509523Y-80952657D02*
X148461904Y-81047895D01*
X148461904Y-81047895D02*
X148461904Y-81190752D01*
X148461904Y-81190752D02*
X148509523Y-81285990D01*
X148509523Y-81285990D02*
X148557142Y-81333609D01*
X148557142Y-81333609D02*
X148652380Y-81381228D01*
X148652380Y-81381228D02*
X149033332Y-81381228D01*
X148080951Y-80952657D02*
X148033332Y-80905038D01*
X148033332Y-80905038D02*
X147938094Y-80857419D01*
X147938094Y-80857419D02*
X147699999Y-80857419D01*
X147699999Y-80857419D02*
X147604761Y-80905038D01*
X147604761Y-80905038D02*
X147557142Y-80952657D01*
X147557142Y-80952657D02*
X147509523Y-81047895D01*
X147509523Y-81047895D02*
X147509523Y-81143133D01*
X147509523Y-81143133D02*
X147557142Y-81285990D01*
X147557142Y-81285990D02*
X148128570Y-81857419D01*
X148128570Y-81857419D02*
X147509523Y-81857419D01*
X147176189Y-80857419D02*
X146557142Y-80857419D01*
X146557142Y-80857419D02*
X146890475Y-81238371D01*
X146890475Y-81238371D02*
X146747618Y-81238371D01*
X146747618Y-81238371D02*
X146652380Y-81285990D01*
X146652380Y-81285990D02*
X146604761Y-81333609D01*
X146604761Y-81333609D02*
X146557142Y-81428847D01*
X146557142Y-81428847D02*
X146557142Y-81666942D01*
X146557142Y-81666942D02*
X146604761Y-81762180D01*
X146604761Y-81762180D02*
X146652380Y-81809800D01*
X146652380Y-81809800D02*
X146747618Y-81857419D01*
X146747618Y-81857419D02*
X147033332Y-81857419D01*
X147033332Y-81857419D02*
X147128570Y-81809800D01*
X147128570Y-81809800D02*
X147176189Y-81762180D01*
X115238094Y-98657419D02*
X114666666Y-98657419D01*
X114952380Y-99657419D02*
X114952380Y-98657419D01*
X114333332Y-99657419D02*
X114333332Y-98657419D01*
X114333332Y-98657419D02*
X113952380Y-98657419D01*
X113952380Y-98657419D02*
X113857142Y-98705038D01*
X113857142Y-98705038D02*
X113809523Y-98752657D01*
X113809523Y-98752657D02*
X113761904Y-98847895D01*
X113761904Y-98847895D02*
X113761904Y-98990752D01*
X113761904Y-98990752D02*
X113809523Y-99085990D01*
X113809523Y-99085990D02*
X113857142Y-99133609D01*
X113857142Y-99133609D02*
X113952380Y-99181228D01*
X113952380Y-99181228D02*
X114333332Y-99181228D01*
X113428570Y-98657419D02*
X112809523Y-98657419D01*
X112809523Y-98657419D02*
X113142856Y-99038371D01*
X113142856Y-99038371D02*
X112999999Y-99038371D01*
X112999999Y-99038371D02*
X112904761Y-99085990D01*
X112904761Y-99085990D02*
X112857142Y-99133609D01*
X112857142Y-99133609D02*
X112809523Y-99228847D01*
X112809523Y-99228847D02*
X112809523Y-99466942D01*
X112809523Y-99466942D02*
X112857142Y-99562180D01*
X112857142Y-99562180D02*
X112904761Y-99609800D01*
X112904761Y-99609800D02*
X112999999Y-99657419D01*
X112999999Y-99657419D02*
X113285713Y-99657419D01*
X113285713Y-99657419D02*
X113380951Y-99609800D01*
X113380951Y-99609800D02*
X113428570Y-99562180D01*
X112428570Y-98752657D02*
X112380951Y-98705038D01*
X112380951Y-98705038D02*
X112285713Y-98657419D01*
X112285713Y-98657419D02*
X112047618Y-98657419D01*
X112047618Y-98657419D02*
X111952380Y-98705038D01*
X111952380Y-98705038D02*
X111904761Y-98752657D01*
X111904761Y-98752657D02*
X111857142Y-98847895D01*
X111857142Y-98847895D02*
X111857142Y-98943133D01*
X111857142Y-98943133D02*
X111904761Y-99085990D01*
X111904761Y-99085990D02*
X112476189Y-99657419D01*
X112476189Y-99657419D02*
X111857142Y-99657419D01*
D10*
X154359580Y-53644642D02*
X154407200Y-53597023D01*
X154407200Y-53597023D02*
X154454819Y-53454166D01*
X154454819Y-53454166D02*
X154454819Y-53358928D01*
X154454819Y-53358928D02*
X154407200Y-53216071D01*
X154407200Y-53216071D02*
X154311961Y-53120833D01*
X154311961Y-53120833D02*
X154216723Y-53073214D01*
X154216723Y-53073214D02*
X154026247Y-53025595D01*
X154026247Y-53025595D02*
X153883390Y-53025595D01*
X153883390Y-53025595D02*
X153692914Y-53073214D01*
X153692914Y-53073214D02*
X153597676Y-53120833D01*
X153597676Y-53120833D02*
X153502438Y-53216071D01*
X153502438Y-53216071D02*
X153454819Y-53358928D01*
X153454819Y-53358928D02*
X153454819Y-53454166D01*
X153454819Y-53454166D02*
X153502438Y-53597023D01*
X153502438Y-53597023D02*
X153550057Y-53644642D01*
X153550057Y-54025595D02*
X153502438Y-54073214D01*
X153502438Y-54073214D02*
X153454819Y-54168452D01*
X153454819Y-54168452D02*
X153454819Y-54406547D01*
X153454819Y-54406547D02*
X153502438Y-54501785D01*
X153502438Y-54501785D02*
X153550057Y-54549404D01*
X153550057Y-54549404D02*
X153645295Y-54597023D01*
X153645295Y-54597023D02*
X153740533Y-54597023D01*
X153740533Y-54597023D02*
X153883390Y-54549404D01*
X153883390Y-54549404D02*
X154454819Y-53977976D01*
X154454819Y-53977976D02*
X154454819Y-54597023D01*
X153788152Y-55454166D02*
X154454819Y-55454166D01*
X153407200Y-55216071D02*
X154121485Y-54977976D01*
X154121485Y-54977976D02*
X154121485Y-55597023D01*
D11*
X149738094Y-68257419D02*
X149166666Y-68257419D01*
X149452380Y-69257419D02*
X149452380Y-68257419D01*
X148833332Y-69257419D02*
X148833332Y-68257419D01*
X148833332Y-68257419D02*
X148452380Y-68257419D01*
X148452380Y-68257419D02*
X148357142Y-68305038D01*
X148357142Y-68305038D02*
X148309523Y-68352657D01*
X148309523Y-68352657D02*
X148261904Y-68447895D01*
X148261904Y-68447895D02*
X148261904Y-68590752D01*
X148261904Y-68590752D02*
X148309523Y-68685990D01*
X148309523Y-68685990D02*
X148357142Y-68733609D01*
X148357142Y-68733609D02*
X148452380Y-68781228D01*
X148452380Y-68781228D02*
X148833332Y-68781228D01*
X147309523Y-69257419D02*
X147880951Y-69257419D01*
X147595237Y-69257419D02*
X147595237Y-68257419D01*
X147595237Y-68257419D02*
X147690475Y-68400276D01*
X147690475Y-68400276D02*
X147785713Y-68495514D01*
X147785713Y-68495514D02*
X147880951Y-68543133D01*
X146738094Y-68685990D02*
X146833332Y-68638371D01*
X146833332Y-68638371D02*
X146880951Y-68590752D01*
X146880951Y-68590752D02*
X146928570Y-68495514D01*
X146928570Y-68495514D02*
X146928570Y-68447895D01*
X146928570Y-68447895D02*
X146880951Y-68352657D01*
X146880951Y-68352657D02*
X146833332Y-68305038D01*
X146833332Y-68305038D02*
X146738094Y-68257419D01*
X146738094Y-68257419D02*
X146547618Y-68257419D01*
X146547618Y-68257419D02*
X146452380Y-68305038D01*
X146452380Y-68305038D02*
X146404761Y-68352657D01*
X146404761Y-68352657D02*
X146357142Y-68447895D01*
X146357142Y-68447895D02*
X146357142Y-68495514D01*
X146357142Y-68495514D02*
X146404761Y-68590752D01*
X146404761Y-68590752D02*
X146452380Y-68638371D01*
X146452380Y-68638371D02*
X146547618Y-68685990D01*
X146547618Y-68685990D02*
X146738094Y-68685990D01*
X146738094Y-68685990D02*
X146833332Y-68733609D01*
X146833332Y-68733609D02*
X146880951Y-68781228D01*
X146880951Y-68781228D02*
X146928570Y-68876466D01*
X146928570Y-68876466D02*
X146928570Y-69066942D01*
X146928570Y-69066942D02*
X146880951Y-69162180D01*
X146880951Y-69162180D02*
X146833332Y-69209800D01*
X146833332Y-69209800D02*
X146738094Y-69257419D01*
X146738094Y-69257419D02*
X146547618Y-69257419D01*
X146547618Y-69257419D02*
X146452380Y-69209800D01*
X146452380Y-69209800D02*
X146404761Y-69162180D01*
X146404761Y-69162180D02*
X146357142Y-69066942D01*
X146357142Y-69066942D02*
X146357142Y-68876466D01*
X146357142Y-68876466D02*
X146404761Y-68781228D01*
X146404761Y-68781228D02*
X146452380Y-68733609D01*
X146452380Y-68733609D02*
X146547618Y-68685990D01*
X149038094Y-60257419D02*
X148466666Y-60257419D01*
X148752380Y-61257419D02*
X148752380Y-60257419D01*
X148133332Y-61257419D02*
X148133332Y-60257419D01*
X148133332Y-60257419D02*
X147752380Y-60257419D01*
X147752380Y-60257419D02*
X147657142Y-60305038D01*
X147657142Y-60305038D02*
X147609523Y-60352657D01*
X147609523Y-60352657D02*
X147561904Y-60447895D01*
X147561904Y-60447895D02*
X147561904Y-60590752D01*
X147561904Y-60590752D02*
X147609523Y-60685990D01*
X147609523Y-60685990D02*
X147657142Y-60733609D01*
X147657142Y-60733609D02*
X147752380Y-60781228D01*
X147752380Y-60781228D02*
X148133332Y-60781228D01*
X146609523Y-61257419D02*
X147180951Y-61257419D01*
X146895237Y-61257419D02*
X146895237Y-60257419D01*
X146895237Y-60257419D02*
X146990475Y-60400276D01*
X146990475Y-60400276D02*
X147085713Y-60495514D01*
X147085713Y-60495514D02*
X147180951Y-60543133D01*
X145752380Y-60257419D02*
X145942856Y-60257419D01*
X145942856Y-60257419D02*
X146038094Y-60305038D01*
X146038094Y-60305038D02*
X146085713Y-60352657D01*
X146085713Y-60352657D02*
X146180951Y-60495514D01*
X146180951Y-60495514D02*
X146228570Y-60685990D01*
X146228570Y-60685990D02*
X146228570Y-61066942D01*
X146228570Y-61066942D02*
X146180951Y-61162180D01*
X146180951Y-61162180D02*
X146133332Y-61209800D01*
X146133332Y-61209800D02*
X146038094Y-61257419D01*
X146038094Y-61257419D02*
X145847618Y-61257419D01*
X145847618Y-61257419D02*
X145752380Y-61209800D01*
X145752380Y-61209800D02*
X145704761Y-61162180D01*
X145704761Y-61162180D02*
X145657142Y-61066942D01*
X145657142Y-61066942D02*
X145657142Y-60828847D01*
X145657142Y-60828847D02*
X145704761Y-60733609D01*
X145704761Y-60733609D02*
X145752380Y-60685990D01*
X145752380Y-60685990D02*
X145847618Y-60638371D01*
X145847618Y-60638371D02*
X146038094Y-60638371D01*
X146038094Y-60638371D02*
X146133332Y-60685990D01*
X146133332Y-60685990D02*
X146180951Y-60733609D01*
X146180951Y-60733609D02*
X146228570Y-60828847D01*
D10*
X149145080Y-63607142D02*
X149192700Y-63559523D01*
X149192700Y-63559523D02*
X149240319Y-63416666D01*
X149240319Y-63416666D02*
X149240319Y-63321428D01*
X149240319Y-63321428D02*
X149192700Y-63178571D01*
X149192700Y-63178571D02*
X149097461Y-63083333D01*
X149097461Y-63083333D02*
X149002223Y-63035714D01*
X149002223Y-63035714D02*
X148811747Y-62988095D01*
X148811747Y-62988095D02*
X148668890Y-62988095D01*
X148668890Y-62988095D02*
X148478414Y-63035714D01*
X148478414Y-63035714D02*
X148383176Y-63083333D01*
X148383176Y-63083333D02*
X148287938Y-63178571D01*
X148287938Y-63178571D02*
X148240319Y-63321428D01*
X148240319Y-63321428D02*
X148240319Y-63416666D01*
X148240319Y-63416666D02*
X148287938Y-63559523D01*
X148287938Y-63559523D02*
X148335557Y-63607142D01*
X148335557Y-63988095D02*
X148287938Y-64035714D01*
X148287938Y-64035714D02*
X148240319Y-64130952D01*
X148240319Y-64130952D02*
X148240319Y-64369047D01*
X148240319Y-64369047D02*
X148287938Y-64464285D01*
X148287938Y-64464285D02*
X148335557Y-64511904D01*
X148335557Y-64511904D02*
X148430795Y-64559523D01*
X148430795Y-64559523D02*
X148526033Y-64559523D01*
X148526033Y-64559523D02*
X148668890Y-64511904D01*
X148668890Y-64511904D02*
X149240319Y-63940476D01*
X149240319Y-63940476D02*
X149240319Y-64559523D01*
X148240319Y-65416666D02*
X148240319Y-65226190D01*
X148240319Y-65226190D02*
X148287938Y-65130952D01*
X148287938Y-65130952D02*
X148335557Y-65083333D01*
X148335557Y-65083333D02*
X148478414Y-64988095D01*
X148478414Y-64988095D02*
X148668890Y-64940476D01*
X148668890Y-64940476D02*
X149049842Y-64940476D01*
X149049842Y-64940476D02*
X149145080Y-64988095D01*
X149145080Y-64988095D02*
X149192700Y-65035714D01*
X149192700Y-65035714D02*
X149240319Y-65130952D01*
X149240319Y-65130952D02*
X149240319Y-65321428D01*
X149240319Y-65321428D02*
X149192700Y-65416666D01*
X149192700Y-65416666D02*
X149145080Y-65464285D01*
X149145080Y-65464285D02*
X149049842Y-65511904D01*
X149049842Y-65511904D02*
X148811747Y-65511904D01*
X148811747Y-65511904D02*
X148716509Y-65464285D01*
X148716509Y-65464285D02*
X148668890Y-65416666D01*
X148668890Y-65416666D02*
X148621271Y-65321428D01*
X148621271Y-65321428D02*
X148621271Y-65130952D01*
X148621271Y-65130952D02*
X148668890Y-65035714D01*
X148668890Y-65035714D02*
X148716509Y-64988095D01*
X148716509Y-64988095D02*
X148811747Y-64940476D01*
X118466666Y-91054819D02*
X118799999Y-90578628D01*
X119038094Y-91054819D02*
X119038094Y-90054819D01*
X119038094Y-90054819D02*
X118657142Y-90054819D01*
X118657142Y-90054819D02*
X118561904Y-90102438D01*
X118561904Y-90102438D02*
X118514285Y-90150057D01*
X118514285Y-90150057D02*
X118466666Y-90245295D01*
X118466666Y-90245295D02*
X118466666Y-90388152D01*
X118466666Y-90388152D02*
X118514285Y-90483390D01*
X118514285Y-90483390D02*
X118561904Y-90531009D01*
X118561904Y-90531009D02*
X118657142Y-90578628D01*
X118657142Y-90578628D02*
X119038094Y-90578628D01*
X117609523Y-90054819D02*
X117799999Y-90054819D01*
X117799999Y-90054819D02*
X117895237Y-90102438D01*
X117895237Y-90102438D02*
X117942856Y-90150057D01*
X117942856Y-90150057D02*
X118038094Y-90292914D01*
X118038094Y-90292914D02*
X118085713Y-90483390D01*
X118085713Y-90483390D02*
X118085713Y-90864342D01*
X118085713Y-90864342D02*
X118038094Y-90959580D01*
X118038094Y-90959580D02*
X117990475Y-91007200D01*
X117990475Y-91007200D02*
X117895237Y-91054819D01*
X117895237Y-91054819D02*
X117704761Y-91054819D01*
X117704761Y-91054819D02*
X117609523Y-91007200D01*
X117609523Y-91007200D02*
X117561904Y-90959580D01*
X117561904Y-90959580D02*
X117514285Y-90864342D01*
X117514285Y-90864342D02*
X117514285Y-90626247D01*
X117514285Y-90626247D02*
X117561904Y-90531009D01*
X117561904Y-90531009D02*
X117609523Y-90483390D01*
X117609523Y-90483390D02*
X117704761Y-90435771D01*
X117704761Y-90435771D02*
X117895237Y-90435771D01*
X117895237Y-90435771D02*
X117990475Y-90483390D01*
X117990475Y-90483390D02*
X118038094Y-90531009D01*
X118038094Y-90531009D02*
X118085713Y-90626247D01*
X125033333Y-70854819D02*
X125033333Y-71569104D01*
X125033333Y-71569104D02*
X125080952Y-71711961D01*
X125080952Y-71711961D02*
X125176190Y-71807200D01*
X125176190Y-71807200D02*
X125319047Y-71854819D01*
X125319047Y-71854819D02*
X125414285Y-71854819D01*
X124080952Y-70854819D02*
X124557142Y-70854819D01*
X124557142Y-70854819D02*
X124604761Y-71331009D01*
X124604761Y-71331009D02*
X124557142Y-71283390D01*
X124557142Y-71283390D02*
X124461904Y-71235771D01*
X124461904Y-71235771D02*
X124223809Y-71235771D01*
X124223809Y-71235771D02*
X124128571Y-71283390D01*
X124128571Y-71283390D02*
X124080952Y-71331009D01*
X124080952Y-71331009D02*
X124033333Y-71426247D01*
X124033333Y-71426247D02*
X124033333Y-71664342D01*
X124033333Y-71664342D02*
X124080952Y-71759580D01*
X124080952Y-71759580D02*
X124128571Y-71807200D01*
X124128571Y-71807200D02*
X124223809Y-71854819D01*
X124223809Y-71854819D02*
X124461904Y-71854819D01*
X124461904Y-71854819D02*
X124557142Y-71807200D01*
X124557142Y-71807200D02*
X124604761Y-71759580D01*
X123244319Y-53333333D02*
X122768128Y-53000000D01*
X123244319Y-52761905D02*
X122244319Y-52761905D01*
X122244319Y-52761905D02*
X122244319Y-53142857D01*
X122244319Y-53142857D02*
X122291938Y-53238095D01*
X122291938Y-53238095D02*
X122339557Y-53285714D01*
X122339557Y-53285714D02*
X122434795Y-53333333D01*
X122434795Y-53333333D02*
X122577652Y-53333333D01*
X122577652Y-53333333D02*
X122672890Y-53285714D01*
X122672890Y-53285714D02*
X122720509Y-53238095D01*
X122720509Y-53238095D02*
X122768128Y-53142857D01*
X122768128Y-53142857D02*
X122768128Y-52761905D01*
X123244319Y-53809524D02*
X123244319Y-54000000D01*
X123244319Y-54000000D02*
X123196700Y-54095238D01*
X123196700Y-54095238D02*
X123149080Y-54142857D01*
X123149080Y-54142857D02*
X123006223Y-54238095D01*
X123006223Y-54238095D02*
X122815747Y-54285714D01*
X122815747Y-54285714D02*
X122434795Y-54285714D01*
X122434795Y-54285714D02*
X122339557Y-54238095D01*
X122339557Y-54238095D02*
X122291938Y-54190476D01*
X122291938Y-54190476D02*
X122244319Y-54095238D01*
X122244319Y-54095238D02*
X122244319Y-53904762D01*
X122244319Y-53904762D02*
X122291938Y-53809524D01*
X122291938Y-53809524D02*
X122339557Y-53761905D01*
X122339557Y-53761905D02*
X122434795Y-53714286D01*
X122434795Y-53714286D02*
X122672890Y-53714286D01*
X122672890Y-53714286D02*
X122768128Y-53761905D01*
X122768128Y-53761905D02*
X122815747Y-53809524D01*
X122815747Y-53809524D02*
X122863366Y-53904762D01*
X122863366Y-53904762D02*
X122863366Y-54095238D01*
X122863366Y-54095238D02*
X122815747Y-54190476D01*
X122815747Y-54190476D02*
X122768128Y-54238095D01*
X122768128Y-54238095D02*
X122672890Y-54285714D01*
D11*
X120738094Y-85957419D02*
X120166666Y-85957419D01*
X120452380Y-86957419D02*
X120452380Y-85957419D01*
X119833332Y-86957419D02*
X119833332Y-85957419D01*
X119833332Y-85957419D02*
X119452380Y-85957419D01*
X119452380Y-85957419D02*
X119357142Y-86005038D01*
X119357142Y-86005038D02*
X119309523Y-86052657D01*
X119309523Y-86052657D02*
X119261904Y-86147895D01*
X119261904Y-86147895D02*
X119261904Y-86290752D01*
X119261904Y-86290752D02*
X119309523Y-86385990D01*
X119309523Y-86385990D02*
X119357142Y-86433609D01*
X119357142Y-86433609D02*
X119452380Y-86481228D01*
X119452380Y-86481228D02*
X119833332Y-86481228D01*
X118880951Y-86052657D02*
X118833332Y-86005038D01*
X118833332Y-86005038D02*
X118738094Y-85957419D01*
X118738094Y-85957419D02*
X118499999Y-85957419D01*
X118499999Y-85957419D02*
X118404761Y-86005038D01*
X118404761Y-86005038D02*
X118357142Y-86052657D01*
X118357142Y-86052657D02*
X118309523Y-86147895D01*
X118309523Y-86147895D02*
X118309523Y-86243133D01*
X118309523Y-86243133D02*
X118357142Y-86385990D01*
X118357142Y-86385990D02*
X118928570Y-86957419D01*
X118928570Y-86957419D02*
X118309523Y-86957419D01*
X117738094Y-86385990D02*
X117833332Y-86338371D01*
X117833332Y-86338371D02*
X117880951Y-86290752D01*
X117880951Y-86290752D02*
X117928570Y-86195514D01*
X117928570Y-86195514D02*
X117928570Y-86147895D01*
X117928570Y-86147895D02*
X117880951Y-86052657D01*
X117880951Y-86052657D02*
X117833332Y-86005038D01*
X117833332Y-86005038D02*
X117738094Y-85957419D01*
X117738094Y-85957419D02*
X117547618Y-85957419D01*
X117547618Y-85957419D02*
X117452380Y-86005038D01*
X117452380Y-86005038D02*
X117404761Y-86052657D01*
X117404761Y-86052657D02*
X117357142Y-86147895D01*
X117357142Y-86147895D02*
X117357142Y-86195514D01*
X117357142Y-86195514D02*
X117404761Y-86290752D01*
X117404761Y-86290752D02*
X117452380Y-86338371D01*
X117452380Y-86338371D02*
X117547618Y-86385990D01*
X117547618Y-86385990D02*
X117738094Y-86385990D01*
X117738094Y-86385990D02*
X117833332Y-86433609D01*
X117833332Y-86433609D02*
X117880951Y-86481228D01*
X117880951Y-86481228D02*
X117928570Y-86576466D01*
X117928570Y-86576466D02*
X117928570Y-86766942D01*
X117928570Y-86766942D02*
X117880951Y-86862180D01*
X117880951Y-86862180D02*
X117833332Y-86909800D01*
X117833332Y-86909800D02*
X117738094Y-86957419D01*
X117738094Y-86957419D02*
X117547618Y-86957419D01*
X117547618Y-86957419D02*
X117452380Y-86909800D01*
X117452380Y-86909800D02*
X117404761Y-86862180D01*
X117404761Y-86862180D02*
X117357142Y-86766942D01*
X117357142Y-86766942D02*
X117357142Y-86576466D01*
X117357142Y-86576466D02*
X117404761Y-86481228D01*
X117404761Y-86481228D02*
X117452380Y-86433609D01*
X117452380Y-86433609D02*
X117547618Y-86385990D01*
X149638094Y-71057419D02*
X149066666Y-71057419D01*
X149352380Y-72057419D02*
X149352380Y-71057419D01*
X148733332Y-72057419D02*
X148733332Y-71057419D01*
X148733332Y-71057419D02*
X148352380Y-71057419D01*
X148352380Y-71057419D02*
X148257142Y-71105038D01*
X148257142Y-71105038D02*
X148209523Y-71152657D01*
X148209523Y-71152657D02*
X148161904Y-71247895D01*
X148161904Y-71247895D02*
X148161904Y-71390752D01*
X148161904Y-71390752D02*
X148209523Y-71485990D01*
X148209523Y-71485990D02*
X148257142Y-71533609D01*
X148257142Y-71533609D02*
X148352380Y-71581228D01*
X148352380Y-71581228D02*
X148733332Y-71581228D01*
X147780951Y-71152657D02*
X147733332Y-71105038D01*
X147733332Y-71105038D02*
X147638094Y-71057419D01*
X147638094Y-71057419D02*
X147399999Y-71057419D01*
X147399999Y-71057419D02*
X147304761Y-71105038D01*
X147304761Y-71105038D02*
X147257142Y-71152657D01*
X147257142Y-71152657D02*
X147209523Y-71247895D01*
X147209523Y-71247895D02*
X147209523Y-71343133D01*
X147209523Y-71343133D02*
X147257142Y-71485990D01*
X147257142Y-71485990D02*
X147828570Y-72057419D01*
X147828570Y-72057419D02*
X147209523Y-72057419D01*
X146590475Y-71057419D02*
X146495237Y-71057419D01*
X146495237Y-71057419D02*
X146399999Y-71105038D01*
X146399999Y-71105038D02*
X146352380Y-71152657D01*
X146352380Y-71152657D02*
X146304761Y-71247895D01*
X146304761Y-71247895D02*
X146257142Y-71438371D01*
X146257142Y-71438371D02*
X146257142Y-71676466D01*
X146257142Y-71676466D02*
X146304761Y-71866942D01*
X146304761Y-71866942D02*
X146352380Y-71962180D01*
X146352380Y-71962180D02*
X146399999Y-72009800D01*
X146399999Y-72009800D02*
X146495237Y-72057419D01*
X146495237Y-72057419D02*
X146590475Y-72057419D01*
X146590475Y-72057419D02*
X146685713Y-72009800D01*
X146685713Y-72009800D02*
X146733332Y-71962180D01*
X146733332Y-71962180D02*
X146780951Y-71866942D01*
X146780951Y-71866942D02*
X146828570Y-71676466D01*
X146828570Y-71676466D02*
X146828570Y-71438371D01*
X146828570Y-71438371D02*
X146780951Y-71247895D01*
X146780951Y-71247895D02*
X146733332Y-71152657D01*
X146733332Y-71152657D02*
X146685713Y-71105038D01*
X146685713Y-71105038D02*
X146590475Y-71057419D01*
D10*
X140042857Y-76359580D02*
X140090476Y-76407200D01*
X140090476Y-76407200D02*
X140233333Y-76454819D01*
X140233333Y-76454819D02*
X140328571Y-76454819D01*
X140328571Y-76454819D02*
X140471428Y-76407200D01*
X140471428Y-76407200D02*
X140566666Y-76311961D01*
X140566666Y-76311961D02*
X140614285Y-76216723D01*
X140614285Y-76216723D02*
X140661904Y-76026247D01*
X140661904Y-76026247D02*
X140661904Y-75883390D01*
X140661904Y-75883390D02*
X140614285Y-75692914D01*
X140614285Y-75692914D02*
X140566666Y-75597676D01*
X140566666Y-75597676D02*
X140471428Y-75502438D01*
X140471428Y-75502438D02*
X140328571Y-75454819D01*
X140328571Y-75454819D02*
X140233333Y-75454819D01*
X140233333Y-75454819D02*
X140090476Y-75502438D01*
X140090476Y-75502438D02*
X140042857Y-75550057D01*
X139709523Y-75454819D02*
X139090476Y-75454819D01*
X139090476Y-75454819D02*
X139423809Y-75835771D01*
X139423809Y-75835771D02*
X139280952Y-75835771D01*
X139280952Y-75835771D02*
X139185714Y-75883390D01*
X139185714Y-75883390D02*
X139138095Y-75931009D01*
X139138095Y-75931009D02*
X139090476Y-76026247D01*
X139090476Y-76026247D02*
X139090476Y-76264342D01*
X139090476Y-76264342D02*
X139138095Y-76359580D01*
X139138095Y-76359580D02*
X139185714Y-76407200D01*
X139185714Y-76407200D02*
X139280952Y-76454819D01*
X139280952Y-76454819D02*
X139566666Y-76454819D01*
X139566666Y-76454819D02*
X139661904Y-76407200D01*
X139661904Y-76407200D02*
X139709523Y-76359580D01*
X138757142Y-75454819D02*
X138138095Y-75454819D01*
X138138095Y-75454819D02*
X138471428Y-75835771D01*
X138471428Y-75835771D02*
X138328571Y-75835771D01*
X138328571Y-75835771D02*
X138233333Y-75883390D01*
X138233333Y-75883390D02*
X138185714Y-75931009D01*
X138185714Y-75931009D02*
X138138095Y-76026247D01*
X138138095Y-76026247D02*
X138138095Y-76264342D01*
X138138095Y-76264342D02*
X138185714Y-76359580D01*
X138185714Y-76359580D02*
X138233333Y-76407200D01*
X138233333Y-76407200D02*
X138328571Y-76454819D01*
X138328571Y-76454819D02*
X138614285Y-76454819D01*
X138614285Y-76454819D02*
X138709523Y-76407200D01*
X138709523Y-76407200D02*
X138757142Y-76359580D01*
X119979166Y-71354819D02*
X120312499Y-70878628D01*
X120550594Y-71354819D02*
X120550594Y-70354819D01*
X120550594Y-70354819D02*
X120169642Y-70354819D01*
X120169642Y-70354819D02*
X120074404Y-70402438D01*
X120074404Y-70402438D02*
X120026785Y-70450057D01*
X120026785Y-70450057D02*
X119979166Y-70545295D01*
X119979166Y-70545295D02*
X119979166Y-70688152D01*
X119979166Y-70688152D02*
X120026785Y-70783390D01*
X120026785Y-70783390D02*
X120074404Y-70831009D01*
X120074404Y-70831009D02*
X120169642Y-70878628D01*
X120169642Y-70878628D02*
X120550594Y-70878628D01*
X119407737Y-70783390D02*
X119502975Y-70735771D01*
X119502975Y-70735771D02*
X119550594Y-70688152D01*
X119550594Y-70688152D02*
X119598213Y-70592914D01*
X119598213Y-70592914D02*
X119598213Y-70545295D01*
X119598213Y-70545295D02*
X119550594Y-70450057D01*
X119550594Y-70450057D02*
X119502975Y-70402438D01*
X119502975Y-70402438D02*
X119407737Y-70354819D01*
X119407737Y-70354819D02*
X119217261Y-70354819D01*
X119217261Y-70354819D02*
X119122023Y-70402438D01*
X119122023Y-70402438D02*
X119074404Y-70450057D01*
X119074404Y-70450057D02*
X119026785Y-70545295D01*
X119026785Y-70545295D02*
X119026785Y-70592914D01*
X119026785Y-70592914D02*
X119074404Y-70688152D01*
X119074404Y-70688152D02*
X119122023Y-70735771D01*
X119122023Y-70735771D02*
X119217261Y-70783390D01*
X119217261Y-70783390D02*
X119407737Y-70783390D01*
X119407737Y-70783390D02*
X119502975Y-70831009D01*
X119502975Y-70831009D02*
X119550594Y-70878628D01*
X119550594Y-70878628D02*
X119598213Y-70973866D01*
X119598213Y-70973866D02*
X119598213Y-71164342D01*
X119598213Y-71164342D02*
X119550594Y-71259580D01*
X119550594Y-71259580D02*
X119502975Y-71307200D01*
X119502975Y-71307200D02*
X119407737Y-71354819D01*
X119407737Y-71354819D02*
X119217261Y-71354819D01*
X119217261Y-71354819D02*
X119122023Y-71307200D01*
X119122023Y-71307200D02*
X119074404Y-71259580D01*
X119074404Y-71259580D02*
X119026785Y-71164342D01*
X119026785Y-71164342D02*
X119026785Y-70973866D01*
X119026785Y-70973866D02*
X119074404Y-70878628D01*
X119074404Y-70878628D02*
X119122023Y-70831009D01*
X119122023Y-70831009D02*
X119217261Y-70783390D01*
D11*
X121338094Y-47857419D02*
X120766666Y-47857419D01*
X121052380Y-48857419D02*
X121052380Y-47857419D01*
X120433332Y-48857419D02*
X120433332Y-47857419D01*
X120433332Y-47857419D02*
X120052380Y-47857419D01*
X120052380Y-47857419D02*
X119957142Y-47905038D01*
X119957142Y-47905038D02*
X119909523Y-47952657D01*
X119909523Y-47952657D02*
X119861904Y-48047895D01*
X119861904Y-48047895D02*
X119861904Y-48190752D01*
X119861904Y-48190752D02*
X119909523Y-48285990D01*
X119909523Y-48285990D02*
X119957142Y-48333609D01*
X119957142Y-48333609D02*
X120052380Y-48381228D01*
X120052380Y-48381228D02*
X120433332Y-48381228D01*
X119528570Y-47857419D02*
X118909523Y-47857419D01*
X118909523Y-47857419D02*
X119242856Y-48238371D01*
X119242856Y-48238371D02*
X119099999Y-48238371D01*
X119099999Y-48238371D02*
X119004761Y-48285990D01*
X119004761Y-48285990D02*
X118957142Y-48333609D01*
X118957142Y-48333609D02*
X118909523Y-48428847D01*
X118909523Y-48428847D02*
X118909523Y-48666942D01*
X118909523Y-48666942D02*
X118957142Y-48762180D01*
X118957142Y-48762180D02*
X119004761Y-48809800D01*
X119004761Y-48809800D02*
X119099999Y-48857419D01*
X119099999Y-48857419D02*
X119385713Y-48857419D01*
X119385713Y-48857419D02*
X119480951Y-48809800D01*
X119480951Y-48809800D02*
X119528570Y-48762180D01*
X118052380Y-47857419D02*
X118242856Y-47857419D01*
X118242856Y-47857419D02*
X118338094Y-47905038D01*
X118338094Y-47905038D02*
X118385713Y-47952657D01*
X118385713Y-47952657D02*
X118480951Y-48095514D01*
X118480951Y-48095514D02*
X118528570Y-48285990D01*
X118528570Y-48285990D02*
X118528570Y-48666942D01*
X118528570Y-48666942D02*
X118480951Y-48762180D01*
X118480951Y-48762180D02*
X118433332Y-48809800D01*
X118433332Y-48809800D02*
X118338094Y-48857419D01*
X118338094Y-48857419D02*
X118147618Y-48857419D01*
X118147618Y-48857419D02*
X118052380Y-48809800D01*
X118052380Y-48809800D02*
X118004761Y-48762180D01*
X118004761Y-48762180D02*
X117957142Y-48666942D01*
X117957142Y-48666942D02*
X117957142Y-48428847D01*
X117957142Y-48428847D02*
X118004761Y-48333609D01*
X118004761Y-48333609D02*
X118052380Y-48285990D01*
X118052380Y-48285990D02*
X118147618Y-48238371D01*
X118147618Y-48238371D02*
X118338094Y-48238371D01*
X118338094Y-48238371D02*
X118433332Y-48285990D01*
X118433332Y-48285990D02*
X118480951Y-48333609D01*
X118480951Y-48333609D02*
X118528570Y-48428847D01*
X132138094Y-68457419D02*
X131566666Y-68457419D01*
X131852380Y-69457419D02*
X131852380Y-68457419D01*
X131233332Y-69457419D02*
X131233332Y-68457419D01*
X131233332Y-68457419D02*
X130852380Y-68457419D01*
X130852380Y-68457419D02*
X130757142Y-68505038D01*
X130757142Y-68505038D02*
X130709523Y-68552657D01*
X130709523Y-68552657D02*
X130661904Y-68647895D01*
X130661904Y-68647895D02*
X130661904Y-68790752D01*
X130661904Y-68790752D02*
X130709523Y-68885990D01*
X130709523Y-68885990D02*
X130757142Y-68933609D01*
X130757142Y-68933609D02*
X130852380Y-68981228D01*
X130852380Y-68981228D02*
X131233332Y-68981228D01*
X130328570Y-68457419D02*
X129709523Y-68457419D01*
X129709523Y-68457419D02*
X130042856Y-68838371D01*
X130042856Y-68838371D02*
X129899999Y-68838371D01*
X129899999Y-68838371D02*
X129804761Y-68885990D01*
X129804761Y-68885990D02*
X129757142Y-68933609D01*
X129757142Y-68933609D02*
X129709523Y-69028847D01*
X129709523Y-69028847D02*
X129709523Y-69266942D01*
X129709523Y-69266942D02*
X129757142Y-69362180D01*
X129757142Y-69362180D02*
X129804761Y-69409800D01*
X129804761Y-69409800D02*
X129899999Y-69457419D01*
X129899999Y-69457419D02*
X130185713Y-69457419D01*
X130185713Y-69457419D02*
X130280951Y-69409800D01*
X130280951Y-69409800D02*
X130328570Y-69362180D01*
X129376189Y-68457419D02*
X128709523Y-68457419D01*
X128709523Y-68457419D02*
X129138094Y-69457419D01*
X149538094Y-57257419D02*
X148966666Y-57257419D01*
X149252380Y-58257419D02*
X149252380Y-57257419D01*
X148633332Y-58257419D02*
X148633332Y-57257419D01*
X148633332Y-57257419D02*
X148252380Y-57257419D01*
X148252380Y-57257419D02*
X148157142Y-57305038D01*
X148157142Y-57305038D02*
X148109523Y-57352657D01*
X148109523Y-57352657D02*
X148061904Y-57447895D01*
X148061904Y-57447895D02*
X148061904Y-57590752D01*
X148061904Y-57590752D02*
X148109523Y-57685990D01*
X148109523Y-57685990D02*
X148157142Y-57733609D01*
X148157142Y-57733609D02*
X148252380Y-57781228D01*
X148252380Y-57781228D02*
X148633332Y-57781228D01*
X147109523Y-58257419D02*
X147680951Y-58257419D01*
X147395237Y-58257419D02*
X147395237Y-57257419D01*
X147395237Y-57257419D02*
X147490475Y-57400276D01*
X147490475Y-57400276D02*
X147585713Y-57495514D01*
X147585713Y-57495514D02*
X147680951Y-57543133D01*
X146252380Y-57590752D02*
X146252380Y-58257419D01*
X146490475Y-57209800D02*
X146728570Y-57924085D01*
X146728570Y-57924085D02*
X146109523Y-57924085D01*
D10*
X140117857Y-68892902D02*
X140334524Y-68583378D01*
X140489286Y-68892902D02*
X140489286Y-68242902D01*
X140489286Y-68242902D02*
X140241667Y-68242902D01*
X140241667Y-68242902D02*
X140179762Y-68273854D01*
X140179762Y-68273854D02*
X140148809Y-68304807D01*
X140148809Y-68304807D02*
X140117857Y-68366711D01*
X140117857Y-68366711D02*
X140117857Y-68459569D01*
X140117857Y-68459569D02*
X140148809Y-68521473D01*
X140148809Y-68521473D02*
X140179762Y-68552426D01*
X140179762Y-68552426D02*
X140241667Y-68583378D01*
X140241667Y-68583378D02*
X140489286Y-68583378D01*
X139870238Y-68304807D02*
X139839286Y-68273854D01*
X139839286Y-68273854D02*
X139777381Y-68242902D01*
X139777381Y-68242902D02*
X139622619Y-68242902D01*
X139622619Y-68242902D02*
X139560714Y-68273854D01*
X139560714Y-68273854D02*
X139529762Y-68304807D01*
X139529762Y-68304807D02*
X139498809Y-68366711D01*
X139498809Y-68366711D02*
X139498809Y-68428616D01*
X139498809Y-68428616D02*
X139529762Y-68521473D01*
X139529762Y-68521473D02*
X139901190Y-68892902D01*
X139901190Y-68892902D02*
X139498809Y-68892902D01*
X138910714Y-68242902D02*
X139220238Y-68242902D01*
X139220238Y-68242902D02*
X139251190Y-68552426D01*
X139251190Y-68552426D02*
X139220238Y-68521473D01*
X139220238Y-68521473D02*
X139158333Y-68490521D01*
X139158333Y-68490521D02*
X139003571Y-68490521D01*
X139003571Y-68490521D02*
X138941666Y-68521473D01*
X138941666Y-68521473D02*
X138910714Y-68552426D01*
X138910714Y-68552426D02*
X138879761Y-68614330D01*
X138879761Y-68614330D02*
X138879761Y-68769092D01*
X138879761Y-68769092D02*
X138910714Y-68830997D01*
X138910714Y-68830997D02*
X138941666Y-68861950D01*
X138941666Y-68861950D02*
X139003571Y-68892902D01*
X139003571Y-68892902D02*
X139158333Y-68892902D01*
X139158333Y-68892902D02*
X139220238Y-68861950D01*
X139220238Y-68861950D02*
X139251190Y-68830997D01*
X173333333Y-74124819D02*
X173333333Y-74839104D01*
X173333333Y-74839104D02*
X173380952Y-74981961D01*
X173380952Y-74981961D02*
X173476190Y-75077200D01*
X173476190Y-75077200D02*
X173619047Y-75124819D01*
X173619047Y-75124819D02*
X173714285Y-75124819D01*
X172428571Y-74458152D02*
X172428571Y-75124819D01*
X172666666Y-74077200D02*
X172904761Y-74791485D01*
X172904761Y-74791485D02*
X172285714Y-74791485D01*
D11*
X149638094Y-77757419D02*
X149066666Y-77757419D01*
X149352380Y-78757419D02*
X149352380Y-77757419D01*
X148733332Y-78757419D02*
X148733332Y-77757419D01*
X148733332Y-77757419D02*
X148352380Y-77757419D01*
X148352380Y-77757419D02*
X148257142Y-77805038D01*
X148257142Y-77805038D02*
X148209523Y-77852657D01*
X148209523Y-77852657D02*
X148161904Y-77947895D01*
X148161904Y-77947895D02*
X148161904Y-78090752D01*
X148161904Y-78090752D02*
X148209523Y-78185990D01*
X148209523Y-78185990D02*
X148257142Y-78233609D01*
X148257142Y-78233609D02*
X148352380Y-78281228D01*
X148352380Y-78281228D02*
X148733332Y-78281228D01*
X147780951Y-77852657D02*
X147733332Y-77805038D01*
X147733332Y-77805038D02*
X147638094Y-77757419D01*
X147638094Y-77757419D02*
X147399999Y-77757419D01*
X147399999Y-77757419D02*
X147304761Y-77805038D01*
X147304761Y-77805038D02*
X147257142Y-77852657D01*
X147257142Y-77852657D02*
X147209523Y-77947895D01*
X147209523Y-77947895D02*
X147209523Y-78043133D01*
X147209523Y-78043133D02*
X147257142Y-78185990D01*
X147257142Y-78185990D02*
X147828570Y-78757419D01*
X147828570Y-78757419D02*
X147209523Y-78757419D01*
X146257142Y-78757419D02*
X146828570Y-78757419D01*
X146542856Y-78757419D02*
X146542856Y-77757419D01*
X146542856Y-77757419D02*
X146638094Y-77900276D01*
X146638094Y-77900276D02*
X146733332Y-77995514D01*
X146733332Y-77995514D02*
X146828570Y-78043133D01*
X126538094Y-47857419D02*
X125966666Y-47857419D01*
X126252380Y-48857419D02*
X126252380Y-47857419D01*
X125633332Y-48857419D02*
X125633332Y-47857419D01*
X125633332Y-47857419D02*
X125252380Y-47857419D01*
X125252380Y-47857419D02*
X125157142Y-47905038D01*
X125157142Y-47905038D02*
X125109523Y-47952657D01*
X125109523Y-47952657D02*
X125061904Y-48047895D01*
X125061904Y-48047895D02*
X125061904Y-48190752D01*
X125061904Y-48190752D02*
X125109523Y-48285990D01*
X125109523Y-48285990D02*
X125157142Y-48333609D01*
X125157142Y-48333609D02*
X125252380Y-48381228D01*
X125252380Y-48381228D02*
X125633332Y-48381228D01*
X124728570Y-47857419D02*
X124109523Y-47857419D01*
X124109523Y-47857419D02*
X124442856Y-48238371D01*
X124442856Y-48238371D02*
X124299999Y-48238371D01*
X124299999Y-48238371D02*
X124204761Y-48285990D01*
X124204761Y-48285990D02*
X124157142Y-48333609D01*
X124157142Y-48333609D02*
X124109523Y-48428847D01*
X124109523Y-48428847D02*
X124109523Y-48666942D01*
X124109523Y-48666942D02*
X124157142Y-48762180D01*
X124157142Y-48762180D02*
X124204761Y-48809800D01*
X124204761Y-48809800D02*
X124299999Y-48857419D01*
X124299999Y-48857419D02*
X124585713Y-48857419D01*
X124585713Y-48857419D02*
X124680951Y-48809800D01*
X124680951Y-48809800D02*
X124728570Y-48762180D01*
X123252380Y-48190752D02*
X123252380Y-48857419D01*
X123490475Y-47809800D02*
X123728570Y-48524085D01*
X123728570Y-48524085D02*
X123109523Y-48524085D01*
D10*
X139917857Y-78392902D02*
X140134524Y-78083378D01*
X140289286Y-78392902D02*
X140289286Y-77742902D01*
X140289286Y-77742902D02*
X140041667Y-77742902D01*
X140041667Y-77742902D02*
X139979762Y-77773854D01*
X139979762Y-77773854D02*
X139948809Y-77804807D01*
X139948809Y-77804807D02*
X139917857Y-77866711D01*
X139917857Y-77866711D02*
X139917857Y-77959569D01*
X139917857Y-77959569D02*
X139948809Y-78021473D01*
X139948809Y-78021473D02*
X139979762Y-78052426D01*
X139979762Y-78052426D02*
X140041667Y-78083378D01*
X140041667Y-78083378D02*
X140289286Y-78083378D01*
X139670238Y-77804807D02*
X139639286Y-77773854D01*
X139639286Y-77773854D02*
X139577381Y-77742902D01*
X139577381Y-77742902D02*
X139422619Y-77742902D01*
X139422619Y-77742902D02*
X139360714Y-77773854D01*
X139360714Y-77773854D02*
X139329762Y-77804807D01*
X139329762Y-77804807D02*
X139298809Y-77866711D01*
X139298809Y-77866711D02*
X139298809Y-77928616D01*
X139298809Y-77928616D02*
X139329762Y-78021473D01*
X139329762Y-78021473D02*
X139701190Y-78392902D01*
X139701190Y-78392902D02*
X139298809Y-78392902D01*
X139051190Y-77804807D02*
X139020238Y-77773854D01*
X139020238Y-77773854D02*
X138958333Y-77742902D01*
X138958333Y-77742902D02*
X138803571Y-77742902D01*
X138803571Y-77742902D02*
X138741666Y-77773854D01*
X138741666Y-77773854D02*
X138710714Y-77804807D01*
X138710714Y-77804807D02*
X138679761Y-77866711D01*
X138679761Y-77866711D02*
X138679761Y-77928616D01*
X138679761Y-77928616D02*
X138710714Y-78021473D01*
X138710714Y-78021473D02*
X139082142Y-78392902D01*
X139082142Y-78392902D02*
X138679761Y-78392902D01*
X165959580Y-94607142D02*
X166007200Y-94559523D01*
X166007200Y-94559523D02*
X166054819Y-94416666D01*
X166054819Y-94416666D02*
X166054819Y-94321428D01*
X166054819Y-94321428D02*
X166007200Y-94178571D01*
X166007200Y-94178571D02*
X165911961Y-94083333D01*
X165911961Y-94083333D02*
X165816723Y-94035714D01*
X165816723Y-94035714D02*
X165626247Y-93988095D01*
X165626247Y-93988095D02*
X165483390Y-93988095D01*
X165483390Y-93988095D02*
X165292914Y-94035714D01*
X165292914Y-94035714D02*
X165197676Y-94083333D01*
X165197676Y-94083333D02*
X165102438Y-94178571D01*
X165102438Y-94178571D02*
X165054819Y-94321428D01*
X165054819Y-94321428D02*
X165054819Y-94416666D01*
X165054819Y-94416666D02*
X165102438Y-94559523D01*
X165102438Y-94559523D02*
X165150057Y-94607142D01*
X166054819Y-95559523D02*
X166054819Y-94988095D01*
X166054819Y-95273809D02*
X165054819Y-95273809D01*
X165054819Y-95273809D02*
X165197676Y-95178571D01*
X165197676Y-95178571D02*
X165292914Y-95083333D01*
X165292914Y-95083333D02*
X165340533Y-94988095D01*
X165388152Y-96416666D02*
X166054819Y-96416666D01*
X165007200Y-96178571D02*
X165721485Y-95940476D01*
X165721485Y-95940476D02*
X165721485Y-96559523D01*
X143930357Y-50679580D02*
X143977976Y-50727200D01*
X143977976Y-50727200D02*
X144120833Y-50774819D01*
X144120833Y-50774819D02*
X144216071Y-50774819D01*
X144216071Y-50774819D02*
X144358928Y-50727200D01*
X144358928Y-50727200D02*
X144454166Y-50631961D01*
X144454166Y-50631961D02*
X144501785Y-50536723D01*
X144501785Y-50536723D02*
X144549404Y-50346247D01*
X144549404Y-50346247D02*
X144549404Y-50203390D01*
X144549404Y-50203390D02*
X144501785Y-50012914D01*
X144501785Y-50012914D02*
X144454166Y-49917676D01*
X144454166Y-49917676D02*
X144358928Y-49822438D01*
X144358928Y-49822438D02*
X144216071Y-49774819D01*
X144216071Y-49774819D02*
X144120833Y-49774819D01*
X144120833Y-49774819D02*
X143977976Y-49822438D01*
X143977976Y-49822438D02*
X143930357Y-49870057D01*
X143549404Y-49870057D02*
X143501785Y-49822438D01*
X143501785Y-49822438D02*
X143406547Y-49774819D01*
X143406547Y-49774819D02*
X143168452Y-49774819D01*
X143168452Y-49774819D02*
X143073214Y-49822438D01*
X143073214Y-49822438D02*
X143025595Y-49870057D01*
X143025595Y-49870057D02*
X142977976Y-49965295D01*
X142977976Y-49965295D02*
X142977976Y-50060533D01*
X142977976Y-50060533D02*
X143025595Y-50203390D01*
X143025595Y-50203390D02*
X143597023Y-50774819D01*
X143597023Y-50774819D02*
X142977976Y-50774819D01*
X142501785Y-50774819D02*
X142311309Y-50774819D01*
X142311309Y-50774819D02*
X142216071Y-50727200D01*
X142216071Y-50727200D02*
X142168452Y-50679580D01*
X142168452Y-50679580D02*
X142073214Y-50536723D01*
X142073214Y-50536723D02*
X142025595Y-50346247D01*
X142025595Y-50346247D02*
X142025595Y-49965295D01*
X142025595Y-49965295D02*
X142073214Y-49870057D01*
X142073214Y-49870057D02*
X142120833Y-49822438D01*
X142120833Y-49822438D02*
X142216071Y-49774819D01*
X142216071Y-49774819D02*
X142406547Y-49774819D01*
X142406547Y-49774819D02*
X142501785Y-49822438D01*
X142501785Y-49822438D02*
X142549404Y-49870057D01*
X142549404Y-49870057D02*
X142597023Y-49965295D01*
X142597023Y-49965295D02*
X142597023Y-50203390D01*
X142597023Y-50203390D02*
X142549404Y-50298628D01*
X142549404Y-50298628D02*
X142501785Y-50346247D01*
X142501785Y-50346247D02*
X142406547Y-50393866D01*
X142406547Y-50393866D02*
X142216071Y-50393866D01*
X142216071Y-50393866D02*
X142120833Y-50346247D01*
X142120833Y-50346247D02*
X142073214Y-50298628D01*
X142073214Y-50298628D02*
X142025595Y-50203390D01*
D11*
X149838094Y-79257419D02*
X149266666Y-79257419D01*
X149552380Y-80257419D02*
X149552380Y-79257419D01*
X148933332Y-80257419D02*
X148933332Y-79257419D01*
X148933332Y-79257419D02*
X148552380Y-79257419D01*
X148552380Y-79257419D02*
X148457142Y-79305038D01*
X148457142Y-79305038D02*
X148409523Y-79352657D01*
X148409523Y-79352657D02*
X148361904Y-79447895D01*
X148361904Y-79447895D02*
X148361904Y-79590752D01*
X148361904Y-79590752D02*
X148409523Y-79685990D01*
X148409523Y-79685990D02*
X148457142Y-79733609D01*
X148457142Y-79733609D02*
X148552380Y-79781228D01*
X148552380Y-79781228D02*
X148933332Y-79781228D01*
X147980951Y-79352657D02*
X147933332Y-79305038D01*
X147933332Y-79305038D02*
X147838094Y-79257419D01*
X147838094Y-79257419D02*
X147599999Y-79257419D01*
X147599999Y-79257419D02*
X147504761Y-79305038D01*
X147504761Y-79305038D02*
X147457142Y-79352657D01*
X147457142Y-79352657D02*
X147409523Y-79447895D01*
X147409523Y-79447895D02*
X147409523Y-79543133D01*
X147409523Y-79543133D02*
X147457142Y-79685990D01*
X147457142Y-79685990D02*
X148028570Y-80257419D01*
X148028570Y-80257419D02*
X147409523Y-80257419D01*
X147028570Y-79352657D02*
X146980951Y-79305038D01*
X146980951Y-79305038D02*
X146885713Y-79257419D01*
X146885713Y-79257419D02*
X146647618Y-79257419D01*
X146647618Y-79257419D02*
X146552380Y-79305038D01*
X146552380Y-79305038D02*
X146504761Y-79352657D01*
X146504761Y-79352657D02*
X146457142Y-79447895D01*
X146457142Y-79447895D02*
X146457142Y-79543133D01*
X146457142Y-79543133D02*
X146504761Y-79685990D01*
X146504761Y-79685990D02*
X147076189Y-80257419D01*
X147076189Y-80257419D02*
X146457142Y-80257419D01*
D10*
X113242857Y-62459580D02*
X113290476Y-62507200D01*
X113290476Y-62507200D02*
X113433333Y-62554819D01*
X113433333Y-62554819D02*
X113528571Y-62554819D01*
X113528571Y-62554819D02*
X113671428Y-62507200D01*
X113671428Y-62507200D02*
X113766666Y-62411961D01*
X113766666Y-62411961D02*
X113814285Y-62316723D01*
X113814285Y-62316723D02*
X113861904Y-62126247D01*
X113861904Y-62126247D02*
X113861904Y-61983390D01*
X113861904Y-61983390D02*
X113814285Y-61792914D01*
X113814285Y-61792914D02*
X113766666Y-61697676D01*
X113766666Y-61697676D02*
X113671428Y-61602438D01*
X113671428Y-61602438D02*
X113528571Y-61554819D01*
X113528571Y-61554819D02*
X113433333Y-61554819D01*
X113433333Y-61554819D02*
X113290476Y-61602438D01*
X113290476Y-61602438D02*
X113242857Y-61650057D01*
X112290476Y-62554819D02*
X112861904Y-62554819D01*
X112576190Y-62554819D02*
X112576190Y-61554819D01*
X112576190Y-61554819D02*
X112671428Y-61697676D01*
X112671428Y-61697676D02*
X112766666Y-61792914D01*
X112766666Y-61792914D02*
X112861904Y-61840533D01*
X111814285Y-62554819D02*
X111623809Y-62554819D01*
X111623809Y-62554819D02*
X111528571Y-62507200D01*
X111528571Y-62507200D02*
X111480952Y-62459580D01*
X111480952Y-62459580D02*
X111385714Y-62316723D01*
X111385714Y-62316723D02*
X111338095Y-62126247D01*
X111338095Y-62126247D02*
X111338095Y-61745295D01*
X111338095Y-61745295D02*
X111385714Y-61650057D01*
X111385714Y-61650057D02*
X111433333Y-61602438D01*
X111433333Y-61602438D02*
X111528571Y-61554819D01*
X111528571Y-61554819D02*
X111719047Y-61554819D01*
X111719047Y-61554819D02*
X111814285Y-61602438D01*
X111814285Y-61602438D02*
X111861904Y-61650057D01*
X111861904Y-61650057D02*
X111909523Y-61745295D01*
X111909523Y-61745295D02*
X111909523Y-61983390D01*
X111909523Y-61983390D02*
X111861904Y-62078628D01*
X111861904Y-62078628D02*
X111814285Y-62126247D01*
X111814285Y-62126247D02*
X111719047Y-62173866D01*
X111719047Y-62173866D02*
X111528571Y-62173866D01*
X111528571Y-62173866D02*
X111433333Y-62126247D01*
X111433333Y-62126247D02*
X111385714Y-62078628D01*
X111385714Y-62078628D02*
X111338095Y-61983390D01*
D11*
X157061904Y-66857419D02*
X156490476Y-66857419D01*
X156776190Y-67857419D02*
X156776190Y-66857419D01*
X156157142Y-67857419D02*
X156157142Y-66857419D01*
X156157142Y-66857419D02*
X155776190Y-66857419D01*
X155776190Y-66857419D02*
X155680952Y-66905038D01*
X155680952Y-66905038D02*
X155633333Y-66952657D01*
X155633333Y-66952657D02*
X155585714Y-67047895D01*
X155585714Y-67047895D02*
X155585714Y-67190752D01*
X155585714Y-67190752D02*
X155633333Y-67285990D01*
X155633333Y-67285990D02*
X155680952Y-67333609D01*
X155680952Y-67333609D02*
X155776190Y-67381228D01*
X155776190Y-67381228D02*
X156157142Y-67381228D01*
X154680952Y-66857419D02*
X155157142Y-66857419D01*
X155157142Y-66857419D02*
X155204761Y-67333609D01*
X155204761Y-67333609D02*
X155157142Y-67285990D01*
X155157142Y-67285990D02*
X155061904Y-67238371D01*
X155061904Y-67238371D02*
X154823809Y-67238371D01*
X154823809Y-67238371D02*
X154728571Y-67285990D01*
X154728571Y-67285990D02*
X154680952Y-67333609D01*
X154680952Y-67333609D02*
X154633333Y-67428847D01*
X154633333Y-67428847D02*
X154633333Y-67666942D01*
X154633333Y-67666942D02*
X154680952Y-67762180D01*
X154680952Y-67762180D02*
X154728571Y-67809800D01*
X154728571Y-67809800D02*
X154823809Y-67857419D01*
X154823809Y-67857419D02*
X155061904Y-67857419D01*
X155061904Y-67857419D02*
X155157142Y-67809800D01*
X155157142Y-67809800D02*
X155204761Y-67762180D01*
X124738094Y-75057419D02*
X124166666Y-75057419D01*
X124452380Y-76057419D02*
X124452380Y-75057419D01*
X123833332Y-76057419D02*
X123833332Y-75057419D01*
X123833332Y-75057419D02*
X123452380Y-75057419D01*
X123452380Y-75057419D02*
X123357142Y-75105038D01*
X123357142Y-75105038D02*
X123309523Y-75152657D01*
X123309523Y-75152657D02*
X123261904Y-75247895D01*
X123261904Y-75247895D02*
X123261904Y-75390752D01*
X123261904Y-75390752D02*
X123309523Y-75485990D01*
X123309523Y-75485990D02*
X123357142Y-75533609D01*
X123357142Y-75533609D02*
X123452380Y-75581228D01*
X123452380Y-75581228D02*
X123833332Y-75581228D01*
X122928570Y-75057419D02*
X122309523Y-75057419D01*
X122309523Y-75057419D02*
X122642856Y-75438371D01*
X122642856Y-75438371D02*
X122499999Y-75438371D01*
X122499999Y-75438371D02*
X122404761Y-75485990D01*
X122404761Y-75485990D02*
X122357142Y-75533609D01*
X122357142Y-75533609D02*
X122309523Y-75628847D01*
X122309523Y-75628847D02*
X122309523Y-75866942D01*
X122309523Y-75866942D02*
X122357142Y-75962180D01*
X122357142Y-75962180D02*
X122404761Y-76009800D01*
X122404761Y-76009800D02*
X122499999Y-76057419D01*
X122499999Y-76057419D02*
X122785713Y-76057419D01*
X122785713Y-76057419D02*
X122880951Y-76009800D01*
X122880951Y-76009800D02*
X122928570Y-75962180D01*
X121690475Y-75057419D02*
X121595237Y-75057419D01*
X121595237Y-75057419D02*
X121499999Y-75105038D01*
X121499999Y-75105038D02*
X121452380Y-75152657D01*
X121452380Y-75152657D02*
X121404761Y-75247895D01*
X121404761Y-75247895D02*
X121357142Y-75438371D01*
X121357142Y-75438371D02*
X121357142Y-75676466D01*
X121357142Y-75676466D02*
X121404761Y-75866942D01*
X121404761Y-75866942D02*
X121452380Y-75962180D01*
X121452380Y-75962180D02*
X121499999Y-76009800D01*
X121499999Y-76009800D02*
X121595237Y-76057419D01*
X121595237Y-76057419D02*
X121690475Y-76057419D01*
X121690475Y-76057419D02*
X121785713Y-76009800D01*
X121785713Y-76009800D02*
X121833332Y-75962180D01*
X121833332Y-75962180D02*
X121880951Y-75866942D01*
X121880951Y-75866942D02*
X121928570Y-75676466D01*
X121928570Y-75676466D02*
X121928570Y-75438371D01*
X121928570Y-75438371D02*
X121880951Y-75247895D01*
X121880951Y-75247895D02*
X121833332Y-75152657D01*
X121833332Y-75152657D02*
X121785713Y-75105038D01*
X121785713Y-75105038D02*
X121690475Y-75057419D01*
D10*
X123766666Y-94654819D02*
X124099999Y-94178628D01*
X124338094Y-94654819D02*
X124338094Y-93654819D01*
X124338094Y-93654819D02*
X123957142Y-93654819D01*
X123957142Y-93654819D02*
X123861904Y-93702438D01*
X123861904Y-93702438D02*
X123814285Y-93750057D01*
X123814285Y-93750057D02*
X123766666Y-93845295D01*
X123766666Y-93845295D02*
X123766666Y-93988152D01*
X123766666Y-93988152D02*
X123814285Y-94083390D01*
X123814285Y-94083390D02*
X123861904Y-94131009D01*
X123861904Y-94131009D02*
X123957142Y-94178628D01*
X123957142Y-94178628D02*
X124338094Y-94178628D01*
X123433332Y-93654819D02*
X122814285Y-93654819D01*
X122814285Y-93654819D02*
X123147618Y-94035771D01*
X123147618Y-94035771D02*
X123004761Y-94035771D01*
X123004761Y-94035771D02*
X122909523Y-94083390D01*
X122909523Y-94083390D02*
X122861904Y-94131009D01*
X122861904Y-94131009D02*
X122814285Y-94226247D01*
X122814285Y-94226247D02*
X122814285Y-94464342D01*
X122814285Y-94464342D02*
X122861904Y-94559580D01*
X122861904Y-94559580D02*
X122909523Y-94607200D01*
X122909523Y-94607200D02*
X123004761Y-94654819D01*
X123004761Y-94654819D02*
X123290475Y-94654819D01*
X123290475Y-94654819D02*
X123385713Y-94607200D01*
X123385713Y-94607200D02*
X123433332Y-94559580D01*
X140217857Y-61192902D02*
X140434524Y-60883378D01*
X140589286Y-61192902D02*
X140589286Y-60542902D01*
X140589286Y-60542902D02*
X140341667Y-60542902D01*
X140341667Y-60542902D02*
X140279762Y-60573854D01*
X140279762Y-60573854D02*
X140248809Y-60604807D01*
X140248809Y-60604807D02*
X140217857Y-60666711D01*
X140217857Y-60666711D02*
X140217857Y-60759569D01*
X140217857Y-60759569D02*
X140248809Y-60821473D01*
X140248809Y-60821473D02*
X140279762Y-60852426D01*
X140279762Y-60852426D02*
X140341667Y-60883378D01*
X140341667Y-60883378D02*
X140589286Y-60883378D01*
X139970238Y-60604807D02*
X139939286Y-60573854D01*
X139939286Y-60573854D02*
X139877381Y-60542902D01*
X139877381Y-60542902D02*
X139722619Y-60542902D01*
X139722619Y-60542902D02*
X139660714Y-60573854D01*
X139660714Y-60573854D02*
X139629762Y-60604807D01*
X139629762Y-60604807D02*
X139598809Y-60666711D01*
X139598809Y-60666711D02*
X139598809Y-60728616D01*
X139598809Y-60728616D02*
X139629762Y-60821473D01*
X139629762Y-60821473D02*
X140001190Y-61192902D01*
X140001190Y-61192902D02*
X139598809Y-61192902D01*
X139382142Y-60542902D02*
X138948809Y-60542902D01*
X138948809Y-60542902D02*
X139227380Y-61192902D01*
%TO.C,R24*%
X143100000Y-69380000D02*
X141400000Y-69380000D01*
X141400000Y-70780000D02*
X143100000Y-70780000D01*
%TO.C,R23*%
X143100000Y-70980000D02*
X141400000Y-70980000D01*
X141400000Y-72380000D02*
X143100000Y-72380000D01*
D12*
%TO.C,C25*%
X152265000Y-64548752D02*
X152265000Y-64026248D01*
X153735000Y-64548752D02*
X153735000Y-64026248D01*
%TO.C,C16*%
X127298752Y-62735000D02*
X126776248Y-62735000D01*
X127298752Y-61265000D02*
X126776248Y-61265000D01*
%TO.C,C2*%
X145835000Y-83950000D02*
X150235000Y-83950000D01*
X147781000Y-85750000D02*
X147527000Y-85750000D01*
X147781000Y-85750000D02*
X147781000Y-84861000D01*
X147781000Y-86639000D02*
X147781000Y-85750000D01*
X148289000Y-85750000D02*
X148543000Y-85750000D01*
X148289000Y-86639000D02*
X148289000Y-84861000D01*
X150235000Y-87350000D02*
X145835000Y-87350000D01*
X145835001Y-83950000D02*
G75*
G03*
X145835001Y-87350000I2462359J-1700000D01*
G01*
X150234999Y-87349999D02*
G75*
G03*
X150234999Y-83950001I-2462357J1699999D01*
G01*
D10*
%TO.C,R26*%
X143100000Y-66180000D02*
X141400000Y-66180000D01*
X141400000Y-67580000D02*
X143100000Y-67580000D01*
D12*
%TO.C,D4*%
X150060000Y-40010000D02*
X148250000Y-40010000D01*
X150060000Y-39400000D02*
X150060000Y-40010000D01*
X146405000Y-40010000D02*
X144850000Y-40010000D01*
%TO.C,C15*%
X114233500Y-63047500D02*
X117916500Y-63047500D01*
X114233500Y-64952500D02*
X114233500Y-63047500D01*
X117916500Y-63047500D02*
X117916500Y-64952500D01*
X117916500Y-64952500D02*
X114233500Y-64952500D01*
%TO.C,D3*%
X156810000Y-40010000D02*
X155000000Y-40010000D01*
X156810000Y-39400000D02*
X156810000Y-40010000D01*
X153155000Y-40010000D02*
X151600000Y-40010000D01*
%TO.C,C7*%
X161200000Y-94187500D02*
X161200000Y-89787500D01*
X163000000Y-92241500D02*
X163000000Y-92495500D01*
X163000000Y-92241500D02*
X162111000Y-92241500D01*
X163889000Y-92241500D02*
X163000000Y-92241500D01*
X163000000Y-91733500D02*
X163000000Y-91479500D01*
X163889000Y-91733500D02*
X162111000Y-91733500D01*
X164600000Y-89787500D02*
X164600000Y-94187500D01*
X161200000Y-94187499D02*
G75*
G03*
X164600000Y-94187499I1700000J2462359D01*
G01*
X164599999Y-89787501D02*
G75*
G03*
X161200001Y-89787501I-1699999J-2462357D01*
G01*
D10*
%TO.C,R30*%
X143250000Y-55380000D02*
X141550000Y-55380000D01*
X141550000Y-56780000D02*
X143250000Y-56780000D01*
D12*
%TO.C,C31*%
X141658500Y-64047500D02*
X145341500Y-64047500D01*
X141658500Y-65952500D02*
X141658500Y-64047500D01*
X145341500Y-64047500D02*
X145341500Y-65952500D01*
X145341500Y-65952500D02*
X141658500Y-65952500D01*
%TO.C,C34*%
X142973752Y-74735000D02*
X142451248Y-74735000D01*
X142973752Y-73265000D02*
X142451248Y-73265000D01*
%TO.C,C28*%
X153005000Y-72946000D02*
X153005000Y-76629000D01*
X151100000Y-72946000D02*
X153005000Y-72946000D01*
X153005000Y-76629000D02*
X151100000Y-76629000D01*
X151100000Y-76629000D02*
X151100000Y-72946000D01*
%TO.C,J3*%
X174330000Y-50410000D02*
X171670000Y-50410000D01*
X174330000Y-45270000D02*
X174330000Y-50410000D01*
X174330000Y-45270000D02*
X171670000Y-45270000D01*
X174330000Y-44000000D02*
X174330000Y-42670000D01*
X174330000Y-42670000D02*
X173000000Y-42670000D01*
X171670000Y-45270000D02*
X171670000Y-50410000D01*
%TO.C,C27*%
X149287500Y-75048752D02*
X149287500Y-74526248D01*
X150757500Y-75048752D02*
X150757500Y-74526248D01*
%TO.C,C22*%
X117223752Y-52685000D02*
X116701248Y-52685000D01*
X117223752Y-51215000D02*
X116701248Y-51215000D01*
%TO.C,D1*%
X95800000Y-57950000D02*
X95800000Y-65350000D01*
X91200000Y-57950000D02*
X95800000Y-57950000D01*
X95800000Y-65350000D02*
X91200000Y-65350000D01*
X91200000Y-65350000D02*
X91200000Y-57950000D01*
D11*
X96200000Y-60450000D02*
X95800000Y-60450000D01*
X95800000Y-59350000D01*
X96200000Y-59350000D01*
X96200000Y-60450000D01*
G36*
X96200000Y-60450000D02*
G01*
X95800000Y-60450000D01*
X95800000Y-59350000D01*
X96200000Y-59350000D01*
X96200000Y-60450000D01*
G37*
X91200000Y-60450000D02*
X90800000Y-60450000D01*
X90800000Y-59350000D01*
X91200000Y-59350000D01*
X91200000Y-60450000D01*
G36*
X91200000Y-60450000D02*
G01*
X90800000Y-60450000D01*
X90800000Y-59350000D01*
X91200000Y-59350000D01*
X91200000Y-60450000D01*
G37*
D10*
%TO.C,R29*%
X143250000Y-56980000D02*
X141550000Y-56980000D01*
X141550000Y-58380000D02*
X143250000Y-58380000D01*
D12*
%TO.C,R7*%
X120793922Y-87540000D02*
X121311078Y-87540000D01*
X120793922Y-88960000D02*
X121311078Y-88960000D01*
D10*
%TO.C,R19*%
X143000000Y-82180000D02*
X141300000Y-82180000D01*
X141300000Y-83580000D02*
X143000000Y-83580000D01*
D12*
%TO.C,D5*%
X93150000Y-52700000D02*
X100550000Y-52700000D01*
X93150000Y-57300000D02*
X93150000Y-52700000D01*
X100550000Y-52700000D02*
X100550000Y-57300000D01*
X100550000Y-57300000D02*
X93150000Y-57300000D01*
D11*
X95650000Y-52700000D02*
X94550000Y-52700000D01*
X94550000Y-52300000D01*
X95650000Y-52300000D01*
X95650000Y-52700000D01*
G36*
X95650000Y-52700000D02*
G01*
X94550000Y-52700000D01*
X94550000Y-52300000D01*
X95650000Y-52300000D01*
X95650000Y-52700000D01*
G37*
X95650000Y-57700000D02*
X94550000Y-57700000D01*
X94550000Y-57300000D01*
X95650000Y-57300000D01*
X95650000Y-57700000D01*
G36*
X95650000Y-57700000D02*
G01*
X94550000Y-57700000D01*
X94550000Y-57300000D01*
X95650000Y-57300000D01*
X95650000Y-57700000D01*
G37*
D12*
%TO.C,C10*%
X132300000Y-56312500D02*
X132300000Y-60712500D01*
X130500000Y-58258500D02*
X130500000Y-58004500D01*
X130500000Y-58258500D02*
X131389000Y-58258500D01*
X129611000Y-58258500D02*
X130500000Y-58258500D01*
X130500000Y-58766500D02*
X130500000Y-59020500D01*
X129611000Y-58766500D02*
X131389000Y-58766500D01*
X128900000Y-60712500D02*
X128900000Y-56312500D01*
X132300000Y-56312501D02*
G75*
G03*
X128900000Y-56312501I-1700000J-2462359D01*
G01*
X128900001Y-60712499D02*
G75*
G03*
X132299999Y-60712499I1699999J2462357D01*
G01*
D10*
%TO.C,R28*%
X143100000Y-58580000D02*
X141400000Y-58580000D01*
X141400000Y-59980000D02*
X143100000Y-59980000D01*
D12*
%TO.C,C18*%
X115158500Y-53047500D02*
X118841500Y-53047500D01*
X115158500Y-54952500D02*
X115158500Y-53047500D01*
X118841500Y-53047500D02*
X118841500Y-54952500D01*
X118841500Y-54952500D02*
X115158500Y-54952500D01*
%TO.C,C30*%
X141408500Y-53047500D02*
X145091500Y-53047500D01*
X141408500Y-54952500D02*
X141408500Y-53047500D01*
X145091500Y-53047500D02*
X145091500Y-54952500D01*
X145091500Y-54952500D02*
X141408500Y-54952500D01*
D10*
%TO.C,R20*%
X143000000Y-80580000D02*
X141300000Y-80580000D01*
X141300000Y-81980000D02*
X143000000Y-81980000D01*
D12*
%TO.C,U2*%
X127105000Y-81525000D02*
X127105000Y-79575000D01*
X127105000Y-81525000D02*
X127105000Y-83475000D01*
X116985000Y-81525000D02*
X116985000Y-78075000D01*
X116985000Y-81525000D02*
X116985000Y-83475000D01*
%TO.C,U5*%
X154182500Y-97782500D02*
X154182500Y-96582500D01*
X154382500Y-97582500D02*
X154382500Y-85812500D01*
X155382500Y-97782500D02*
X154182500Y-97782500D01*
X160722500Y-85812500D02*
X154382500Y-85812500D01*
X160722500Y-97582500D02*
X154382500Y-97582500D01*
X160722500Y-97582500D02*
X160722500Y-85812500D01*
%TO.C,C32*%
X143798752Y-63735000D02*
X143276248Y-63735000D01*
X143798752Y-62265000D02*
X143276248Y-62265000D01*
D10*
%TO.C,R21*%
X143000000Y-78980000D02*
X141300000Y-78980000D01*
X141300000Y-80380000D02*
X143000000Y-80380000D01*
D12*
%TO.C,C23*%
X149570000Y-56091500D02*
X149570000Y-52408500D01*
X151475000Y-56091500D02*
X149570000Y-56091500D01*
X149570000Y-52408500D02*
X151475000Y-52408500D01*
X151475000Y-52408500D02*
X151475000Y-56091500D01*
%TO.C,J2*%
X127830000Y-38330000D02*
X127830000Y-43530000D01*
X122690000Y-38330000D02*
X127830000Y-38330000D01*
X122690000Y-38330000D02*
X122690000Y-40930000D01*
X121420000Y-38330000D02*
X120090000Y-38330000D01*
X120090000Y-38330000D02*
X120090000Y-39660000D01*
X122690000Y-40930000D02*
X120090000Y-40930000D01*
X120090000Y-40930000D02*
X120090000Y-43530000D01*
X120090000Y-43530000D02*
X127830000Y-43530000D01*
%TO.C,D2*%
X101800000Y-57950000D02*
X101800000Y-65350000D01*
X97200000Y-57950000D02*
X101800000Y-57950000D01*
X101800000Y-65350000D02*
X97200000Y-65350000D01*
X97200000Y-65350000D02*
X97200000Y-57950000D01*
D11*
X102200000Y-60450000D02*
X101800000Y-60450000D01*
X101800000Y-59350000D01*
X102200000Y-59350000D01*
X102200000Y-60450000D01*
G36*
X102200000Y-60450000D02*
G01*
X101800000Y-60450000D01*
X101800000Y-59350000D01*
X102200000Y-59350000D01*
X102200000Y-60450000D01*
G37*
X97200000Y-60450000D02*
X96800000Y-60450000D01*
X96800000Y-59350000D01*
X97200000Y-59350000D01*
X97200000Y-60450000D01*
G36*
X97200000Y-60450000D02*
G01*
X96800000Y-60450000D01*
X96800000Y-59350000D01*
X97200000Y-59350000D01*
X97200000Y-60450000D01*
G37*
D12*
%TO.C,C20*%
X128841500Y-64952500D02*
X125158500Y-64952500D01*
X128841500Y-63047500D02*
X128841500Y-64952500D01*
X125158500Y-64952500D02*
X125158500Y-63047500D01*
X125158500Y-63047500D02*
X128841500Y-63047500D01*
%TO.C,C24*%
X153257500Y-54026248D02*
X153257500Y-54548752D01*
X151787500Y-54026248D02*
X151787500Y-54548752D01*
%TO.C,C26*%
X151452500Y-62408500D02*
X151452500Y-66091500D01*
X149547500Y-62408500D02*
X151452500Y-62408500D01*
X151452500Y-66091500D02*
X149547500Y-66091500D01*
X149547500Y-66091500D02*
X149547500Y-62408500D01*
%TO.C,R6*%
X120793922Y-89790000D02*
X121311078Y-89790000D01*
X120793922Y-91210000D02*
X121311078Y-91210000D01*
%TO.C,J5*%
X127330000Y-67670000D02*
X127330000Y-70330000D01*
X124730000Y-67670000D02*
X127330000Y-67670000D01*
X124730000Y-67670000D02*
X124730000Y-70330000D01*
X123460000Y-67670000D02*
X122130000Y-67670000D01*
X122130000Y-67670000D02*
X122130000Y-69000000D01*
X124730000Y-70330000D02*
X127330000Y-70330000D01*
%TO.C,R9*%
X120122500Y-55341500D02*
X120122500Y-51658500D01*
X122027500Y-55341500D02*
X120122500Y-55341500D01*
X120122500Y-51658500D02*
X122027500Y-51658500D01*
X122027500Y-51658500D02*
X122027500Y-55341500D01*
%TO.C,C33*%
X140908500Y-75047500D02*
X144591500Y-75047500D01*
X140908500Y-76952500D02*
X140908500Y-75047500D01*
X144591500Y-75047500D02*
X144591500Y-76952500D01*
X144591500Y-76952500D02*
X140908500Y-76952500D01*
%TO.C,R8*%
X119553922Y-68540000D02*
X120071078Y-68540000D01*
X119553922Y-69960000D02*
X120071078Y-69960000D01*
D10*
%TO.C,R25*%
X143100000Y-67800000D02*
X141400000Y-67800000D01*
X141400000Y-69200000D02*
X143100000Y-69200000D01*
D12*
%TO.C,J4*%
X174330000Y-80870000D02*
X171670000Y-80870000D01*
X174330000Y-78270000D02*
X174330000Y-80870000D01*
X174330000Y-78270000D02*
X171670000Y-78270000D01*
X174330000Y-77000000D02*
X174330000Y-75670000D01*
X174330000Y-75670000D02*
X173000000Y-75670000D01*
X171670000Y-78270000D02*
X171670000Y-80870000D01*
D10*
%TO.C,R22*%
X143000000Y-77380000D02*
X141300000Y-77380000D01*
X141300000Y-78780000D02*
X143000000Y-78780000D01*
D12*
%TO.C,C14*%
X168161000Y-91749759D02*
X168161000Y-92379759D01*
X167846000Y-92064759D02*
X168476000Y-92064759D01*
X166770000Y-95250000D02*
X173230000Y-95250000D01*
X166770000Y-95290000D02*
X173230000Y-95290000D01*
X166770000Y-95330000D02*
X173230000Y-95330000D01*
X166772000Y-95370000D02*
X173228000Y-95370000D01*
X166773000Y-95410000D02*
X173227000Y-95410000D01*
X166776000Y-95450000D02*
X173224000Y-95450000D01*
X171040000Y-95490000D02*
X173222000Y-95490000D01*
X166778000Y-95490000D02*
X168960000Y-95490000D01*
X171040000Y-95530000D02*
X173218000Y-95530000D01*
X166782000Y-95530000D02*
X168960000Y-95530000D01*
X171040000Y-95570000D02*
X173215000Y-95570000D01*
X166785000Y-95570000D02*
X168960000Y-95570000D01*
X171040000Y-95610000D02*
X173211000Y-95610000D01*
X166789000Y-95610000D02*
X168960000Y-95610000D01*
X171040000Y-95650000D02*
X173206000Y-95650000D01*
X166794000Y-95650000D02*
X168960000Y-95650000D01*
X171040000Y-95690000D02*
X173201000Y-95690000D01*
X166799000Y-95690000D02*
X168960000Y-95690000D01*
X171040000Y-95730000D02*
X173195000Y-95730000D01*
X166805000Y-95730000D02*
X168960000Y-95730000D01*
X171040000Y-95770000D02*
X173189000Y-95770000D01*
X166811000Y-95770000D02*
X168960000Y-95770000D01*
X171040000Y-95810000D02*
X173182000Y-95810000D01*
X166818000Y-95810000D02*
X168960000Y-95810000D01*
X171040000Y-95850000D02*
X173175000Y-95850000D01*
X166825000Y-95850000D02*
X168960000Y-95850000D01*
X171040000Y-95890000D02*
X173167000Y-95890000D01*
X166833000Y-95890000D02*
X168960000Y-95890000D01*
X171040000Y-95930000D02*
X173159000Y-95930000D01*
X166841000Y-95930000D02*
X168960000Y-95930000D01*
X171040000Y-95971000D02*
X173150000Y-95971000D01*
X166850000Y-95971000D02*
X168960000Y-95971000D01*
X171040000Y-96011000D02*
X173141000Y-96011000D01*
X166859000Y-96011000D02*
X168960000Y-96011000D01*
X171040000Y-96051000D02*
X173131000Y-96051000D01*
X166869000Y-96051000D02*
X168960000Y-96051000D01*
X171040000Y-96091000D02*
X173121000Y-96091000D01*
X166879000Y-96091000D02*
X168960000Y-96091000D01*
X171040000Y-96131000D02*
X173110000Y-96131000D01*
X166890000Y-96131000D02*
X168960000Y-96131000D01*
X171040000Y-96171000D02*
X173098000Y-96171000D01*
X166902000Y-96171000D02*
X168960000Y-96171000D01*
X171040000Y-96211000D02*
X173086000Y-96211000D01*
X166914000Y-96211000D02*
X168960000Y-96211000D01*
X171040000Y-96251000D02*
X173074000Y-96251000D01*
X166926000Y-96251000D02*
X168960000Y-96251000D01*
X171040000Y-96291000D02*
X173061000Y-96291000D01*
X166939000Y-96291000D02*
X168960000Y-96291000D01*
X171040000Y-96331000D02*
X173047000Y-96331000D01*
X166953000Y-96331000D02*
X168960000Y-96331000D01*
X171040000Y-96371000D02*
X173033000Y-96371000D01*
X166967000Y-96371000D02*
X168960000Y-96371000D01*
X171040000Y-96411000D02*
X173018000Y-96411000D01*
X166982000Y-96411000D02*
X168960000Y-96411000D01*
X171040000Y-96451000D02*
X173002000Y-96451000D01*
X166998000Y-96451000D02*
X168960000Y-96451000D01*
X171040000Y-96491000D02*
X172986000Y-96491000D01*
X167014000Y-96491000D02*
X168960000Y-96491000D01*
X171040000Y-96531000D02*
X172970000Y-96531000D01*
X167030000Y-96531000D02*
X168960000Y-96531000D01*
X171040000Y-96571000D02*
X172952000Y-96571000D01*
X167048000Y-96571000D02*
X168960000Y-96571000D01*
X171040000Y-96611000D02*
X172934000Y-96611000D01*
X167066000Y-96611000D02*
X168960000Y-96611000D01*
X171040000Y-96651000D02*
X172916000Y-96651000D01*
X167084000Y-96651000D02*
X168960000Y-96651000D01*
X171040000Y-96691000D02*
X172896000Y-96691000D01*
X167104000Y-96691000D02*
X168960000Y-96691000D01*
X171040000Y-96731000D02*
X172876000Y-96731000D01*
X167124000Y-96731000D02*
X168960000Y-96731000D01*
X171040000Y-96771000D02*
X172856000Y-96771000D01*
X167144000Y-96771000D02*
X168960000Y-96771000D01*
X171040000Y-96811000D02*
X172834000Y-96811000D01*
X167166000Y-96811000D02*
X168960000Y-96811000D01*
X171040000Y-96851000D02*
X172812000Y-96851000D01*
X167188000Y-96851000D02*
X168960000Y-96851000D01*
X171040000Y-96891000D02*
X172790000Y-96891000D01*
X167210000Y-96891000D02*
X168960000Y-96891000D01*
X171040000Y-96931000D02*
X172766000Y-96931000D01*
X167234000Y-96931000D02*
X168960000Y-96931000D01*
X171040000Y-96971000D02*
X172742000Y-96971000D01*
X167258000Y-96971000D02*
X168960000Y-96971000D01*
X171040000Y-97011000D02*
X172716000Y-97011000D01*
X167284000Y-97011000D02*
X168960000Y-97011000D01*
X171040000Y-97051000D02*
X172690000Y-97051000D01*
X167310000Y-97051000D02*
X168960000Y-97051000D01*
X171040000Y-97091000D02*
X172664000Y-97091000D01*
X167336000Y-97091000D02*
X168960000Y-97091000D01*
X171040000Y-97131000D02*
X172636000Y-97131000D01*
X167364000Y-97131000D02*
X168960000Y-97131000D01*
X171040000Y-97171000D02*
X172607000Y-97171000D01*
X167393000Y-97171000D02*
X168960000Y-97171000D01*
X171040000Y-97211000D02*
X172578000Y-97211000D01*
X167422000Y-97211000D02*
X168960000Y-97211000D01*
X171040000Y-97251000D02*
X172548000Y-97251000D01*
X167452000Y-97251000D02*
X168960000Y-97251000D01*
X171040000Y-97291000D02*
X172516000Y-97291000D01*
X167484000Y-97291000D02*
X168960000Y-97291000D01*
X171040000Y-97331000D02*
X172484000Y-97331000D01*
X167516000Y-97331000D02*
X168960000Y-97331000D01*
X171040000Y-97371000D02*
X172450000Y-97371000D01*
X167550000Y-97371000D02*
X168960000Y-97371000D01*
X171040000Y-97411000D02*
X172416000Y-97411000D01*
X167584000Y-97411000D02*
X168960000Y-97411000D01*
X171040000Y-97451000D02*
X172380000Y-97451000D01*
X167620000Y-97451000D02*
X168960000Y-97451000D01*
X171040000Y-97491000D02*
X172343000Y-97491000D01*
X167657000Y-97491000D02*
X168960000Y-97491000D01*
X171040000Y-97531000D02*
X172305000Y-97531000D01*
X167695000Y-97531000D02*
X168960000Y-97531000D01*
X167735000Y-97571000D02*
X172265000Y-97571000D01*
X167776000Y-97611000D02*
X172224000Y-97611000D01*
X167818000Y-97651000D02*
X172182000Y-97651000D01*
X167863000Y-97691000D02*
X172137000Y-97691000D01*
X167908000Y-97731000D02*
X172092000Y-97731000D01*
X167956000Y-97771000D02*
X172044000Y-97771000D01*
X168005000Y-97811000D02*
X171995000Y-97811000D01*
X168056000Y-97851000D02*
X171944000Y-97851000D01*
X168110000Y-97891000D02*
X171890000Y-97891000D01*
X168166000Y-97931000D02*
X171834000Y-97931000D01*
X168224000Y-97971000D02*
X171776000Y-97971000D01*
X168286000Y-98011000D02*
X171714000Y-98011000D01*
X168350000Y-98051000D02*
X171650000Y-98051000D01*
X168419000Y-98091000D02*
X171581000Y-98091000D01*
X168491000Y-98131000D02*
X171509000Y-98131000D01*
X168568000Y-98171000D02*
X171432000Y-98171000D01*
X168650000Y-98211000D02*
X171350000Y-98211000D01*
X168738000Y-98251000D02*
X171262000Y-98251000D01*
X168835000Y-98291000D02*
X171165000Y-98291000D01*
X168941000Y-98331000D02*
X171059000Y-98331000D01*
X169060000Y-98371000D02*
X170940000Y-98371000D01*
X169198000Y-98411000D02*
X170802000Y-98411000D01*
X169367000Y-98451000D02*
X170633000Y-98451000D01*
X169598000Y-98491000D02*
X170402000Y-98491000D01*
X173270000Y-95250000D02*
G75*
G03*
X173270000Y-95250000I-3270000J0D01*
G01*
%TO.C,C29*%
X143548752Y-52735000D02*
X143026248Y-52735000D01*
X143548752Y-51265000D02*
X143026248Y-51265000D01*
%TO.C,C19*%
X115776248Y-61265000D02*
X116298752Y-61265000D01*
X115776248Y-62735000D02*
X116298752Y-62735000D01*
%TO.C,R3*%
X123356422Y-91790000D02*
X123873578Y-91790000D01*
X123356422Y-93210000D02*
X123873578Y-93210000D01*
D10*
%TO.C,R27*%
X143250000Y-60180000D02*
X141550000Y-60180000D01*
X141550000Y-61580000D02*
X143250000Y-61580000D01*
%TD*%
D13*
X175000000Y-100000000D02*
X175000000Y-36000000D01*
X119500000Y-100000000D02*
X119500000Y-109500000D01*
X90000000Y-100000000D02*
X90000000Y-36000000D01*
X175000000Y-36000000D02*
X90000000Y-36000000D01*
X97500000Y-100000000D02*
X90000000Y-100000000D01*
X100000000Y-109500000D02*
X115000000Y-109500000D01*
X115000000Y-100000000D02*
X119500000Y-100000000D01*
X159400000Y-109500000D02*
X174500000Y-109500000D01*
X97500000Y-100000000D02*
X100000000Y-100000000D01*
X174500000Y-100000000D02*
X175000000Y-100000000D01*
X139600000Y-109500000D02*
X139600000Y-100000000D01*
X159400000Y-100000000D02*
X159400000Y-109500000D01*
X139600000Y-100000000D02*
X159400000Y-100000000D01*
X115000000Y-109500000D02*
X115000000Y-100000000D01*
X174500000Y-109500000D02*
X174500000Y-100000000D01*
X100000000Y-100000000D02*
X100000000Y-109500000D01*
X119500000Y-109500000D02*
X139600000Y-109500000D01*
M02*
