%TF.GenerationSoftware,KiCad,Pcbnew,7.0.9*%
%TF.CreationDate,2024-06-20T11:52:21+03:00*%
%TF.ProjectId,___________ _____,1c304235-4038-43d4-913a-304f203f3b30,rev?*%
%TF.SameCoordinates,Original*%
%TF.FileFunction,Soldermask,Bot*%
%TF.FilePolarity,Negative*%
%FSLAX46Y46*%
G04 Gerber Fmt 4.6, Leading zero omitted, Abs format (unit mm)*
G04 Created by KiCad (PCBNEW 7.0.9) date 2024-06-20 11:52:21*
%MOMM*%
%LPD*%
G01*
G04 APERTURE LIST*
G04 Aperture macros list*
%AMRoundRect*
0 Rectangle with rounded corners*
0 $1 Rounding radius*
0 $2 $3 $4 $5 $6 $7 $8 $9 X,Y pos of 4 corners*
0 Add a 4 corners polygon primitive as box body*
4,1,4,$2,$3,$4,$5,$6,$7,$8,$9,$2,$3,0*
0 Add four circle primitives for the rounded corners*
1,1,$1+$1,$2,$3*
1,1,$1+$1,$4,$5*
1,1,$1+$1,$6,$7*
1,1,$1+$1,$8,$9*
0 Add four rect primitives between the rounded corners*
20,1,$1+$1,$2,$3,$4,$5,0*
20,1,$1+$1,$4,$5,$6,$7,0*
20,1,$1+$1,$6,$7,$8,$9,0*
20,1,$1+$1,$8,$9,$2,$3,0*%
G04 Aperture macros list end*
%ADD10C,1.700000*%
%ADD11R,2.000000X2.000000*%
%ADD12C,2.000000*%
%ADD13C,6.000000*%
%ADD14C,3.000000*%
%ADD15R,1.800000X1.400000*%
%ADD16O,1.800000X1.400000*%
%ADD17C,2.300000*%
%ADD18RoundRect,0.250000X-0.350000X-0.450000X0.350000X-0.450000X0.350000X0.450000X-0.350000X0.450000X0*%
%ADD19RoundRect,0.150000X0.587500X0.150000X-0.587500X0.150000X-0.587500X-0.150000X0.587500X-0.150000X0*%
%ADD20RoundRect,0.250001X-0.624999X0.462499X-0.624999X-0.462499X0.624999X-0.462499X0.624999X0.462499X0*%
%ADD21RoundRect,0.250001X0.624999X-0.462499X0.624999X0.462499X-0.624999X0.462499X-0.624999X-0.462499X0*%
G04 APERTURE END LIST*
D10*
%TO.C,J6*%
X227000000Y-33000000D03*
X227000000Y-35540000D03*
X227000000Y-38080000D03*
X227000000Y-40620000D03*
X227000000Y-43160000D03*
X232080000Y-43160000D03*
X232080000Y-40620000D03*
X232080000Y-38080000D03*
X232080000Y-35540000D03*
X232080000Y-33000000D03*
%TD*%
D11*
%TO.C,C1*%
X241500000Y-88367677D03*
D12*
X241500000Y-83367677D03*
%TD*%
D10*
%TO.C,J22*%
X35000000Y-33000000D03*
X35000000Y-35540000D03*
X35000000Y-38080000D03*
X35000000Y-40620000D03*
X35000000Y-43160000D03*
X40080000Y-43160000D03*
X40080000Y-40620000D03*
X40080000Y-38080000D03*
X40080000Y-35540000D03*
X40080000Y-33000000D03*
%TD*%
D13*
%TO.C,H6*%
X98000000Y-31500000D03*
%TD*%
D14*
%TO.C,J27*%
X213650000Y-98380000D03*
X213650000Y-106000000D03*
X218730000Y-98380000D03*
X218730000Y-106000000D03*
%TD*%
D10*
%TO.C,J16*%
X107000000Y-33000000D03*
X107000000Y-35540000D03*
X107000000Y-38080000D03*
X107000000Y-40620000D03*
X107000000Y-43160000D03*
X112080000Y-43160000D03*
X112080000Y-40620000D03*
X112080000Y-38080000D03*
X112080000Y-35540000D03*
X112080000Y-33000000D03*
%TD*%
D13*
%TO.C,H1*%
X5500000Y-31500000D03*
%TD*%
D10*
%TO.C,J9*%
X203020000Y-92400000D03*
X203020000Y-94940000D03*
X203020000Y-97480000D03*
X203020000Y-100020000D03*
X203020000Y-102560000D03*
X208100000Y-102560000D03*
X208100000Y-100020000D03*
X208100000Y-97480000D03*
X208100000Y-94940000D03*
X208100000Y-92400000D03*
%TD*%
D13*
%TO.C,H13*%
X194000000Y-31500000D03*
%TD*%
D10*
%TO.C,J3*%
X279020000Y-52500000D03*
X279020000Y-55040000D03*
X279020000Y-57580000D03*
X279020000Y-60120000D03*
X279020000Y-62660000D03*
X279020000Y-65200000D03*
X279020000Y-67740000D03*
X284100000Y-67740000D03*
X284100000Y-65200000D03*
X284100000Y-62660000D03*
X284100000Y-60120000D03*
X284100000Y-57580000D03*
X284100000Y-55040000D03*
X284100000Y-52500000D03*
%TD*%
%TO.C,J7*%
X227020000Y-92400000D03*
X227020000Y-94940000D03*
X227020000Y-97480000D03*
X227020000Y-100020000D03*
X227020000Y-102560000D03*
X232100000Y-102560000D03*
X232100000Y-100020000D03*
X232100000Y-97480000D03*
X232100000Y-94940000D03*
X232100000Y-92400000D03*
%TD*%
%TO.C,J4*%
X251000000Y-33000000D03*
X251000000Y-35540000D03*
X251000000Y-38080000D03*
X251000000Y-40620000D03*
X251000000Y-43160000D03*
X256080000Y-43160000D03*
X256080000Y-40620000D03*
X256080000Y-38080000D03*
X256080000Y-35540000D03*
X256080000Y-33000000D03*
%TD*%
D15*
%TO.C,U2*%
X27867500Y-71762500D03*
D16*
X27867500Y-69222500D03*
X27867500Y-66682500D03*
X27867500Y-64142500D03*
%TD*%
D13*
%TO.C,H10*%
X98000000Y-105500000D03*
%TD*%
D10*
%TO.C,J20*%
X59000000Y-33000000D03*
X59000000Y-35540000D03*
X59000000Y-38080000D03*
X59000000Y-40620000D03*
X59000000Y-43160000D03*
X64080000Y-43160000D03*
X64080000Y-40620000D03*
X64080000Y-38080000D03*
X64080000Y-35540000D03*
X64080000Y-33000000D03*
%TD*%
D13*
%TO.C,H7*%
X50000000Y-105500000D03*
%TD*%
D17*
%TO.C,F1*%
X270000000Y-69750000D03*
X270000000Y-74850000D03*
X270000000Y-85150000D03*
X270000000Y-90250000D03*
%TD*%
D13*
%TO.C,H14*%
X5500000Y-105500000D03*
%TD*%
%TO.C,H9*%
X242000000Y-105500000D03*
%TD*%
D10*
%TO.C,J19*%
X83020000Y-92400000D03*
X83020000Y-94940000D03*
X83020000Y-97480000D03*
X83020000Y-100020000D03*
X83020000Y-102560000D03*
X88100000Y-102560000D03*
X88100000Y-100020000D03*
X88100000Y-97480000D03*
X88100000Y-94940000D03*
X88100000Y-92400000D03*
%TD*%
D17*
%TO.C,F2*%
X216000000Y-70250000D03*
X216000000Y-75350000D03*
X216000000Y-85650000D03*
X216000000Y-90750000D03*
%TD*%
D13*
%TO.C,H5*%
X242000000Y-31500000D03*
%TD*%
%TO.C,H2*%
X50000000Y-31500000D03*
%TD*%
D10*
%TO.C,J2*%
X279000000Y-92400000D03*
X279000000Y-94940000D03*
X279000000Y-97480000D03*
X279000000Y-100020000D03*
X279000000Y-102560000D03*
X284080000Y-102560000D03*
X284080000Y-100020000D03*
X284080000Y-97480000D03*
X284080000Y-94940000D03*
X284080000Y-92400000D03*
%TD*%
%TO.C,J1*%
X279000000Y-33000000D03*
X279000000Y-35540000D03*
X279000000Y-38080000D03*
X279000000Y-40620000D03*
X279000000Y-43160000D03*
X284080000Y-43160000D03*
X284080000Y-40620000D03*
X284080000Y-38080000D03*
X284080000Y-35540000D03*
X284080000Y-33000000D03*
%TD*%
D13*
%TO.C,H3*%
X146000000Y-31500000D03*
%TD*%
D10*
%TO.C,J24*%
X11000000Y-33000000D03*
X11000000Y-35540000D03*
X11000000Y-38080000D03*
X11000000Y-40620000D03*
X11000000Y-43160000D03*
X16080000Y-43160000D03*
X16080000Y-40620000D03*
X16080000Y-38080000D03*
X16080000Y-35540000D03*
X16080000Y-33000000D03*
%TD*%
D11*
%TO.C,C2*%
X241500000Y-94132323D03*
D12*
X241500000Y-99132323D03*
%TD*%
D13*
%TO.C,H4*%
X289500000Y-31500000D03*
%TD*%
D10*
%TO.C,J18*%
X83000000Y-33000000D03*
X83000000Y-35540000D03*
X83000000Y-38080000D03*
X83000000Y-40620000D03*
X83000000Y-43160000D03*
X88080000Y-43160000D03*
X88080000Y-40620000D03*
X88080000Y-38080000D03*
X88080000Y-35540000D03*
X88080000Y-33000000D03*
%TD*%
%TO.C,J11*%
X179020000Y-92400000D03*
X179020000Y-94940000D03*
X179020000Y-97480000D03*
X179020000Y-100020000D03*
X179020000Y-102560000D03*
X184100000Y-102560000D03*
X184100000Y-100020000D03*
X184100000Y-97480000D03*
X184100000Y-94940000D03*
X184100000Y-92400000D03*
%TD*%
%TO.C,J13*%
X155020000Y-92400000D03*
X155020000Y-94940000D03*
X155020000Y-97480000D03*
X155020000Y-100020000D03*
X155020000Y-102560000D03*
X160100000Y-102560000D03*
X160100000Y-100020000D03*
X160100000Y-97480000D03*
X160100000Y-94940000D03*
X160100000Y-92400000D03*
%TD*%
%TO.C,J15*%
X131020000Y-92400000D03*
X131020000Y-94940000D03*
X131020000Y-97480000D03*
X131020000Y-100020000D03*
X131020000Y-102560000D03*
X136100000Y-102560000D03*
X136100000Y-100020000D03*
X136100000Y-97480000D03*
X136100000Y-94940000D03*
X136100000Y-92400000D03*
%TD*%
D13*
%TO.C,H11*%
X146000000Y-105500000D03*
%TD*%
D10*
%TO.C,J17*%
X107020000Y-92400000D03*
X107020000Y-94940000D03*
X107020000Y-97480000D03*
X107020000Y-100020000D03*
X107020000Y-102560000D03*
X112100000Y-102560000D03*
X112100000Y-100020000D03*
X112100000Y-97480000D03*
X112100000Y-94940000D03*
X112100000Y-92400000D03*
%TD*%
D14*
%TO.C,J26*%
X263000000Y-98380000D03*
X263000000Y-106000000D03*
X268080000Y-98380000D03*
X268080000Y-106000000D03*
%TD*%
D13*
%TO.C,H8*%
X194000000Y-105500000D03*
%TD*%
D10*
%TO.C,J14*%
X131000000Y-33000000D03*
X131000000Y-35540000D03*
X131000000Y-38080000D03*
X131000000Y-40620000D03*
X131000000Y-43160000D03*
X136080000Y-43160000D03*
X136080000Y-40620000D03*
X136080000Y-38080000D03*
X136080000Y-35540000D03*
X136080000Y-33000000D03*
%TD*%
%TO.C,J10*%
X179000000Y-33000000D03*
X179000000Y-35540000D03*
X179000000Y-38080000D03*
X179000000Y-40620000D03*
X179000000Y-43160000D03*
X184080000Y-43160000D03*
X184080000Y-40620000D03*
X184080000Y-38080000D03*
X184080000Y-35540000D03*
X184080000Y-33000000D03*
%TD*%
%TO.C,J12*%
X155000000Y-33000000D03*
X155000000Y-35540000D03*
X155000000Y-38080000D03*
X155000000Y-40620000D03*
X155000000Y-43160000D03*
X160080000Y-43160000D03*
X160080000Y-40620000D03*
X160080000Y-38080000D03*
X160080000Y-35540000D03*
X160080000Y-33000000D03*
%TD*%
%TO.C,J23*%
X35020000Y-92400000D03*
X35020000Y-94940000D03*
X35020000Y-97480000D03*
X35020000Y-100020000D03*
X35020000Y-102560000D03*
X40100000Y-102560000D03*
X40100000Y-100020000D03*
X40100000Y-97480000D03*
X40100000Y-94940000D03*
X40100000Y-92400000D03*
%TD*%
%TO.C,J5*%
X251000000Y-92400000D03*
X251000000Y-94940000D03*
X251000000Y-97480000D03*
X251000000Y-100020000D03*
X251000000Y-102560000D03*
X256080000Y-102560000D03*
X256080000Y-100020000D03*
X256080000Y-97480000D03*
X256080000Y-94940000D03*
X256080000Y-92400000D03*
%TD*%
%TO.C,J21*%
X59020000Y-92400000D03*
X59020000Y-94940000D03*
X59020000Y-97480000D03*
X59020000Y-100020000D03*
X59020000Y-102560000D03*
X64100000Y-102560000D03*
X64100000Y-100020000D03*
X64100000Y-97480000D03*
X64100000Y-94940000D03*
X64100000Y-92400000D03*
%TD*%
%TO.C,J8*%
X203000000Y-33000000D03*
X203000000Y-35540000D03*
X203000000Y-38080000D03*
X203000000Y-40620000D03*
X203000000Y-43160000D03*
X208080000Y-43160000D03*
X208080000Y-40620000D03*
X208080000Y-38080000D03*
X208080000Y-35540000D03*
X208080000Y-33000000D03*
%TD*%
%TO.C,J25*%
X11020000Y-92400000D03*
X11020000Y-94940000D03*
X11020000Y-97480000D03*
X11020000Y-100020000D03*
X11020000Y-102560000D03*
X16100000Y-102560000D03*
X16100000Y-100020000D03*
X16100000Y-97480000D03*
X16100000Y-94940000D03*
X16100000Y-92400000D03*
%TD*%
D13*
%TO.C,H12*%
X289500000Y-105500000D03*
%TD*%
D18*
%TO.C,R4*%
X243000000Y-80500000D03*
X245000000Y-80500000D03*
%TD*%
D19*
%TO.C,U1*%
X243437500Y-76550000D03*
X243437500Y-78450000D03*
X241562500Y-77500000D03*
%TD*%
D20*
%TO.C,R5*%
X253000000Y-82000000D03*
X253000000Y-84975000D03*
%TD*%
D21*
%TO.C,R6*%
X250500000Y-84975000D03*
X250500000Y-82000000D03*
%TD*%
D18*
%TO.C,R3*%
X239000000Y-80500000D03*
X241000000Y-80500000D03*
%TD*%
M02*
