M48
; DRILL file {KiCad 7.0.9} date Thu Jun 20 11:53:00 2024
; FORMAT={-:-/ absolute / metric / decimal}
; #@! TF.CreationDate,2024-06-20T11:53:00+03:00
; #@! TF.GenerationSoftware,Kicad,Pcbnew,7.0.9
; #@! TF.FileFunction,Plated,1,2,PTH
FMAT,2
METRIC
; #@! TA.AperFunction,Plated,PTH,ViaDrill
T1C1.000
; #@! TA.AperFunction,Plated,PTH,ComponentDrill
T2C1.000
; #@! TA.AperFunction,Plated,PTH,ComponentDrill
T3C1.400
; #@! TA.AperFunction,Plated,PTH,ComponentDrill
T4C1.500
; #@! TA.AperFunction,Plated,PTH,ComponentDrill
T5C3.200
%
G90
G05
T1
X7.0Y-48.5
X7.0Y-55.5
X7.0Y-62.5
X7.0Y-69.0
X7.0Y-91.0
X7.0Y-98.5
X13.0Y-29.5
X14.0Y-55.5
X14.0Y-62.5
X14.0Y-69.0
X15.0Y-48.5
X18.0Y-29.5
X19.0Y-34.5
X20.5Y-52.0
X21.5Y-63.0
X21.5Y-69.0
X22.0Y-91.0
X22.0Y-101.0
X22.0Y-106.0
X23.0Y-44.5
X25.0Y-29.5
X25.0Y-34.5
X26.0Y-57.5
X29.0Y-44.5
X29.0Y-50.5
X29.5Y-91.0
X29.5Y-101.0
X29.5Y-106.0
X31.0Y-29.5
X32.0Y-34.5
X36.0Y-63.0
X36.0Y-69.0
X37.0Y-50.5
X38.0Y-30.5
X38.0Y-58.5
X39.5Y-63.0
X39.5Y-69.0
X44.0Y-30.5
X44.0Y-37.5
X44.0Y-50.5
X45.0Y-101.0
X45.0Y-106.0
X47.0Y-44.5
X47.0Y-91.0
X50.0Y-38.5
X50.0Y-58.5
X53.0Y-50.5
X54.0Y-38.5
X54.0Y-44.5
X54.5Y-91.0
X54.5Y-101.0
X54.5Y-106.0
X61.0Y-30.5
X62.0Y-50.5
X64.0Y-59.5
X67.0Y-34.5
X68.0Y-29.5
X68.0Y-50.5
X69.5Y-91.0
X69.5Y-101.0
X69.5Y-106.0
X71.0Y-44.5
X74.0Y-29.5
X74.0Y-34.5
X76.0Y-50.5
X77.0Y-44.5
X77.0Y-91.0
X77.0Y-101.0
X77.0Y-106.0
X78.0Y-59.5
X80.0Y-29.5
X80.0Y-34.5
X85.0Y-50.5
X86.0Y-30.5
X92.0Y-37.5
X93.0Y-30.5
X93.0Y-106.0
X94.0Y-50.5
X94.0Y-59.5
X94.5Y-91.0
X94.5Y-101.0
X98.0Y-38.5
X102.0Y-38.5
X102.0Y-45.5
X102.0Y-91.0
X102.0Y-101.0
X103.0Y-106.0
X104.0Y-30.5
X106.0Y-50.5
X109.0Y-59.5
X110.0Y-30.5
X113.0Y-50.5
X115.0Y-29.5
X116.0Y-34.5
X117.0Y-91.0
X117.0Y-101.0
X117.0Y-106.0
X118.0Y-50.5
X122.0Y-29.5
X122.0Y-34.5
X123.0Y-44.5
X124.0Y-59.5
X124.5Y-91.0
X124.5Y-101.0
X124.5Y-106.0
X127.0Y-48.5
X128.0Y-34.5
X130.0Y-29.5
X134.0Y-48.5
X139.0Y-29.5
X139.0Y-59.5
X140.0Y-36.5
X141.0Y-106.0
X142.0Y-91.0
X142.0Y-101.0
X143.0Y-45.5
X146.0Y-38.5
X147.0Y-47.5
X149.5Y-91.0
X149.5Y-101.0
X151.0Y-37.5
X151.0Y-45.5
X151.0Y-106.0
X154.0Y-29.5
X155.0Y-59.5
X157.0Y-47.5
X163.0Y-34.5
X164.0Y-29.5
X166.0Y-44.5
X167.0Y-91.0
X167.0Y-101.0
X167.0Y-106.0
X170.0Y-29.5
X170.0Y-34.7
X171.0Y-59.5
X173.0Y-44.5
X174.5Y-91.0
X174.5Y-101.0
X174.5Y-106.0
X176.0Y-34.5
X177.0Y-29.5
X178.0Y-46.5
X185.0Y-59.5
X187.0Y-29.5
X189.0Y-46.5
X189.0Y-106.0
X189.5Y-91.0
X189.5Y-101.0
X190.0Y-38.5
X195.0Y-46.5
X197.0Y-91.0
X197.0Y-101.0
X198.0Y-59.5
X199.0Y-37.5
X199.0Y-106.0
X205.0Y-29.5
X205.0Y-45.5
X205.5Y-106.0
X208.5Y-59.5
X210.0Y-47.5
X210.0Y-106.0
X211.5Y-91.0
X212.0Y-29.5
X213.0Y-35.5
X214.0Y-45.5
X216.0Y-58.5
X219.0Y-58.5
X220.0Y-29.5
X221.0Y-35.5
X222.0Y-43.5
X222.0Y-58.5
X222.0Y-91.0
X222.0Y-106.96
X225.0Y-59.5
X227.0Y-29.5
X229.0Y-59.5
X229.0Y-90.0
X229.5Y-106.0
X232.0Y-29.5
X232.0Y-59.5
X234.0Y-72.5
X235.0Y-59.5
X236.5Y-77.5
X237.0Y-106.0
X238.0Y-59.5
X239.0Y-64.0
X239.0Y-66.0
X239.0Y-68.0
X239.0Y-70.0
X239.0Y-72.0
X241.0Y-59.5
X241.0Y-63.0
X241.0Y-65.0
X241.0Y-67.0
X241.0Y-69.0
X241.0Y-71.0
X241.5Y-45.0
X243.0Y-64.0
X243.0Y-66.0
X243.0Y-68.0
X243.0Y-70.0
X243.0Y-72.0
X245.0Y-59.5
X245.0Y-63.0
X245.0Y-65.0
X245.0Y-67.0
X245.0Y-69.0
X245.0Y-71.0
X247.0Y-64.0
X247.0Y-66.0
X247.0Y-68.0
X247.0Y-70.0
X247.0Y-72.0
X247.0Y-91.0
X247.0Y-106.0
X248.0Y-45.0
X248.0Y-59.5
X251.0Y-59.5
X253.5Y-45.0
X253.5Y-70.0
X253.5Y-72.0
X253.5Y-74.0
X253.5Y-76.0
X253.5Y-78.0
X253.5Y-91.0
X254.5Y-66.5
X255.0Y-59.5
X255.5Y-71.0
X255.5Y-73.0
X255.5Y-75.0
X255.5Y-77.0
X257.5Y-70.0
X257.5Y-72.0
X257.5Y-74.0
X257.5Y-76.0
X257.5Y-78.0
X257.5Y-83.5
X258.0Y-29.5
X258.0Y-59.5
X258.0Y-66.5
X259.0Y-34.5
X259.5Y-71.0
X259.5Y-73.0
X259.5Y-75.0
X259.5Y-77.0
X260.0Y-106.88
X260.5Y-92.5
X261.0Y-60.5
X261.5Y-70.0
X261.5Y-72.0
X261.5Y-74.0
X261.5Y-76.0
X261.5Y-78.0
X263.0Y-62.5
X263.5Y-71.0
X263.5Y-73.0
X263.5Y-75.0
X263.5Y-77.0
X265.0Y-44.5
X265.0Y-64.5
X266.0Y-29.5
X266.0Y-34.5
X267.0Y-66.5
X269.5Y-66.499
X272.0Y-44.5
X273.0Y-29.5
X273.0Y-34.5
X273.0Y-66.5
X274.5Y-95.0
X276.0Y-68.5
X276.0Y-73.5
X276.0Y-101.0
X277.5Y-89.5
X280.7Y-46.8
X281.0Y-29.5
X282.0Y-73.5
X289.0Y-45.5
X289.0Y-58.5
X289.0Y-68.5
X289.0Y-73.5
T2
X11.0Y-33.0
X11.0Y-35.54
X11.0Y-38.08
X11.0Y-40.62
X11.0Y-43.16
X11.02Y-92.4
X11.02Y-94.94
X11.02Y-97.48
X11.02Y-100.02
X11.02Y-102.56
X16.08Y-33.0
X16.08Y-35.54
X16.08Y-38.08
X16.08Y-40.62
X16.08Y-43.16
X16.1Y-92.4
X16.1Y-94.94
X16.1Y-97.48
X16.1Y-100.02
X16.1Y-102.56
X27.867Y-64.142
X27.867Y-66.682
X27.867Y-69.222
X27.867Y-71.763
X35.0Y-33.0
X35.0Y-35.54
X35.0Y-38.08
X35.0Y-40.62
X35.0Y-43.16
X35.02Y-92.4
X35.02Y-94.94
X35.02Y-97.48
X35.02Y-100.02
X35.02Y-102.56
X40.08Y-33.0
X40.08Y-35.54
X40.08Y-38.08
X40.08Y-40.62
X40.08Y-43.16
X40.1Y-92.4
X40.1Y-94.94
X40.1Y-97.48
X40.1Y-100.02
X40.1Y-102.56
X59.0Y-33.0
X59.0Y-35.54
X59.0Y-38.08
X59.0Y-40.62
X59.0Y-43.16
X59.02Y-92.4
X59.02Y-94.94
X59.02Y-97.48
X59.02Y-100.02
X59.02Y-102.56
X64.08Y-33.0
X64.08Y-35.54
X64.08Y-38.08
X64.08Y-40.62
X64.08Y-43.16
X64.1Y-92.4
X64.1Y-94.94
X64.1Y-97.48
X64.1Y-100.02
X64.1Y-102.56
X83.0Y-33.0
X83.0Y-35.54
X83.0Y-38.08
X83.0Y-40.62
X83.0Y-43.16
X83.02Y-92.4
X83.02Y-94.94
X83.02Y-97.48
X83.02Y-100.02
X83.02Y-102.56
X88.08Y-33.0
X88.08Y-35.54
X88.08Y-38.08
X88.08Y-40.62
X88.08Y-43.16
X88.1Y-92.4
X88.1Y-94.94
X88.1Y-97.48
X88.1Y-100.02
X88.1Y-102.56
X107.0Y-33.0
X107.0Y-35.54
X107.0Y-38.08
X107.0Y-40.62
X107.0Y-43.16
X107.02Y-92.4
X107.02Y-94.94
X107.02Y-97.48
X107.02Y-100.02
X107.02Y-102.56
X112.08Y-33.0
X112.08Y-35.54
X112.08Y-38.08
X112.08Y-40.62
X112.08Y-43.16
X112.1Y-92.4
X112.1Y-94.94
X112.1Y-97.48
X112.1Y-100.02
X112.1Y-102.56
X131.0Y-33.0
X131.0Y-35.54
X131.0Y-38.08
X131.0Y-40.62
X131.0Y-43.16
X131.02Y-92.4
X131.02Y-94.94
X131.02Y-97.48
X131.02Y-100.02
X131.02Y-102.56
X136.08Y-33.0
X136.08Y-35.54
X136.08Y-38.08
X136.08Y-40.62
X136.08Y-43.16
X136.1Y-92.4
X136.1Y-94.94
X136.1Y-97.48
X136.1Y-100.02
X136.1Y-102.56
X155.0Y-33.0
X155.0Y-35.54
X155.0Y-38.08
X155.0Y-40.62
X155.0Y-43.16
X155.02Y-92.4
X155.02Y-94.94
X155.02Y-97.48
X155.02Y-100.02
X155.02Y-102.56
X160.08Y-33.0
X160.08Y-35.54
X160.08Y-38.08
X160.08Y-40.62
X160.08Y-43.16
X160.1Y-92.4
X160.1Y-94.94
X160.1Y-97.48
X160.1Y-100.02
X160.1Y-102.56
X179.0Y-33.0
X179.0Y-35.54
X179.0Y-38.08
X179.0Y-40.62
X179.0Y-43.16
X179.02Y-92.4
X179.02Y-94.94
X179.02Y-97.48
X179.02Y-100.02
X179.02Y-102.56
X184.08Y-33.0
X184.08Y-35.54
X184.08Y-38.08
X184.08Y-40.62
X184.08Y-43.16
X184.1Y-92.4
X184.1Y-94.94
X184.1Y-97.48
X184.1Y-100.02
X184.1Y-102.56
X203.0Y-33.0
X203.0Y-35.54
X203.0Y-38.08
X203.0Y-40.62
X203.0Y-43.16
X203.02Y-92.4
X203.02Y-94.94
X203.02Y-97.48
X203.02Y-100.02
X203.02Y-102.56
X208.08Y-33.0
X208.08Y-35.54
X208.08Y-38.08
X208.08Y-40.62
X208.08Y-43.16
X208.1Y-92.4
X208.1Y-94.94
X208.1Y-97.48
X208.1Y-100.02
X208.1Y-102.56
X227.0Y-33.0
X227.0Y-35.54
X227.0Y-38.08
X227.0Y-40.62
X227.0Y-43.16
X227.02Y-92.4
X227.02Y-94.94
X227.02Y-97.48
X227.02Y-100.02
X227.02Y-102.56
X232.08Y-33.0
X232.08Y-35.54
X232.08Y-38.08
X232.08Y-40.62
X232.08Y-43.16
X232.1Y-92.4
X232.1Y-94.94
X232.1Y-97.48
X232.1Y-100.02
X232.1Y-102.56
X241.5Y-83.368
X241.5Y-88.368
X241.5Y-94.132
X241.5Y-99.132
X251.0Y-33.0
X251.0Y-35.54
X251.0Y-38.08
X251.0Y-40.62
X251.0Y-43.16
X251.0Y-92.4
X251.0Y-94.94
X251.0Y-97.48
X251.0Y-100.02
X251.0Y-102.56
X256.08Y-33.0
X256.08Y-35.54
X256.08Y-38.08
X256.08Y-40.62
X256.08Y-43.16
X256.08Y-92.4
X256.08Y-94.94
X256.08Y-97.48
X256.08Y-100.02
X256.08Y-102.56
X279.0Y-33.0
X279.0Y-35.54
X279.0Y-38.08
X279.0Y-40.62
X279.0Y-43.16
X279.0Y-92.4
X279.0Y-94.94
X279.0Y-97.48
X279.0Y-100.02
X279.0Y-102.56
X279.02Y-52.5
X279.02Y-55.04
X279.02Y-57.58
X279.02Y-60.12
X279.02Y-62.66
X279.02Y-65.2
X279.02Y-67.74
X284.08Y-33.0
X284.08Y-35.54
X284.08Y-38.08
X284.08Y-40.62
X284.08Y-43.16
X284.08Y-92.4
X284.08Y-94.94
X284.08Y-97.48
X284.08Y-100.02
X284.08Y-102.56
X284.1Y-52.5
X284.1Y-55.04
X284.1Y-57.58
X284.1Y-60.12
X284.1Y-62.66
X284.1Y-65.2
X284.1Y-67.74
T3
X213.65Y-98.38
X213.65Y-106.0
X218.73Y-98.38
X218.73Y-106.0
X263.0Y-98.38
X263.0Y-106.0
X268.08Y-98.38
X268.08Y-106.0
T4
X216.0Y-70.25
X216.0Y-75.35
X216.0Y-85.65
X216.0Y-90.75
X270.0Y-69.75
X270.0Y-74.85
X270.0Y-85.15
X270.0Y-90.25
T5
X5.5Y-31.5
X5.5Y-105.5
X50.0Y-31.5
X50.0Y-105.5
X98.0Y-31.5
X98.0Y-105.5
X146.0Y-31.5
X146.0Y-105.5
X194.0Y-31.5
X194.0Y-105.5
X242.0Y-31.5
X242.0Y-105.5
X289.5Y-31.5
X289.5Y-105.5
T0
M30
