%TF.GenerationSoftware,KiCad,Pcbnew,7.0.9*%
%TF.CreationDate,2024-06-20T11:52:21+03:00*%
%TF.ProjectId,___________ _____,1c304235-4038-43d4-913a-304f203f3b30,rev?*%
%TF.SameCoordinates,Original*%
%TF.FileFunction,Paste,Top*%
%TF.FilePolarity,Positive*%
%FSLAX46Y46*%
G04 Gerber Fmt 4.6, Leading zero omitted, Abs format (unit mm)*
G04 Created by KiCad (PCBNEW 7.0.9) date 2024-06-20 11:52:21*
%MOMM*%
%LPD*%
G01*
G04 APERTURE LIST*
G04 Aperture macros list*
%AMRoundRect*
0 Rectangle with rounded corners*
0 $1 Rounding radius*
0 $2 $3 $4 $5 $6 $7 $8 $9 X,Y pos of 4 corners*
0 Add a 4 corners polygon primitive as box body*
4,1,4,$2,$3,$4,$5,$6,$7,$8,$9,$2,$3,0*
0 Add four circle primitives for the rounded corners*
1,1,$1+$1,$2,$3*
1,1,$1+$1,$4,$5*
1,1,$1+$1,$6,$7*
1,1,$1+$1,$8,$9*
0 Add four rect primitives between the rounded corners*
20,1,$1+$1,$2,$3,$4,$5,0*
20,1,$1+$1,$4,$5,$6,$7,0*
20,1,$1+$1,$6,$7,$8,$9,0*
20,1,$1+$1,$8,$9,$2,$3,0*%
G04 Aperture macros list end*
%ADD10RoundRect,0.250000X-0.450000X0.350000X-0.450000X-0.350000X0.450000X-0.350000X0.450000X0.350000X0*%
%ADD11RoundRect,0.250000X0.900000X-1.000000X0.900000X1.000000X-0.900000X1.000000X-0.900000X-1.000000X0*%
%ADD12RoundRect,0.250000X1.000000X0.900000X-1.000000X0.900000X-1.000000X-0.900000X1.000000X-0.900000X0*%
%ADD13RoundRect,0.250001X1.074999X-0.462499X1.074999X0.462499X-1.074999X0.462499X-1.074999X-0.462499X0*%
%ADD14RoundRect,0.150000X-0.587500X-0.150000X0.587500X-0.150000X0.587500X0.150000X-0.587500X0.150000X0*%
%ADD15RoundRect,0.250000X2.600000X-0.550000X2.600000X0.550000X-2.600000X0.550000X-2.600000X-0.550000X0*%
%ADD16RoundRect,0.675000X1.075000X0.675000X-1.075000X0.675000X-1.075000X-0.675000X1.075000X-0.675000X0*%
%ADD17RoundRect,0.250000X-0.450000X0.325000X-0.450000X-0.325000X0.450000X-0.325000X0.450000X0.325000X0*%
%ADD18RoundRect,0.249999X1.425001X-0.512501X1.425001X0.512501X-1.425001X0.512501X-1.425001X-0.512501X0*%
%ADD19RoundRect,0.250000X-0.750000X-0.900000X0.750000X-0.900000X0.750000X0.900000X-0.750000X0.900000X0*%
%ADD20RoundRect,0.250000X-2.050000X-0.300000X2.050000X-0.300000X2.050000X0.300000X-2.050000X0.300000X0*%
%ADD21RoundRect,0.250000X-0.337500X-0.475000X0.337500X-0.475000X0.337500X0.475000X-0.337500X0.475000X0*%
%ADD22RoundRect,0.243750X-0.456250X0.243750X-0.456250X-0.243750X0.456250X-0.243750X0.456250X0.243750X0*%
%ADD23RoundRect,0.250000X-0.625000X0.312500X-0.625000X-0.312500X0.625000X-0.312500X0.625000X0.312500X0*%
%ADD24RoundRect,0.250000X-0.900000X1.000000X-0.900000X-1.000000X0.900000X-1.000000X0.900000X1.000000X0*%
%ADD25RoundRect,0.250001X-1.074999X0.462499X-1.074999X-0.462499X1.074999X-0.462499X1.074999X0.462499X0*%
%ADD26R,3.000000X1.800000*%
%ADD27RoundRect,0.250000X0.900000X-0.750000X0.900000X0.750000X-0.900000X0.750000X-0.900000X-0.750000X0*%
%ADD28RoundRect,0.250000X0.300000X-2.050000X0.300000X2.050000X-0.300000X2.050000X-0.300000X-2.050000X0*%
%ADD29RoundRect,0.250000X-0.325000X-0.450000X0.325000X-0.450000X0.325000X0.450000X-0.325000X0.450000X0*%
G04 APERTURE END LIST*
D10*
%TO.C,R7*%
X225500000Y-71000000D03*
X225500000Y-73000000D03*
%TD*%
D11*
%TO.C,D7*%
X166500000Y-39000000D03*
X166500000Y-34700000D03*
%TD*%
D12*
%TO.C,D11*%
X228550000Y-65000000D03*
X224250000Y-65000000D03*
%TD*%
D13*
%TO.C,C6*%
X32000000Y-72975000D03*
X32000000Y-70000000D03*
%TD*%
D11*
%TO.C,D4*%
X77000000Y-39000000D03*
X77000000Y-34700000D03*
%TD*%
D14*
%TO.C,D13*%
X228500000Y-71050000D03*
X228500000Y-72950000D03*
X230375000Y-72000000D03*
%TD*%
D15*
%TO.C,L1*%
X26000000Y-81550000D03*
X26000000Y-76850000D03*
%TD*%
D16*
%TO.C,FL1*%
X233897500Y-82487500D03*
X233897500Y-77407500D03*
X223102500Y-77407500D03*
X223102500Y-82487500D03*
%TD*%
D11*
%TO.C,D9*%
X238000000Y-43150000D03*
X238000000Y-38850000D03*
%TD*%
D17*
%TO.C,R8*%
X32000000Y-57950000D03*
X32000000Y-60000000D03*
%TD*%
D18*
%TO.C,R2*%
X193500000Y-94987500D03*
X193500000Y-89012500D03*
%TD*%
D19*
%TO.C,Q3*%
X240000000Y-63700000D03*
X240000000Y-66300000D03*
X240000000Y-68900000D03*
X240000000Y-71500000D03*
X242300000Y-63700000D03*
X242300000Y-66300000D03*
X242300000Y-68900000D03*
X242300000Y-71500000D03*
X244600000Y-63700000D03*
X244600000Y-66300000D03*
X244600000Y-68900000D03*
X244600000Y-71500000D03*
X246900000Y-63700000D03*
X246900000Y-66300000D03*
X246900000Y-68900000D03*
X246900000Y-71500000D03*
D20*
X234325000Y-65060000D03*
X234325000Y-70140000D03*
%TD*%
D21*
%TO.C,C4*%
X30925000Y-82000000D03*
X33000000Y-82000000D03*
%TD*%
D11*
%TO.C,D8*%
X173000000Y-39000000D03*
X173000000Y-34700000D03*
%TD*%
%TO.C,D2*%
X29750000Y-39000000D03*
X29750000Y-34700000D03*
%TD*%
%TO.C,D5*%
X118500000Y-39000000D03*
X118500000Y-34700000D03*
%TD*%
%TO.C,D3*%
X70500000Y-39000000D03*
X70500000Y-34700000D03*
%TD*%
D21*
%TO.C,C5*%
X30925000Y-77000000D03*
X33000000Y-77000000D03*
%TD*%
D22*
%TO.C,RV1*%
X50000000Y-40562500D03*
X50000000Y-42437500D03*
%TD*%
D17*
%TO.C,D14*%
X29000000Y-57950000D03*
X29000000Y-60000000D03*
%TD*%
D23*
%TO.C,R1*%
X20100000Y-39037500D03*
X20100000Y-41962500D03*
%TD*%
D24*
%TO.C,D10*%
X245500000Y-41000000D03*
X245500000Y-45300000D03*
%TD*%
D22*
%TO.C,RV5*%
X241750000Y-41062500D03*
X241750000Y-42937500D03*
%TD*%
%TO.C,RV2*%
X97000000Y-40625000D03*
X97000000Y-42500000D03*
%TD*%
D11*
%TO.C,D6*%
X125000000Y-39000000D03*
X125000000Y-34700000D03*
%TD*%
%TO.C,D1*%
X24200000Y-39000000D03*
X24200000Y-34700000D03*
%TD*%
D25*
%TO.C,C3*%
X32000000Y-64025000D03*
X32000000Y-67000000D03*
%TD*%
D22*
%TO.C,RV3*%
X146000000Y-40625000D03*
X146000000Y-42500000D03*
%TD*%
D26*
%TO.C,L2*%
X272250000Y-40790000D03*
X272250000Y-38250000D03*
X264750000Y-38250000D03*
X264750000Y-40790000D03*
%TD*%
D27*
%TO.C,Q1*%
X254300000Y-77500000D03*
X256900000Y-77500000D03*
X259500000Y-77500000D03*
X262100000Y-77500000D03*
X254300000Y-75200000D03*
X256900000Y-75200000D03*
X259500000Y-75200000D03*
X262100000Y-75200000D03*
X254300000Y-72900000D03*
X256900000Y-72900000D03*
X259500000Y-72900000D03*
X262100000Y-72900000D03*
X254300000Y-70600000D03*
X256900000Y-70600000D03*
X259500000Y-70600000D03*
X262100000Y-70600000D03*
D28*
X255660000Y-83175000D03*
X260740000Y-83175000D03*
%TD*%
D29*
%TO.C,D12*%
X192500000Y-97500000D03*
X194550000Y-97500000D03*
%TD*%
D22*
%TO.C,RV4*%
X193500000Y-40562500D03*
X193500000Y-42437500D03*
%TD*%
M02*
