%TF.GenerationSoftware,KiCad,Pcbnew,7.0.9*%
%TF.CreationDate,2024-06-20T11:52:21+03:00*%
%TF.ProjectId,___________ _____,1c304235-4038-43d4-913a-304f203f3b30,rev?*%
%TF.SameCoordinates,Original*%
%TF.FileFunction,Soldermask,Top*%
%TF.FilePolarity,Negative*%
%FSLAX46Y46*%
G04 Gerber Fmt 4.6, Leading zero omitted, Abs format (unit mm)*
G04 Created by KiCad (PCBNEW 7.0.9) date 2024-06-20 11:52:21*
%MOMM*%
%LPD*%
G01*
G04 APERTURE LIST*
G04 Aperture macros list*
%AMRoundRect*
0 Rectangle with rounded corners*
0 $1 Rounding radius*
0 $2 $3 $4 $5 $6 $7 $8 $9 X,Y pos of 4 corners*
0 Add a 4 corners polygon primitive as box body*
4,1,4,$2,$3,$4,$5,$6,$7,$8,$9,$2,$3,0*
0 Add four circle primitives for the rounded corners*
1,1,$1+$1,$2,$3*
1,1,$1+$1,$4,$5*
1,1,$1+$1,$6,$7*
1,1,$1+$1,$8,$9*
0 Add four rect primitives between the rounded corners*
20,1,$1+$1,$2,$3,$4,$5,0*
20,1,$1+$1,$4,$5,$6,$7,0*
20,1,$1+$1,$6,$7,$8,$9,0*
20,1,$1+$1,$8,$9,$2,$3,0*%
G04 Aperture macros list end*
%ADD10RoundRect,0.250000X-0.450000X0.350000X-0.450000X-0.350000X0.450000X-0.350000X0.450000X0.350000X0*%
%ADD11RoundRect,0.250000X0.900000X-1.000000X0.900000X1.000000X-0.900000X1.000000X-0.900000X-1.000000X0*%
%ADD12C,1.700000*%
%ADD13R,2.000000X2.000000*%
%ADD14C,2.000000*%
%ADD15C,6.000000*%
%ADD16C,3.000000*%
%ADD17RoundRect,0.250000X1.000000X0.900000X-1.000000X0.900000X-1.000000X-0.900000X1.000000X-0.900000X0*%
%ADD18RoundRect,0.250001X1.074999X-0.462499X1.074999X0.462499X-1.074999X0.462499X-1.074999X-0.462499X0*%
%ADD19RoundRect,0.150000X-0.587500X-0.150000X0.587500X-0.150000X0.587500X0.150000X-0.587500X0.150000X0*%
%ADD20RoundRect,0.250000X2.600000X-0.550000X2.600000X0.550000X-2.600000X0.550000X-2.600000X-0.550000X0*%
%ADD21RoundRect,0.675000X1.075000X0.675000X-1.075000X0.675000X-1.075000X-0.675000X1.075000X-0.675000X0*%
%ADD22R,1.800000X1.400000*%
%ADD23O,1.800000X1.400000*%
%ADD24RoundRect,0.250000X-0.450000X0.325000X-0.450000X-0.325000X0.450000X-0.325000X0.450000X0.325000X0*%
%ADD25RoundRect,0.249999X1.425001X-0.512501X1.425001X0.512501X-1.425001X0.512501X-1.425001X-0.512501X0*%
%ADD26RoundRect,0.250000X-2.050000X-0.300000X2.050000X-0.300000X2.050000X0.300000X-2.050000X0.300000X0*%
%ADD27RoundRect,0.250000X-4.450000X-5.150000X4.450000X-5.150000X4.450000X5.150000X-4.450000X5.150000X0*%
%ADD28RoundRect,0.250000X-0.337500X-0.475000X0.337500X-0.475000X0.337500X0.475000X-0.337500X0.475000X0*%
%ADD29C,2.300000*%
%ADD30RoundRect,0.243750X-0.456250X0.243750X-0.456250X-0.243750X0.456250X-0.243750X0.456250X0.243750X0*%
%ADD31RoundRect,0.250000X-0.625000X0.312500X-0.625000X-0.312500X0.625000X-0.312500X0.625000X0.312500X0*%
%ADD32RoundRect,0.250000X-0.900000X1.000000X-0.900000X-1.000000X0.900000X-1.000000X0.900000X1.000000X0*%
%ADD33RoundRect,0.250001X-1.074999X0.462499X-1.074999X-0.462499X1.074999X-0.462499X1.074999X0.462499X0*%
%ADD34R,3.000000X1.800000*%
%ADD35RoundRect,0.250000X0.300000X-2.050000X0.300000X2.050000X-0.300000X2.050000X-0.300000X-2.050000X0*%
%ADD36RoundRect,0.250000X5.150000X-4.450000X5.150000X4.450000X-5.150000X4.450000X-5.150000X-4.450000X0*%
%ADD37RoundRect,0.250000X-0.325000X-0.450000X0.325000X-0.450000X0.325000X0.450000X-0.325000X0.450000X0*%
G04 APERTURE END LIST*
D10*
%TO.C,R7*%
X225500000Y-71000000D03*
X225500000Y-73000000D03*
%TD*%
D11*
%TO.C,D7*%
X166500000Y-39000000D03*
X166500000Y-34700000D03*
%TD*%
D12*
%TO.C,J6*%
X227000000Y-33000000D03*
X227000000Y-35540000D03*
X227000000Y-38080000D03*
X227000000Y-40620000D03*
X227000000Y-43160000D03*
X232080000Y-43160000D03*
X232080000Y-40620000D03*
X232080000Y-38080000D03*
X232080000Y-35540000D03*
X232080000Y-33000000D03*
%TD*%
D13*
%TO.C,C1*%
X241500000Y-88367677D03*
D14*
X241500000Y-83367677D03*
%TD*%
D12*
%TO.C,J22*%
X35000000Y-33000000D03*
X35000000Y-35540000D03*
X35000000Y-38080000D03*
X35000000Y-40620000D03*
X35000000Y-43160000D03*
X40080000Y-43160000D03*
X40080000Y-40620000D03*
X40080000Y-38080000D03*
X40080000Y-35540000D03*
X40080000Y-33000000D03*
%TD*%
D15*
%TO.C,H6*%
X98000000Y-31500000D03*
%TD*%
D16*
%TO.C,J27*%
X213650000Y-98380000D03*
X213650000Y-106000000D03*
X218730000Y-98380000D03*
X218730000Y-106000000D03*
%TD*%
D12*
%TO.C,J16*%
X107000000Y-33000000D03*
X107000000Y-35540000D03*
X107000000Y-38080000D03*
X107000000Y-40620000D03*
X107000000Y-43160000D03*
X112080000Y-43160000D03*
X112080000Y-40620000D03*
X112080000Y-38080000D03*
X112080000Y-35540000D03*
X112080000Y-33000000D03*
%TD*%
D17*
%TO.C,D11*%
X228550000Y-65000000D03*
X224250000Y-65000000D03*
%TD*%
D15*
%TO.C,H1*%
X5500000Y-31500000D03*
%TD*%
D18*
%TO.C,C6*%
X32000000Y-72975000D03*
X32000000Y-70000000D03*
%TD*%
D11*
%TO.C,D4*%
X77000000Y-39000000D03*
X77000000Y-34700000D03*
%TD*%
D19*
%TO.C,D13*%
X228500000Y-71050000D03*
X228500000Y-72950000D03*
X230375000Y-72000000D03*
%TD*%
D12*
%TO.C,J9*%
X203020000Y-92400000D03*
X203020000Y-94940000D03*
X203020000Y-97480000D03*
X203020000Y-100020000D03*
X203020000Y-102560000D03*
X208100000Y-102560000D03*
X208100000Y-100020000D03*
X208100000Y-97480000D03*
X208100000Y-94940000D03*
X208100000Y-92400000D03*
%TD*%
D15*
%TO.C,H13*%
X194000000Y-31500000D03*
%TD*%
D20*
%TO.C,L1*%
X26000000Y-81550000D03*
X26000000Y-76850000D03*
%TD*%
D12*
%TO.C,J3*%
X279020000Y-52500000D03*
X279020000Y-55040000D03*
X279020000Y-57580000D03*
X279020000Y-60120000D03*
X279020000Y-62660000D03*
X279020000Y-65200000D03*
X279020000Y-67740000D03*
X284100000Y-67740000D03*
X284100000Y-65200000D03*
X284100000Y-62660000D03*
X284100000Y-60120000D03*
X284100000Y-57580000D03*
X284100000Y-55040000D03*
X284100000Y-52500000D03*
%TD*%
D21*
%TO.C,FL1*%
X233897500Y-82487500D03*
X233897500Y-77407500D03*
X223102500Y-77407500D03*
X223102500Y-82487500D03*
%TD*%
D12*
%TO.C,J7*%
X227020000Y-92400000D03*
X227020000Y-94940000D03*
X227020000Y-97480000D03*
X227020000Y-100020000D03*
X227020000Y-102560000D03*
X232100000Y-102560000D03*
X232100000Y-100020000D03*
X232100000Y-97480000D03*
X232100000Y-94940000D03*
X232100000Y-92400000D03*
%TD*%
%TO.C,J4*%
X251000000Y-33000000D03*
X251000000Y-35540000D03*
X251000000Y-38080000D03*
X251000000Y-40620000D03*
X251000000Y-43160000D03*
X256080000Y-43160000D03*
X256080000Y-40620000D03*
X256080000Y-38080000D03*
X256080000Y-35540000D03*
X256080000Y-33000000D03*
%TD*%
D22*
%TO.C,U2*%
X27867500Y-71762500D03*
D23*
X27867500Y-69222500D03*
X27867500Y-66682500D03*
X27867500Y-64142500D03*
%TD*%
D11*
%TO.C,D9*%
X238000000Y-43150000D03*
X238000000Y-38850000D03*
%TD*%
D24*
%TO.C,R8*%
X32000000Y-57950000D03*
X32000000Y-60000000D03*
%TD*%
D25*
%TO.C,R2*%
X193500000Y-94987500D03*
X193500000Y-89012500D03*
%TD*%
D15*
%TO.C,H10*%
X98000000Y-105500000D03*
%TD*%
D26*
%TO.C,Q3*%
X234325000Y-65060000D03*
D27*
X243475000Y-67600000D03*
D26*
X234325000Y-70140000D03*
%TD*%
D28*
%TO.C,C4*%
X30925000Y-82000000D03*
X33000000Y-82000000D03*
%TD*%
D11*
%TO.C,D8*%
X173000000Y-39000000D03*
X173000000Y-34700000D03*
%TD*%
D12*
%TO.C,J20*%
X59000000Y-33000000D03*
X59000000Y-35540000D03*
X59000000Y-38080000D03*
X59000000Y-40620000D03*
X59000000Y-43160000D03*
X64080000Y-43160000D03*
X64080000Y-40620000D03*
X64080000Y-38080000D03*
X64080000Y-35540000D03*
X64080000Y-33000000D03*
%TD*%
D15*
%TO.C,H7*%
X50000000Y-105500000D03*
%TD*%
D29*
%TO.C,F1*%
X270000000Y-69750000D03*
X270000000Y-74850000D03*
X270000000Y-85150000D03*
X270000000Y-90250000D03*
%TD*%
D15*
%TO.C,H14*%
X5500000Y-105500000D03*
%TD*%
%TO.C,H9*%
X242000000Y-105500000D03*
%TD*%
D12*
%TO.C,J19*%
X83020000Y-92400000D03*
X83020000Y-94940000D03*
X83020000Y-97480000D03*
X83020000Y-100020000D03*
X83020000Y-102560000D03*
X88100000Y-102560000D03*
X88100000Y-100020000D03*
X88100000Y-97480000D03*
X88100000Y-94940000D03*
X88100000Y-92400000D03*
%TD*%
D11*
%TO.C,D2*%
X29750000Y-39000000D03*
X29750000Y-34700000D03*
%TD*%
%TO.C,D5*%
X118500000Y-39000000D03*
X118500000Y-34700000D03*
%TD*%
D29*
%TO.C,F2*%
X216000000Y-70250000D03*
X216000000Y-75350000D03*
X216000000Y-85650000D03*
X216000000Y-90750000D03*
%TD*%
D15*
%TO.C,H5*%
X242000000Y-31500000D03*
%TD*%
D11*
%TO.C,D3*%
X70500000Y-39000000D03*
X70500000Y-34700000D03*
%TD*%
D28*
%TO.C,C5*%
X30925000Y-77000000D03*
X33000000Y-77000000D03*
%TD*%
D30*
%TO.C,RV1*%
X50000000Y-40562500D03*
X50000000Y-42437500D03*
%TD*%
D24*
%TO.C,D14*%
X29000000Y-57950000D03*
X29000000Y-60000000D03*
%TD*%
D31*
%TO.C,R1*%
X20100000Y-39037500D03*
X20100000Y-41962500D03*
%TD*%
D32*
%TO.C,D10*%
X245500000Y-41000000D03*
X245500000Y-45300000D03*
%TD*%
D15*
%TO.C,H2*%
X50000000Y-31500000D03*
%TD*%
D12*
%TO.C,J2*%
X279000000Y-92400000D03*
X279000000Y-94940000D03*
X279000000Y-97480000D03*
X279000000Y-100020000D03*
X279000000Y-102560000D03*
X284080000Y-102560000D03*
X284080000Y-100020000D03*
X284080000Y-97480000D03*
X284080000Y-94940000D03*
X284080000Y-92400000D03*
%TD*%
%TO.C,J1*%
X279000000Y-33000000D03*
X279000000Y-35540000D03*
X279000000Y-38080000D03*
X279000000Y-40620000D03*
X279000000Y-43160000D03*
X284080000Y-43160000D03*
X284080000Y-40620000D03*
X284080000Y-38080000D03*
X284080000Y-35540000D03*
X284080000Y-33000000D03*
%TD*%
D15*
%TO.C,H3*%
X146000000Y-31500000D03*
%TD*%
D30*
%TO.C,RV5*%
X241750000Y-41062500D03*
X241750000Y-42937500D03*
%TD*%
D12*
%TO.C,J24*%
X11000000Y-33000000D03*
X11000000Y-35540000D03*
X11000000Y-38080000D03*
X11000000Y-40620000D03*
X11000000Y-43160000D03*
X16080000Y-43160000D03*
X16080000Y-40620000D03*
X16080000Y-38080000D03*
X16080000Y-35540000D03*
X16080000Y-33000000D03*
%TD*%
D30*
%TO.C,RV2*%
X97000000Y-40625000D03*
X97000000Y-42500000D03*
%TD*%
D11*
%TO.C,D6*%
X125000000Y-39000000D03*
X125000000Y-34700000D03*
%TD*%
%TO.C,D1*%
X24200000Y-39000000D03*
X24200000Y-34700000D03*
%TD*%
D33*
%TO.C,C3*%
X32000000Y-64025000D03*
X32000000Y-67000000D03*
%TD*%
D30*
%TO.C,RV3*%
X146000000Y-40625000D03*
X146000000Y-42500000D03*
%TD*%
D13*
%TO.C,C2*%
X241500000Y-94132323D03*
D14*
X241500000Y-99132323D03*
%TD*%
D15*
%TO.C,H4*%
X289500000Y-31500000D03*
%TD*%
D12*
%TO.C,J18*%
X83000000Y-33000000D03*
X83000000Y-35540000D03*
X83000000Y-38080000D03*
X83000000Y-40620000D03*
X83000000Y-43160000D03*
X88080000Y-43160000D03*
X88080000Y-40620000D03*
X88080000Y-38080000D03*
X88080000Y-35540000D03*
X88080000Y-33000000D03*
%TD*%
%TO.C,J11*%
X179020000Y-92400000D03*
X179020000Y-94940000D03*
X179020000Y-97480000D03*
X179020000Y-100020000D03*
X179020000Y-102560000D03*
X184100000Y-102560000D03*
X184100000Y-100020000D03*
X184100000Y-97480000D03*
X184100000Y-94940000D03*
X184100000Y-92400000D03*
%TD*%
%TO.C,J13*%
X155020000Y-92400000D03*
X155020000Y-94940000D03*
X155020000Y-97480000D03*
X155020000Y-100020000D03*
X155020000Y-102560000D03*
X160100000Y-102560000D03*
X160100000Y-100020000D03*
X160100000Y-97480000D03*
X160100000Y-94940000D03*
X160100000Y-92400000D03*
%TD*%
%TO.C,J15*%
X131020000Y-92400000D03*
X131020000Y-94940000D03*
X131020000Y-97480000D03*
X131020000Y-100020000D03*
X131020000Y-102560000D03*
X136100000Y-102560000D03*
X136100000Y-100020000D03*
X136100000Y-97480000D03*
X136100000Y-94940000D03*
X136100000Y-92400000D03*
%TD*%
D15*
%TO.C,H11*%
X146000000Y-105500000D03*
%TD*%
D12*
%TO.C,J17*%
X107020000Y-92400000D03*
X107020000Y-94940000D03*
X107020000Y-97480000D03*
X107020000Y-100020000D03*
X107020000Y-102560000D03*
X112100000Y-102560000D03*
X112100000Y-100020000D03*
X112100000Y-97480000D03*
X112100000Y-94940000D03*
X112100000Y-92400000D03*
%TD*%
D34*
%TO.C,L2*%
X272250000Y-40790000D03*
X272250000Y-38250000D03*
X264750000Y-38250000D03*
X264750000Y-40790000D03*
%TD*%
D35*
%TO.C,Q1*%
X255660000Y-83175000D03*
D36*
X258200000Y-74025000D03*
D35*
X260740000Y-83175000D03*
%TD*%
D16*
%TO.C,J26*%
X263000000Y-98380000D03*
X263000000Y-106000000D03*
X268080000Y-98380000D03*
X268080000Y-106000000D03*
%TD*%
D15*
%TO.C,H8*%
X194000000Y-105500000D03*
%TD*%
D12*
%TO.C,J14*%
X131000000Y-33000000D03*
X131000000Y-35540000D03*
X131000000Y-38080000D03*
X131000000Y-40620000D03*
X131000000Y-43160000D03*
X136080000Y-43160000D03*
X136080000Y-40620000D03*
X136080000Y-38080000D03*
X136080000Y-35540000D03*
X136080000Y-33000000D03*
%TD*%
%TO.C,J10*%
X179000000Y-33000000D03*
X179000000Y-35540000D03*
X179000000Y-38080000D03*
X179000000Y-40620000D03*
X179000000Y-43160000D03*
X184080000Y-43160000D03*
X184080000Y-40620000D03*
X184080000Y-38080000D03*
X184080000Y-35540000D03*
X184080000Y-33000000D03*
%TD*%
D37*
%TO.C,D12*%
X192500000Y-97500000D03*
X194550000Y-97500000D03*
%TD*%
D12*
%TO.C,J12*%
X155000000Y-33000000D03*
X155000000Y-35540000D03*
X155000000Y-38080000D03*
X155000000Y-40620000D03*
X155000000Y-43160000D03*
X160080000Y-43160000D03*
X160080000Y-40620000D03*
X160080000Y-38080000D03*
X160080000Y-35540000D03*
X160080000Y-33000000D03*
%TD*%
D30*
%TO.C,RV4*%
X193500000Y-40562500D03*
X193500000Y-42437500D03*
%TD*%
D12*
%TO.C,J23*%
X35020000Y-92400000D03*
X35020000Y-94940000D03*
X35020000Y-97480000D03*
X35020000Y-100020000D03*
X35020000Y-102560000D03*
X40100000Y-102560000D03*
X40100000Y-100020000D03*
X40100000Y-97480000D03*
X40100000Y-94940000D03*
X40100000Y-92400000D03*
%TD*%
%TO.C,J5*%
X251000000Y-92400000D03*
X251000000Y-94940000D03*
X251000000Y-97480000D03*
X251000000Y-100020000D03*
X251000000Y-102560000D03*
X256080000Y-102560000D03*
X256080000Y-100020000D03*
X256080000Y-97480000D03*
X256080000Y-94940000D03*
X256080000Y-92400000D03*
%TD*%
%TO.C,J21*%
X59020000Y-92400000D03*
X59020000Y-94940000D03*
X59020000Y-97480000D03*
X59020000Y-100020000D03*
X59020000Y-102560000D03*
X64100000Y-102560000D03*
X64100000Y-100020000D03*
X64100000Y-97480000D03*
X64100000Y-94940000D03*
X64100000Y-92400000D03*
%TD*%
%TO.C,J8*%
X203000000Y-33000000D03*
X203000000Y-35540000D03*
X203000000Y-38080000D03*
X203000000Y-40620000D03*
X203000000Y-43160000D03*
X208080000Y-43160000D03*
X208080000Y-40620000D03*
X208080000Y-38080000D03*
X208080000Y-35540000D03*
X208080000Y-33000000D03*
%TD*%
%TO.C,J25*%
X11020000Y-92400000D03*
X11020000Y-94940000D03*
X11020000Y-97480000D03*
X11020000Y-100020000D03*
X11020000Y-102560000D03*
X16100000Y-102560000D03*
X16100000Y-100020000D03*
X16100000Y-97480000D03*
X16100000Y-94940000D03*
X16100000Y-92400000D03*
%TD*%
D15*
%TO.C,H12*%
X289500000Y-105500000D03*
%TD*%
M02*
