%TF.GenerationSoftware,KiCad,Pcbnew,7.0.9*%
%TF.CreationDate,2024-06-20T11:52:21+03:00*%
%TF.ProjectId,___________ _____,1c304235-4038-43d4-913a-304f203f3b30,rev?*%
%TF.SameCoordinates,Original*%
%TF.FileFunction,Legend,Bot*%
%TF.FilePolarity,Positive*%
%FSLAX46Y46*%
G04 Gerber Fmt 4.6, Leading zero omitted, Abs format (unit mm)*
G04 Created by KiCad (PCBNEW 7.0.9) date 2024-06-20 11:52:21*
%MOMM*%
%LPD*%
G01*
G04 APERTURE LIST*
%ADD10C,0.150000*%
%ADD11C,0.120000*%
G04 APERTURE END LIST*
D10*
X238859580Y-94333333D02*
X238907200Y-94285714D01*
X238907200Y-94285714D02*
X238954819Y-94142857D01*
X238954819Y-94142857D02*
X238954819Y-94047619D01*
X238954819Y-94047619D02*
X238907200Y-93904762D01*
X238907200Y-93904762D02*
X238811961Y-93809524D01*
X238811961Y-93809524D02*
X238716723Y-93761905D01*
X238716723Y-93761905D02*
X238526247Y-93714286D01*
X238526247Y-93714286D02*
X238383390Y-93714286D01*
X238383390Y-93714286D02*
X238192914Y-93761905D01*
X238192914Y-93761905D02*
X238097676Y-93809524D01*
X238097676Y-93809524D02*
X238002438Y-93904762D01*
X238002438Y-93904762D02*
X237954819Y-94047619D01*
X237954819Y-94047619D02*
X237954819Y-94142857D01*
X237954819Y-94142857D02*
X238002438Y-94285714D01*
X238002438Y-94285714D02*
X238050057Y-94333333D01*
X238050057Y-94714286D02*
X238002438Y-94761905D01*
X238002438Y-94761905D02*
X237954819Y-94857143D01*
X237954819Y-94857143D02*
X237954819Y-95095238D01*
X237954819Y-95095238D02*
X238002438Y-95190476D01*
X238002438Y-95190476D02*
X238050057Y-95238095D01*
X238050057Y-95238095D02*
X238145295Y-95285714D01*
X238145295Y-95285714D02*
X238240533Y-95285714D01*
X238240533Y-95285714D02*
X238383390Y-95238095D01*
X238383390Y-95238095D02*
X238954819Y-94666667D01*
X238954819Y-94666667D02*
X238954819Y-95285714D01*
X280029189Y-76804761D02*
X279981570Y-76709523D01*
X279981570Y-76709523D02*
X279886332Y-76614285D01*
X279886332Y-76614285D02*
X279743474Y-76471428D01*
X279743474Y-76471428D02*
X279695855Y-76376190D01*
X279695855Y-76376190D02*
X279695855Y-76280952D01*
X279933951Y-76328571D02*
X279886332Y-76233333D01*
X279886332Y-76233333D02*
X279791093Y-76138095D01*
X279791093Y-76138095D02*
X279600617Y-76090476D01*
X279600617Y-76090476D02*
X279267284Y-76090476D01*
X279267284Y-76090476D02*
X279076808Y-76138095D01*
X279076808Y-76138095D02*
X278981570Y-76233333D01*
X278981570Y-76233333D02*
X278933951Y-76328571D01*
X278933951Y-76328571D02*
X278933951Y-76519047D01*
X278933951Y-76519047D02*
X278981570Y-76614285D01*
X278981570Y-76614285D02*
X279076808Y-76709523D01*
X279076808Y-76709523D02*
X279267284Y-76757142D01*
X279267284Y-76757142D02*
X279600617Y-76757142D01*
X279600617Y-76757142D02*
X279791093Y-76709523D01*
X279791093Y-76709523D02*
X279886332Y-76614285D01*
X279886332Y-76614285D02*
X279933951Y-76519047D01*
X279933951Y-76519047D02*
X279933951Y-76328571D01*
X279933951Y-77709523D02*
X279933951Y-77138095D01*
X279933951Y-77423809D02*
X278933951Y-77423809D01*
X278933951Y-77423809D02*
X279076808Y-77328571D01*
X279076808Y-77328571D02*
X279172046Y-77233333D01*
X279172046Y-77233333D02*
X279219665Y-77138095D01*
X247166666Y-81054819D02*
X247499999Y-80578628D01*
X247738094Y-81054819D02*
X247738094Y-80054819D01*
X247738094Y-80054819D02*
X247357142Y-80054819D01*
X247357142Y-80054819D02*
X247261904Y-80102438D01*
X247261904Y-80102438D02*
X247214285Y-80150057D01*
X247214285Y-80150057D02*
X247166666Y-80245295D01*
X247166666Y-80245295D02*
X247166666Y-80388152D01*
X247166666Y-80388152D02*
X247214285Y-80483390D01*
X247214285Y-80483390D02*
X247261904Y-80531009D01*
X247261904Y-80531009D02*
X247357142Y-80578628D01*
X247357142Y-80578628D02*
X247738094Y-80578628D01*
X246309523Y-80388152D02*
X246309523Y-81054819D01*
X246547618Y-80007200D02*
X246785713Y-80721485D01*
X246785713Y-80721485D02*
X246166666Y-80721485D01*
X243361904Y-74554819D02*
X243361904Y-75364342D01*
X243361904Y-75364342D02*
X243314285Y-75459580D01*
X243314285Y-75459580D02*
X243266666Y-75507200D01*
X243266666Y-75507200D02*
X243171428Y-75554819D01*
X243171428Y-75554819D02*
X242980952Y-75554819D01*
X242980952Y-75554819D02*
X242885714Y-75507200D01*
X242885714Y-75507200D02*
X242838095Y-75459580D01*
X242838095Y-75459580D02*
X242790476Y-75364342D01*
X242790476Y-75364342D02*
X242790476Y-74554819D01*
X241790476Y-75554819D02*
X242361904Y-75554819D01*
X242076190Y-75554819D02*
X242076190Y-74554819D01*
X242076190Y-74554819D02*
X242171428Y-74697676D01*
X242171428Y-74697676D02*
X242266666Y-74792914D01*
X242266666Y-74792914D02*
X242361904Y-74840533D01*
X255454819Y-82833333D02*
X254978628Y-82500000D01*
X255454819Y-82261905D02*
X254454819Y-82261905D01*
X254454819Y-82261905D02*
X254454819Y-82642857D01*
X254454819Y-82642857D02*
X254502438Y-82738095D01*
X254502438Y-82738095D02*
X254550057Y-82785714D01*
X254550057Y-82785714D02*
X254645295Y-82833333D01*
X254645295Y-82833333D02*
X254788152Y-82833333D01*
X254788152Y-82833333D02*
X254883390Y-82785714D01*
X254883390Y-82785714D02*
X254931009Y-82738095D01*
X254931009Y-82738095D02*
X254978628Y-82642857D01*
X254978628Y-82642857D02*
X254978628Y-82261905D01*
X254454819Y-83738095D02*
X254454819Y-83261905D01*
X254454819Y-83261905D02*
X254931009Y-83214286D01*
X254931009Y-83214286D02*
X254883390Y-83261905D01*
X254883390Y-83261905D02*
X254835771Y-83357143D01*
X254835771Y-83357143D02*
X254835771Y-83595238D01*
X254835771Y-83595238D02*
X254883390Y-83690476D01*
X254883390Y-83690476D02*
X254931009Y-83738095D01*
X254931009Y-83738095D02*
X255026247Y-83785714D01*
X255026247Y-83785714D02*
X255264342Y-83785714D01*
X255264342Y-83785714D02*
X255359580Y-83738095D01*
X255359580Y-83738095D02*
X255407200Y-83690476D01*
X255407200Y-83690476D02*
X255454819Y-83595238D01*
X255454819Y-83595238D02*
X255454819Y-83357143D01*
X255454819Y-83357143D02*
X255407200Y-83261905D01*
X255407200Y-83261905D02*
X255359580Y-83214286D01*
X249154819Y-83333333D02*
X248678628Y-83000000D01*
X249154819Y-82761905D02*
X248154819Y-82761905D01*
X248154819Y-82761905D02*
X248154819Y-83142857D01*
X248154819Y-83142857D02*
X248202438Y-83238095D01*
X248202438Y-83238095D02*
X248250057Y-83285714D01*
X248250057Y-83285714D02*
X248345295Y-83333333D01*
X248345295Y-83333333D02*
X248488152Y-83333333D01*
X248488152Y-83333333D02*
X248583390Y-83285714D01*
X248583390Y-83285714D02*
X248631009Y-83238095D01*
X248631009Y-83238095D02*
X248678628Y-83142857D01*
X248678628Y-83142857D02*
X248678628Y-82761905D01*
X248154819Y-84190476D02*
X248154819Y-84000000D01*
X248154819Y-84000000D02*
X248202438Y-83904762D01*
X248202438Y-83904762D02*
X248250057Y-83857143D01*
X248250057Y-83857143D02*
X248392914Y-83761905D01*
X248392914Y-83761905D02*
X248583390Y-83714286D01*
X248583390Y-83714286D02*
X248964342Y-83714286D01*
X248964342Y-83714286D02*
X249059580Y-83761905D01*
X249059580Y-83761905D02*
X249107200Y-83809524D01*
X249107200Y-83809524D02*
X249154819Y-83904762D01*
X249154819Y-83904762D02*
X249154819Y-84095238D01*
X249154819Y-84095238D02*
X249107200Y-84190476D01*
X249107200Y-84190476D02*
X249059580Y-84238095D01*
X249059580Y-84238095D02*
X248964342Y-84285714D01*
X248964342Y-84285714D02*
X248726247Y-84285714D01*
X248726247Y-84285714D02*
X248631009Y-84238095D01*
X248631009Y-84238095D02*
X248583390Y-84190476D01*
X248583390Y-84190476D02*
X248535771Y-84095238D01*
X248535771Y-84095238D02*
X248535771Y-83904762D01*
X248535771Y-83904762D02*
X248583390Y-83809524D01*
X248583390Y-83809524D02*
X248631009Y-83761905D01*
X248631009Y-83761905D02*
X248726247Y-83714286D01*
X239666666Y-79254819D02*
X239999999Y-78778628D01*
X240238094Y-79254819D02*
X240238094Y-78254819D01*
X240238094Y-78254819D02*
X239857142Y-78254819D01*
X239857142Y-78254819D02*
X239761904Y-78302438D01*
X239761904Y-78302438D02*
X239714285Y-78350057D01*
X239714285Y-78350057D02*
X239666666Y-78445295D01*
X239666666Y-78445295D02*
X239666666Y-78588152D01*
X239666666Y-78588152D02*
X239714285Y-78683390D01*
X239714285Y-78683390D02*
X239761904Y-78731009D01*
X239761904Y-78731009D02*
X239857142Y-78778628D01*
X239857142Y-78778628D02*
X240238094Y-78778628D01*
X239333332Y-78254819D02*
X238714285Y-78254819D01*
X238714285Y-78254819D02*
X239047618Y-78635771D01*
X239047618Y-78635771D02*
X238904761Y-78635771D01*
X238904761Y-78635771D02*
X238809523Y-78683390D01*
X238809523Y-78683390D02*
X238761904Y-78731009D01*
X238761904Y-78731009D02*
X238714285Y-78826247D01*
X238714285Y-78826247D02*
X238714285Y-79064342D01*
X238714285Y-79064342D02*
X238761904Y-79159580D01*
X238761904Y-79159580D02*
X238809523Y-79207200D01*
X238809523Y-79207200D02*
X238904761Y-79254819D01*
X238904761Y-79254819D02*
X239190475Y-79254819D01*
X239190475Y-79254819D02*
X239285713Y-79207200D01*
X239285713Y-79207200D02*
X239333332Y-79159580D01*
D11*
%TO.C,C1*%
X241100000Y-90067677D02*
X241900000Y-90067677D01*
X241500000Y-89667677D02*
X241500000Y-90467677D01*
X241500000Y-86767677D02*
X241500000Y-87067677D01*
X241500000Y-84667677D02*
X241500000Y-84967677D01*
X240600000Y-86167677D02*
X242400000Y-86167677D01*
X242400000Y-86167677D02*
X242400000Y-86767677D01*
X242400000Y-86767677D02*
X240600000Y-86767677D01*
X240600000Y-86767677D02*
X240600000Y-86167677D01*
X240600000Y-84967677D02*
X242400000Y-84967677D01*
X242400000Y-84967677D02*
X242400000Y-85567677D01*
X242400000Y-85567677D02*
X240600000Y-85567677D01*
X240600000Y-85567677D02*
X240600000Y-84967677D01*
G36*
X240600000Y-84967677D02*
G01*
X242400000Y-84967677D01*
X242400000Y-85567677D01*
X240600000Y-85567677D01*
X240600000Y-84967677D01*
G37*
%TO.C,C2*%
X241900000Y-92432323D02*
X241100000Y-92432323D01*
X241500000Y-92832323D02*
X241500000Y-92032323D01*
X241500000Y-95732323D02*
X241500000Y-95432323D01*
X241500000Y-97832323D02*
X241500000Y-97532323D01*
X242400000Y-96332323D02*
X240600000Y-96332323D01*
X240600000Y-96332323D02*
X240600000Y-95732323D01*
X240600000Y-95732323D02*
X242400000Y-95732323D01*
X242400000Y-95732323D02*
X242400000Y-96332323D01*
X242400000Y-97532323D02*
X240600000Y-97532323D01*
X240600000Y-97532323D02*
X240600000Y-96932323D01*
X240600000Y-96932323D02*
X242400000Y-96932323D01*
X242400000Y-96932323D02*
X242400000Y-97532323D01*
G36*
X242400000Y-97532323D02*
G01*
X240600000Y-97532323D01*
X240600000Y-96932323D01*
X242400000Y-96932323D01*
X242400000Y-97532323D01*
G37*
%TO.C,R4*%
X242158500Y-79547500D02*
X245841500Y-79547500D01*
X242158500Y-81452500D02*
X242158500Y-79547500D01*
X245841500Y-79547500D02*
X245841500Y-81452500D01*
X245841500Y-81452500D02*
X242158500Y-81452500D01*
%TO.C,U1*%
X242500000Y-79060000D02*
X243150000Y-79060000D01*
X242500000Y-79060000D02*
X241850000Y-79060000D01*
X242500000Y-75940000D02*
X244175000Y-75940000D01*
X242500000Y-75940000D02*
X241850000Y-75940000D01*
%TO.C,R5*%
X254143000Y-81011000D02*
X254143000Y-85964000D01*
X251857000Y-81011000D02*
X254143000Y-81011000D01*
X254143000Y-85964000D02*
X251857000Y-85964000D01*
X251857000Y-85964000D02*
X251857000Y-81011000D01*
%TO.C,R6*%
X249357000Y-85964000D02*
X249357000Y-81011000D01*
X251643000Y-85964000D02*
X249357000Y-85964000D01*
X249357000Y-81011000D02*
X251643000Y-81011000D01*
X251643000Y-81011000D02*
X251643000Y-85964000D01*
%TO.C,R3*%
X238158500Y-79547500D02*
X241841500Y-79547500D01*
X238158500Y-81452500D02*
X238158500Y-79547500D01*
X241841500Y-79547500D02*
X241841500Y-81452500D01*
X241841500Y-81452500D02*
X238158500Y-81452500D01*
%TD*%
M02*
