%TF.GenerationSoftware,KiCad,Pcbnew,7.0.9*%
%TF.CreationDate,2024-06-20T11:52:21+03:00*%
%TF.ProjectId,___________ _____,1c304235-4038-43d4-913a-304f203f3b30,rev?*%
%TF.SameCoordinates,Original*%
%TF.FileFunction,Legend,Top*%
%TF.FilePolarity,Positive*%
%FSLAX46Y46*%
G04 Gerber Fmt 4.6, Leading zero omitted, Abs format (unit mm)*
G04 Created by KiCad (PCBNEW 7.0.9) date 2024-06-20 11:52:21*
%MOMM*%
%LPD*%
G01*
G04 APERTURE LIST*
%ADD10C,0.150000*%
%ADD11C,0.100000*%
%ADD12C,0.120000*%
G04 APERTURE END LIST*
D10*
X273500000Y-107000000D02*
X276500000Y-107000000D01*
X275000000Y-108500000D02*
X275000000Y-105500000D01*
X225000000Y-108000000D02*
X228000000Y-108000000D01*
X223954819Y-72166666D02*
X223478628Y-72499999D01*
X223954819Y-72738094D02*
X222954819Y-72738094D01*
X222954819Y-72738094D02*
X222954819Y-72357142D01*
X222954819Y-72357142D02*
X223002438Y-72261904D01*
X223002438Y-72261904D02*
X223050057Y-72214285D01*
X223050057Y-72214285D02*
X223145295Y-72166666D01*
X223145295Y-72166666D02*
X223288152Y-72166666D01*
X223288152Y-72166666D02*
X223383390Y-72214285D01*
X223383390Y-72214285D02*
X223431009Y-72261904D01*
X223431009Y-72261904D02*
X223478628Y-72357142D01*
X223478628Y-72357142D02*
X223478628Y-72738094D01*
X222954819Y-71833332D02*
X222954819Y-71166666D01*
X222954819Y-71166666D02*
X223954819Y-71595237D01*
X165761905Y-42454819D02*
X165761905Y-41454819D01*
X165761905Y-41454819D02*
X166000000Y-41454819D01*
X166000000Y-41454819D02*
X166142857Y-41502438D01*
X166142857Y-41502438D02*
X166238095Y-41597676D01*
X166238095Y-41597676D02*
X166285714Y-41692914D01*
X166285714Y-41692914D02*
X166333333Y-41883390D01*
X166333333Y-41883390D02*
X166333333Y-42026247D01*
X166333333Y-42026247D02*
X166285714Y-42216723D01*
X166285714Y-42216723D02*
X166238095Y-42311961D01*
X166238095Y-42311961D02*
X166142857Y-42407200D01*
X166142857Y-42407200D02*
X166000000Y-42454819D01*
X166000000Y-42454819D02*
X165761905Y-42454819D01*
X166666667Y-41454819D02*
X167333333Y-41454819D01*
X167333333Y-41454819D02*
X166904762Y-42454819D01*
D11*
X222666666Y-30457419D02*
X222666666Y-31171704D01*
X222666666Y-31171704D02*
X222619047Y-31314561D01*
X222619047Y-31314561D02*
X222523809Y-31409800D01*
X222523809Y-31409800D02*
X222380952Y-31457419D01*
X222380952Y-31457419D02*
X222285714Y-31457419D01*
X223571428Y-30457419D02*
X223380952Y-30457419D01*
X223380952Y-30457419D02*
X223285714Y-30505038D01*
X223285714Y-30505038D02*
X223238095Y-30552657D01*
X223238095Y-30552657D02*
X223142857Y-30695514D01*
X223142857Y-30695514D02*
X223095238Y-30885990D01*
X223095238Y-30885990D02*
X223095238Y-31266942D01*
X223095238Y-31266942D02*
X223142857Y-31362180D01*
X223142857Y-31362180D02*
X223190476Y-31409800D01*
X223190476Y-31409800D02*
X223285714Y-31457419D01*
X223285714Y-31457419D02*
X223476190Y-31457419D01*
X223476190Y-31457419D02*
X223571428Y-31409800D01*
X223571428Y-31409800D02*
X223619047Y-31362180D01*
X223619047Y-31362180D02*
X223666666Y-31266942D01*
X223666666Y-31266942D02*
X223666666Y-31028847D01*
X223666666Y-31028847D02*
X223619047Y-30933609D01*
X223619047Y-30933609D02*
X223571428Y-30885990D01*
X223571428Y-30885990D02*
X223476190Y-30838371D01*
X223476190Y-30838371D02*
X223285714Y-30838371D01*
X223285714Y-30838371D02*
X223190476Y-30885990D01*
X223190476Y-30885990D02*
X223142857Y-30933609D01*
X223142857Y-30933609D02*
X223095238Y-31028847D01*
D10*
X235609580Y-86034343D02*
X235657200Y-86081962D01*
X235657200Y-86081962D02*
X235704819Y-86224819D01*
X235704819Y-86224819D02*
X235704819Y-86320057D01*
X235704819Y-86320057D02*
X235657200Y-86462914D01*
X235657200Y-86462914D02*
X235561961Y-86558152D01*
X235561961Y-86558152D02*
X235466723Y-86605771D01*
X235466723Y-86605771D02*
X235276247Y-86653390D01*
X235276247Y-86653390D02*
X235133390Y-86653390D01*
X235133390Y-86653390D02*
X234942914Y-86605771D01*
X234942914Y-86605771D02*
X234847676Y-86558152D01*
X234847676Y-86558152D02*
X234752438Y-86462914D01*
X234752438Y-86462914D02*
X234704819Y-86320057D01*
X234704819Y-86320057D02*
X234704819Y-86224819D01*
X234704819Y-86224819D02*
X234752438Y-86081962D01*
X234752438Y-86081962D02*
X234800057Y-86034343D01*
X235704819Y-85081962D02*
X235704819Y-85653390D01*
X235704819Y-85367676D02*
X234704819Y-85367676D01*
X234704819Y-85367676D02*
X234847676Y-85462914D01*
X234847676Y-85462914D02*
X234942914Y-85558152D01*
X234942914Y-85558152D02*
X234990533Y-85653390D01*
D11*
X30190476Y-30457419D02*
X30190476Y-31171704D01*
X30190476Y-31171704D02*
X30142857Y-31314561D01*
X30142857Y-31314561D02*
X30047619Y-31409800D01*
X30047619Y-31409800D02*
X29904762Y-31457419D01*
X29904762Y-31457419D02*
X29809524Y-31457419D01*
X30619048Y-30552657D02*
X30666667Y-30505038D01*
X30666667Y-30505038D02*
X30761905Y-30457419D01*
X30761905Y-30457419D02*
X31000000Y-30457419D01*
X31000000Y-30457419D02*
X31095238Y-30505038D01*
X31095238Y-30505038D02*
X31142857Y-30552657D01*
X31142857Y-30552657D02*
X31190476Y-30647895D01*
X31190476Y-30647895D02*
X31190476Y-30743133D01*
X31190476Y-30743133D02*
X31142857Y-30885990D01*
X31142857Y-30885990D02*
X30571429Y-31457419D01*
X30571429Y-31457419D02*
X31190476Y-31457419D01*
X31571429Y-30552657D02*
X31619048Y-30505038D01*
X31619048Y-30505038D02*
X31714286Y-30457419D01*
X31714286Y-30457419D02*
X31952381Y-30457419D01*
X31952381Y-30457419D02*
X32047619Y-30505038D01*
X32047619Y-30505038D02*
X32095238Y-30552657D01*
X32095238Y-30552657D02*
X32142857Y-30647895D01*
X32142857Y-30647895D02*
X32142857Y-30743133D01*
X32142857Y-30743133D02*
X32095238Y-30885990D01*
X32095238Y-30885990D02*
X31523810Y-31457419D01*
X31523810Y-31457419D02*
X32142857Y-31457419D01*
X221190476Y-92457419D02*
X221190476Y-93171704D01*
X221190476Y-93171704D02*
X221142857Y-93314561D01*
X221142857Y-93314561D02*
X221047619Y-93409800D01*
X221047619Y-93409800D02*
X220904762Y-93457419D01*
X220904762Y-93457419D02*
X220809524Y-93457419D01*
X221619048Y-92552657D02*
X221666667Y-92505038D01*
X221666667Y-92505038D02*
X221761905Y-92457419D01*
X221761905Y-92457419D02*
X222000000Y-92457419D01*
X222000000Y-92457419D02*
X222095238Y-92505038D01*
X222095238Y-92505038D02*
X222142857Y-92552657D01*
X222142857Y-92552657D02*
X222190476Y-92647895D01*
X222190476Y-92647895D02*
X222190476Y-92743133D01*
X222190476Y-92743133D02*
X222142857Y-92885990D01*
X222142857Y-92885990D02*
X221571429Y-93457419D01*
X221571429Y-93457419D02*
X222190476Y-93457419D01*
X222523810Y-92457419D02*
X223190476Y-92457419D01*
X223190476Y-92457419D02*
X222761905Y-93457419D01*
X102190476Y-28457419D02*
X102190476Y-29171704D01*
X102190476Y-29171704D02*
X102142857Y-29314561D01*
X102142857Y-29314561D02*
X102047619Y-29409800D01*
X102047619Y-29409800D02*
X101904762Y-29457419D01*
X101904762Y-29457419D02*
X101809524Y-29457419D01*
X103190476Y-29457419D02*
X102619048Y-29457419D01*
X102904762Y-29457419D02*
X102904762Y-28457419D01*
X102904762Y-28457419D02*
X102809524Y-28600276D01*
X102809524Y-28600276D02*
X102714286Y-28695514D01*
X102714286Y-28695514D02*
X102619048Y-28743133D01*
X104047619Y-28457419D02*
X103857143Y-28457419D01*
X103857143Y-28457419D02*
X103761905Y-28505038D01*
X103761905Y-28505038D02*
X103714286Y-28552657D01*
X103714286Y-28552657D02*
X103619048Y-28695514D01*
X103619048Y-28695514D02*
X103571429Y-28885990D01*
X103571429Y-28885990D02*
X103571429Y-29266942D01*
X103571429Y-29266942D02*
X103619048Y-29362180D01*
X103619048Y-29362180D02*
X103666667Y-29409800D01*
X103666667Y-29409800D02*
X103761905Y-29457419D01*
X103761905Y-29457419D02*
X103952381Y-29457419D01*
X103952381Y-29457419D02*
X104047619Y-29409800D01*
X104047619Y-29409800D02*
X104095238Y-29362180D01*
X104095238Y-29362180D02*
X104142857Y-29266942D01*
X104142857Y-29266942D02*
X104142857Y-29028847D01*
X104142857Y-29028847D02*
X104095238Y-28933609D01*
X104095238Y-28933609D02*
X104047619Y-28885990D01*
X104047619Y-28885990D02*
X103952381Y-28838371D01*
X103952381Y-28838371D02*
X103761905Y-28838371D01*
X103761905Y-28838371D02*
X103666667Y-28885990D01*
X103666667Y-28885990D02*
X103619048Y-28933609D01*
X103619048Y-28933609D02*
X103571429Y-29028847D01*
D10*
X225185714Y-68454819D02*
X225185714Y-67454819D01*
X225185714Y-67454819D02*
X225423809Y-67454819D01*
X225423809Y-67454819D02*
X225566666Y-67502438D01*
X225566666Y-67502438D02*
X225661904Y-67597676D01*
X225661904Y-67597676D02*
X225709523Y-67692914D01*
X225709523Y-67692914D02*
X225757142Y-67883390D01*
X225757142Y-67883390D02*
X225757142Y-68026247D01*
X225757142Y-68026247D02*
X225709523Y-68216723D01*
X225709523Y-68216723D02*
X225661904Y-68311961D01*
X225661904Y-68311961D02*
X225566666Y-68407200D01*
X225566666Y-68407200D02*
X225423809Y-68454819D01*
X225423809Y-68454819D02*
X225185714Y-68454819D01*
X226709523Y-68454819D02*
X226138095Y-68454819D01*
X226423809Y-68454819D02*
X226423809Y-67454819D01*
X226423809Y-67454819D02*
X226328571Y-67597676D01*
X226328571Y-67597676D02*
X226233333Y-67692914D01*
X226233333Y-67692914D02*
X226138095Y-67740533D01*
X227661904Y-68454819D02*
X227090476Y-68454819D01*
X227376190Y-68454819D02*
X227376190Y-67454819D01*
X227376190Y-67454819D02*
X227280952Y-67597676D01*
X227280952Y-67597676D02*
X227185714Y-67692914D01*
X227185714Y-67692914D02*
X227090476Y-67740533D01*
X34859580Y-71666666D02*
X34907200Y-71714285D01*
X34907200Y-71714285D02*
X34954819Y-71857142D01*
X34954819Y-71857142D02*
X34954819Y-71952380D01*
X34954819Y-71952380D02*
X34907200Y-72095237D01*
X34907200Y-72095237D02*
X34811961Y-72190475D01*
X34811961Y-72190475D02*
X34716723Y-72238094D01*
X34716723Y-72238094D02*
X34526247Y-72285713D01*
X34526247Y-72285713D02*
X34383390Y-72285713D01*
X34383390Y-72285713D02*
X34192914Y-72238094D01*
X34192914Y-72238094D02*
X34097676Y-72190475D01*
X34097676Y-72190475D02*
X34002438Y-72095237D01*
X34002438Y-72095237D02*
X33954819Y-71952380D01*
X33954819Y-71952380D02*
X33954819Y-71857142D01*
X33954819Y-71857142D02*
X34002438Y-71714285D01*
X34002438Y-71714285D02*
X34050057Y-71666666D01*
X33954819Y-70809523D02*
X33954819Y-70999999D01*
X33954819Y-70999999D02*
X34002438Y-71095237D01*
X34002438Y-71095237D02*
X34050057Y-71142856D01*
X34050057Y-71142856D02*
X34192914Y-71238094D01*
X34192914Y-71238094D02*
X34383390Y-71285713D01*
X34383390Y-71285713D02*
X34764342Y-71285713D01*
X34764342Y-71285713D02*
X34859580Y-71238094D01*
X34859580Y-71238094D02*
X34907200Y-71190475D01*
X34907200Y-71190475D02*
X34954819Y-71095237D01*
X34954819Y-71095237D02*
X34954819Y-70904761D01*
X34954819Y-70904761D02*
X34907200Y-70809523D01*
X34907200Y-70809523D02*
X34859580Y-70761904D01*
X34859580Y-70761904D02*
X34764342Y-70714285D01*
X34764342Y-70714285D02*
X34526247Y-70714285D01*
X34526247Y-70714285D02*
X34431009Y-70761904D01*
X34431009Y-70761904D02*
X34383390Y-70809523D01*
X34383390Y-70809523D02*
X34335771Y-70904761D01*
X34335771Y-70904761D02*
X34335771Y-71095237D01*
X34335771Y-71095237D02*
X34383390Y-71190475D01*
X34383390Y-71190475D02*
X34431009Y-71238094D01*
X34431009Y-71238094D02*
X34526247Y-71285713D01*
X76261905Y-41954819D02*
X76261905Y-40954819D01*
X76261905Y-40954819D02*
X76500000Y-40954819D01*
X76500000Y-40954819D02*
X76642857Y-41002438D01*
X76642857Y-41002438D02*
X76738095Y-41097676D01*
X76738095Y-41097676D02*
X76785714Y-41192914D01*
X76785714Y-41192914D02*
X76833333Y-41383390D01*
X76833333Y-41383390D02*
X76833333Y-41526247D01*
X76833333Y-41526247D02*
X76785714Y-41716723D01*
X76785714Y-41716723D02*
X76738095Y-41811961D01*
X76738095Y-41811961D02*
X76642857Y-41907200D01*
X76642857Y-41907200D02*
X76500000Y-41954819D01*
X76500000Y-41954819D02*
X76261905Y-41954819D01*
X77690476Y-41288152D02*
X77690476Y-41954819D01*
X77452381Y-40907200D02*
X77214286Y-41621485D01*
X77214286Y-41621485D02*
X77833333Y-41621485D01*
X227785714Y-70154819D02*
X227785714Y-69154819D01*
X227785714Y-69154819D02*
X228023809Y-69154819D01*
X228023809Y-69154819D02*
X228166666Y-69202438D01*
X228166666Y-69202438D02*
X228261904Y-69297676D01*
X228261904Y-69297676D02*
X228309523Y-69392914D01*
X228309523Y-69392914D02*
X228357142Y-69583390D01*
X228357142Y-69583390D02*
X228357142Y-69726247D01*
X228357142Y-69726247D02*
X228309523Y-69916723D01*
X228309523Y-69916723D02*
X228261904Y-70011961D01*
X228261904Y-70011961D02*
X228166666Y-70107200D01*
X228166666Y-70107200D02*
X228023809Y-70154819D01*
X228023809Y-70154819D02*
X227785714Y-70154819D01*
X229309523Y-70154819D02*
X228738095Y-70154819D01*
X229023809Y-70154819D02*
X229023809Y-69154819D01*
X229023809Y-69154819D02*
X228928571Y-69297676D01*
X228928571Y-69297676D02*
X228833333Y-69392914D01*
X228833333Y-69392914D02*
X228738095Y-69440533D01*
X229642857Y-69154819D02*
X230261904Y-69154819D01*
X230261904Y-69154819D02*
X229928571Y-69535771D01*
X229928571Y-69535771D02*
X230071428Y-69535771D01*
X230071428Y-69535771D02*
X230166666Y-69583390D01*
X230166666Y-69583390D02*
X230214285Y-69631009D01*
X230214285Y-69631009D02*
X230261904Y-69726247D01*
X230261904Y-69726247D02*
X230261904Y-69964342D01*
X230261904Y-69964342D02*
X230214285Y-70059580D01*
X230214285Y-70059580D02*
X230166666Y-70107200D01*
X230166666Y-70107200D02*
X230071428Y-70154819D01*
X230071428Y-70154819D02*
X229785714Y-70154819D01*
X229785714Y-70154819D02*
X229690476Y-70107200D01*
X229690476Y-70107200D02*
X229642857Y-70059580D01*
D11*
X204718666Y-86269419D02*
X204718666Y-86983704D01*
X204718666Y-86983704D02*
X204671047Y-87126561D01*
X204671047Y-87126561D02*
X204575809Y-87221800D01*
X204575809Y-87221800D02*
X204432952Y-87269419D01*
X204432952Y-87269419D02*
X204337714Y-87269419D01*
X205242476Y-87269419D02*
X205432952Y-87269419D01*
X205432952Y-87269419D02*
X205528190Y-87221800D01*
X205528190Y-87221800D02*
X205575809Y-87174180D01*
X205575809Y-87174180D02*
X205671047Y-87031323D01*
X205671047Y-87031323D02*
X205718666Y-86840847D01*
X205718666Y-86840847D02*
X205718666Y-86459895D01*
X205718666Y-86459895D02*
X205671047Y-86364657D01*
X205671047Y-86364657D02*
X205623428Y-86317038D01*
X205623428Y-86317038D02*
X205528190Y-86269419D01*
X205528190Y-86269419D02*
X205337714Y-86269419D01*
X205337714Y-86269419D02*
X205242476Y-86317038D01*
X205242476Y-86317038D02*
X205194857Y-86364657D01*
X205194857Y-86364657D02*
X205147238Y-86459895D01*
X205147238Y-86459895D02*
X205147238Y-86697990D01*
X205147238Y-86697990D02*
X205194857Y-86793228D01*
X205194857Y-86793228D02*
X205242476Y-86840847D01*
X205242476Y-86840847D02*
X205337714Y-86888466D01*
X205337714Y-86888466D02*
X205528190Y-86888466D01*
X205528190Y-86888466D02*
X205623428Y-86840847D01*
X205623428Y-86840847D02*
X205671047Y-86793228D01*
X205671047Y-86793228D02*
X205718666Y-86697990D01*
D10*
X30754819Y-79366666D02*
X30754819Y-79842856D01*
X30754819Y-79842856D02*
X29754819Y-79842856D01*
X30754819Y-78509523D02*
X30754819Y-79080951D01*
X30754819Y-78795237D02*
X29754819Y-78795237D01*
X29754819Y-78795237D02*
X29897676Y-78890475D01*
X29897676Y-78890475D02*
X29992914Y-78985713D01*
X29992914Y-78985713D02*
X30040533Y-79080951D01*
D11*
X274666666Y-48457419D02*
X274666666Y-49171704D01*
X274666666Y-49171704D02*
X274619047Y-49314561D01*
X274619047Y-49314561D02*
X274523809Y-49409800D01*
X274523809Y-49409800D02*
X274380952Y-49457419D01*
X274380952Y-49457419D02*
X274285714Y-49457419D01*
X275047619Y-48457419D02*
X275666666Y-48457419D01*
X275666666Y-48457419D02*
X275333333Y-48838371D01*
X275333333Y-48838371D02*
X275476190Y-48838371D01*
X275476190Y-48838371D02*
X275571428Y-48885990D01*
X275571428Y-48885990D02*
X275619047Y-48933609D01*
X275619047Y-48933609D02*
X275666666Y-49028847D01*
X275666666Y-49028847D02*
X275666666Y-49266942D01*
X275666666Y-49266942D02*
X275619047Y-49362180D01*
X275619047Y-49362180D02*
X275571428Y-49409800D01*
X275571428Y-49409800D02*
X275476190Y-49457419D01*
X275476190Y-49457419D02*
X275190476Y-49457419D01*
X275190476Y-49457419D02*
X275095238Y-49409800D01*
X275095238Y-49409800D02*
X275047619Y-49362180D01*
X222261904Y-86933609D02*
X221928571Y-86933609D01*
X221928571Y-87457419D02*
X221928571Y-86457419D01*
X221928571Y-86457419D02*
X222404761Y-86457419D01*
X223261904Y-87457419D02*
X222785714Y-87457419D01*
X222785714Y-87457419D02*
X222785714Y-86457419D01*
X224119047Y-87457419D02*
X223547619Y-87457419D01*
X223833333Y-87457419D02*
X223833333Y-86457419D01*
X223833333Y-86457419D02*
X223738095Y-86600276D01*
X223738095Y-86600276D02*
X223642857Y-86695514D01*
X223642857Y-86695514D02*
X223547619Y-86743133D01*
X228718666Y-86269419D02*
X228718666Y-86983704D01*
X228718666Y-86983704D02*
X228671047Y-87126561D01*
X228671047Y-87126561D02*
X228575809Y-87221800D01*
X228575809Y-87221800D02*
X228432952Y-87269419D01*
X228432952Y-87269419D02*
X228337714Y-87269419D01*
X229099619Y-86269419D02*
X229766285Y-86269419D01*
X229766285Y-86269419D02*
X229337714Y-87269419D01*
X246666666Y-30457419D02*
X246666666Y-31171704D01*
X246666666Y-31171704D02*
X246619047Y-31314561D01*
X246619047Y-31314561D02*
X246523809Y-31409800D01*
X246523809Y-31409800D02*
X246380952Y-31457419D01*
X246380952Y-31457419D02*
X246285714Y-31457419D01*
X247571428Y-30790752D02*
X247571428Y-31457419D01*
X247333333Y-30409800D02*
X247095238Y-31124085D01*
X247095238Y-31124085D02*
X247714285Y-31124085D01*
D10*
X26105595Y-74217319D02*
X26105595Y-75026842D01*
X26105595Y-75026842D02*
X26153214Y-75122080D01*
X26153214Y-75122080D02*
X26200833Y-75169700D01*
X26200833Y-75169700D02*
X26296071Y-75217319D01*
X26296071Y-75217319D02*
X26486547Y-75217319D01*
X26486547Y-75217319D02*
X26581785Y-75169700D01*
X26581785Y-75169700D02*
X26629404Y-75122080D01*
X26629404Y-75122080D02*
X26677023Y-75026842D01*
X26677023Y-75026842D02*
X26677023Y-74217319D01*
X27105595Y-74312557D02*
X27153214Y-74264938D01*
X27153214Y-74264938D02*
X27248452Y-74217319D01*
X27248452Y-74217319D02*
X27486547Y-74217319D01*
X27486547Y-74217319D02*
X27581785Y-74264938D01*
X27581785Y-74264938D02*
X27629404Y-74312557D01*
X27629404Y-74312557D02*
X27677023Y-74407795D01*
X27677023Y-74407795D02*
X27677023Y-74503033D01*
X27677023Y-74503033D02*
X27629404Y-74645890D01*
X27629404Y-74645890D02*
X27057976Y-75217319D01*
X27057976Y-75217319D02*
X27677023Y-75217319D01*
X237261905Y-46604819D02*
X237261905Y-45604819D01*
X237261905Y-45604819D02*
X237500000Y-45604819D01*
X237500000Y-45604819D02*
X237642857Y-45652438D01*
X237642857Y-45652438D02*
X237738095Y-45747676D01*
X237738095Y-45747676D02*
X237785714Y-45842914D01*
X237785714Y-45842914D02*
X237833333Y-46033390D01*
X237833333Y-46033390D02*
X237833333Y-46176247D01*
X237833333Y-46176247D02*
X237785714Y-46366723D01*
X237785714Y-46366723D02*
X237738095Y-46461961D01*
X237738095Y-46461961D02*
X237642857Y-46557200D01*
X237642857Y-46557200D02*
X237500000Y-46604819D01*
X237500000Y-46604819D02*
X237261905Y-46604819D01*
X238309524Y-46604819D02*
X238500000Y-46604819D01*
X238500000Y-46604819D02*
X238595238Y-46557200D01*
X238595238Y-46557200D02*
X238642857Y-46509580D01*
X238642857Y-46509580D02*
X238738095Y-46366723D01*
X238738095Y-46366723D02*
X238785714Y-46176247D01*
X238785714Y-46176247D02*
X238785714Y-45795295D01*
X238785714Y-45795295D02*
X238738095Y-45700057D01*
X238738095Y-45700057D02*
X238690476Y-45652438D01*
X238690476Y-45652438D02*
X238595238Y-45604819D01*
X238595238Y-45604819D02*
X238404762Y-45604819D01*
X238404762Y-45604819D02*
X238309524Y-45652438D01*
X238309524Y-45652438D02*
X238261905Y-45700057D01*
X238261905Y-45700057D02*
X238214286Y-45795295D01*
X238214286Y-45795295D02*
X238214286Y-46033390D01*
X238214286Y-46033390D02*
X238261905Y-46128628D01*
X238261905Y-46128628D02*
X238309524Y-46176247D01*
X238309524Y-46176247D02*
X238404762Y-46223866D01*
X238404762Y-46223866D02*
X238595238Y-46223866D01*
X238595238Y-46223866D02*
X238690476Y-46176247D01*
X238690476Y-46176247D02*
X238738095Y-46128628D01*
X238738095Y-46128628D02*
X238785714Y-46033390D01*
X34154819Y-59141666D02*
X33678628Y-59474999D01*
X34154819Y-59713094D02*
X33154819Y-59713094D01*
X33154819Y-59713094D02*
X33154819Y-59332142D01*
X33154819Y-59332142D02*
X33202438Y-59236904D01*
X33202438Y-59236904D02*
X33250057Y-59189285D01*
X33250057Y-59189285D02*
X33345295Y-59141666D01*
X33345295Y-59141666D02*
X33488152Y-59141666D01*
X33488152Y-59141666D02*
X33583390Y-59189285D01*
X33583390Y-59189285D02*
X33631009Y-59236904D01*
X33631009Y-59236904D02*
X33678628Y-59332142D01*
X33678628Y-59332142D02*
X33678628Y-59713094D01*
X33583390Y-58570237D02*
X33535771Y-58665475D01*
X33535771Y-58665475D02*
X33488152Y-58713094D01*
X33488152Y-58713094D02*
X33392914Y-58760713D01*
X33392914Y-58760713D02*
X33345295Y-58760713D01*
X33345295Y-58760713D02*
X33250057Y-58713094D01*
X33250057Y-58713094D02*
X33202438Y-58665475D01*
X33202438Y-58665475D02*
X33154819Y-58570237D01*
X33154819Y-58570237D02*
X33154819Y-58379761D01*
X33154819Y-58379761D02*
X33202438Y-58284523D01*
X33202438Y-58284523D02*
X33250057Y-58236904D01*
X33250057Y-58236904D02*
X33345295Y-58189285D01*
X33345295Y-58189285D02*
X33392914Y-58189285D01*
X33392914Y-58189285D02*
X33488152Y-58236904D01*
X33488152Y-58236904D02*
X33535771Y-58284523D01*
X33535771Y-58284523D02*
X33583390Y-58379761D01*
X33583390Y-58379761D02*
X33583390Y-58570237D01*
X33583390Y-58570237D02*
X33631009Y-58665475D01*
X33631009Y-58665475D02*
X33678628Y-58713094D01*
X33678628Y-58713094D02*
X33773866Y-58760713D01*
X33773866Y-58760713D02*
X33964342Y-58760713D01*
X33964342Y-58760713D02*
X34059580Y-58713094D01*
X34059580Y-58713094D02*
X34107200Y-58665475D01*
X34107200Y-58665475D02*
X34154819Y-58570237D01*
X34154819Y-58570237D02*
X34154819Y-58379761D01*
X34154819Y-58379761D02*
X34107200Y-58284523D01*
X34107200Y-58284523D02*
X34059580Y-58236904D01*
X34059580Y-58236904D02*
X33964342Y-58189285D01*
X33964342Y-58189285D02*
X33773866Y-58189285D01*
X33773866Y-58189285D02*
X33678628Y-58236904D01*
X33678628Y-58236904D02*
X33631009Y-58284523D01*
X33631009Y-58284523D02*
X33583390Y-58379761D01*
X191334819Y-92166666D02*
X190858628Y-92499999D01*
X191334819Y-92738094D02*
X190334819Y-92738094D01*
X190334819Y-92738094D02*
X190334819Y-92357142D01*
X190334819Y-92357142D02*
X190382438Y-92261904D01*
X190382438Y-92261904D02*
X190430057Y-92214285D01*
X190430057Y-92214285D02*
X190525295Y-92166666D01*
X190525295Y-92166666D02*
X190668152Y-92166666D01*
X190668152Y-92166666D02*
X190763390Y-92214285D01*
X190763390Y-92214285D02*
X190811009Y-92261904D01*
X190811009Y-92261904D02*
X190858628Y-92357142D01*
X190858628Y-92357142D02*
X190858628Y-92738094D01*
X190430057Y-91785713D02*
X190382438Y-91738094D01*
X190382438Y-91738094D02*
X190334819Y-91642856D01*
X190334819Y-91642856D02*
X190334819Y-91404761D01*
X190334819Y-91404761D02*
X190382438Y-91309523D01*
X190382438Y-91309523D02*
X190430057Y-91261904D01*
X190430057Y-91261904D02*
X190525295Y-91214285D01*
X190525295Y-91214285D02*
X190620533Y-91214285D01*
X190620533Y-91214285D02*
X190763390Y-91261904D01*
X190763390Y-91261904D02*
X191334819Y-91833332D01*
X191334819Y-91833332D02*
X191334819Y-91214285D01*
X240004761Y-61500057D02*
X239909523Y-61452438D01*
X239909523Y-61452438D02*
X239814285Y-61357200D01*
X239814285Y-61357200D02*
X239671428Y-61214342D01*
X239671428Y-61214342D02*
X239576190Y-61166723D01*
X239576190Y-61166723D02*
X239480952Y-61166723D01*
X239528571Y-61404819D02*
X239433333Y-61357200D01*
X239433333Y-61357200D02*
X239338095Y-61261961D01*
X239338095Y-61261961D02*
X239290476Y-61071485D01*
X239290476Y-61071485D02*
X239290476Y-60738152D01*
X239290476Y-60738152D02*
X239338095Y-60547676D01*
X239338095Y-60547676D02*
X239433333Y-60452438D01*
X239433333Y-60452438D02*
X239528571Y-60404819D01*
X239528571Y-60404819D02*
X239719047Y-60404819D01*
X239719047Y-60404819D02*
X239814285Y-60452438D01*
X239814285Y-60452438D02*
X239909523Y-60547676D01*
X239909523Y-60547676D02*
X239957142Y-60738152D01*
X239957142Y-60738152D02*
X239957142Y-61071485D01*
X239957142Y-61071485D02*
X239909523Y-61261961D01*
X239909523Y-61261961D02*
X239814285Y-61357200D01*
X239814285Y-61357200D02*
X239719047Y-61404819D01*
X239719047Y-61404819D02*
X239528571Y-61404819D01*
X240290476Y-60404819D02*
X240909523Y-60404819D01*
X240909523Y-60404819D02*
X240576190Y-60785771D01*
X240576190Y-60785771D02*
X240719047Y-60785771D01*
X240719047Y-60785771D02*
X240814285Y-60833390D01*
X240814285Y-60833390D02*
X240861904Y-60881009D01*
X240861904Y-60881009D02*
X240909523Y-60976247D01*
X240909523Y-60976247D02*
X240909523Y-61214342D01*
X240909523Y-61214342D02*
X240861904Y-61309580D01*
X240861904Y-61309580D02*
X240814285Y-61357200D01*
X240814285Y-61357200D02*
X240719047Y-61404819D01*
X240719047Y-61404819D02*
X240433333Y-61404819D01*
X240433333Y-61404819D02*
X240338095Y-61357200D01*
X240338095Y-61357200D02*
X240290476Y-61309580D01*
X31795833Y-80679580D02*
X31748214Y-80727200D01*
X31748214Y-80727200D02*
X31605357Y-80774819D01*
X31605357Y-80774819D02*
X31510119Y-80774819D01*
X31510119Y-80774819D02*
X31367262Y-80727200D01*
X31367262Y-80727200D02*
X31272024Y-80631961D01*
X31272024Y-80631961D02*
X31224405Y-80536723D01*
X31224405Y-80536723D02*
X31176786Y-80346247D01*
X31176786Y-80346247D02*
X31176786Y-80203390D01*
X31176786Y-80203390D02*
X31224405Y-80012914D01*
X31224405Y-80012914D02*
X31272024Y-79917676D01*
X31272024Y-79917676D02*
X31367262Y-79822438D01*
X31367262Y-79822438D02*
X31510119Y-79774819D01*
X31510119Y-79774819D02*
X31605357Y-79774819D01*
X31605357Y-79774819D02*
X31748214Y-79822438D01*
X31748214Y-79822438D02*
X31795833Y-79870057D01*
X32652976Y-80108152D02*
X32652976Y-80774819D01*
X32414881Y-79727200D02*
X32176786Y-80441485D01*
X32176786Y-80441485D02*
X32795833Y-80441485D01*
X172261905Y-42454819D02*
X172261905Y-41454819D01*
X172261905Y-41454819D02*
X172500000Y-41454819D01*
X172500000Y-41454819D02*
X172642857Y-41502438D01*
X172642857Y-41502438D02*
X172738095Y-41597676D01*
X172738095Y-41597676D02*
X172785714Y-41692914D01*
X172785714Y-41692914D02*
X172833333Y-41883390D01*
X172833333Y-41883390D02*
X172833333Y-42026247D01*
X172833333Y-42026247D02*
X172785714Y-42216723D01*
X172785714Y-42216723D02*
X172738095Y-42311961D01*
X172738095Y-42311961D02*
X172642857Y-42407200D01*
X172642857Y-42407200D02*
X172500000Y-42454819D01*
X172500000Y-42454819D02*
X172261905Y-42454819D01*
X173404762Y-41883390D02*
X173309524Y-41835771D01*
X173309524Y-41835771D02*
X173261905Y-41788152D01*
X173261905Y-41788152D02*
X173214286Y-41692914D01*
X173214286Y-41692914D02*
X173214286Y-41645295D01*
X173214286Y-41645295D02*
X173261905Y-41550057D01*
X173261905Y-41550057D02*
X173309524Y-41502438D01*
X173309524Y-41502438D02*
X173404762Y-41454819D01*
X173404762Y-41454819D02*
X173595238Y-41454819D01*
X173595238Y-41454819D02*
X173690476Y-41502438D01*
X173690476Y-41502438D02*
X173738095Y-41550057D01*
X173738095Y-41550057D02*
X173785714Y-41645295D01*
X173785714Y-41645295D02*
X173785714Y-41692914D01*
X173785714Y-41692914D02*
X173738095Y-41788152D01*
X173738095Y-41788152D02*
X173690476Y-41835771D01*
X173690476Y-41835771D02*
X173595238Y-41883390D01*
X173595238Y-41883390D02*
X173404762Y-41883390D01*
X173404762Y-41883390D02*
X173309524Y-41931009D01*
X173309524Y-41931009D02*
X173261905Y-41978628D01*
X173261905Y-41978628D02*
X173214286Y-42073866D01*
X173214286Y-42073866D02*
X173214286Y-42264342D01*
X173214286Y-42264342D02*
X173261905Y-42359580D01*
X173261905Y-42359580D02*
X173309524Y-42407200D01*
X173309524Y-42407200D02*
X173404762Y-42454819D01*
X173404762Y-42454819D02*
X173595238Y-42454819D01*
X173595238Y-42454819D02*
X173690476Y-42407200D01*
X173690476Y-42407200D02*
X173738095Y-42359580D01*
X173738095Y-42359580D02*
X173785714Y-42264342D01*
X173785714Y-42264342D02*
X173785714Y-42073866D01*
X173785714Y-42073866D02*
X173738095Y-41978628D01*
X173738095Y-41978628D02*
X173690476Y-41931009D01*
X173690476Y-41931009D02*
X173595238Y-41883390D01*
D11*
X54190476Y-29457419D02*
X54190476Y-30171704D01*
X54190476Y-30171704D02*
X54142857Y-30314561D01*
X54142857Y-30314561D02*
X54047619Y-30409800D01*
X54047619Y-30409800D02*
X53904762Y-30457419D01*
X53904762Y-30457419D02*
X53809524Y-30457419D01*
X54619048Y-29552657D02*
X54666667Y-29505038D01*
X54666667Y-29505038D02*
X54761905Y-29457419D01*
X54761905Y-29457419D02*
X55000000Y-29457419D01*
X55000000Y-29457419D02*
X55095238Y-29505038D01*
X55095238Y-29505038D02*
X55142857Y-29552657D01*
X55142857Y-29552657D02*
X55190476Y-29647895D01*
X55190476Y-29647895D02*
X55190476Y-29743133D01*
X55190476Y-29743133D02*
X55142857Y-29885990D01*
X55142857Y-29885990D02*
X54571429Y-30457419D01*
X54571429Y-30457419D02*
X55190476Y-30457419D01*
X55809524Y-29457419D02*
X55904762Y-29457419D01*
X55904762Y-29457419D02*
X56000000Y-29505038D01*
X56000000Y-29505038D02*
X56047619Y-29552657D01*
X56047619Y-29552657D02*
X56095238Y-29647895D01*
X56095238Y-29647895D02*
X56142857Y-29838371D01*
X56142857Y-29838371D02*
X56142857Y-30076466D01*
X56142857Y-30076466D02*
X56095238Y-30266942D01*
X56095238Y-30266942D02*
X56047619Y-30362180D01*
X56047619Y-30362180D02*
X56000000Y-30409800D01*
X56000000Y-30409800D02*
X55904762Y-30457419D01*
X55904762Y-30457419D02*
X55809524Y-30457419D01*
X55809524Y-30457419D02*
X55714286Y-30409800D01*
X55714286Y-30409800D02*
X55666667Y-30362180D01*
X55666667Y-30362180D02*
X55619048Y-30266942D01*
X55619048Y-30266942D02*
X55571429Y-30076466D01*
X55571429Y-30076466D02*
X55571429Y-29838371D01*
X55571429Y-29838371D02*
X55619048Y-29647895D01*
X55619048Y-29647895D02*
X55666667Y-29552657D01*
X55666667Y-29552657D02*
X55714286Y-29505038D01*
X55714286Y-29505038D02*
X55809524Y-29457419D01*
D10*
X275068990Y-80666666D02*
X275068990Y-80333333D01*
X274545180Y-80333333D02*
X275545180Y-80333333D01*
X275545180Y-80333333D02*
X275545180Y-80809523D01*
X274545180Y-81714285D02*
X274545180Y-81142857D01*
X274545180Y-81428571D02*
X275545180Y-81428571D01*
X275545180Y-81428571D02*
X275402323Y-81333333D01*
X275402323Y-81333333D02*
X275307085Y-81238095D01*
X275307085Y-81238095D02*
X275259466Y-81142857D01*
D11*
X84242476Y-86269419D02*
X84242476Y-86983704D01*
X84242476Y-86983704D02*
X84194857Y-87126561D01*
X84194857Y-87126561D02*
X84099619Y-87221800D01*
X84099619Y-87221800D02*
X83956762Y-87269419D01*
X83956762Y-87269419D02*
X83861524Y-87269419D01*
X85242476Y-87269419D02*
X84671048Y-87269419D01*
X84956762Y-87269419D02*
X84956762Y-86269419D01*
X84956762Y-86269419D02*
X84861524Y-86412276D01*
X84861524Y-86412276D02*
X84766286Y-86507514D01*
X84766286Y-86507514D02*
X84671048Y-86555133D01*
X85718667Y-87269419D02*
X85909143Y-87269419D01*
X85909143Y-87269419D02*
X86004381Y-87221800D01*
X86004381Y-87221800D02*
X86052000Y-87174180D01*
X86052000Y-87174180D02*
X86147238Y-87031323D01*
X86147238Y-87031323D02*
X86194857Y-86840847D01*
X86194857Y-86840847D02*
X86194857Y-86459895D01*
X86194857Y-86459895D02*
X86147238Y-86364657D01*
X86147238Y-86364657D02*
X86099619Y-86317038D01*
X86099619Y-86317038D02*
X86004381Y-86269419D01*
X86004381Y-86269419D02*
X85813905Y-86269419D01*
X85813905Y-86269419D02*
X85718667Y-86317038D01*
X85718667Y-86317038D02*
X85671048Y-86364657D01*
X85671048Y-86364657D02*
X85623429Y-86459895D01*
X85623429Y-86459895D02*
X85623429Y-86697990D01*
X85623429Y-86697990D02*
X85671048Y-86793228D01*
X85671048Y-86793228D02*
X85718667Y-86840847D01*
X85718667Y-86840847D02*
X85813905Y-86888466D01*
X85813905Y-86888466D02*
X86004381Y-86888466D01*
X86004381Y-86888466D02*
X86099619Y-86840847D01*
X86099619Y-86840847D02*
X86147238Y-86793228D01*
X86147238Y-86793228D02*
X86194857Y-86697990D01*
D10*
X29011905Y-41954819D02*
X29011905Y-40954819D01*
X29011905Y-40954819D02*
X29250000Y-40954819D01*
X29250000Y-40954819D02*
X29392857Y-41002438D01*
X29392857Y-41002438D02*
X29488095Y-41097676D01*
X29488095Y-41097676D02*
X29535714Y-41192914D01*
X29535714Y-41192914D02*
X29583333Y-41383390D01*
X29583333Y-41383390D02*
X29583333Y-41526247D01*
X29583333Y-41526247D02*
X29535714Y-41716723D01*
X29535714Y-41716723D02*
X29488095Y-41811961D01*
X29488095Y-41811961D02*
X29392857Y-41907200D01*
X29392857Y-41907200D02*
X29250000Y-41954819D01*
X29250000Y-41954819D02*
X29011905Y-41954819D01*
X29964286Y-41050057D02*
X30011905Y-41002438D01*
X30011905Y-41002438D02*
X30107143Y-40954819D01*
X30107143Y-40954819D02*
X30345238Y-40954819D01*
X30345238Y-40954819D02*
X30440476Y-41002438D01*
X30440476Y-41002438D02*
X30488095Y-41050057D01*
X30488095Y-41050057D02*
X30535714Y-41145295D01*
X30535714Y-41145295D02*
X30535714Y-41240533D01*
X30535714Y-41240533D02*
X30488095Y-41383390D01*
X30488095Y-41383390D02*
X29916667Y-41954819D01*
X29916667Y-41954819D02*
X30535714Y-41954819D01*
X117761905Y-42454819D02*
X117761905Y-41454819D01*
X117761905Y-41454819D02*
X118000000Y-41454819D01*
X118000000Y-41454819D02*
X118142857Y-41502438D01*
X118142857Y-41502438D02*
X118238095Y-41597676D01*
X118238095Y-41597676D02*
X118285714Y-41692914D01*
X118285714Y-41692914D02*
X118333333Y-41883390D01*
X118333333Y-41883390D02*
X118333333Y-42026247D01*
X118333333Y-42026247D02*
X118285714Y-42216723D01*
X118285714Y-42216723D02*
X118238095Y-42311961D01*
X118238095Y-42311961D02*
X118142857Y-42407200D01*
X118142857Y-42407200D02*
X118000000Y-42454819D01*
X118000000Y-42454819D02*
X117761905Y-42454819D01*
X119238095Y-41454819D02*
X118761905Y-41454819D01*
X118761905Y-41454819D02*
X118714286Y-41931009D01*
X118714286Y-41931009D02*
X118761905Y-41883390D01*
X118761905Y-41883390D02*
X118857143Y-41835771D01*
X118857143Y-41835771D02*
X119095238Y-41835771D01*
X119095238Y-41835771D02*
X119190476Y-41883390D01*
X119190476Y-41883390D02*
X119238095Y-41931009D01*
X119238095Y-41931009D02*
X119285714Y-42026247D01*
X119285714Y-42026247D02*
X119285714Y-42264342D01*
X119285714Y-42264342D02*
X119238095Y-42359580D01*
X119238095Y-42359580D02*
X119190476Y-42407200D01*
X119190476Y-42407200D02*
X119095238Y-42454819D01*
X119095238Y-42454819D02*
X118857143Y-42454819D01*
X118857143Y-42454819D02*
X118761905Y-42407200D01*
X118761905Y-42407200D02*
X118714286Y-42359580D01*
X211068990Y-80166666D02*
X211068990Y-79833333D01*
X210545180Y-79833333D02*
X211545180Y-79833333D01*
X211545180Y-79833333D02*
X211545180Y-80309523D01*
X211449942Y-80642857D02*
X211497561Y-80690476D01*
X211497561Y-80690476D02*
X211545180Y-80785714D01*
X211545180Y-80785714D02*
X211545180Y-81023809D01*
X211545180Y-81023809D02*
X211497561Y-81119047D01*
X211497561Y-81119047D02*
X211449942Y-81166666D01*
X211449942Y-81166666D02*
X211354704Y-81214285D01*
X211354704Y-81214285D02*
X211259466Y-81214285D01*
X211259466Y-81214285D02*
X211116609Y-81166666D01*
X211116609Y-81166666D02*
X210545180Y-80595238D01*
X210545180Y-80595238D02*
X210545180Y-81214285D01*
X69761905Y-41954819D02*
X69761905Y-40954819D01*
X69761905Y-40954819D02*
X70000000Y-40954819D01*
X70000000Y-40954819D02*
X70142857Y-41002438D01*
X70142857Y-41002438D02*
X70238095Y-41097676D01*
X70238095Y-41097676D02*
X70285714Y-41192914D01*
X70285714Y-41192914D02*
X70333333Y-41383390D01*
X70333333Y-41383390D02*
X70333333Y-41526247D01*
X70333333Y-41526247D02*
X70285714Y-41716723D01*
X70285714Y-41716723D02*
X70238095Y-41811961D01*
X70238095Y-41811961D02*
X70142857Y-41907200D01*
X70142857Y-41907200D02*
X70000000Y-41954819D01*
X70000000Y-41954819D02*
X69761905Y-41954819D01*
X70666667Y-40954819D02*
X71285714Y-40954819D01*
X71285714Y-40954819D02*
X70952381Y-41335771D01*
X70952381Y-41335771D02*
X71095238Y-41335771D01*
X71095238Y-41335771D02*
X71190476Y-41383390D01*
X71190476Y-41383390D02*
X71238095Y-41431009D01*
X71238095Y-41431009D02*
X71285714Y-41526247D01*
X71285714Y-41526247D02*
X71285714Y-41764342D01*
X71285714Y-41764342D02*
X71238095Y-41859580D01*
X71238095Y-41859580D02*
X71190476Y-41907200D01*
X71190476Y-41907200D02*
X71095238Y-41954819D01*
X71095238Y-41954819D02*
X70809524Y-41954819D01*
X70809524Y-41954819D02*
X70714286Y-41907200D01*
X70714286Y-41907200D02*
X70666667Y-41859580D01*
X31795833Y-75679580D02*
X31748214Y-75727200D01*
X31748214Y-75727200D02*
X31605357Y-75774819D01*
X31605357Y-75774819D02*
X31510119Y-75774819D01*
X31510119Y-75774819D02*
X31367262Y-75727200D01*
X31367262Y-75727200D02*
X31272024Y-75631961D01*
X31272024Y-75631961D02*
X31224405Y-75536723D01*
X31224405Y-75536723D02*
X31176786Y-75346247D01*
X31176786Y-75346247D02*
X31176786Y-75203390D01*
X31176786Y-75203390D02*
X31224405Y-75012914D01*
X31224405Y-75012914D02*
X31272024Y-74917676D01*
X31272024Y-74917676D02*
X31367262Y-74822438D01*
X31367262Y-74822438D02*
X31510119Y-74774819D01*
X31510119Y-74774819D02*
X31605357Y-74774819D01*
X31605357Y-74774819D02*
X31748214Y-74822438D01*
X31748214Y-74822438D02*
X31795833Y-74870057D01*
X32700595Y-74774819D02*
X32224405Y-74774819D01*
X32224405Y-74774819D02*
X32176786Y-75251009D01*
X32176786Y-75251009D02*
X32224405Y-75203390D01*
X32224405Y-75203390D02*
X32319643Y-75155771D01*
X32319643Y-75155771D02*
X32557738Y-75155771D01*
X32557738Y-75155771D02*
X32652976Y-75203390D01*
X32652976Y-75203390D02*
X32700595Y-75251009D01*
X32700595Y-75251009D02*
X32748214Y-75346247D01*
X32748214Y-75346247D02*
X32748214Y-75584342D01*
X32748214Y-75584342D02*
X32700595Y-75679580D01*
X32700595Y-75679580D02*
X32652976Y-75727200D01*
X32652976Y-75727200D02*
X32557738Y-75774819D01*
X32557738Y-75774819D02*
X32319643Y-75774819D01*
X32319643Y-75774819D02*
X32224405Y-75727200D01*
X32224405Y-75727200D02*
X32176786Y-75679580D01*
X48454819Y-42157738D02*
X47978628Y-42491071D01*
X48454819Y-42729166D02*
X47454819Y-42729166D01*
X47454819Y-42729166D02*
X47454819Y-42348214D01*
X47454819Y-42348214D02*
X47502438Y-42252976D01*
X47502438Y-42252976D02*
X47550057Y-42205357D01*
X47550057Y-42205357D02*
X47645295Y-42157738D01*
X47645295Y-42157738D02*
X47788152Y-42157738D01*
X47788152Y-42157738D02*
X47883390Y-42205357D01*
X47883390Y-42205357D02*
X47931009Y-42252976D01*
X47931009Y-42252976D02*
X47978628Y-42348214D01*
X47978628Y-42348214D02*
X47978628Y-42729166D01*
X47454819Y-41872023D02*
X48454819Y-41538690D01*
X48454819Y-41538690D02*
X47454819Y-41205357D01*
X48454819Y-40348214D02*
X48454819Y-40919642D01*
X48454819Y-40633928D02*
X47454819Y-40633928D01*
X47454819Y-40633928D02*
X47597676Y-40729166D01*
X47597676Y-40729166D02*
X47692914Y-40824404D01*
X47692914Y-40824404D02*
X47740533Y-40919642D01*
X27454819Y-61214285D02*
X26454819Y-61214285D01*
X26454819Y-61214285D02*
X26454819Y-60976190D01*
X26454819Y-60976190D02*
X26502438Y-60833333D01*
X26502438Y-60833333D02*
X26597676Y-60738095D01*
X26597676Y-60738095D02*
X26692914Y-60690476D01*
X26692914Y-60690476D02*
X26883390Y-60642857D01*
X26883390Y-60642857D02*
X27026247Y-60642857D01*
X27026247Y-60642857D02*
X27216723Y-60690476D01*
X27216723Y-60690476D02*
X27311961Y-60738095D01*
X27311961Y-60738095D02*
X27407200Y-60833333D01*
X27407200Y-60833333D02*
X27454819Y-60976190D01*
X27454819Y-60976190D02*
X27454819Y-61214285D01*
X27454819Y-59690476D02*
X27454819Y-60261904D01*
X27454819Y-59976190D02*
X26454819Y-59976190D01*
X26454819Y-59976190D02*
X26597676Y-60071428D01*
X26597676Y-60071428D02*
X26692914Y-60166666D01*
X26692914Y-60166666D02*
X26740533Y-60261904D01*
X26788152Y-58833333D02*
X27454819Y-58833333D01*
X26407200Y-59071428D02*
X27121485Y-59309523D01*
X27121485Y-59309523D02*
X27121485Y-58690476D01*
X20654819Y-43966666D02*
X20178628Y-44299999D01*
X20654819Y-44538094D02*
X19654819Y-44538094D01*
X19654819Y-44538094D02*
X19654819Y-44157142D01*
X19654819Y-44157142D02*
X19702438Y-44061904D01*
X19702438Y-44061904D02*
X19750057Y-44014285D01*
X19750057Y-44014285D02*
X19845295Y-43966666D01*
X19845295Y-43966666D02*
X19988152Y-43966666D01*
X19988152Y-43966666D02*
X20083390Y-44014285D01*
X20083390Y-44014285D02*
X20131009Y-44061904D01*
X20131009Y-44061904D02*
X20178628Y-44157142D01*
X20178628Y-44157142D02*
X20178628Y-44538094D01*
X20654819Y-43014285D02*
X20654819Y-43585713D01*
X20654819Y-43299999D02*
X19654819Y-43299999D01*
X19654819Y-43299999D02*
X19797676Y-43395237D01*
X19797676Y-43395237D02*
X19892914Y-43490475D01*
X19892914Y-43490475D02*
X19940533Y-43585713D01*
X244285714Y-38454819D02*
X244285714Y-37454819D01*
X244285714Y-37454819D02*
X244523809Y-37454819D01*
X244523809Y-37454819D02*
X244666666Y-37502438D01*
X244666666Y-37502438D02*
X244761904Y-37597676D01*
X244761904Y-37597676D02*
X244809523Y-37692914D01*
X244809523Y-37692914D02*
X244857142Y-37883390D01*
X244857142Y-37883390D02*
X244857142Y-38026247D01*
X244857142Y-38026247D02*
X244809523Y-38216723D01*
X244809523Y-38216723D02*
X244761904Y-38311961D01*
X244761904Y-38311961D02*
X244666666Y-38407200D01*
X244666666Y-38407200D02*
X244523809Y-38454819D01*
X244523809Y-38454819D02*
X244285714Y-38454819D01*
X245809523Y-38454819D02*
X245238095Y-38454819D01*
X245523809Y-38454819D02*
X245523809Y-37454819D01*
X245523809Y-37454819D02*
X245428571Y-37597676D01*
X245428571Y-37597676D02*
X245333333Y-37692914D01*
X245333333Y-37692914D02*
X245238095Y-37740533D01*
X246428571Y-37454819D02*
X246523809Y-37454819D01*
X246523809Y-37454819D02*
X246619047Y-37502438D01*
X246619047Y-37502438D02*
X246666666Y-37550057D01*
X246666666Y-37550057D02*
X246714285Y-37645295D01*
X246714285Y-37645295D02*
X246761904Y-37835771D01*
X246761904Y-37835771D02*
X246761904Y-38073866D01*
X246761904Y-38073866D02*
X246714285Y-38264342D01*
X246714285Y-38264342D02*
X246666666Y-38359580D01*
X246666666Y-38359580D02*
X246619047Y-38407200D01*
X246619047Y-38407200D02*
X246523809Y-38454819D01*
X246523809Y-38454819D02*
X246428571Y-38454819D01*
X246428571Y-38454819D02*
X246333333Y-38407200D01*
X246333333Y-38407200D02*
X246285714Y-38359580D01*
X246285714Y-38359580D02*
X246238095Y-38264342D01*
X246238095Y-38264342D02*
X246190476Y-38073866D01*
X246190476Y-38073866D02*
X246190476Y-37835771D01*
X246190476Y-37835771D02*
X246238095Y-37645295D01*
X246238095Y-37645295D02*
X246285714Y-37550057D01*
X246285714Y-37550057D02*
X246333333Y-37502438D01*
X246333333Y-37502438D02*
X246428571Y-37454819D01*
D11*
X280698666Y-86269419D02*
X280698666Y-86983704D01*
X280698666Y-86983704D02*
X280651047Y-87126561D01*
X280651047Y-87126561D02*
X280555809Y-87221800D01*
X280555809Y-87221800D02*
X280412952Y-87269419D01*
X280412952Y-87269419D02*
X280317714Y-87269419D01*
X281127238Y-86364657D02*
X281174857Y-86317038D01*
X281174857Y-86317038D02*
X281270095Y-86269419D01*
X281270095Y-86269419D02*
X281508190Y-86269419D01*
X281508190Y-86269419D02*
X281603428Y-86317038D01*
X281603428Y-86317038D02*
X281651047Y-86364657D01*
X281651047Y-86364657D02*
X281698666Y-86459895D01*
X281698666Y-86459895D02*
X281698666Y-86555133D01*
X281698666Y-86555133D02*
X281651047Y-86697990D01*
X281651047Y-86697990D02*
X281079619Y-87269419D01*
X281079619Y-87269419D02*
X281698666Y-87269419D01*
X274666666Y-29457419D02*
X274666666Y-30171704D01*
X274666666Y-30171704D02*
X274619047Y-30314561D01*
X274619047Y-30314561D02*
X274523809Y-30409800D01*
X274523809Y-30409800D02*
X274380952Y-30457419D01*
X274380952Y-30457419D02*
X274285714Y-30457419D01*
X275666666Y-30457419D02*
X275095238Y-30457419D01*
X275380952Y-30457419D02*
X275380952Y-29457419D01*
X275380952Y-29457419D02*
X275285714Y-29600276D01*
X275285714Y-29600276D02*
X275190476Y-29695514D01*
X275190476Y-29695514D02*
X275095238Y-29743133D01*
D10*
X242204819Y-39595238D02*
X241728628Y-39928571D01*
X242204819Y-40166666D02*
X241204819Y-40166666D01*
X241204819Y-40166666D02*
X241204819Y-39785714D01*
X241204819Y-39785714D02*
X241252438Y-39690476D01*
X241252438Y-39690476D02*
X241300057Y-39642857D01*
X241300057Y-39642857D02*
X241395295Y-39595238D01*
X241395295Y-39595238D02*
X241538152Y-39595238D01*
X241538152Y-39595238D02*
X241633390Y-39642857D01*
X241633390Y-39642857D02*
X241681009Y-39690476D01*
X241681009Y-39690476D02*
X241728628Y-39785714D01*
X241728628Y-39785714D02*
X241728628Y-40166666D01*
X241204819Y-39309523D02*
X242204819Y-38976190D01*
X242204819Y-38976190D02*
X241204819Y-38642857D01*
X241204819Y-37833333D02*
X241204819Y-38309523D01*
X241204819Y-38309523D02*
X241681009Y-38357142D01*
X241681009Y-38357142D02*
X241633390Y-38309523D01*
X241633390Y-38309523D02*
X241585771Y-38214285D01*
X241585771Y-38214285D02*
X241585771Y-37976190D01*
X241585771Y-37976190D02*
X241633390Y-37880952D01*
X241633390Y-37880952D02*
X241681009Y-37833333D01*
X241681009Y-37833333D02*
X241776247Y-37785714D01*
X241776247Y-37785714D02*
X242014342Y-37785714D01*
X242014342Y-37785714D02*
X242109580Y-37833333D01*
X242109580Y-37833333D02*
X242157200Y-37880952D01*
X242157200Y-37880952D02*
X242204819Y-37976190D01*
X242204819Y-37976190D02*
X242204819Y-38214285D01*
X242204819Y-38214285D02*
X242157200Y-38309523D01*
X242157200Y-38309523D02*
X242109580Y-38357142D01*
D11*
X19190476Y-29457419D02*
X19190476Y-30171704D01*
X19190476Y-30171704D02*
X19142857Y-30314561D01*
X19142857Y-30314561D02*
X19047619Y-30409800D01*
X19047619Y-30409800D02*
X18904762Y-30457419D01*
X18904762Y-30457419D02*
X18809524Y-30457419D01*
X19619048Y-29552657D02*
X19666667Y-29505038D01*
X19666667Y-29505038D02*
X19761905Y-29457419D01*
X19761905Y-29457419D02*
X20000000Y-29457419D01*
X20000000Y-29457419D02*
X20095238Y-29505038D01*
X20095238Y-29505038D02*
X20142857Y-29552657D01*
X20142857Y-29552657D02*
X20190476Y-29647895D01*
X20190476Y-29647895D02*
X20190476Y-29743133D01*
X20190476Y-29743133D02*
X20142857Y-29885990D01*
X20142857Y-29885990D02*
X19571429Y-30457419D01*
X19571429Y-30457419D02*
X20190476Y-30457419D01*
X21047619Y-29790752D02*
X21047619Y-30457419D01*
X20809524Y-29409800D02*
X20571429Y-30124085D01*
X20571429Y-30124085D02*
X21190476Y-30124085D01*
D10*
X99104819Y-42350238D02*
X98628628Y-42683571D01*
X99104819Y-42921666D02*
X98104819Y-42921666D01*
X98104819Y-42921666D02*
X98104819Y-42540714D01*
X98104819Y-42540714D02*
X98152438Y-42445476D01*
X98152438Y-42445476D02*
X98200057Y-42397857D01*
X98200057Y-42397857D02*
X98295295Y-42350238D01*
X98295295Y-42350238D02*
X98438152Y-42350238D01*
X98438152Y-42350238D02*
X98533390Y-42397857D01*
X98533390Y-42397857D02*
X98581009Y-42445476D01*
X98581009Y-42445476D02*
X98628628Y-42540714D01*
X98628628Y-42540714D02*
X98628628Y-42921666D01*
X98104819Y-42064523D02*
X99104819Y-41731190D01*
X99104819Y-41731190D02*
X98104819Y-41397857D01*
X98200057Y-41112142D02*
X98152438Y-41064523D01*
X98152438Y-41064523D02*
X98104819Y-40969285D01*
X98104819Y-40969285D02*
X98104819Y-40731190D01*
X98104819Y-40731190D02*
X98152438Y-40635952D01*
X98152438Y-40635952D02*
X98200057Y-40588333D01*
X98200057Y-40588333D02*
X98295295Y-40540714D01*
X98295295Y-40540714D02*
X98390533Y-40540714D01*
X98390533Y-40540714D02*
X98533390Y-40588333D01*
X98533390Y-40588333D02*
X99104819Y-41159761D01*
X99104819Y-41159761D02*
X99104819Y-40540714D01*
X124261905Y-42454819D02*
X124261905Y-41454819D01*
X124261905Y-41454819D02*
X124500000Y-41454819D01*
X124500000Y-41454819D02*
X124642857Y-41502438D01*
X124642857Y-41502438D02*
X124738095Y-41597676D01*
X124738095Y-41597676D02*
X124785714Y-41692914D01*
X124785714Y-41692914D02*
X124833333Y-41883390D01*
X124833333Y-41883390D02*
X124833333Y-42026247D01*
X124833333Y-42026247D02*
X124785714Y-42216723D01*
X124785714Y-42216723D02*
X124738095Y-42311961D01*
X124738095Y-42311961D02*
X124642857Y-42407200D01*
X124642857Y-42407200D02*
X124500000Y-42454819D01*
X124500000Y-42454819D02*
X124261905Y-42454819D01*
X125690476Y-41454819D02*
X125500000Y-41454819D01*
X125500000Y-41454819D02*
X125404762Y-41502438D01*
X125404762Y-41502438D02*
X125357143Y-41550057D01*
X125357143Y-41550057D02*
X125261905Y-41692914D01*
X125261905Y-41692914D02*
X125214286Y-41883390D01*
X125214286Y-41883390D02*
X125214286Y-42264342D01*
X125214286Y-42264342D02*
X125261905Y-42359580D01*
X125261905Y-42359580D02*
X125309524Y-42407200D01*
X125309524Y-42407200D02*
X125404762Y-42454819D01*
X125404762Y-42454819D02*
X125595238Y-42454819D01*
X125595238Y-42454819D02*
X125690476Y-42407200D01*
X125690476Y-42407200D02*
X125738095Y-42359580D01*
X125738095Y-42359580D02*
X125785714Y-42264342D01*
X125785714Y-42264342D02*
X125785714Y-42026247D01*
X125785714Y-42026247D02*
X125738095Y-41931009D01*
X125738095Y-41931009D02*
X125690476Y-41883390D01*
X125690476Y-41883390D02*
X125595238Y-41835771D01*
X125595238Y-41835771D02*
X125404762Y-41835771D01*
X125404762Y-41835771D02*
X125309524Y-41883390D01*
X125309524Y-41883390D02*
X125261905Y-41931009D01*
X125261905Y-41931009D02*
X125214286Y-42026247D01*
X23461905Y-41954819D02*
X23461905Y-40954819D01*
X23461905Y-40954819D02*
X23700000Y-40954819D01*
X23700000Y-40954819D02*
X23842857Y-41002438D01*
X23842857Y-41002438D02*
X23938095Y-41097676D01*
X23938095Y-41097676D02*
X23985714Y-41192914D01*
X23985714Y-41192914D02*
X24033333Y-41383390D01*
X24033333Y-41383390D02*
X24033333Y-41526247D01*
X24033333Y-41526247D02*
X23985714Y-41716723D01*
X23985714Y-41716723D02*
X23938095Y-41811961D01*
X23938095Y-41811961D02*
X23842857Y-41907200D01*
X23842857Y-41907200D02*
X23700000Y-41954819D01*
X23700000Y-41954819D02*
X23461905Y-41954819D01*
X24985714Y-41954819D02*
X24414286Y-41954819D01*
X24700000Y-41954819D02*
X24700000Y-40954819D01*
X24700000Y-40954819D02*
X24604762Y-41097676D01*
X24604762Y-41097676D02*
X24509524Y-41192914D01*
X24509524Y-41192914D02*
X24414286Y-41240533D01*
X34639580Y-65679166D02*
X34687200Y-65726785D01*
X34687200Y-65726785D02*
X34734819Y-65869642D01*
X34734819Y-65869642D02*
X34734819Y-65964880D01*
X34734819Y-65964880D02*
X34687200Y-66107737D01*
X34687200Y-66107737D02*
X34591961Y-66202975D01*
X34591961Y-66202975D02*
X34496723Y-66250594D01*
X34496723Y-66250594D02*
X34306247Y-66298213D01*
X34306247Y-66298213D02*
X34163390Y-66298213D01*
X34163390Y-66298213D02*
X33972914Y-66250594D01*
X33972914Y-66250594D02*
X33877676Y-66202975D01*
X33877676Y-66202975D02*
X33782438Y-66107737D01*
X33782438Y-66107737D02*
X33734819Y-65964880D01*
X33734819Y-65964880D02*
X33734819Y-65869642D01*
X33734819Y-65869642D02*
X33782438Y-65726785D01*
X33782438Y-65726785D02*
X33830057Y-65679166D01*
X33734819Y-65345832D02*
X33734819Y-64726785D01*
X33734819Y-64726785D02*
X34115771Y-65060118D01*
X34115771Y-65060118D02*
X34115771Y-64917261D01*
X34115771Y-64917261D02*
X34163390Y-64822023D01*
X34163390Y-64822023D02*
X34211009Y-64774404D01*
X34211009Y-64774404D02*
X34306247Y-64726785D01*
X34306247Y-64726785D02*
X34544342Y-64726785D01*
X34544342Y-64726785D02*
X34639580Y-64774404D01*
X34639580Y-64774404D02*
X34687200Y-64822023D01*
X34687200Y-64822023D02*
X34734819Y-64917261D01*
X34734819Y-64917261D02*
X34734819Y-65202975D01*
X34734819Y-65202975D02*
X34687200Y-65298213D01*
X34687200Y-65298213D02*
X34639580Y-65345832D01*
X148104819Y-42157738D02*
X147628628Y-42491071D01*
X148104819Y-42729166D02*
X147104819Y-42729166D01*
X147104819Y-42729166D02*
X147104819Y-42348214D01*
X147104819Y-42348214D02*
X147152438Y-42252976D01*
X147152438Y-42252976D02*
X147200057Y-42205357D01*
X147200057Y-42205357D02*
X147295295Y-42157738D01*
X147295295Y-42157738D02*
X147438152Y-42157738D01*
X147438152Y-42157738D02*
X147533390Y-42205357D01*
X147533390Y-42205357D02*
X147581009Y-42252976D01*
X147581009Y-42252976D02*
X147628628Y-42348214D01*
X147628628Y-42348214D02*
X147628628Y-42729166D01*
X147104819Y-41872023D02*
X148104819Y-41538690D01*
X148104819Y-41538690D02*
X147104819Y-41205357D01*
X147104819Y-40967261D02*
X147104819Y-40348214D01*
X147104819Y-40348214D02*
X147485771Y-40681547D01*
X147485771Y-40681547D02*
X147485771Y-40538690D01*
X147485771Y-40538690D02*
X147533390Y-40443452D01*
X147533390Y-40443452D02*
X147581009Y-40395833D01*
X147581009Y-40395833D02*
X147676247Y-40348214D01*
X147676247Y-40348214D02*
X147914342Y-40348214D01*
X147914342Y-40348214D02*
X148009580Y-40395833D01*
X148009580Y-40395833D02*
X148057200Y-40443452D01*
X148057200Y-40443452D02*
X148104819Y-40538690D01*
X148104819Y-40538690D02*
X148104819Y-40824404D01*
X148104819Y-40824404D02*
X148057200Y-40919642D01*
X148057200Y-40919642D02*
X148009580Y-40967261D01*
X247859580Y-92666666D02*
X247907200Y-92714285D01*
X247907200Y-92714285D02*
X247954819Y-92857142D01*
X247954819Y-92857142D02*
X247954819Y-92952380D01*
X247954819Y-92952380D02*
X247907200Y-93095237D01*
X247907200Y-93095237D02*
X247811961Y-93190475D01*
X247811961Y-93190475D02*
X247716723Y-93238094D01*
X247716723Y-93238094D02*
X247526247Y-93285713D01*
X247526247Y-93285713D02*
X247383390Y-93285713D01*
X247383390Y-93285713D02*
X247192914Y-93238094D01*
X247192914Y-93238094D02*
X247097676Y-93190475D01*
X247097676Y-93190475D02*
X247002438Y-93095237D01*
X247002438Y-93095237D02*
X246954819Y-92952380D01*
X246954819Y-92952380D02*
X246954819Y-92857142D01*
X246954819Y-92857142D02*
X247002438Y-92714285D01*
X247002438Y-92714285D02*
X247050057Y-92666666D01*
X247050057Y-92285713D02*
X247002438Y-92238094D01*
X247002438Y-92238094D02*
X246954819Y-92142856D01*
X246954819Y-92142856D02*
X246954819Y-91904761D01*
X246954819Y-91904761D02*
X247002438Y-91809523D01*
X247002438Y-91809523D02*
X247050057Y-91761904D01*
X247050057Y-91761904D02*
X247145295Y-91714285D01*
X247145295Y-91714285D02*
X247240533Y-91714285D01*
X247240533Y-91714285D02*
X247383390Y-91761904D01*
X247383390Y-91761904D02*
X247954819Y-92333332D01*
X247954819Y-92333332D02*
X247954819Y-91714285D01*
D11*
X78190476Y-30457419D02*
X78190476Y-31171704D01*
X78190476Y-31171704D02*
X78142857Y-31314561D01*
X78142857Y-31314561D02*
X78047619Y-31409800D01*
X78047619Y-31409800D02*
X77904762Y-31457419D01*
X77904762Y-31457419D02*
X77809524Y-31457419D01*
X79190476Y-31457419D02*
X78619048Y-31457419D01*
X78904762Y-31457419D02*
X78904762Y-30457419D01*
X78904762Y-30457419D02*
X78809524Y-30600276D01*
X78809524Y-30600276D02*
X78714286Y-30695514D01*
X78714286Y-30695514D02*
X78619048Y-30743133D01*
X79761905Y-30885990D02*
X79666667Y-30838371D01*
X79666667Y-30838371D02*
X79619048Y-30790752D01*
X79619048Y-30790752D02*
X79571429Y-30695514D01*
X79571429Y-30695514D02*
X79571429Y-30647895D01*
X79571429Y-30647895D02*
X79619048Y-30552657D01*
X79619048Y-30552657D02*
X79666667Y-30505038D01*
X79666667Y-30505038D02*
X79761905Y-30457419D01*
X79761905Y-30457419D02*
X79952381Y-30457419D01*
X79952381Y-30457419D02*
X80047619Y-30505038D01*
X80047619Y-30505038D02*
X80095238Y-30552657D01*
X80095238Y-30552657D02*
X80142857Y-30647895D01*
X80142857Y-30647895D02*
X80142857Y-30695514D01*
X80142857Y-30695514D02*
X80095238Y-30790752D01*
X80095238Y-30790752D02*
X80047619Y-30838371D01*
X80047619Y-30838371D02*
X79952381Y-30885990D01*
X79952381Y-30885990D02*
X79761905Y-30885990D01*
X79761905Y-30885990D02*
X79666667Y-30933609D01*
X79666667Y-30933609D02*
X79619048Y-30981228D01*
X79619048Y-30981228D02*
X79571429Y-31076466D01*
X79571429Y-31076466D02*
X79571429Y-31266942D01*
X79571429Y-31266942D02*
X79619048Y-31362180D01*
X79619048Y-31362180D02*
X79666667Y-31409800D01*
X79666667Y-31409800D02*
X79761905Y-31457419D01*
X79761905Y-31457419D02*
X79952381Y-31457419D01*
X79952381Y-31457419D02*
X80047619Y-31409800D01*
X80047619Y-31409800D02*
X80095238Y-31362180D01*
X80095238Y-31362180D02*
X80142857Y-31266942D01*
X80142857Y-31266942D02*
X80142857Y-31076466D01*
X80142857Y-31076466D02*
X80095238Y-30981228D01*
X80095238Y-30981228D02*
X80047619Y-30933609D01*
X80047619Y-30933609D02*
X79952381Y-30885990D01*
X180242476Y-86269419D02*
X180242476Y-86983704D01*
X180242476Y-86983704D02*
X180194857Y-87126561D01*
X180194857Y-87126561D02*
X180099619Y-87221800D01*
X180099619Y-87221800D02*
X179956762Y-87269419D01*
X179956762Y-87269419D02*
X179861524Y-87269419D01*
X181242476Y-87269419D02*
X180671048Y-87269419D01*
X180956762Y-87269419D02*
X180956762Y-86269419D01*
X180956762Y-86269419D02*
X180861524Y-86412276D01*
X180861524Y-86412276D02*
X180766286Y-86507514D01*
X180766286Y-86507514D02*
X180671048Y-86555133D01*
X182194857Y-87269419D02*
X181623429Y-87269419D01*
X181909143Y-87269419D02*
X181909143Y-86269419D01*
X181909143Y-86269419D02*
X181813905Y-86412276D01*
X181813905Y-86412276D02*
X181718667Y-86507514D01*
X181718667Y-86507514D02*
X181623429Y-86555133D01*
X156242476Y-86269419D02*
X156242476Y-86983704D01*
X156242476Y-86983704D02*
X156194857Y-87126561D01*
X156194857Y-87126561D02*
X156099619Y-87221800D01*
X156099619Y-87221800D02*
X155956762Y-87269419D01*
X155956762Y-87269419D02*
X155861524Y-87269419D01*
X157242476Y-87269419D02*
X156671048Y-87269419D01*
X156956762Y-87269419D02*
X156956762Y-86269419D01*
X156956762Y-86269419D02*
X156861524Y-86412276D01*
X156861524Y-86412276D02*
X156766286Y-86507514D01*
X156766286Y-86507514D02*
X156671048Y-86555133D01*
X157575810Y-86269419D02*
X158194857Y-86269419D01*
X158194857Y-86269419D02*
X157861524Y-86650371D01*
X157861524Y-86650371D02*
X158004381Y-86650371D01*
X158004381Y-86650371D02*
X158099619Y-86697990D01*
X158099619Y-86697990D02*
X158147238Y-86745609D01*
X158147238Y-86745609D02*
X158194857Y-86840847D01*
X158194857Y-86840847D02*
X158194857Y-87078942D01*
X158194857Y-87078942D02*
X158147238Y-87174180D01*
X158147238Y-87174180D02*
X158099619Y-87221800D01*
X158099619Y-87221800D02*
X158004381Y-87269419D01*
X158004381Y-87269419D02*
X157718667Y-87269419D01*
X157718667Y-87269419D02*
X157623429Y-87221800D01*
X157623429Y-87221800D02*
X157575810Y-87174180D01*
X132242476Y-86269419D02*
X132242476Y-86983704D01*
X132242476Y-86983704D02*
X132194857Y-87126561D01*
X132194857Y-87126561D02*
X132099619Y-87221800D01*
X132099619Y-87221800D02*
X131956762Y-87269419D01*
X131956762Y-87269419D02*
X131861524Y-87269419D01*
X133242476Y-87269419D02*
X132671048Y-87269419D01*
X132956762Y-87269419D02*
X132956762Y-86269419D01*
X132956762Y-86269419D02*
X132861524Y-86412276D01*
X132861524Y-86412276D02*
X132766286Y-86507514D01*
X132766286Y-86507514D02*
X132671048Y-86555133D01*
X134147238Y-86269419D02*
X133671048Y-86269419D01*
X133671048Y-86269419D02*
X133623429Y-86745609D01*
X133623429Y-86745609D02*
X133671048Y-86697990D01*
X133671048Y-86697990D02*
X133766286Y-86650371D01*
X133766286Y-86650371D02*
X134004381Y-86650371D01*
X134004381Y-86650371D02*
X134099619Y-86697990D01*
X134099619Y-86697990D02*
X134147238Y-86745609D01*
X134147238Y-86745609D02*
X134194857Y-86840847D01*
X134194857Y-86840847D02*
X134194857Y-87078942D01*
X134194857Y-87078942D02*
X134147238Y-87174180D01*
X134147238Y-87174180D02*
X134099619Y-87221800D01*
X134099619Y-87221800D02*
X134004381Y-87269419D01*
X134004381Y-87269419D02*
X133766286Y-87269419D01*
X133766286Y-87269419D02*
X133671048Y-87221800D01*
X133671048Y-87221800D02*
X133623429Y-87174180D01*
X108242476Y-86269419D02*
X108242476Y-86983704D01*
X108242476Y-86983704D02*
X108194857Y-87126561D01*
X108194857Y-87126561D02*
X108099619Y-87221800D01*
X108099619Y-87221800D02*
X107956762Y-87269419D01*
X107956762Y-87269419D02*
X107861524Y-87269419D01*
X109242476Y-87269419D02*
X108671048Y-87269419D01*
X108956762Y-87269419D02*
X108956762Y-86269419D01*
X108956762Y-86269419D02*
X108861524Y-86412276D01*
X108861524Y-86412276D02*
X108766286Y-86507514D01*
X108766286Y-86507514D02*
X108671048Y-86555133D01*
X109575810Y-86269419D02*
X110242476Y-86269419D01*
X110242476Y-86269419D02*
X109813905Y-87269419D01*
D10*
X268333333Y-43974819D02*
X267857143Y-43974819D01*
X267857143Y-43974819D02*
X267857143Y-42974819D01*
X268619048Y-43070057D02*
X268666667Y-43022438D01*
X268666667Y-43022438D02*
X268761905Y-42974819D01*
X268761905Y-42974819D02*
X269000000Y-42974819D01*
X269000000Y-42974819D02*
X269095238Y-43022438D01*
X269095238Y-43022438D02*
X269142857Y-43070057D01*
X269142857Y-43070057D02*
X269190476Y-43165295D01*
X269190476Y-43165295D02*
X269190476Y-43260533D01*
X269190476Y-43260533D02*
X269142857Y-43403390D01*
X269142857Y-43403390D02*
X268571429Y-43974819D01*
X268571429Y-43974819D02*
X269190476Y-43974819D01*
D11*
X263190476Y-92457419D02*
X263190476Y-93171704D01*
X263190476Y-93171704D02*
X263142857Y-93314561D01*
X263142857Y-93314561D02*
X263047619Y-93409800D01*
X263047619Y-93409800D02*
X262904762Y-93457419D01*
X262904762Y-93457419D02*
X262809524Y-93457419D01*
X263619048Y-92552657D02*
X263666667Y-92505038D01*
X263666667Y-92505038D02*
X263761905Y-92457419D01*
X263761905Y-92457419D02*
X264000000Y-92457419D01*
X264000000Y-92457419D02*
X264095238Y-92505038D01*
X264095238Y-92505038D02*
X264142857Y-92552657D01*
X264142857Y-92552657D02*
X264190476Y-92647895D01*
X264190476Y-92647895D02*
X264190476Y-92743133D01*
X264190476Y-92743133D02*
X264142857Y-92885990D01*
X264142857Y-92885990D02*
X263571429Y-93457419D01*
X263571429Y-93457419D02*
X264190476Y-93457419D01*
X265047619Y-92457419D02*
X264857143Y-92457419D01*
X264857143Y-92457419D02*
X264761905Y-92505038D01*
X264761905Y-92505038D02*
X264714286Y-92552657D01*
X264714286Y-92552657D02*
X264619048Y-92695514D01*
X264619048Y-92695514D02*
X264571429Y-92885990D01*
X264571429Y-92885990D02*
X264571429Y-93266942D01*
X264571429Y-93266942D02*
X264619048Y-93362180D01*
X264619048Y-93362180D02*
X264666667Y-93409800D01*
X264666667Y-93409800D02*
X264761905Y-93457419D01*
X264761905Y-93457419D02*
X264952381Y-93457419D01*
X264952381Y-93457419D02*
X265047619Y-93409800D01*
X265047619Y-93409800D02*
X265095238Y-93362180D01*
X265095238Y-93362180D02*
X265142857Y-93266942D01*
X265142857Y-93266942D02*
X265142857Y-93028847D01*
X265142857Y-93028847D02*
X265095238Y-92933609D01*
X265095238Y-92933609D02*
X265047619Y-92885990D01*
X265047619Y-92885990D02*
X264952381Y-92838371D01*
X264952381Y-92838371D02*
X264761905Y-92838371D01*
X264761905Y-92838371D02*
X264666667Y-92885990D01*
X264666667Y-92885990D02*
X264619048Y-92933609D01*
X264619048Y-92933609D02*
X264571429Y-93028847D01*
X126190476Y-29457419D02*
X126190476Y-30171704D01*
X126190476Y-30171704D02*
X126142857Y-30314561D01*
X126142857Y-30314561D02*
X126047619Y-30409800D01*
X126047619Y-30409800D02*
X125904762Y-30457419D01*
X125904762Y-30457419D02*
X125809524Y-30457419D01*
X127190476Y-30457419D02*
X126619048Y-30457419D01*
X126904762Y-30457419D02*
X126904762Y-29457419D01*
X126904762Y-29457419D02*
X126809524Y-29600276D01*
X126809524Y-29600276D02*
X126714286Y-29695514D01*
X126714286Y-29695514D02*
X126619048Y-29743133D01*
X128047619Y-29790752D02*
X128047619Y-30457419D01*
X127809524Y-29409800D02*
X127571429Y-30124085D01*
X127571429Y-30124085D02*
X128190476Y-30124085D01*
X173190476Y-29457419D02*
X173190476Y-30171704D01*
X173190476Y-30171704D02*
X173142857Y-30314561D01*
X173142857Y-30314561D02*
X173047619Y-30409800D01*
X173047619Y-30409800D02*
X172904762Y-30457419D01*
X172904762Y-30457419D02*
X172809524Y-30457419D01*
X174190476Y-30457419D02*
X173619048Y-30457419D01*
X173904762Y-30457419D02*
X173904762Y-29457419D01*
X173904762Y-29457419D02*
X173809524Y-29600276D01*
X173809524Y-29600276D02*
X173714286Y-29695514D01*
X173714286Y-29695514D02*
X173619048Y-29743133D01*
X174809524Y-29457419D02*
X174904762Y-29457419D01*
X174904762Y-29457419D02*
X175000000Y-29505038D01*
X175000000Y-29505038D02*
X175047619Y-29552657D01*
X175047619Y-29552657D02*
X175095238Y-29647895D01*
X175095238Y-29647895D02*
X175142857Y-29838371D01*
X175142857Y-29838371D02*
X175142857Y-30076466D01*
X175142857Y-30076466D02*
X175095238Y-30266942D01*
X175095238Y-30266942D02*
X175047619Y-30362180D01*
X175047619Y-30362180D02*
X175000000Y-30409800D01*
X175000000Y-30409800D02*
X174904762Y-30457419D01*
X174904762Y-30457419D02*
X174809524Y-30457419D01*
X174809524Y-30457419D02*
X174714286Y-30409800D01*
X174714286Y-30409800D02*
X174666667Y-30362180D01*
X174666667Y-30362180D02*
X174619048Y-30266942D01*
X174619048Y-30266942D02*
X174571429Y-30076466D01*
X174571429Y-30076466D02*
X174571429Y-29838371D01*
X174571429Y-29838371D02*
X174619048Y-29647895D01*
X174619048Y-29647895D02*
X174666667Y-29552657D01*
X174666667Y-29552657D02*
X174714286Y-29505038D01*
X174714286Y-29505038D02*
X174809524Y-29457419D01*
D10*
X192185714Y-99754819D02*
X192185714Y-98754819D01*
X192185714Y-98754819D02*
X192423809Y-98754819D01*
X192423809Y-98754819D02*
X192566666Y-98802438D01*
X192566666Y-98802438D02*
X192661904Y-98897676D01*
X192661904Y-98897676D02*
X192709523Y-98992914D01*
X192709523Y-98992914D02*
X192757142Y-99183390D01*
X192757142Y-99183390D02*
X192757142Y-99326247D01*
X192757142Y-99326247D02*
X192709523Y-99516723D01*
X192709523Y-99516723D02*
X192661904Y-99611961D01*
X192661904Y-99611961D02*
X192566666Y-99707200D01*
X192566666Y-99707200D02*
X192423809Y-99754819D01*
X192423809Y-99754819D02*
X192185714Y-99754819D01*
X193709523Y-99754819D02*
X193138095Y-99754819D01*
X193423809Y-99754819D02*
X193423809Y-98754819D01*
X193423809Y-98754819D02*
X193328571Y-98897676D01*
X193328571Y-98897676D02*
X193233333Y-98992914D01*
X193233333Y-98992914D02*
X193138095Y-99040533D01*
X194090476Y-98850057D02*
X194138095Y-98802438D01*
X194138095Y-98802438D02*
X194233333Y-98754819D01*
X194233333Y-98754819D02*
X194471428Y-98754819D01*
X194471428Y-98754819D02*
X194566666Y-98802438D01*
X194566666Y-98802438D02*
X194614285Y-98850057D01*
X194614285Y-98850057D02*
X194661904Y-98945295D01*
X194661904Y-98945295D02*
X194661904Y-99040533D01*
X194661904Y-99040533D02*
X194614285Y-99183390D01*
X194614285Y-99183390D02*
X194042857Y-99754819D01*
X194042857Y-99754819D02*
X194661904Y-99754819D01*
D11*
X150190476Y-29457419D02*
X150190476Y-30171704D01*
X150190476Y-30171704D02*
X150142857Y-30314561D01*
X150142857Y-30314561D02*
X150047619Y-30409800D01*
X150047619Y-30409800D02*
X149904762Y-30457419D01*
X149904762Y-30457419D02*
X149809524Y-30457419D01*
X151190476Y-30457419D02*
X150619048Y-30457419D01*
X150904762Y-30457419D02*
X150904762Y-29457419D01*
X150904762Y-29457419D02*
X150809524Y-29600276D01*
X150809524Y-29600276D02*
X150714286Y-29695514D01*
X150714286Y-29695514D02*
X150619048Y-29743133D01*
X151571429Y-29552657D02*
X151619048Y-29505038D01*
X151619048Y-29505038D02*
X151714286Y-29457419D01*
X151714286Y-29457419D02*
X151952381Y-29457419D01*
X151952381Y-29457419D02*
X152047619Y-29505038D01*
X152047619Y-29505038D02*
X152095238Y-29552657D01*
X152095238Y-29552657D02*
X152142857Y-29647895D01*
X152142857Y-29647895D02*
X152142857Y-29743133D01*
X152142857Y-29743133D02*
X152095238Y-29885990D01*
X152095238Y-29885990D02*
X151523810Y-30457419D01*
X151523810Y-30457419D02*
X152142857Y-30457419D01*
D10*
X195604819Y-42095238D02*
X195128628Y-42428571D01*
X195604819Y-42666666D02*
X194604819Y-42666666D01*
X194604819Y-42666666D02*
X194604819Y-42285714D01*
X194604819Y-42285714D02*
X194652438Y-42190476D01*
X194652438Y-42190476D02*
X194700057Y-42142857D01*
X194700057Y-42142857D02*
X194795295Y-42095238D01*
X194795295Y-42095238D02*
X194938152Y-42095238D01*
X194938152Y-42095238D02*
X195033390Y-42142857D01*
X195033390Y-42142857D02*
X195081009Y-42190476D01*
X195081009Y-42190476D02*
X195128628Y-42285714D01*
X195128628Y-42285714D02*
X195128628Y-42666666D01*
X194604819Y-41809523D02*
X195604819Y-41476190D01*
X195604819Y-41476190D02*
X194604819Y-41142857D01*
X194938152Y-40380952D02*
X195604819Y-40380952D01*
X194557200Y-40619047D02*
X195271485Y-40857142D01*
X195271485Y-40857142D02*
X195271485Y-40238095D01*
D11*
X36242476Y-86269419D02*
X36242476Y-86983704D01*
X36242476Y-86983704D02*
X36194857Y-87126561D01*
X36194857Y-87126561D02*
X36099619Y-87221800D01*
X36099619Y-87221800D02*
X35956762Y-87269419D01*
X35956762Y-87269419D02*
X35861524Y-87269419D01*
X36671048Y-86364657D02*
X36718667Y-86317038D01*
X36718667Y-86317038D02*
X36813905Y-86269419D01*
X36813905Y-86269419D02*
X37052000Y-86269419D01*
X37052000Y-86269419D02*
X37147238Y-86317038D01*
X37147238Y-86317038D02*
X37194857Y-86364657D01*
X37194857Y-86364657D02*
X37242476Y-86459895D01*
X37242476Y-86459895D02*
X37242476Y-86555133D01*
X37242476Y-86555133D02*
X37194857Y-86697990D01*
X37194857Y-86697990D02*
X36623429Y-87269419D01*
X36623429Y-87269419D02*
X37242476Y-87269419D01*
X37575810Y-86269419D02*
X38194857Y-86269419D01*
X38194857Y-86269419D02*
X37861524Y-86650371D01*
X37861524Y-86650371D02*
X38004381Y-86650371D01*
X38004381Y-86650371D02*
X38099619Y-86697990D01*
X38099619Y-86697990D02*
X38147238Y-86745609D01*
X38147238Y-86745609D02*
X38194857Y-86840847D01*
X38194857Y-86840847D02*
X38194857Y-87078942D01*
X38194857Y-87078942D02*
X38147238Y-87174180D01*
X38147238Y-87174180D02*
X38099619Y-87221800D01*
X38099619Y-87221800D02*
X38004381Y-87269419D01*
X38004381Y-87269419D02*
X37718667Y-87269419D01*
X37718667Y-87269419D02*
X37623429Y-87221800D01*
X37623429Y-87221800D02*
X37575810Y-87174180D01*
X252698666Y-86269419D02*
X252698666Y-86983704D01*
X252698666Y-86983704D02*
X252651047Y-87126561D01*
X252651047Y-87126561D02*
X252555809Y-87221800D01*
X252555809Y-87221800D02*
X252412952Y-87269419D01*
X252412952Y-87269419D02*
X252317714Y-87269419D01*
X253651047Y-86269419D02*
X253174857Y-86269419D01*
X253174857Y-86269419D02*
X253127238Y-86745609D01*
X253127238Y-86745609D02*
X253174857Y-86697990D01*
X253174857Y-86697990D02*
X253270095Y-86650371D01*
X253270095Y-86650371D02*
X253508190Y-86650371D01*
X253508190Y-86650371D02*
X253603428Y-86697990D01*
X253603428Y-86697990D02*
X253651047Y-86745609D01*
X253651047Y-86745609D02*
X253698666Y-86840847D01*
X253698666Y-86840847D02*
X253698666Y-87078942D01*
X253698666Y-87078942D02*
X253651047Y-87174180D01*
X253651047Y-87174180D02*
X253603428Y-87221800D01*
X253603428Y-87221800D02*
X253508190Y-87269419D01*
X253508190Y-87269419D02*
X253270095Y-87269419D01*
X253270095Y-87269419D02*
X253174857Y-87221800D01*
X253174857Y-87221800D02*
X253127238Y-87174180D01*
X60242476Y-86269419D02*
X60242476Y-86983704D01*
X60242476Y-86983704D02*
X60194857Y-87126561D01*
X60194857Y-87126561D02*
X60099619Y-87221800D01*
X60099619Y-87221800D02*
X59956762Y-87269419D01*
X59956762Y-87269419D02*
X59861524Y-87269419D01*
X60671048Y-86364657D02*
X60718667Y-86317038D01*
X60718667Y-86317038D02*
X60813905Y-86269419D01*
X60813905Y-86269419D02*
X61052000Y-86269419D01*
X61052000Y-86269419D02*
X61147238Y-86317038D01*
X61147238Y-86317038D02*
X61194857Y-86364657D01*
X61194857Y-86364657D02*
X61242476Y-86459895D01*
X61242476Y-86459895D02*
X61242476Y-86555133D01*
X61242476Y-86555133D02*
X61194857Y-86697990D01*
X61194857Y-86697990D02*
X60623429Y-87269419D01*
X60623429Y-87269419D02*
X61242476Y-87269419D01*
X62194857Y-87269419D02*
X61623429Y-87269419D01*
X61909143Y-87269419D02*
X61909143Y-86269419D01*
X61909143Y-86269419D02*
X61813905Y-86412276D01*
X61813905Y-86412276D02*
X61718667Y-86507514D01*
X61718667Y-86507514D02*
X61623429Y-86555133D01*
X198666666Y-29457419D02*
X198666666Y-30171704D01*
X198666666Y-30171704D02*
X198619047Y-30314561D01*
X198619047Y-30314561D02*
X198523809Y-30409800D01*
X198523809Y-30409800D02*
X198380952Y-30457419D01*
X198380952Y-30457419D02*
X198285714Y-30457419D01*
X199285714Y-29885990D02*
X199190476Y-29838371D01*
X199190476Y-29838371D02*
X199142857Y-29790752D01*
X199142857Y-29790752D02*
X199095238Y-29695514D01*
X199095238Y-29695514D02*
X199095238Y-29647895D01*
X199095238Y-29647895D02*
X199142857Y-29552657D01*
X199142857Y-29552657D02*
X199190476Y-29505038D01*
X199190476Y-29505038D02*
X199285714Y-29457419D01*
X199285714Y-29457419D02*
X199476190Y-29457419D01*
X199476190Y-29457419D02*
X199571428Y-29505038D01*
X199571428Y-29505038D02*
X199619047Y-29552657D01*
X199619047Y-29552657D02*
X199666666Y-29647895D01*
X199666666Y-29647895D02*
X199666666Y-29695514D01*
X199666666Y-29695514D02*
X199619047Y-29790752D01*
X199619047Y-29790752D02*
X199571428Y-29838371D01*
X199571428Y-29838371D02*
X199476190Y-29885990D01*
X199476190Y-29885990D02*
X199285714Y-29885990D01*
X199285714Y-29885990D02*
X199190476Y-29933609D01*
X199190476Y-29933609D02*
X199142857Y-29981228D01*
X199142857Y-29981228D02*
X199095238Y-30076466D01*
X199095238Y-30076466D02*
X199095238Y-30266942D01*
X199095238Y-30266942D02*
X199142857Y-30362180D01*
X199142857Y-30362180D02*
X199190476Y-30409800D01*
X199190476Y-30409800D02*
X199285714Y-30457419D01*
X199285714Y-30457419D02*
X199476190Y-30457419D01*
X199476190Y-30457419D02*
X199571428Y-30409800D01*
X199571428Y-30409800D02*
X199619047Y-30362180D01*
X199619047Y-30362180D02*
X199666666Y-30266942D01*
X199666666Y-30266942D02*
X199666666Y-30076466D01*
X199666666Y-30076466D02*
X199619047Y-29981228D01*
X199619047Y-29981228D02*
X199571428Y-29933609D01*
X199571428Y-29933609D02*
X199476190Y-29885990D01*
X12242476Y-86269419D02*
X12242476Y-86983704D01*
X12242476Y-86983704D02*
X12194857Y-87126561D01*
X12194857Y-87126561D02*
X12099619Y-87221800D01*
X12099619Y-87221800D02*
X11956762Y-87269419D01*
X11956762Y-87269419D02*
X11861524Y-87269419D01*
X12671048Y-86364657D02*
X12718667Y-86317038D01*
X12718667Y-86317038D02*
X12813905Y-86269419D01*
X12813905Y-86269419D02*
X13052000Y-86269419D01*
X13052000Y-86269419D02*
X13147238Y-86317038D01*
X13147238Y-86317038D02*
X13194857Y-86364657D01*
X13194857Y-86364657D02*
X13242476Y-86459895D01*
X13242476Y-86459895D02*
X13242476Y-86555133D01*
X13242476Y-86555133D02*
X13194857Y-86697990D01*
X13194857Y-86697990D02*
X12623429Y-87269419D01*
X12623429Y-87269419D02*
X13242476Y-87269419D01*
X14147238Y-86269419D02*
X13671048Y-86269419D01*
X13671048Y-86269419D02*
X13623429Y-86745609D01*
X13623429Y-86745609D02*
X13671048Y-86697990D01*
X13671048Y-86697990D02*
X13766286Y-86650371D01*
X13766286Y-86650371D02*
X14004381Y-86650371D01*
X14004381Y-86650371D02*
X14099619Y-86697990D01*
X14099619Y-86697990D02*
X14147238Y-86745609D01*
X14147238Y-86745609D02*
X14194857Y-86840847D01*
X14194857Y-86840847D02*
X14194857Y-87078942D01*
X14194857Y-87078942D02*
X14147238Y-87174180D01*
X14147238Y-87174180D02*
X14099619Y-87221800D01*
X14099619Y-87221800D02*
X14004381Y-87269419D01*
X14004381Y-87269419D02*
X13766286Y-87269419D01*
X13766286Y-87269419D02*
X13671048Y-87221800D01*
X13671048Y-87221800D02*
X13623429Y-87174180D01*
D12*
%TO.C,R7*%
X226452500Y-70158500D02*
X224547500Y-70158500D01*
X224547500Y-70158500D02*
X224547500Y-73841500D01*
X226452500Y-73841500D02*
X226452500Y-70158500D01*
X224547500Y-73841500D02*
X226452500Y-73841500D01*
%TO.C,D7*%
X164200000Y-40550000D02*
X168800000Y-40550000D01*
X168800000Y-40550000D02*
X168800000Y-33150000D01*
X164200000Y-33150000D02*
X164200000Y-40550000D01*
X168800000Y-33150000D02*
X164200000Y-33150000D01*
D11*
X164200000Y-39150000D02*
X163800000Y-39150000D01*
X163800000Y-38050000D01*
X164200000Y-38050000D01*
X164200000Y-39150000D01*
G36*
X164200000Y-39150000D02*
G01*
X163800000Y-39150000D01*
X163800000Y-38050000D01*
X164200000Y-38050000D01*
X164200000Y-39150000D01*
G37*
X169200000Y-39150000D02*
X168800000Y-39150000D01*
X168800000Y-38050000D01*
X169200000Y-38050000D01*
X169200000Y-39150000D01*
G36*
X169200000Y-39150000D02*
G01*
X168800000Y-39150000D01*
X168800000Y-38050000D01*
X169200000Y-38050000D01*
X169200000Y-39150000D01*
G37*
%TO.C,J6*%
X224714000Y-28428000D02*
X234366000Y-28428000D01*
X224714000Y-47732000D02*
X224714000Y-28428000D01*
X234366000Y-28428000D02*
X234366000Y-47732000D01*
X234366000Y-47732000D02*
X224714000Y-47732000D01*
D12*
%TO.C,C1*%
X238625000Y-91347323D02*
X238625000Y-90347323D01*
X238125000Y-90847323D02*
X239125000Y-90847323D01*
X236420000Y-85867677D02*
X246580000Y-85867677D01*
X236420000Y-85827677D02*
X246580000Y-85827677D01*
X236420000Y-85787677D02*
X246580000Y-85787677D01*
X236421000Y-85747677D02*
X246579000Y-85747677D01*
X236422000Y-85707677D02*
X246578000Y-85707677D01*
X236423000Y-85667677D02*
X246577000Y-85667677D01*
X236425000Y-85627677D02*
X246575000Y-85627677D01*
X236427000Y-85587677D02*
X246573000Y-85587677D01*
X236430000Y-85547677D02*
X246570000Y-85547677D01*
X236432000Y-85507677D02*
X246568000Y-85507677D01*
X236435000Y-85467677D02*
X246565000Y-85467677D01*
X236438000Y-85427677D02*
X246562000Y-85427677D01*
X236442000Y-85387677D02*
X246558000Y-85387677D01*
X236446000Y-85347677D02*
X246554000Y-85347677D01*
X236450000Y-85307677D02*
X246550000Y-85307677D01*
X236455000Y-85267677D02*
X246545000Y-85267677D01*
X236460000Y-85227677D02*
X246540000Y-85227677D01*
X236465000Y-85187677D02*
X246535000Y-85187677D01*
X236470000Y-85146677D02*
X246530000Y-85146677D01*
X236476000Y-85106677D02*
X246524000Y-85106677D01*
X236482000Y-85066677D02*
X246518000Y-85066677D01*
X236489000Y-85026677D02*
X246511000Y-85026677D01*
X236496000Y-84986677D02*
X246504000Y-84986677D01*
X236503000Y-84946677D02*
X246497000Y-84946677D01*
X236510000Y-84906677D02*
X246490000Y-84906677D01*
X236518000Y-84866677D02*
X246482000Y-84866677D01*
X236526000Y-84826677D02*
X246474000Y-84826677D01*
X236535000Y-84786677D02*
X246465000Y-84786677D01*
X236544000Y-84746677D02*
X246456000Y-84746677D01*
X236553000Y-84706677D02*
X246447000Y-84706677D01*
X236562000Y-84666677D02*
X246438000Y-84666677D01*
X236572000Y-84626677D02*
X246428000Y-84626677D01*
X236582000Y-84586677D02*
X240259000Y-84586677D01*
X242741000Y-84586677D02*
X246418000Y-84586677D01*
X236593000Y-84546677D02*
X240259000Y-84546677D01*
X242741000Y-84546677D02*
X246407000Y-84546677D01*
X236603000Y-84506677D02*
X240259000Y-84506677D01*
X242741000Y-84506677D02*
X246397000Y-84506677D01*
X236615000Y-84466677D02*
X240259000Y-84466677D01*
X242741000Y-84466677D02*
X246385000Y-84466677D01*
X236626000Y-84426677D02*
X240259000Y-84426677D01*
X242741000Y-84426677D02*
X246374000Y-84426677D01*
X236638000Y-84386677D02*
X240259000Y-84386677D01*
X242741000Y-84386677D02*
X246362000Y-84386677D01*
X236650000Y-84346677D02*
X240259000Y-84346677D01*
X242741000Y-84346677D02*
X246350000Y-84346677D01*
X236663000Y-84306677D02*
X240259000Y-84306677D01*
X242741000Y-84306677D02*
X246337000Y-84306677D01*
X236676000Y-84266677D02*
X240259000Y-84266677D01*
X242741000Y-84266677D02*
X246324000Y-84266677D01*
X236689000Y-84226677D02*
X240259000Y-84226677D01*
X242741000Y-84226677D02*
X246311000Y-84226677D01*
X236703000Y-84186677D02*
X240259000Y-84186677D01*
X242741000Y-84186677D02*
X246297000Y-84186677D01*
X236717000Y-84146677D02*
X240259000Y-84146677D01*
X242741000Y-84146677D02*
X246283000Y-84146677D01*
X236732000Y-84106677D02*
X240259000Y-84106677D01*
X242741000Y-84106677D02*
X246268000Y-84106677D01*
X236746000Y-84066677D02*
X240259000Y-84066677D01*
X242741000Y-84066677D02*
X246254000Y-84066677D01*
X236762000Y-84026677D02*
X240259000Y-84026677D01*
X242741000Y-84026677D02*
X246238000Y-84026677D01*
X236777000Y-83986677D02*
X240259000Y-83986677D01*
X242741000Y-83986677D02*
X246223000Y-83986677D01*
X236793000Y-83946677D02*
X240259000Y-83946677D01*
X242741000Y-83946677D02*
X246207000Y-83946677D01*
X236810000Y-83906677D02*
X240259000Y-83906677D01*
X242741000Y-83906677D02*
X246190000Y-83906677D01*
X236826000Y-83866677D02*
X240259000Y-83866677D01*
X242741000Y-83866677D02*
X246174000Y-83866677D01*
X236843000Y-83826677D02*
X240259000Y-83826677D01*
X242741000Y-83826677D02*
X246157000Y-83826677D01*
X236861000Y-83786677D02*
X240259000Y-83786677D01*
X242741000Y-83786677D02*
X246139000Y-83786677D01*
X236879000Y-83746677D02*
X240259000Y-83746677D01*
X242741000Y-83746677D02*
X246121000Y-83746677D01*
X236897000Y-83706677D02*
X240259000Y-83706677D01*
X242741000Y-83706677D02*
X246103000Y-83706677D01*
X236916000Y-83666677D02*
X240259000Y-83666677D01*
X242741000Y-83666677D02*
X246084000Y-83666677D01*
X236936000Y-83626677D02*
X240259000Y-83626677D01*
X242741000Y-83626677D02*
X246064000Y-83626677D01*
X236955000Y-83586677D02*
X240259000Y-83586677D01*
X242741000Y-83586677D02*
X246045000Y-83586677D01*
X236975000Y-83546677D02*
X240259000Y-83546677D01*
X242741000Y-83546677D02*
X246025000Y-83546677D01*
X236996000Y-83506677D02*
X240259000Y-83506677D01*
X242741000Y-83506677D02*
X246004000Y-83506677D01*
X237017000Y-83466677D02*
X240259000Y-83466677D01*
X242741000Y-83466677D02*
X245983000Y-83466677D01*
X237038000Y-83426677D02*
X240259000Y-83426677D01*
X242741000Y-83426677D02*
X245962000Y-83426677D01*
X237060000Y-83386677D02*
X240259000Y-83386677D01*
X242741000Y-83386677D02*
X245940000Y-83386677D01*
X237083000Y-83346677D02*
X240259000Y-83346677D01*
X242741000Y-83346677D02*
X245917000Y-83346677D01*
X237105000Y-83306677D02*
X240259000Y-83306677D01*
X242741000Y-83306677D02*
X245895000Y-83306677D01*
X237129000Y-83266677D02*
X240259000Y-83266677D01*
X242741000Y-83266677D02*
X245871000Y-83266677D01*
X237153000Y-83226677D02*
X240259000Y-83226677D01*
X242741000Y-83226677D02*
X245847000Y-83226677D01*
X237177000Y-83186677D02*
X240259000Y-83186677D01*
X242741000Y-83186677D02*
X245823000Y-83186677D01*
X237202000Y-83146677D02*
X240259000Y-83146677D01*
X242741000Y-83146677D02*
X245798000Y-83146677D01*
X237227000Y-83106677D02*
X240259000Y-83106677D01*
X242741000Y-83106677D02*
X245773000Y-83106677D01*
X237253000Y-83066677D02*
X240259000Y-83066677D01*
X242741000Y-83066677D02*
X245747000Y-83066677D01*
X237279000Y-83026677D02*
X240259000Y-83026677D01*
X242741000Y-83026677D02*
X245721000Y-83026677D01*
X237306000Y-82986677D02*
X240259000Y-82986677D01*
X242741000Y-82986677D02*
X245694000Y-82986677D01*
X237334000Y-82946677D02*
X240259000Y-82946677D01*
X242741000Y-82946677D02*
X245666000Y-82946677D01*
X237362000Y-82906677D02*
X240259000Y-82906677D01*
X242741000Y-82906677D02*
X245638000Y-82906677D01*
X237390000Y-82866677D02*
X240259000Y-82866677D01*
X242741000Y-82866677D02*
X245610000Y-82866677D01*
X237420000Y-82826677D02*
X240259000Y-82826677D01*
X242741000Y-82826677D02*
X245580000Y-82826677D01*
X237450000Y-82786677D02*
X240259000Y-82786677D01*
X242741000Y-82786677D02*
X245550000Y-82786677D01*
X237480000Y-82746677D02*
X240259000Y-82746677D01*
X242741000Y-82746677D02*
X245520000Y-82746677D01*
X237511000Y-82706677D02*
X240259000Y-82706677D01*
X242741000Y-82706677D02*
X245489000Y-82706677D01*
X237543000Y-82666677D02*
X240259000Y-82666677D01*
X242741000Y-82666677D02*
X245457000Y-82666677D01*
X237575000Y-82626677D02*
X240259000Y-82626677D01*
X242741000Y-82626677D02*
X245425000Y-82626677D01*
X237608000Y-82586677D02*
X240259000Y-82586677D01*
X242741000Y-82586677D02*
X245392000Y-82586677D01*
X237642000Y-82546677D02*
X240259000Y-82546677D01*
X242741000Y-82546677D02*
X245358000Y-82546677D01*
X237676000Y-82506677D02*
X240259000Y-82506677D01*
X242741000Y-82506677D02*
X245324000Y-82506677D01*
X237711000Y-82466677D02*
X240259000Y-82466677D01*
X242741000Y-82466677D02*
X245289000Y-82466677D01*
X237747000Y-82426677D02*
X240259000Y-82426677D01*
X242741000Y-82426677D02*
X245253000Y-82426677D01*
X237784000Y-82386677D02*
X240259000Y-82386677D01*
X242741000Y-82386677D02*
X245216000Y-82386677D01*
X237821000Y-82346677D02*
X240259000Y-82346677D01*
X242741000Y-82346677D02*
X245179000Y-82346677D01*
X237860000Y-82306677D02*
X240259000Y-82306677D01*
X242741000Y-82306677D02*
X245140000Y-82306677D01*
X237899000Y-82266677D02*
X240259000Y-82266677D01*
X242741000Y-82266677D02*
X245101000Y-82266677D01*
X237939000Y-82226677D02*
X240259000Y-82226677D01*
X242741000Y-82226677D02*
X245061000Y-82226677D01*
X237980000Y-82186677D02*
X240259000Y-82186677D01*
X242741000Y-82186677D02*
X245020000Y-82186677D01*
X238022000Y-82146677D02*
X240259000Y-82146677D01*
X242741000Y-82146677D02*
X244978000Y-82146677D01*
X238064000Y-82106677D02*
X244936000Y-82106677D01*
X238108000Y-82066677D02*
X244892000Y-82066677D01*
X238153000Y-82026677D02*
X244847000Y-82026677D01*
X238199000Y-81986677D02*
X244801000Y-81986677D01*
X238246000Y-81946677D02*
X244754000Y-81946677D01*
X238294000Y-81906677D02*
X244706000Y-81906677D01*
X238344000Y-81866677D02*
X244656000Y-81866677D01*
X238394000Y-81826677D02*
X244606000Y-81826677D01*
X238446000Y-81786677D02*
X244554000Y-81786677D01*
X238500000Y-81746677D02*
X244500000Y-81746677D01*
X238555000Y-81706677D02*
X244445000Y-81706677D01*
X238611000Y-81666677D02*
X244389000Y-81666677D01*
X238670000Y-81626677D02*
X244330000Y-81626677D01*
X238730000Y-81586677D02*
X244270000Y-81586677D01*
X238791000Y-81546677D02*
X244209000Y-81546677D01*
X238855000Y-81506677D02*
X244145000Y-81506677D01*
X238921000Y-81466677D02*
X244079000Y-81466677D01*
X238990000Y-81426677D02*
X244010000Y-81426677D01*
X239061000Y-81386677D02*
X243939000Y-81386677D01*
X239135000Y-81346677D02*
X243865000Y-81346677D01*
X239211000Y-81306677D02*
X243789000Y-81306677D01*
X239291000Y-81266677D02*
X243709000Y-81266677D01*
X239375000Y-81226677D02*
X243625000Y-81226677D01*
X239463000Y-81186677D02*
X243537000Y-81186677D01*
X239556000Y-81146677D02*
X243444000Y-81146677D01*
X239654000Y-81106677D02*
X243346000Y-81106677D01*
X239758000Y-81066677D02*
X243242000Y-81066677D01*
X239870000Y-81026677D02*
X243130000Y-81026677D01*
X239990000Y-80986677D02*
X243010000Y-80986677D01*
X240122000Y-80946677D02*
X242878000Y-80946677D01*
X240270000Y-80906677D02*
X242730000Y-80906677D01*
X240438000Y-80866677D02*
X242562000Y-80866677D01*
X240638000Y-80826677D02*
X242362000Y-80826677D01*
X240901000Y-80786677D02*
X242099000Y-80786677D01*
X246620000Y-85867677D02*
G75*
G03*
X246620000Y-85867677I-5120000J0D01*
G01*
D11*
%TO.C,J22*%
X32714000Y-28428000D02*
X42366000Y-28428000D01*
X32714000Y-47732000D02*
X32714000Y-28428000D01*
X42366000Y-28428000D02*
X42366000Y-47732000D01*
X42366000Y-47732000D02*
X32714000Y-47732000D01*
%TO.C,J27*%
X211110000Y-96094000D02*
X221270000Y-96094000D01*
X211110000Y-107524000D02*
X211110000Y-94316000D01*
X212761000Y-107524000D02*
X211110000Y-107524000D01*
X216190000Y-94316000D02*
X216190000Y-107524000D01*
X216190000Y-94316000D02*
X221270000Y-94316000D01*
X216190000Y-107524000D02*
X214539000Y-107524000D01*
X217968000Y-107524000D02*
X216190000Y-107524000D01*
X221270000Y-94316000D02*
X221270000Y-107524000D01*
X221270000Y-107524000D02*
X219492000Y-107524000D01*
X221270000Y-107524000D02*
X223810000Y-107524000D01*
X223810000Y-94316000D02*
X221270000Y-94316000D01*
X223810000Y-94316000D02*
X223810000Y-107524000D01*
X211110000Y-94316000D02*
X216190000Y-94316000D01*
X216190000Y-94316000D02*
X216190000Y-94316000D01*
X216190000Y-94316000D02*
X211110000Y-94316000D01*
X211110000Y-94316000D02*
X211110000Y-94316000D01*
%TO.C,J16*%
X104714000Y-28428000D02*
X114366000Y-28428000D01*
X104714000Y-47732000D02*
X104714000Y-28428000D01*
X114366000Y-28428000D02*
X114366000Y-47732000D01*
X114366000Y-47732000D02*
X104714000Y-47732000D01*
D12*
%TO.C,D11*%
X230060000Y-67150000D02*
X230060000Y-62850000D01*
X230060000Y-67150000D02*
X224250000Y-67150000D01*
X230060000Y-62850000D02*
X224250000Y-62850000D01*
%TO.C,C6*%
X33800000Y-73687500D02*
X33800000Y-69287500D01*
X31111000Y-71741500D02*
X32000000Y-71741500D01*
X32000000Y-71741500D02*
X32000000Y-71995500D01*
X32000000Y-71741500D02*
X32889000Y-71741500D01*
X31111000Y-71233500D02*
X32889000Y-71233500D01*
X32000000Y-71233500D02*
X32000000Y-70979500D01*
X30400000Y-69287500D02*
X30400000Y-73687500D01*
X30400000Y-73687499D02*
G75*
G03*
X33800000Y-73687499I1700000J2462359D01*
G01*
X33799999Y-69287501D02*
G75*
G03*
X30400001Y-69287501I-1699999J-2462357D01*
G01*
%TO.C,D4*%
X74700000Y-40550000D02*
X79300000Y-40550000D01*
X79300000Y-40550000D02*
X79300000Y-33150000D01*
X74700000Y-33150000D02*
X74700000Y-40550000D01*
X79300000Y-33150000D02*
X74700000Y-33150000D01*
D11*
X74700000Y-39150000D02*
X74300000Y-39150000D01*
X74300000Y-38050000D01*
X74700000Y-38050000D01*
X74700000Y-39150000D01*
G36*
X74700000Y-39150000D02*
G01*
X74300000Y-39150000D01*
X74300000Y-38050000D01*
X74700000Y-38050000D01*
X74700000Y-39150000D01*
G37*
X79700000Y-39150000D02*
X79300000Y-39150000D01*
X79300000Y-38050000D01*
X79700000Y-38050000D01*
X79700000Y-39150000D01*
G36*
X79700000Y-39150000D02*
G01*
X79300000Y-39150000D01*
X79300000Y-38050000D01*
X79700000Y-38050000D01*
X79700000Y-39150000D01*
G37*
D12*
%TO.C,D13*%
X229437500Y-70440000D02*
X227762500Y-70440000D01*
X229437500Y-70440000D02*
X230087500Y-70440000D01*
X229437500Y-73560000D02*
X228787500Y-73560000D01*
X229437500Y-73560000D02*
X230087500Y-73560000D01*
D11*
%TO.C,J9*%
X200734000Y-87828000D02*
X210386000Y-87828000D01*
X200734000Y-107132000D02*
X200734000Y-87828000D01*
X210386000Y-87828000D02*
X210386000Y-107132000D01*
X210386000Y-107132000D02*
X200734000Y-107132000D01*
D12*
%TO.C,L1*%
X22600000Y-82800000D02*
X29400000Y-82800000D01*
X29400000Y-82800000D02*
X29400000Y-75600000D01*
X22600000Y-75600000D02*
X22600000Y-82800000D01*
X29400000Y-75600000D02*
X22600000Y-75600000D01*
X26000000Y-79835000D02*
G75*
G03*
X26000000Y-80470000I0J-317500D01*
G01*
X26000000Y-79200000D02*
G75*
G03*
X26000000Y-79835000I0J-317500D01*
G01*
X26000000Y-78565000D02*
G75*
G03*
X26000000Y-79200000I0J-317500D01*
G01*
X26000000Y-77930000D02*
G75*
G03*
X26000000Y-78565000I0J-317500D01*
G01*
D11*
%TO.C,J3*%
X276734000Y-47928000D02*
X286386000Y-47928000D01*
X276734000Y-72312000D02*
X276734000Y-47928000D01*
X286386000Y-47928000D02*
X286386000Y-72312000D01*
X286386000Y-72312000D02*
X276734000Y-72312000D01*
%TO.C,FL1*%
X234532500Y-85662500D02*
X222467500Y-85662500D01*
X234532500Y-84392500D02*
X234532500Y-85662500D01*
X234532500Y-80582500D02*
X234532500Y-79312500D01*
X234532500Y-75502500D02*
X234532500Y-74232500D01*
X234532500Y-74232500D02*
X222467500Y-74232500D01*
X222467500Y-85662500D02*
X222467500Y-84392500D01*
X222467500Y-80582500D02*
X222467500Y-79312500D01*
X222467500Y-74232500D02*
X222467500Y-75502500D01*
%TO.C,J7*%
X224734000Y-87828000D02*
X234386000Y-87828000D01*
X224734000Y-107132000D02*
X224734000Y-87828000D01*
X234386000Y-87828000D02*
X234386000Y-107132000D01*
X234386000Y-107132000D02*
X224734000Y-107132000D01*
%TO.C,J4*%
X248714000Y-28428000D02*
X258366000Y-28428000D01*
X248714000Y-47732000D02*
X248714000Y-28428000D01*
X258366000Y-28428000D02*
X258366000Y-47732000D01*
X258366000Y-47732000D02*
X248714000Y-47732000D01*
D12*
%TO.C,U2*%
X29317500Y-74032500D02*
X29317500Y-72832500D01*
X29117500Y-73832500D02*
X29117500Y-62062500D01*
X28117500Y-74032500D02*
X29317500Y-74032500D01*
X22777500Y-73832500D02*
X29117500Y-73832500D01*
X22777500Y-73832500D02*
X22777500Y-62062500D01*
X22777500Y-62062500D02*
X29117500Y-62062500D01*
%TO.C,D9*%
X235700000Y-44700000D02*
X240300000Y-44700000D01*
X240300000Y-44700000D02*
X240300000Y-37300000D01*
X235700000Y-37300000D02*
X235700000Y-44700000D01*
X240300000Y-37300000D02*
X235700000Y-37300000D01*
D11*
X235700000Y-43300000D02*
X235300000Y-43300000D01*
X235300000Y-42200000D01*
X235700000Y-42200000D01*
X235700000Y-43300000D01*
G36*
X235700000Y-43300000D02*
G01*
X235300000Y-43300000D01*
X235300000Y-42200000D01*
X235700000Y-42200000D01*
X235700000Y-43300000D01*
G37*
X240700000Y-43300000D02*
X240300000Y-43300000D01*
X240300000Y-42200000D01*
X240700000Y-42200000D01*
X240700000Y-43300000D01*
G36*
X240700000Y-43300000D02*
G01*
X240300000Y-43300000D01*
X240300000Y-42200000D01*
X240700000Y-42200000D01*
X240700000Y-43300000D01*
G37*
D12*
%TO.C,R8*%
X33000000Y-57075000D02*
X31000000Y-57075000D01*
X31000000Y-57075000D02*
X31000000Y-60875000D01*
X33000000Y-60875000D02*
X33000000Y-57075000D01*
X31000000Y-60875000D02*
X33000000Y-60875000D01*
%TO.C,R2*%
X191595000Y-96000500D02*
X191595000Y-87999500D01*
X195405000Y-96000500D02*
X191595000Y-96000500D01*
X191595000Y-87999500D02*
X195405000Y-87999500D01*
X195405000Y-87999500D02*
X195405000Y-96000500D01*
%TO.C,Q3*%
X231700000Y-61900000D02*
X231700000Y-73300000D01*
X231700000Y-73300000D02*
X248500000Y-73300000D01*
X248500000Y-61900000D02*
X231700000Y-61900000D01*
X248500000Y-73300000D02*
X248500000Y-61900000D01*
%TO.C,C4*%
X30057500Y-81047500D02*
X30057500Y-81111000D01*
X30057500Y-81111000D02*
X30057500Y-82952500D01*
X30057500Y-82952500D02*
X33867500Y-82952500D01*
X31835500Y-81682500D02*
X31835500Y-82317500D01*
X31835500Y-82000000D02*
X31772000Y-82000000D01*
X32089500Y-82000000D02*
X32153000Y-82000000D01*
X32089500Y-82317500D02*
X32089500Y-81682500D01*
X33867500Y-81047500D02*
X30057500Y-81047500D01*
X33867500Y-82952500D02*
X33867500Y-81047500D01*
%TO.C,D8*%
X170700000Y-40550000D02*
X175300000Y-40550000D01*
X175300000Y-40550000D02*
X175300000Y-33150000D01*
X170700000Y-33150000D02*
X170700000Y-40550000D01*
X175300000Y-33150000D02*
X170700000Y-33150000D01*
D11*
X170700000Y-39150000D02*
X170300000Y-39150000D01*
X170300000Y-38050000D01*
X170700000Y-38050000D01*
X170700000Y-39150000D01*
G36*
X170700000Y-39150000D02*
G01*
X170300000Y-39150000D01*
X170300000Y-38050000D01*
X170700000Y-38050000D01*
X170700000Y-39150000D01*
G37*
X175700000Y-39150000D02*
X175300000Y-39150000D01*
X175300000Y-38050000D01*
X175700000Y-38050000D01*
X175700000Y-39150000D01*
G36*
X175700000Y-39150000D02*
G01*
X175300000Y-39150000D01*
X175300000Y-38050000D01*
X175700000Y-38050000D01*
X175700000Y-39150000D01*
G37*
%TO.C,J20*%
X56714000Y-28428000D02*
X66366000Y-28428000D01*
X56714000Y-47732000D02*
X56714000Y-28428000D01*
X66366000Y-28428000D02*
X66366000Y-47732000D01*
X66366000Y-47732000D02*
X56714000Y-47732000D01*
D12*
%TO.C,F1*%
X273050000Y-68000000D02*
X273050000Y-92000000D01*
X266950000Y-68000000D02*
X273050000Y-68000000D01*
X273050000Y-92000000D02*
X266950000Y-92000000D01*
X266950000Y-92000000D02*
X266950000Y-68000000D01*
D11*
%TO.C,J19*%
X80734000Y-87828000D02*
X90386000Y-87828000D01*
X80734000Y-107132000D02*
X80734000Y-87828000D01*
X90386000Y-87828000D02*
X90386000Y-107132000D01*
X90386000Y-107132000D02*
X80734000Y-107132000D01*
D12*
%TO.C,D2*%
X27450000Y-40550000D02*
X32050000Y-40550000D01*
X32050000Y-40550000D02*
X32050000Y-33150000D01*
X27450000Y-33150000D02*
X27450000Y-40550000D01*
X32050000Y-33150000D02*
X27450000Y-33150000D01*
D11*
X27450000Y-39150000D02*
X27050000Y-39150000D01*
X27050000Y-38050000D01*
X27450000Y-38050000D01*
X27450000Y-39150000D01*
G36*
X27450000Y-39150000D02*
G01*
X27050000Y-39150000D01*
X27050000Y-38050000D01*
X27450000Y-38050000D01*
X27450000Y-39150000D01*
G37*
X32450000Y-39150000D02*
X32050000Y-39150000D01*
X32050000Y-38050000D01*
X32450000Y-38050000D01*
X32450000Y-39150000D01*
G36*
X32450000Y-39150000D02*
G01*
X32050000Y-39150000D01*
X32050000Y-38050000D01*
X32450000Y-38050000D01*
X32450000Y-39150000D01*
G37*
D12*
%TO.C,D5*%
X116200000Y-40550000D02*
X120800000Y-40550000D01*
X120800000Y-40550000D02*
X120800000Y-33150000D01*
X116200000Y-33150000D02*
X116200000Y-40550000D01*
X120800000Y-33150000D02*
X116200000Y-33150000D01*
D11*
X116200000Y-39150000D02*
X115800000Y-39150000D01*
X115800000Y-38050000D01*
X116200000Y-38050000D01*
X116200000Y-39150000D01*
G36*
X116200000Y-39150000D02*
G01*
X115800000Y-39150000D01*
X115800000Y-38050000D01*
X116200000Y-38050000D01*
X116200000Y-39150000D01*
G37*
X121200000Y-39150000D02*
X120800000Y-39150000D01*
X120800000Y-38050000D01*
X121200000Y-38050000D01*
X121200000Y-39150000D01*
G36*
X121200000Y-39150000D02*
G01*
X120800000Y-39150000D01*
X120800000Y-38050000D01*
X121200000Y-38050000D01*
X121200000Y-39150000D01*
G37*
D12*
%TO.C,F2*%
X219050000Y-68500000D02*
X219050000Y-92500000D01*
X212950000Y-68500000D02*
X219050000Y-68500000D01*
X219050000Y-92500000D02*
X212950000Y-92500000D01*
X212950000Y-92500000D02*
X212950000Y-68500000D01*
%TO.C,D3*%
X68200000Y-40550000D02*
X72800000Y-40550000D01*
X72800000Y-40550000D02*
X72800000Y-33150000D01*
X68200000Y-33150000D02*
X68200000Y-40550000D01*
X72800000Y-33150000D02*
X68200000Y-33150000D01*
D11*
X68200000Y-39150000D02*
X67800000Y-39150000D01*
X67800000Y-38050000D01*
X68200000Y-38050000D01*
X68200000Y-39150000D01*
G36*
X68200000Y-39150000D02*
G01*
X67800000Y-39150000D01*
X67800000Y-38050000D01*
X68200000Y-38050000D01*
X68200000Y-39150000D01*
G37*
X73200000Y-39150000D02*
X72800000Y-39150000D01*
X72800000Y-38050000D01*
X73200000Y-38050000D01*
X73200000Y-39150000D01*
G36*
X73200000Y-39150000D02*
G01*
X72800000Y-39150000D01*
X72800000Y-38050000D01*
X73200000Y-38050000D01*
X73200000Y-39150000D01*
G37*
D12*
%TO.C,C5*%
X30057500Y-76047500D02*
X30057500Y-76111000D01*
X30057500Y-76111000D02*
X30057500Y-77952500D01*
X30057500Y-77952500D02*
X33867500Y-77952500D01*
X31835500Y-76682500D02*
X31835500Y-77317500D01*
X31835500Y-77000000D02*
X31772000Y-77000000D01*
X32089500Y-77000000D02*
X32153000Y-77000000D01*
X32089500Y-77317500D02*
X32089500Y-76682500D01*
X33867500Y-76047500D02*
X30057500Y-76047500D01*
X33867500Y-77952500D02*
X33867500Y-76047500D01*
%TO.C,RV1*%
X50710000Y-41241422D02*
X50710000Y-41758578D01*
X49290000Y-41241422D02*
X49290000Y-41758578D01*
%TO.C,D14*%
X29960000Y-57115000D02*
X28040000Y-57115000D01*
X28040000Y-57115000D02*
X28040000Y-59975000D01*
X29960000Y-59975000D02*
X29960000Y-57115000D01*
%TO.C,R1*%
X21300000Y-38200000D02*
X18900000Y-38200000D01*
X18900000Y-38200000D02*
X18900000Y-42800000D01*
X21300000Y-42800000D02*
X21300000Y-38200000D01*
X18900000Y-42800000D02*
X21300000Y-42800000D01*
%TO.C,D10*%
X247800000Y-39450000D02*
X243200000Y-39450000D01*
X243200000Y-39450000D02*
X243200000Y-46850000D01*
X247800000Y-46850000D02*
X247800000Y-39450000D01*
X243200000Y-46850000D02*
X247800000Y-46850000D01*
D11*
X248200000Y-41950000D02*
X247800000Y-41950000D01*
X247800000Y-40850000D01*
X248200000Y-40850000D01*
X248200000Y-41950000D01*
G36*
X248200000Y-41950000D02*
G01*
X247800000Y-41950000D01*
X247800000Y-40850000D01*
X248200000Y-40850000D01*
X248200000Y-41950000D01*
G37*
X243200000Y-41950000D02*
X242800000Y-41950000D01*
X242800000Y-40850000D01*
X243200000Y-40850000D01*
X243200000Y-41950000D01*
G36*
X243200000Y-41950000D02*
G01*
X242800000Y-41950000D01*
X242800000Y-40850000D01*
X243200000Y-40850000D01*
X243200000Y-41950000D01*
G37*
%TO.C,J2*%
X276714000Y-87828000D02*
X286366000Y-87828000D01*
X276714000Y-107132000D02*
X276714000Y-87828000D01*
X286366000Y-87828000D02*
X286366000Y-107132000D01*
X286366000Y-107132000D02*
X276714000Y-107132000D01*
%TO.C,J1*%
X276714000Y-28428000D02*
X286366000Y-28428000D01*
X276714000Y-47732000D02*
X276714000Y-28428000D01*
X286366000Y-28428000D02*
X286366000Y-47732000D01*
X286366000Y-47732000D02*
X276714000Y-47732000D01*
D12*
%TO.C,RV5*%
X242460000Y-41741422D02*
X242460000Y-42258578D01*
X241040000Y-41741422D02*
X241040000Y-42258578D01*
D11*
%TO.C,J24*%
X8714000Y-28428000D02*
X18366000Y-28428000D01*
X8714000Y-47732000D02*
X8714000Y-28428000D01*
X18366000Y-28428000D02*
X18366000Y-47732000D01*
X18366000Y-47732000D02*
X8714000Y-47732000D01*
D12*
%TO.C,RV2*%
X97710000Y-41303922D02*
X97710000Y-41821078D01*
X96290000Y-41303922D02*
X96290000Y-41821078D01*
%TO.C,D6*%
X122700000Y-40550000D02*
X127300000Y-40550000D01*
X127300000Y-40550000D02*
X127300000Y-33150000D01*
X122700000Y-33150000D02*
X122700000Y-40550000D01*
X127300000Y-33150000D02*
X122700000Y-33150000D01*
D11*
X122700000Y-39150000D02*
X122300000Y-39150000D01*
X122300000Y-38050000D01*
X122700000Y-38050000D01*
X122700000Y-39150000D01*
G36*
X122700000Y-39150000D02*
G01*
X122300000Y-39150000D01*
X122300000Y-38050000D01*
X122700000Y-38050000D01*
X122700000Y-39150000D01*
G37*
X127700000Y-39150000D02*
X127300000Y-39150000D01*
X127300000Y-38050000D01*
X127700000Y-38050000D01*
X127700000Y-39150000D01*
G36*
X127700000Y-39150000D02*
G01*
X127300000Y-39150000D01*
X127300000Y-38050000D01*
X127700000Y-38050000D01*
X127700000Y-39150000D01*
G37*
D12*
%TO.C,D1*%
X21900000Y-40550000D02*
X26500000Y-40550000D01*
X26500000Y-40550000D02*
X26500000Y-33150000D01*
X21900000Y-33150000D02*
X21900000Y-40550000D01*
X26500000Y-33150000D02*
X21900000Y-33150000D01*
D11*
X21900000Y-39150000D02*
X21500000Y-39150000D01*
X21500000Y-38050000D01*
X21900000Y-38050000D01*
X21900000Y-39150000D01*
G36*
X21900000Y-39150000D02*
G01*
X21500000Y-39150000D01*
X21500000Y-38050000D01*
X21900000Y-38050000D01*
X21900000Y-39150000D01*
G37*
X26900000Y-39150000D02*
X26500000Y-39150000D01*
X26500000Y-38050000D01*
X26900000Y-38050000D01*
X26900000Y-39150000D01*
G36*
X26900000Y-39150000D02*
G01*
X26500000Y-39150000D01*
X26500000Y-38050000D01*
X26900000Y-38050000D01*
X26900000Y-39150000D01*
G37*
D12*
%TO.C,C3*%
X33587500Y-63036000D02*
X30412500Y-63036000D01*
X30412500Y-63036000D02*
X30412500Y-67989000D01*
X32889000Y-65258500D02*
X32000000Y-65258500D01*
X32000000Y-65258500D02*
X32000000Y-65004500D01*
X32000000Y-65258500D02*
X31111000Y-65258500D01*
X32889000Y-65766500D02*
X31111000Y-65766500D01*
X32000000Y-65766500D02*
X32000000Y-66020500D01*
X33587500Y-67989000D02*
X33587500Y-63036000D01*
X30412500Y-67989000D02*
X33587500Y-67989000D01*
%TO.C,RV3*%
X146710000Y-41303922D02*
X146710000Y-41821078D01*
X145290000Y-41303922D02*
X145290000Y-41821078D01*
%TO.C,C2*%
X244375000Y-91152677D02*
X244375000Y-92152677D01*
X244875000Y-91652677D02*
X243875000Y-91652677D01*
X246580000Y-96632323D02*
X236420000Y-96632323D01*
X246580000Y-96672323D02*
X236420000Y-96672323D01*
X246580000Y-96712323D02*
X236420000Y-96712323D01*
X246579000Y-96752323D02*
X236421000Y-96752323D01*
X246578000Y-96792323D02*
X236422000Y-96792323D01*
X246577000Y-96832323D02*
X236423000Y-96832323D01*
X246575000Y-96872323D02*
X236425000Y-96872323D01*
X246573000Y-96912323D02*
X236427000Y-96912323D01*
X246570000Y-96952323D02*
X236430000Y-96952323D01*
X246568000Y-96992323D02*
X236432000Y-96992323D01*
X246565000Y-97032323D02*
X236435000Y-97032323D01*
X246562000Y-97072323D02*
X236438000Y-97072323D01*
X246558000Y-97112323D02*
X236442000Y-97112323D01*
X246554000Y-97152323D02*
X236446000Y-97152323D01*
X246550000Y-97192323D02*
X236450000Y-97192323D01*
X246545000Y-97232323D02*
X236455000Y-97232323D01*
X246540000Y-97272323D02*
X236460000Y-97272323D01*
X246535000Y-97312323D02*
X236465000Y-97312323D01*
X246530000Y-97353323D02*
X236470000Y-97353323D01*
X246524000Y-97393323D02*
X236476000Y-97393323D01*
X246518000Y-97433323D02*
X236482000Y-97433323D01*
X246511000Y-97473323D02*
X236489000Y-97473323D01*
X246504000Y-97513323D02*
X236496000Y-97513323D01*
X246497000Y-97553323D02*
X236503000Y-97553323D01*
X246490000Y-97593323D02*
X236510000Y-97593323D01*
X246482000Y-97633323D02*
X236518000Y-97633323D01*
X246474000Y-97673323D02*
X236526000Y-97673323D01*
X246465000Y-97713323D02*
X236535000Y-97713323D01*
X246456000Y-97753323D02*
X236544000Y-97753323D01*
X246447000Y-97793323D02*
X236553000Y-97793323D01*
X246438000Y-97833323D02*
X236562000Y-97833323D01*
X246428000Y-97873323D02*
X236572000Y-97873323D01*
X246418000Y-97913323D02*
X242741000Y-97913323D01*
X240259000Y-97913323D02*
X236582000Y-97913323D01*
X246407000Y-97953323D02*
X242741000Y-97953323D01*
X240259000Y-97953323D02*
X236593000Y-97953323D01*
X246397000Y-97993323D02*
X242741000Y-97993323D01*
X240259000Y-97993323D02*
X236603000Y-97993323D01*
X246385000Y-98033323D02*
X242741000Y-98033323D01*
X240259000Y-98033323D02*
X236615000Y-98033323D01*
X246374000Y-98073323D02*
X242741000Y-98073323D01*
X240259000Y-98073323D02*
X236626000Y-98073323D01*
X246362000Y-98113323D02*
X242741000Y-98113323D01*
X240259000Y-98113323D02*
X236638000Y-98113323D01*
X246350000Y-98153323D02*
X242741000Y-98153323D01*
X240259000Y-98153323D02*
X236650000Y-98153323D01*
X246337000Y-98193323D02*
X242741000Y-98193323D01*
X240259000Y-98193323D02*
X236663000Y-98193323D01*
X246324000Y-98233323D02*
X242741000Y-98233323D01*
X240259000Y-98233323D02*
X236676000Y-98233323D01*
X246311000Y-98273323D02*
X242741000Y-98273323D01*
X240259000Y-98273323D02*
X236689000Y-98273323D01*
X246297000Y-98313323D02*
X242741000Y-98313323D01*
X240259000Y-98313323D02*
X236703000Y-98313323D01*
X246283000Y-98353323D02*
X242741000Y-98353323D01*
X240259000Y-98353323D02*
X236717000Y-98353323D01*
X246268000Y-98393323D02*
X242741000Y-98393323D01*
X240259000Y-98393323D02*
X236732000Y-98393323D01*
X246254000Y-98433323D02*
X242741000Y-98433323D01*
X240259000Y-98433323D02*
X236746000Y-98433323D01*
X246238000Y-98473323D02*
X242741000Y-98473323D01*
X240259000Y-98473323D02*
X236762000Y-98473323D01*
X246223000Y-98513323D02*
X242741000Y-98513323D01*
X240259000Y-98513323D02*
X236777000Y-98513323D01*
X246207000Y-98553323D02*
X242741000Y-98553323D01*
X240259000Y-98553323D02*
X236793000Y-98553323D01*
X246190000Y-98593323D02*
X242741000Y-98593323D01*
X240259000Y-98593323D02*
X236810000Y-98593323D01*
X246174000Y-98633323D02*
X242741000Y-98633323D01*
X240259000Y-98633323D02*
X236826000Y-98633323D01*
X246157000Y-98673323D02*
X242741000Y-98673323D01*
X240259000Y-98673323D02*
X236843000Y-98673323D01*
X246139000Y-98713323D02*
X242741000Y-98713323D01*
X240259000Y-98713323D02*
X236861000Y-98713323D01*
X246121000Y-98753323D02*
X242741000Y-98753323D01*
X240259000Y-98753323D02*
X236879000Y-98753323D01*
X246103000Y-98793323D02*
X242741000Y-98793323D01*
X240259000Y-98793323D02*
X236897000Y-98793323D01*
X246084000Y-98833323D02*
X242741000Y-98833323D01*
X240259000Y-98833323D02*
X236916000Y-98833323D01*
X246064000Y-98873323D02*
X242741000Y-98873323D01*
X240259000Y-98873323D02*
X236936000Y-98873323D01*
X246045000Y-98913323D02*
X242741000Y-98913323D01*
X240259000Y-98913323D02*
X236955000Y-98913323D01*
X246025000Y-98953323D02*
X242741000Y-98953323D01*
X240259000Y-98953323D02*
X236975000Y-98953323D01*
X246004000Y-98993323D02*
X242741000Y-98993323D01*
X240259000Y-98993323D02*
X236996000Y-98993323D01*
X245983000Y-99033323D02*
X242741000Y-99033323D01*
X240259000Y-99033323D02*
X237017000Y-99033323D01*
X245962000Y-99073323D02*
X242741000Y-99073323D01*
X240259000Y-99073323D02*
X237038000Y-99073323D01*
X245940000Y-99113323D02*
X242741000Y-99113323D01*
X240259000Y-99113323D02*
X237060000Y-99113323D01*
X245917000Y-99153323D02*
X242741000Y-99153323D01*
X240259000Y-99153323D02*
X237083000Y-99153323D01*
X245895000Y-99193323D02*
X242741000Y-99193323D01*
X240259000Y-99193323D02*
X237105000Y-99193323D01*
X245871000Y-99233323D02*
X242741000Y-99233323D01*
X240259000Y-99233323D02*
X237129000Y-99233323D01*
X245847000Y-99273323D02*
X242741000Y-99273323D01*
X240259000Y-99273323D02*
X237153000Y-99273323D01*
X245823000Y-99313323D02*
X242741000Y-99313323D01*
X240259000Y-99313323D02*
X237177000Y-99313323D01*
X245798000Y-99353323D02*
X242741000Y-99353323D01*
X240259000Y-99353323D02*
X237202000Y-99353323D01*
X245773000Y-99393323D02*
X242741000Y-99393323D01*
X240259000Y-99393323D02*
X237227000Y-99393323D01*
X245747000Y-99433323D02*
X242741000Y-99433323D01*
X240259000Y-99433323D02*
X237253000Y-99433323D01*
X245721000Y-99473323D02*
X242741000Y-99473323D01*
X240259000Y-99473323D02*
X237279000Y-99473323D01*
X245694000Y-99513323D02*
X242741000Y-99513323D01*
X240259000Y-99513323D02*
X237306000Y-99513323D01*
X245666000Y-99553323D02*
X242741000Y-99553323D01*
X240259000Y-99553323D02*
X237334000Y-99553323D01*
X245638000Y-99593323D02*
X242741000Y-99593323D01*
X240259000Y-99593323D02*
X237362000Y-99593323D01*
X245610000Y-99633323D02*
X242741000Y-99633323D01*
X240259000Y-99633323D02*
X237390000Y-99633323D01*
X245580000Y-99673323D02*
X242741000Y-99673323D01*
X240259000Y-99673323D02*
X237420000Y-99673323D01*
X245550000Y-99713323D02*
X242741000Y-99713323D01*
X240259000Y-99713323D02*
X237450000Y-99713323D01*
X245520000Y-99753323D02*
X242741000Y-99753323D01*
X240259000Y-99753323D02*
X237480000Y-99753323D01*
X245489000Y-99793323D02*
X242741000Y-99793323D01*
X240259000Y-99793323D02*
X237511000Y-99793323D01*
X245457000Y-99833323D02*
X242741000Y-99833323D01*
X240259000Y-99833323D02*
X237543000Y-99833323D01*
X245425000Y-99873323D02*
X242741000Y-99873323D01*
X240259000Y-99873323D02*
X237575000Y-99873323D01*
X245392000Y-99913323D02*
X242741000Y-99913323D01*
X240259000Y-99913323D02*
X237608000Y-99913323D01*
X245358000Y-99953323D02*
X242741000Y-99953323D01*
X240259000Y-99953323D02*
X237642000Y-99953323D01*
X245324000Y-99993323D02*
X242741000Y-99993323D01*
X240259000Y-99993323D02*
X237676000Y-99993323D01*
X245289000Y-100033323D02*
X242741000Y-100033323D01*
X240259000Y-100033323D02*
X237711000Y-100033323D01*
X245253000Y-100073323D02*
X242741000Y-100073323D01*
X240259000Y-100073323D02*
X237747000Y-100073323D01*
X245216000Y-100113323D02*
X242741000Y-100113323D01*
X240259000Y-100113323D02*
X237784000Y-100113323D01*
X245179000Y-100153323D02*
X242741000Y-100153323D01*
X240259000Y-100153323D02*
X237821000Y-100153323D01*
X245140000Y-100193323D02*
X242741000Y-100193323D01*
X240259000Y-100193323D02*
X237860000Y-100193323D01*
X245101000Y-100233323D02*
X242741000Y-100233323D01*
X240259000Y-100233323D02*
X237899000Y-100233323D01*
X245061000Y-100273323D02*
X242741000Y-100273323D01*
X240259000Y-100273323D02*
X237939000Y-100273323D01*
X245020000Y-100313323D02*
X242741000Y-100313323D01*
X240259000Y-100313323D02*
X237980000Y-100313323D01*
X244978000Y-100353323D02*
X242741000Y-100353323D01*
X240259000Y-100353323D02*
X238022000Y-100353323D01*
X244936000Y-100393323D02*
X238064000Y-100393323D01*
X244892000Y-100433323D02*
X238108000Y-100433323D01*
X244847000Y-100473323D02*
X238153000Y-100473323D01*
X244801000Y-100513323D02*
X238199000Y-100513323D01*
X244754000Y-100553323D02*
X238246000Y-100553323D01*
X244706000Y-100593323D02*
X238294000Y-100593323D01*
X244656000Y-100633323D02*
X238344000Y-100633323D01*
X244606000Y-100673323D02*
X238394000Y-100673323D01*
X244554000Y-100713323D02*
X238446000Y-100713323D01*
X244500000Y-100753323D02*
X238500000Y-100753323D01*
X244445000Y-100793323D02*
X238555000Y-100793323D01*
X244389000Y-100833323D02*
X238611000Y-100833323D01*
X244330000Y-100873323D02*
X238670000Y-100873323D01*
X244270000Y-100913323D02*
X238730000Y-100913323D01*
X244209000Y-100953323D02*
X238791000Y-100953323D01*
X244145000Y-100993323D02*
X238855000Y-100993323D01*
X244079000Y-101033323D02*
X238921000Y-101033323D01*
X244010000Y-101073323D02*
X238990000Y-101073323D01*
X243939000Y-101113323D02*
X239061000Y-101113323D01*
X243865000Y-101153323D02*
X239135000Y-101153323D01*
X243789000Y-101193323D02*
X239211000Y-101193323D01*
X243709000Y-101233323D02*
X239291000Y-101233323D01*
X243625000Y-101273323D02*
X239375000Y-101273323D01*
X243537000Y-101313323D02*
X239463000Y-101313323D01*
X243444000Y-101353323D02*
X239556000Y-101353323D01*
X243346000Y-101393323D02*
X239654000Y-101393323D01*
X243242000Y-101433323D02*
X239758000Y-101433323D01*
X243130000Y-101473323D02*
X239870000Y-101473323D01*
X243010000Y-101513323D02*
X239990000Y-101513323D01*
X242878000Y-101553323D02*
X240122000Y-101553323D01*
X242730000Y-101593323D02*
X240270000Y-101593323D01*
X242562000Y-101633323D02*
X240438000Y-101633323D01*
X242362000Y-101673323D02*
X240638000Y-101673323D01*
X242099000Y-101713323D02*
X240901000Y-101713323D01*
X246620000Y-96632323D02*
G75*
G03*
X246620000Y-96632323I-5120000J0D01*
G01*
D11*
%TO.C,J18*%
X80714000Y-28428000D02*
X90366000Y-28428000D01*
X80714000Y-47732000D02*
X80714000Y-28428000D01*
X90366000Y-28428000D02*
X90366000Y-47732000D01*
X90366000Y-47732000D02*
X80714000Y-47732000D01*
%TO.C,J11*%
X176734000Y-87828000D02*
X186386000Y-87828000D01*
X176734000Y-107132000D02*
X176734000Y-87828000D01*
X186386000Y-87828000D02*
X186386000Y-107132000D01*
X186386000Y-107132000D02*
X176734000Y-107132000D01*
%TO.C,J13*%
X152734000Y-87828000D02*
X162386000Y-87828000D01*
X152734000Y-107132000D02*
X152734000Y-87828000D01*
X162386000Y-87828000D02*
X162386000Y-107132000D01*
X162386000Y-107132000D02*
X152734000Y-107132000D01*
%TO.C,J15*%
X128734000Y-87828000D02*
X138386000Y-87828000D01*
X128734000Y-107132000D02*
X128734000Y-87828000D01*
X138386000Y-87828000D02*
X138386000Y-107132000D01*
X138386000Y-107132000D02*
X128734000Y-107132000D01*
%TO.C,J17*%
X104734000Y-87828000D02*
X114386000Y-87828000D01*
X104734000Y-107132000D02*
X104734000Y-87828000D01*
X114386000Y-87828000D02*
X114386000Y-107132000D01*
X114386000Y-107132000D02*
X104734000Y-107132000D01*
D12*
%TO.C,L2*%
X273690000Y-41870000D02*
X272865000Y-41870000D01*
X272865000Y-42430000D02*
X272865000Y-41870000D01*
X272865000Y-42430000D02*
X264135000Y-42430000D01*
X272865000Y-39710000D02*
X272865000Y-39330000D01*
X272865000Y-36610000D02*
X272865000Y-37170000D01*
X264135000Y-42430000D02*
X264135000Y-41870000D01*
X264135000Y-39710000D02*
X264135000Y-39330000D01*
X264135000Y-36610000D02*
X272865000Y-36610000D01*
X264135000Y-36610000D02*
X264135000Y-37170000D01*
%TO.C,Q1*%
X252500000Y-85800000D02*
X263900000Y-85800000D01*
X263900000Y-85800000D02*
X263900000Y-69000000D01*
X252500000Y-69000000D02*
X252500000Y-85800000D01*
X263900000Y-69000000D02*
X252500000Y-69000000D01*
D11*
%TO.C,J26*%
X260460000Y-96094000D02*
X270620000Y-96094000D01*
X260460000Y-107524000D02*
X260460000Y-94316000D01*
X262111000Y-107524000D02*
X260460000Y-107524000D01*
X265540000Y-94316000D02*
X265540000Y-107524000D01*
X265540000Y-94316000D02*
X270620000Y-94316000D01*
X265540000Y-107524000D02*
X263889000Y-107524000D01*
X267318000Y-107524000D02*
X265540000Y-107524000D01*
X270620000Y-94316000D02*
X270620000Y-107524000D01*
X270620000Y-107524000D02*
X268842000Y-107524000D01*
X270620000Y-107524000D02*
X273160000Y-107524000D01*
X273160000Y-94316000D02*
X270620000Y-94316000D01*
X273160000Y-94316000D02*
X273160000Y-107524000D01*
X260460000Y-94316000D02*
X265540000Y-94316000D01*
X265540000Y-94316000D02*
X265540000Y-94316000D01*
X265540000Y-94316000D02*
X260460000Y-94316000D01*
X260460000Y-94316000D02*
X260460000Y-94316000D01*
%TO.C,J14*%
X128714000Y-28428000D02*
X138366000Y-28428000D01*
X128714000Y-47732000D02*
X128714000Y-28428000D01*
X138366000Y-28428000D02*
X138366000Y-47732000D01*
X138366000Y-47732000D02*
X128714000Y-47732000D01*
%TO.C,J10*%
X176714000Y-28428000D02*
X186366000Y-28428000D01*
X176714000Y-47732000D02*
X176714000Y-28428000D01*
X186366000Y-28428000D02*
X186366000Y-47732000D01*
X186366000Y-47732000D02*
X176714000Y-47732000D01*
D12*
%TO.C,D12*%
X191665000Y-96540000D02*
X191665000Y-98460000D01*
X191665000Y-98460000D02*
X194525000Y-98460000D01*
X194525000Y-96540000D02*
X191665000Y-96540000D01*
D11*
%TO.C,J12*%
X152714000Y-28428000D02*
X162366000Y-28428000D01*
X152714000Y-47732000D02*
X152714000Y-28428000D01*
X162366000Y-28428000D02*
X162366000Y-47732000D01*
X162366000Y-47732000D02*
X152714000Y-47732000D01*
D12*
%TO.C,RV4*%
X194210000Y-41241422D02*
X194210000Y-41758578D01*
X192790000Y-41241422D02*
X192790000Y-41758578D01*
D11*
%TO.C,J23*%
X32734000Y-87828000D02*
X42386000Y-87828000D01*
X32734000Y-107132000D02*
X32734000Y-87828000D01*
X42386000Y-87828000D02*
X42386000Y-107132000D01*
X42386000Y-107132000D02*
X32734000Y-107132000D01*
%TO.C,J5*%
X248714000Y-87828000D02*
X258366000Y-87828000D01*
X248714000Y-107132000D02*
X248714000Y-87828000D01*
X258366000Y-87828000D02*
X258366000Y-107132000D01*
X258366000Y-107132000D02*
X248714000Y-107132000D01*
%TO.C,J21*%
X56734000Y-87828000D02*
X66386000Y-87828000D01*
X56734000Y-107132000D02*
X56734000Y-87828000D01*
X66386000Y-87828000D02*
X66386000Y-107132000D01*
X66386000Y-107132000D02*
X56734000Y-107132000D01*
%TO.C,J8*%
X200714000Y-28428000D02*
X210366000Y-28428000D01*
X200714000Y-47732000D02*
X200714000Y-28428000D01*
X210366000Y-28428000D02*
X210366000Y-47732000D01*
X210366000Y-47732000D02*
X200714000Y-47732000D01*
%TO.C,J25*%
X8734000Y-87828000D02*
X18386000Y-87828000D01*
X8734000Y-107132000D02*
X8734000Y-87828000D01*
X18386000Y-87828000D02*
X18386000Y-107132000D01*
X18386000Y-107132000D02*
X8734000Y-107132000D01*
%TD*%
M02*
